<?xml version="1.0" encoding="utf-8"?>
<!-- Generator: Adobe Illustrator 19.2.1, SVG Export Plug-In . SVG Version: 6.00 Build 0)  -->
<svg version="1.1" id="Layer_1" xmlns="http://www.w3.org/2000/svg" xmlns:xlink="http://www.w3.org/1999/xlink" x="0px" y="0px"
	 viewBox="0 0 320 320" style="enable-background:new 0 0 320 320;" xml:space="preserve">
<style type="text/css">
	.st0{fill:#DBD9EB;}
	.st1{fill:#7A71B3;}
	.st2{fill:#534B7C;}
	.st3{fill:#E0792B;}
</style>
<rect class="st0" width="320" height="320"/>
<g>
	<g>
		<g>
			<path class="st1" d="M107.2,203.8c0,0,0-0.1,0-0.1s0-0.1,0-0.1c0-6.5,2.8-9.8,8.3-9.8c1.2,0,2.2,0.2,3.2,0.5
				c0.9,0.4,1.7,0.8,2.2,1.3s1,1.1,1.5,1.9c0.4,0.8,0.7,1.5,0.9,2c0.2,0.6,0.3,1.2,0.4,2c0.1,0.8,0.1,1.3,0.1,1.5v0.8l-0.1,1.3H110
				c0.2,1.9,0.8,3.3,1.8,4.2c1,0.9,2.5,1.3,4.4,1.3c2.8,0,4.9-0.5,6.5-1.4v2.8c-1.8,0.9-4.1,1.3-6.7,1.3c0,0-0.1,0-0.1,0
				c-1.1,0-2.1-0.1-3.1-0.4c-0.9-0.3-1.8-0.7-2.7-1.4c-0.9-0.7-1.6-1.6-2.1-3C107.5,207.3,107.2,205.7,107.2,203.8z M110,202.7h11.2
				c0-0.4-0.1-0.9-0.2-1.5c-0.1-0.5-0.3-1.2-0.6-2.1c-0.3-0.8-0.9-1.5-1.7-2.1c-0.8-0.6-1.8-0.8-3.1-0.8c-1.9,0-3.3,0.5-4.1,1.5
				C110.6,198.7,110.1,200.4,110,202.7z"/>
			<path class="st1" d="M126,213v-26.3h2.8V213H126z"/>
			<path class="st1" d="M131.2,207.2c0-0.9,0.2-1.6,0.5-2.3c0.3-0.7,0.7-1.2,1.2-1.6c0.5-0.4,1-0.8,1.8-1.1c0.7-0.3,1.3-0.5,1.9-0.7
				c0.5-0.1,1.2-0.2,1.9-0.3c0.8-0.1,1.3-0.1,1.6-0.1c0.3,0,0.7,0,1.1,0l3.1,0.2c0-1.7-0.5-3-1.4-3.7c-0.9-0.7-2.3-1.1-4.2-1.1
				c-2.1,0-3.9,0.3-5.6,0.9v-2.7c1.9-0.7,3.8-1,5.7-1c2.7,0,4.7,0.7,6.1,2c1.4,1.3,2.1,3.3,2.1,5.9v5.7c0,1.2-0.3,2.3-0.8,3.1
				c-0.6,0.9-1.3,1.5-2.2,1.9c-0.9,0.4-1.7,0.7-2.5,0.8c-0.8,0.1-1.5,0.2-2.3,0.2c-0.6,0-1.2,0-1.8-0.1c-0.6-0.1-1.3-0.2-2.1-0.5
				c-0.8-0.3-1.5-0.6-2-1c-0.6-0.4-1.1-1-1.5-1.8C131.4,209.1,131.2,208.2,131.2,207.2z M134,207.2c0,2.4,1.7,3.6,5.2,3.6
				c0,0,0,0,0.1,0c3.4,0,5.1-1.1,5.1-3.4v-3.6c-0.8-0.1-2-0.2-3.4-0.2C136.2,203.4,134,204.7,134,207.2z"/>
			<path class="st1" d="M148.8,199.2c0-1.5,0.6-2.8,1.7-3.9s2.8-1.6,5.1-1.6c1.6,0,3.3,0.4,4.9,1.2v2.7c-1.5-0.9-3-1.3-4.6-1.3
				c-2.9,0-4.3,1-4.3,2.9c0,0.7,0.3,1.2,1,1.6s1.5,0.7,2.6,1c1,0.3,2,0.6,3,1c1,0.4,1.9,1,2.6,1.9c0.7,0.9,1.1,2,1.1,3.4
				c0,1.7-0.6,2.9-1.9,3.9c-1.2,0.9-2.9,1.4-5.1,1.4c-2.1,0-4-0.5-5.8-1.4V209c1.8,1.1,3.7,1.7,5.6,1.7c2.9,0,4.3-0.9,4.3-2.6
				c0-0.9-0.3-1.7-1-2.2c-0.7-0.5-1.5-0.9-2.6-1.2c-1-0.3-2-0.6-3-0.9c-1-0.3-1.9-0.9-2.6-1.6C149.1,201.4,148.8,200.4,148.8,199.2z
				"/>
			<path class="st1" d="M162,196.5V194h3.3v-5.4h2.8v5.4h4.9v2.5h-4.9v11.6c0,1,0.2,1.6,0.6,2c0.4,0.4,1.1,0.6,2.1,0.6
				c0.8,0,1.5-0.1,2.2-0.4v2.6c-0.8,0.3-1.6,0.4-2.4,0.4c0,0-0.1,0-0.1,0c-0.5,0-1-0.1-1.5-0.2s-1-0.3-1.6-0.7s-1.1-0.9-1.5-1.7
				c-0.4-0.8-0.6-1.7-0.6-2.9v-11.4H162z"/>
			<path class="st1" d="M175.1,190.7v-3.1h3.1v3.1H175.1z M175.2,213h2.8v-19h-2.8V213z"/>
			<path class="st1" d="M180.5,203.5c0-1.9,0.3-3.6,0.8-4.9c0.5-1.4,1.3-2.4,2.2-3c0.9-0.7,1.9-1.1,2.8-1.4s2-0.4,3.1-0.4
				c1.9,0,3.8,0.4,5.6,1.1v2.6c-1.7-0.7-3.5-1.1-5.3-1.1c-2.3,0-3.9,0.6-4.9,1.7c-1,1.1-1.5,3-1.5,5.5c0,2.6,0.5,4.4,1.5,5.6
				c1,1.1,2.7,1.7,4.9,1.7c1.9,0,3.7-0.4,5.3-1.1v2.7c-1.8,0.7-3.7,1-5.6,1c-0.9,0-1.7-0.1-2.5-0.2s-1.6-0.4-2.4-0.9
				c-0.8-0.4-1.5-1-2.1-1.7c-0.6-0.7-1-1.7-1.4-2.8C180.7,206.5,180.5,205.1,180.5,203.5z"/>
			<path class="st1" d="M196.1,203.8c0,0,0-0.1,0-0.1s0-0.1,0-0.1c0-6.5,2.8-9.8,8.3-9.8c1.2,0,2.2,0.2,3.2,0.5s1.7,0.8,2.2,1.3
				s1,1.1,1.5,1.9c0.4,0.8,0.7,1.5,0.9,2c0.2,0.6,0.3,1.2,0.4,2c0.1,0.8,0.1,1.3,0.1,1.5v0.8l-0.1,1.3h-13.8
				c0.2,1.9,0.8,3.3,1.8,4.2c1,0.9,2.5,1.3,4.4,1.3c2.8,0,4.9-0.5,6.5-1.4v2.8c-1.8,0.9-4.1,1.3-6.7,1.3c0,0-0.1,0-0.1,0
				c-1.1,0-2.1-0.1-3.1-0.4c-0.9-0.3-1.8-0.7-2.7-1.4s-1.6-1.6-2.1-3C196.4,207.3,196.1,205.7,196.1,203.8z M198.9,202.7H210
				c0-0.4-0.1-0.9-0.2-1.5c-0.1-0.5-0.3-1.2-0.6-2.1c-0.3-0.8-0.9-1.5-1.7-2.1c-0.8-0.6-1.8-0.8-3.1-0.8c-1.9,0-3.3,0.5-4.1,1.5
				C199.5,198.7,199,200.4,198.9,202.7z"/>
		</g>
		<g>
			<polygon class="st2" points="179.5,131 179.5,148.5 140.5,148.5 151.9,137.1 156.2,132.9 158.1,131 			"/>
			<g>
				<path class="st1" d="M170.2,106.7V131l-6.1-6.1l-6.1,6.1l-1.9,1.9l-4.3,4.2l-11.4,11.4c-1.5-0.5-2.9-1.4-4-2.4l-0.7-0.7
					c-2-2.1-3.2-5.1-3.2-8.2c0-3.2,1.2-6.1,3.2-8.2l0.7-0.7l15.4-15.4l-6.1-6.1H170.2z"/>
			</g>
			<g>
				<path class="st3" d="M187.4,142.4c0,3.2-1.2,6.2-3.3,8.3c-0.2,0.2-0.4,0.4-0.5,0.5l-15.5,15.5l6.1,6.1h-24.3v-24.4l6.1,6.1h0
					l7.9-7.9l15.6-15.6c1.6,0.5,3,1.4,4.2,2.6c0.1,0.1,0.3,0.2,0.4,0.4C186.1,136.2,187.4,139.1,187.4,142.4z"/>
			</g>
		</g>
	</g>
</g>
</svg>
