<?xml version="1.0" encoding="utf-8"?>
<svg version="1.1" id="Layer_1" xmlns="http://www.w3.org/2000/svg" xmlns:xlink="http://www.w3.org/1999/xlink" x="0px" y="0px"
	 viewBox="0 0 270 90" style="enable-background:new 0 0 270 90;" xml:space="preserve">
<g fill='#0B95D0'>
	<rect x="133" y="15" class="st1" width="4" height="15"/>
	<rect x="133" y="60" class="st1" width="4" height="15"/>
	<rect x="150" y="43" class="st1" width="15" height="4"/>
	<rect x="105" y="43" class="st1" width="15" height="4"/>
	<rect x="211.8" y="28.4" transform="matrix(0.7071 -0.7071 0.7071 0.7071 38.7409 161.0456)" class="st1" width="4" height="10.6"/>
	<rect x="234.2" y="50.9" transform="matrix(0.7071 -0.7071 0.7071 0.7071 29.4257 183.5185)" class="st1" width="4" height="10.6"/>
	<rect x="230.9" y="31.8" transform="matrix(0.7071 -0.7071 0.7071 0.7071 45.3206 176.9346)" class="st1" width="10.6" height="4"/>
	<rect x="208.4" y="54.2" transform="matrix(0.7071 -0.7071 0.7071 0.7071 22.8419 167.6238)" class="st1" width="10.6" height="4"/>
	<rect x="50.9" y="31.8" transform="matrix(0.7071 -0.7071 0.7071 0.7071 -7.4001 49.6556)" class="st1" width="10.6" height="4"/>
	<rect x="28.4" y="54.2" transform="matrix(0.7071 -0.7071 0.7071 0.7071 -29.8789 40.3444)" class="st1" width="10.6" height="4"/>
	<rect x="54.2" y="50.9" transform="matrix(0.7071 -0.7071 0.7071 0.7071 -23.295 56.2368)" class="st1" width="4" height="10.6"/>
	<rect x="31.8" y="28.4" transform="matrix(0.7071 -0.7071 0.7071 0.7071 -13.9841 33.7605)" class="st1" width="4" height="10.6"/>
</g>
</svg>
