<?xml version="1.0" encoding="utf-8"?>
<!-- Generator: Adobe Illustrator 19.2.1, SVG Export Plug-In . SVG Version: 6.00 Build 0)  -->
<svg version="1.1" id="Layer_1" xmlns="http://www.w3.org/2000/svg" xmlns:xlink="http://www.w3.org/1999/xlink" x="0px" y="0px"
	 viewBox="0 0 255.12 155.91" enable-background="new 0 0 255.12 155.91" xml:space="preserve">
<rect x="-0.04" fill="#0B95D0" width="255.199" height="155.91"/>
<g>
	<g>
		<g enable-background="new    ">
			<defs>
				<polygon id="SVGID_1_" enable-background="new    " points="40.138,115.998 40.187,89.421 234.664,62.089 234.615,88.666
					"/>
			</defs>
			<clipPath id="SVGID_2_">
				<use xlink:href="#SVGID_1_"  overflow="visible"/>
			</clipPath>
			<g clip-path="url(#SVGID_2_)">
				<g>
					<g>
						<g>
							<polyline fill="#0D95D0" points="234.664,62.089 40.187,89.421 40.138,115.998 234.615,88.666 234.664,62.089 							"/>
						</g>
					</g>
				</g>
			</g>
		</g>
	</g>
</g>
<g>
	<g>
		<g enable-background="new    ">
			<defs>
				<polygon id="SVGID_3_" enable-background="new    " points="39.13,115.999 39.18,89.421 233.665,62.088 233.615,88.666 				"/>
			</defs>
			<clipPath id="SVGID_4_">
				<use xlink:href="#SVGID_3_"  overflow="visible"/>
			</clipPath>
			<g clip-path="url(#SVGID_4_)">
				<g>
					<g>
						<g>
							<polyline fill="#0D95D0" points="233.665,62.088 39.18,89.421 39.13,115.999 233.615,88.666 233.665,62.088 							"/>
						</g>
					</g>
				</g>
			</g>
		</g>
	</g>
</g>
<g>
	<g>
		<path fill="#0DA4D3" d="M127.56,7.351c-39.378,0-71.415,31.687-71.415,70.636c0,38.949,32.036,70.636,71.415,70.636
			c39.378,0,71.415-31.687,71.415-70.636C198.975,39.038,166.938,7.351,127.56,7.351z M127.56,132.756
			c-30.546,0-55.309-24.521-55.309-54.77c0-30.249,24.763-54.77,55.309-54.77s55.309,24.521,55.309,54.77
			C182.869,108.235,158.106,132.756,127.56,132.756z"/>
		<path fill="#0DA4D3" d="M127.56,25.328c-29.333,0-53.197,23.622-53.197,52.658c0,29.036,23.864,52.658,53.197,52.658
			s53.197-23.622,53.197-52.658C180.757,48.951,156.893,25.328,127.56,25.328z"/>
		<path fill="#D7D67A" d="M166.92,0.007h-26.046c37.776,6.271,66.546,38.8,66.546,77.98c0,2.629-0.127,5.237-0.391,7.802
			c-0.021,0.285-0.053,0.57-0.084,0.855v0.011c-0.264,2.449-0.655,4.857-1.151,7.232v0.011c-0.507,2.513-1.151,4.973-1.9,7.39
			c-8.731,28.105-32.856,49.527-62.64,54.616h25.793c28.39-14.422,47.848-43.9,47.848-77.917
			C214.894,43.917,195.383,14.397,166.92,0.007z M114.247,0.007H88.2c-28.464,14.39-47.975,43.91-47.975,77.98
			c0,34.017,19.458,63.495,47.848,77.917h25.793c-37.586-6.43-66.166-38.863-66.166-77.917
			C47.701,38.806,76.471,6.278,114.247,0.007z"/>
	</g>
	<polygon fill="#D7D67A" points="95.339,139.417 121.923,75.282 95.339,75.282 124.336,15.886 150.919,15.886 129.556,59.709
		159.781,59.709 	"/>
	<g>
		<g>
			<g enable-background="new    ">
				<defs>
					<polygon id="SVGID_5_" enable-background="new    " points="24.87,122.475 24.922,94.419 230.253,65.562 230.201,93.618
						"/>
				</defs>
				<clipPath id="SVGID_6_">
					<use xlink:href="#SVGID_5_"  overflow="visible"/>
				</clipPath>
				<g clip-path="url(#SVGID_6_)">
					<g>
						<g>
							<g>
								<polyline fill="#0D95D0" points="230.253,65.562 24.922,94.419 24.87,122.475 230.201,93.618 230.253,65.562 								"/>
							</g>
						</g>
					</g>
				</g>
			</g>
		</g>
	</g>
	<g>
		<g>
			<g enable-background="new    ">
				<defs>
					<polygon id="SVGID_7_" enable-background="new    " points="58.218,112.81 58.252,94.714 196.905,75.227 196.871,93.323
						"/>
				</defs>
				<clipPath id="SVGID_8_">
					<use xlink:href="#SVGID_7_"  overflow="visible"/>
				</clipPath>
				<g clip-path="url(#SVGID_8_)">
					<g>
						<g>
							<g>
								<path fill="#D7D67A" d="M65.87,93.643c-0.905,0.127-1.731,0.407-2.46,0.847c-0.73,0.431-1.347,0.967-1.861,1.593
									c-0.514,0.634-0.907,1.338-1.181,2.102c-0.274,0.765-0.411,1.536-0.413,2.323c-0.001,0.683,0.078,1.242,0.245,1.686
									s0.391,0.809,0.663,1.091c0.28,0.28,0.592,0.496,0.944,0.645c0.352,0.149,0.712,0.272,1.08,0.367
									c0.368,0.095,0.728,0.174,1.081,0.254c0.352,0.072,0.672,0.173,0.944,0.299s0.496,0.293,0.664,0.503
									c0.168,0.21,0.247,0.501,0.247,0.864c-0.001,0.787-0.187,1.409-0.556,1.859c-0.377,0.459-0.906,0.732-1.587,0.828
									c-0.465,0.065-0.857,0.043-1.177-0.068c-0.32-0.119-0.6-0.253-0.84-0.409s-0.456-0.299-0.656-0.435
									c-0.2-0.127-0.408-0.176-0.616-0.147c-0.16,0.023-0.312,0.087-0.473,0.196c-0.16,0.118-0.289,0.248-0.385,0.4l-1.309,2.034
									c0.264,0.309,0.576,0.585,0.951,0.817c0.376,0.232,0.784,0.417,1.224,0.563c0.44,0.146,0.896,0.237,1.377,0.282
									c0.472,0.055,0.953,0.039,1.426-0.027c0.953-0.134,1.811-0.427,2.58-0.881c0.762-0.453,1.411-1.011,1.941-1.673
									c0.538-0.663,0.948-1.404,1.237-2.231c0.29-0.827,0.428-1.685,0.429-2.584c0.001-0.623-0.078-1.147-0.245-1.565
									c-0.167-0.426-0.399-0.774-0.679-1.054c-0.28-0.272-0.6-0.495-0.952-0.653c-0.36-0.165-0.728-0.295-1.096-0.408
									c-0.368-0.112-0.736-0.208-1.089-0.296c-0.352-0.089-0.672-0.199-0.952-0.324c-0.28-0.125-0.504-0.284-0.672-0.485
									c-0.168-0.193-0.255-0.448-0.255-0.777c0.001-0.303,0.041-0.585,0.13-0.848c0.089-0.263,0.217-0.497,0.394-0.712
									c0.169-0.205,0.385-0.383,0.65-0.523c0.257-0.148,0.561-0.243,0.905-0.291c0.376-0.053,0.705-0.039,0.985,0.043
									c0.272,0.083,0.52,0.186,0.736,0.303c0.216,0.117,0.408,0.219,0.576,0.317c0.176,0.096,0.344,0.133,0.52,0.108
									c0.184-0.026,0.337-0.091,0.465-0.195c0.136-0.106,0.265-0.271,0.393-0.479l1.108-1.789
									c-0.216-0.272-0.488-0.511-0.799-0.717c-0.312-0.215-0.664-0.391-1.048-0.518c-0.384-0.136-0.792-0.226-1.233-0.268
									C66.791,93.566,66.335,93.578,65.87,93.643"/>
								<path fill="#D7D67A" d="M77.052,101.018l0.676-5.912l1.738-0.244c0.376-0.053,0.705-0.039,0.977,0.036
									c0.272,0.083,0.496,0.216,0.68,0.397c0.176,0.183,0.312,0.423,0.399,0.696c0.088,0.282,0.127,0.596,0.126,0.95
									c-0.001,0.501-0.05,0.966-0.147,1.404c-0.097,0.437-0.258,0.823-0.483,1.157c-0.225,0.334-0.514,0.608-0.866,0.831
									c-0.361,0.215-0.802,0.363-1.33,0.438L77.052,101.018 M79.832,91.854l-5.431,0.763l-2.044,18.015l3.653-0.513l0.692-6.079
									l1.754-0.247c1.178-0.165,2.203-0.474,3.069-0.941c0.866-0.459,1.58-1.035,2.141-1.71c0.57-0.676,0.988-1.453,1.262-2.312
									c0.282-0.861,0.42-1.779,0.422-2.739c0.001-0.709-0.102-1.351-0.317-1.935c-0.207-0.585-0.535-1.074-0.982-1.461
									c-0.448-0.387-1.016-0.652-1.712-0.814C81.642,91.72,80.809,91.716,79.832,91.854"/>
								<path fill="#D7D67A" d="M90.81,101.28l1.932-5.302c0.04-0.109,0.105-0.265,0.193-0.485c0.08-0.21,0.177-0.44,0.266-0.694
									c0.097-0.247,0.193-0.503,0.29-0.758c0.097-0.264,0.177-0.5,0.242-0.7c0.047,0.348,0.119,0.735,0.19,1.157
									c0.079,0.421,0.151,0.843,0.222,1.257l0.792,4.945L90.81,101.28 M96.029,89.577l-3.773,0.53l-7.875,18.835l2.884-0.405
									c0.296-0.042,0.561-0.165,0.802-0.381c0.241-0.207,0.401-0.428,0.482-0.664l1.224-3.361l5.583-0.785l0.507,3.118
									c0.032,0.255,0.151,0.445,0.343,0.574s0.44,0.18,0.761,0.135l2.836-0.399L96.029,89.577"/>
								<path fill="#D7D67A" d="M107.5,96.332l0.627-5.499l1.314-0.185c0.393-0.055,0.729-0.051,1.017,0.013s0.528,0.176,0.72,0.34
									c0.192,0.163,0.336,0.376,0.423,0.641c0.088,0.256,0.135,0.551,0.135,0.88c-0.001,0.432-0.05,0.854-0.154,1.258
									c-0.105,0.404-0.266,0.763-0.499,1.09c-0.233,0.327-0.53,0.602-0.898,0.826c-0.369,0.225-0.818,0.374-1.338,0.447
									L107.5,96.332 M109.783,87.644l-4.982,0.7l-2.044,18.015l3.653-0.513l0.773-6.73L108,99.002
									c0.272-0.038,0.481-0.024,0.617,0.052c0.136,0.076,0.248,0.216,0.336,0.437l1.769,4.989c0.08,0.239,0.231,0.4,0.44,0.5
									c0.208,0.1,0.472,0.132,0.777,0.09l3.316-0.466l-2.384-5.914c-0.112-0.27-0.263-0.49-0.463-0.661
									c-0.2-0.171-0.408-0.306-0.632-0.413c0.569-0.322,1.074-0.704,1.524-1.139c0.449-0.443,0.827-0.929,1.14-1.465
									c0.305-0.536,0.547-1.105,0.708-1.716c0.161-0.602,0.243-1.236,0.244-1.893c0.001-0.648-0.102-1.239-0.309-1.763
									s-0.535-0.962-0.983-1.305c-0.448-0.343-1.032-0.581-1.736-0.707C111.649,87.495,110.792,87.503,109.783,87.644"/>
								<path fill="#D7D67A" d="M134.006,84.24l-3.18,0.447c-0.36,0.051-0.681,0.148-0.946,0.288
									c-0.273,0.142-0.513,0.392-0.73,0.734l-3.912,6.427c-0.129,0.217-0.289,0.395-0.497,0.511
									c-0.2,0.123-0.433,0.208-0.697,0.245l-0.537,0.075l0.847-7.371l-3.677,0.517l-2.044,18.015l3.653-0.513l0.887-7.722
									l0.841-0.118c0.32-0.045,0.569-0.028,0.753,0.033c0.184,0.069,0.32,0.214,0.424,0.433l2.536,5.876
									c0.04,0.107,0.096,0.203,0.168,0.288c0.064,0.086,0.152,0.152,0.256,0.197c0.096,0.047,0.224,0.072,0.368,0.087
									c0.144,0.014,0.328,0.006,0.537-0.024l3.268-0.459l-3.453-7.743c-0.136-0.301-0.303-0.536-0.495-0.7
									c-0.2-0.162-0.424-0.286-0.68-0.363c0.208-0.142,0.401-0.307,0.586-0.497c0.193-0.191,0.369-0.424,0.546-0.699
									L134.006,84.24"/>
								<path fill="#D7D67A" d="M146.63,91.239l0.676-5.912l1.738-0.244c0.368-0.052,0.697-0.037,0.969,0.037
									c0.272,0.083,0.504,0.214,0.68,0.397c0.184,0.182,0.32,0.422,0.399,0.696c0.088,0.282,0.135,0.595,0.134,0.949
									c-0.001,0.501-0.058,0.968-0.155,1.405c-0.097,0.437-0.258,0.823-0.483,1.157c-0.217,0.333-0.506,0.607-0.866,0.831
									c-0.361,0.215-0.801,0.363-1.322,0.436L146.63,91.239 M149.41,82.075l-5.439,0.764l-2.044,18.015l3.661-0.514l0.684-6.078
									l1.762-0.248c1.178-0.165,2.203-0.474,3.069-0.941c0.858-0.458,1.58-1.035,2.141-1.71c0.562-0.675,0.988-1.453,1.262-2.312
									s0.412-1.778,0.414-2.738c0.001-0.709-0.102-1.351-0.309-1.936s-0.535-1.074-0.982-1.461
									c-0.448-0.387-1.024-0.651-1.712-0.814C151.221,81.942,150.388,81.938,149.41,82.075"/>
								<path fill="#D7D67A" d="M160.38,91.502l1.94-5.303c0.032-0.108,0.097-0.264,0.185-0.484c0.088-0.211,0.177-0.44,0.274-0.695
									c0.097-0.247,0.193-0.503,0.29-0.758c0.097-0.264,0.177-0.5,0.234-0.698c0.055,0.347,0.119,0.735,0.198,1.156
									c0.079,0.421,0.151,0.843,0.214,1.258l0.792,4.945L160.38,91.502 M165.599,79.8l-3.765,0.529l-7.883,18.836l2.892-0.406
									c0.288-0.041,0.553-0.164,0.794-0.379c0.241-0.207,0.409-0.429,0.49-0.665l1.224-3.361l5.583-0.785l0.499,3.119
									c0.04,0.254,0.151,0.445,0.343,0.574c0.192,0.129,0.448,0.179,0.761,0.135l2.844-0.4L165.599,79.8"/>
								<path fill="#D7D67A" d="M179.153,77.722c-0.905,0.127-1.731,0.407-2.46,0.847c-0.73,0.431-1.347,0.967-1.861,1.593
									c-0.514,0.634-0.907,1.338-1.181,2.102c-0.274,0.765-0.419,1.537-0.421,2.324c-0.001,0.683,0.086,1.241,0.253,1.685
									s0.391,0.809,0.663,1.091c0.28,0.28,0.592,0.496,0.944,0.645c0.352,0.149,0.712,0.272,1.08,0.367
									c0.368,0.095,0.728,0.174,1.081,0.254c0.352,0.072,0.664,0.175,0.944,0.299c0.272,0.126,0.496,0.293,0.664,0.503
									c0.168,0.21,0.247,0.501,0.247,0.864c-0.001,0.787-0.187,1.409-0.556,1.859c-0.377,0.459-0.906,0.732-1.587,0.828
									c-0.465,0.065-0.857,0.043-1.177-0.068c-0.32-0.119-0.6-0.253-0.84-0.409s-0.464-0.298-0.664-0.434
									c-0.192-0.129-0.4-0.177-0.608-0.148c-0.16,0.023-0.32,0.088-0.473,0.196c-0.16,0.118-0.289,0.248-0.385,0.4l-1.317,2.035
									c0.264,0.309,0.584,0.584,0.959,0.816c0.376,0.232,0.784,0.417,1.224,0.563c0.44,0.146,0.897,0.237,1.377,0.282
									c0.472,0.055,0.953,0.039,1.426-0.027c0.953-0.134,1.811-0.427,2.572-0.88c0.77-0.454,1.419-1.012,1.949-1.674
									c0.538-0.663,0.948-1.404,1.237-2.231c0.282-0.826,0.428-1.685,0.429-2.584c0.001-0.623-0.078-1.147-0.253-1.563
									c-0.167-0.426-0.391-0.775-0.671-1.055c-0.28-0.272-0.6-0.495-0.96-0.652c-0.352-0.167-0.72-0.296-1.088-0.409
									c-0.376-0.111-0.736-0.208-1.089-0.296c-0.352-0.089-0.672-0.199-0.952-0.324c-0.28-0.125-0.504-0.284-0.672-0.485
									c-0.168-0.193-0.255-0.448-0.255-0.777c0.001-0.303,0.041-0.585,0.13-0.848c0.089-0.263,0.217-0.497,0.394-0.712
									c0.169-0.205,0.385-0.383,0.65-0.523c0.257-0.148,0.561-0.243,0.905-0.291c0.376-0.053,0.705-0.039,0.977,0.044
									c0.28,0.082,0.528,0.185,0.744,0.302c0.208,0.118,0.408,0.219,0.576,0.317c0.176,0.096,0.344,0.133,0.52,0.108
									c0.176-0.025,0.337-0.091,0.465-0.195c0.136-0.106,0.265-0.271,0.393-0.479l1.108-1.789
									c-0.216-0.272-0.488-0.511-0.799-0.717c-0.32-0.214-0.664-0.391-1.048-0.518c-0.384-0.136-0.792-0.226-1.233-0.268
									C180.075,77.645,179.618,77.657,179.153,77.722"/>
								<path fill="#D7D67A" d="M192.459,75.852c-0.905,0.127-1.731,0.407-2.46,0.847c-0.73,0.431-1.347,0.967-1.861,1.593
									c-0.514,0.634-0.907,1.338-1.181,2.102c-0.274,0.765-0.411,1.536-0.413,2.323c-0.001,0.683,0.078,1.242,0.245,1.686
									c0.167,0.443,0.391,0.809,0.663,1.091c0.28,0.28,0.592,0.496,0.944,0.645c0.352,0.149,0.712,0.272,1.08,0.367
									c0.368,0.095,0.728,0.174,1.081,0.254c0.352,0.072,0.664,0.175,0.944,0.299c0.272,0.126,0.496,0.293,0.664,0.503
									c0.168,0.21,0.247,0.501,0.247,0.864c-0.001,0.787-0.187,1.409-0.556,1.859c-0.377,0.459-0.906,0.732-1.587,0.828
									c-0.465,0.065-0.857,0.043-1.177-0.068c-0.32-0.119-0.6-0.253-0.84-0.409s-0.464-0.298-0.656-0.435
									c-0.2-0.127-0.408-0.176-0.616-0.147c-0.16,0.023-0.312,0.087-0.473,0.196c-0.16,0.118-0.289,0.248-0.385,0.4l-1.309,2.034
									c0.256,0.31,0.576,0.585,0.951,0.817c0.376,0.232,0.784,0.417,1.224,0.563c0.44,0.146,0.896,0.237,1.377,0.282
									c0.472,0.055,0.953,0.039,1.426-0.027c0.953-0.134,1.811-0.427,2.572-0.88c0.77-0.454,1.419-1.012,1.949-1.674
									c0.538-0.663,0.948-1.404,1.237-2.231c0.282-0.826,0.428-1.685,0.429-2.584c0.001-0.623-0.078-1.147-0.245-1.565
									c-0.167-0.426-0.399-0.774-0.679-1.054c-0.28-0.272-0.6-0.495-0.96-0.652c-0.352-0.167-0.72-0.296-1.088-0.409
									c-0.368-0.112-0.736-0.208-1.089-0.296c-0.352-0.089-0.672-0.199-0.952-0.324s-0.504-0.284-0.672-0.485
									c-0.168-0.193-0.255-0.448-0.255-0.777c0.001-0.303,0.041-0.585,0.13-0.848c0.089-0.263,0.217-0.497,0.394-0.712
									c0.169-0.205,0.385-0.383,0.65-0.523c0.257-0.148,0.561-0.243,0.905-0.291c0.376-0.053,0.705-0.039,0.977,0.044
									c0.28,0.082,0.528,0.185,0.744,0.302c0.208,0.118,0.408,0.219,0.576,0.317c0.176,0.096,0.344,0.133,0.52,0.108
									c0.176-0.025,0.337-0.091,0.465-0.195c0.136-0.106,0.265-0.271,0.393-0.479l1.108-1.789
									c-0.216-0.272-0.488-0.511-0.799-0.717c-0.312-0.215-0.664-0.391-1.048-0.518c-0.384-0.136-0.792-0.226-1.233-0.268
									C193.38,75.775,192.923,75.787,192.459,75.852"/>
							</g>
						</g>
					</g>
				</g>
			</g>
		</g>
	</g>
</g>
<polygon fill="#0DB5DD" points="199.356,150.013 225.007,150.613 224.242,152.902 250.385,148.876 227.445,151.316 228.016,148.773
	"/>
<g id="layer1_1_" transform="translate(-235.89801,-456.22452)">
	<g id="g2990_1_">
		<g id="path3780-1-4_1_">
			<path fill="#D7D67A" d="M438.595,591.209l-0.272,0.763l-0.703,1.966l-1.88-0.897l-0.733-0.349
				l0.345,0.733l0.897,1.885l-1.962,0.699l-0.768,0.272l0.768,0.272l1.962,0.699l-0.897,1.884l-0.345,0.733l0.733-0.349l1.884-0.893
				l0.699,1.962l0.272,0.768v-1.725l-0.535-1.501l-0.108-0.302l-0.289,0.138l-1.44,0.681l0.686-1.436l0.138-0.289l-0.302-0.108
				l-1.501-0.535l1.501-0.535l0.302-0.103l-0.138-0.289l-0.686-1.44l1.44,0.686l0.289,0.134l0.108-0.302l0.535-1.501l0.535,1.501
				l0.104,0.302l0.289-0.134l1.44-0.686l-0.686,1.44l-0.138,0.289l0.302,0.103l1.501,0.535h1.725l-0.763-0.272l-1.966-0.699
				l0.897-1.885l0.345-0.733l-0.733,0.349l-1.88,0.897l-0.699-1.966L438.595,591.209L438.595,591.209z"/>
		</g>
		<g enable-background="new    ">
			<path fill="#0DB5DD" d="M461.064,599.876c0.34,0.489,0.676,0.992,1.007,1.509h0.025c-0.036-0.539-0.054-1.089-0.054-1.65v-2.952
				h0.68v5.547h-0.676l-2.176-3.093c-0.376-0.539-0.712-1.042-1.007-1.509h-0.025c0.036,0.506,0.054,1.096,0.054,1.77v2.831h-0.676
				v-5.547h0.672L461.064,599.876z"/>
			<path fill="#0DB5DD" d="M465.914,601.874c0.213,0,0.407-0.017,0.583-0.052c0.175-0.035,0.35-0.084,0.524-0.147v0.535
				c-0.141,0.069-0.315,0.124-0.522,0.164c-0.207,0.04-0.43,0.06-0.667,0.06c-0.282,0-0.547-0.036-0.794-0.108
				c-0.247-0.072-0.461-0.188-0.642-0.348c-0.181-0.16-0.323-0.37-0.425-0.628c-0.102-0.259-0.154-0.57-0.154-0.935
				c0-0.359,0.05-0.671,0.149-0.935c0.099-0.264,0.232-0.484,0.397-0.661c0.165-0.177,0.356-0.309,0.571-0.398
				c0.215-0.088,0.44-0.133,0.674-0.133c0.22,0,0.426,0.037,0.618,0.11c0.192,0.073,0.358,0.189,0.498,0.346
				s0.252,0.361,0.333,0.609c0.081,0.249,0.122,0.547,0.122,0.895c0,0.033,0,0.062,0,0.085c0,0.024-0.001,0.077-0.004,0.16h-2.719
				c0,0.252,0.038,0.465,0.114,0.641c0.076,0.175,0.18,0.318,0.311,0.427c0.131,0.109,0.285,0.189,0.462,0.238
				C465.519,601.849,465.71,601.874,465.914,601.874z M465.575,598.839c-0.148,0-0.286,0.029-0.413,0.087s-0.239,0.137-0.334,0.236
				c-0.095,0.099-0.172,0.216-0.231,0.35c-0.059,0.134-0.095,0.277-0.109,0.429h2.015c0-0.155-0.02-0.299-0.061-0.433
				c-0.04-0.134-0.1-0.251-0.178-0.35c-0.078-0.099-0.175-0.178-0.29-0.234C465.859,598.868,465.726,598.839,465.575,598.839z"/>
			<path fill="#0DB5DD" d="M470.346,602.338c-0.055,0.022-0.14,0.043-0.253,0.062c-0.113,0.019-0.249,0.03-0.406,0.033
				c-0.207,0-0.387-0.026-0.539-0.077c-0.152-0.051-0.278-0.124-0.379-0.22c-0.101-0.096-0.176-0.211-0.226-0.346
				c-0.05-0.135-0.075-0.286-0.075-0.452v-2.396h-0.759v-0.551h0.759v-1.078h0.643v1.078h1.177v0.551h-1.177v2.297
				c0,0.091,0.013,0.176,0.039,0.253c0.026,0.077,0.068,0.144,0.124,0.201c0.057,0.057,0.129,0.101,0.218,0.133
				c0.088,0.032,0.195,0.048,0.319,0.048c0.086,0,0.176-0.007,0.272-0.021c0.095-0.014,0.183-0.032,0.263-0.054V602.338z"/>
			<path fill="#0DB5DD" d="M473.562,599.042c-0.084,0.362-0.164,0.674-0.237,0.937l-0.637,2.351h-0.649l-1.278-3.938h0.643
				l0.734,2.454c0.097,0.323,0.171,0.582,0.221,0.775h0.017c0.044-0.199,0.117-0.486,0.219-0.862l0.658-2.367h0.643l0.717,2.367
				c0.096,0.321,0.176,0.608,0.239,0.862h0.017c0.067-0.254,0.14-0.513,0.221-0.775l0.734-2.454h0.643l-1.313,3.938h-0.675
				l-0.654-2.351c-0.078-0.279-0.159-0.591-0.243-0.937H473.562z"/>
			<path fill="#0DB5DD" d="M480.772,600.365c0,0.31-0.044,0.591-0.133,0.846c-0.088,0.254-0.213,0.472-0.375,0.653
				c-0.162,0.181-0.357,0.321-0.587,0.421c-0.229,0.099-0.486,0.149-0.771,0.149c-0.293,0-0.555-0.05-0.785-0.149
				c-0.231-0.1-0.427-0.24-0.589-0.421c-0.162-0.181-0.285-0.399-0.371-0.653c-0.086-0.254-0.129-0.536-0.129-0.846
				c0-0.312,0.044-0.596,0.133-0.85c0.088-0.254,0.214-0.473,0.375-0.655c0.162-0.182,0.358-0.323,0.589-0.423
				c0.231-0.099,0.488-0.149,0.773-0.149c0.29,0,0.551,0.05,0.784,0.149s0.428,0.24,0.589,0.423c0.16,0.182,0.283,0.401,0.369,0.655
				C480.729,599.769,480.772,600.053,480.772,600.365z M480.1,600.365c0-0.243-0.03-0.46-0.089-0.649
				c-0.06-0.189-0.142-0.35-0.249-0.481c-0.106-0.131-0.233-0.231-0.379-0.299c-0.146-0.068-0.307-0.102-0.481-0.102
				s-0.334,0.034-0.481,0.102c-0.146,0.068-0.273,0.167-0.379,0.299c-0.106,0.131-0.189,0.292-0.249,0.481
				c-0.06,0.189-0.089,0.406-0.089,0.649c0,0.24,0.03,0.455,0.089,0.645c0.059,0.189,0.143,0.349,0.251,0.479
				c0.108,0.13,0.235,0.229,0.381,0.296c0.146,0.068,0.307,0.102,0.481,0.102s0.334-0.034,0.479-0.102
				c0.145-0.068,0.271-0.166,0.377-0.296c0.106-0.13,0.189-0.29,0.249-0.479C480.07,600.82,480.1,600.605,480.1,600.365z"/>
			<path fill="#0DB5DD" d="M483.947,598.914h-0.05c-0.152,0-0.301,0.014-0.448,0.042c-0.147,0.028-0.284,0.07-0.412,0.126
				c-0.129,0.057-0.245,0.127-0.348,0.209c-0.104,0.083-0.19,0.181-0.259,0.294v2.744h-0.643v-3.938h0.497l0.124,0.626h0.012
				c0.064-0.102,0.142-0.197,0.234-0.286c0.093-0.088,0.197-0.166,0.313-0.232c0.116-0.066,0.243-0.118,0.381-0.156
				c0.138-0.037,0.283-0.056,0.435-0.056c0.028,0,0.056,0.001,0.085,0.002c0.029,0.001,0.055,0.003,0.077,0.006V598.914z"/>
			<path fill="#0DB5DD" d="M487.181,598.392h0.837l-1.924,1.812l1.919,2.127h-0.8l-1.89-2.098h-0.008v2.098h-0.643v-6.003h0.643
				v3.822h0.008L487.181,598.392z"/>
		</g>
		<g enable-background="new    ">
			<path fill="#D7D67A" d="M439.215,602.33v-5.547h1.016v5.547H439.215z"/>
			<path fill="#D7D67A" d="M441.558,602.33v-5.547h1.467c0.13,0,0.262,0.004,0.396,0.012c0.134,0.008,0.265,0.021,0.392,0.037
				c0.127,0.017,0.25,0.037,0.369,0.06c0.119,0.024,0.228,0.052,0.327,0.085c0.296,0.094,0.557,0.221,0.784,0.381
				c0.227,0.16,0.417,0.35,0.57,0.568c0.153,0.218,0.269,0.462,0.348,0.732c0.079,0.27,0.118,0.562,0.118,0.877
				c0,0.299-0.033,0.578-0.099,0.839c-0.066,0.261-0.167,0.5-0.303,0.715c-0.135,0.216-0.306,0.406-0.512,0.57
				c-0.206,0.164-0.45,0.299-0.732,0.404c-0.235,0.089-0.502,0.155-0.8,0.199c-0.298,0.044-0.634,0.066-1.007,0.066H441.558z
				 M442.992,601.48c0.594,0,1.058-0.081,1.393-0.245c0.296-0.146,0.52-0.359,0.672-0.638c0.152-0.279,0.228-0.636,0.228-1.07
				c0-0.227-0.025-0.431-0.075-0.614c-0.05-0.182-0.122-0.345-0.216-0.487c-0.094-0.142-0.208-0.264-0.342-0.367
				c-0.134-0.102-0.285-0.187-0.454-0.253c-0.158-0.061-0.333-0.105-0.526-0.133c-0.194-0.028-0.41-0.041-0.651-0.041h-0.448v3.847
				H442.992z"/>
			<path fill="#D7D67A" d="M448.422,601.48h2.728v0.85h-3.743v-5.547h3.594v0.85h-2.579v1.434h2.214v0.85h-2.214V601.48z"/>
			<path fill="#D7D67A" d="M455.403,600.916h-2.089l-0.543,1.414h-1.082l2.201-5.547h0.929l2.201,5.547h-1.074L455.403,600.916z
				 M454.351,598.118c-0.194,0.58-0.367,1.065-0.519,1.455l-0.19,0.494h1.434l-0.19-0.494c-0.15-0.393-0.323-0.878-0.519-1.455
				H454.351z"/>
		</g>
	</g>
</g>
</svg>
