<?xml version="1.0" encoding="utf-8"?>
<svg version="1.1" id="Layer_1" xmlns="http://www.w3.org/2000/svg" xmlns:xlink="http://www.w3.org/1999/xlink" x="0px" y="0px"
	 viewBox="0 0 263 112.2" style="enable-background:new 0 0 263 112.2;" xml:space="preserve">

<g fill="#0694CE">
	<path d="M40.1,33L39,36.1l-2.9,8.1l-7.8-3.7l-3-1.4l1.4,3l3.7,7.8l-8.1,2.9
		l-3.2,1.1l3.2,1.1l8.1,2.9l-3.7,7.8l-1.4,3l3-1.4l7.8-3.7l2.9,8.1l1.1,3.2v-7.1l-2.2-6.2l-0.4-1.2l-1.2,0.6l-5.9,2.8l2.8-5.9
		l0.6-1.2l-1.2-0.4l-6.2-2.2l6.2-2.2l1.2-0.4l-0.6-1.2l-2.8-5.9l5.9,2.8l1.2,0.6l0.4-1.2l2.2-6.2l2.2,6.2l0.4,1.2l1.2-0.6
		l5.9-2.8L47,50.1l-0.6,1.2l1.2,0.4l6.2,2.2H61l-3.1-1.1l-8.1-2.9l3.7-7.8l1.4-3l-3,1.4l-7.8,3.7l-2.9-8.1L40.1,33L40.1,33z"/>
	<path d="M132.7,68.7c1.4,2,2.8,4.1,4.2,6.2h0.1c-0.1-2.2-0.2-4.5-0.2-6.8V56h2.8v22.9h-2.8l-9-12.7
		c-1.5-2.2-2.9-4.3-4.2-6.2h-0.1c0.1,2.1,0.2,4.5,0.2,7.3v11.7H121V56h2.8L132.7,68.7z"/>
	<path d="M152.7,77c0.9,0,1.7-0.1,2.4-0.2c0.7-0.1,1.4-0.3,2.2-0.6v2.2c-0.6,0.3-1.3,0.5-2.2,0.7
		c-0.9,0.2-1.8,0.2-2.8,0.2c-1.2,0-2.3-0.1-3.3-0.4c-1-0.3-1.9-0.8-2.6-1.4c-0.7-0.7-1.3-1.5-1.8-2.6c-0.4-1.1-0.6-2.4-0.6-3.9
		c0-1.5,0.2-2.8,0.6-3.9c0.4-1.1,1-2,1.6-2.7c0.7-0.7,1.5-1.3,2.4-1.6c0.9-0.4,1.8-0.5,2.8-0.5c0.9,0,1.8,0.2,2.5,0.5
		c0.8,0.3,1.5,0.8,2.1,1.4c0.6,0.6,1,1.5,1.4,2.5c0.3,1,0.5,2.3,0.5,3.7c0,0.1,0,0.3,0,0.3c0,0.1,0,0.3,0,0.7h-11.2
		c0,1,0.2,1.9,0.5,2.6c0.3,0.7,0.7,1.3,1.3,1.8c0.5,0.5,1.2,0.8,1.9,1S151.8,77,152.7,77z M151.3,64.4c-0.6,0-1.2,0.1-1.7,0.4
		c-0.5,0.2-1,0.6-1.4,1c-0.4,0.4-0.7,0.9-1,1.4c-0.2,0.6-0.4,1.1-0.4,1.8h8.3c0-0.6-0.1-1.2-0.3-1.8c-0.2-0.6-0.4-1-0.7-1.4
		c-0.3-0.4-0.7-0.7-1.2-1C152.5,64.6,151.9,64.4,151.3,64.4z"/>
	<path d="M171,78.9c-0.2,0.1-0.6,0.2-1,0.3c-0.5,0.1-1,0.1-1.7,0.1c-0.9,0-1.6-0.1-2.2-0.3c-0.6-0.2-1.1-0.5-1.6-0.9
		c-0.4-0.4-0.7-0.9-0.9-1.4c-0.2-0.6-0.3-1.2-0.3-1.9v-9.9h-3.1v-2.3h3.1v-4.4h2.6v4.4h4.9v2.3h-4.9v9.5c0,0.4,0.1,0.7,0.2,1
		c0.1,0.3,0.3,0.6,0.5,0.8c0.2,0.2,0.5,0.4,0.9,0.5c0.4,0.1,0.8,0.2,1.3,0.2c0.4,0,0.7,0,1.1-0.1c0.4-0.1,0.8-0.1,1.1-0.2V78.9z"
		/>
	<path d="M184.2,65.3c-0.3,1.5-0.7,2.8-1,3.9l-2.6,9.7h-2.7l-5.3-16.2h2.6l3,10.1c0.4,1.3,0.7,2.4,0.9,3.2h0.1
		c0.2-0.8,0.5-2,0.9-3.6l2.7-9.8h2.6l3,9.8c0.4,1.3,0.7,2.5,1,3.6h0.1c0.3-1,0.6-2.1,0.9-3.2l3-10.1h2.6l-5.4,16.2H188l-2.7-9.7
		C185,68,184.6,66.7,184.2,65.3L184.2,65.3z"/>
	<path d="M213.9,70.7c0,1.3-0.2,2.4-0.5,3.5c-0.4,1-0.9,1.9-1.5,2.7c-0.7,0.7-1.5,1.3-2.4,1.7s-2,0.6-3.2,0.6
		c-1.2,0-2.3-0.2-3.2-0.6c-1-0.4-1.8-1-2.4-1.7c-0.7-0.7-1.2-1.6-1.5-2.7c-0.4-1-0.5-2.2-0.5-3.5c0-1.3,0.2-2.5,0.5-3.5
		c0.4-1,0.9-1.9,1.5-2.7c0.7-0.8,1.5-1.3,2.4-1.7c1-0.4,2-0.6,3.2-0.6c1.2,0,2.3,0.2,3.2,0.6c1,0.4,1.8,1,2.4,1.7
		c0.7,0.8,1.2,1.7,1.5,2.7C213.8,68.3,213.9,69.4,213.9,70.7z M211.2,70.7c0-1-0.1-1.9-0.4-2.7c-0.2-0.8-0.6-1.4-1-2
		c-0.4-0.5-1-1-1.6-1.2c-0.6-0.3-1.3-0.4-2-0.4c-0.7,0-1.4,0.1-2,0.4c-0.6,0.3-1.1,0.7-1.6,1.2c-0.4,0.5-0.8,1.2-1,2
		c-0.2,0.8-0.4,1.7-0.4,2.7c0,1,0.1,1.9,0.4,2.7c0.2,0.8,0.6,1.4,1,2c0.4,0.5,1,0.9,1.6,1.2c0.6,0.3,1.3,0.4,2,0.4s1.4-0.1,2-0.4
		c0.6-0.3,1.1-0.7,1.6-1.2c0.4-0.5,0.8-1.2,1-2C211,72.6,211.2,71.7,211.2,70.7z"/>
	<path d="M227,64.7h-0.2c-0.6,0-1.2,0.1-1.8,0.2c-0.6,0.1-1.2,0.3-1.7,0.5c-0.5,0.2-1,0.5-1.4,0.9
		c-0.4,0.3-0.8,0.7-1.1,1.2v11.3h-2.6V62.6h2.1l0.5,2.6h0.1c0.3-0.4,0.6-0.8,1-1.2c0.4-0.4,0.8-0.7,1.3-1s1-0.5,1.6-0.6
		c0.6-0.2,1.2-0.2,1.8-0.2c0.1,0,0.2,0,0.3,0c0.1,0,0.2,0,0.3,0V64.7z"/>
	<path d="M240.4,62.6h3.5l-7.9,7.5l7.9,8.8h-3.3l-7.8-8.6h0v8.6H230V54.1h2.6v15.8h0L240.4,62.6z"/>
	<path d="M42.6,78.8V56h4.2v22.9H42.6z"/>
	<path d="M52.3,78.8V56h6c0.5,0,1.1,0,1.6,0.1c0.6,0,1.1,0.1,1.6,0.2c0.5,0.1,1,0.2,1.5,0.2c0.5,0.1,0.9,0.2,1.4,0.4
		c1.2,0.4,2.3,0.9,3.2,1.6c0.9,0.7,1.7,1.4,2.3,2.3c0.6,0.9,1.1,1.9,1.4,3c0.3,1.1,0.5,2.3,0.5,3.6c0,1.2-0.1,2.4-0.4,3.5
		c-0.3,1.1-0.7,2.1-1.2,2.9c-0.6,0.9-1.3,1.7-2.1,2.3c-0.8,0.7-1.9,1.2-3,1.7c-1,0.4-2.1,0.6-3.3,0.8c-1.2,0.2-2.6,0.3-4.2,0.3
		H52.3z M58.2,75.3c2.4,0,4.4-0.3,5.7-1c1.2-0.6,2.1-1.5,2.8-2.6c0.6-1.2,0.9-2.6,0.9-4.4c0-0.9-0.1-1.8-0.3-2.5
		c-0.2-0.8-0.5-1.4-0.9-2c-0.4-0.6-0.9-1.1-1.4-1.5c-0.6-0.4-1.2-0.8-1.9-1c-0.6-0.3-1.4-0.4-2.2-0.5c-0.8-0.1-1.7-0.2-2.7-0.2
		h-1.8v15.9H58.2z"/>
	<path d="M80.6,75.3h11.2v3.5H76.4V56h14.8v3.5H80.6v5.9h9.1v3.5h-9.1V75.3z"/>
	<path d="M109.4,73h-8.6l-2.2,5.8h-4.5l9.1-22.9h3.8l9.1,22.9h-4.4L109.4,73z M105,61.5c-0.8,2.4-1.5,4.4-2.1,6
		l-0.8,2h5.9l-0.8-2C106.6,65.8,105.9,63.8,105,61.5L105,61.5z"/>
</g>
</svg>
