<?xml version="1.0" encoding="utf-8"?>
<!-- Generator: Adobe Illustrator 19.2.1, SVG Export Plug-In . SVG Version: 6.00 Build 0)  -->
<svg version="1.1" id="Layer_1" xmlns="http://www.w3.org/2000/svg" xmlns:xlink="http://www.w3.org/1999/xlink" x="0px" y="0px"
	 viewBox="0 0 274.96 147.4" enable-background="new 0 0 274.96 147.4" xml:space="preserve">
<path fill="#09A4D3" d="M220.2,73.7c0,32.19-18.39,60.09-45.24,73.76H100c-26.85-13.67-45.24-41.57-45.24-73.76
	c0-32.14,18.34-60.01,45.12-73.7h75.2C201.86,13.69,220.2,41.56,220.2,73.7z"/>
<path fill="#0695D0" d="M151.03,0h-27.1C88.62,6.32,61.84,36.91,61.84,73.7c0,36.91,26.95,67.57,62.43,73.76h26.42
	c35.48-6.19,62.43-36.85,62.43-73.76C213.12,36.91,186.34,6.32,151.03,0z M137.48,140.6c-9.69,0-18.9-2.02-27.24-5.67
	c-0.09-0.03-0.18-0.07-0.26-0.12c-23.63-10.43-40.14-33.9-40.14-61.11c0-36.89,30.34-66.9,67.64-66.9c8.34,0,16.33,1.5,23.71,4.25
	c1.28,0.46,2.53,0.97,3.76,1.52C188.6,23,205.12,46.48,205.12,73.7C205.12,110.59,174.78,140.6,137.48,140.6z"/>
<g>
	<path fill="#0695D0" d="M137.48,23.824c27.783,0,50.387,22.374,50.387,49.876s-22.603,49.876-50.387,49.876
		S87.093,101.202,87.093,73.7S109.697,23.824,137.48,23.824 M137.48,21.824c-28.932,0-52.387,23.226-52.387,51.876
		s23.454,51.876,52.387,51.876s52.387-23.226,52.387-51.876S166.412,21.824,137.48,21.824L137.48,21.824z"/>
</g>
<polygon fill="#0BB5DD" points="109.598,135.719 136.428,70.992 109.598,70.992 138.863,11.046 165.692,11.046 144.131,55.275
	174.635,55.275 "/>
<polygon fill="#0BB5DD" points="208.327,141.071 238.359,141.774 237.464,144.455 268.072,139.741 241.214,142.597 241.883,139.62
	"/>
<g id="layer1_1_" transform="translate(-235.89801,-456.22452)">
	<g id="g2990_1_">
		<g id="path3780-1-4_1_">
			<path fill="#B1E5FD" d="M445.974,579.701l-0.318,0.894l-0.823,2.302l-2.201-1.05l-0.858-0.409
				l0.404,0.858l1.05,2.206l-2.297,0.818l-0.899,0.318l0.899,0.318l2.297,0.818l-1.05,2.206l-0.404,0.858l0.858-0.409l2.206-1.045
				l0.818,2.297l0.318,0.899v-2.02l-0.626-1.757l-0.126-0.353l-0.338,0.162l-1.686,0.798l0.803-1.681l0.162-0.338l-0.353-0.126
				l-1.757-0.626l1.757-0.626l0.353-0.121L444,584.553l-0.803-1.686l1.686,0.803l0.338,0.156l0.126-0.353l0.626-1.757l0.626,1.757
				l0.121,0.353l0.338-0.156l1.686-0.803l-0.803,1.686l-0.162,0.338l0.353,0.121l1.757,0.626h2.02l-0.894-0.318l-2.302-0.818
				l1.05-2.206l0.404-0.858l-0.858,0.409l-2.201,1.05l-0.818-2.302L445.974,579.701L445.974,579.701z"/>
		</g>
		<g enable-background="new    ">
			<path d="M472.281,589.848c0.398,0.573,0.791,1.162,1.179,1.767h0.029c-0.042-0.631-0.063-1.275-0.063-1.932v-3.456h0.796v6.494
				h-0.791l-2.548-3.621c-0.44-0.631-0.833-1.22-1.179-1.767h-0.029c0.042,0.592,0.063,1.283,0.063,2.072v3.315h-0.791v-6.494h0.786
				L472.281,589.848z"/>
			<path d="M477.96,592.188c0.249,0,0.476-0.02,0.682-0.061c0.205-0.041,0.41-0.098,0.614-0.172v0.626
				c-0.165,0.081-0.369,0.145-0.612,0.192c-0.243,0.047-0.503,0.07-0.781,0.07c-0.33,0-0.64-0.042-0.929-0.126
				c-0.29-0.084-0.54-0.22-0.752-0.408c-0.212-0.188-0.378-0.433-0.498-0.735c-0.12-0.303-0.18-0.667-0.18-1.095
				c0-0.42,0.058-0.785,0.174-1.095c0.116-0.309,0.271-0.567,0.465-0.774c0.194-0.207,0.416-0.362,0.668-0.466
				c0.252-0.104,0.515-0.155,0.789-0.155c0.258,0,0.499,0.043,0.724,0.129c0.224,0.086,0.419,0.221,0.583,0.405
				s0.295,0.422,0.39,0.714c0.095,0.291,0.143,0.641,0.143,1.048c0,0.039,0,0.072,0,0.099c0,0.028-0.002,0.09-0.005,0.187h-3.184
				c0,0.295,0.044,0.544,0.134,0.75c0.089,0.205,0.21,0.372,0.364,0.5c0.154,0.128,0.334,0.221,0.541,0.279
				C477.497,592.158,477.72,592.188,477.96,592.188z M477.563,588.635c-0.174,0-0.335,0.034-0.484,0.102
				c-0.149,0.068-0.279,0.16-0.391,0.277c-0.111,0.116-0.202,0.253-0.27,0.41c-0.069,0.157-0.111,0.325-0.128,0.502h2.359
				c0-0.181-0.024-0.35-0.071-0.507c-0.047-0.157-0.117-0.294-0.209-0.41c-0.092-0.116-0.205-0.208-0.339-0.274
				C477.895,588.668,477.74,588.635,477.563,588.635z"/>
			<path d="M483.148,592.731c-0.065,0.026-0.163,0.05-0.296,0.073c-0.133,0.023-0.291,0.036-0.476,0.039
				c-0.243,0-0.453-0.03-0.631-0.09c-0.178-0.06-0.326-0.146-0.444-0.257c-0.118-0.112-0.206-0.247-0.265-0.405
				c-0.058-0.158-0.087-0.335-0.087-0.529v-2.805h-0.888v-0.646h0.888v-1.262h0.752v1.262h1.378v0.646h-1.378v2.689
				c0,0.107,0.015,0.206,0.046,0.296c0.031,0.091,0.079,0.169,0.146,0.235c0.066,0.066,0.151,0.118,0.255,0.155
				c0.103,0.037,0.228,0.056,0.374,0.056c0.1,0,0.206-0.008,0.318-0.024c0.112-0.016,0.214-0.037,0.308-0.063V592.731z"/>
			<path d="M486.914,588.872c-0.099,0.424-0.191,0.79-0.277,1.097l-0.746,2.752h-0.76l-1.497-4.611h0.752l0.859,2.873
				c0.114,0.379,0.2,0.681,0.259,0.908h0.019c0.052-0.233,0.137-0.569,0.257-1.01l0.77-2.771h0.752l0.839,2.771
				c0.113,0.375,0.206,0.712,0.28,1.01h0.02c0.078-0.298,0.164-0.6,0.259-0.908l0.86-2.873h0.752l-1.537,4.611h-0.791l-0.766-2.752
				c-0.092-0.327-0.187-0.692-0.285-1.097H486.914z"/>
			<path d="M495.355,590.421c0,0.362-0.052,0.693-0.155,0.99c-0.103,0.298-0.25,0.552-0.439,0.765
				c-0.189,0.212-0.418,0.376-0.687,0.493c-0.268,0.116-0.569,0.175-0.903,0.175c-0.343,0-0.65-0.058-0.92-0.175
				c-0.27-0.117-0.5-0.281-0.689-0.493c-0.189-0.212-0.334-0.467-0.435-0.765c-0.1-0.298-0.15-0.628-0.15-0.99
				c0-0.366,0.052-0.697,0.155-0.995c0.103-0.298,0.25-0.553,0.439-0.767s0.419-0.379,0.689-0.495
				c0.27-0.117,0.572-0.175,0.905-0.175c0.34,0,0.646,0.058,0.917,0.175c0.272,0.116,0.501,0.281,0.689,0.495
				c0.188,0.214,0.332,0.469,0.432,0.767C495.305,589.724,495.355,590.055,495.355,590.421z M494.569,590.421
				c0-0.285-0.035-0.538-0.104-0.759c-0.07-0.222-0.167-0.409-0.291-0.563c-0.125-0.154-0.273-0.27-0.444-0.349
				c-0.171-0.079-0.359-0.119-0.563-0.119c-0.204,0-0.392,0.04-0.563,0.119c-0.171,0.079-0.32,0.196-0.444,0.349
				c-0.125,0.154-0.222,0.341-0.291,0.563c-0.07,0.221-0.104,0.475-0.104,0.759c0,0.281,0.035,0.533,0.104,0.755
				c0.069,0.222,0.167,0.409,0.294,0.56c0.126,0.152,0.275,0.268,0.447,0.347c0.171,0.079,0.359,0.119,0.563,0.119
				c0.204,0,0.391-0.04,0.561-0.119c0.17-0.079,0.317-0.195,0.442-0.347c0.124-0.152,0.222-0.339,0.291-0.56
				C494.534,590.954,494.569,590.702,494.569,590.421z"/>
			<path d="M499.073,588.722h-0.058c-0.178,0-0.353,0.016-0.524,0.049c-0.172,0.032-0.333,0.082-0.483,0.148
				c-0.151,0.066-0.287,0.148-0.408,0.245c-0.122,0.097-0.223,0.212-0.303,0.345v3.213h-0.752v-4.611h0.582l0.146,0.733h0.015
				c0.074-0.12,0.166-0.231,0.274-0.335c0.108-0.104,0.23-0.194,0.366-0.272c0.136-0.078,0.285-0.138,0.447-0.182
				c0.162-0.044,0.332-0.065,0.51-0.065c0.032,0,0.066,0.001,0.099,0.003c0.034,0.002,0.064,0.004,0.09,0.007V588.722z"/>
			<path d="M502.859,588.11h0.98l-2.252,2.121l2.247,2.49h-0.937l-2.213-2.456h-0.01v2.456h-0.752v-7.028h0.752v4.475h0.01
				L502.859,588.11z"/>
		</g>
		<g enable-background="new    ">
			<path fill="#B1E5FD" d="M446.701,592.721v-6.494h1.189v6.494H446.701z"/>
			<path fill="#B1E5FD" d="M449.443,592.721v-6.494h1.718c0.152,0,0.307,0.005,0.463,0.015s0.31,0.024,0.459,0.044
				c0.149,0.019,0.293,0.043,0.432,0.07c0.139,0.028,0.267,0.061,0.383,0.1c0.346,0.11,0.652,0.259,0.917,0.447
				c0.265,0.188,0.488,0.409,0.667,0.665c0.18,0.256,0.315,0.541,0.408,0.857c0.092,0.316,0.138,0.658,0.138,1.027
				c0,0.349-0.039,0.677-0.116,0.983c-0.078,0.306-0.196,0.585-0.354,0.837c-0.159,0.252-0.358,0.475-0.6,0.667
				c-0.241,0.193-0.527,0.35-0.857,0.473c-0.275,0.104-0.587,0.181-0.937,0.233c-0.349,0.052-0.743,0.078-1.179,0.078H449.443z
				 M451.122,591.726c0.696,0,1.239-0.095,1.631-0.286c0.346-0.171,0.608-0.421,0.786-0.747c0.178-0.327,0.267-0.744,0.267-1.252
				c0-0.265-0.029-0.505-0.087-0.718s-0.142-0.404-0.252-0.57c-0.11-0.167-0.244-0.31-0.401-0.429
				c-0.157-0.12-0.334-0.218-0.531-0.296c-0.184-0.071-0.39-0.123-0.616-0.155c-0.227-0.032-0.48-0.049-0.762-0.049h-0.524v4.504
				H451.122z"/>
			<path fill="#B1E5FD" d="M457.48,591.726h3.194v0.995h-4.383v-6.494h4.208v0.995h-3.019v1.679h2.592v0.995h-2.592V591.726z"/>
			<path fill="#B1E5FD" d="M465.653,591.066h-2.446l-0.636,1.655h-1.267l2.577-6.494h1.087l2.577,6.494h-1.257L465.653,591.066z
				 M464.421,587.79c-0.227,0.679-0.43,1.247-0.608,1.703l-0.222,0.578h1.679l-0.222-0.578c-0.176-0.46-0.379-1.028-0.607-1.703
				H464.421z"/>
		</g>
	</g>
</g>
<g>

		<text transform="matrix(1 0 0 1 65.8388 97.0002)" fill="#B1E5FD" font-family="'Lato-BlackItalic'" font-size="24px" letter-spacing="2">SPARK PASS</text>
</g>
</svg>
