<?xml version="1.0" encoding="utf-8"?>
<!-- Generator: Adobe Illustrator 19.2.1, SVG Export Plug-In . SVG Version: 6.00 Build 0)  -->
<svg version="1.1" xmlns="http://www.w3.org/2000/svg" xmlns:xlink="http://www.w3.org/1999/xlink" x="0px" y="0px"
	 viewBox="0 0 274.96 147.4" enable-background="new 0 0 274.96 147.4" xml:space="preserve">
<g id="Layer_6" opacity="0.21">
	<path fill="#006C9C" d="M30.797,75.379l1.498-13.15l3.869-0.544c0.833-0.117,1.562-0.09,2.17,0.084
		c0.608,0.182,1.112,0.475,1.512,0.885c0.4,0.419,0.703,0.93,0.894,1.56c0.191,0.621,0.286,1.317,0.284,2.095
		c-0.002,1.124-0.116,2.169-0.334,3.133c-0.218,0.973-0.58,1.828-1.07,2.579c-0.498,0.744-1.14,1.353-1.933,1.836
		c-0.802,0.484-1.779,0.803-2.957,0.969L30.797,75.379 M36.978,54.993l-12.096,1.7L20.347,96.78l8.131-1.143l1.531-13.509
		l3.909-0.549c2.627-0.369,4.903-1.069,6.827-2.1c1.924-1.022,3.52-2.293,4.772-3.808c1.26-1.517,2.2-3.231,2.812-5.149
		c0.612-1.918,0.92-3.95,0.924-6.103c0.003-1.565-0.227-3.002-0.697-4.302c-0.462-1.292-1.189-2.374-2.188-3.236
		c-0.991-0.863-2.264-1.471-3.809-1.824C41.014,54.711,39.156,54.687,36.978,54.993"/>
	<path fill="#006C9C" d="M56.886,76.613l4.306-11.807c0.089-0.237,0.225-0.585,0.418-1.061c0.193-0.485,0.394-0.998,0.604-1.554
		c0.209-0.548,0.427-1.114,0.644-1.698c0.217-0.584,0.394-1.101,0.531-1.553c0.111,0.78,0.261,1.64,0.436,2.584
		c0.174,0.944,0.333,1.872,0.483,2.784l1.757,11.016L56.886,76.613 M68.499,50.563l-8.387,1.179L42.576,93.656L49,92.753
		c0.657-0.092,1.25-0.366,1.787-0.83c0.529-0.463,0.891-0.964,1.076-1.491l2.729-7.48l12.416-1.745l1.116,6.94
		c0.087,0.567,0.335,0.99,0.766,1.284c0.424,0.295,0.992,0.388,1.689,0.29l6.328-0.889L68.499,50.563"/>
	<path fill="#006C9C" d="M89.515,66.236l1.4-12.246l2.916-0.41c0.865-0.122,1.626-0.107,2.266,0.036
		c0.648,0.142,1.185,0.395,1.608,0.759c0.424,0.364,0.735,0.839,0.934,1.416c0.199,0.577,0.302,1.228,0.301,1.972
		c-0.002,0.96-0.116,1.883-0.342,2.779c-0.234,0.906-0.604,1.71-1.11,2.438c-0.514,0.72-1.18,1.333-1.997,1.837
		c-0.826,0.505-1.819,0.835-2.989,0.999L89.515,66.236 M94.597,46.895l-11.094,1.559l-4.535,40.087l8.131-1.143l1.702-14.968
		l1.834-0.258c0.601-0.084,1.057-0.045,1.369,0.119c0.304,0.165,0.552,0.484,0.735,0.969l3.943,11.115
		c0.183,0.519,0.511,0.888,0.975,1.108c0.472,0.219,1.049,0.285,1.737,0.188l7.378-1.037l-5.301-13.145
		c-0.247-0.614-0.591-1.11-1.038-1.479c-0.44-0.37-0.912-0.676-1.416-0.907c1.275-0.724,2.413-1.575,3.408-2.553
		c0.995-0.978,1.838-2.065,2.529-3.251c0.683-1.194,1.214-2.461,1.577-3.809c0.355-1.355,0.542-2.756,0.544-4.225
		c0.003-1.444-0.227-2.751-0.681-3.924c-0.462-1.171-1.189-2.141-2.189-2.899c-1.008-0.757-2.296-1.285-3.873-1.582
		C98.745,46.571,96.839,46.58,94.597,46.895"/>
	<path fill="#006C9C" d="M143.981,39.955L136.9,40.95c-0.801,0.113-1.498,0.323-2.107,0.651c-0.601,0.318-1.139,0.86-1.605,1.626
		l-8.708,14.31c-0.289,0.49-0.65,0.869-1.107,1.141c-0.449,0.271-0.97,0.447-1.555,0.53l-1.202,0.169l1.88-16.402l-8.179,1.149
		l-4.543,40.088l8.131-1.143l1.97-17.175l1.882-0.265c0.697-0.098,1.257-0.073,1.666,0.077c0.408,0.15,0.72,0.478,0.935,0.966
		l5.646,13.071c0.104,0.236,0.231,0.452,0.375,0.639c0.152,0.186,0.344,0.332,0.568,0.439c0.224,0.098,0.504,0.163,0.825,0.195
		c0.328,0.023,0.729,0.001,1.193-0.064l7.281-1.023l-7.696-17.226c-0.303-0.675-0.67-1.194-1.102-1.565
		c-0.432-0.363-0.936-0.629-1.504-0.8c0.449-0.314,0.89-0.687,1.307-1.109c0.417-0.413,0.819-0.936,1.204-1.544L143.981,39.955"/>
	<path fill="#006C9C" d="M172.491,35.516c-1.826,0.257-3.573,0.753-5.248,1.507c-1.675,0.745-3.239,1.708-4.698,2.864
		c-1.46,1.165-2.784,2.518-3.988,4.052c-1.196,1.542-2.224,3.234-3.077,5.065c-0.86,1.832-1.521,3.801-1.997,5.89
		c-0.468,2.08-0.705,4.257-0.709,6.513c-0.005,2.438,0.304,4.668,0.925,6.681c0.621,2.013,1.547,3.707,2.761,5.066
		c1.223,1.367,2.718,2.358,4.503,2.98c1.777,0.632,3.819,0.777,6.126,0.453c2.78-0.391,5.264-1.267,7.445-2.628
		c2.189-1.362,4.074-3.174,5.672-5.439l-2.853-3.307c-0.088-0.117-0.216-0.212-0.392-0.291c-0.176-0.07-0.4-0.091-0.665-0.054
		c-0.264,0.037-0.521,0.151-0.753,0.339s-0.489,0.415-0.754,0.685s-0.57,0.573-0.907,0.897c-0.329,0.331-0.746,0.649-1.227,0.95
		c-0.489,0.302-1.066,0.573-1.747,0.825c-0.681,0.251-1.474,0.441-2.396,0.57c-1.057,0.149-2.034,0.044-2.938-0.304
		c-0.896-0.358-1.68-0.939-2.327-1.765c-0.647-0.817-1.166-1.859-1.54-3.12c-0.374-1.27-0.555-2.74-0.552-4.426
		c0.004-2.308,0.281-4.439,0.837-6.384c0.556-1.945,1.328-3.644,2.308-5.087c0.98-1.443,2.135-2.617,3.466-3.504
		c1.331-0.896,2.766-1.452,4.304-1.668c0.793-0.111,1.474-0.129,2.05-0.063c0.577,0.057,1.073,0.169,1.489,0.318
		s0.776,0.323,1.08,0.54c0.296,0.209,0.568,0.396,0.816,0.568c0.24,0.174,0.48,0.322,0.712,0.427
		c0.232,0.114,0.496,0.155,0.777,0.116c0.433-0.061,0.785-0.214,1.058-0.451c0.265-0.236,0.497-0.493,0.698-0.772l2.866-3.981
		c-0.527-0.756-1.159-1.419-1.87-2.01c-0.72-0.582-1.536-1.063-2.448-1.428s-1.929-0.611-3.058-0.737
		C175.11,35.286,173.86,35.323,172.491,35.516"/>
	<path fill="#006C9C" d="M193.448,57.421l4.306-11.807c0.089-0.237,0.225-0.585,0.418-1.061c0.193-0.485,0.394-0.998,0.604-1.554
		c0.209-0.548,0.427-1.114,0.644-1.698c0.217-0.584,0.394-1.101,0.531-1.553c0.111,0.78,0.261,1.64,0.436,2.584
		c0.166,0.945,0.333,1.872,0.483,2.784l1.757,11.016L193.448,57.421 M205.06,31.37l-8.387,1.179l-17.536,41.914l6.424-0.903
		c0.649-0.091,1.25-0.366,1.779-0.829c0.537-0.464,0.899-0.965,1.084-1.492l2.721-7.479l12.424-1.746l1.116,6.94
		c0.087,0.567,0.335,0.99,0.766,1.284c0.424,0.295,0.984,0.389,1.689,0.29l6.328-0.889L205.06,31.37"/>
	<path fill="#006C9C" d="M226.077,47.044l1.4-12.246l2.916-0.41c0.865-0.122,1.626-0.107,2.266,0.036
		c0.648,0.142,1.176,0.396,1.608,0.759c0.424,0.364,0.735,0.839,0.934,1.416c0.199,0.577,0.302,1.228,0.301,1.972
		c-0.002,0.96-0.116,1.883-0.35,2.781c-0.226,0.905-0.596,1.709-1.102,2.437c-0.514,0.72-1.18,1.333-1.997,1.837
		c-0.826,0.505-1.819,0.835-2.989,0.999L226.077,47.044 M231.158,27.703l-11.094,1.559l-4.543,40.088l8.131-1.143l1.71-14.969
		l1.834-0.258c0.601-0.084,1.057-0.045,1.369,0.119c0.304,0.165,0.552,0.484,0.735,0.969l3.943,11.115
		c0.183,0.519,0.511,0.888,0.975,1.108c0.472,0.219,1.049,0.285,1.729,0.189l7.378-1.037l-5.293-13.146
		c-0.247-0.614-0.591-1.11-1.038-1.479c-0.44-0.37-0.912-0.676-1.416-0.907c1.275-0.724,2.413-1.575,3.408-2.553
		s1.838-2.065,2.529-3.251c0.683-1.194,1.206-2.46,1.569-3.808c0.363-1.356,0.55-2.757,0.552-4.227
		c0.003-1.444-0.227-2.751-0.681-3.924c-0.462-1.171-1.189-2.141-2.189-2.899c-1.008-0.757-2.296-1.285-3.881-1.581
		C235.307,27.379,233.393,27.388,231.158,27.703"/>
	<path fill="#006C9C" d="M6.195,67.193c0.385-0.469,0.874-0.858,1.452-1.172c0.577-0.323,1.25-0.53,2.019-0.638
		c0.833-0.117,1.562-0.081,2.178,0.1c0.624,0.18,1.168,0.406,1.64,0.66c0.48,0.261,0.912,0.494,1.296,0.717
		c0.384,0.214,0.768,0.298,1.153,0.244c0.401-0.056,0.745-0.208,1.042-0.449c0.289-0.239,0.578-0.591,0.867-1.064l2.466-3.977
		c-0.487-0.597-1.079-1.136-1.775-1.609c-0.704-0.472-1.48-0.855-2.336-1.15c-0.848-0.296-1.769-0.486-2.746-0.582
		c-0.977-0.105-1.986-0.075-3.019,0.07c-2.027,0.285-3.854,0.913-5.473,1.876c-1.628,0.972-3.007,2.16-4.147,3.565
		C0.524,64.138,0.254,64.502,0,64.876V80.4c0.43,0.33,0.881,0.623,1.38,0.833c0.784,0.339,1.584,0.607,2.409,0.82
		c0.816,0.205,1.617,0.395,2.409,0.56c0.784,0.175,1.481,0.397,2.089,0.674c0.608,0.269,1.104,0.649,1.479,1.115
		c0.375,0.474,0.558,1.114,0.557,1.927c-0.003,1.755-0.414,3.135-1.249,4.143c-0.827,1.006-2.005,1.622-3.527,1.835
		c-1.033,0.145-1.906,0.095-2.618-0.159c-0.712-0.254-1.336-0.556-1.872-0.904C0.682,90.997,0.335,90.77,0,90.554v8.757
		c0.43,0.081,0.863,0.154,1.306,0.197c1.065,0.11,2.122,0.082,3.179-0.067c2.123-0.298,4.03-0.947,5.738-1.956
		c1.692-1.007,3.143-2.248,4.331-3.72c1.188-1.481,2.104-3.139,2.74-4.975c0.644-1.845,0.96-3.757,0.964-5.745
		c0.003-1.383-0.179-2.551-0.554-3.492s-0.878-1.718-1.501-2.339c-0.624-0.613-1.335-1.1-2.128-1.456
		c-0.8-0.363-1.608-0.664-2.433-0.903c-0.832-0.246-1.633-0.471-2.425-0.662c-0.784-0.201-1.489-0.439-2.113-0.723
		c-0.632-0.283-1.128-0.637-1.504-1.077c-0.376-0.431-0.567-1.009-0.565-1.727c0.001-0.674,0.099-1.302,0.292-1.882
		C5.52,68.196,5.81,67.662,6.195,67.193z"/>
	<path fill="#006C9C" d="M274.88,25.933c-1.231-1.096-2.674-1.923-4.345-2.45c-1.913-0.613-4.067-0.742-6.454-0.407l-13.153,1.849
		l-4.591,40.095l13.153-1.849c1.922-0.27,3.757-0.779,5.505-1.534c1.755-0.748,3.367-1.701,4.85-2.843
		c1.484-1.151,2.823-2.471,4.02-3.962c0.357-0.445,0.692-0.905,1.016-1.372V25.933z M270.405,45.931
		c-0.5,1.946-1.224,3.647-2.164,5.101c-0.94,1.446-2.079,2.626-3.418,3.523c-1.339,0.906-2.846,1.472-4.52,1.707l-4.918,0.691
		l2.956-26.277l4.926-0.692c1.266-0.178,2.395-0.086,3.379,0.286c0.992,0.362,1.816,0.964,2.495,1.784
		c0.679,0.829,1.182,1.874,1.524,3.131c0.342,1.266,0.508,2.695,0.505,4.303C271.166,41.839,270.913,43.984,270.405,45.931z"/>
</g>
<g id="Layer_3">
	<g id="Layer_2">
		<g>
			<g>
				<rect x="136.48" y="25.676" fill="#D7D879" width="2" height="9.855"/>
			</g>
			<g>

					<rect x="154.101" y="35.377" transform="matrix(0.4999 -0.8661 0.8661 0.4999 48.0218 155.9217)" fill="#D7D879" width="9.856" height="2"/>
			</g>
			<g>

					<rect x="169.875" y="51.152" transform="matrix(0.8661 -0.4999 0.4999 0.8661 -2.6607 94.3721)" fill="#D7D879" width="9.856" height="2"/>
			</g>
			<g>
				<rect x="175.649" y="72.7" fill="#D7D879" width="9.855" height="2"/>
			</g>
			<g>

					<rect x="173.803" y="90.32" transform="matrix(0.5 -0.866 0.866 0.5 4.9146 199.0085)" fill="#D7D879" width="2" height="9.856"/>
			</g>
			<g>

					<rect x="158.028" y="106.095" transform="matrix(0.866 -0.5 0.5 0.866 -34.2054 94.3878)" fill="#D7D879" width="2" height="9.856"/>
			</g>
			<g>
				<rect x="136.48" y="111.869" fill="#D7D879" width="2" height="9.855"/>
			</g>
			<g>

					<rect x="111.004" y="110.022" transform="matrix(0.4999 -0.8661 0.8661 0.4999 -38.1782 155.9255)" fill="#D7D879" width="9.856" height="2"/>
			</g>
			<g>

					<rect x="95.229" y="94.248" transform="matrix(0.8661 -0.4999 0.4999 0.8661 -34.2025 62.827)" fill="#D7D879" width="9.856" height="2"/>
			</g>
			<g>
				<rect x="89.455" y="72.7" fill="#D7D879" width="9.856" height="2"/>
			</g>
			<g>

					<rect x="99.157" y="47.224" transform="matrix(0.5 -0.866 0.866 0.5 4.9155 112.8173)" fill="#D7D879" width="2" height="9.856"/>
			</g>
			<g>

					<rect x="114.932" y="31.449" transform="matrix(0.866 -0.5 0.5 0.866 -2.6574 62.8362)" fill="#D7D879" width="2" height="9.856"/>
			</g>
		</g>
		<g id="layer1_1_" transform="translate(-235.89801,-456.22452)">
			<g id="g2990_1_">
				<g id="path3780-1-4_1_">
					<g>
						<path fill="#D7D879" d="M347.417,583.815l-0.318,0.894l-0.823,2.302l-2.201-1.05
							l-0.858-0.409l0.404,0.858l1.05,2.206l-2.297,0.818l-0.899,0.318l0.899,0.318l2.297,0.818l-1.05,2.206l-0.404,0.858
							l0.858-0.409l2.206-1.045l0.818,2.297l0.318,0.899v-2.02l-0.626-1.757l-0.126-0.353l-0.338,0.162l-1.686,0.798l0.803-1.681
							l0.162-0.338l-0.353-0.126l-1.757-0.626l1.757-0.626l0.353-0.121l-0.162-0.338l-0.803-1.686l1.686,0.803l0.338,0.156
							l0.126-0.353l0.626-1.757l0.626,1.757l0.121,0.353l0.338-0.156l1.686-0.803l-0.803,1.686l-0.162,0.338l0.353,0.121
							l1.757,0.626h2.02l-0.894-0.318l-2.302-0.818l1.05-2.206l0.404-0.858l-0.858,0.409l-2.201,1.05l-0.818-2.302L347.417,583.815
							L347.417,583.815z"/>
					</g>
				</g>
				<g enable-background="new    ">
					<g>
						<path fill="#006C9C" d="M373.723,593.962c0.398,0.573,0.791,1.162,1.179,1.767h0.029c-0.042-0.631-0.063-1.275-0.063-1.932
							v-3.456h0.796v6.494h-0.791l-2.548-3.621c-0.44-0.631-0.833-1.22-1.179-1.767h-0.029c0.042,0.592,0.063,1.283,0.063,2.073
							v3.315h-0.791v-6.494h0.786L373.723,593.962z"/>
					</g>
					<g>
						<path fill="#006C9C" d="M379.402,596.302c0.249,0,0.476-0.02,0.682-0.061c0.205-0.041,0.41-0.098,0.614-0.172v0.626
							c-0.165,0.081-0.369,0.145-0.612,0.192c-0.243,0.047-0.503,0.07-0.781,0.07c-0.33,0-0.64-0.042-0.929-0.126
							c-0.29-0.084-0.54-0.22-0.752-0.408c-0.212-0.188-0.378-0.433-0.498-0.735c-0.12-0.303-0.18-0.667-0.18-1.095
							c0-0.421,0.058-0.786,0.174-1.095c0.116-0.309,0.271-0.567,0.465-0.774c0.194-0.207,0.416-0.362,0.668-0.466
							c0.252-0.103,0.515-0.155,0.789-0.155c0.258,0,0.499,0.043,0.724,0.129c0.224,0.086,0.419,0.221,0.583,0.405
							s0.295,0.422,0.39,0.713c0.095,0.291,0.143,0.641,0.143,1.048c0,0.039,0,0.072,0,0.099c0,0.028-0.002,0.09-0.005,0.187h-3.184
							c0,0.294,0.044,0.544,0.134,0.75c0.089,0.205,0.21,0.372,0.364,0.5c0.154,0.128,0.334,0.221,0.541,0.279
							S379.163,596.302,379.402,596.302z M379.005,592.749c-0.174,0-0.335,0.034-0.484,0.102c-0.149,0.068-0.279,0.16-0.391,0.277
							c-0.111,0.117-0.202,0.253-0.27,0.41c-0.069,0.157-0.111,0.325-0.128,0.502h2.359c0-0.181-0.024-0.35-0.071-0.507
							c-0.047-0.157-0.117-0.294-0.209-0.41c-0.092-0.117-0.205-0.208-0.339-0.274C379.338,592.782,379.182,592.749,379.005,592.749
							z"/>
					</g>
					<g>
						<path fill="#006C9C" d="M384.591,596.845c-0.065,0.026-0.163,0.05-0.296,0.073c-0.133,0.023-0.291,0.036-0.476,0.039
							c-0.243,0-0.453-0.03-0.631-0.09c-0.178-0.06-0.326-0.146-0.444-0.257c-0.118-0.112-0.206-0.247-0.265-0.405
							c-0.058-0.158-0.087-0.335-0.087-0.529v-2.805h-0.888v-0.646h0.888v-1.262h0.752v1.262h1.378v0.646h-1.378v2.689
							c0,0.107,0.015,0.206,0.046,0.296c0.031,0.091,0.079,0.169,0.146,0.235c0.066,0.066,0.151,0.118,0.255,0.155
							c0.103,0.037,0.228,0.056,0.374,0.056c0.1,0,0.206-0.008,0.318-0.024c0.112-0.016,0.214-0.037,0.308-0.063V596.845z"/>
					</g>
					<g>
						<path fill="#006C9C" d="M388.356,592.987c-0.099,0.424-0.191,0.79-0.277,1.097l-0.746,2.752h-0.76l-1.497-4.611h0.752
							l0.859,2.873c0.114,0.379,0.2,0.681,0.259,0.908h0.019c0.052-0.233,0.137-0.569,0.257-1.01l0.77-2.771h0.752l0.839,2.771
							c0.113,0.375,0.206,0.712,0.28,1.01h0.02c0.078-0.298,0.164-0.6,0.259-0.908l0.86-2.873h0.752l-1.537,4.611h-0.791
							l-0.766-2.752c-0.092-0.327-0.187-0.692-0.285-1.097H388.356z"/>
					</g>
					<g>
						<path fill="#006C9C" d="M396.798,594.535c0,0.362-0.052,0.693-0.155,0.99c-0.103,0.298-0.25,0.553-0.439,0.765
							c-0.189,0.212-0.418,0.376-0.687,0.493c-0.268,0.117-0.569,0.175-0.903,0.175c-0.343,0-0.65-0.058-0.92-0.175
							c-0.27-0.116-0.5-0.281-0.689-0.493c-0.189-0.212-0.334-0.467-0.435-0.765c-0.1-0.298-0.15-0.628-0.15-0.99
							c0-0.366,0.052-0.697,0.155-0.995c0.103-0.298,0.25-0.553,0.439-0.767s0.419-0.379,0.689-0.495
							c0.27-0.116,0.572-0.175,0.905-0.175c0.34,0,0.646,0.058,0.917,0.175c0.272,0.117,0.501,0.281,0.689,0.495
							c0.188,0.214,0.332,0.469,0.432,0.767C396.747,593.838,396.798,594.169,396.798,594.535z M396.011,594.535
							c0-0.285-0.035-0.538-0.104-0.76c-0.07-0.222-0.167-0.409-0.291-0.563c-0.125-0.154-0.273-0.27-0.444-0.349
							c-0.171-0.079-0.359-0.119-0.563-0.119c-0.204,0-0.392,0.04-0.563,0.119c-0.171,0.079-0.32,0.196-0.444,0.349
							c-0.125,0.154-0.222,0.341-0.291,0.563c-0.07,0.221-0.104,0.475-0.104,0.76c0,0.281,0.035,0.533,0.104,0.755
							c0.069,0.221,0.167,0.408,0.294,0.56c0.126,0.152,0.275,0.268,0.447,0.347c0.171,0.079,0.359,0.119,0.563,0.119
							c0.204,0,0.391-0.04,0.561-0.119c0.17-0.079,0.317-0.195,0.442-0.347c0.124-0.152,0.222-0.339,0.291-0.56
							C395.976,595.068,396.011,594.816,396.011,594.535z"/>
					</g>
					<g>
						<path fill="#006C9C" d="M400.515,592.836h-0.058c-0.178,0-0.353,0.016-0.524,0.049c-0.172,0.032-0.333,0.082-0.483,0.148
							c-0.151,0.066-0.287,0.148-0.408,0.245c-0.122,0.097-0.223,0.212-0.303,0.345v3.213h-0.752v-4.611h0.582l0.146,0.733h0.015
							c0.074-0.12,0.166-0.231,0.274-0.335c0.108-0.103,0.23-0.194,0.366-0.272c0.136-0.078,0.285-0.138,0.447-0.182
							c0.162-0.043,0.332-0.065,0.51-0.065c0.032,0,0.066,0.001,0.099,0.003c0.034,0.002,0.064,0.004,0.09,0.007V592.836z"/>
					</g>
					<g>
						<path fill="#006C9C" d="M404.301,592.224h0.98l-2.252,2.121l2.247,2.49h-0.937l-2.213-2.456h-0.01v2.456h-0.752v-7.028h0.752
							v4.475h0.01L404.301,592.224z"/>
					</g>
				</g>
				<g enable-background="new    ">
					<g>
						<path fill="#D7D879" d="M348.143,596.835v-6.494h1.189v6.494H348.143z"/>
					</g>
					<g>
						<path fill="#D7D879" d="M350.885,596.835v-6.494h1.718c0.152,0,0.307,0.005,0.463,0.015s0.31,0.024,0.459,0.044
							c0.149,0.019,0.293,0.043,0.432,0.07c0.139,0.028,0.267,0.061,0.383,0.1c0.346,0.11,0.652,0.259,0.917,0.447
							c0.265,0.188,0.488,0.409,0.667,0.665c0.18,0.256,0.315,0.541,0.408,0.857c0.092,0.316,0.138,0.658,0.138,1.027
							c0,0.349-0.039,0.677-0.116,0.983c-0.078,0.306-0.196,0.585-0.354,0.837c-0.159,0.252-0.358,0.475-0.6,0.667
							c-0.241,0.193-0.527,0.35-0.857,0.473c-0.275,0.104-0.587,0.181-0.937,0.233c-0.349,0.052-0.743,0.078-1.179,0.078H350.885z
							 M352.565,595.84c0.696,0,1.239-0.095,1.631-0.286c0.346-0.171,0.608-0.421,0.786-0.747c0.178-0.327,0.267-0.744,0.267-1.252
							c0-0.265-0.029-0.505-0.087-0.718s-0.143-0.404-0.252-0.57c-0.11-0.167-0.244-0.31-0.401-0.429
							c-0.157-0.12-0.334-0.218-0.531-0.296c-0.184-0.071-0.39-0.123-0.616-0.155c-0.227-0.032-0.48-0.049-0.762-0.049h-0.524v4.504
							H352.565z"/>
					</g>
					<g>
						<path fill="#D7D879" d="M358.923,595.84h3.194v0.995h-4.383v-6.494h4.208v0.995h-3.019v1.679h2.592v0.995h-2.592V595.84z"/>
					</g>
					<g>
						<path fill="#D7D879" d="M367.096,595.18h-2.446l-0.636,1.655h-1.267l2.577-6.494h1.087l2.577,6.494h-1.257L367.096,595.18z
							 M365.864,591.904c-0.227,0.679-0.43,1.247-0.608,1.703l-0.222,0.578h1.679l-0.222-0.578c-0.176-0.46-0.379-1.028-0.607-1.703
							H365.864z"/>
					</g>
				</g>
			</g>
		</g>
	</g>
	<g id="Layer_5" display="none">
		<g display="inline">
			<g>
				<g enable-background="new    ">
					<defs>
						<polygon id="SVGID_3_" enable-background="new    " points="70.667,139.516 70.702,120.452 204.276,101.679 204.241,120.743
													"/>
					</defs>
					<clipPath id="SVGID_1_">
						<use xlink:href="#SVGID_3_"  overflow="visible"/>
					</clipPath>
					<g clip-path="url(#SVGID_1_)">
						<g>
							<g>
								<g>
									<path fill="#D7D779" d="M76.97,134.697c0.649-0.091,1.154-0.352,1.507-0.782c0.353-0.43,0.53-1.017,0.532-1.76
										c0.001-0.354-0.079-0.62-0.239-0.822c-0.16-0.202-0.368-0.363-0.632-0.482c-0.256-0.111-0.552-0.208-0.888-0.281
										c-0.336-0.074-0.68-0.155-1.025-0.236c-0.352-0.097-0.688-0.206-1.024-0.349c-0.336-0.143-0.632-0.343-0.896-0.609
										c-0.256-0.275-0.463-0.618-0.623-1.036c-0.159-0.418-0.238-0.952-0.237-1.6c0.001-0.744,0.131-1.479,0.388-2.198
										c0.266-0.729,0.635-1.386,1.125-1.982c0.482-0.604,1.075-1.111,1.765-1.519c0.689-0.417,1.467-0.682,2.324-0.802
										c0.449-0.063,0.873-0.071,1.289-0.034c0.416,0.045,0.809,0.128,1.169,0.251c0.36,0.131,0.696,0.291,0.992,0.492
										c0.296,0.2,0.552,0.432,0.76,0.688l-1.052,1.686c-0.12,0.198-0.241,0.354-0.369,0.458c-0.12,0.103-0.273,0.168-0.441,0.192
										c-0.168,0.024-0.328-0.014-0.496-0.112c-0.16-0.09-0.344-0.194-0.544-0.304c-0.208-0.109-0.44-0.197-0.704-0.281
										c-0.256-0.076-0.568-0.093-0.929-0.042c-0.32,0.045-0.609,0.137-0.857,0.276c-0.248,0.13-0.449,0.296-0.618,0.502
										c-0.161,0.195-0.281,0.42-0.37,0.674c-0.081,0.245-0.121,0.518-0.122,0.795c-0.001,0.311,0.079,0.559,0.239,0.744
										c0.16,0.185,0.376,0.336,0.64,0.455c0.264,0.118,0.568,0.223,0.904,0.305c0.336,0.082,0.672,0.182,1.025,0.288
										c0.352,0.097,0.704,0.229,1.04,0.381s0.64,0.36,0.904,0.625c0.264,0.257,0.479,0.59,0.639,0.991
										c0.159,0.401,0.239,0.891,0.237,1.488c-0.002,0.847-0.139,1.662-0.413,2.444c-0.266,0.781-0.659,1.484-1.165,2.117
										c-0.506,0.624-1.123,1.152-1.845,1.582c-0.722,0.43-1.539,0.709-2.444,0.836c-0.449,0.063-0.897,0.074-1.345,0.025
										c-0.456-0.04-0.889-0.134-1.305-0.275c-0.416-0.132-0.8-0.311-1.16-0.528c-0.352-0.218-0.656-0.478-0.904-0.772l1.245-1.93
										c0.088-0.142,0.209-0.263,0.361-0.371c0.152-0.108,0.297-0.171,0.449-0.193c0.2-0.028,0.392,0.023,0.584,0.143
										c0.184,0.13,0.392,0.265,0.624,0.405c0.224,0.15,0.488,0.277,0.792,0.39C76.161,134.733,76.53,134.759,76.97,134.697
										 M79.049,119.279c-0.977,0.137-1.875,0.445-2.668,0.92c-0.802,0.476-1.492,1.074-2.053,1.775
										c-0.57,0.694-1.012,1.473-1.31,2.319c-0.306,0.838-0.46,1.707-0.461,2.571c-0.001,0.769,0.093,1.422,0.293,1.947
										c0.199,0.517,0.471,0.962,0.806,1.304c0.328,0.334,0.704,0.601,1.136,0.774c0.36,0.157,0.736,0.285,1.12,0.387
										c0.36,0.088,0.712,0.176,1.057,0.249c0.28,0.056,0.528,0.133,0.744,0.232c0.152,0.065,0.264,0.153,0.352,0.262l0.056,0.26
										c-0.001,0.476-0.098,0.826-0.274,1.041c-0.064,0.087-0.265,0.331-0.874,0.417c-0.304,0.043-0.561,0.027-0.745-0.034
										c-0.24-0.087-0.456-0.195-0.632-0.309l-0.624-0.405c-0.344-0.228-0.72-0.314-1.113-0.259
										c-0.296,0.042-0.585,0.16-0.858,0.354s-0.497,0.424-0.666,0.69l-1.237,1.92l-0.426,0.665l0.439,0.526
										c0.296,0.356,0.663,0.667,1.087,0.928c0.4,0.246,0.84,0.452,1.312,0.602c0.464,0.159,0.961,0.263,1.465,0.313
										c0.512,0.049,1.033,0.036,1.538-0.035c1.017-0.143,1.955-0.465,2.789-0.954c0.834-0.497,1.548-1.116,2.134-1.838
										c0.594-0.732,1.052-1.565,1.366-2.474c0.314-0.891,0.468-1.838,0.47-2.797c0.001-0.718-0.102-1.334-0.301-1.842
										s-0.479-0.935-0.822-1.276c-0.328-0.317-0.704-0.575-1.12-0.767c-0.36-0.165-0.744-0.302-1.128-0.412
										c-0.36-0.114-0.712-0.211-1.065-0.291c-0.288-0.072-0.544-0.166-0.776-0.263c-0.168-0.08-0.296-0.166-0.384-0.266
										c-0.008-0.016-0.032-0.039-0.032-0.16c0-0.164,0.025-0.315,0.073-0.46c0.032-0.108,0.088-0.211,0.161-0.299
										c0.072-0.088,0.168-0.162,0.297-0.232c0.144-0.081,0.329-0.133,0.545-0.163c0.24-0.034,0.441-0.027,0.601,0.019
										c0.208,0.057,0.4,0.134,0.552,0.216c0.2,0.11,0.384,0.214,0.544,0.304c0.304,0.173,0.64,0.238,0.977,0.191
										c0.336-0.047,0.649-0.186,0.914-0.405c0.233-0.188,0.433-0.433,0.626-0.754l1.036-1.676l0.402-0.644l-0.415-0.512
										c-0.248-0.311-0.559-0.596-0.919-0.839c-0.352-0.227-0.736-0.424-1.16-0.572c-0.416-0.14-0.864-0.242-1.345-0.286
										C80.05,119.198,79.554,119.208,79.049,119.279"/>
									<path fill="#D7D779" d="M90.648,126.119l0.415-3.645l0.857-0.12c0.24-0.034,0.441-0.027,0.601,0.011
										c0.136,0.041,0.24,0.105,0.32,0.18c0.08,0.092,0.144,0.196,0.184,0.337c0.056,0.174,0.079,0.378,0.079,0.603
										c-0.001,0.398-0.041,0.766-0.114,1.096c-0.065,0.277-0.161,0.515-0.29,0.715c-0.12,0.173-0.273,0.324-0.481,0.448
										c-0.224,0.135-0.529,0.23-0.897,0.282L90.648,126.119 M91.923,121.394l-1.642,0.231l-0.643,5.596l1.682-0.236
										c0.497-0.07,0.913-0.206,1.25-0.409c0.345-0.204,0.618-0.467,0.826-0.79c0.209-0.315,0.362-0.682,0.459-1.093
										c0.089-0.41,0.138-0.858,0.139-1.333c0.001-0.329-0.039-0.626-0.118-0.891c-0.08-0.265-0.207-0.489-0.383-0.664
										c-0.168-0.175-0.384-0.3-0.64-0.377C92.587,121.352,92.283,121.343,91.923,121.394 M85.192,136.325l1.93-17.057
										l5.151-0.724c0.929-0.131,1.722-0.121,2.378,0.029c0.656,0.15,1.2,0.41,1.616,0.776c0.424,0.364,0.735,0.822,0.934,1.373
										c0.199,0.56,0.294,1.169,0.293,1.835c-0.002,0.916-0.131,1.782-0.389,2.596c-0.266,0.815-0.66,1.545-1.197,2.191
										c-0.538,0.646-1.211,1.182-2.029,1.625c-0.818,0.435-1.787,0.735-2.909,0.893l-1.666,0.234l-0.651,5.744L85.192,136.325
										 M92.274,117.584l-5.151,0.724l-0.785,0.11l-0.098,0.852l-1.93,17.066l-0.122,1.098l1.001-0.141l3.461-0.486l0.785-0.11
										l0.098-0.861l0.554-4.892l0.881-0.124c1.218-0.171,2.299-0.505,3.213-0.996c0.938-0.504,1.724-1.133,2.35-1.886
										c0.626-0.754,1.1-1.624,1.406-2.575c0.298-0.924,0.452-1.913,0.454-2.933c0.001-0.778-0.117-1.505-0.356-2.154
										c-0.247-0.683-0.63-1.268-1.158-1.713c-0.512-0.447-1.16-0.762-1.936-0.938C94.188,117.453,93.291,117.441,92.274,117.584"
										/>
									<path fill="#D7D779" d="M103.998,126.326l1.087-2.971l0.435,2.757L103.998,126.326 M105.435,119.953
										c-0.056,0.189-0.129,0.416-0.225,0.663c-0.089,0.246-0.185,0.484-0.274,0.721c-0.089,0.237-0.177,0.457-0.257,0.659
										c-0.08,0.201-0.137,0.356-0.177,0.448l-1.835,5.029l3.909-0.549l-0.752-4.683c-0.063-0.389-0.127-0.786-0.206-1.19
										C105.546,120.654,105.483,120.283,105.435,119.953 M96.575,134.725l7.465-17.835l3.573-0.502l3.574,16.284l-2.691,0.378
										c-0.296,0.042-0.537,0.006-0.721-0.123c-0.176-0.122-0.288-0.305-0.319-0.543l-0.475-2.959l-5.287,0.743l-1.159,3.188
										c-0.081,0.227-0.233,0.439-0.466,0.636c-0.225,0.196-0.481,0.31-0.753,0.348L96.575,134.725 M108.319,115.329l-0.705,0.099
										l-3.573,0.502l-0.561,0.079l-0.241,0.578l-7.465,17.844l-0.611,1.46l1.41-0.198l2.74-0.385
										c0.457-0.064,0.873-0.261,1.25-0.591c0.385-0.331,0.65-0.705,0.795-1.123l0.926-2.542l3.941-0.554l0.348,2.172
										c0.071,0.465,0.303,0.848,0.663,1.1c0.336,0.229,0.76,0.317,1.257,0.247l2.691-0.378l1.121-0.158l-0.246-1.15
										l-3.582-16.283L108.319,115.329"/>
									<path fill="#D7D779" d="M119.487,121.686l0.374-3.259l0.449-0.063c0.272-0.038,0.505-0.036,0.689-0.002
										c0.152,0.039,0.272,0.091,0.36,0.165c0.08,0.067,0.128,0.146,0.168,0.253c0.048,0.149,0.071,0.327,0.071,0.526
										c-0.001,0.32-0.033,0.627-0.114,0.924c-0.057,0.241-0.153,0.454-0.29,0.646c-0.128,0.182-0.305,0.337-0.529,0.481
										c-0.233,0.145-0.537,0.24-0.913,0.293L119.487,121.686 M120.311,117.404l-1.234,0.173l-0.602,5.21l1.274-0.179
										c0.497-0.07,0.921-0.207,1.274-0.43c0.345-0.213,0.634-0.469,0.85-0.776c0.217-0.307,0.37-0.648,0.466-1.034
										s0.146-0.781,0.146-1.187c0.001-0.311-0.039-0.591-0.127-0.838c-0.08-0.248-0.215-0.445-0.399-0.601
										c-0.176-0.157-0.408-0.262-0.68-0.328C121.008,117.358,120.688,117.351,120.311,117.404 M113.989,132.278l1.93-17.057
										l4.718-0.663c0.961-0.135,1.77-0.145,2.443-0.015c0.672,0.122,1.225,0.347,1.648,0.667
										c0.424,0.329,0.735,0.744,0.935,1.234c0.191,0.5,0.286,1.057,0.285,1.671c-0.001,0.631-0.074,1.221-0.228,1.795
										c-0.153,0.575-0.378,1.116-0.676,1.625c-0.289,0.507-0.65,0.964-1.076,1.387c-0.417,0.413-0.906,0.776-1.444,1.085
										c0.208,0.1,0.416,0.227,0.6,0.382c0.192,0.163,0.336,0.368,0.439,0.63l2.256,5.595l-3.14,0.441
										c-0.288,0.041-0.537,0.015-0.737-0.078c-0.2-0.093-0.336-0.247-0.416-0.469l-1.681-4.734
										c-0.072-0.206-0.176-0.338-0.312-0.406c-0.128-0.077-0.328-0.092-0.585-0.056l-0.777,0.109l-0.725,6.368L113.989,132.278
										 M120.639,113.598l-4.718,0.663l-0.785,0.11l-0.098,0.852L113.1,132.29l-0.122,1.098l1.009-0.142l3.461-0.486l0.785-0.11
										l0.098-0.861l0.627-5.516l0.072-0.001l1.665,4.684c0.143,0.421,0.423,0.736,0.807,0.924
										c0.328,0.153,0.728,0.209,1.177,0.146l3.14-0.441l1.33-0.187l-0.502-1.261l-2.256-5.595
										c-0.08-0.205-0.183-0.389-0.303-0.545c0.152-0.134,0.297-0.258,0.433-0.398c0.497-0.485,0.923-1.029,1.26-1.629
										c0.345-0.584,0.611-1.227,0.788-1.9c0.177-0.665,0.275-1.361,0.276-2.079c0.001-0.735-0.118-1.41-0.357-2.016
										c-0.247-0.639-0.647-1.171-1.19-1.579c-0.52-0.394-1.176-0.665-1.961-0.814
										C122.585,113.445,121.68,113.451,120.639,113.598"/>
									<path fill="#D7D779" d="M133.641,119.593l0.505-0.071c0.256-0.036,0.473-0.11,0.665-0.223
										c0.192-0.113,0.353-0.274,0.473-0.49l3.703-6.087c0.201-0.322,0.425-0.552,0.682-0.692
										c0.257-0.131,0.561-0.226,0.897-0.273l3.012-0.423l-4.899,7.543c-0.169,0.266-0.337,0.48-0.514,0.66
										c-0.177,0.18-0.369,0.337-0.561,0.468c0.248,0.077,0.456,0.195,0.64,0.342c0.192,0.155,0.344,0.384,0.471,0.668
										l3.278,7.327l-3.1,0.436c-0.2,0.028-0.368,0.043-0.505,0.028c-0.144-0.006-0.256-0.042-0.352-0.08
										c-0.096-0.047-0.176-0.105-0.24-0.191c-0.064-0.077-0.12-0.165-0.16-0.263l-2.408-5.565
										c-0.088-0.212-0.224-0.349-0.4-0.411c-0.168-0.063-0.408-0.081-0.705-0.039l-0.801,0.113l-0.838,7.309l-3.46,0.486
										l1.93-17.057l3.485-0.49L133.641,119.593 M145.391,110.119l-1.81,0.254l-3.012,0.423c-0.441,0.062-0.841,0.187-1.194,0.375
										c-0.433,0.225-0.802,0.597-1.107,1.098l-3.583,5.88l0.635-5.543l0.13-1.09l-1.009,0.142l-3.485,0.49l-0.785,0.11
										l-0.098,0.852l-1.93,17.066l-0.122,1.098l1.001-0.141l3.46-0.486l0.785-0.11l0.098-0.861l0.741-6.449l0.016-0.002
										c0.152-0.021,0.248-0.018,0.296-0.016l2.4,5.558c0.072,0.171,0.16,0.323,0.271,0.463c0.144,0.17,0.312,0.302,0.512,0.395
										c0.176,0.079,0.376,0.129,0.6,0.149c0.2,0.015,0.424,0.009,0.689-0.028l3.1-0.436l1.378-0.194l-0.566-1.286l-3.278-7.327
										c-0.12-0.277-0.271-0.515-0.439-0.716c0.104-0.136,0.209-0.28,0.305-0.44l4.891-7.525L145.391,110.119"/>
									<path fill="#D7D779" d="M156.55,116.857l0.415-3.645l0.857-0.12c0.24-0.034,0.441-0.027,0.593,0.012
										c0.136,0.041,0.24,0.105,0.32,0.188c0.088,0.083,0.144,0.187,0.184,0.329c0.056,0.165,0.087,0.377,0.087,0.601
										c-0.001,0.398-0.041,0.766-0.114,1.096c-0.065,0.277-0.161,0.515-0.298,0.716c-0.112,0.18-0.273,0.324-0.473,0.447
										c-0.224,0.135-0.529,0.23-0.905,0.283L156.55,116.857 M157.824,112.132l-1.642,0.231l-0.643,5.596l1.674-0.235
										c0.505-0.071,0.921-0.207,1.258-0.41c0.337-0.203,0.609-0.466,0.826-0.79c0.209-0.315,0.362-0.682,0.451-1.092
										c0.097-0.411,0.146-0.859,0.147-1.334c0.001-0.329-0.039-0.626-0.126-0.89c-0.08-0.265-0.207-0.489-0.375-0.665
										s-0.384-0.3-0.648-0.376C158.489,112.09,158.177,112.082,157.824,112.132 M151.094,127.063l1.93-17.057l5.151-0.724
										c0.921-0.129,1.714-0.12,2.37,0.03s1.2,0.41,1.624,0.774c0.424,0.364,0.735,0.822,0.934,1.373
										c0.199,0.56,0.294,1.169,0.293,1.835c-0.002,0.916-0.131,1.782-0.397,2.597c-0.258,0.814-0.66,1.545-1.189,2.19
										c-0.538,0.646-1.219,1.183-2.037,1.626c-0.818,0.435-1.787,0.735-2.901,0.892l-1.666,0.234l-0.651,5.744L151.094,127.063
										 M158.176,108.322l-5.151,0.724l-0.785,0.11l-0.098,0.852l-1.938,17.067l-0.122,1.098l1.009-0.142l3.461-0.486l0.785-0.11
										l0.098-0.861l0.554-4.892l0.881-0.124c1.218-0.171,2.299-0.505,3.213-0.996c0.93-0.502,1.724-1.133,2.35-1.886
										c0.626-0.754,1.1-1.615,1.406-2.575c0.298-0.924,0.444-1.912,0.446-2.932c0.001-0.778-0.117-1.505-0.348-2.155
										c-0.247-0.691-0.638-1.267-1.158-1.713c-0.512-0.447-1.168-0.761-1.944-0.937
										C160.09,108.192,159.193,108.179,158.176,108.322"/>
									<path fill="#D7D779" d="M169.9,117.064l1.079-2.969l0.443,2.756L169.9,117.064 M171.337,110.691
										c-0.056,0.189-0.137,0.417-0.225,0.663c-0.097,0.247-0.185,0.484-0.274,0.721c-0.089,0.237-0.177,0.457-0.257,0.659
										c-0.08,0.201-0.145,0.357-0.177,0.448l-1.835,5.029l3.909-0.549l-0.752-4.683c-0.063-0.389-0.135-0.785-0.206-1.19
										C171.448,111.393,171.384,111.021,171.337,110.691 M162.476,125.463l7.465-17.835l3.565-0.501l3.582,16.283l-2.691,0.378
										c-0.296,0.042-0.537,0.006-0.721-0.123c-0.184-0.121-0.288-0.305-0.327-0.542l-0.475-2.959l-5.287,0.743l-1.159,3.188
										c-0.072,0.226-0.233,0.439-0.458,0.635c-0.225,0.196-0.481,0.31-0.761,0.349L162.476,125.463 M174.221,106.067l-0.713,0.1
										l-3.565,0.501l-0.561,0.079l-0.241,0.578l-7.465,17.844l-0.611,1.46l1.41-0.198l2.732-0.384
										c0.457-0.064,0.881-0.262,1.258-0.592c0.377-0.33,0.642-0.704,0.795-1.123l0.926-2.542l3.941-0.554l0.348,2.172
										c0.063,0.467,0.295,0.849,0.663,1.1c0.336,0.229,0.76,0.317,1.257,0.247l2.691-0.378l1.121-0.158l-0.254-1.148
										l-3.574-16.284L174.221,106.067"/>
									<path fill="#D7D779" d="M184.27,119.617c0.649-0.091,1.146-0.351,1.499-0.781c0.353-0.43,0.53-1.017,0.532-1.76
										c0.001-0.354-0.079-0.62-0.239-0.822c-0.16-0.202-0.368-0.363-0.624-0.483c-0.264-0.11-0.56-0.207-0.896-0.28
										c-0.328-0.075-0.672-0.156-1.025-0.236c-0.344-0.099-0.688-0.206-1.024-0.349c-0.328-0.144-0.624-0.344-0.888-0.61
										c-0.256-0.275-0.471-0.617-0.631-1.035c-0.159-0.418-0.238-0.952-0.237-1.6c0.001-0.744,0.139-1.48,0.396-2.199
										c0.266-0.729,0.635-1.386,1.117-1.981c0.49-0.605,1.075-1.111,1.765-1.519c0.698-0.418,1.475-0.683,2.332-0.803
										c0.441-0.062,0.873-0.071,1.289-0.034c0.416,0.045,0.801,0.13,1.169,0.251c0.36,0.131,0.688,0.292,0.992,0.492
										c0.296,0.2,0.552,0.432,0.751,0.69l-1.044,1.685c-0.12,0.198-0.249,0.355-0.369,0.458
										c-0.128,0.104-0.273,0.168-0.449,0.193c-0.16,0.023-0.32-0.015-0.488-0.113c-0.16-0.09-0.344-0.194-0.552-0.303
										c-0.2-0.11-0.432-0.199-0.696-0.282c-0.264-0.075-0.568-0.093-0.929-0.042c-0.328,0.046-0.617,0.139-0.857,0.276
										c-0.249,0.13-0.449,0.296-0.618,0.502c-0.161,0.195-0.289,0.421-0.37,0.674c-0.081,0.245-0.121,0.518-0.122,0.795
										c-0.001,0.311,0.079,0.559,0.239,0.744c0.16,0.185,0.368,0.337,0.64,0.455c0.264,0.118,0.568,0.223,0.896,0.306
										c0.336,0.082,0.68,0.181,1.033,0.287c0.352,0.097,0.696,0.231,1.032,0.382c0.344,0.15,0.64,0.36,0.912,0.624
										c0.264,0.257,0.479,0.59,0.639,0.991c0.159,0.401,0.239,0.891,0.238,1.488c-0.002,0.847-0.139,1.662-0.413,2.444
										c-0.274,0.782-0.659,1.484-1.165,2.117c-0.506,0.624-1.123,1.152-1.845,1.582c-0.722,0.43-1.539,0.709-2.444,0.836
										c-0.449,0.063-0.897,0.074-1.353,0.026c-0.448-0.041-0.881-0.136-1.297-0.276c-0.416-0.132-0.808-0.31-1.16-0.528
										c-0.352-0.218-0.656-0.478-0.904-0.772l1.237-1.928c0.096-0.143,0.217-0.264,0.369-0.372
										c0.144-0.107,0.297-0.171,0.449-0.193c0.2-0.028,0.392,0.023,0.576,0.144c0.192,0.129,0.4,0.264,0.624,0.405
										c0.232,0.149,0.496,0.276,0.8,0.389C183.461,119.653,183.829,119.679,184.27,119.617 M186.349,104.199
										c-0.977,0.137-1.875,0.445-2.676,0.921c-0.794,0.475-1.484,1.073-2.053,1.775c-0.562,0.693-1.004,1.472-1.31,2.319
										c-0.306,0.847-0.46,1.707-0.461,2.571c-0.001,0.769,0.101,1.421,0.301,1.946c0.199,0.525,0.471,0.962,0.806,1.304
										c0.32,0.335,0.704,0.601,1.128,0.775c0.368,0.156,0.744,0.284,1.128,0.386c0.36,0.088,0.712,0.176,1.057,0.249
										c0.28,0.056,0.528,0.133,0.744,0.232c0.144,0.066,0.264,0.153,0.344,0.263l0.056,0.26c-0.001,0.476-0.09,0.825-0.266,1.04
										c-0.072,0.088-0.273,0.332-0.874,0.417c-0.312,0.044-0.561,0.027-0.745-0.034c-0.248-0.086-0.464-0.194-0.64-0.308
										l-0.624-0.405c-0.344-0.228-0.712-0.315-1.105-0.26c-0.296,0.042-0.585,0.16-0.866,0.355
										c-0.265,0.193-0.489,0.423-0.658,0.689l-1.245,1.921l-0.426,0.665l0.439,0.526c0.304,0.355,0.671,0.666,1.087,0.928
										c0.4,0.246,0.84,0.452,1.312,0.602c0.472,0.158,0.961,0.263,1.465,0.313c0.52,0.048,1.041,0.035,1.546-0.036
										c1.017-0.143,1.955-0.465,2.789-0.954c0.826-0.496,1.548-1.116,2.134-1.838c0.586-0.731,1.044-1.564,1.366-2.474
										c0.306-0.89,0.468-1.838,0.47-2.797c0.001-0.718-0.102-1.334-0.301-1.842c-0.207-0.507-0.479-0.935-0.822-1.276
										c-0.328-0.317-0.704-0.575-1.12-0.768c-0.368-0.164-0.744-0.302-1.128-0.421c-0.368-0.104-0.72-0.201-1.065-0.283
										c-0.288-0.072-0.552-0.164-0.776-0.263c-0.168-0.08-0.296-0.166-0.384-0.266c-0.008-0.016-0.032-0.039-0.032-0.16
										c0-0.164,0.025-0.315,0.065-0.45c0.04-0.118,0.088-0.211,0.169-0.309c0.072-0.088,0.168-0.162,0.297-0.232
										c0.144-0.081,0.329-0.133,0.545-0.163c0.24-0.034,0.441-0.027,0.601,0.019c0.208,0.057,0.4,0.134,0.552,0.216
										c0.2,0.11,0.384,0.214,0.544,0.304c0.304,0.173,0.632,0.24,0.969,0.192c0.344-0.048,0.649-0.186,0.922-0.406
										c0.225-0.187,0.433-0.433,0.618-0.752l1.044-1.677l0.402-0.644l-0.415-0.512c-0.256-0.318-0.567-0.594-0.927-0.838
										c-0.344-0.228-0.736-0.424-1.16-0.572c-0.416-0.14-0.864-0.242-1.337-0.288
										C187.35,104.118,186.853,104.128,186.349,104.199"/>
									<path fill="#D7D779" d="M196.87,117.846c0.649-0.091,1.154-0.352,1.507-0.782c0.353-0.43,0.53-1.017,0.532-1.76
										c0.001-0.354-0.079-0.62-0.239-0.822c-0.16-0.202-0.368-0.363-0.632-0.482c-0.256-0.111-0.552-0.208-0.888-0.281
										c-0.336-0.074-0.68-0.155-1.025-0.236c-0.352-0.097-0.688-0.206-1.024-0.349c-0.336-0.143-0.632-0.343-0.896-0.609
										c-0.256-0.275-0.463-0.618-0.623-1.036c-0.159-0.418-0.238-0.952-0.237-1.6c0.001-0.744,0.131-1.479,0.388-2.198
										c0.266-0.729,0.635-1.386,1.125-1.982c0.482-0.604,1.075-1.111,1.765-1.519c0.689-0.417,1.467-0.682,2.324-0.802
										c0.449-0.063,0.873-0.071,1.289-0.034c0.416,0.045,0.809,0.128,1.169,0.251c0.36,0.131,0.696,0.291,0.992,0.492
										c0.296,0.2,0.552,0.432,0.76,0.688l-1.052,1.686c-0.12,0.198-0.241,0.354-0.369,0.458c-0.12,0.103-0.273,0.168-0.441,0.192
										c-0.168,0.024-0.328-0.014-0.496-0.112c-0.16-0.09-0.344-0.194-0.544-0.304c-0.208-0.109-0.44-0.197-0.704-0.281
										c-0.264-0.075-0.568-0.093-0.929-0.042c-0.32,0.045-0.609,0.137-0.857,0.276c-0.249,0.13-0.449,0.296-0.618,0.502
										c-0.161,0.195-0.281,0.42-0.37,0.674c-0.081,0.245-0.121,0.518-0.122,0.795c-0.001,0.311,0.079,0.559,0.239,0.744
										c0.16,0.185,0.376,0.336,0.64,0.455s0.568,0.223,0.904,0.305c0.328,0.084,0.672,0.182,1.025,0.288
										c0.352,0.097,0.704,0.229,1.04,0.381c0.336,0.152,0.64,0.36,0.904,0.625c0.264,0.257,0.479,0.59,0.639,0.991
										c0.159,0.401,0.239,0.891,0.237,1.488c-0.002,0.847-0.139,1.662-0.413,2.444c-0.266,0.781-0.659,1.484-1.165,2.117
										c-0.506,0.624-1.123,1.152-1.845,1.582c-0.722,0.43-1.539,0.709-2.444,0.836c-0.449,0.063-0.897,0.074-1.345,0.025
										c-0.456-0.04-0.889-0.134-1.305-0.275c-0.416-0.132-0.8-0.311-1.16-0.528c-0.352-0.218-0.656-0.478-0.904-0.772l1.245-1.93
										c0.088-0.142,0.209-0.263,0.361-0.371c0.152-0.108,0.297-0.171,0.449-0.193c0.2-0.028,0.392,0.023,0.584,0.143
										c0.184,0.13,0.392,0.265,0.624,0.405c0.224,0.15,0.488,0.277,0.792,0.39C196.061,117.882,196.43,117.908,196.87,117.846
										 M198.949,102.428c-0.977,0.137-1.875,0.445-2.676,0.921c-0.794,0.475-1.484,1.073-2.045,1.774
										c-0.57,0.694-1.012,1.473-1.31,2.319c-0.306,0.847-0.46,1.707-0.461,2.571c-0.001,0.769,0.093,1.422,0.293,1.947
										c0.199,0.525,0.471,0.962,0.806,1.304c0.328,0.334,0.712,0.6,1.136,0.774c0.36,0.157,0.736,0.285,1.12,0.387
										c0.36,0.088,0.712,0.176,1.057,0.249c0.28,0.056,0.528,0.133,0.744,0.232c0.152,0.065,0.264,0.153,0.352,0.262l0.056,0.26
										c-0.001,0.476-0.098,0.826-0.274,1.041c-0.064,0.087-0.265,0.331-0.874,0.417c-0.304,0.043-0.561,0.027-0.745-0.034
										c-0.24-0.087-0.456-0.195-0.632-0.309l-0.624-0.405c-0.344-0.228-0.72-0.314-1.113-0.259
										c-0.296,0.042-0.585,0.16-0.858,0.354c-0.273,0.194-0.497,0.424-0.666,0.69l-1.237,1.92l-0.426,0.665l0.439,0.526
										c0.296,0.356,0.663,0.667,1.087,0.928c0.392,0.247,0.84,0.452,1.312,0.602c0.464,0.159,0.961,0.263,1.465,0.313
										c0.512,0.049,1.033,0.036,1.538-0.035c1.017-0.143,1.955-0.465,2.789-0.954c0.826-0.496,1.548-1.116,2.134-1.838
										c0.594-0.732,1.052-1.565,1.366-2.474c0.314-0.891,0.468-1.838,0.47-2.797c0.001-0.718-0.102-1.334-0.301-1.842
										c-0.199-0.508-0.479-0.935-0.822-1.276c-0.328-0.317-0.704-0.575-1.12-0.767c-0.368-0.164-0.744-0.302-1.128-0.421
										c-0.36-0.105-0.712-0.202-1.057-0.284c-0.296-0.071-0.552-0.164-0.784-0.261c-0.168-0.08-0.296-0.166-0.384-0.266
										c-0.008-0.016-0.032-0.039-0.032-0.16c0-0.164,0.025-0.315,0.073-0.451c0.032-0.117,0.088-0.211,0.161-0.308
										c0.072-0.088,0.176-0.163,0.297-0.232c0.144-0.081,0.329-0.133,0.545-0.163c0.24-0.034,0.441-0.027,0.601,0.019
										c0.208,0.057,0.4,0.134,0.552,0.216c0.2,0.11,0.384,0.214,0.544,0.304c0.312,0.172,0.64,0.238,0.977,0.191
										c0.336-0.047,0.649-0.186,0.914-0.405c0.225-0.187,0.433-0.433,0.626-0.754l1.036-1.676l0.402-0.644l-0.415-0.512
										c-0.256-0.318-0.559-0.596-0.919-0.839c-0.352-0.227-0.744-0.423-1.16-0.572c-0.416-0.14-0.872-0.24-1.345-0.286
										C199.95,102.348,199.454,102.357,198.949,102.428"/>
								</g>
							</g>
						</g>
					</g>
				</g>
			</g>
		</g>
	</g>
	<g>
		<g>
			<polygon fill="#0B95D0" points="135.845,78.47 124.844,78.47 142.218,45.175 139.113,68.93 150.123,68.93 132.756,102.214 			"/>
		</g>
		<g>
			<path fill="#006C9C" d="M140.494,50.64l-0.7,5.35l-1.82,13.94h10.5l-14,26.83l2.51-19.29h-10.49L140.494,50.64 M143.941,39.711
				l-5.22,10.004l-14,26.83l-1.526,2.925h3.3h8.213l-2.216,17.032l-1.453,11.167l5.209-9.983l14-26.83l1.526-2.925h-3.3h-8.222
				l1.525-11.681l0.7-5.349L143.941,39.711L143.941,39.711z"/>
		</g>
	</g>
	<g>
		<path fill="#D7D879" d="M140.494,50.64l-14,26.83h2.08l11.22-21.48"/>
	</g>
</g>
</svg>
