<?xml version="1.0" encoding="utf-8"?>
<!-- Generator: Adobe Illustrator 19.2.1, SVG Export Plug-In . SVG Version: 6.00 Build 0)  -->
<svg version="1.1" id="Layer_1" xmlns="http://www.w3.org/2000/svg" xmlns:xlink="http://www.w3.org/1999/xlink" x="0px" y="0px"
	 viewBox="0 0 158.3 160" style="enable-background:new 0 0 158.3 160;" xml:space="preserve">
<style type="text/css">
	.st0{fill:#7A71B3;}
	.st1{fill:#534B7C;}
	.st2{fill:#E0792B;}
</style>
<g>
	<g>
		<path class="st0" d="M-0.8,145.6c0,0,0-0.1,0-0.2c0-0.1,0-0.2,0-0.2c0-9.8,4.2-14.7,12.6-14.7c1.8,0,3.4,0.3,4.8,0.8
			s2.6,1.2,3.4,1.9c0.8,0.7,1.6,1.7,2.2,2.9c0.6,1.2,1.1,2.2,1.4,3.1c0.3,0.8,0.5,1.9,0.6,3c0.1,1.2,0.2,1.9,0.2,2.2v1.2l-0.1,2h-21
			c0.3,2.9,1.1,4.9,2.7,6.2c1.5,1.3,3.7,1.9,6.7,1.9c4.2,0,7.5-0.7,9.9-2.1v4.2c-2.8,1.3-6.1,2-10.1,2c-0.1,0-0.1,0-0.2,0
			c-1.7,0-3.2-0.2-4.6-0.6s-2.8-1.1-4.2-2.1c-1.4-1-2.4-2.5-3.2-4.5C-0.5,150.9-0.8,148.5-0.8,145.6z M3.3,144.1h16.9
			c0-0.7-0.1-1.4-0.2-2.2s-0.5-1.8-1-3.1c-0.5-1.3-1.3-2.3-2.6-3.1c-1.3-0.8-2.8-1.3-4.7-1.3c-2.9,0-4.9,0.7-6.2,2.2
			C4.3,138.1,3.5,140.6,3.3,144.1z"/>
		<path class="st0" d="M27.6,159.6v-39.4h4.2v39.4H27.6z"/>
		<path class="st0" d="M35.5,150.8c0-1.3,0.2-2.4,0.7-3.4c0.5-1,1.1-1.8,1.8-2.5c0.7-0.6,1.6-1.2,2.7-1.6s2-0.8,2.9-1
			c0.8-0.2,1.8-0.4,2.9-0.5c1.1-0.1,1.9-0.2,2.4-0.2c0.5,0,1,0,1.7,0l4.6,0.3c0-2.6-0.7-4.4-2.1-5.5c-1.4-1.1-3.5-1.7-6.3-1.7
			c-3.1,0-5.9,0.5-8.4,1.4v-4c2.8-1,5.7-1.5,8.7-1.5c4,0,7.1,1,9.2,3c2.1,2,3.2,5,3.2,8.9v8.6c0,1.8-0.4,3.4-1.3,4.7
			c-0.9,1.3-2,2.2-3.3,2.8c-1.3,0.6-2.6,1-3.8,1.2c-1.2,0.2-2.3,0.3-3.5,0.3c-0.9,0-1.8-0.1-2.7-0.2c-0.9-0.1-2-0.4-3.2-0.8
			c-1.2-0.4-2.2-0.9-3.1-1.5c-0.9-0.6-1.6-1.5-2.2-2.7C35.8,153.7,35.5,152.3,35.5,150.8z M39.7,150.8c0,3.6,2.6,5.3,7.8,5.3
			c0,0,0,0,0.1,0c5.1,0,7.7-1.7,7.7-5.2v-5.5c-1.3-0.2-3-0.3-5.1-0.3C43.2,145.1,39.7,147,39.7,150.8z"/>
		<path class="st0" d="M62.2,138.8c0-2.3,0.8-4.2,2.5-5.8c1.7-1.6,4.3-2.4,7.7-2.4c2.5,0,4.9,0.6,7.4,1.7v4.1c-2.2-1.3-4.5-2-6.9-2
			c-4.3,0-6.5,1.5-6.5,4.4c0,1,0.5,1.8,1.6,2.4s2.3,1.1,3.9,1.5c1.5,0.4,3,0.9,4.6,1.4c1.5,0.6,2.8,1.5,3.9,2.8
			c1.1,1.3,1.6,3,1.6,5.1c0,2.5-0.9,4.4-2.8,5.8c-1.9,1.4-4.5,2.1-7.8,2.1c-3.2,0-6.1-0.7-8.7-2.2v-4.4c2.8,1.7,5.6,2.5,8.6,2.5
			c4.4,0,6.6-1.3,6.6-3.9c0-1.4-0.5-2.5-1.6-3.3c-1.1-0.8-2.3-1.4-3.9-1.8c-1.5-0.4-3-0.8-4.6-1.3s-2.8-1.3-3.9-2.4
			C62.7,142.1,62.2,140.6,62.2,138.8z"/>
		<path class="st0" d="M82.3,134.8V131h5v-8.1h4.2v8.1h7.5v3.8h-7.5v17.4c0,1.5,0.3,2.5,0.9,3.1c0.6,0.6,1.7,0.9,3.2,0.9
			c1.2,0,2.3-0.2,3.3-0.7v3.9c-1.2,0.4-2.4,0.7-3.7,0.7c-0.1,0-0.1,0-0.1,0c-0.8,0-1.5-0.1-2.3-0.3c-0.7-0.2-1.6-0.5-2.5-1
			c-0.9-0.5-1.7-1.3-2.2-2.5c-0.6-1.2-0.8-2.6-0.8-4.3v-17.2H82.3z"/>
		<path class="st0" d="M102,126v-4.6h4.6v4.6H102z M102.2,159.6h4.2V131h-4.2V159.6z"/>
		<path class="st0" d="M110.3,145.2c0-2.9,0.4-5.4,1.2-7.4c0.8-2,1.9-3.6,3.3-4.6c1.4-1,2.8-1.7,4.3-2.1c1.4-0.4,3-0.6,4.8-0.6
			c2.9,0,5.7,0.5,8.6,1.6v3.9c-2.6-1.1-5.3-1.6-8.1-1.6c-3.4,0-5.9,0.9-7.5,2.6c-1.6,1.7-2.3,4.5-2.3,8.3c0,3.8,0.8,6.6,2.3,8.3
			c1.6,1.7,4.1,2.6,7.5,2.6c2.9,0,5.6-0.5,8.1-1.6v4c-2.7,1-5.5,1.5-8.6,1.5c-1.4,0-2.6-0.1-3.8-0.3c-1.2-0.2-2.4-0.7-3.6-1.3
			c-1.2-0.7-2.3-1.5-3.2-2.6c-0.9-1.1-1.6-2.5-2.1-4.3C110.5,149.7,110.3,147.6,110.3,145.2z"/>
		<path class="st0" d="M133.9,145.6c0,0,0-0.1,0-0.2c0-0.1,0-0.2,0-0.2c0-9.8,4.2-14.7,12.6-14.7c1.8,0,3.4,0.3,4.8,0.8
			s2.6,1.2,3.4,1.9c0.8,0.7,1.6,1.7,2.2,2.9c0.6,1.2,1.1,2.2,1.4,3.1c0.3,0.8,0.5,1.9,0.6,3c0.1,1.2,0.2,1.9,0.2,2.2v1.2l-0.1,2h-21
			c0.3,2.9,1.1,4.9,2.7,6.2c1.5,1.3,3.7,1.9,6.7,1.9c4.2,0,7.5-0.7,9.9-2.1v4.2c-2.8,1.3-6.1,2-10.1,2c-0.1,0-0.1,0-0.2,0
			c-1.7,0-3.2-0.2-4.6-0.6s-2.8-1.1-4.2-2.1c-1.4-1-2.4-2.5-3.2-4.5C134.3,150.9,133.9,148.5,133.9,145.6z M138.1,144.1H155
			c0-0.7-0.1-1.4-0.2-2.2c-0.2-0.8-0.5-1.8-1-3.1c-0.5-1.3-1.3-2.3-2.6-3.1c-1.3-0.8-2.8-1.3-4.7-1.3c-2.9,0-4.9,0.7-6.2,2.2
			C139,138.1,138.3,140.6,138.1,144.1z"/>
	</g>
	<g>
		<polygon class="st1" points="108.6,36.5 108.6,62.8 49.7,62.8 67,45.7 73.4,39.3 76.2,36.5 		"/>
		<g>
			<path class="st0" d="M94.7,0v36.5l-9.2-9.1l-9.2,9.1l-2.8,2.8L67,45.7L49.7,62.8c-2.3-0.8-4.4-2-6.1-3.7L42.5,58
				c-3-3.2-4.9-7.6-4.9-12.4c0-4.8,1.9-9.1,4.9-12.3l1.1-1.1L66.9,9.1L57.7,0H94.7z"/>
		</g>
		<g>
			<path class="st2" d="M120.7,53.6c0,4.8-1.9,9.3-5,12.5c-0.3,0.3-0.5,0.6-0.8,0.8L91.4,90.1l9.2,9.1H63.7V62.7l9.2,9.1h0l12-11.9
				l23.7-23.5c2.4,0.8,4.5,2.2,6.3,3.9c0.2,0.2,0.4,0.4,0.6,0.6C118.7,44.2,120.7,48.7,120.7,53.6z"/>
		</g>
	</g>
</g>
</svg>
