<?xml version="1.0" encoding="utf-8"?>
<!-- Generator: Adobe Illustrator 19.2.1, SVG Export Plug-In . SVG Version: 6.00 Build 0)  -->
<svg version="1.1" id="Layer_1" xmlns="http://www.w3.org/2000/svg" xmlns:xlink="http://www.w3.org/1999/xlink" x="0px" y="0px"
	 viewBox="0 0 320 320" style="enable-background:new 0 0 320 320;" xml:space="preserve">
<style type="text/css">
	.st0{fill:url(#SVGID_1_);}
	.st1{opacity:0.33;}
	.st2{opacity:0.2;}
	.st3{fill:#FFFFFF;}
	.st4{opacity:5.000000e-02;}
	.st5{opacity:0.25;}
	.st6{opacity:0.1;}
	.st7{fill:#DBDBDB;}
	.st8{opacity:0.15;}
	.st9{fill:#446B97;}
	.st10{fill:#FF7573;}
	.st11{fill:#46DB9A;}
	.st12{opacity:0.2;enable-background:new    ;}
	.st13{fill:#F8F8F8;}
	.st14{opacity:0.4;}
	.st15{fill:#7986A3;}
	.st16{fill:#C4C4C4;}
	.st17{fill:#535265;}
	.st18{fill:#8C8E8F;}
	.st19{fill:#DBA733;}
	.st20{fill:#F0F0F0;}
	.st21{fill:#EEC25B;}
	.st22{opacity:0.14;enable-background:new    ;}
	.st23{fill:#F2BA49;}
	.st24{fill:#FCDE4C;}
	.st25{fill:#E28223;}
	.st26{fill:#42464F;}
	.st27{fill:#5ABA5D;}
	.st28{opacity:0.5;}
	.st29{fill:#D23A2E;}
	.st30{fill:#FFCCCC;}
	.st31{fill:#D19090;}
	.st32{fill:#B5D5CE;}
	.st33{fill:#DEDEDE;}
	.st34{fill:#F2E761;}
	.st35{opacity:0.75;}
	.st36{fill:#D1C200;}
	.st37{fill:#BFBFBF;}
	.st38{fill:#999999;}
	.st39{fill:#FF7947;}
	.st40{fill:#FF9D78;}
	.st41{fill:#FFA93B;}
	.st42{opacity:0.1;enable-background:new    ;}
	.st43{fill:#C3CDD4;}
	.st44{fill:#9E9E9E;}
	.st45{fill:#00BD6B;}
	.st46{fill:#004358;}
	.st47{fill:#1C7259;}
	.st48{fill:#1F8A70;}
	.st49{fill:#E6E7E8;}
	.st50{fill:#BEDB39;}
	.st51{fill:#FFE11A;}
	.st52{fill:#FD7400;}
</style>
<g>
	
		<radialGradient id="SVGID_1_" cx="200.96" cy="201.28" r="115.1844" gradientTransform="matrix(3.9062 0 0 3.9062 -465 -465)" gradientUnits="userSpaceOnUse">
		<stop  offset="0" style="stop-color:#5BC4EC"/>
		<stop  offset="0.33" style="stop-color:#5B93D7"/>
		<stop  offset="0.66" style="stop-color:#516DC3"/>
		<stop  offset="1" style="stop-color:#3A50CF"/>
	</radialGradient>
	<rect class="st0" width="320" height="320"/>
	<g class="st1">
		<g class="st2">
			<g>
				<path class="st3" d="M207.1,218.8c0,0.5-0.4,1.1-0.8,1.4l-10.3,6c-0.4,0.3-1.2,0.3-1.6,0l-10.3-6c-0.4-0.3-0.8-0.9-0.8-1.4
					v-11.9c0-0.5,0.4-1.1,0.8-1.4l10.3-6c0.4-0.3,1.2-0.3,1.6,0l10.3,6c0.4,0.3,0.8,0.9,0.8,1.4L207.1,218.8L207.1,218.8z"/>
			</g>
		</g>
		<g>
			<g>
				<path class="st3" d="M195.2,226.8c-0.4,0-0.8-0.1-1.1-0.3l-10.3-6c-0.6-0.4-1-1.1-1-1.8v-11.9c0-0.7,0.5-1.5,1-1.8l10.3-6
					c0.6-0.3,1.5-0.3,2.1,0l10.3,6c0.6,0.4,1,1.2,1,1.8l0,11.9c0,0.7-0.4,1.5-1,1.8l-10.3,6C196,226.7,195.6,226.8,195.2,226.8z
					 M195.2,199.8c-0.2,0-0.4,0-0.5,0.1l-10.3,6c-0.3,0.2-0.6,0.6-0.6,1v11.9c0,0.3,0.3,0.8,0.6,1l10.3,5.9c0.3,0.2,0.8,0.2,1.1,0
					l10.3-6c0.3-0.2,0.6-0.6,0.6-1v0l0-11.9c0-0.3-0.3-0.8-0.6-1l-10.3-5.9C195.6,199.9,195.4,199.8,195.2,199.8z"/>
			</g>
		</g>
	</g>
	<g class="st1">
		<g class="st2">
			<g>
				<path class="st3" d="M207.1,113.2c0,0.5-0.4,1.1-0.8,1.4l-10.3,6c-0.4,0.3-1.2,0.3-1.6,0l-10.3-6c-0.4-0.3-0.8-0.9-0.8-1.4
					v-11.9c0-0.5,0.4-1.1,0.8-1.4l10.3-6c0.4-0.3,1.2-0.3,1.6,0l10.3,6c0.4,0.3,0.8,0.9,0.8,1.4L207.1,113.2L207.1,113.2z"/>
			</g>
		</g>
		<g>
			<g>
				<path class="st3" d="M195.2,121.2c-0.4,0-0.8-0.1-1.1-0.3l-10.3-6c-0.6-0.4-1-1.1-1-1.8v-11.9c0-0.7,0.5-1.5,1-1.8l10.3-6
					c0.6-0.3,1.5-0.3,2.1,0l10.3,6c0.6,0.4,1,1.2,1,1.8l0,11.9c0,0.7-0.4,1.5-1,1.8l-10.3,6C196,121.1,195.6,121.2,195.2,121.2z
					 M195.2,94.2c-0.2,0-0.4,0-0.5,0.1l-10.3,6c-0.3,0.2-0.6,0.6-0.6,1v11.9c0,0.3,0.3,0.8,0.6,1l10.3,5.9c0.3,0.2,0.8,0.2,1.1,0
					l10.3-6c0.3-0.2,0.6-0.6,0.6-1v0l0-11.9c0-0.3-0.3-0.8-0.6-1l-10.3-5.9C195.6,94.3,195.4,94.2,195.2,94.2z"/>
			</g>
		</g>
	</g>
	<g class="st1">
		<g class="st2">
			<g>
				<path class="st3" d="M136.7,113.2c0,0.5-0.4,1.1-0.8,1.4l-10.3,6c-0.4,0.3-1.2,0.3-1.6,0l-10.3-6c-0.4-0.3-0.8-0.9-0.8-1.4
					v-11.9c0-0.5,0.4-1.1,0.8-1.4l10.3-6c0.4-0.3,1.2-0.3,1.6,0l10.3,6c0.4,0.3,0.8,0.9,0.8,1.4L136.7,113.2L136.7,113.2z"/>
			</g>
		</g>
		<g>
			<g>
				<path class="st3" d="M124.8,121.2c-0.4,0-0.8-0.1-1.1-0.3l-10.3-6c-0.6-0.4-1-1.1-1-1.8v-11.9c0-0.7,0.5-1.5,1-1.8l10.3-6
					c0.6-0.3,1.5-0.3,2.1,0l10.3,6c0.6,0.4,1,1.2,1,1.8l0,11.9c0,0.7-0.4,1.5-1,1.8l-10.3,6C125.6,121.1,125.2,121.2,124.8,121.2z
					 M124.8,94.2c-0.2,0-0.4,0-0.5,0.1l-10.3,6c-0.3,0.2-0.6,0.6-0.6,1v11.9c0,0.3,0.3,0.8,0.6,1l10.3,5.9c0.3,0.2,0.8,0.2,1.1,0
					l10.3-6c0.3-0.2,0.6-0.6,0.6-1v0l0-11.9c0-0.3-0.3-0.8-0.6-1l-10.3-5.9C125.2,94.3,125,94.2,124.8,94.2z"/>
			</g>
		</g>
	</g>
	<g class="st4">
		<g class="st2">
			<g>
				<path class="st3" d="M312.7,271.6c0,0.5-0.4,1.1-0.8,1.4l-10.3,6c-0.4,0.3-1.2,0.3-1.6,0l-10.3-6c-0.4-0.3-0.8-0.9-0.8-1.4
					v-11.9c0-0.5,0.4-1.1,0.8-1.4l10.3-6c0.4-0.3,1.2-0.3,1.6,0l10.3,6c0.4,0.3,0.8,0.9,0.8,1.4L312.7,271.6L312.7,271.6z"/>
			</g>
		</g>
		<g>
			<g>
				<path class="st3" d="M300.8,279.6c-0.4,0-0.8-0.1-1.1-0.3l-10.3-6c-0.6-0.4-1-1.1-1-1.8v-11.9c0-0.7,0.5-1.5,1-1.8l10.3-6
					c0.6-0.3,1.5-0.3,2.1,0l10.3,6c0.6,0.4,1,1.2,1,1.8l0,11.9c0,0.7-0.4,1.5-1,1.8l-10.3,6C301.6,279.5,301.2,279.6,300.8,279.6z
					 M300.8,252.6c-0.2,0-0.4,0-0.5,0.1l-10.3,6c-0.3,0.2-0.6,0.6-0.6,1v11.9c0,0.3,0.3,0.8,0.6,1l10.3,5.9c0.3,0.2,0.8,0.2,1.1,0
					l10.3-6c0.3-0.2,0.6-0.6,0.6-1v0l0-11.9c0-0.3-0.3-0.8-0.6-1l-10.3-5.9C301.2,252.7,301,252.6,300.8,252.6z"/>
			</g>
		</g>
	</g>
	<g class="st4">
		<g class="st2">
			<g>
				<path class="st3" d="M312.7,60.4c0,0.5-0.4,1.1-0.8,1.4l-10.3,6c-0.4,0.3-1.2,0.3-1.6,0l-10.3-6c-0.4-0.3-0.8-0.9-0.8-1.4V48.4
					c0-0.5,0.4-1.1,0.8-1.4l10.3-6c0.4-0.3,1.2-0.3,1.6,0l10.3,6c0.4,0.3,0.8,0.9,0.8,1.4L312.7,60.4L312.7,60.4z"/>
			</g>
		</g>
		<g>
			<g>
				<path class="st3" d="M300.8,68.4c-0.4,0-0.8-0.1-1.1-0.3l-10.3-6c-0.6-0.4-1-1.1-1-1.8V48.4c0-0.7,0.5-1.5,1-1.8l10.3-6
					c0.6-0.3,1.5-0.3,2.1,0l10.3,6c0.6,0.4,1,1.2,1,1.8l0,11.9c0,0.7-0.4,1.5-1,1.8l-10.3,6C301.6,68.3,301.2,68.4,300.8,68.4z
					 M300.8,41.4c-0.2,0-0.4,0-0.5,0.1l-10.3,6c-0.3,0.2-0.6,0.6-0.6,1v11.9c0,0.3,0.3,0.8,0.6,1l10.3,5.9c0.3,0.2,0.8,0.2,1.1,0
					l10.3-6c0.3-0.2,0.6-0.6,0.6-1v0l0-11.9c0-0.3-0.3-0.8-0.6-1l-10.3-5.9C301.2,41.5,301,41.4,300.8,41.4z"/>
			</g>
		</g>
	</g>
	<g class="st1">
		<g class="st2">
			<g>
				<path class="st3" d="M171.9,236.4c0,0.5-0.4,1.1-0.8,1.4l-10.3,6c-0.4,0.3-1.2,0.3-1.6,0l-10.3-6c-0.4-0.3-0.8-0.9-0.8-1.4
					v-11.9c0-0.5,0.4-1.1,0.8-1.4l10.3-6c0.4-0.3,1.2-0.3,1.6,0l10.3,6c0.4,0.3,0.8,0.9,0.8,1.4L171.9,236.4L171.9,236.4z"/>
			</g>
		</g>
		<g>
			<g>
				<path class="st3" d="M160,244.4c-0.4,0-0.8-0.1-1.1-0.3l-10.3-6c-0.6-0.4-1-1.1-1-1.8v-11.9c0-0.7,0.5-1.5,1-1.8l10.3-6
					c0.6-0.3,1.5-0.3,2.1,0l10.3,6c0.6,0.4,1,1.2,1,1.8l0,11.9c0,0.7-0.4,1.5-1,1.8l-10.3,6C160.8,244.3,160.4,244.4,160,244.4z
					 M160,217.4c-0.2,0-0.4,0-0.5,0.1l-10.3,6c-0.3,0.2-0.6,0.6-0.6,1v11.9c0,0.3,0.3,0.8,0.6,1l10.3,5.9c0.3,0.2,0.8,0.2,1.1,0
					l10.3-6c0.3-0.2,0.6-0.6,0.6-1v0l0-11.9c0-0.3-0.3-0.8-0.6-1l-10.3-5.9C160.4,217.5,160.2,217.4,160,217.4z"/>
			</g>
		</g>
	</g>
	<g class="st5">
		<g>
			<g class="st2">
				<g>
					<path class="st3" d="M207.1,254c0,0.5-0.4,1.1-0.8,1.4l-10.3,6c-0.4,0.3-1.2,0.3-1.6,0l-10.3-6c-0.4-0.3-0.8-0.9-0.8-1.4V242
						c0-0.5,0.4-1.1,0.8-1.4l10.3-6c0.4-0.3,1.2-0.3,1.6,0l10.3,6c0.4,0.3,0.8,0.9,0.8,1.4L207.1,254L207.1,254z"/>
				</g>
			</g>
			<g>
				<g>
					<path class="st3" d="M195.2,262c-0.4,0-0.8-0.1-1.1-0.3l-10.3-6c-0.6-0.4-1-1.1-1-1.8V242c0-0.7,0.5-1.5,1-1.8l10.3-6
						c0.6-0.3,1.5-0.3,2.1,0l10.3,6c0.6,0.4,1,1.2,1,1.8l0,11.9c0,0.7-0.4,1.5-1,1.8l-10.3,6C196,261.9,195.6,262,195.2,262z
						 M195.2,235c-0.2,0-0.4,0-0.5,0.1l-10.3,6c-0.3,0.2-0.6,0.6-0.6,1V254c0,0.3,0.3,0.8,0.6,1l10.3,5.9c0.3,0.2,0.8,0.2,1.1,0
						l10.3-6c0.3-0.2,0.6-0.6,0.6-1v0l0-11.9c0-0.3-0.3-0.8-0.6-1l-10.3-5.9C195.6,235.1,195.4,235,195.2,235z"/>
				</g>
			</g>
		</g>
		<g>
			<g class="st2">
				<g>
					<path class="st3" d="M207.1,78c0,0.5-0.4,1.1-0.8,1.4l-10.3,6c-0.4,0.3-1.2,0.3-1.6,0l-10.3-6c-0.4-0.3-0.8-0.9-0.8-1.4V66
						c0-0.5,0.4-1.1,0.8-1.4l10.3-6c0.4-0.3,1.2-0.3,1.6,0l10.3,6c0.4,0.3,0.8,0.9,0.8,1.4L207.1,78L207.1,78z"/>
				</g>
			</g>
			<g>
				<g>
					<path class="st3" d="M195.2,86c-0.4,0-0.8-0.1-1.1-0.3l-10.3-6c-0.6-0.4-1-1.1-1-1.8V66c0-0.7,0.5-1.5,1-1.8l10.3-6
						c0.6-0.3,1.5-0.3,2.1,0l10.3,6c0.6,0.4,1,1.2,1,1.8l0,11.9c0,0.7-0.4,1.5-1,1.8l-10.3,6C196,85.9,195.6,86,195.2,86z M195.2,59
						c-0.2,0-0.4,0-0.5,0.1l-10.3,6c-0.3,0.2-0.6,0.6-0.6,1V78c0,0.3,0.3,0.8,0.6,1l10.3,5.9c0.3,0.2,0.8,0.2,1.1,0l10.3-6
						c0.3-0.2,0.6-0.6,0.6-1v0l0-11.9c0-0.3-0.3-0.8-0.6-1l-10.3-5.9C195.6,59.1,195.4,59,195.2,59z"/>
				</g>
			</g>
		</g>
		<g>
			<g class="st2">
				<g>
					<path class="st3" d="M136.7,254c0,0.5-0.4,1.1-0.8,1.4l-10.3,6c-0.4,0.3-1.2,0.3-1.6,0l-10.3-6c-0.4-0.3-0.8-0.9-0.8-1.4V242
						c0-0.5,0.4-1.1,0.8-1.4l10.3-6c0.4-0.3,1.2-0.3,1.6,0l10.3,6c0.4,0.3,0.8,0.9,0.8,1.4L136.7,254L136.7,254z"/>
				</g>
			</g>
			<g>
				<g>
					<path class="st3" d="M124.8,262c-0.4,0-0.8-0.1-1.1-0.3l-10.3-6c-0.6-0.4-1-1.1-1-1.8V242c0-0.7,0.5-1.5,1-1.8l10.3-6
						c0.6-0.3,1.5-0.3,2.1,0l10.3,6c0.6,0.4,1,1.2,1,1.8l0,11.9c0,0.7-0.4,1.5-1,1.8l-10.3,6C125.6,261.9,125.2,262,124.8,262z
						 M124.8,235c-0.2,0-0.4,0-0.5,0.1l-10.3,6c-0.3,0.2-0.6,0.6-0.6,1V254c0,0.3,0.3,0.8,0.6,1l10.3,5.9c0.3,0.2,0.8,0.2,1.1,0
						l10.3-6c0.3-0.2,0.6-0.6,0.6-1v0l0-11.9c0-0.3-0.3-0.8-0.6-1l-10.3-5.9C125.2,235.1,125,235,124.8,235z"/>
				</g>
			</g>
		</g>
		<g>
			<g class="st2">
				<g>
					<path class="st3" d="M136.7,78c0,0.5-0.4,1.1-0.8,1.4l-10.3,6c-0.4,0.3-1.2,0.3-1.6,0l-10.3-6c-0.4-0.3-0.8-0.9-0.8-1.4V66
						c0-0.5,0.4-1.1,0.8-1.4l10.3-6c0.4-0.3,1.2-0.3,1.6,0l10.3,6c0.4,0.3,0.8,0.9,0.8,1.4L136.7,78L136.7,78z"/>
				</g>
			</g>
			<g>
				<g>
					<path class="st3" d="M124.8,86c-0.4,0-0.8-0.1-1.1-0.3l-10.3-6c-0.6-0.4-1-1.1-1-1.8V66c0-0.7,0.5-1.5,1-1.8l10.3-6
						c0.6-0.3,1.5-0.3,2.1,0l10.3,6c0.6,0.4,1,1.2,1,1.8l0,11.9c0,0.7-0.4,1.5-1,1.8l-10.3,6C125.6,85.9,125.2,86,124.8,86z
						 M124.8,59c-0.2,0-0.4,0-0.5,0.1l-10.3,6c-0.3,0.2-0.6,0.6-0.6,1V78c0,0.3,0.3,0.8,0.6,1l10.3,5.9c0.3,0.2,0.8,0.2,1.1,0
						l10.3-6c0.3-0.2,0.6-0.6,0.6-1v0l0-11.9c0-0.3-0.3-0.8-0.6-1l-10.3-5.9C125.2,59.1,125,59,124.8,59z"/>
				</g>
			</g>
		</g>
		<g>
			<g class="st2">
				<g>
					<path class="st3" d="M242.3,201.2c0,0.5-0.4,1.1-0.8,1.4l-10.3,6c-0.4,0.3-1.2,0.3-1.6,0l-10.3-6c-0.4-0.3-0.8-0.9-0.8-1.4
						v-11.9c0-0.5,0.4-1.1,0.8-1.4l10.3-6c0.4-0.3,1.2-0.3,1.6,0l10.3,6c0.4,0.3,0.8,0.9,0.8,1.4L242.3,201.2L242.3,201.2z"/>
				</g>
			</g>
			<g>
				<g>
					<path class="st3" d="M230.4,209.2c-0.4,0-0.8-0.1-1.1-0.3l-10.3-6c-0.6-0.4-1-1.1-1-1.8v-11.9c0-0.7,0.5-1.5,1-1.8l10.3-6
						c0.6-0.3,1.5-0.3,2.1,0l10.3,6c0.6,0.4,1,1.2,1,1.8l0,11.9c0,0.7-0.4,1.5-1,1.8l-10.3,6C231.2,209.1,230.8,209.2,230.4,209.2z
						 M230.4,182.2c-0.2,0-0.4,0-0.5,0.1l-10.3,6c-0.3,0.2-0.6,0.6-0.6,1v11.9c0,0.3,0.3,0.8,0.6,1l10.3,5.9c0.3,0.2,0.8,0.2,1.1,0
						l10.3-6c0.3-0.2,0.6-0.6,0.6-1v0l0-11.9c0-0.3-0.3-0.8-0.6-1l-10.3-5.9C230.8,182.3,230.6,182.2,230.4,182.2z"/>
				</g>
			</g>
		</g>
		<g>
			<g class="st2">
				<g>
					<path class="st3" d="M242.3,166c0,0.5-0.4,1.1-0.8,1.4l-10.3,6c-0.4,0.3-1.2,0.3-1.6,0l-10.3-6c-0.4-0.3-0.8-0.9-0.8-1.4V154
						c0-0.5,0.4-1.1,0.8-1.4l10.3-6c0.4-0.3,1.2-0.3,1.6,0l10.3,6c0.4,0.3,0.8,0.9,0.8,1.4L242.3,166L242.3,166z"/>
				</g>
			</g>
			<g>
				<g>
					<path class="st3" d="M230.4,174c-0.4,0-0.8-0.1-1.1-0.3l-10.3-6c-0.6-0.4-1-1.1-1-1.8V154c0-0.7,0.5-1.5,1-1.8l10.3-6
						c0.6-0.3,1.5-0.3,2.1,0l10.3,6c0.6,0.4,1,1.2,1,1.8l0,11.9c0,0.7-0.4,1.5-1,1.8l-10.3,6C231.2,173.9,230.8,174,230.4,174z
						 M230.4,147c-0.2,0-0.4,0-0.5,0.1l-10.3,6c-0.3,0.2-0.6,0.6-0.6,1V166c0,0.3,0.3,0.8,0.6,1l10.3,5.9c0.3,0.2,0.8,0.2,1.1,0
						l10.3-6c0.3-0.2,0.6-0.6,0.6-1v0l0-11.9c0-0.3-0.3-0.8-0.6-1l-10.3-5.9C230.8,147.1,230.6,147,230.4,147z"/>
				</g>
			</g>
		</g>
		<g>
			<g class="st2">
				<g>
					<path class="st3" d="M242.3,95.6c0,0.5-0.4,1.1-0.8,1.4l-10.3,6c-0.4,0.3-1.2,0.3-1.6,0l-10.3-6c-0.4-0.3-0.8-0.9-0.8-1.4V83.6
						c0-0.5,0.4-1.1,0.8-1.4l10.3-6c0.4-0.3,1.2-0.3,1.6,0l10.3,6c0.4,0.3,0.8,0.9,0.8,1.4L242.3,95.6L242.3,95.6z"/>
				</g>
			</g>
			<g>
				<g>
					<path class="st3" d="M230.4,103.6c-0.4,0-0.8-0.1-1.1-0.3l-10.3-6c-0.6-0.4-1-1.1-1-1.8V83.6c0-0.7,0.5-1.5,1-1.8l10.3-6
						c0.6-0.3,1.5-0.3,2.1,0l10.3,6c0.6,0.4,1,1.2,1,1.8l0,11.9c0,0.7-0.4,1.5-1,1.8l-10.3,6C231.2,103.5,230.8,103.6,230.4,103.6z
						 M230.4,76.6c-0.2,0-0.4,0-0.5,0.1l-10.3,6c-0.3,0.2-0.6,0.6-0.6,1v11.9c0,0.3,0.3,0.8,0.6,1l10.3,5.9c0.3,0.2,0.8,0.2,1.1,0
						l10.3-6c0.3-0.2,0.6-0.6,0.6-1v0l0-11.9c0-0.3-0.3-0.8-0.6-1L231,76.7C230.8,76.7,230.6,76.6,230.4,76.6z"/>
				</g>
			</g>
		</g>
		<g>
			<g class="st2">
				<g>
					<path class="st3" d="M101.5,236.4c0,0.5-0.4,1.1-0.8,1.4l-10.3,6c-0.4,0.3-1.2,0.3-1.6,0l-10.3-6c-0.4-0.3-0.8-0.9-0.8-1.4
						v-11.9c0-0.5,0.4-1.1,0.8-1.4l10.3-6c0.4-0.3,1.2-0.3,1.6,0l10.3,6c0.4,0.3,0.8,0.9,0.8,1.4L101.5,236.4L101.5,236.4z"/>
				</g>
			</g>
			<g>
				<g>
					<path class="st3" d="M89.6,244.4c-0.4,0-0.8-0.1-1.1-0.3l-10.3-6c-0.6-0.4-1-1.1-1-1.8v-11.9c0-0.7,0.5-1.5,1-1.8l10.3-6
						c0.6-0.3,1.5-0.3,2.1,0l10.3,6c0.6,0.4,1,1.2,1,1.8l0,11.9c0,0.7-0.4,1.5-1,1.8l-10.3,6C90.4,244.3,90,244.4,89.6,244.4z
						 M89.6,217.4c-0.2,0-0.4,0-0.5,0.1l-10.3,6c-0.3,0.2-0.6,0.6-0.6,1v11.9c0,0.3,0.3,0.8,0.6,1l10.3,5.9c0.3,0.2,0.8,0.2,1.1,0
						l10.3-6c0.3-0.2,0.6-0.6,0.6-1v0l0-11.9c0-0.3-0.3-0.8-0.6-1l-10.3-5.9C90,217.5,89.8,217.4,89.6,217.4z"/>
				</g>
			</g>
		</g>
		<g>
			<g class="st2">
				<g>
					<path class="st3" d="M101.5,201.2c0,0.5-0.4,1.1-0.8,1.4l-10.3,6c-0.4,0.3-1.2,0.3-1.6,0l-10.3-6c-0.4-0.3-0.8-0.9-0.8-1.4
						v-11.9c0-0.5,0.4-1.1,0.8-1.4l10.3-6c0.4-0.3,1.2-0.3,1.6,0l10.3,6c0.4,0.3,0.8,0.9,0.8,1.4L101.5,201.2L101.5,201.2z"/>
				</g>
			</g>
			<g>
				<g>
					<path class="st3" d="M89.6,209.2c-0.4,0-0.8-0.1-1.1-0.3l-10.3-6c-0.6-0.4-1-1.1-1-1.8v-11.9c0-0.7,0.5-1.5,1-1.8l10.3-6
						c0.6-0.3,1.5-0.3,2.1,0l10.3,6c0.6,0.4,1,1.2,1,1.8l0,11.9c0,0.7-0.4,1.5-1,1.8l-10.3,6C90.4,209.1,90,209.2,89.6,209.2z
						 M89.6,182.2c-0.2,0-0.4,0-0.5,0.1l-10.3,6c-0.3,0.2-0.6,0.6-0.6,1v11.9c0,0.3,0.3,0.8,0.6,1l10.3,5.9c0.3,0.2,0.8,0.2,1.1,0
						l10.3-6c0.3-0.2,0.6-0.6,0.6-1v0l0-11.9c0-0.3-0.3-0.8-0.6-1l-10.3-5.9C90,182.3,89.8,182.2,89.6,182.2z"/>
				</g>
			</g>
		</g>
		<g>
			<g class="st2">
				<g>
					<path class="st3" d="M101.5,166c0,0.5-0.4,1.1-0.8,1.4l-10.3,6c-0.4,0.3-1.2,0.3-1.6,0l-10.3-6c-0.4-0.3-0.8-0.9-0.8-1.4V154
						c0-0.5,0.4-1.1,0.8-1.4l10.3-6c0.4-0.3,1.2-0.3,1.6,0l10.3,6c0.4,0.3,0.8,0.9,0.8,1.4L101.5,166L101.5,166z"/>
				</g>
			</g>
			<g>
				<g>
					<path class="st3" d="M89.6,174c-0.4,0-0.8-0.1-1.1-0.3l-10.3-6c-0.6-0.4-1-1.1-1-1.8V154c0-0.7,0.5-1.5,1-1.8l10.3-6
						c0.6-0.3,1.5-0.3,2.1,0l10.3,6c0.6,0.4,1,1.2,1,1.8l0,11.9c0,0.7-0.4,1.5-1,1.8l-10.3,6C90.4,173.9,90,174,89.6,174z M89.6,147
						c-0.2,0-0.4,0-0.5,0.1l-10.3,6c-0.3,0.2-0.6,0.6-0.6,1V166c0,0.3,0.3,0.8,0.6,1l10.3,5.9c0.3,0.2,0.8,0.2,1.1,0l10.3-6
						c0.3-0.2,0.6-0.6,0.6-1v0l0-11.9c0-0.3-0.3-0.8-0.6-1l-10.3-5.9C90,147.1,89.8,147,89.6,147z"/>
				</g>
			</g>
		</g>
		<g>
			<g class="st2">
				<g>
					<path class="st3" d="M101.5,130.8c0,0.5-0.4,1.1-0.8,1.4l-10.3,6c-0.4,0.3-1.2,0.3-1.6,0l-10.3-6c-0.4-0.3-0.8-0.9-0.8-1.4
						v-11.9c0-0.5,0.4-1.1,0.8-1.4l10.3-6c0.4-0.3,1.2-0.3,1.6,0l10.3,6c0.4,0.3,0.8,0.9,0.8,1.4L101.5,130.8L101.5,130.8z"/>
				</g>
			</g>
			<g>
				<g>
					<path class="st3" d="M89.6,138.8c-0.4,0-0.8-0.1-1.1-0.3l-10.3-6c-0.6-0.4-1-1.1-1-1.8v-11.9c0-0.7,0.5-1.5,1-1.8l10.3-6
						c0.6-0.3,1.5-0.3,2.1,0l10.3,6c0.6,0.4,1,1.2,1,1.8l0,11.9c0,0.7-0.4,1.5-1,1.8l-10.3,6C90.4,138.7,90,138.8,89.6,138.8z
						 M89.6,111.8c-0.2,0-0.4,0-0.5,0.1l-10.3,6c-0.3,0.2-0.6,0.6-0.6,1v11.9c0,0.3,0.3,0.8,0.6,1l10.3,5.9c0.3,0.2,0.8,0.2,1.1,0
						l10.3-6c0.3-0.2,0.6-0.6,0.6-1v0l0-11.9c0-0.3-0.3-0.8-0.6-1l-10.3-5.9C90,111.9,89.8,111.8,89.6,111.8z"/>
				</g>
			</g>
		</g>
	</g>
	<g class="st4">
		<g class="st2">
			<g>
				<path class="st3" d="M31.1,271.6c0,0.5-0.4,1.1-0.8,1.4l-10.3,6c-0.4,0.3-1.2,0.3-1.6,0l-10.3-6c-0.4-0.3-0.8-0.9-0.8-1.4v-11.9
					c0-0.5,0.4-1.1,0.8-1.4l10.3-6c0.4-0.3,1.2-0.3,1.6,0l10.3,6c0.4,0.3,0.8,0.9,0.8,1.4L31.1,271.6L31.1,271.6z"/>
			</g>
		</g>
		<g>
			<g>
				<path class="st3" d="M19.2,279.6c-0.4,0-0.8-0.1-1.1-0.3l-10.3-6c-0.6-0.4-1-1.1-1-1.8v-11.9c0-0.7,0.5-1.5,1-1.8l10.3-6
					c0.6-0.3,1.5-0.3,2.1,0l10.3,6c0.6,0.4,1,1.2,1,1.8l0,11.9c0,0.7-0.4,1.5-1,1.8l-10.3,6C20,279.5,19.6,279.6,19.2,279.6z
					 M19.2,252.6c-0.2,0-0.4,0-0.5,0.1l-10.3,6c-0.3,0.2-0.6,0.6-0.6,1v11.9c0,0.3,0.3,0.8,0.6,1l10.3,5.9c0.3,0.2,0.8,0.2,1.1,0
					l10.3-6c0.3-0.2,0.6-0.6,0.6-1v0l0-11.9c0-0.3-0.3-0.8-0.6-1l-10.3-5.9C19.6,252.7,19.4,252.6,19.2,252.6z"/>
			</g>
		</g>
	</g>
	<g class="st2">
		<g>
			<g class="st2">
				<g>
					<path class="st3" d="M277.5,254c0,0.5-0.4,1.1-0.8,1.4l-10.3,6c-0.4,0.3-1.2,0.3-1.6,0l-10.3-6c-0.4-0.3-0.8-0.9-0.8-1.4V242
						c0-0.5,0.4-1.1,0.8-1.4l10.3-6c0.4-0.3,1.2-0.3,1.6,0l10.3,6c0.4,0.3,0.8,0.9,0.8,1.4L277.5,254L277.5,254z"/>
				</g>
			</g>
			<g>
				<g>
					<path class="st3" d="M265.6,262c-0.4,0-0.8-0.1-1.1-0.3l-10.3-6c-0.6-0.4-1-1.1-1-1.8V242c0-0.7,0.5-1.5,1-1.8l10.3-6
						c0.6-0.3,1.5-0.3,2.1,0l10.3,6c0.6,0.4,1,1.2,1,1.8l0,11.9c0,0.7-0.4,1.5-1,1.8l-10.3,6C266.4,261.9,266,262,265.6,262z
						 M265.6,235c-0.2,0-0.4,0-0.5,0.1l-10.3,6c-0.3,0.2-0.6,0.6-0.6,1V254c0,0.3,0.3,0.8,0.6,1l10.3,5.9c0.3,0.2,0.8,0.2,1.1,0
						l10.3-6c0.3-0.2,0.6-0.6,0.6-1v0l0-11.9c0-0.3-0.3-0.8-0.6-1l-10.3-5.9C266,235.1,265.8,235,265.6,235z"/>
				</g>
			</g>
		</g>
		<g>
			<g class="st2">
				<g>
					<path class="st3" d="M277.5,183.6c0,0.5-0.4,1.1-0.8,1.4l-10.3,6c-0.4,0.3-1.2,0.3-1.6,0l-10.3-6c-0.4-0.3-0.8-0.9-0.8-1.4
						v-11.9c0-0.5,0.4-1.1,0.8-1.4l10.3-6c0.4-0.3,1.2-0.3,1.6,0l10.3,6c0.4,0.3,0.8,0.9,0.8,1.4L277.5,183.6L277.5,183.6z"/>
				</g>
			</g>
			<g>
				<g>
					<path class="st3" d="M265.6,191.6c-0.4,0-0.8-0.1-1.1-0.3l-10.3-6c-0.6-0.4-1-1.1-1-1.8v-11.9c0-0.7,0.5-1.5,1-1.8l10.3-6
						c0.6-0.3,1.5-0.3,2.1,0l10.3,6c0.6,0.4,1,1.2,1,1.8l0,11.9c0,0.7-0.4,1.5-1,1.8l-10.3,6C266.4,191.5,266,191.6,265.6,191.6z
						 M265.6,164.6c-0.2,0-0.4,0-0.5,0.1l-10.3,6c-0.3,0.2-0.6,0.6-0.6,1v11.9c0,0.3,0.3,0.8,0.6,1l10.3,5.9c0.3,0.2,0.8,0.2,1.1,0
						l10.3-6c0.3-0.2,0.6-0.6,0.6-1v0l0-11.9c0-0.3-0.3-0.8-0.6-1l-10.3-5.9C266,164.7,265.8,164.6,265.6,164.6z"/>
				</g>
			</g>
		</g>
		<g>
			<g class="st2">
				<g>
					<path class="st3" d="M277.5,113.2c0,0.5-0.4,1.1-0.8,1.4l-10.3,6c-0.4,0.3-1.2,0.3-1.6,0l-10.3-6c-0.4-0.3-0.8-0.9-0.8-1.4
						v-11.9c0-0.5,0.4-1.1,0.8-1.4l10.3-6c0.4-0.3,1.2-0.3,1.6,0l10.3,6c0.4,0.3,0.8,0.9,0.8,1.4L277.5,113.2L277.5,113.2z"/>
				</g>
			</g>
			<g>
				<g>
					<path class="st3" d="M265.6,121.2c-0.4,0-0.8-0.1-1.1-0.3l-10.3-6c-0.6-0.4-1-1.1-1-1.8v-11.9c0-0.7,0.5-1.5,1-1.8l10.3-6
						c0.6-0.3,1.5-0.3,2.1,0l10.3,6c0.6,0.4,1,1.2,1,1.8l0,11.9c0,0.7-0.4,1.5-1,1.8l-10.3,6C266.4,121.1,266,121.2,265.6,121.2z
						 M265.6,94.2c-0.2,0-0.4,0-0.5,0.1l-10.3,6c-0.3,0.2-0.6,0.6-0.6,1v11.9c0,0.3,0.3,0.8,0.6,1l10.3,5.9c0.3,0.2,0.8,0.2,1.1,0
						l10.3-6c0.3-0.2,0.6-0.6,0.6-1v0l0-11.9c0-0.3-0.3-0.8-0.6-1l-10.3-5.9C266,94.3,265.8,94.2,265.6,94.2z"/>
				</g>
			</g>
		</g>
		<g>
			<g class="st2">
				<g>
					<path class="st3" d="M277.5,78c0,0.5-0.4,1.1-0.8,1.4l-10.3,6c-0.4,0.3-1.2,0.3-1.6,0l-10.3-6c-0.4-0.3-0.8-0.9-0.8-1.4V66
						c0-0.5,0.4-1.1,0.8-1.4l10.3-6c0.4-0.3,1.2-0.3,1.6,0l10.3,6c0.4,0.3,0.8,0.9,0.8,1.4L277.5,78L277.5,78z"/>
				</g>
			</g>
			<g>
				<g>
					<path class="st3" d="M265.6,86c-0.4,0-0.8-0.1-1.1-0.3l-10.3-6c-0.6-0.4-1-1.1-1-1.8V66c0-0.7,0.5-1.5,1-1.8l10.3-6
						c0.6-0.3,1.5-0.3,2.1,0l10.3,6c0.6,0.4,1,1.2,1,1.8l0,11.9c0,0.7-0.4,1.5-1,1.8l-10.3,6C266.4,85.9,266,86,265.6,86z M265.6,59
						c-0.2,0-0.4,0-0.5,0.1l-10.3,6c-0.3,0.2-0.6,0.6-0.6,1V78c0,0.3,0.3,0.8,0.6,1l10.3,5.9c0.3,0.2,0.8,0.2,1.1,0l10.3-6
						c0.3-0.2,0.6-0.6,0.6-1v0l0-11.9c0-0.3-0.3-0.8-0.6-1l-10.3-5.9C266,59.1,265.8,59,265.6,59z"/>
				</g>
			</g>
		</g>
		<g>
			<g class="st2">
				<g>
					<path class="st3" d="M66.3,254c0,0.5-0.4,1.1-0.8,1.4l-10.3,6c-0.4,0.3-1.2,0.3-1.6,0l-10.3-6c-0.4-0.3-0.8-0.9-0.8-1.4V242
						c0-0.5,0.4-1.1,0.8-1.4l10.3-6c0.4-0.3,1.2-0.3,1.6,0l10.3,6c0.4,0.3,0.8,0.9,0.8,1.4L66.3,254L66.3,254z"/>
				</g>
			</g>
			<g>
				<g>
					<path class="st3" d="M54.4,262c-0.4,0-0.8-0.1-1.1-0.3l-10.3-6c-0.6-0.4-1-1.1-1-1.8V242c0-0.7,0.5-1.5,1-1.8l10.3-6
						c0.6-0.3,1.5-0.3,2.1,0l10.3,6c0.6,0.4,1,1.2,1,1.8l0,11.9c0,0.7-0.4,1.5-1,1.8l-10.3,6C55.2,261.9,54.8,262,54.4,262z
						 M54.4,235c-0.2,0-0.4,0-0.5,0.1l-10.3,6c-0.3,0.2-0.6,0.6-0.6,1V254c0,0.3,0.3,0.8,0.6,1l10.3,5.9c0.3,0.2,0.8,0.2,1.1,0
						l10.3-6c0.3-0.2,0.6-0.6,0.6-1v0l0-11.9c0-0.3-0.3-0.8-0.6-1L55,235.1C54.8,235.1,54.6,235,54.4,235z"/>
				</g>
			</g>
		</g>
		<g>
			<g class="st2">
				<g>
					<path class="st3" d="M66.3,183.6c0,0.5-0.4,1.1-0.8,1.4l-10.3,6c-0.4,0.3-1.2,0.3-1.6,0l-10.3-6c-0.4-0.3-0.8-0.9-0.8-1.4
						v-11.9c0-0.5,0.4-1.1,0.8-1.4l10.3-6c0.4-0.3,1.2-0.3,1.6,0l10.3,6c0.4,0.3,0.8,0.9,0.8,1.4L66.3,183.6L66.3,183.6z"/>
				</g>
			</g>
			<g>
				<g>
					<path class="st3" d="M54.4,191.6c-0.4,0-0.8-0.1-1.1-0.3l-10.3-6c-0.6-0.4-1-1.1-1-1.8v-11.9c0-0.7,0.5-1.5,1-1.8l10.3-6
						c0.6-0.3,1.5-0.3,2.1,0l10.3,6c0.6,0.4,1,1.2,1,1.8l0,11.9c0,0.7-0.4,1.5-1,1.8l-10.3,6C55.2,191.5,54.8,191.6,54.4,191.6z
						 M54.4,164.6c-0.2,0-0.4,0-0.5,0.1l-10.3,6c-0.3,0.2-0.6,0.6-0.6,1v11.9c0,0.3,0.3,0.8,0.6,1l10.3,5.9c0.3,0.2,0.8,0.2,1.1,0
						l10.3-6c0.3-0.2,0.6-0.6,0.6-1v0l0-11.9c0-0.3-0.3-0.8-0.6-1L55,164.7C54.8,164.7,54.6,164.6,54.4,164.6z"/>
				</g>
			</g>
		</g>
		<g>
			<g class="st2">
				<g>
					<path class="st3" d="M66.3,113.2c0,0.5-0.4,1.1-0.8,1.4l-10.3,6c-0.4,0.3-1.2,0.3-1.6,0l-10.3-6c-0.4-0.3-0.8-0.9-0.8-1.4
						v-11.9c0-0.5,0.4-1.1,0.8-1.4l10.3-6c0.4-0.3,1.2-0.3,1.6,0l10.3,6c0.4,0.3,0.8,0.9,0.8,1.4L66.3,113.2L66.3,113.2z"/>
				</g>
			</g>
			<g>
				<g>
					<path class="st3" d="M54.4,121.2c-0.4,0-0.8-0.1-1.1-0.3l-10.3-6c-0.6-0.4-1-1.1-1-1.8v-11.9c0-0.7,0.5-1.5,1-1.8l10.3-6
						c0.6-0.3,1.5-0.3,2.1,0l10.3,6c0.6,0.4,1,1.2,1,1.8l0,11.9c0,0.7-0.4,1.5-1,1.8l-10.3,6C55.2,121.1,54.8,121.2,54.4,121.2z
						 M54.4,94.2c-0.2,0-0.4,0-0.5,0.1l-10.3,6c-0.3,0.2-0.6,0.6-0.6,1v11.9c0,0.3,0.3,0.8,0.6,1l10.3,5.9c0.3,0.2,0.8,0.2,1.1,0
						l10.3-6c0.3-0.2,0.6-0.6,0.6-1v0l0-11.9c0-0.3-0.3-0.8-0.6-1L55,94.3C54.8,94.3,54.6,94.2,54.4,94.2z"/>
				</g>
			</g>
		</g>
		<g>
			<g class="st2">
				<g>
					<path class="st3" d="M66.3,78c0,0.5-0.4,1.1-0.8,1.4l-10.3,6c-0.4,0.3-1.2,0.3-1.6,0l-10.3-6c-0.4-0.3-0.8-0.9-0.8-1.4V66
						c0-0.5,0.4-1.1,0.8-1.4l10.3-6c0.4-0.3,1.2-0.3,1.6,0l10.3,6c0.4,0.3,0.8,0.9,0.8,1.4L66.3,78L66.3,78z"/>
				</g>
			</g>
			<g>
				<g>
					<path class="st3" d="M54.4,86c-0.4,0-0.8-0.1-1.1-0.3l-10.3-6c-0.6-0.4-1-1.1-1-1.8V66c0-0.7,0.5-1.5,1-1.8l10.3-6
						c0.6-0.3,1.5-0.3,2.1,0l10.3,6c0.6,0.4,1,1.2,1,1.8l0,11.9c0,0.7-0.4,1.5-1,1.8l-10.3,6C55.2,85.9,54.8,86,54.4,86z M54.4,59
						c-0.2,0-0.4,0-0.5,0.1l-10.3,6c-0.3,0.2-0.6,0.6-0.6,1V78c0,0.3,0.3,0.8,0.6,1l10.3,5.9c0.3,0.2,0.8,0.2,1.1,0l10.3-6
						c0.3-0.2,0.6-0.6,0.6-1v0l0-11.9c0-0.3-0.3-0.8-0.6-1L55,59.1C54.8,59.1,54.6,59,54.4,59z"/>
				</g>
			</g>
		</g>
		<g>
			<g class="st2">
				<g>
					<path class="st3" d="M242.3,271.6c0,0.5-0.4,1.1-0.8,1.4l-10.3,6c-0.4,0.3-1.2,0.3-1.6,0l-10.3-6c-0.4-0.3-0.8-0.9-0.8-1.4
						v-11.9c0-0.5,0.4-1.1,0.8-1.4l10.3-6c0.4-0.3,1.2-0.3,1.6,0l10.3,6c0.4,0.3,0.8,0.9,0.8,1.4L242.3,271.6L242.3,271.6z"/>
				</g>
			</g>
			<g>
				<g>
					<path class="st3" d="M230.4,279.6c-0.4,0-0.8-0.1-1.1-0.3l-10.3-6c-0.6-0.4-1-1.1-1-1.8v-11.9c0-0.7,0.5-1.5,1-1.8l10.3-6
						c0.6-0.3,1.5-0.3,2.1,0l10.3,6c0.6,0.4,1,1.2,1,1.8l0,11.9c0,0.7-0.4,1.5-1,1.8l-10.3,6C231.2,279.5,230.8,279.6,230.4,279.6z
						 M230.4,252.6c-0.2,0-0.4,0-0.5,0.1l-10.3,6c-0.3,0.2-0.6,0.6-0.6,1v11.9c0,0.3,0.3,0.8,0.6,1l10.3,5.9c0.3,0.2,0.8,0.2,1.1,0
						l10.3-6c0.3-0.2,0.6-0.6,0.6-1v0l0-11.9c0-0.3-0.3-0.8-0.6-1l-10.3-5.9C230.8,252.7,230.6,252.6,230.4,252.6z"/>
				</g>
			</g>
		</g>
		<g>
			<g class="st2">
				<g>
					<path class="st3" d="M242.3,60.4c0,0.5-0.4,1.1-0.8,1.4l-10.3,6c-0.4,0.3-1.2,0.3-1.6,0l-10.3-6c-0.4-0.3-0.8-0.9-0.8-1.4V48.4
						c0-0.5,0.4-1.1,0.8-1.4l10.3-6c0.4-0.3,1.2-0.3,1.6,0l10.3,6c0.4,0.3,0.8,0.9,0.8,1.4L242.3,60.4L242.3,60.4z"/>
				</g>
			</g>
			<g>
				<g>
					<path class="st3" d="M230.4,68.4c-0.4,0-0.8-0.1-1.1-0.3l-10.3-6c-0.6-0.4-1-1.1-1-1.8V48.4c0-0.7,0.5-1.5,1-1.8l10.3-6
						c0.6-0.3,1.5-0.3,2.1,0l10.3,6c0.6,0.4,1,1.2,1,1.8l0,11.9c0,0.7-0.4,1.5-1,1.8l-10.3,6C231.2,68.3,230.8,68.4,230.4,68.4z
						 M230.4,41.4c-0.2,0-0.4,0-0.5,0.1l-10.3,6c-0.3,0.2-0.6,0.6-0.6,1v11.9c0,0.3,0.3,0.8,0.6,1l10.3,5.9c0.3,0.2,0.8,0.2,1.1,0
						l10.3-6c0.3-0.2,0.6-0.6,0.6-1v0l0-11.9c0-0.3-0.3-0.8-0.6-1L231,41.5C230.8,41.5,230.6,41.4,230.4,41.4z"/>
				</g>
			</g>
		</g>
		<g>
			<g class="st2">
				<g>
					<path class="st3" d="M171.9,271.6c0,0.5-0.4,1.1-0.8,1.4l-10.3,6c-0.4,0.3-1.2,0.3-1.6,0l-10.3-6c-0.4-0.3-0.8-0.9-0.8-1.4
						v-11.9c0-0.5,0.4-1.1,0.8-1.4l10.3-6c0.4-0.3,1.2-0.3,1.6,0l10.3,6c0.4,0.3,0.8,0.9,0.8,1.4L171.9,271.6L171.9,271.6z"/>
				</g>
			</g>
			<g>
				<g>
					<path class="st3" d="M160,279.6c-0.4,0-0.8-0.1-1.1-0.3l-10.3-6c-0.6-0.4-1-1.1-1-1.8v-11.9c0-0.7,0.5-1.5,1-1.8l10.3-6
						c0.6-0.3,1.5-0.3,2.1,0l10.3,6c0.6,0.4,1,1.2,1,1.8l0,11.9c0,0.7-0.4,1.5-1,1.8l-10.3,6C160.8,279.5,160.4,279.6,160,279.6z
						 M160,252.6c-0.2,0-0.4,0-0.5,0.1l-10.3,6c-0.3,0.2-0.6,0.6-0.6,1v11.9c0,0.3,0.3,0.8,0.6,1l10.3,5.9c0.3,0.2,0.8,0.2,1.1,0
						l10.3-6c0.3-0.2,0.6-0.6,0.6-1v0l0-11.9c0-0.3-0.3-0.8-0.6-1l-10.3-5.9C160.4,252.7,160.2,252.6,160,252.6z"/>
				</g>
			</g>
		</g>
		<g>
			<g class="st2">
				<g>
					<path class="st3" d="M171.9,60.4c0,0.5-0.4,1.1-0.8,1.4l-10.3,6c-0.4,0.3-1.2,0.3-1.6,0l-10.3-6c-0.4-0.3-0.8-0.9-0.8-1.4V48.4
						c0-0.5,0.4-1.1,0.8-1.4l10.3-6c0.4-0.3,1.2-0.3,1.6,0l10.3,6c0.4,0.3,0.8,0.9,0.8,1.4L171.9,60.4L171.9,60.4z"/>
				</g>
			</g>
			<g>
				<g>
					<path class="st3" d="M160,68.4c-0.4,0-0.8-0.1-1.1-0.3l-10.3-6c-0.6-0.4-1-1.1-1-1.8V48.4c0-0.7,0.5-1.5,1-1.8l10.3-6
						c0.6-0.3,1.5-0.3,2.1,0l10.3,6c0.6,0.4,1,1.2,1,1.8l0,11.9c0,0.7-0.4,1.5-1,1.8l-10.3,6C160.8,68.3,160.4,68.4,160,68.4z
						 M160,41.4c-0.2,0-0.4,0-0.5,0.1l-10.3,6c-0.3,0.2-0.6,0.6-0.6,1v11.9c0,0.3,0.3,0.8,0.6,1l10.3,5.9c0.3,0.2,0.8,0.2,1.1,0
						l10.3-6c0.3-0.2,0.6-0.6,0.6-1v0l0-11.9c0-0.3-0.3-0.8-0.6-1l-10.3-5.9C160.4,41.5,160.2,41.4,160,41.4z"/>
				</g>
			</g>
		</g>
		<g>
			<g class="st2">
				<g>
					<path class="st3" d="M101.5,271.6c0,0.5-0.4,1.1-0.8,1.4l-10.3,6c-0.4,0.3-1.2,0.3-1.6,0l-10.3-6c-0.4-0.3-0.8-0.9-0.8-1.4
						v-11.9c0-0.5,0.4-1.1,0.8-1.4l10.3-6c0.4-0.3,1.2-0.3,1.6,0l10.3,6c0.4,0.3,0.8,0.9,0.8,1.4L101.5,271.6L101.5,271.6z"/>
				</g>
			</g>
			<g>
				<g>
					<path class="st3" d="M89.6,279.6c-0.4,0-0.8-0.1-1.1-0.3l-10.3-6c-0.6-0.4-1-1.1-1-1.8v-11.9c0-0.7,0.5-1.5,1-1.8l10.3-6
						c0.6-0.3,1.5-0.3,2.1,0l10.3,6c0.6,0.4,1,1.2,1,1.8l0,11.9c0,0.7-0.4,1.5-1,1.8l-10.3,6C90.4,279.5,90,279.6,89.6,279.6z
						 M89.6,252.6c-0.2,0-0.4,0-0.5,0.1l-10.3,6c-0.3,0.2-0.6,0.6-0.6,1v11.9c0,0.3,0.3,0.8,0.6,1l10.3,5.9c0.3,0.2,0.8,0.2,1.1,0
						l10.3-6c0.3-0.2,0.6-0.6,0.6-1v0l0-11.9c0-0.3-0.3-0.8-0.6-1l-10.3-5.9C90,252.7,89.8,252.6,89.6,252.6z"/>
				</g>
			</g>
		</g>
		<g>
			<g class="st2">
				<g>
					<path class="st3" d="M101.5,60.4c0,0.5-0.4,1.1-0.8,1.4l-10.3,6c-0.4,0.3-1.2,0.3-1.6,0l-10.3-6c-0.4-0.3-0.8-0.9-0.8-1.4V48.4
						c0-0.5,0.4-1.1,0.8-1.4l10.3-6c0.4-0.3,1.2-0.3,1.6,0l10.3,6c0.4,0.3,0.8,0.9,0.8,1.4L101.5,60.4L101.5,60.4z"/>
				</g>
			</g>
			<g>
				<g>
					<path class="st3" d="M89.6,68.4c-0.4,0-0.8-0.1-1.1-0.3l-10.3-6c-0.6-0.4-1-1.1-1-1.8V48.4c0-0.7,0.5-1.5,1-1.8l10.3-6
						c0.6-0.3,1.5-0.3,2.1,0l10.3,6c0.6,0.4,1,1.2,1,1.8l0,11.9c0,0.7-0.4,1.5-1,1.8l-10.3,6C90.4,68.3,90,68.4,89.6,68.4z
						 M89.6,41.4c-0.2,0-0.4,0-0.5,0.1l-10.3,6c-0.3,0.2-0.6,0.6-0.6,1v11.9c0,0.3,0.3,0.8,0.6,1L89,67.3c0.3,0.2,0.8,0.2,1.1,0
						l10.3-6c0.3-0.2,0.6-0.6,0.6-1v0l0-11.9c0-0.3-0.3-0.8-0.6-1l-10.3-5.9C90,41.5,89.8,41.4,89.6,41.4z"/>
				</g>
			</g>
		</g>
	</g>
	<g class="st6">
		<g>
			<g class="st2">
				<g>
					<path class="st3" d="M277.5,289.2c0,0.5-0.4,1.1-0.8,1.4l-10.3,6c-0.4,0.3-1.2,0.3-1.6,0l-10.3-6c-0.4-0.3-0.8-0.9-0.8-1.4
						v-11.9c0-0.5,0.4-1.1,0.8-1.4l10.3-6c0.4-0.3,1.2-0.3,1.6,0l10.3,6c0.4,0.3,0.8,0.9,0.8,1.4L277.5,289.2L277.5,289.2z"/>
				</g>
			</g>
			<g>
				<g>
					<path class="st3" d="M265.6,297.2c-0.4,0-0.8-0.1-1.1-0.3l-10.3-6c-0.6-0.4-1-1.1-1-1.8v-11.9c0-0.7,0.5-1.5,1-1.8l10.3-6
						c0.6-0.3,1.5-0.3,2.1,0l10.3,6c0.6,0.4,1,1.2,1,1.8l0,11.9c0,0.7-0.4,1.5-1,1.8l-10.3,6C266.4,297.1,266,297.2,265.6,297.2z
						 M265.6,270.2c-0.2,0-0.4,0-0.5,0.1l-10.3,6c-0.3,0.2-0.6,0.6-0.6,1v11.9c0,0.3,0.3,0.8,0.6,1l10.3,5.9c0.3,0.2,0.8,0.2,1.1,0
						l10.3-6c0.3-0.2,0.6-0.6,0.6-1v0l0-11.9c0-0.3-0.3-0.8-0.6-1l-10.3-5.9C266,270.3,265.8,270.2,265.6,270.2z"/>
				</g>
			</g>
		</g>
		<g>
			<g class="st2">
				<g>
					<path class="st3" d="M277.5,42.8c0,0.5-0.4,1.1-0.8,1.4l-10.3,6c-0.4,0.3-1.2,0.3-1.6,0l-10.3-6c-0.4-0.3-0.8-0.9-0.8-1.4V30.8
						c0-0.5,0.4-1.1,0.8-1.4l10.3-6c0.4-0.3,1.2-0.3,1.6,0l10.3,6c0.4,0.3,0.8,0.9,0.8,1.4L277.5,42.8L277.5,42.8z"/>
				</g>
			</g>
			<g>
				<g>
					<path class="st3" d="M265.6,50.8c-0.4,0-0.8-0.1-1.1-0.3l-10.3-6c-0.6-0.4-1-1.1-1-1.8V30.8c0-0.7,0.5-1.5,1-1.8l10.3-6
						c0.6-0.3,1.5-0.3,2.1,0l10.3,6c0.6,0.4,1,1.2,1,1.8l0,11.9c0,0.7-0.4,1.5-1,1.8l-10.3,6C266.4,50.7,266,50.8,265.6,50.8z
						 M265.6,23.8c-0.2,0-0.4,0-0.5,0.1l-10.3,6c-0.3,0.2-0.6,0.6-0.6,1v11.9c0,0.3,0.3,0.8,0.6,1l10.3,5.9c0.3,0.2,0.8,0.2,1.1,0
						l10.3-6c0.3-0.2,0.6-0.6,0.6-1v0l0-11.9c0-0.3-0.3-0.8-0.6-1l-10.3-5.9C266,23.9,265.8,23.8,265.6,23.8z"/>
				</g>
			</g>
		</g>
		<g>
			<g class="st2">
				<g>
					<path class="st3" d="M207.1,289.2c0,0.5-0.4,1.1-0.8,1.4l-10.3,6c-0.4,0.3-1.2,0.3-1.6,0l-10.3-6c-0.4-0.3-0.8-0.9-0.8-1.4
						v-11.9c0-0.5,0.4-1.1,0.8-1.4l10.3-6c0.4-0.3,1.2-0.3,1.6,0l10.3,6c0.4,0.3,0.8,0.9,0.8,1.4L207.1,289.2L207.1,289.2z"/>
				</g>
			</g>
			<g>
				<g>
					<path class="st3" d="M195.2,297.2c-0.4,0-0.8-0.1-1.1-0.3l-10.3-6c-0.6-0.4-1-1.1-1-1.8v-11.9c0-0.7,0.5-1.5,1-1.8l10.3-6
						c0.6-0.3,1.5-0.3,2.1,0l10.3,6c0.6,0.4,1,1.2,1,1.8l0,11.9c0,0.7-0.4,1.5-1,1.8l-10.3,6C196,297.1,195.6,297.2,195.2,297.2z
						 M195.2,270.2c-0.2,0-0.4,0-0.5,0.1l-10.3,6c-0.3,0.2-0.6,0.6-0.6,1v11.9c0,0.3,0.3,0.8,0.6,1l10.3,5.9c0.3,0.2,0.8,0.2,1.1,0
						l10.3-6c0.3-0.2,0.6-0.6,0.6-1v0l0-11.9c0-0.3-0.3-0.8-0.6-1l-10.3-5.9C195.6,270.3,195.4,270.2,195.2,270.2z"/>
				</g>
			</g>
		</g>
		<g>
			<g class="st2">
				<g>
					<path class="st3" d="M207.1,42.8c0,0.5-0.4,1.1-0.8,1.4l-10.3,6c-0.4,0.3-1.2,0.3-1.6,0l-10.3-6c-0.4-0.3-0.8-0.9-0.8-1.4V30.8
						c0-0.5,0.4-1.1,0.8-1.4l10.3-6c0.4-0.3,1.2-0.3,1.6,0l10.3,6c0.4,0.3,0.8,0.9,0.8,1.4L207.1,42.8L207.1,42.8z"/>
				</g>
			</g>
			<g>
				<g>
					<path class="st3" d="M195.2,50.8c-0.4,0-0.8-0.1-1.1-0.3l-10.3-6c-0.6-0.4-1-1.1-1-1.8V30.8c0-0.7,0.5-1.5,1-1.8l10.3-6
						c0.6-0.3,1.5-0.3,2.1,0l10.3,6c0.6,0.4,1,1.2,1,1.8l0,11.9c0,0.7-0.4,1.5-1,1.8l-10.3,6C196,50.7,195.6,50.8,195.2,50.8z
						 M195.2,23.8c-0.2,0-0.4,0-0.5,0.1l-10.3,6c-0.3,0.2-0.6,0.6-0.6,1v11.9c0,0.3,0.3,0.8,0.6,1l10.3,5.9c0.3,0.2,0.8,0.2,1.1,0
						l10.3-6c0.3-0.2,0.6-0.6,0.6-1v0l0-11.9c0-0.3-0.3-0.8-0.6-1l-10.3-5.9C195.6,23.9,195.4,23.8,195.2,23.8z"/>
				</g>
			</g>
		</g>
		<g>
			<g class="st2">
				<g>
					<path class="st3" d="M136.7,289.2c0,0.5-0.4,1.1-0.8,1.4l-10.3,6c-0.4,0.3-1.2,0.3-1.6,0l-10.3-6c-0.4-0.3-0.8-0.9-0.8-1.4
						v-11.9c0-0.5,0.4-1.1,0.8-1.4l10.3-6c0.4-0.3,1.2-0.3,1.6,0l10.3,6c0.4,0.3,0.8,0.9,0.8,1.4L136.7,289.2L136.7,289.2z"/>
				</g>
			</g>
			<g>
				<g>
					<path class="st3" d="M124.8,297.2c-0.4,0-0.8-0.1-1.1-0.3l-10.3-6c-0.6-0.4-1-1.1-1-1.8v-11.9c0-0.7,0.5-1.5,1-1.8l10.3-6
						c0.6-0.3,1.5-0.3,2.1,0l10.3,6c0.6,0.4,1,1.2,1,1.8l0,11.9c0,0.7-0.4,1.5-1,1.8l-10.3,6C125.6,297.1,125.2,297.2,124.8,297.2z
						 M124.8,270.2c-0.2,0-0.4,0-0.5,0.1l-10.3,6c-0.3,0.2-0.6,0.6-0.6,1v11.9c0,0.3,0.3,0.8,0.6,1l10.3,5.9c0.3,0.2,0.8,0.2,1.1,0
						l10.3-6c0.3-0.2,0.6-0.6,0.6-1v0l0-11.9c0-0.3-0.3-0.8-0.6-1l-10.3-5.9C125.2,270.3,125,270.2,124.8,270.2z"/>
				</g>
			</g>
		</g>
		<g>
			<g class="st2">
				<g>
					<path class="st3" d="M136.7,42.8c0,0.5-0.4,1.1-0.8,1.4l-10.3,6c-0.4,0.3-1.2,0.3-1.6,0l-10.3-6c-0.4-0.3-0.8-0.9-0.8-1.4V30.8
						c0-0.5,0.4-1.1,0.8-1.4l10.3-6c0.4-0.3,1.2-0.3,1.6,0l10.3,6c0.4,0.3,0.8,0.9,0.8,1.4L136.7,42.8L136.7,42.8z"/>
				</g>
			</g>
			<g>
				<g>
					<path class="st3" d="M124.8,50.8c-0.4,0-0.8-0.1-1.1-0.3l-10.3-6c-0.6-0.4-1-1.1-1-1.8V30.8c0-0.7,0.5-1.5,1-1.8l10.3-6
						c0.6-0.3,1.5-0.3,2.1,0l10.3,6c0.6,0.4,1,1.2,1,1.8l0,11.9c0,0.7-0.4,1.5-1,1.8l-10.3,6C125.6,50.7,125.2,50.8,124.8,50.8z
						 M124.8,23.8c-0.2,0-0.4,0-0.5,0.1l-10.3,6c-0.3,0.2-0.6,0.6-0.6,1v11.9c0,0.3,0.3,0.8,0.6,1l10.3,5.9c0.3,0.2,0.8,0.2,1.1,0
						l10.3-6c0.3-0.2,0.6-0.6,0.6-1v0l0-11.9c0-0.3-0.3-0.8-0.6-1l-10.3-5.9C125.2,23.9,125,23.8,124.8,23.8z"/>
				</g>
			</g>
		</g>
		<g>
			<g class="st2">
				<g>
					<path class="st3" d="M66.3,289.2c0,0.5-0.4,1.1-0.8,1.4l-10.3,6c-0.4,0.3-1.2,0.3-1.6,0l-10.3-6c-0.4-0.3-0.8-0.9-0.8-1.4
						v-11.9c0-0.5,0.4-1.1,0.8-1.4l10.3-6c0.4-0.3,1.2-0.3,1.6,0l10.3,6c0.4,0.3,0.8,0.9,0.8,1.4L66.3,289.2L66.3,289.2z"/>
				</g>
			</g>
			<g>
				<g>
					<path class="st3" d="M54.4,297.2c-0.4,0-0.8-0.1-1.1-0.3l-10.3-6c-0.6-0.4-1-1.1-1-1.8v-11.9c0-0.7,0.5-1.5,1-1.8l10.3-6
						c0.6-0.3,1.5-0.3,2.1,0l10.3,6c0.6,0.4,1,1.2,1,1.8l0,11.9c0,0.7-0.4,1.5-1,1.8l-10.3,6C55.2,297.1,54.8,297.2,54.4,297.2z
						 M54.4,270.2c-0.2,0-0.4,0-0.5,0.1l-10.3,6c-0.3,0.2-0.6,0.6-0.6,1v11.9c0,0.3,0.3,0.8,0.6,1l10.3,5.9c0.3,0.2,0.8,0.2,1.1,0
						l10.3-6c0.3-0.2,0.6-0.6,0.6-1v0l0-11.9c0-0.3-0.3-0.8-0.6-1L55,270.3C54.8,270.3,54.6,270.2,54.4,270.2z"/>
				</g>
			</g>
		</g>
		<g>
			<g class="st2">
				<g>
					<path class="st3" d="M66.3,42.8c0,0.5-0.4,1.1-0.8,1.4l-10.3,6c-0.4,0.3-1.2,0.3-1.6,0l-10.3-6c-0.4-0.3-0.8-0.9-0.8-1.4V30.8
						c0-0.5,0.4-1.1,0.8-1.4l10.3-6c0.4-0.3,1.2-0.3,1.6,0l10.3,6c0.4,0.3,0.8,0.9,0.8,1.4L66.3,42.8L66.3,42.8z"/>
				</g>
			</g>
			<g>
				<g>
					<path class="st3" d="M54.4,50.8c-0.4,0-0.8-0.1-1.1-0.3l-10.3-6c-0.6-0.4-1-1.1-1-1.8V30.8c0-0.7,0.5-1.5,1-1.8l10.3-6
						c0.6-0.3,1.5-0.3,2.1,0l10.3,6c0.6,0.4,1,1.2,1,1.8l0,11.9c0,0.7-0.4,1.5-1,1.8l-10.3,6C55.2,50.7,54.8,50.8,54.4,50.8z
						 M54.4,23.8c-0.2,0-0.4,0-0.5,0.1l-10.3,6c-0.3,0.2-0.6,0.6-0.6,1v11.9c0,0.3,0.3,0.8,0.6,1l10.3,5.9c0.3,0.2,0.8,0.2,1.1,0
						l10.3-6c0.3-0.2,0.6-0.6,0.6-1v0l0-11.9c0-0.3-0.3-0.8-0.6-1L55,23.9C54.8,23.9,54.6,23.8,54.4,23.8z"/>
				</g>
			</g>
		</g>
		<g>
			<g class="st2">
				<g>
					<path class="st3" d="M312.7,236.4c0,0.5-0.4,1.1-0.8,1.4l-10.3,6c-0.4,0.3-1.2,0.3-1.6,0l-10.3-6c-0.4-0.3-0.8-0.9-0.8-1.4
						v-11.9c0-0.5,0.4-1.1,0.8-1.4l10.3-6c0.4-0.3,1.2-0.3,1.6,0l10.3,6c0.4,0.3,0.8,0.9,0.8,1.4L312.7,236.4L312.7,236.4z"/>
				</g>
			</g>
			<g>
				<g>
					<path class="st3" d="M300.8,244.4c-0.4,0-0.8-0.1-1.1-0.3l-10.3-6c-0.6-0.4-1-1.1-1-1.8v-11.9c0-0.7,0.5-1.5,1-1.8l10.3-6
						c0.6-0.3,1.5-0.3,2.1,0l10.3,6c0.6,0.4,1,1.2,1,1.8l0,11.9c0,0.7-0.4,1.5-1,1.8l-10.3,6C301.6,244.3,301.2,244.4,300.8,244.4z
						 M300.8,217.4c-0.2,0-0.4,0-0.5,0.1l-10.3,6c-0.3,0.2-0.6,0.6-0.6,1v11.9c0,0.3,0.3,0.8,0.6,1l10.3,5.9c0.3,0.2,0.8,0.2,1.1,0
						l10.3-6c0.3-0.2,0.6-0.6,0.6-1v0l0-11.9c0-0.3-0.3-0.8-0.6-1l-10.3-5.9C301.2,217.5,301,217.4,300.8,217.4z"/>
				</g>
			</g>
		</g>
		<g>
			<g class="st2">
				<g>
					<path class="st3" d="M312.7,201.2c0,0.5-0.4,1.1-0.8,1.4l-10.3,6c-0.4,0.3-1.2,0.3-1.6,0l-10.3-6c-0.4-0.3-0.8-0.9-0.8-1.4
						v-11.9c0-0.5,0.4-1.1,0.8-1.4l10.3-6c0.4-0.3,1.2-0.3,1.6,0l10.3,6c0.4,0.3,0.8,0.9,0.8,1.4L312.7,201.2L312.7,201.2z"/>
				</g>
			</g>
			<g>
				<g>
					<path class="st3" d="M300.8,209.2c-0.4,0-0.8-0.1-1.1-0.3l-10.3-6c-0.6-0.4-1-1.1-1-1.8v-11.9c0-0.7,0.5-1.5,1-1.8l10.3-6
						c0.6-0.3,1.5-0.3,2.1,0l10.3,6c0.6,0.4,1,1.2,1,1.8l0,11.9c0,0.7-0.4,1.5-1,1.8l-10.3,6C301.6,209.1,301.2,209.2,300.8,209.2z
						 M300.8,182.2c-0.2,0-0.4,0-0.5,0.1l-10.3,6c-0.3,0.2-0.6,0.6-0.6,1v11.9c0,0.3,0.3,0.8,0.6,1l10.3,5.9c0.3,0.2,0.8,0.2,1.1,0
						l10.3-6c0.3-0.2,0.6-0.6,0.6-1v0l0-11.9c0-0.3-0.3-0.8-0.6-1l-10.3-5.9C301.2,182.3,301,182.2,300.8,182.2z"/>
				</g>
			</g>
		</g>
		<g>
			<g class="st2">
				<g>
					<path class="st3" d="M312.7,166c0,0.5-0.4,1.1-0.8,1.4l-10.3,6c-0.4,0.3-1.2,0.3-1.6,0l-10.3-6c-0.4-0.3-0.8-0.9-0.8-1.4V154
						c0-0.5,0.4-1.1,0.8-1.4l10.3-6c0.4-0.3,1.2-0.3,1.6,0l10.3,6c0.4,0.3,0.8,0.9,0.8,1.4L312.7,166L312.7,166z"/>
				</g>
			</g>
			<g>
				<g>
					<path class="st3" d="M300.8,174c-0.4,0-0.8-0.1-1.1-0.3l-10.3-6c-0.6-0.4-1-1.1-1-1.8V154c0-0.7,0.5-1.5,1-1.8l10.3-6
						c0.6-0.3,1.5-0.3,2.1,0l10.3,6c0.6,0.4,1,1.2,1,1.8l0,11.9c0,0.7-0.4,1.5-1,1.8l-10.3,6C301.6,173.9,301.2,174,300.8,174z
						 M300.8,147c-0.2,0-0.4,0-0.5,0.1l-10.3,6c-0.3,0.2-0.6,0.6-0.6,1V166c0,0.3,0.3,0.8,0.6,1l10.3,5.9c0.3,0.2,0.8,0.2,1.1,0
						l10.3-6c0.3-0.2,0.6-0.6,0.6-1v0l0-11.9c0-0.3-0.3-0.8-0.6-1l-10.3-5.9C301.2,147.1,301,147,300.8,147z"/>
				</g>
			</g>
		</g>
		<g>
			<g class="st2">
				<g>
					<path class="st3" d="M312.7,130.8c0,0.5-0.4,1.1-0.8,1.4l-10.3,6c-0.4,0.3-1.2,0.3-1.6,0l-10.3-6c-0.4-0.3-0.8-0.9-0.8-1.4
						v-11.9c0-0.5,0.4-1.1,0.8-1.4l10.3-6c0.4-0.3,1.2-0.3,1.6,0l10.3,6c0.4,0.3,0.8,0.9,0.8,1.4L312.7,130.8L312.7,130.8z"/>
				</g>
			</g>
			<g>
				<g>
					<path class="st3" d="M300.8,138.8c-0.4,0-0.8-0.1-1.1-0.3l-10.3-6c-0.6-0.4-1-1.1-1-1.8v-11.9c0-0.7,0.5-1.5,1-1.8l10.3-6
						c0.6-0.3,1.5-0.3,2.1,0l10.3,6c0.6,0.4,1,1.2,1,1.8l0,11.9c0,0.7-0.4,1.5-1,1.8l-10.3,6C301.6,138.7,301.2,138.8,300.8,138.8z
						 M300.8,111.8c-0.2,0-0.4,0-0.5,0.1l-10.3,6c-0.3,0.2-0.6,0.6-0.6,1v11.9c0,0.3,0.3,0.8,0.6,1l10.3,5.9c0.3,0.2,0.8,0.2,1.1,0
						l10.3-6c0.3-0.2,0.6-0.6,0.6-1v0l0-11.9c0-0.3-0.3-0.8-0.6-1l-10.3-5.9C301.2,111.9,301,111.8,300.8,111.8z"/>
				</g>
			</g>
		</g>
		<g>
			<g class="st2">
				<g>
					<path class="st3" d="M312.7,95.6c0,0.5-0.4,1.1-0.8,1.4l-10.3,6c-0.4,0.3-1.2,0.3-1.6,0l-10.3-6c-0.4-0.3-0.8-0.9-0.8-1.4V83.6
						c0-0.5,0.4-1.1,0.8-1.4l10.3-6c0.4-0.3,1.2-0.3,1.6,0l10.3,6c0.4,0.3,0.8,0.9,0.8,1.4L312.7,95.6L312.7,95.6z"/>
				</g>
			</g>
			<g>
				<g>
					<path class="st3" d="M300.8,103.6c-0.4,0-0.8-0.1-1.1-0.3l-10.3-6c-0.6-0.4-1-1.1-1-1.8V83.6c0-0.7,0.5-1.5,1-1.8l10.3-6
						c0.6-0.3,1.5-0.3,2.1,0l10.3,6c0.6,0.4,1,1.2,1,1.8l0,11.9c0,0.7-0.4,1.5-1,1.8l-10.3,6C301.6,103.5,301.2,103.6,300.8,103.6z
						 M300.8,76.6c-0.2,0-0.4,0-0.5,0.1l-10.3,6c-0.3,0.2-0.6,0.6-0.6,1v11.9c0,0.3,0.3,0.8,0.6,1l10.3,5.9c0.3,0.2,0.8,0.2,1.1,0
						l10.3-6c0.3-0.2,0.6-0.6,0.6-1v0l0-11.9c0-0.3-0.3-0.8-0.6-1l-10.3-5.9C301.2,76.7,301,76.6,300.8,76.6z"/>
				</g>
			</g>
		</g>
		<g>
			<g class="st2">
				<g>
					<path class="st3" d="M31.1,236.4c0,0.5-0.4,1.1-0.8,1.4l-10.3,6c-0.4,0.3-1.2,0.3-1.6,0l-10.3-6c-0.4-0.3-0.8-0.9-0.8-1.4
						v-11.9c0-0.5,0.4-1.1,0.8-1.4l10.3-6c0.4-0.3,1.2-0.3,1.6,0l10.3,6c0.4,0.3,0.8,0.9,0.8,1.4L31.1,236.4L31.1,236.4z"/>
				</g>
			</g>
			<g>
				<g>
					<path class="st3" d="M19.2,244.4c-0.4,0-0.8-0.1-1.1-0.3l-10.3-6c-0.6-0.4-1-1.1-1-1.8v-11.9c0-0.7,0.5-1.5,1-1.8l10.3-6
						c0.6-0.3,1.5-0.3,2.1,0l10.3,6c0.6,0.4,1,1.2,1,1.8l0,11.9c0,0.7-0.4,1.5-1,1.8l-10.3,6C20,244.3,19.6,244.4,19.2,244.4z
						 M19.2,217.4c-0.2,0-0.4,0-0.5,0.1l-10.3,6c-0.3,0.2-0.6,0.6-0.6,1v11.9c0,0.3,0.3,0.8,0.6,1l10.3,5.9c0.3,0.2,0.8,0.2,1.1,0
						l10.3-6c0.3-0.2,0.6-0.6,0.6-1v0l0-11.9c0-0.3-0.3-0.8-0.6-1l-10.3-5.9C19.6,217.5,19.4,217.4,19.2,217.4z"/>
				</g>
			</g>
		</g>
		<g>
			<g class="st2">
				<g>
					<path class="st3" d="M31.1,201.2c0,0.5-0.4,1.1-0.8,1.4l-10.3,6c-0.4,0.3-1.2,0.3-1.6,0l-10.3-6c-0.4-0.3-0.8-0.9-0.8-1.4
						v-11.9c0-0.5,0.4-1.1,0.8-1.4l10.3-6c0.4-0.3,1.2-0.3,1.6,0l10.3,6c0.4,0.3,0.8,0.9,0.8,1.4L31.1,201.2L31.1,201.2z"/>
				</g>
			</g>
			<g>
				<g>
					<path class="st3" d="M19.2,209.2c-0.4,0-0.8-0.1-1.1-0.3l-10.3-6c-0.6-0.4-1-1.1-1-1.8v-11.9c0-0.7,0.5-1.5,1-1.8l10.3-6
						c0.6-0.3,1.5-0.3,2.1,0l10.3,6c0.6,0.4,1,1.2,1,1.8l0,11.9c0,0.7-0.4,1.5-1,1.8l-10.3,6C20,209.1,19.6,209.2,19.2,209.2z
						 M19.2,182.2c-0.2,0-0.4,0-0.5,0.1l-10.3,6c-0.3,0.2-0.6,0.6-0.6,1v11.9c0,0.3,0.3,0.8,0.6,1l10.3,5.9c0.3,0.2,0.8,0.2,1.1,0
						l10.3-6c0.3-0.2,0.6-0.6,0.6-1v0l0-11.9c0-0.3-0.3-0.8-0.6-1l-10.3-5.9C19.6,182.3,19.4,182.2,19.2,182.2z"/>
				</g>
			</g>
		</g>
		<g>
			<g class="st2">
				<g>
					<path class="st3" d="M31.1,166c0,0.5-0.4,1.1-0.8,1.4l-10.3,6c-0.4,0.3-1.2,0.3-1.6,0l-10.3-6c-0.4-0.3-0.8-0.9-0.8-1.4V154
						c0-0.5,0.4-1.1,0.8-1.4l10.3-6c0.4-0.3,1.2-0.3,1.6,0l10.3,6c0.4,0.3,0.8,0.9,0.8,1.4L31.1,166L31.1,166z"/>
				</g>
			</g>
			<g>
				<g>
					<path class="st3" d="M19.2,174c-0.4,0-0.8-0.1-1.1-0.3l-10.3-6c-0.6-0.4-1-1.1-1-1.8V154c0-0.7,0.5-1.5,1-1.8l10.3-6
						c0.6-0.3,1.5-0.3,2.1,0l10.3,6c0.6,0.4,1,1.2,1,1.8l0,11.9c0,0.7-0.4,1.5-1,1.8l-10.3,6C20,173.9,19.6,174,19.2,174z M19.2,147
						c-0.2,0-0.4,0-0.5,0.1l-10.3,6c-0.3,0.2-0.6,0.6-0.6,1V166c0,0.3,0.3,0.8,0.6,1l10.3,5.9c0.3,0.2,0.8,0.2,1.1,0l10.3-6
						c0.3-0.2,0.6-0.6,0.6-1v0l0-11.9c0-0.3-0.3-0.8-0.6-1l-10.3-5.9C19.6,147.1,19.4,147,19.2,147z"/>
				</g>
			</g>
		</g>
		<g>
			<g class="st2">
				<g>
					<path class="st3" d="M31.1,130.8c0,0.5-0.4,1.1-0.8,1.4l-10.3,6c-0.4,0.3-1.2,0.3-1.6,0l-10.3-6c-0.4-0.3-0.8-0.9-0.8-1.4
						v-11.9c0-0.5,0.4-1.1,0.8-1.4l10.3-6c0.4-0.3,1.2-0.3,1.6,0l10.3,6c0.4,0.3,0.8,0.9,0.8,1.4L31.1,130.8L31.1,130.8z"/>
				</g>
			</g>
			<g>
				<g>
					<path class="st3" d="M19.2,138.8c-0.4,0-0.8-0.1-1.1-0.3l-10.3-6c-0.6-0.4-1-1.1-1-1.8v-11.9c0-0.7,0.5-1.5,1-1.8l10.3-6
						c0.6-0.3,1.5-0.3,2.1,0l10.3,6c0.6,0.4,1,1.2,1,1.8l0,11.9c0,0.7-0.4,1.5-1,1.8l-10.3,6C20,138.7,19.6,138.8,19.2,138.8z
						 M19.2,111.8c-0.2,0-0.4,0-0.5,0.1l-10.3,6c-0.3,0.2-0.6,0.6-0.6,1v11.9c0,0.3,0.3,0.8,0.6,1l10.3,5.9c0.3,0.2,0.8,0.2,1.1,0
						l10.3-6c0.3-0.2,0.6-0.6,0.6-1v0l0-11.9c0-0.3-0.3-0.8-0.6-1l-10.3-5.9C19.6,111.9,19.4,111.8,19.2,111.8z"/>
				</g>
			</g>
		</g>
		<g>
			<g class="st2">
				<g>
					<path class="st3" d="M31.1,95.6c0,0.5-0.4,1.1-0.8,1.4l-10.3,6c-0.4,0.3-1.2,0.3-1.6,0l-10.3-6c-0.4-0.3-0.8-0.9-0.8-1.4V83.6
						c0-0.5,0.4-1.1,0.8-1.4l10.3-6c0.4-0.3,1.2-0.3,1.6,0l10.3,6c0.4,0.3,0.8,0.9,0.8,1.4L31.1,95.6L31.1,95.6z"/>
				</g>
			</g>
			<g>
				<g>
					<path class="st3" d="M19.2,103.6c-0.4,0-0.8-0.1-1.1-0.3l-10.3-6c-0.6-0.4-1-1.1-1-1.8V83.6c0-0.7,0.5-1.5,1-1.8l10.3-6
						c0.6-0.3,1.5-0.3,2.1,0l10.3,6c0.6,0.4,1,1.2,1,1.8l0,11.9c0,0.7-0.4,1.5-1,1.8l-10.3,6C20,103.5,19.6,103.6,19.2,103.6z
						 M19.2,76.6c-0.2,0-0.4,0-0.5,0.1l-10.3,6c-0.3,0.2-0.6,0.6-0.6,1v11.9c0,0.3,0.3,0.8,0.6,1l10.3,5.9c0.3,0.2,0.8,0.2,1.1,0
						l10.3-6c0.3-0.2,0.6-0.6,0.6-1v0l0-11.9c0-0.3-0.3-0.8-0.6-1l-10.3-5.9C19.6,76.7,19.4,76.6,19.2,76.6z"/>
				</g>
			</g>
		</g>
	</g>
	<g class="st4">
		<g class="st2">
			<g>
				<path class="st3" d="M31.1,60.4c0,0.5-0.4,1.1-0.8,1.4l-10.3,6c-0.4,0.3-1.2,0.3-1.6,0l-10.3-6c-0.4-0.3-0.8-0.9-0.8-1.4V48.4
					c0-0.5,0.4-1.1,0.8-1.4l10.3-6c0.4-0.3,1.2-0.3,1.6,0l10.3,6c0.4,0.3,0.8,0.9,0.8,1.4L31.1,60.4L31.1,60.4z"/>
			</g>
		</g>
		<g>
			<g>
				<path class="st3" d="M19.2,68.4c-0.4,0-0.8-0.1-1.1-0.3l-10.3-6c-0.6-0.4-1-1.1-1-1.8V48.4c0-0.7,0.5-1.5,1-1.8l10.3-6
					c0.6-0.3,1.5-0.3,2.1,0l10.3,6c0.6,0.4,1,1.2,1,1.8l0,11.9c0,0.7-0.4,1.5-1,1.8l-10.3,6C20,68.3,19.6,68.4,19.2,68.4z
					 M19.2,41.4c-0.2,0-0.4,0-0.5,0.1l-10.3,6c-0.3,0.2-0.6,0.6-0.6,1v11.9c0,0.3,0.3,0.8,0.6,1l10.3,5.9c0.3,0.2,0.8,0.2,1.1,0
					l10.3-6c0.3-0.2,0.6-0.6,0.6-1v0l0-11.9c0-0.3-0.3-0.8-0.6-1l-10.3-5.9C19.6,41.5,19.4,41.4,19.2,41.4z"/>
			</g>
		</g>
	</g>
	<g class="st4">
		<g>
			<g class="st2">
				<g>
					<path class="st3" d="M242.3,306.8c0,0.5-0.4,1.1-0.8,1.4l-10.3,6c-0.4,0.3-1.2,0.3-1.6,0l-10.3-6c-0.4-0.3-0.8-0.9-0.8-1.4
						v-11.9c0-0.5,0.4-1.1,0.8-1.4l10.3-6c0.4-0.3,1.2-0.3,1.6,0l10.3,6c0.4,0.3,0.8,0.9,0.8,1.4L242.3,306.8L242.3,306.8z"/>
				</g>
			</g>
			<g>
				<g>
					<path class="st3" d="M230.4,314.8c-0.4,0-0.8-0.1-1.1-0.3l-10.3-6c-0.6-0.4-1-1.1-1-1.8v-11.9c0-0.7,0.5-1.5,1-1.8l10.3-6
						c0.6-0.3,1.5-0.3,2.1,0l10.3,6c0.6,0.4,1,1.2,1,1.8l0,11.9c0,0.7-0.4,1.5-1,1.8l-10.3,6C231.2,314.7,230.8,314.8,230.4,314.8z
						 M230.4,287.8c-0.2,0-0.4,0-0.5,0.1l-10.3,6c-0.3,0.2-0.6,0.6-0.6,1v11.9c0,0.3,0.3,0.8,0.6,1l10.3,5.9c0.3,0.2,0.8,0.2,1.1,0
						l10.3-6c0.3-0.2,0.6-0.6,0.6-1v0l0-11.9c0-0.3-0.3-0.8-0.6-1l-10.3-5.9C230.8,287.9,230.6,287.8,230.4,287.8z"/>
				</g>
			</g>
		</g>
		<g>
			<g class="st2">
				<g>
					<path class="st3" d="M171.9,306.8c0,0.5-0.4,1.1-0.8,1.4l-10.3,6c-0.4,0.3-1.2,0.3-1.6,0l-10.3-6c-0.4-0.3-0.8-0.9-0.8-1.4
						v-11.9c0-0.5,0.4-1.1,0.8-1.4l10.3-6c0.4-0.3,1.2-0.3,1.6,0l10.3,6c0.4,0.3,0.8,0.9,0.8,1.4L171.9,306.8L171.9,306.8z"/>
				</g>
			</g>
			<g>
				<g>
					<path class="st3" d="M160,314.8c-0.4,0-0.8-0.1-1.1-0.3l-10.3-6c-0.6-0.4-1-1.1-1-1.8v-11.9c0-0.7,0.5-1.5,1-1.8l10.3-6
						c0.6-0.3,1.5-0.3,2.1,0l10.3,6c0.6,0.4,1,1.2,1,1.8l0,11.9c0,0.7-0.4,1.5-1,1.8l-10.3,6C160.8,314.7,160.4,314.8,160,314.8z
						 M160,287.8c-0.2,0-0.4,0-0.5,0.1l-10.3,6c-0.3,0.2-0.6,0.6-0.6,1v11.9c0,0.3,0.3,0.8,0.6,1l10.3,5.9c0.3,0.2,0.8,0.2,1.1,0
						l10.3-6c0.3-0.2,0.6-0.6,0.6-1v0l0-11.9c0-0.3-0.3-0.8-0.6-1l-10.3-5.9C160.4,287.9,160.2,287.8,160,287.8z"/>
				</g>
			</g>
		</g>
		<g>
			<g class="st2">
				<g>
					<path class="st3" d="M101.5,306.8c0,0.5-0.4,1.1-0.8,1.4l-10.3,6c-0.4,0.3-1.2,0.3-1.6,0l-10.3-6c-0.4-0.3-0.8-0.9-0.8-1.4
						v-11.9c0-0.5,0.4-1.1,0.8-1.4l10.3-6c0.4-0.3,1.2-0.3,1.6,0l10.3,6c0.4,0.3,0.8,0.9,0.8,1.4L101.5,306.8L101.5,306.8z"/>
				</g>
			</g>
			<g>
				<g>
					<path class="st3" d="M89.6,314.8c-0.4,0-0.8-0.1-1.1-0.3l-10.3-6c-0.6-0.4-1-1.1-1-1.8v-11.9c0-0.7,0.5-1.5,1-1.8l10.3-6
						c0.6-0.3,1.5-0.3,2.1,0l10.3,6c0.6,0.4,1,1.2,1,1.8l0,11.9c0,0.7-0.4,1.5-1,1.8l-10.3,6C90.4,314.7,90,314.8,89.6,314.8z
						 M89.6,287.8c-0.2,0-0.4,0-0.5,0.1l-10.3,6c-0.3,0.2-0.6,0.6-0.6,1v11.9c0,0.3,0.3,0.8,0.6,1l10.3,5.9c0.3,0.2,0.8,0.2,1.1,0
						l10.3-6c0.3-0.2,0.6-0.6,0.6-1v0l0-11.9c0-0.3-0.3-0.8-0.6-1l-10.3-5.9C90,287.9,89.8,287.8,89.6,287.8z"/>
				</g>
			</g>
		</g>
	</g>
	<g class="st4">
		<g>
			<g class="st2">
				<g>
					<path class="st3" d="M242.3,25.2c0,0.5-0.4,1.1-0.8,1.4l-10.3,6c-0.4,0.3-1.2,0.3-1.6,0l-10.3-6c-0.4-0.3-0.8-0.9-0.8-1.4V13.2
						c0-0.5,0.4-1.1,0.8-1.4l10.3-6c0.4-0.3,1.2-0.3,1.6,0l10.3,6c0.4,0.3,0.8,0.9,0.8,1.4L242.3,25.2L242.3,25.2z"/>
				</g>
			</g>
			<g>
				<g>
					<path class="st3" d="M230.4,33.2c-0.4,0-0.8-0.1-1.1-0.3l-10.3-6c-0.6-0.4-1-1.1-1-1.8V13.2c0-0.7,0.5-1.5,1-1.8l10.3-6
						c0.6-0.3,1.5-0.3,2.1,0l10.3,6c0.6,0.4,1,1.2,1,1.8l0,11.9c0,0.7-0.4,1.5-1,1.8l-10.3,6C231.2,33.1,230.8,33.2,230.4,33.2z
						 M230.4,6.2c-0.2,0-0.4,0-0.5,0.1l-10.3,6c-0.3,0.2-0.6,0.6-0.6,1v11.9c0,0.3,0.3,0.8,0.6,1l10.3,5.9c0.3,0.2,0.8,0.2,1.1,0
						l10.3-6c0.3-0.2,0.6-0.6,0.6-1v0l0-11.9c0-0.3-0.3-0.8-0.6-1L231,6.3C230.8,6.3,230.6,6.2,230.4,6.2z"/>
				</g>
			</g>
		</g>
		<g>
			<g class="st2">
				<g>
					<path class="st3" d="M171.9,25.2c0,0.5-0.4,1.1-0.8,1.4l-10.3,6c-0.4,0.3-1.2,0.3-1.6,0l-10.3-6c-0.4-0.3-0.8-0.9-0.8-1.4V13.2
						c0-0.5,0.4-1.1,0.8-1.4l10.3-6c0.4-0.3,1.2-0.3,1.6,0l10.3,6c0.4,0.3,0.8,0.9,0.8,1.4L171.9,25.2L171.9,25.2z"/>
				</g>
			</g>
			<g>
				<g>
					<path class="st3" d="M160,33.2c-0.4,0-0.8-0.1-1.1-0.3l-10.3-6c-0.6-0.4-1-1.1-1-1.8V13.2c0-0.7,0.5-1.5,1-1.8l10.3-6
						c0.6-0.3,1.5-0.3,2.1,0l10.3,6c0.6,0.4,1,1.2,1,1.8l0,11.9c0,0.7-0.4,1.5-1,1.8l-10.3,6C160.8,33.1,160.4,33.2,160,33.2z
						 M160,6.2c-0.2,0-0.4,0-0.5,0.1l-10.3,6c-0.3,0.2-0.6,0.6-0.6,1v11.9c0,0.3,0.3,0.8,0.6,1l10.3,5.9c0.3,0.2,0.8,0.2,1.1,0
						l10.3-6c0.3-0.2,0.6-0.6,0.6-1v0l0-11.9c0-0.3-0.3-0.8-0.6-1l-10.3-5.9C160.4,6.3,160.2,6.2,160,6.2z"/>
				</g>
			</g>
		</g>
		<g>
			<g class="st2">
				<g>
					<path class="st3" d="M101.5,25.2c0,0.5-0.4,1.1-0.8,1.4l-10.3,6c-0.4,0.3-1.2,0.3-1.6,0l-10.3-6c-0.4-0.3-0.8-0.9-0.8-1.4V13.2
						c0-0.5,0.4-1.1,0.8-1.4l10.3-6c0.4-0.3,1.2-0.3,1.6,0l10.3,6c0.4,0.3,0.8,0.9,0.8,1.4L101.5,25.2L101.5,25.2z"/>
				</g>
			</g>
			<g>
				<g>
					<path class="st3" d="M89.6,33.2c-0.4,0-0.8-0.1-1.1-0.3l-10.3-6c-0.6-0.4-1-1.1-1-1.8V13.2c0-0.7,0.5-1.5,1-1.8l10.3-6
						c0.6-0.3,1.5-0.3,2.1,0l10.3,6c0.6,0.4,1,1.2,1,1.8l0,11.9c0,0.7-0.4,1.5-1,1.8l-10.3,6C90.4,33.1,90,33.2,89.6,33.2z
						 M89.6,6.2c-0.2,0-0.4,0-0.5,0.1l-10.3,6c-0.3,0.2-0.6,0.6-0.6,1v11.9c0,0.3,0.3,0.8,0.6,1L89,32.1c0.3,0.2,0.8,0.2,1.1,0
						l10.3-6c0.3-0.2,0.6-0.6,0.6-1v0l0-11.9c0-0.3-0.3-0.8-0.6-1L90.2,6.3C90,6.3,89.8,6.2,89.6,6.2z"/>
				</g>
			</g>
		</g>
	</g>
	<g>
		<g>
			<g class="st2">
				<g>
					<path class="st3" d="M66.3,218.8c0,0.5-0.4,1.1-0.8,1.4l-10.3,6c-0.4,0.3-1.2,0.3-1.6,0l-10.3-6c-0.4-0.3-0.8-0.9-0.8-1.4
						v-11.9c0-0.5,0.4-1.1,0.8-1.4l10.3-6c0.4-0.3,1.2-0.3,1.6,0l10.3,6c0.4,0.3,0.8,0.9,0.8,1.4L66.3,218.8L66.3,218.8z"/>
				</g>
			</g>
			<g>
				<g>
					<path class="st3" d="M54.4,226.8c-0.4,0-0.8-0.1-1.1-0.3l-10.3-6c-0.6-0.4-1-1.1-1-1.8v-11.9c0-0.7,0.5-1.5,1-1.8l10.3-6
						c0.6-0.3,1.5-0.3,2.1,0l10.3,6c0.6,0.4,1,1.2,1,1.8l0,11.9c0,0.7-0.4,1.5-1,1.8l-10.3,6C55.2,226.7,54.8,226.8,54.4,226.8z
						 M54.4,199.8c-0.2,0-0.4,0-0.5,0.1l-10.3,6c-0.3,0.2-0.6,0.6-0.6,1v11.9c0,0.3,0.3,0.8,0.6,1l10.3,5.9c0.3,0.2,0.8,0.2,1.1,0
						l10.3-6c0.3-0.2,0.6-0.6,0.6-1v0l0-11.9c0-0.3-0.3-0.8-0.6-1L55,199.9C54.8,199.9,54.6,199.8,54.4,199.8z"/>
				</g>
			</g>
		</g>
		<g>
			<g>
				<g>
					<path class="st7" d="M58.4,209.5v8c0,0.2-0.1,0.3-0.3,0.3h-7.3c-0.2,0-0.3-0.1-0.3-0.3v-9.5c0-0.2,0.1-0.3,0.3-0.3h5.9
						L58.4,209.5L58.4,209.5z"/>
				</g>
				<g class="st8">
					<g>
						<path class="st9" d="M57.6,211.6h-1.4c-0.1,0-0.2-0.1-0.2-0.2l0,0c0-0.1,0.1-0.2,0.2-0.2h1.4c0.1,0,0.2,0.1,0.2,0.2l0,0
							C57.8,211.5,57.7,211.6,57.6,211.6z"/>
					</g>
					<g>
						<path class="st9" d="M56.5,212.7h-0.8c-0.1,0-0.2-0.1-0.2-0.2l0,0c0-0.1,0.1-0.2,0.2-0.2h0.8c0.1,0,0.2,0.1,0.2,0.2l0,0
							C56.7,212.6,56.6,212.7,56.5,212.7z"/>
					</g>
					<g>
						<path class="st9" d="M57.4,213.7h-1.5c-0.1,0-0.2-0.1-0.2-0.2l0,0c0-0.1,0.1-0.2,0.2-0.2h1.5c0.1,0,0.2,0.1,0.2,0.2l0,0
							C57.6,213.6,57.5,213.7,57.4,213.7z"/>
					</g>
					<g>
						<path class="st9" d="M52.5,213.7H51c-0.1,0-0.2-0.1-0.2-0.2l0,0c0-0.1,0.1-0.2,0.2-0.2h1.5c0.1,0,0.2,0.1,0.2,0.2l0,0
							C52.7,213.6,52.6,213.7,52.5,213.7z"/>
					</g>
					<g>
						<path class="st9" d="M51.8,211.6h-0.5c-0.1,0-0.2-0.1-0.2-0.2l0,0c0-0.1,0.1-0.2,0.2-0.2h0.5c0.1,0,0.2,0.1,0.2,0.2l0,0
							C52,211.5,51.9,211.6,51.8,211.6z"/>
					</g>
					<g>
						<path class="st9" d="M57.8,212.7h-0.5c-0.1,0-0.2-0.1-0.2-0.2l0,0c0-0.1,0.1-0.2,0.2-0.2h0.5c0.1,0,0.2,0.1,0.2,0.2l0,0
							C57.9,212.6,57.8,212.7,57.8,212.7z"/>
					</g>
					<g>
						<path class="st9" d="M51.6,212.7H51c-0.1,0-0.2-0.1-0.2-0.2l0,0c0-0.1,0.1-0.2,0.2-0.2h0.6c0.1,0,0.2,0.1,0.2,0.2l0,0
							C51.8,212.6,51.7,212.7,51.6,212.7z"/>
					</g>
					<g>
						<path class="st9" d="M51.5,210.5H51c-0.1,0-0.2-0.1-0.2-0.2l0,0c0-0.1,0.1-0.2,0.2-0.2h0.5c0.1,0,0.2,0.1,0.2,0.2l0,0
							C51.6,210.4,51.6,210.5,51.5,210.5z"/>
					</g>
					<g>
						<path class="st9" d="M52.9,210.5h-0.7c-0.1,0-0.2-0.1-0.2-0.2l0,0c0-0.1,0.1-0.2,0.2-0.2h0.7c0.1,0,0.2,0.1,0.2,0.2l0,0
							C53.1,210.4,53,210.5,52.9,210.5z"/>
					</g>
					<g>
						<path class="st9" d="M56.6,210.5h-0.7c-0.1,0-0.2-0.1-0.2-0.2l0,0c0-0.1,0.1-0.2,0.2-0.2h0.7c0.1,0,0.2,0.1,0.2,0.2l0,0
							C56.7,210.4,56.7,210.5,56.6,210.5z"/>
					</g>
				</g>
				<g>
					<g>
						<path class="st10" d="M53.6,211.7H52c-0.1,0-0.3-0.1-0.3-0.3l0,0c0-0.1,0.1-0.3,0.3-0.3h1.7c0.1,0,0.3,0.1,0.3,0.3l0,0
							C53.9,211.6,53.8,211.7,53.6,211.7z"/>
					</g>
					<g>
						<path class="st11" d="M55.6,211.7h-0.9c-0.1,0-0.3-0.1-0.3-0.3l0,0c0-0.1,0.1-0.3,0.3-0.3h0.9c0.1,0,0.3,0.1,0.3,0.3l0,0
							C55.9,211.6,55.7,211.7,55.6,211.7z"/>
					</g>
					<g>
						<path class="st10" d="M55.4,212.8h-2.1c-0.1,0-0.3-0.1-0.3-0.3l0,0c0-0.1,0.1-0.3,0.3-0.3h2.1c0.1,0,0.3,0.1,0.3,0.3l0,0
							C55.7,212.6,55.6,212.8,55.4,212.8z"/>
					</g>
					<g>
						<path class="st11" d="M53.6,213.8h-1.2c-0.1,0-0.3-0.1-0.3-0.3l0,0c0-0.1,0.1-0.3,0.3-0.3h1.2c0.1,0,0.3,0.1,0.3,0.3l0,0
							C53.9,213.7,53.8,213.8,53.6,213.8z"/>
					</g>
				</g>
				<g class="st12">
					<polygon class="st13" points="58.4,209.5 56.6,209.5 56.6,207.7 					"/>
				</g>
				<g class="st14">
					<g>
						<polygon class="st15" points="58.4,211.3 56.6,209.5 58.4,209.5 						"/>
					</g>
				</g>
				<g class="st6">
					<g>
						<path d="M57.7,215.6l-1.8-1.7c0.3-0.4,0.5-0.9,0.5-1.4c0-1.3-1-2.3-2.3-2.3c-1.3,0-2.3,1-2.3,2.3c0,1.3,1,2.3,2.3,2.3
							c0.5,0,1-0.2,1.4-0.5l1.7,1.7L57.7,215.6z M54.1,214.2c-1,0-1.7-0.8-1.7-1.7c0-1,0.8-1.7,1.7-1.7c1,0,1.8,0.8,1.8,1.7
							C55.9,213.4,55.1,214.2,54.1,214.2z"/>
					</g>
				</g>
				<g>
					<g>
						<path class="st15" d="M57.3,215.3l-1.8-1.7c0.3-0.4,0.5-0.9,0.5-1.4c0-1.3-1-2.3-2.3-2.3c-1.3,0-2.3,1-2.3,2.3s1,2.3,2.3,2.3
							c0.5,0,1-0.2,1.4-0.5l1.7,1.7L57.3,215.3z M53.8,213.9c-1,0-1.7-0.8-1.7-1.7s0.8-1.7,1.7-1.7c1,0,1.8,0.8,1.8,1.7
							S54.7,213.9,53.8,213.9z"/>
					</g>
				</g>
				<g class="st14">
					<g>
						<path class="st15" d="M53,208.8h-2c-0.1,0-0.2-0.1-0.2-0.2l0,0c0-0.1,0.1-0.2,0.2-0.2h2c0.1,0,0.2,0.1,0.2,0.2l0,0
							C53.2,208.7,53.1,208.8,53,208.8z"/>
					</g>
					<g>
						<path class="st15" d="M54.8,217.2H51c-0.1,0-0.2-0.1-0.2-0.2l0,0c0-0.1,0.1-0.2,0.2-0.2h3.8c0.1,0,0.2,0.1,0.2,0.2l0,0
							C54.9,217.1,54.9,217.2,54.8,217.2z"/>
					</g>
				</g>
			</g>
		</g>
	</g>
	<g>
		<g>
			<g class="st2">
				<g>
					<path class="st3" d="M171.9,95.6c0,0.5-0.4,1.1-0.8,1.4l-10.3,6c-0.4,0.3-1.2,0.3-1.6,0l-10.3-6c-0.4-0.3-0.8-0.9-0.8-1.4V83.6
						c0-0.5,0.4-1.1,0.8-1.4l10.3-6c0.4-0.3,1.2-0.3,1.6,0l10.3,6c0.4,0.3,0.8,0.9,0.8,1.4L171.9,95.6L171.9,95.6z"/>
				</g>
			</g>
			<g>
				<g>
					<path class="st3" d="M160,103.6c-0.4,0-0.8-0.1-1.1-0.3l-10.3-6c-0.6-0.4-1-1.1-1-1.8V83.6c0-0.7,0.5-1.5,1-1.8l10.3-6
						c0.6-0.3,1.5-0.3,2.1,0l10.3,6c0.6,0.4,1,1.2,1,1.8l0,11.9c0,0.7-0.4,1.5-1,1.8l-10.3,6C160.8,103.5,160.4,103.6,160,103.6z
						 M160,76.6c-0.2,0-0.4,0-0.5,0.1l-10.3,6c-0.3,0.2-0.6,0.6-0.6,1v11.9c0,0.3,0.3,0.8,0.6,1l10.3,5.9c0.3,0.2,0.8,0.2,1.1,0
						l10.3-6c0.3-0.2,0.6-0.6,0.6-1v0l0-11.9c0-0.3-0.3-0.8-0.6-1l-10.3-5.9C160.4,76.7,160.2,76.6,160,76.6z"/>
				</g>
			</g>
		</g>
		<g>
			<g>
				<g>
					<path class="st16" d="M163.5,96.3h-7c-0.6,0-1.1-0.5-1.1-1.1V84c0-0.6,0.5-1.1,1.1-1.1h7c0.6,0,1.1,0.5,1.1,1.1v11.3
						C164.6,95.8,164.1,96.3,163.5,96.3z"/>
				</g>
				<g>
					<path class="st17" d="M164,94.7h-8.1c-0.1,0-0.2-0.1-0.2-0.2V84c0-0.1,0.1-0.2,0.2-0.2h8.1c0.1,0,0.2,0.1,0.2,0.2v10.5
						C164.3,94.6,164.2,94.7,164,94.7z"/>
				</g>
				<g>
					<path class="st18" d="M160.3,83.5h-0.7c0,0,0,0,0,0l0,0c0,0,0,0,0,0L160.3,83.5C160.4,83.4,160.4,83.4,160.3,83.5L160.3,83.5
						C160.4,83.5,160.4,83.5,160.3,83.5z"/>
				</g>
				<g>
					<circle class="st18" cx="160" cy="83.2" r="0.1"/>
				</g>
				<g>
					<path class="st18" d="M160,96.1c-0.3,0-0.5-0.2-0.5-0.5c0-0.3,0.2-0.5,0.5-0.5c0.3,0,0.5,0.2,0.5,0.5
						C160.5,95.8,160.3,96.1,160,96.1z M160,95.1c-0.2,0-0.5,0.2-0.5,0.5c0,0.2,0.2,0.5,0.5,0.5c0.2,0,0.5-0.2,0.5-0.5
						C160.5,95.3,160.2,95.1,160,95.1z"/>
				</g>
				<g class="st12">
					<path class="st3" d="M164.6,84L164.6,84c0-0.7-0.5-1.2-1.1-1.2h-7c-0.6,0-1.1,0.5-1.1,1.1v9.2L164.6,84z"/>
				</g>
			</g>
		</g>
	</g>
	<g>
		<g>
			<g class="st2">
				<g>
					<path class="st3" d="M277.5,148.4c0,0.5-0.4,1.1-0.8,1.4l-10.3,6c-0.4,0.3-1.2,0.3-1.6,0l-10.3-6c-0.4-0.3-0.8-0.9-0.8-1.4
						v-11.9c0-0.5,0.4-1.1,0.8-1.4l10.3-6c0.4-0.3,1.2-0.3,1.6,0l10.3,6c0.4,0.3,0.8,0.9,0.8,1.4L277.5,148.4L277.5,148.4z"/>
				</g>
			</g>
			<g>
				<g>
					<path class="st3" d="M265.6,156.4c-0.4,0-0.8-0.1-1.1-0.3l-10.3-6c-0.6-0.4-1-1.1-1-1.8v-11.9c0-0.7,0.5-1.5,1-1.8l10.3-6
						c0.6-0.3,1.5-0.3,2.1,0l10.3,6c0.6,0.4,1,1.2,1,1.8l0,11.9c0,0.7-0.4,1.5-1,1.8l-10.3,6C266.4,156.3,266,156.4,265.6,156.4z
						 M265.6,129.4c-0.2,0-0.4,0-0.5,0.1l-10.3,6c-0.3,0.2-0.6,0.6-0.6,1v11.9c0,0.3,0.3,0.8,0.6,1l10.3,5.9c0.3,0.2,0.8,0.2,1.1,0
						l10.3-6c0.3-0.2,0.6-0.6,0.6-1v0l0-11.9c0-0.3-0.3-0.8-0.6-1l-10.3-5.9C266,129.5,265.8,129.4,265.6,129.4z"/>
				</g>
			</g>
		</g>
		<g>
			<g>
				<g id="Folder_1_">
					<g>
						<path class="st19" d="M259.7,135.7h3.5c0.5,0,0.9,0.4,0.9,0.9v1h-5.2v-1C258.9,136.1,259.3,135.7,259.7,135.7z"/>
					</g>
					<g>
						<path class="st19" d="M271.5,149.1h-11.7c-0.5,0-0.9-0.4-0.9-0.9v-10.8c0-0.5,0.4-0.9,0.9-0.9h11.7c0.5,0,0.9,0.4,0.9,0.9
							v10.7C272.3,148.7,271.9,149.1,271.5,149.1z"/>
					</g>
				</g>
				<g id="Paper_1_">
					<g>
						<rect x="259.6" y="137.5" class="st20" width="11.9" height="7.5"/>
					</g>
				</g>
				<g>
					<path class="st21" d="M258.9,138.1v10.1c0,0.5,0.4,0.9,0.9,0.9h11.7c0.5,0,0.9-0.4,0.9-0.9v-7.2l-3.1-3H258.9z"/>
				</g>
				<g class="st22">
					<polygon points="272.3,144 272.3,141.1 269.3,141.1 					"/>
				</g>
				<g class="st22">
					<polygon points="272.3,147.6 272.3,146.2 272.3,146.2 272.3,141.1 269.3,138.1 262.8,138.1 271.6,146.9 					"/>
				</g>
				<g>
					<polygon class="st21" points="269.3,138.1 269.3,141.1 272.3,141.1 					"/>
				</g>
			</g>
		</g>
	</g>
	<g>
		<g>
			<g class="st2">
				<g>
					<path class="st3" d="M136.7,218.8c0,0.5-0.4,1.1-0.8,1.4l-10.3,6c-0.4,0.3-1.2,0.3-1.6,0l-10.3-6c-0.4-0.3-0.8-0.9-0.8-1.4
						v-11.9c0-0.5,0.4-1.1,0.8-1.4l10.3-6c0.4-0.3,1.2-0.3,1.6,0l10.3,6c0.4,0.3,0.8,0.9,0.8,1.4L136.7,218.8L136.7,218.8z"/>
				</g>
			</g>
			<g>
				<g>
					<path class="st3" d="M124.8,226.8c-0.4,0-0.8-0.1-1.1-0.3l-10.3-6c-0.6-0.4-1-1.1-1-1.8v-11.9c0-0.7,0.5-1.5,1-1.8l10.3-6
						c0.6-0.3,1.5-0.3,2.1,0l10.3,6c0.6,0.4,1,1.2,1,1.8l0,11.9c0,0.7-0.4,1.5-1,1.8l-10.3,6C125.6,226.7,125.2,226.8,124.8,226.8z
						 M124.8,199.8c-0.2,0-0.4,0-0.5,0.1l-10.3,6c-0.3,0.2-0.6,0.6-0.6,1v11.9c0,0.3,0.3,0.8,0.6,1l10.3,5.9c0.3,0.2,0.8,0.2,1.1,0
						l10.3-6c0.3-0.2,0.6-0.6,0.6-1v0l0-11.9c0-0.3-0.3-0.8-0.6-1l-10.3-5.9C125.2,199.9,125,199.8,124.8,199.8z"/>
				</g>
			</g>
		</g>
		<g>
			<g>
				<g>
					<g>
						<circle class="st23" cx="128.3" cy="210.5" r="3.3"/>
					</g>
					<g>
						<circle class="st24" cx="128.3" cy="210.5" r="2.5"/>
					</g>
					<g>
						
							<rect x="126.8" y="210" transform="matrix(0.7071 -0.7071 0.7071 0.7071 -111.2554 152.3568)" class="st25" width="2.9" height="0.9"/>
					</g>
				</g>
				<g class="st12">
					<path class="st26" d="M128.3,213.7c1.8,0,3.3-1.5,3.3-3.3c0-0.9-0.4-1.7-1-2.3l-4.6,4.6C126.6,213.4,127.4,213.7,128.3,213.7z"
						/>
				</g>
				<g>
					<g>
						
							<rect x="120.6" y="208" transform="matrix(0.7071 -0.7071 0.7071 0.7071 -114.2837 149.7463)" class="st27" width="6" height="9.7"/>
					</g>
					<g>
						
							<rect x="120.6" y="208" transform="matrix(0.7071 -0.7071 0.7071 0.7071 -114.2837 149.7463)" class="st27" width="6" height="9.7"/>
					</g>
					<g class="st28">
						<g>
							<g>
								<path class="st3" d="M127.4,214.7c-0.3-0.3-0.3-0.7,0-1c0.1-0.1,0.2-0.1,0.3-0.2l-4.8-4.8c0,0.1-0.1,0.2-0.2,0.3
									c-0.3,0.3-0.7,0.3-1,0c-0.1-0.1-0.1-0.2-0.2-0.3l-2.1,2.1c0.1,0,0.2,0.1,0.3,0.2c0.3,0.3,0.3,0.7,0,1
									c-0.1,0.1-0.2,0.1-0.3,0.2l4.8,4.8c0-0.1,0.1-0.2,0.2-0.3c0.3-0.3,0.7-0.3,1,0c0.1,0.1,0.2,0.2,0.2,0.3l2.1-2.1
									C127.6,214.8,127.5,214.8,127.4,214.7z M121.7,211.6c-0.2-0.2-0.2-0.5,0-0.7c0.2-0.2,0.5-0.2,0.7,0c0.2,0.2,0.2,0.5,0,0.7
									C122.2,211.8,121.9,211.8,121.7,211.6z M122.3,214.1c-0.5-0.5-0.3-1.5,0.4-2.2c0.7-0.7,1.7-0.9,2.2-0.4
									c0.5,0.5,0.3,1.5-0.4,2.2S122.8,214.6,122.3,214.1z M124.8,214.7c-0.2-0.2-0.2-0.5,0-0.7c0.2-0.2,0.5-0.2,0.7,0
									c0.2,0.2,0.2,0.5,0,0.7C125.3,214.9,125,214.9,124.8,214.7z"/>
							</g>
						</g>
					</g>
				</g>
				<g class="st12">
					
						<rect x="122.3" y="212.1" transform="matrix(0.7071 -0.7071 0.7071 0.7071 -114.9955 151.4685)" class="st26" width="6" height="4.9"/>
				</g>
				<g class="st12">
					<path class="st26" d="M128.7,213.7c0.1,0,0.2,0,0.4-0.1l-3.9-3.9c0,0.1-0.1,0.2-0.1,0.4L128.7,213.7z"/>
				</g>
			</g>
		</g>
	</g>
	<g>
		<g>
			<g class="st2">
				<g>
					<path class="st3" d="M101.5,95.6c0,0.5-0.4,1.1-0.8,1.4l-10.3,6c-0.4,0.3-1.2,0.3-1.6,0l-10.3-6c-0.4-0.3-0.8-0.9-0.8-1.4V83.6
						c0-0.5,0.4-1.1,0.8-1.4l10.3-6c0.4-0.3,1.2-0.3,1.6,0l10.3,6c0.4,0.3,0.8,0.9,0.8,1.4L101.5,95.6L101.5,95.6z"/>
				</g>
			</g>
			<g>
				<g>
					<path class="st3" d="M89.6,103.6c-0.4,0-0.8-0.1-1.1-0.3l-10.3-6c-0.6-0.4-1-1.1-1-1.8V83.6c0-0.7,0.5-1.5,1-1.8l10.3-6
						c0.6-0.3,1.5-0.3,2.1,0l10.3,6c0.6,0.4,1,1.2,1,1.8l0,11.9c0,0.7-0.4,1.5-1,1.8l-10.3,6C90.4,103.5,90,103.6,89.6,103.6z
						 M89.6,76.6c-0.2,0-0.4,0-0.5,0.1l-10.3,6c-0.3,0.2-0.6,0.6-0.6,1v11.9c0,0.3,0.3,0.8,0.6,1l10.3,5.9c0.3,0.2,0.8,0.2,1.1,0
						l10.3-6c0.3-0.2,0.6-0.6,0.6-1v0l0-11.9c0-0.3-0.3-0.8-0.6-1l-10.3-5.9C90,76.7,89.8,76.6,89.6,76.6z"/>
				</g>
			</g>
		</g>
		<g>
			<g>
				<g id="Layer_6_1_">
					<g>
						<path class="st29" d="M96.3,95.6c0-2-2.4-3.8-6.7-3.8l0,0l0,0l0,0l0,0c-4.4,0-6.7,1.8-6.7,3.8c0,0-0.1,0.7,0.9,0.8h5.9h5.9
							C96.4,96.2,96.3,95.6,96.3,95.6z"/>
					</g>
				</g>
				<g class="st22">
					<path d="M90.9,94.2v-1.5h0h-1.2l0.3-0.3l-0.7-0.7c-4.2,0.1-6.5,1.9-6.5,3.8c0,0-0.1,0.7,0.9,0.8h2.3l2.2-2.2L90.9,94.2
						L90.9,94.2z"/>
				</g>
				<g id="Face_1_">
					<g>
						<circle class="st29" cx="89.6" cy="86.7" r="3.9"/>
					</g>
					<g>
						<path class="st30" d="M92.6,88.4V86c0,0,0-0.1,0-0.1c0,0,0-0.1,0-0.1v-0.2l0,0c-0.2-1.5-1.4-2.7-3-2.7s-2.8,1.2-3,2.7l0,0v0.2
							c0,0,0,0.1,0,0.1c0,0,0,0.1,0,0.1v2.5c0,0,0,0.1,0,0.1c0,0,0,0.1,0,0.1v0.2l0,0c0.2,1.5,1.4,2.7,3,2.7s2.8-1.2,3-2.7l0,0v-0.2
							c0,0,0-0.1,0-0.1C92.6,88.5,92.6,88.5,92.6,88.4z"/>
					</g>
					<g>
						<polygon class="st31" points="89.6,92.8 87.4,90.6 89.6,88.8 91.8,90.6 						"/>
					</g>
					<g>
						
							<rect x="89.8" y="91.5" transform="matrix(0.7071 -0.7071 0.7071 0.7071 -38.6771 91.5919)" class="st32" width="2.8" height="1.9"/>
					</g>
					<g>
						
							<rect x="87" y="91.1" transform="matrix(0.7071 -0.7071 0.7071 0.7071 -39.6553 89.2576)" class="st32" width="1.9" height="2.8"/>
					</g>
					<g>
						<path class="st30" d="M92.6,88.4V86c0,0,0-0.1,0-0.1c0,0,0-0.1,0-0.1v-0.2l0,0c-0.2-1.5-1.4-2.7-3-2.7s-2.8,1.2-3,2.7l0,0v0.2
							c0,0,0,0.1,0,0.1c0,0,0,0.1,0,0.1v2.5c0,0,0,0.1,0,0.1c0,0,0,0.1,0,0.1v0.2l0,0c0.2,1.5,1.4,2.7,3,2.7s2.8-1.2,3-2.7l0,0v-0.2
							c0,0,0-0.1,0-0.1C92.6,88.5,92.6,88.5,92.6,88.4z"/>
					</g>
				</g>
				<g id="Hair_top_1_">
					<g>
						<path class="st29" d="M93.4,86.7c0-1.7-1.2-3.2-2.8-3.7c-1.3,0.3-2.3,1-2.3,1.7c0,1.1,1.9,1.8,4.2,1.8
							C92.8,86.6,93.2,86.7,93.4,86.7z"/>
					</g>
					<g>
						<path class="st29" d="M89.6,82.9c-2.1,0-3.9,1.7-3.9,3.9c0,0.2,0,0.4,0.1,0.7l4.5-4.5C90,82.9,89.8,82.9,89.6,82.9z"/>
					</g>
					<g>
						<path class="st29" d="M92.6,84.4c-0.7-0.9-1.8-1.5-3.1-1.5s-2.3,0.6-3.1,1.5L92.6,84.4L92.6,84.4z"/>
					</g>
				</g>
				<g id="Shadows_top_1_">
					<g class="st22">
						<path d="M88.4,84.8l-1.8,1.8l0,0l-0.8,0.8c0.1,0.7,0.4,1.3,0.9,1.8c0.3,1.3,1.5,2.3,2.9,2.3v-5h3
							C90.3,86.6,88.4,85.9,88.4,84.8z"/>
					</g>
				</g>
			</g>
		</g>
	</g>
	<g>
		<g>
			<g class="st2">
				<g>
					<path class="st3" d="M242.3,130.8c0,0.5-0.4,1.1-0.8,1.4l-10.3,6c-0.4,0.3-1.2,0.3-1.6,0l-10.3-6c-0.4-0.3-0.8-0.9-0.8-1.4
						v-11.9c0-0.5,0.4-1.1,0.8-1.4l10.3-6c0.4-0.3,1.2-0.3,1.6,0l10.3,6c0.4,0.3,0.8,0.9,0.8,1.4L242.3,130.8L242.3,130.8z"/>
				</g>
			</g>
			<g>
				<g>
					<path class="st3" d="M230.4,138.8c-0.4,0-0.8-0.1-1.1-0.3l-10.3-6c-0.6-0.4-1-1.1-1-1.8v-11.9c0-0.7,0.5-1.5,1-1.8l10.3-6
						c0.6-0.3,1.5-0.3,2.1,0l10.3,6c0.6,0.4,1,1.2,1,1.8l0,11.9c0,0.7-0.4,1.5-1,1.8l-10.3,6C231.2,138.7,230.8,138.8,230.4,138.8z
						 M230.4,111.8c-0.2,0-0.4,0-0.5,0.1l-10.3,6c-0.3,0.2-0.6,0.6-0.6,1v11.9c0,0.3,0.3,0.8,0.6,1l10.3,5.9c0.3,0.2,0.8,0.2,1.1,0
						l10.3-6c0.3-0.2,0.6-0.6,0.6-1v0l0-11.9c0-0.3-0.3-0.8-0.6-1l-10.3-5.9C230.8,111.9,230.6,111.8,230.4,111.8z"/>
				</g>
			</g>
		</g>
		<g>
			<g>
				<g>
					<g>
						<path class="st33" d="M231.7,131.1h-2.6c-0.2,0-0.4-0.2-0.4-0.4v-1.8h3.5v1.8C232.1,130.9,231.9,131.1,231.7,131.1z"/>
					</g>
				</g>
				<g>
					<g>
						<path class="st34" d="M232.1,128.9h-3.5c0-3.2-2.6-3.4-2.6-6.3s1.9-4.6,4.3-4.6c2.4,0,4.3,1.8,4.3,4.6
							C234.7,125.4,232.1,125.6,232.1,128.9z"/>
					</g>
				</g>
				<g>
					<g class="st35">
						<g>
							<path class="st3" d="M233.6,122.1c-0.2,0-0.4-0.1-0.4-0.3c0-0.2-0.1-0.5-0.2-0.7c-0.1-0.2-0.2-0.4-0.4-0.6
								c-0.2-0.2-0.1-0.4,0-0.6c0.2-0.2,0.4-0.1,0.6,0c0.2,0.2,0.4,0.5,0.5,0.8c0.1,0.3,0.2,0.6,0.3,0.9
								C234,121.8,233.9,122,233.6,122.1C233.6,122.1,233.6,122.1,233.6,122.1z"/>
						</g>
					</g>
					<g class="st35">
						<g>
							<path class="st3" d="M228,124.8c-0.1,0-0.2,0-0.3-0.1c-0.2-0.2-0.4-0.5-0.5-0.8c-0.1-0.3-0.2-0.6-0.3-0.9
								c0-0.2,0.1-0.5,0.3-0.5c0.2,0,0.5,0.1,0.5,0.3c0,0.2,0.1,0.5,0.2,0.7c0.1,0.2,0.2,0.4,0.4,0.6c0.2,0.2,0.1,0.4,0,0.6
								C228.2,124.8,228.1,124.8,228,124.8z"/>
						</g>
					</g>
				</g>
				<g>
					<path class="st36" d="M230.1,122.6c0-0.6-0.5-1.1-1.1-1.1s-1.1,0.5-1.1,1.1c0,0.6,0.5,1.1,1.1,1.1v0h0.6l-0.1,5.5l0.4,0
						l0.1-5.5h0.7l0.1,5.5l0.4,0l-0.1-5.5h0.6c0.6,0,1.1-0.5,1.1-1.1s-0.5-1.1-1.1-1.1c-0.6,0-1.1,0.5-1.1,1.1l0,0.6h-0.7
						L230.1,122.6z M229.6,123.2H229c-0.4,0-0.6-0.3-0.6-0.6c0-0.4,0.3-0.6,0.6-0.6c0.4,0,0.6,0.3,0.6,0.6L229.6,123.2z
						 M231.8,123.2h-0.6l0-0.6c0-0.4,0.3-0.6,0.6-0.6c0.4,0,0.6,0.3,0.6,0.6C232.5,122.9,232.2,123.2,231.8,123.2z"/>
				</g>
				<g>
					<g>
						<path class="st37" d="M232.1,129l-3.4,1.9c0.1,0.1,0.2,0.2,0.4,0.2h0.2l2.9-1.6V129z"/>
					</g>
				</g>
				<g>
					<g>
						<polygon class="st37" points="228.7,129.8 228.7,130.3 230.6,129.2 230.4,128.9 230.2,128.9 						"/>
					</g>
				</g>
				<g>
					<g>
						<rect x="228.7" y="128.9" class="st38" width="3.5" height="0.4"/>
					</g>
				</g>
				<g>
					<path class="st37" d="M230.5,131.1h-0.8c0,0.2,0.1,0.3,0.3,0.4c0,0,0.1,0,0.1,0h0.5h0.1c0.2,0,0.3-0.1,0.4-0.3c0,0,0-0.1,0-0.1
						h0.3l0.8-0.4c0,0,0,0,0,0v-0.5L230.5,131.1z"/>
				</g>
			</g>
		</g>
	</g>
	<g>
		<g>
			<g class="st2">
				<g>
					<path class="st3" d="M242.3,236.4c0,0.5-0.4,1.1-0.8,1.4l-10.3,6c-0.4,0.3-1.2,0.3-1.6,0l-10.3-6c-0.4-0.3-0.8-0.9-0.8-1.4
						v-11.9c0-0.5,0.4-1.1,0.8-1.4l10.3-6c0.4-0.3,1.2-0.3,1.6,0l10.3,6c0.4,0.3,0.8,0.9,0.8,1.4L242.3,236.4L242.3,236.4z"/>
				</g>
			</g>
			<g>
				<g>
					<path class="st3" d="M230.4,244.4c-0.4,0-0.8-0.1-1.1-0.3l-10.3-6c-0.6-0.4-1-1.1-1-1.8v-11.9c0-0.7,0.5-1.5,1-1.8l10.3-6
						c0.6-0.3,1.5-0.3,2.1,0l10.3,6c0.6,0.4,1,1.2,1,1.8l0,11.9c0,0.7-0.4,1.5-1,1.8l-10.3,6C231.2,244.3,230.8,244.4,230.4,244.4z
						 M230.4,217.4c-0.2,0-0.4,0-0.5,0.1l-10.3,6c-0.3,0.2-0.6,0.6-0.6,1v11.9c0,0.3,0.3,0.8,0.6,1l10.3,5.9c0.3,0.2,0.8,0.2,1.1,0
						l10.3-6c0.3-0.2,0.6-0.6,0.6-1v0l0-11.9c0-0.3-0.3-0.8-0.6-1l-10.3-5.9C230.8,217.5,230.6,217.4,230.4,217.4z"/>
				</g>
			</g>
		</g>
		<g>
			<g>
				<g>
					<g>
						<polygon class="st39" points="237.1,225.7 237.1,235.1 223.7,235.1 223.7,225.7 230.4,230.4 						"/>
					</g>
				</g>
				<g class="st2">
					<g>
						<polygon points="230.4,229.2 223.7,235.1 231.3,229.8 						"/>
					</g>
				</g>
				<g class="st2">
					<g>
						<polygon points="230.4,229.2 237.1,235.1 229.5,229.8 						"/>
					</g>
				</g>
				<g class="st6">
					<g>
						<polygon points="230.4,232.7 223.7,225.7 237.1,225.7 						"/>
					</g>
				</g>
				<g>
					<g>
						<polygon class="st40" points="230.4,231.4 223.7,225.7 237.1,225.7 						"/>
					</g>
				</g>
			</g>
		</g>
	</g>
	<g>
		<g>
			<g class="st2">
				<g>
					<path class="st3" d="M66.3,148.4c0,0.5-0.4,1.1-0.8,1.4l-10.3,6c-0.4,0.3-1.2,0.3-1.6,0l-10.3-6c-0.4-0.3-0.8-0.9-0.8-1.4
						v-11.9c0-0.5,0.4-1.1,0.8-1.4l10.3-6c0.4-0.3,1.2-0.3,1.6,0l10.3,6c0.4,0.3,0.8,0.9,0.8,1.4L66.3,148.4L66.3,148.4z"/>
				</g>
			</g>
			<g>
				<g>
					<path class="st3" d="M54.4,156.4c-0.4,0-0.8-0.1-1.1-0.3l-10.3-6c-0.6-0.4-1-1.1-1-1.8v-11.9c0-0.7,0.5-1.5,1-1.8l10.3-6
						c0.6-0.3,1.5-0.3,2.1,0l10.3,6c0.6,0.4,1,1.2,1,1.8l0,11.9c0,0.7-0.4,1.5-1,1.8l-10.3,6C55.2,156.3,54.8,156.4,54.4,156.4z
						 M54.4,129.4c-0.2,0-0.4,0-0.5,0.1l-10.3,6c-0.3,0.2-0.6,0.6-0.6,1v11.9c0,0.3,0.3,0.8,0.6,1l10.3,5.9c0.3,0.2,0.8,0.2,1.1,0
						l10.3-6c0.3-0.2,0.6-0.6,0.6-1v0l0-11.9c0-0.3-0.3-0.8-0.6-1L55,129.5C54.8,129.5,54.6,129.4,54.4,129.4z"/>
				</g>
			</g>
		</g>
		<g>
			<g>
				<path class="st41" d="M59.2,149.1h-9.5c-0.2,0-0.3-0.1-0.3-0.3V137c0-0.2,0.1-0.3,0.3-0.3h9.5c0.2,0,0.3,0.1,0.3,0.3v11.8
					C59.5,149,59.3,149.1,59.2,149.1z"/>
			</g>
			<g class="st42">
				<path d="M58.6,148.6h-7.9c-0.2,0-0.3-0.1-0.3-0.3V138c0-0.2,0.1-0.3,0.3-0.3h7.9c0.2,0,0.3,0.1,0.3,0.3v10.2
					C58.9,148.4,58.8,148.6,58.6,148.6z"/>
			</g>
			<g>
				<polygon class="st43" points="55,136.2 55,135.7 53.8,135.7 53.8,136.2 52.5,136.2 52.5,137.1 56.3,137.1 56.3,136.2 				"/>
			</g>
			<g>
				<path class="st3" d="M58.4,148.3h-7.9c-0.2,0-0.3-0.1-0.3-0.3v-10.2c0-0.2,0.1-0.3,0.3-0.3h7.9c0.2,0,0.3,0.1,0.3,0.3V148
					C58.7,148.2,58.5,148.3,58.4,148.3z"/>
			</g>
			<g>
				<rect x="52.5" y="137" class="st44" width="3.7" height="0.3"/>
			</g>
			<g>
				<circle class="st3" cx="54.4" cy="136.2" r="0.2"/>
			</g>
			<g>
				<g>
					<rect x="51.4" y="140.7" class="st45" width="0.8" height="0.8"/>
				</g>
				<g>
					<rect x="53" y="140.7" class="st45" width="4.4" height="0.8"/>
				</g>
			</g>
			<g>
				<g>
					<g>
						<rect x="51.4" y="138.9" class="st43" width="0.8" height="0.8"/>
					</g>
					<g>
						<rect x="53" y="138.9" class="st43" width="4.4" height="0.8"/>
					</g>
				</g>
				<g>
					<g>
						<rect x="51.4" y="142.5" class="st43" width="0.8" height="0.8"/>
					</g>
					<g>
						<rect x="53" y="142.5" class="st43" width="4.4" height="0.8"/>
					</g>
				</g>
				<g>
					<g>
						<rect x="51.4" y="144.3" class="st43" width="0.8" height="0.8"/>
					</g>
					<g>
						<rect x="53" y="144.3" class="st43" width="4.4" height="0.8"/>
					</g>
				</g>
				<g>
					<g>
						<rect x="51.4" y="146.1" class="st43" width="0.8" height="0.8"/>
					</g>
					<g>
						<rect x="53" y="146.1" class="st43" width="4.4" height="0.8"/>
					</g>
				</g>
			</g>
			<g class="st6">
				<g>
					<polygon points="59.5,144.2 52.5,137.3 56.3,137.3 59.5,140.5 					"/>
				</g>
			</g>
		</g>
	</g>
	<g>
		<g>
			<g class="st2">
				<g>
					<path class="st3" d="M277.5,218.8c0,0.5-0.4,1.1-0.8,1.4l-10.3,6c-0.4,0.3-1.2,0.3-1.6,0l-10.3-6c-0.4-0.3-0.8-0.9-0.8-1.4
						v-11.9c0-0.5,0.4-1.1,0.8-1.4l10.3-6c0.4-0.3,1.2-0.3,1.6,0l10.3,6c0.4,0.3,0.8,0.9,0.8,1.4L277.5,218.8L277.5,218.8z"/>
				</g>
			</g>
			<g>
				<g>
					<path class="st3" d="M265.6,226.8c-0.4,0-0.8-0.1-1.1-0.3l-10.3-6c-0.6-0.4-1-1.1-1-1.8v-11.9c0-0.7,0.5-1.5,1-1.8l10.3-6
						c0.6-0.3,1.5-0.3,2.1,0l10.3,6c0.6,0.4,1,1.2,1,1.8l0,11.9c0,0.7-0.4,1.5-1,1.8l-10.3,6C266.4,226.7,266,226.8,265.6,226.8z
						 M265.6,199.8c-0.2,0-0.4,0-0.5,0.1l-10.3,6c-0.3,0.2-0.6,0.6-0.6,1v11.9c0,0.3,0.3,0.8,0.6,1l10.3,5.9c0.3,0.2,0.8,0.2,1.1,0
						l10.3-6c0.3-0.2,0.6-0.6,0.6-1v0l0-11.9c0-0.3-0.3-0.8-0.6-1l-10.3-5.9C266,199.9,265.8,199.8,265.6,199.8z"/>
				</g>
			</g>
		</g>
		<g>
			<g>
				<g id="Layer_1_2_">
					<g>
						<g>
							<g>
								<rect x="268.7" y="209" class="st46" width="1.1" height="9.1"/>
							</g>
							<g>
								<rect x="269.7" y="209" class="st47" width="0.2" height="9.1"/>
							</g>
						</g>
						<g>
							<g>
								<g>
									<path class="st48" d="M268.3,219.1h-5.3c-0.5,0-0.9-0.4-0.9-0.9l-0.3-9c0-0.5,0.4-0.9,0.9-0.9h5.8c0.5,0,0.9,0.4,0.9,0.9
										l-0.3,9C269.2,218.8,268.8,219.1,268.3,219.1z"/>
								</g>
								<g>
									<g>
										<path class="st49" d="M264.6,217.4h-0.9c0,0-0.1,0-0.1-0.1v-1c0,0,0-0.1,0.1-0.1h0.9c0,0,0.1,0,0.1,0.1L264.6,217.4
											C264.7,217.3,264.7,217.4,264.6,217.4z"/>
									</g>
									<g>
										<path class="st49" d="M266.2,217.4h-0.9c0,0-0.1,0-0.1-0.1v-1c0,0,0-0.1,0.1-0.1h0.9c0,0,0.1,0,0.1,0.1L266.2,217.4
											C266.2,217.3,266.2,217.4,266.2,217.4z"/>
									</g>
									<g>
										<path class="st49" d="M267.7,217.4h-0.9c0,0-0.1,0-0.1-0.1v-1c0,0,0-0.1,0.1-0.1h0.9c0,0,0.1,0,0.1,0.1L267.7,217.4
											C267.7,217.3,267.7,217.4,267.7,217.4z"/>
									</g>
									<g>
										<path class="st49" d="M264.6,215.9h-0.9c0,0-0.1,0-0.1-0.1v-1c0,0,0-0.1,0.1-0.1h0.9c0,0,0.1,0,0.1,0.1L264.6,215.9
											C264.7,215.9,264.7,215.9,264.6,215.9z"/>
									</g>
									<g>
										<path class="st49" d="M266.2,215.9h-0.9c0,0-0.1,0-0.1-0.1v-1c0,0,0-0.1,0.1-0.1h0.9c0,0,0.1,0,0.1,0.1L266.2,215.9
											C266.2,215.9,266.2,215.9,266.2,215.9z"/>
									</g>
									<g>
										<path class="st49" d="M267.7,215.9h-0.9c0,0-0.1,0-0.1-0.1v-1c0,0,0-0.1,0.1-0.1h0.9c0,0,0.1,0,0.1,0.1L267.7,215.9
											C267.7,215.9,267.7,215.9,267.7,215.9z"/>
									</g>
									<g>
										<path class="st49" d="M264.6,214.4h-0.9c0,0-0.1,0-0.1-0.1v-1c0,0,0-0.1,0.1-0.1h0.9c0,0,0.1,0,0.1,0.1L264.6,214.4
											C264.7,214.4,264.7,214.4,264.6,214.4z"/>
									</g>
									<g>
										<path class="st49" d="M266.2,214.4h-0.9c0,0-0.1,0-0.1-0.1v-1c0,0,0-0.1,0.1-0.1h0.9c0,0,0.1,0,0.1,0.1L266.2,214.4
											C266.2,214.4,266.2,214.4,266.2,214.4z"/>
									</g>
									<g>
										<path class="st49" d="M267.7,214.4h-0.9c0,0-0.1,0-0.1-0.1v-1c0,0,0-0.1,0.1-0.1h0.9c0,0,0.1,0,0.1,0.1L267.7,214.4
											C267.7,214.4,267.7,214.4,267.7,214.4z"/>
									</g>
								</g>
								<g>
									<g>
										<path class="st50" d="M264.4,218H264c-0.2,0-0.3,0.1-0.3,0.3c0,0.2,0.1,0.3,0.3,0.3h0.5c0.2,0,0.3-0.1,0.3-0.3
											C264.7,218.1,264.6,218,264.4,218z"/>
									</g>
									<g>
										<path class="st51" d="M265.9,218h-0.5c-0.2,0-0.3,0.1-0.3,0.3c0,0.2,0.1,0.3,0.3,0.3h0.5c0.2,0,0.3-0.1,0.3-0.3
											C266.2,218.1,266.1,218,265.9,218z"/>
									</g>
									<g>
										<path class="st52" d="M267.4,218H267c-0.2,0-0.3,0.1-0.3,0.3c0,0.2,0.1,0.3,0.3,0.3h0.5c0.2,0,0.3-0.1,0.3-0.3
											C267.7,218.1,267.6,218,267.4,218z"/>
									</g>
								</g>
							</g>
							<g>
								<path class="st46" d="M268.7,207.3h-6c-0.1,0-0.2,0.1-0.2,0.2v1.2h6.3v-1.2C268.8,207.4,268.8,207.3,268.7,207.3z"/>
							</g>
							<g>
								<rect x="263.2" y="205.7" class="st49" width="5.1" height="3.2"/>
							</g>
							<g>
								<rect x="263.2" y="208.9" class="st46" width="5.1" height="0.1"/>
							</g>
							<g>
								<path class="st47" d="M265.7,209.5c-1.8,0-3.3,0.2-3.3,0.5v1.1v1.1c0,0.3,1.5,0.5,3.3,0.5c1.8,0,3.3-0.2,3.3-0.5v-1.1v-1.1
									C268.9,209.8,267.5,209.5,265.7,209.5z"/>
							</g>
							<g>
								<rect x="262.8" y="210.2" class="st46" width="5.8" height="2"/>
							</g>
						</g>
					</g>
				</g>
				<g id="Layer_2_2_">
				</g>
			</g>
		</g>
	</g>
	<g>
		<path class="st3" d="M160,196.9c-20.3,0-36.8-16.5-36.8-36.8c0-20.3,16.5-36.8,36.8-36.8s36.8,16.5,36.8,36.8
			C196.8,180.4,180.3,196.9,160,196.9z M160,124c-19.9,0-36.2,16.2-36.2,36.2s16.2,36.2,36.2,36.2c19.9,0,36.2-16.2,36.2-36.2
			S179.9,124,160,124z"/>
	</g>
	<g>
		<g>
			<g>
				<g>
					<path class="st3" d="M173.7,159.4c-2.7,0-4.9-2.2-4.9-4.9v-0.3h9.8v0.3c0,2.4-1.7,4.4-4,4.8C174.3,159.4,174,159.4,173.7,159.4
						z M169.5,154.9c0.2,2.2,2,3.9,4.2,3.9c0.3,0,0.6,0,0.8-0.1c1.9-0.3,3.3-1.9,3.4-3.8H169.5z"/>
				</g>
				<g>
					<path class="st3" d="M174.9,174.8h-29.7v-16.2l0.4,0.1c0.3,0,0.6,0.1,0.8,0.1c2.3,0,4.2-1.9,4.2-4.2h0.6c0,2.3,1.9,4.2,4.2,4.2
						c1.2,0,2.3-0.5,3.1-1.3c0.7-0.8,1.1-1.8,1.1-2.9v-0.3h9.8v0.3c0,2.3,1.9,4.2,4.2,4.2c0.1,0,0.2,0,0.3,0c0.2,0,0.4,0,0.6-0.1
						l0.4-0.1V174.8z M145.8,174.2h28.5v-14.8c-0.1,0-0.2,0-0.3,0c-0.1,0-0.2,0-0.3,0l0,0c-2.6,0-4.7-2-4.9-4.6h-8.5
						c-0.1,1.1-0.5,2.2-1.3,3c-0.9,1-2.2,1.6-3.5,1.6c-2.1,0-3.9-1.3-4.6-3.1c-0.7,1.8-2.5,3.1-4.6,3.1c-0.2,0-0.4,0-0.6,0V174.2z"
						/>
				</g>
				<g>
					<path class="st3" d="M159.1,174.8h-13.6v-0.6h12.9v-15.8c-0.8,0.7-1.9,1-3,1c-2.1,0-3.9-1.3-4.6-3.1c-0.7,1.8-2.5,3.1-4.6,3.1
						c-0.3,0-0.6,0-0.9-0.1l0.1-0.6c0.3,0,0.6,0.1,0.8,0.1c2.3,0,4.2-1.9,4.2-4.2h0.6c0,2.3,1.9,4.2,4.2,4.2c1.2,0,2.3-0.5,3.1-1.3
						l0.6-0.6V174.8z"/>
				</g>
				<g>
					<path class="st3" d="M146.3,159.4c-0.3,0-0.6,0-0.9-0.1c-2.3-0.5-4-2.5-4-4.8v-0.3h9.8v0.3C151.2,157.2,149,159.4,146.3,159.4z
						 M142.1,154.9c0.1,1.9,1.5,3.5,3.4,3.8c0.3,0,0.5,0.1,0.8,0.1c2.2,0,4.1-1.7,4.2-3.9H142.1z"/>
				</g>
				<g>
					<path class="st3" d="M164.6,159.4c-2.7,0-4.9-2.2-4.9-4.9v-0.3h9.8v0.3C169.4,157.2,167.3,159.4,164.6,159.4z M160.3,154.9
						c0.2,2.2,2,3.9,4.2,3.9c2.2,0,4.1-1.7,4.2-3.9H160.3z"/>
				</g>
				<g>
					<path class="st3" d="M155.5,159.4c-2.7,0-4.9-2.2-4.9-4.9v-0.3l9.7,0v0.3c0,1.2-0.5,2.4-1.3,3.3
						C158.1,158.8,156.8,159.4,155.5,159.4z M151.3,154.8c0.2,2.2,2,3.9,4.2,3.9c1.2,0,2.3-0.5,3.1-1.3c0.6-0.7,1-1.6,1.1-2.5
						L151.3,154.8z"/>
				</g>
				<g>
					<path class="st3" d="M178.6,178.7h-37.1v-4.5h37.1V178.7z M142.1,178h35.8v-3.3h-35.8V178z"/>
				</g>
				<g>
					<rect x="153.9" y="166.8" class="st3" width="3.1" height="0.6"/>
				</g>
				<g>
					<path class="st3" d="M178.7,154.9h-37.4l1.5-3.6l3.9-9.7h26.6l3.9,9.7L178.7,154.9z M142.2,154.2h35.5l-1.1-2.8l-3.8-9.3h-25.8
						l-3.8,9.3L142.2,154.2z"/>
				</g>
				<g>
					<g>
						
							<rect x="162.5" y="163.9" transform="matrix(0.712 -0.7022 0.7022 0.712 -67.8682 162.9194)" class="st3" width="4.3" height="0.6"/>
					</g>
					<g>
						
							<rect x="166" y="167.3" transform="matrix(0.712 -0.7022 0.7022 0.712 -69.2934 166.3268)" class="st3" width="4.3" height="0.6"/>
					</g>
					<g>
						
							<rect x="160.6" y="165.6" transform="matrix(0.7052 -0.7091 0.7091 0.7052 -68.5823 166.8949)" class="st3" width="11.5" height="0.6"/>
					</g>
				</g>
				<g>
					<rect x="149.1" y="143.7" class="st3" width="21.9" height="0.6"/>
				</g>
			</g>
		</g>
	</g>
	<g>
		
			<rect x="116.3" y="90.6" transform="matrix(0.7129 -0.7012 0.7012 0.7129 -47.8371 115.0345)" class="st3" width="0.6" height="50.7"/>
	</g>
	<g>
		<polygon class="st3" points="159.6,124 159.6,103 160.2,103 160.3,124 		"/>
	</g>
	<g>
		
			<rect x="191.2" y="137" transform="matrix(0.8954 -0.4453 0.4453 0.8954 -39.6367 105.9094)" class="st3" width="28.9" height="0.6"/>
	</g>
	<g>
		
			<rect x="195.6" y="149" transform="matrix(0.9866 -0.1631 0.1631 0.9866 -21.3349 38.6602)" class="st3" width="58.5" height="0.6"/>
	</g>
	<g>
		
			<rect x="222.9" y="157.4" transform="matrix(0.4463 -0.8949 0.8949 0.4463 -47.7928 305.7635)" class="st3" width="0.6" height="68.2"/>
	</g>
	<g>
		
			<rect x="203.4" y="178.3" transform="matrix(0.7064 -0.7079 0.7079 0.7064 -84.3346 204.0368)" class="st3" width="0.6" height="50.7"/>
	</g>
	<g>
		
			<rect x="128" y="196.2" transform="matrix(0.5567 -0.8307 0.8307 0.5567 -103.1668 199.6727)" class="st3" width="14.9" height="0.6"/>
	</g>
	<g>
		
			<rect x="62.7" y="191.5" transform="matrix(0.8933 -0.4496 0.4496 0.8933 -75.8719 64.0259)" class="st3" width="68.3" height="0.6"/>
	</g>
	<g>
		
			<rect x="94.8" y="119.7" transform="matrix(0.1677 -0.9858 0.9858 0.1677 -67.6609 217.8032)" class="st3" width="0.6" height="58.6"/>
	</g>
</g>
</svg>
