<?xml version="1.0" encoding="utf-8"?>
<!-- Generator: Adobe Illustrator 21.0.0, SVG Export Plug-In . SVG Version: 6.00 Build 0)  -->
<svg version="1.1" id="Layer_1" xmlns="http://www.w3.org/2000/svg" xmlns:xlink="http://www.w3.org/1999/xlink" x="0px" y="0px"
	 viewBox="0 0 54.1 104.8" style="enable-background:new 0 0 54.1 104.8;" xml:space="preserve">
<style type="text/css">
	.st0{fill:none;}
	.st1{fill:#584A9C;}
	.st2{fill:#6D61A9;}
</style>
<g>
	<path class="st0" d="M16.6,80.7l-2.4,1.7l0.2,0l-1.8,1.2l0.2,0.2L12,83.9l0.1,0.1l-0.5,0.3v0l0.2,0l-0.2,0.1v8.3l0.4-0.3l0,0
		l2.7-2.9l-0.3,0.1l0.8-1.1L15.1,89l0.4-0.4l-0.3-0.2l1.4-1.4l0.1,0.5l1.4-2.2l0.1,0.2l0.7-0.9l0.1,0.2l1-1.9l-0.2,0.1l0.3-0.2
		l0.1,0.3l0.9-0.5l-0.5,0l0.2-0.2l-0.1,0l1.6-0.8l-0.1,0.2l0.5-0.2l-0.2,0l1-1.2c0,0-0.1-0.1-0.1-0.1l-0.1,0l0.1-0.1
		c-1.3-1.1-2.6-2.2-4.1-2.9l-2.9,3.2L16.6,80.7z"/>
	<path class="st0" d="M23.5,83.1l-0.3,0.1l0.1-0.1L22.4,83l0.4,0.8l-0.3-0.1l0.2,0.2l-0.8,0.3l0.3,0.1l-0.8,0.4l0.2,0l-1.6,1.8
		l0-0.2l-0.7,0.5l0.3-0.1L19,87.1l0.1-0.3l-0.7,0.5l0,0l-0.5,0.3l0.4,0.3l-1,0.4l0.3,0.2l-0.7,0.3l0.1,0l-1.1,1.1l0.5,0.1l-1.8,1.3
		l0.1-0.1L14,91.7l0.2,0.1l-1.4,1l0.2,0l-1.4,1.4v6.3H14l0.3-0.3l-0.4-0.1l0.6-0.3l-0.2-0.1l1.7-0.2l-0.4-0.2l0.2-0.1l-0.3,0
		l0.3-0.1l-0.1-0.3L15.4,99l0.2-0.2l0,0l1.4-1.3l0,0l2.7-2.9l-0.3,0.1l0.8-1.1L20.1,94l0.4-0.4l-0.3-0.2l1.4-1.4l0.1,0.5l1.4-2.2
		l0.1,0.2l0.7-0.9l0.1,0.2l1-1.9l-0.2,0.1l0.3-0.2l0.1,0.3l0.9-0.5l-0.5,0l0.2-0.2l-0.1,0l1.6-0.8l-0.1,0.2l0.5-0.2l-0.2,0l1.1-1.3
		l-0.3,0l0.5-0.3c-1.3-1-2.6-2.2-3.8-3.3l-1.6,1.3L23.5,83.1z"/>
	<path class="st0" d="M24.8,81.7C24.8,81.7,24.8,81.6,24.8,81.7l-0.2,0L24.8,81.7z"/>
	<path class="st0" d="M28.6,85.3l0.2-0.2c0,0,0,0,0,0L28.6,85.3L28.6,85.3z"/>
	<path class="st0" d="M30,86.7l-1.7,1.4l0.2,0l-0.3,0.1l0.1-0.1L27.4,88l0.4,0.8l-0.3-0.1l0.2,0.2l-0.8,0.3l0.3,0.1l-0.8,0.4l0.2,0
		l-1.6,1.8l0-0.2l-0.7,0.5l0.3-0.1L24,92.1l0.1-0.3l-0.7,0.5l0,0l-0.5,0.3l0.4,0.3l-1,0.4l0.3,0.2l-0.7,0.3l0.1,0l-1.1,1.1l0.5,0.1
		l-1.8,1.3l0.1-0.1L19,96.7l0.2,0.1l-1.4,1l0.2,0l-2.6,2.7l0.2,0l-0.5,0.1h8.6l0.5-0.9l-0.1,0.9h0l1-0.8l0.1,0.2l1-1.3l0,0.2
		l0.4-0.5l0.1,0.1l0.1-0.9l0.2,0.2l1.2-1.8l0,0.2l1.7-2.4l0,0.2l4.1-3.8l-0.1,0l2.5-2.6c-2.3,0.1-4.3-0.5-6.1-1.6l-0.7,0.4L30,86.7z
		 M33.1,91l-0.1,0.3L33.1,91z"/>
	<path class="st0" d="M37.7,89.9l-0.2,0.3l-0.4-0.3l-1.1,2l-0.1-0.2l-1.1,1.2l0-0.4l-1.3,1.2l0.3,0l-4.6,4.1l0-0.1l-0.4,0.9l0-0.1
		l-2,2.1h6.8l1.3-1.7l0,0.2l4.1-3.8l-0.1,0l5.7-5.9l0,0.2l0.3-0.5l0.1,0.1l0.1-0.3l-2-3.7c-0.9,0.6-1.7,1-2.6,1.4l-3,3.4L37.7,89.9z
		 M33.3,94.4L33.3,94.4L33.3,94.4L33.3,94.4z M38.1,96l-0.1,0.3L38.1,96z"/>
	<path class="st0" d="M42.7,94.9l-0.2,0.3l-0.4-0.3l-1.1,2l-0.1-0.2l-1.1,1.2l0-0.4l-1.3,1.2l0.3,0l-2.1,1.8h6.9l0.1-0.2l0,0.2
		c0,0,0.1,0,0.1,0l0.9-1.5l-0.2,1l3.7-4.3c0-0.7-0.2-1.3-0.5-2L46.4,91l-3.6,4.1L42.7,94.9z M38.3,99.4L38.3,99.4L38.3,99.4
		L38.3,99.4z M47.5,96.4L47.5,96.4L47.5,96.4z"/>
	<path class="st0" d="M8.8,95.2l0.6-0.3l-0.2-0.1l1.7-0.2l-0.4-0.2l0.2-0.1l-0.3,0l0.3-0.1l-0.1-0.3L10.4,94l0.2-0.2l0,0l1.1-1v-8.3
		l-0.3,0.2l-0.9,1.7l0.3,0l-0.4,0.2l-3.9,7.2c-0.8,1.4-0.7,3,0,4.3l2.8-2.7L8.8,95.2z"/>
	<path class="st0" d="M16.7,77l0.4-0.5c-0.4-0.1-0.8-0.2-1.2-0.3l-1.8,3.4l2.6-2.9L16.7,77z"/>
	<polygon class="st0" points="11.6,84.4 11.6,84.4 11.6,84.4 	"/>
	<path class="st0" d="M10.4,95.6l0.2,0l-1.1,0.2l0.3,0.5L9,96.3l0.1,0.1l-0.5,0.3L9,96.7l-0.7,0.4l0.4-0.2l-0.2,0.6l0,0l0,0l0,0
		l-0.2,0.4l0-0.1L7.1,99c0.8,1,2.1,1.6,3.5,1.6h1v-6.3L10.4,95.6z"/>
	<polygon class="st1" points="33.3,94.4 33.4,94.4 33.3,94.3 	"/>
	<path class="st1" d="M43.7,100.6L43.7,100.6c0.1,0,0.1,0,0.2,0l0-0.2L43.7,100.6z"/>
	<path class="st1" d="M45,99.1l-0.9,1.5c2.6-0.1,4.5-2.4,4.4-4.8l-3.7,4.3L45,99.1z"/>
	<polygon class="st1" points="23.7,100.6 24.1,100.6 24.2,99.7 	"/>
	<path class="st1" d="M34.1,90.4l-4.1,3.8l0-0.2l-1.7,2.4l0-0.2l-1.2,1.8l-0.2-0.2l-0.1,0.9l-0.1-0.1l-0.4,0.5l0-0.2l-1,1.3
		l-0.1-0.2l-1,0.8h2.7l2-2.1l0,0.1l0.4-0.9l0,0.1l4.6-4.1l-0.3,0l1.3-1.2l0,0.4l1.1-1.2l0.1,0.2l1.1-2l0.4,0.3l0.2-0.3l0.1,0.2
		l3-3.4c-1.6,0.7-3,1.1-4.3,1.1L34.1,90.4L34.1,90.4z"/>
	<polygon class="st1" points="38.3,99.4 38.4,99.4 38.3,99.3 	"/>
	<polygon class="st1" points="45,89.2 44.7,89.7 44.7,89.5 39,95.4 39.1,95.4 34.9,99.1 34.9,98.9 33.6,100.6 36.8,100.6 38.8,98.8 
		38.5,98.7 39.9,97.6 39.9,97.9 40.9,96.7 41,96.9 42.2,94.9 42.5,95.2 42.7,94.9 42.8,95.1 46.4,91 45.3,89 45.1,89.3 	"/>
	<path class="st1" d="M23.4,80.4C23.4,80.4,23.4,80.3,23.4,80.4l-0.1,0L23.4,80.4z"/>
	<path class="st1" d="M22.7,81.7l-0.5,0.2l0.1-0.2l-1.6,0.8l0.1,0l-0.2,0.2l0.5,0l-0.9,0.5l-0.1-0.3l-0.3,0.2l0.2-0.1l-1,1.9
		L19,84.7l-0.7,0.9l-0.1-0.2l-1.4,2.2l-0.1-0.5l-1.4,1.4l0.3,0.2L15.1,89l0.1-0.3l-0.8,1.1l0.3-0.1L12,92.5l0,0l-0.4,0.3v1.5
		l1.4-1.4l-0.2,0l1.4-1L14,91.7l0.6-0.6l-0.1,0.1l1.8-1.3l-0.5-0.1l1.1-1.1l-0.1,0l0.7-0.3l-0.3-0.2l1-0.4l-0.4-0.3l0.5-0.3l0,0
		l0.7-0.5L19,87.1l0.5-0.4l-0.3,0.1l0.7-0.5l0,0.2l1.6-1.8l-0.2,0l0.8-0.4l-0.3-0.1l0.8-0.3l-0.2-0.2l0.3,0.1L22.4,83l0.9,0.2
		l-0.1,0.1l0.3-0.1l-0.2,0l1.6-1.3c0,0-0.1-0.1-0.1-0.1l-0.2,0l0.1,0c-0.4-0.4-0.8-0.7-1.2-1.1l-0.2,0.1l0.2-0.2c0,0,0,0,0,0l-1,1.2
		L22.7,81.7z"/>
	<path class="st1" d="M23.5,80.5C23.5,80.5,23.5,80.5,23.5,80.5l-0.2,0.1L23.5,80.5z"/>
	<polygon class="st1" points="15.4,99 15.6,98.8 15.6,98.8 	"/>
	<path class="st1" d="M28.8,85.3l-0.5,0.3l0.3-0.3l0,0l-1.1,1.3l0.2,0l-0.5,0.2l0.1-0.2l-1.6,0.8l0.1,0l-0.2,0.2l0.5,0l-0.9,0.5
		l-0.1-0.3l-0.3,0.2l0.2-0.1l-1,1.9L24,89.7l-0.7,0.9l-0.1-0.2l-1.4,2.2l-0.1-0.5l-1.4,1.4l0.3,0.2L20.1,94l0.1-0.3l-0.8,1.1
		l0.3-0.1L17,97.5l0,0l-1.4,1.3l0.1,0.3l-0.3,0.1l0.3,0l-0.2,0.1l0.4,0.2l-1.7,0.2l0.2,0.1l-0.6,0.3l0.4,0.1l-0.3,0.3h1.1l0.5-0.1
		l-0.2,0l2.6-2.7l-0.2,0l1.4-1L19,96.7l0.6-0.6l-0.1,0.1l1.8-1.3l-0.5-0.1l1.1-1.1l-0.1,0l0.7-0.3l-0.3-0.2l1-0.4l-0.4-0.3l0.5-0.3
		l0,0l0.7-0.5L24,92.1l0.5-0.4l-0.3,0.1l0.7-0.5l0,0.2l1.6-1.8l-0.2,0l0.8-0.4l-0.3-0.1l0.8-0.3l-0.2-0.2l0.3,0.1L27.4,88l0.9,0.2
		l-0.1,0.1l0.3-0.1l-0.2,0l1.7-1.4l-0.3-0.1l0.7-0.4c-0.5-0.3-1.1-0.7-1.6-1.1l-0.2,0.2L28.8,85.3z"/>
	<polygon class="st1" points="28.8,85.3 28.6,85.3 28.3,85.6 	"/>
	<path class="st1" d="M28.6,85.3l0.2-0.2c0,0,0,0,0,0l-0.5,0.3L28.6,85.3z"/>
	<polygon class="st1" points="11.6,84.4 11.6,84.5 11.8,84.4 	"/>
	<path class="st1" d="M12.1,84L12,83.9l0.9-0.1l-0.2-0.2l1.8-1.2l-0.2,0l2.4-1.7l-0.2,0l2.9-3.2c-0.7-0.4-1.4-0.6-2.1-0.9L16.7,77
		l0-0.3l-2.6,2.9l-2.5,4.6v0.1L12.1,84z"/>
	<polygon class="st1" points="10.4,94 10.6,93.8 10.6,93.8 	"/>
	<polygon class="st1" points="8.5,97.5 8.5,97.5 8.5,97.5 	"/>
	<path class="st1" d="M8.3,97.8l0,0.1l0.2-0.4l0.2-0.6l-0.4,0.2L9,96.7l-0.4-0.1l0.5-0.3L9,96.3l0.7-0.1l-0.3-0.5l1.1-0.2l-0.2,0
		l1.2-1.3v-1.5l-1.1,1l0.1,0.3l-0.3,0.1l0.3,0l-0.2,0.1l0.4,0.2l-1.7,0.2l0.2,0.1l-0.6,0.3l0.4,0.1l-2.8,2.7
		c0.2,0.3,0.4,0.6,0.6,0.9L8.3,97.8z"/>
	<polygon class="st1" points="10.5,86.4 10.4,86.6 10.8,86.4 	"/>
	<polygon class="st1" points="11.6,84.4 11.6,84.4 11.6,84.4 11.6,84.2 11.3,84.8 11.6,84.5 	"/>
</g>
<g>
	<polygon class="st2" points="53.2,95.1 53.1,95.5 53.5,95.6 53.2,95.1 	"/>
	<polygon class="st2" points="53.3,97.4 54,98 53.2,95.9 53.5,97.4 53.3,97.4 	"/>
	<polygon class="st2" points="26.9,103.4 27.1,103.4 26.9,103.4 	"/>
	<polygon class="st2" points="8.1,103.2 8.3,103.1 8.1,103.2 	"/>
	<polygon class="st2" points="5.3,102.6 5.4,102.6 5.3,102.6 	"/>
	<polygon class="st2" points="26.9,103.4 26.4,103.3 26.9,103.4 	"/>
	<polygon class="st2" points="52.9,101.9 53,101.6 52.9,101.9 	"/>
	<polygon class="st2" points="35.2,103.1 35.5,103 35.2,103.1 	"/>
	<polygon class="st2" points="41.5,103.1 41.3,103.4 41.5,103.1 	"/>
	<polygon class="st2" points="51.1,102.2 51.2,102.1 51.1,102.2 	"/>
	<polygon class="st2" points="30.6,103 30.6,102.9 30.6,103 	"/>
	<polygon class="st2" points="50.3,88.3 50.2,88.4 50.3,88.3 	"/>
	<polygon class="st2" points="52.5,95.5 52.3,95.5 52.5,95.5 	"/>
	<polygon class="st2" points="2.6,99.1 2.6,99.1 2.6,99.1 	"/>
	<polygon class="st2" points="18.7,49.5 18.1,49.5 18.7,49.5 	"/>
	<polygon class="st2" points="52.8,102 52.6,102.2 52.8,102 	"/>
	<polygon class="st2" points="18.1,49.5 18,49.6 18.1,49.5 	"/>
	<polygon class="st2" points="7.3,87.6 7.2,87.7 7.3,87.6 	"/>
	<polygon class="st2" points="2.3,96.3 2.4,96.1 2.3,96.3 	"/>
	<polygon class="st2" points="9.5,82.8 9.6,82.5 9.5,82.8 	"/>
	<polygon class="st2" points="12,78 11.9,78.3 12,78 	"/>
	<polygon class="st2" points="42.3,73.8 42.2,74.2 42.3,73.8 	"/>
	<polygon class="st2" points="52.8,101.8 52.8,102 52.9,101.8 52.8,101.8 	"/>
	<polygon class="st2" points="7.6,81.6 8,80.9 7.6,81.6 	"/>
	<polygon class="st2" points="38,36.4 38,36.6 38,36.4 	"/>
	<polygon class="st2" points="9.2,78.6 9.6,78.1 9.2,78.6 	"/>
	<polygon class="st2" points="42.2,74.2 42.2,74.2 42.2,74.2 	"/>
	<path class="st2" d="M45.5,78.9l-1.8-2.3l0.1-0.1l-1.6-2.3l-0.4,0.3l-0.4-0.7l0.3,0.2l-0.3-0.3l0.6,0.3l-1.3-1.8l0.9,1.2l-3.2-5.8
		l0.5,0.1l-1.1-1.5l0.5,0.6l-0.7-4.5l0.3,0l-0.1-11l0.1,0.2l-0.3-1.9l0.1,0.2l0.1-11.5l0.3,0l0-1.6L37.8,37l0.3-3.9l-2,0.2l1.2-0.2
		L33,33.2l0.1-0.2L28.7,33l0,0.5l-0.2-0.3l-0.1,0.4l-0.1-0.5l-0.7,0.1l0.2-0.3l-11.5,0.2l0.1,0l-0.1,0l0.3,4.5l0.2-0.3L16.5,38
		l0-0.1l-0.2,5.9l0-0.1L16,54.7l0.2-0.1L16,55.3l0.3-0.2l-0.2,11.3L16,65.9l-3.1,6.5l0-0.4l-1.7,3.2l0-0.2L3.6,90.3L4,88.4l-1.5,3.9
		l-0.1-0.5l-1.9,4.3l0-0.4l-0.1,0.7l0-0.3l0.4,4.4l-0.4-0.2l1.2,1.6l-0.2-0.1l4.9,2.9l-0.3-0.2l2-0.1l-0.5,0.2l1.3-0.1l-0.7-0.1
		l1.9-0.1l0,0l1.2-0.2l0,0.5l2-0.4l-0.1,0.3l1.4-0.2l-0.2,0.1l3.2,0l-0.6,0.4l4.6-0.4l-0.3,0l1.8,0l-0.2,0.2l3.6-0.3l-0.2,0.1l8,0.1
		l-0.3,0.1l1.5-0.1l-0.5-0.3l2.5-0.2l-0.1,0.1l1.2-0.2l-0.4,0.3l1.7-0.2l-0.9,0.1l1.1,0.3l0,0l1,0.1l-0.3-0.1l2.5-0.6l-0.2,0.6
		l2.4,0.4l-0.1-0.3l5.8-2l0,0.5l1.9-2.1l0.1,0.6l0.4-1.8l0.2,0.7l0-2l-0.1,0.4l0.3,0.1l-0.4,0.8l0-0.4l-0.9,2.3l-0.2-0.5l-0.2,0.9
		l-0.2-0.3l-0.7,0.6l0-0.1l-0.3,0.4l0.1-0.3l-1.6,0.8l0.1,0l-6,0.5l0.2-0.4l-6.3-0.1l0-0.1l-1.6,0.4l0.5-0.4l-1.3,0.2l0.1-0.3
		l-2.8,1l0.2-0.4l-0.5,0.1l0.4-0.2l-0.8-0.1l0.5,0l-4.6,0.1l0.1,0l-0.1,0h0l-4.1,0l0-0.1l-4.3,0l0.6-0.1l-2.7-0.2l0.5,0.2l-1.1,0
		l0.2-0.3l-4.1,0l0.5,0.4l-4.7-0.2l0.5-0.2l-1.2-0.2l0.2,0.3l-2.1-0.3l0.1,0.2l-2.4-2.6l0.3,0.2L3,100.1l-0.1,0.3l-0.8-1.5l0.5,0.6
		L2.5,99l0.1,0.1l-0.3-2.8l-0.2,0.3l0.2-0.9l0,0.3l2.3-4L4,93.4l0.2-1l-0.5,1.1l0.8-2L5,91.8l1.4-3l-0.3,0.4l2.5-5.4l0.2,0.7
		l0.9-2.6l0.1,0l3.3-6.1l0,0.2l0.5-1.7l0.1,0.4l1.3-1.7l-0.1,0.2l1-2.2l0.1,0.1l0.9-2.7l0.2,0.4l0.8-1.4l-0.4,0.7l0.8-1.3l0.1,0.1
		L18,63.8L17.9,64L17.8,60l0.6,2l-0.2-1.8l0.1,0.6l0.2-12.7l0.3,0.4l0.2-1.9l-0.3,0.8l0.2-2.5l0.2,0.4l-0.5-3.2l0.3,0l-0.2-5
		l0.1,0.1l-0.1-0.9l0.2,0l-0.2-0.6l3.6,0.1l0,0.1l11.7-0.4l-0.1,0l1.7-0.2l0.4,4.7l-0.3,0l0,3.1l-0.2-0.3l0.4,6.1l-0.2-0.3L36,53
		l-0.3-0.1l0.6,1.5l-0.2-0.1l0.1,1.4l-0.2-0.3l0.2,3.4l-0.2-0.2L36,61.5l0-1.7L35.4,60l0.4,2.5l0-0.1l-0.2,2.4h0.5L36,64.3l0,0l0-1
		l2.3,7.1L38,70.1l1.5,2.4l-0.2-0.1l3.1,5.4l0-0.3l6.9,13.1l0.1-0.3l2.9,5.4L52.1,95l0.3,0.4l0.2-2.3l0.4,0.6l-1.8-3l0.3,0.1
		l-4.1-7.2l0.2,0.2L46.1,82l0.8-0.2l-1.9-3L45.5,78.9L45.5,78.9z M37.6,62.2L37.6,62.2l0,0.4L37.6,62.2L37.6,62.2z M37.6,60.6l0,0.7
		L37.6,60.6L37.6,60.6z M35.7,64l0.1-0.4l0.1,0.5L35.7,64L35.7,64z"/>
	<polygon class="st2" points="36,64.5 36.1,64.6 36,64.3 36,64.5 	"/>
	<polygon class="st2" points="27.1,103.4 27.1,103.4 27.2,103.5 27.1,103.4 	"/>
	<polygon class="st2" points="38.2,38.2 38.1,38.3 38.1,38.4 38.2,38.2 	"/>
	<polygon class="st2" points="36.1,104.4 36.2,104.5 36.1,104.4 	"/>
	<polygon class="st2" points="39.9,104.5 40.4,104.6 39.9,104.5 	"/>
	<polygon class="st2" points="42.9,104.6 42.9,104.5 42.9,104.6 	"/>
	<polygon class="st2" points="0.5,95.8 0.5,95.6 0.5,95.8 	"/>
	<polygon class="st2" points="9.8,104.3 9.4,104.4 9.8,104.3 	"/>
	<polygon class="st2" points="7.6,81.7 7.6,81.7 7.6,81.6 7.6,81.7 	"/>
	<polygon class="st2" points="8.7,104.4 9.4,104.4 8.7,104.4 	"/>
	<polygon class="st2" points="54.1,99.1 54,98.9 54.1,99.1 	"/>
	<polygon class="st2" points="54,98.9 54,98.7 54,98.9 	"/>
	<polygon class="st2" points="54,98.3 54,98.7 54,98.3 	"/>
	<polygon class="st2" points="51.9,102.9 51.9,103 51.9,102.9 	"/>
	<polygon class="st2" points="50.8,103.7 51.9,103 50.8,103.7 	"/>
	<polygon class="st2" points="45.6,103.4 46.7,103.2 45.6,103.4 	"/>
	<polygon class="st2" points="42.5,103.2 42.5,103 42.5,103.2 	"/>
	<polygon class="st2" points="20.2,103.2 20.2,102.9 20.2,103.2 	"/>
	<polygon class="st2" points="15.9,104.5 16.5,104.4 15.9,104.5 	"/>
	<polygon class="st2" points="13.4,102.7 13.6,102.7 12.9,102.8 13.4,102.7 	"/>
	<polygon class="st2" points="11.8,79 11.4,79 11.8,79 	"/>
	<polygon class="st2" points="18.2,64 18.3,63.1 18.2,64 	"/>
	<polygon class="st2" points="35.5,35.6 35.4,35.7 35.6,35.6 35.5,35.6 	"/>
</g>
<g>
	<polygon class="st2" points="43.6,35 43.5,34.8 43.5,35.1 43.6,35 	"/>
	<polygon class="st2" points="43,34.4 42.8,35.2 43.1,34.6 43.2,34.8 43.4,34.7 43,34.4 	"/>
	<polygon class="st2" points="33.8,33.9 33.9,33.9 33.8,33.9 	"/>
	<polygon class="st2" points="28.1,33.7 28.2,33.6 28.1,33.7 	"/>
	<polygon class="st2" points="27.2,33.4 27.2,33.4 27.2,33.4 	"/>
	<polygon class="st2" points="33.8,33.9 33.7,33.8 33.8,33.9 	"/>
	<polygon class="st2" points="41.7,35.2 41.8,35.1 41.7,35.2 	"/>
	<polygon class="st2" points="36.3,33.6 36.4,33.5 36.3,33.6 	"/>
	<polygon class="st2" points="38.2,33.6 38.2,34 38.2,33.6 	"/>
	<polygon class="st2" points="41.3,34.1 41.3,34 41.3,34.1 	"/>
	<polygon class="st2" points="34.9,33.6 34.9,33.5 34.9,33.6 	"/>
	<polygon class="st2" points="41.4,33 41.4,33.1 41.4,33 	"/>
	<polygon class="st2" points="43.6,34.4 43.6,34.6 43.6,34.4 	"/>
	<polygon class="st2" points="25.4,33 25.4,33 25.4,33 	"/>
	<polygon class="st2" points="13.5,35.5 13.5,34.9 13.5,35.5 	"/>
	<polygon class="st2" points="41.7,35.2 41.6,35.2 41.7,35.2 	"/>
	<polygon class="st2" points="13.5,34.9 13.5,34.9 13.5,34.9 	"/>
	<polygon class="st2" points="21.3,33.2 21.3,33.3 21.3,33.2 	"/>
	<polygon class="st2" points="24.3,33.6 24.3,33.5 24.3,33.6 	"/>
	<polygon class="st2" points="19.7,33.6 19.6,33.5 19.7,33.6 	"/>
	<polygon class="st2" points="18.1,33.6 18.2,33.6 18.1,33.6 	"/>
	<polygon class="st2" points="36.4,33.2 36.5,33.4 36.4,33.2 	"/>
	<polygon class="st2" points="41.7,35.1 41.7,35.2 41.7,35.1 	"/>
	<polygon class="st2" points="19.7,35.8 19.4,35.7 19.7,35.8 	"/>
	<polygon class="st2" points="24.6,33.2 24.6,33.2 24.6,33.2 	"/>
	<polygon class="st2" points="18.6,35.8 18.5,35.6 18.6,35.8 	"/>
	<polygon class="st2" points="36.5,33.4 36.5,33.4 36.5,33.4 	"/>
	<path class="st2" d="M38.2,32.8L38,33.3l-0.2-0.5l-0.5,0.4l0-0.2l-0.8,0.4l0-0.1l0,0.5l-0.2,0l0.1-0.2l-0.1,0.1l0.2-0.4l-0.7,0.3
		l0.2-0.4l0.3,0.1l0-0.5l-2,0.6l0.1-0.4l-0.6,0.3l0.2-0.2L29,33.3l0.1-0.1l-0.6,0.3l0-0.1l-3.5-0.1l0-0.3l-0.2,0.3l-0.1-0.4
		l-0.2,0.1l0.1,0.2l-1.1-0.1l0.2-0.2l-0.3,0l0,0.2l-0.7-0.1l0-0.2l-1.3,0.6l-0.1-0.3l0,0.4l0-0.5l-0.2,0.1l0-0.3l-0.5,0l0-0.1
		l-3.6,0.5l0.1,0.2l-1.9-0.5l0,0l-3.3-0.3l0,0.2l-0.2-0.1l-0.5,2.6l3.1,0l-0.1,0.3l2.2-0.3l-0.1,0.2l1.1,0l-0.1,0.1l5.2-0.6L22,35.7
		l1.2-0.5l-0.1,0.3l1.4-0.2l-0.1,0.1l0.2-0.1l-0.1,0.1l0.4-0.8l0.2,0.9l0.1-0.3l0,0.3l0.5-0.3l-0.1,0.3l0.5-0.3L26,35.2l1.1-0.3
		l0.2,0.5l0.2-0.1l-0.1-0.2l0.6-0.1l-0.2,0.2l0.4-0.1l-0.2-0.1l0.3-0.4l0.3,0.2l0,0l0.4-0.2l0,0.5l0.6-0.4l0,0.3l0.1-0.3l0.1,0.3
		l0.3-0.3l-0.1,0.1l1,0l-0.2,0.4l1.4-0.4l-0.1,0l0.6,0l-0.1,0.2l1.1-0.3l-0.1,0.1L36,35l-0.1,0.1l0.6-0.7l0.1,0.5l0.4-0.4l0,0.1
		l0.4-0.2l-0.1,0.3l0.5-0.2l-0.3,0.1l0.3,0.3l0,0l0.3,0.1L38,35l4-0.3l-0.1,0.4l0.5-0.4l-0.2,0.4l0.5-0.4l-0.1-0.1l0,0.3l-0.2-0.2
		l0.1-0.1l-0.7,0.1l0.1-0.4l-0.2,0.3l-0.3-0.6l-0.2,0.1l0.1-0.2l-0.6,0l0,0l-0.4,0.7L40,33.8l0,0.3L39.9,34l-0.1,0.3L39.2,34l0,0.3
		L36.4,34l0.1-0.4l-0.4,0.2l0-0.3l-0.9,1l0.1-0.4l-0.2,0.1l0.1-0.2l-0.2,0.2l-0.1-0.3l0.1,0l-0.3-0.3l-0.1,0.3l-0.2-0.3l-0.2,0.3
		l-0.1-0.2l-0.4,0.4l0,0l0,0h0l-1.2,0l0-0.1l-1.3,0l0.2-0.1l-0.8-0.2l0.2,0.2l-0.3,0l0.1-0.3l-1.2,0l0.1,0.4l-1.3,0.4l-0.1-0.6
		l0.1,0.1l0.1-0.2L25.9,33l0.1-0.1l-0.2,0.1l0.1,0.2L25.8,33l-0.1,0.6l-0.4-0.2l0.3-0.4l-0.2,0l0-0.1l-0.5,0.3L24.8,33l-0.4,0.5
		l0.1,0.1l-1.6-0.1l0.5-0.2L23,33.7l0.4-0.1l-0.7,0.3l0-0.6l-1,0.2l0.1,0.1l-0.4,0.1l-0.1-0.4L21,33.7l-0.2-0.3l-0.7,0.5l0.2-0.5
		l-0.8,0.5l0-0.1l-0.1,0.4l-2-0.3l0-0.1l-1.1-0.2l0.1,0l-0.7,0.2l0-0.1l-0.9,0.5l0.1-0.4l-0.2,0.5l-0.3-0.5l0.2,0l-0.4,0l0-0.2
		L13.1,34L13,33.6l-0.7,0.5l0.6-0.6l-0.5,0.2l0.2-0.1l-1.2,0l3.1,2.2l-0.2-0.3l0.8,0.2l-0.1,0.2l1-0.5l0,0.3l1.5-0.2l0,0.1l0.3-0.1
		l0,0.2l0.4-0.2l-0.1,0.2l1.7,0.1l0,0.1l3.6-0.4l0,0l0.5,0.3l0-0.5l2,0.1l0,0.3l0.9,0l-0.1,0.2l1.9-0.4l-0.1,0.2l1.4-0.4l0,0.3
		L30,35l0,0.2l0.4-0.1l-0.1,0.2l1-0.2l-0.1,0.2l0.8,0.1l-0.5,0l0,0.7l1.5-0.7L33,35.2l0,0l-0.3,0l0.5-0.6l0.5,0.8l1.1-0.6l0.2,0.2
		l-0.2,0.1l2.7-0.2l-0.1-0.1l4.5,0.1l-0.1-0.2l0.6,0l0,0.2l0.4-0.3l0.4,0.7l0.2-2.2l-0.3,0.3L43,33.2l0.2,0l-0.3,0.1l-0.1-0.2
		l-0.3,0.4l-0.1-0.5l-0.1,0.5l-2.7-0.3l0.1-0.1L39.5,33l-0.4,0.7l0.1-0.8l-0.3,0.6L38.6,33l-0.3,0.4L38.2,32.8L38.2,32.8z
		 M32.4,33.6l0.1,0L32.4,33.6L32.4,33.6z M31.9,33.6l0.2,0L32,33.8L31.9,33.6L31.9,33.6z M32.9,35.6l-0.1-0.1l0.1-0.1L32.9,35.6
		L32.9,35.6z"/>
	<polygon class="st2" points="33,35.2 33.1,35.2 33,35.1 33,35.2 33,35.2 	"/>
	<polygon class="st2" points="33.9,33.9 33.9,33.9 33.9,34 33.9,33.9 	"/>
	<polygon class="st2" points="25.1,33.1 25.1,33.2 25.2,33.1 25.1,33.1 	"/>
	<polygon class="st2" points="36.6,34.9 36.6,35 36.6,34.9 	"/>
	<polygon class="st2" points="37.7,35 37.9,35.1 37.7,35 	"/>
	<polygon class="st2" points="38.6,35.1 38.6,35 38.6,35.1 	"/>
	<polygon class="st2" points="24.4,35.4 24.4,35.5 24.4,35.4 	"/>
	<polygon class="st2" points="28.6,34.8 28.5,34.9 28.6,34.8 	"/>
	<polygon class="st2" points="19.7,35.8 19.7,35.8 19.7,35.8 19.7,35.8 	"/>
	<polygon class="st2" points="28.3,34.9 28.5,34.9 28.3,34.9 	"/>
	<polygon class="st2" points="42.5,35.2 42.6,35.3 42.6,35.2 42.5,35.2 	"/>
	<polygon class="st2" points="42.6,35.2 42.6,35.2 42.6,35.2 	"/>
	<polygon class="st2" points="42.7,35.1 42.6,35.2 42.7,35.1 	"/>
	<polygon class="st2" points="41.3,35.1 41.3,35.2 41.3,35.1 	"/>
	<polygon class="st2" points="41,35.1 41.3,35.3 41.3,35.2 41,35.1 	"/>
	<polygon class="st2" points="39.5,33.9 39.8,34 39.8,33.7 39.5,33.9 	"/>
	<polygon class="st2" points="38.5,33.7 38.5,33.5 38.5,33.7 	"/>
	<polygon class="st2" points="31.8,33.7 31.8,33.5 31.8,33.7 	"/>
	<polygon class="st2" points="30.5,35 30.6,35.2 30.7,35 30.5,35 	"/>
	<polygon class="st2" points="29.7,33.2 29.8,33.2 29.6,33.3 29.7,33.2 	"/>
	<polygon class="st2" points="18.4,33.3 18.4,33.6 18.4,33.3 	"/>
	<polygon class="st2" points="13.5,33.6 13.2,33.5 13.5,33.6 	"/>
	<polygon class="st2" points="23.8,35.6 23.7,35.7 23.9,35.6 23.8,35.6 	"/>
</g>
<g>
	<path class="st2" d="M43.8,99.9c-0.1,0.1,0,0.3,0.1,0.2l0.1-0.3L43.8,99.9z"/>
	<path class="st2" d="M44.8,100.4c0.2-0.2,0.2-0.5,0.1-0.8c-0.1,0.4-0.1,0.2-0.2,0.6c-0.1,0.1-0.3-0.1-0.3-0.2
		c0,0.1-0.2-0.1-0.3,0.2c0.2,0.3,0.5,0.2,0.7-0.1C44.9,100.3,44.8,100.4,44.8,100.4z"/>
	<path class="st2" d="M44.7,86.9l0,0.1C44.7,86.9,44.7,86.9,44.7,86.9z"/>
	<path class="st2" d="M35.9,87.2c0.1,0,0.1,0,0.1-0.1C35.9,87.2,35.9,87.2,35.9,87.2z"/>
	<path class="st2" d="M34.4,86.7C34.4,86.7,34.4,86.7,34.4,86.7C34.4,86.7,34.4,86.7,34.4,86.7z"/>
	<path class="st2" d="M44.7,86.9l0-0.3C44.5,86.6,44.6,86.7,44.7,86.9z"/>
	<path class="st2" d="M46.2,98.8c0,0,0,0.1,0,0.1C46.2,98.9,46.3,98.9,46.2,98.8L46.2,98.8z"/>
	<path class="st2" d="M47,90.6L47,90.6c0.1,0.1,0.1,0.1,0.2,0.1L47,90.6z"/>
	<path class="st2" d="M48.6,93.6c0-0.1-0.3,0-0.4,0c0.1,0,0.2,0,0.2,0.1C48.5,93.7,48.6,93.6,48.6,93.6z"/>
	<path class="st2" d="M47.6,99.1l0,0.1C47.5,99.2,47.5,99.1,47.6,99.1z"/>
	<path class="st2" d="M45.9,88.4C45.9,88.4,46,88.4,45.9,88.4C45.9,88.4,45.9,88.4,45.9,88.4z"/>
	<path class="st2" d="M39.9,99.3C39.9,99.3,39.9,99.3,39.9,99.3C39.9,99.3,39.9,99.3,39.9,99.3z"/>
	<path class="st2" d="M43.8,100.7L43.8,100.7c-0.1,0.1-0.1,0.1-0.1,0.2L43.8,100.7z"/>
	<path class="st2" d="M31.9,85.5L31.9,85.5C32,85.5,31.9,85.5,31.9,85.5z"/>
	<path class="st2" d="M10.2,84.3c0.4-0.2,0,0.6,0.5,0.3C10.6,84.6,10.6,84.1,10.2,84.3z"/>
	<path class="st2" d="M46.3,98.8C46.3,98.8,46.4,98.8,46.3,98.8C46.4,98.8,46.3,98.8,46.3,98.8z"/>
	<path class="st2" d="M10.8,84.7L10.8,84.7L10.8,84.7C10.8,84.6,10.8,84.6,10.8,84.7z"/>
	<path class="st2" d="M26.4,81.5c0,0,0,0.1,0,0.1C26.4,81.6,26.4,81.5,26.4,81.5z"/>
	<path class="st2" d="M30.1,85.1L30,85C30.1,85,30.1,85.1,30.1,85.1z"/>
	<path class="st2" d="M24,79.9c0-0.1,0-0.1-0.1-0.1c0,0,0,0,0,0C24,79.8,24,79.8,24,79.9z"/>
	<path class="st2" d="M21.7,78C21.7,78,21.8,78.1,21.7,78l0.1,0.1L21.7,78z"/>
	<path class="st2" d="M31.1,99.4c0.1,0.1,0.1,0.2,0.1,0.3C31.2,99.5,31.6,99.4,31.1,99.4z"/>
	<path class="st2" d="M46.4,98.9c0-0.1,0-0.1,0-0.1L46.4,98.9C46.3,98.9,46.3,98.9,46.4,98.9z"/>
	<path class="st2" d="M22.5,81.5l-0.3-0.3C22.3,81.2,22.4,81.4,22.5,81.5z"/>
	<path class="st2" d="M10.4,99.5L10.4,99.5C10.5,99.4,10.5,99.4,10.4,99.5z"/>
	<path class="st2" d="M21.2,80.4c0-0.1,0-0.2-0.1-0.3c0,0-0.1,0-0.1,0L21.2,80.4z"/>
	<path class="st2" d="M31.2,99.7L31.2,99.7L31.2,99.7z"/>
	<path class="st2" d="M34.2,99c-0.4,0-0.2,0.4-0.3,0.6c-0.5,0.1-0.2-0.3-0.4-0.5c-0.3,0.1-0.6,0.4-0.8,0.4c0-0.1-0.1-0.1,0-0.2
		c-0.3,0.3-1,0-1.4,0.4c0,0,0-0.1-0.1-0.1c0.1,0.2,0.1,0.4,0.1,0.5c-0.2,0-0.4,0.2-0.4,0c0.1,0,0.1-0.1,0.2-0.2l-0.2,0.1
		c-0.2-0.3,0.3-0.1,0.3-0.4c-0.4,0.1-0.9,0.4-1.2,0.3c-0.1-0.3,0.7-0.1,0.3-0.4l0.5,0.1c-0.4-0.5,0.3,0,0-0.5
		c-0.6-0.1-0.7,0.2-1.3,0.1c-0.1,0.2,0,0.3-0.1,0.5c-0.9,0.3-0.7-0.9-1.3-0.4c-0.2,0.2-0.2,0.7-0.7,0.4l0.2-0.4
		c-0.6,0-0.3,0.6-1,0.3c0.1-0.2,0.5-0.1,0.4-0.2c-0.4-0.3-0.3,0.2-0.6,0.2l-0.1-0.3c-0.6,0.1-1.4,0.3-2.1,0.4c0-0.1,0.2-0.2,0-0.3
		c-0.9,0.2-1.9,0-2.8-0.2l-0.3,0.3c-0.1,0-0.1-0.1-0.1-0.2c-0.3-0.1,0,0.2-0.2,0.3c-0.2,0-0.3-0.2-0.1-0.3c-0.6,0.2-1.7,0.5-2.3,0.2
		l0.1-0.1c-0.5-0.1-0.6,0.6-1,0.3l0.1-0.1c-1.1-0.1-2.2,0.1-3-0.3c-0.2,0.4-1.1-0.2-1.1,0.4c-0.6-0.3-0.4-0.4-1.3-0.6
		c-0.2,0-0.3,0.4-0.6,0.4l0-0.3L11,99.7l-0.2-0.4l-0.2,0.1c0.1,0,0.2,0.1,0.2,0.2c-0.4,0.1-0.8-0.3-0.8-0.4c-0.2,0.1-0.5,0-0.8,0
		c0.1-0.1,0.2-0.1,0.3-0.2c-0.5,0.2,0.1-0.3-0.4-0.2C9.1,99,9,99.1,9,99.1c-0.1-0.2-0.4-0.4-0.7-0.6l0.2-0.1c-0.3-0.4-0.8-0.7-1-1.3
		c0,0.2-0.4,0.3-0.5,0.2l0.3-0.2c-0.2,0,0,0.2-0.4,0.1c0-0.3,0.3-0.3,0.4-0.2c-0.1-0.1-0.1-0.2-0.2-0.2c0.1,0,0.2,0,0.3,0
		c-0.1,0-0.1-0.2,0-0.3c0.1-0.1,0.1-0.2-0.1-0.3l0.1,0c0-0.5-0.1-0.8,0.1-1.3c-0.3-0.1-0.1-0.3-0.3-0.5c0.2-0.3,0.7-0.7,1-1.3
		c0.1-0.4-0.2-0.2-0.2-0.5c0.2,0.1,0.5-0.4,0.5-0.1c0.3-0.6,0.4-0.8,0.6-1.7c-0.1,0-0.2,0.1-0.3,0c0-0.2,0.3-0.3,0.4-0.2l0,0.1
		c0.1-1.1,1.7-1.7,1.7-2.6l0,0.1l0.1-0.9c0.2-0.3,0.1,0.3,0.3,0.1c0-1,0.7-1.2,0.8-2c0.9-0.1,0.9-1.8,1.7-2.2l-0.2,0
		c-0.1-0.3,0.2-0.2,0.3-0.3c-0.1,0-0.2,0.1-0.3,0c0.6-1.6,1.9-2.9,2.8-4.4c0.2-0.3,0-0.5-0.1-0.6c-0.1-0.1-0.2-0.3,0-0.2
		c0.1,0.1,0.1,0.2,0.2,0.3c0-0.1-0.1-0.3,0-0.2c0.1,0,0.1,0,0.2,0l0,0l0.1,0l0.2,0.1c0.1,0,0.3,0.1,0.4,0.1c0.3,0.1,0.5,0.2,0.8,0.2
		c-0.1,0-0.1,0.1-0.2,0.1c0.1,0.3,0.8,0.4,0.9,0.2c0.1,0.1-0.1,0.2,0,0.3c0.1,0.2,0.7,0,0.7,0.3c0,0-0.1,0-0.1,0
		c0.2,0,0.6,0.4,0.6,0.1c0.3,0.4,0.8,0.4,0.9,0.7c0.4-0.1,0.5,0.6,0.8,0.3c-0.3,0.3,0.4,0.8,0.7,0.8c-0.2,0,0.1,0.3-0.1,0.3
		c0.2,0.2,0.5,0.3,0.6,0.1c0.1,0.8,1.2,0.5,1,1.3c0.9,0.5,1.7,1,2.5,1.5c-0.3,0.3-0.8-0.6-1.1-0.3c0.8,0.4,1.4,0.5,2,1.1
		c0.1,0.2-0.2,0.1-0.3,0.1c0.8,0.4,1.3,1.1,2.1,1.3c0,0-0.1,0-0.2,0c0.1,0.1,0.3,0.3,0.4,0.1l-0.2,0c0-0.4,0.9-0.2,1-0.3
		c-0.5,0.4,0.6,0.5-0.1,0.9c0.1,0,0.3,0,0.3-0.1c0.1,0.1,0.1,0.2-0.1,0.3c0.6,0.2,0.5-0.1,0.9,0.1c0,0.1-0.2,0.1-0.3,0.2
		c0.3-0.1,0.6-0.1,1,0.1c0,0,0,0.1-0.1,0.1c0.4,0.1,0.7,0.1,1.1,0.1c0.3,0,0.7,0,1.1,0.2c-0.3,0.4,0.3,0.2,0.2,0.6
		c0.2,0,0.3,0,0.5-0.1l-0.2-0.2c0.4,0,0.8-0.2,1.1-0.1c-0.1,0.1-0.2,0.1-0.3,0.1c0.2,0,0.5,0,0.7-0.1l-0.4-0.1
		c0.4-0.2,0-0.5,0.5-0.4c-0.1,0,0.4,0,0.6,0.2l0,0c0.2-0.1,0.3-0.3,0.6-0.2c0.1,0.1,0,0.4,0.1,0.5c0.1-0.3,0.9-0.3,1-0.6
		c-0.1,0.1,0,0.3,0,0.3l0.1-0.3c0.2,0,0.2,0.1,0.2,0.2c0.5-0.1-0.3-0.4,0.4-0.4c0,0,0,0.1-0.1,0.1c0.6-0.1,1.1-0.5,1.7-0.6
		c0.3,0.3-0.4,0.3-0.1,0.5c0.4-0.2,0.7-0.5,1.1-0.8c0.2-0.1,0.4-0.3,0.5-0.4c0.1-0.1,0.2-0.2,0.3-0.2l-0.1,0c0-0.3,0.1-0.3,0.2-0.3
		c0.1,0,0.2,0.2,0.4-0.1c-0.1,0.1-0.2,0.4-0.1,0.3c0,0,0.1,0,0.1,0c0,0,0,0.1,0.1,0.1c0,0.1,0.1,0.1,0.2,0.1
		c0.1,0.1,0.3,0.2,0.5,0.4l-0.2,0c0,0.3,0.3,0.7,0.4,1.1c0.2,0,0.2,0.2,0.4,0c-0.2,1.3,1.3,1.6,1.2,2.7c-0.1-0.1-0.2-0.2-0.2-0.1
		l0.5,0.6c0.2-0.2,0.1-0.2,0.2-0.4c0.2,0,0.4,0.2,0.5,0.3c-0.3-0.2-0.3,0.2-0.4,0.4c0.1-0.1,0.1,0,0.2-0.1c-0.2,0.6,0.4-0.2,0.5,0.5
		l-0.1,0c0.2,0.2,0.4,0.3,0.5,0.5c-0.2,0.2-0.2-0.1-0.4,0c0.2,0.3,0.7,0.3,0.6,0.7c-0.1-0.1-0.2-0.3-0.4-0.3c-0.1,0.4,0,0.4,0,0.6
		l0,0l0.1,0.5l0-0.2c0.4,0,0.5,0.2,0.6,0.4c0.1,0.2,0.2,0.4,0.4,0.6c-0.6-0.3-0.3,0-0.6,0c0,0.1-0.1,0.3-0.2,0.3
		c0.3,0.2-0.1,0.4,0.3,0.6c-0.1,0,0,0.2-0.3,0.2c0.1,0.3,0.2-0.1,0.3-0.1c0.2,0.2,0.1,0.5-0.1,0.7c-0.1,0.3-0.3,0.5-0.2,0.9
		c0,0.6,0.2,0.8,0,1.4c-0.2,0.1-0.2-0.3-0.2-0.3c-0.3,0.2-0.4,0.3-0.5,0.6c0-0.1-0.1-0.1-0.2-0.1c-0.1,0.2,0.1,0.4-0.2,0.4
		c0-0.1-0.1-0.3-0.1-0.4c-0.1,0.2-0.2,0.5-0.4,0.7c-0.1-0.1,0-0.3,0-0.4c-0.2,0.2-0.6,0.5-0.6,0.7l0.2,0c-0.1,0-0.1-0.2-0.1-0.3
		c0.1-0.3,0.4-0.1,0.4,0l-0.1,0.1c0.5,0.4,0.7-0.5,0.9-0.7c0.1,0.1,0.1,0.3,0.1,0.4c0-0.2,0.1-0.4,0.1-0.5c0.1,0,0.4,0.1,0.2,0.3
		c0.4-0.1,0.1-0.3,0.4-0.3c0,0,0.1,0,0,0.1c0-0.1,0.1-0.2,0.1-0.3c0,0.1,0.3,0.1,0.1,0.3c0.5-0.3,0.2-0.9,0.6-1l0,0.1
		c0.2-0.8-0.2-0.2-0.4-0.8c0.3,0,0.5-0.1,0.8-0.2L48.5,97c0-0.1,0.1-0.2,0.2-0.2c-0.2-0.3-0.1,0-0.3-0.2c0.3-0.4-0.1-1,0.4-1.1
		c-0.2-0.1-0.2,0.4-0.3,0c0.5-0.2-0.1-0.4,0-0.8c0.3,0,0.3,0.4,0.4,0c-0.3-0.1-0.3-0.2-0.3-0.4c0-0.2,0-0.4-0.1-0.6
		c-0.3,0.1-0.4-0.5-0.8-0.9c0.1,0-0.2-0.9-0.3-1.3l0.1,0c-0.4,0.1-0.5-0.3-0.7-0.6c0.2-0.1,0.3-0.1,0.5,0L47,90.7
		c-0.1,0-0.2-0.1-0.4-0.2l0.3-0.1c-0.2-0.4-0.7-0.6-0.8-1.1c-0.2,0.1-0.4,0.7-0.8,0.3c0.1-0.1,0.3-0.2,0.4-0.1c0,0-0.2-0.1-0.2-0.2
		l0.3,0.1c0-0.3-0.2,0-0.3-0.2c0.2-0.1,0.1-0.2,0.2-0.2c0,0,0,0.2,0.1,0.2c-0.1-0.2-0.1-0.5,0-0.6c-0.1,0.1-0.2,0.1-0.3,0
		c-0.2-0.4,0.1-0.2,0.1-0.5c-0.2,0-0.2-0.3-0.4-0.2c-0.1-0.1,0.1-0.2,0.1-0.3c-0.2-0.1-0.5-0.9-0.7-0.5l0,0.1l0,0l0,0l0,0
		c-0.3-0.2-0.4-0.6-0.6-1c-0.2-0.4-0.3-1-0.6-1.2l0-0.1c-0.5,0.4-1.1,0.7-1.3,1.1c-0.1,0.1-0.4,0-0.4-0.1c-0.3,0.3-0.2,0.3-0.7,0.4
		c0.2-0.3-0.2-0.1,0.2-0.3c-0.4,0.1-0.5,0-0.8,0.4c0-0.3-0.4-0.2-0.5,0l0.3,0.1c-0.2,0.1-0.4,0.2-0.5,0.2l0-0.3
		c-0.4,0-0.7,0.2-1,0.5c-0.3,0.2-0.6,0.4-0.9,0.1c-0.2,0.3,0.4,0.1,0.3,0.4c-0.4,0-0.8-0.3-0.9-0.3c-0.5-0.1-0.4,0.6-0.9,0.5
		c0.1,0.1,0.2,0.4-0.2,0.6c-0.4,0-0.5-0.5-0.2-0.6c0.1,0,0.1,0,0.1,0.1c0.1,0,0.3-0.1,0.1-0.2l0,0.1c-0.2-0.1-0.7-0.1-0.5-0.3
		c-0.3,0.1-0.1,0.2,0.1,0.3c-0.4-0.2-0.7,0-1.1-0.2c0.1,0.1,0.1,0.2,0,0.2c-0.6-0.3-0.3,0.2-0.8,0.1c-0.2-0.2,0.2-0.4-0.3-0.4
		c-0.2-0.2,0-0.3,0.2-0.4c-0.5,0.1-0.7-0.4-0.9-0.5l0.2,0c-0.1,0-0.2,0-0.3-0.1l0,0.3c-0.1-0.1-0.2-0.1-0.2-0.2
		c-0.2,0.1-0.1,0.4-0.4,0.5c-0.1-0.2-0.6-0.1-0.5-0.4c0.5,0.3,0.1-0.3,0.5-0.2c-0.1,0-0.2-0.1-0.3-0.1c0,0,0,0,0.1-0.1
		c-0.3-0.5-0.4,0.2-0.9-0.1c0.2-0.1,0.1-0.3,0-0.4c0.2,0.1-0.1,0.3-0.3,0.3c-0.2-0.3-0.4-0.1-0.5-0.2l0.1,0.2
		c-0.2,0.1-0.3,0-0.5-0.1c0.1-0.1,0.2,0.1,0.2,0c-0.4,0.1-0.3-0.6-0.8-0.7c-0.1-0.2,0.2-0.3,0.1-0.4c-0.5-0.1-0.2-0.5-0.7-0.6
		c0,0.3,0,0.2-0.4,0.2l0.7,0.4c-0.2,0-0.4,0-0.6,0c0.2,0.2,0.5,0.2,0.6,0.3c-0.3,0-0.3,0-0.3,0.2c0-0.5-0.6-0.3-0.8-0.7l0.4-0.4
		c-0.3-0.6-1-0.4-1.4-1l0.1,0.2c-0.2,0.1-0.4-0.3-0.6-0.4c0.1-0.1,0.1-0.3,0.1-0.4c-0.1,0.1-0.4-0.4-0.7-0.1L25.6,81
		c-0.4-0.5-0.9-0.1-1.3-0.5c0.3,0,0.2-0.3,0.6-0.2c-0.1-0.1-0.3-0.3-0.3-0.2c0-0.2-0.6-0.2-0.6-0.4c-0.1,0-0.3,0.1-0.4,0
		c0,0,0.1-0.1,0.1-0.1c-0.1,0.1-0.4-0.1-0.3,0.2c-0.1-0.9-1.3-1-1.4-1.8c-0.4-0.2-0.9-0.4-1.2-0.6c0.1,0,0.1-0.1,0.1,0
		c-0.4-0.5-0.6,0.3-1-0.2c-0.1-0.4,0.4,0,0.3-0.2c0.2-0.6-0.7-0.3-0.9-0.8l0.1,0c-0.2-0.3-0.8-0.1-1.3-0.3c0,0,0,0,0-0.1
		c-0.1,0.1-0.2,0.1-0.4,0.1c-0.2,0-0.3,0-0.5,0c-0.3,0-0.7,0-0.9,0c0.1-0.2,0.2-0.1,0-0.4c-0.1,0-0.1,0.1-0.1,0.2c0,0.1,0,0.1,0,0.2
		c0,0,0,0-0.1,0l-0.1,0c0,0,0,0.1,0,0.1c-0.1,0-0.4,0.2-0.6,0l0.3-0.5c-0.4-0.1-0.4,0.7-0.6,0.9l-0.1-0.1c-0.1,0.2-0.2,0.4-0.2,0.6
		c0,0.1,0,0.2,0,0.3c0,0.2,0,0.4-0.2,0.7l0.1,0c0.2,0.5-0.3,0.2-0.3,0.6l-0.4-0.1c0,0.3-0.1,0.9-0.2,1.4c-0.1-0.4,0-0.9,0-1.2
		c-0.1,0.2-0.4,0.7-0.3,0.9c0-0.1,0-0.3,0.1-0.3c0.1,0.4,0.1,0.8-0.2,1.2c-0.6-0.4-0.8,1-1.5,1c-0.2,0.9-0.9,1.4-1.3,2.3
		c0.7,0-0.1,0.3,0.4,0.5c-0.1,0.2-0.1,0.3-0.2,0.3l-0.7,0.4c-0.2,0.1,0-0.3-0.1-0.3c-0.3,0.4-0.3,0.1-0.6,0.3c0.2,0,0.2,0.3,0,0.5
		l0.4-0.2c0,0.8-0.7,0.3-0.8,1.1l-0.1-0.3c-0.1,0.4-0.6,1.2-0.4,1.7c-0.1,0-0.3,0-0.2-0.1c-0.5,0.7-0.5,2-1.1,2.4l-0.1-0.1
		c0,0.2,0.1,0.4-0.1,0.5c0,0-0.1-0.1-0.1-0.1c0,0.1,0,0.5-0.2,0.7l-0.1-0.2c-0.6,0.7-0.3,1.4-0.5,2c-0.4-0.2-0.8,0.3-1.1,0.7l-0.1,0
		c-0.6,1.2-0.2,2.2,0.1,3.3c-0.2,0.4-0.1,1,0.2,1.6c0.3,0.6,0.7,1.2,1,1.7c-0.1-0.2,0.3-0.2,0.4-0.1c0.1,0.3,0.7,0.2,0.5,0.5
		l-0.1-0.1c-0.1,0.4,0.5,0.7,0.9,0.9l0.3-0.4c0.3,0.6,1.1,0.7,1.8,0.7c0.2,0,0.3,0,0.5,0c0.1,0,0.2,0,0.4,0c0.2,0,0.4,0.1,0.5,0.2
		c0.2-0.1,0.5-0.1,0.7-0.3l0,0.3c0.6,0.1,0.9,0.1,1.7,0l-0.2,0.2c0.4,0,0.5-0.8,0.9-0.8l0.1,0.4c0.7,0,1.5,0.4,2.2,0
		c0,0.1,0,0.2-0.2,0.2c0.3,0,1.3,0.3,1.2-0.3c0,0.4,0.8,0,1.2-0.1l-0.1,0.3c0.3-0.4,0.3-0.5,0.8-0.6c0.1,0,0.1,0.2-0.1,0.2
		c0.4,0.1,0.3-0.3,0.7-0.1l-0.2,0.2c0.4,0,0.4-0.1,0.6-0.3c0.2-0.1,0.7,0.1,0.8,0.3c0.1-0.2,0.3-0.4,0.5-0.3c0,0.1-0.1,0.2-0.1,0.2
		c0.6,0.2,0.9-0.3,1.4-0.1c0,0.1,0,0.1,0.1,0.2c-0.5,0-0.9,0-0.9,0c0,0.3,0.4,0.3,0.1,0.7c0.3-0.2,0.9-0.6,1.3-0.5c0,0,0,0,0.1,0.1
		l0,0c0.1,0,0.2,0,0.3,0c0.1,0,0.2,0.1,0.3,0.1c0,0.2,0.5,0.1,0.7,0.1c0-0.3,0.3-0.2,0-0.5c0,0,0,0-0.2,0c0,0-0.1,0-0.1,0l0,0
		c-0.1,0-0.3,0-0.5,0c0.2-0.1,0.3-0.3,0.6-0.1c0.1-0.2,0.2-0.4,0.3-0.5c0.3,0.4,0.8,0.6,0.9,0.8c0.6-0.2,1.5-0.1,1.9-0.6
		c0.2-0.1,0.2,0.2,0.3,0.2c-0.1,0.1-0.2,0-0.3,0.1c0.4-0.1,1-0.1,1.1-0.4c0.4,0.2-0.3,0.3,0.4,0.3l-0.1,0.1c1.2,0.6,2-0.9,3.3-0.2
		c-0.1,0-0.1-0.1-0.2-0.1c1.5,0.3,3.1-0.3,4.7,0.2c0.4,0.1,0.5-0.1,0.7-0.3l0.1,0.3l0.4-0.3c0.6-0.3,1.1,0.7,1.9,0.3l-0.1-0.2
		c0.3,0,0.9-0.1,0.9,0.1c0,0,0.1-0.2,0.2-0.1l0,0.2l0.7-0.3c0.5,0.1-0.1,0.6,0.7,0.7c0.3-0.1,0.8-0.5,0.7-0.6
		c-0.1,0-0.3-0.1-0.3-0.3l0.3-0.1c0-0.5,0.3-0.9-0.4-1.3l-0.5,0.3l-0.1-0.2l0.4,0c-0.2-0.2-0.4,0-0.5,0.1c0-0.1-0.1-0.2-0.2-0.2
		l-0.5,0.4c-0.1-0.2,0.2-0.4-0.1-0.5c-0.2,0.2,0.2,0.4-0.1,0.5c-0.2-0.2-0.2-0.4-0.4-0.2c0-0.1,0-0.2,0.1-0.2
		c-0.2,0.1-0.6,0.1-0.7,0.3c-0.2-0.3-0.8,0.1-0.8-0.4c-0.1,0.1-0.4,0.3-0.6,0.4c0.4-0.5-0.8,0-0.7-0.6c-0.3,0.5-1,0.2-1.6,0.5
		c0,0,0.1-0.1,0.1-0.1c-0.3,0-0.4-0.2-0.6-0.3c0,0.4-0.5,0.5-0.7,0.7c-0.4-0.4,0.2-0.5,0.1-0.8c0,0.3-0.6,0.3-0.5,0.6
		c-0.3-0.2-0.2-0.1-0.4-0.4c0,0.5-0.3,0.1-0.5,0.4c-0.4-0.2-0.1-0.5-0.5-0.3C33.9,99.2,34.2,99,34.2,99z M24,99.9L24,99.9
		c0.1,0,0.2,0,0.2,0C24.2,99.8,24.1,99.8,24,99.9z M23.2,99.9c0.1,0,0.2,0,0.4,0c0,0.1,0,0.2-0.1,0.2C23.5,100,23.3,99.9,23.2,99.9z
		 M25,101.8c-0.1,0-0.2,0-0.2-0.1c0.1,0,0.1,0,0.2,0l0,0C25,101.7,25,101.8,25,101.8z"/>
	<path class="st2" d="M25.2,101.4C25.3,101.4,25.3,101.4,25.2,101.4C25.3,101.4,25.2,101.4,25.2,101.4L25.2,101.4L25.2,101.4z"/>
	<path class="st2" d="M44.7,87L44.7,87C44.7,87,44.7,87,44.7,87C44.7,87,44.7,87,44.7,87z"/>
	<polygon class="st2" points="11.3,99.3 11.3,99.4 11.4,99.3 	"/>
	<path class="st2" d="M46.1,91.6C46,91.6,46,91.6,46.1,91.6C46,91.7,46.1,91.6,46.1,91.6z"/>
	<path class="st2" d="M47,93.4l0,0.3C47,93.6,47,93.5,47,93.4z"/>
	<path class="st2" d="M47.5,94.8c0.1,0,0.1,0,0.1,0l0,0L47.5,94.8z"/>
	<path class="st2" d="M29.2,86.7C29.2,86.7,29.1,86.7,29.2,86.7C29,86.6,29.1,86.7,29.2,86.7z"/>
	<path class="st2" d="M36.8,88.2c-0.1,0.1-0.2,0.1-0.2,0.2C36.7,88.4,36.8,88.4,36.8,88.2z"/>
	<polygon class="st2" points="22.5,81.5 22.5,81.5 22.5,81.5 	"/>
	<path class="st2" d="M36.2,88.4c0.1,0.1,0.3,0,0.4,0C36.4,88.4,36.3,88.3,36.2,88.4z"/>
	<path class="st2" d="M45.3,99.4C45.3,99.4,45.2,99.4,45.3,99.4C45.2,99.4,45.2,99.5,45.3,99.4C45.3,99.5,45.3,99.4,45.3,99.4z"/>
	<path class="st2" d="M45.2,99.5L45.2,99.5C45.2,99.5,45.2,99.5,45.2,99.5z"/>
	<path class="st2" d="M45.1,99.6l0.1-0.1C45.1,99.5,45.1,99.6,45.1,99.6z"/>
	<path class="st2" d="M46.7,98.5L46.7,98.5C46.7,98.4,46.7,98.5,46.7,98.5z"/>
	<path class="st2" d="M47,98.1c-0.1,0.1-0.3,0.1-0.4,0.3l0.1,0.1C46.6,98.3,47.1,98.3,47,98.1z"/>
	<path class="st2" d="M48.9,96c0,0.2-0.1,0.4-0.1,0.6c0.1-0.1,0.3-0.2,0.3,0.1C49.4,95.9,48.8,96.8,48.9,96z"/>
	<path class="st2" d="M48.7,94.2c0.1,0.3,0.1-0.1,0.2-0.1C48.8,93.9,48.7,93.9,48.7,94.2z"/>
	<path class="st2" d="M41.6,85.6c0-0.1-0.1-0.2-0.1-0.2C41.4,85.5,41.6,85.4,41.6,85.6z"/>
	<polygon class="st2" points="40.1,87.7 40.4,87.8 40.4,87.5 	"/>
	<path class="st2" d="M38.3,86.4L38.3,86.4c0,0-0.1,0.1-0.2,0.1L38.3,86.4z"/>
	<path class="st2" d="M22.3,78.1l-0.1,0.3C22.3,78.5,22.6,78.2,22.3,78.1z"/>
	<path class="st2" d="M14.2,77.8c-0.2,0-0.4,0.2-0.3,0.4C14,78,14.2,77.9,14.2,77.8z"/>
	<polygon class="st2" points="8.7,101.5 8.4,101.6 8.9,101.6 	"/>
</g>
<g>
	<path class="st0" d="M22.3,26.2l-0.6,0.4l0.3-0.3l0,0l-1.5,1.6l0.1-0.2l-1,0.8c1.6-0.5,2.8-1.7,3.3-3.2l-0.9,1L22.3,26.2z"/>
	<path class="st0" d="M17,19.9L15.8,21l0.2,0.1l-2,1.1l0.3,0.4L14,22.7l0.2,0.1l-1,0.8c0,0,0,0,0,0.1c0,2.3,1.6,4.2,3.7,4.8l3.1-2.7
		l-1,0.2l1.7-1.1l-0.3-0.1l1.7-1.4l-0.2,0l0,0l0,0l0.3-0.1l-0.1,0.1l0.9,0.2c0,0,0-0.1,0-0.1l-0.4-0.8l0.3,0.1c0,0,0,0,0,0l-0.1-0.2
		l0.1,0c-0.5-2.2-2.5-3.8-4.8-3.8c-0.1,0-0.2,0-0.3,0l0,0l0,0c-0.1,0-0.2,0-0.3,0l-0.9,1.1L17,19.9z"/>
	<path class="st0" d="M23,24.9C23,24.9,23,24.9,23,24.9L23,24.9L23,24.9z"/>
	<polygon class="st1" points="22.3,26.2 22,26.3 21.7,26.6 	"/>
	<polygon class="st1" points="21.7,26.3 21.9,26.3 22.2,26 	"/>
	<path class="st1" d="M23.1,23.5c0-0.2,0-0.5-0.1-0.7l-0.3-0.1L23.1,23.5z"/>
	<path class="st1" d="M22.3,23.4L22,23.5l0.2,0l-1.7,1.4l0.3,0.1L19.2,26l1-0.2L17,28.5c0.4,0.1,0.8,0.2,1.2,0.2
		c0.5,0,1-0.1,1.4-0.2l1-0.8l-0.1,0.2l1.5-1.6l-0.2,0l0.5-0.3l-0.3,0.3l0,0l0.9-1c0-0.1,0.1-0.2,0.1-0.3l-0.1,0l0.1,0
		c0.1-0.4,0.2-0.8,0.2-1.2c0,0,0-0.1,0-0.1l-0.9-0.2L22.3,23.4z"/>
	<path class="st1" d="M23,22.8c0-0.1,0-0.1-0.1-0.2l-0.1,0L23,22.8z"/>
	<path class="st1" d="M14.2,22.8L14,22.7l0.3-0.2L14,22.2l2-1.1L15.8,21l1.2-1.1l-0.4,0l0.9-1.1c-2.4,0.3-4.3,2.3-4.3,4.8L14.2,22.8
		z"/>
	<path class="st1" d="M17.9,18.8C17.9,18.8,17.9,18.8,17.9,18.8L17.9,18.8L17.9,18.8z"/>
</g>
<g>
	<path class="st2" d="M22.5,23.7c0.1,0,0.3,0,0.2,0L22.5,23.7L22.5,23.7z"/>
	<path class="st2" d="M23,23.4c-0.2,0-0.4-0.1-0.7,0c0.3,0,0.2,0,0.6,0.1c0,0-0.1,0.1-0.2,0.1c0.1,0-0.1,0.1,0.1,0.1
		c0.3-0.1,0.3-0.1,0-0.2C22.9,23.4,23,23.4,23,23.4z"/>
	<path class="st2" d="M21.3,19.3L21.3,19.3C21.3,19.4,21.3,19.4,21.3,19.3z"/>
	<path class="st2" d="M18.6,18.2C18.6,18.2,18.6,18.1,18.6,18.2C18.6,18.1,18.6,18.1,18.6,18.2z"/>
	<path class="st2" d="M18,17.8C18,17.8,18.1,17.8,18,17.8C18.1,17.8,18,17.8,18,17.8z"/>
	<path class="st2" d="M21.3,19.3l0-0.1C21.2,19.3,21.3,19.3,21.3,19.3z"/>
	<path class="st2" d="M22.2,23C22.2,23,22.2,23,22.2,23C22.3,23,22.3,23,22.2,23L22.2,23z"/>
	<path class="st2" d="M22.5,20L22.5,20c0.1,0,0.1,0,0.1-0.1L22.5,20z"/>
	<path class="st2" d="M23.1,20.9c0,0-0.2,0.1-0.4,0.2c0.1,0,0.2-0.1,0.2-0.1C23,21,23.1,20.9,23.1,20.9z"/>
	<path class="st2" d="M23.3,22.6L23.3,22.6C23.3,22.6,23.3,22.6,23.3,22.6z"/>
	<path class="st2" d="M22,19.5C22,19.4,22,19.4,22,19.5C22,19.4,22,19.4,22,19.5z"/>
	<path class="st2" d="M21.7,24.5C21.7,24.5,21.7,24.5,21.7,24.5C21.7,24.5,21.7,24.5,21.7,24.5z"/>
	<polygon class="st2" points="23.2,23.7 23.2,23.7 23.4,23.7 	"/>
	<path class="st2" d="M16.9,17.6L16.9,17.6C17,17.5,17,17.5,16.9,17.6z"/>
	<path class="st2" d="M12.2,25c0.2-0.2,0.4,0.1,0.6-0.1C12.7,24.9,12.4,24.9,12.2,25z"/>
	<path class="st2" d="M22.2,23C22.2,22.9,22.2,22.9,22.2,23C22.2,22.9,22.2,22.9,22.2,23z"/>
	<path class="st2" d="M12.8,24.9L12.8,24.9L12.8,24.9C12.9,24.9,12.8,24.9,12.8,24.9z"/>
	<path class="st2" d="M14.7,18.7C14.8,18.7,14.8,18.7,14.7,18.7C14.8,18.7,14.8,18.7,14.7,18.7z"/>
	<path class="st2" d="M16.5,18.3L16.5,18.3C16.5,18.3,16.5,18.3,16.5,18.3z"/>
	<path class="st2" d="M14.3,19.5C14.3,19.5,14.2,19.5,14.3,19.5C14.2,19.6,14.2,19.6,14.3,19.5C14.2,19.6,14.2,19.5,14.3,19.5z"/>
	<path class="st2" d="M13.7,20.2C13.7,20.2,13.7,20.2,13.7,20.2L13.7,20.2L13.7,20.2z"/>
	<path class="st2" d="M21,26.1c0.1,0,0.1,0.1,0.2,0.1C21.1,26.2,21.1,26.1,21,26.1z"/>
	<path class="st2" d="M22.3,23c-0.1,0-0.1,0-0.1,0c0,0,0,0,0,0C22.3,23,22.3,23,22.3,23z"/>
	<path class="st2" d="M15.8,21.2L15.8,21.2C15.7,21.2,15.8,21.2,15.8,21.2z"/>
	<path class="st2" d="M17.2,27.4L17.2,27.4C17.2,27.3,17.2,27.3,17.2,27.4z"/>
	<path class="st2" d="M15.5,21.4c-0.1-0.1-0.1-0.1-0.2-0.1c0,0,0,0,0,0.1L15.5,21.4z"/>
	<path class="st2" d="M21.3,26.3L21.3,26.3L21.3,26.3z"/>
	<path class="st2" d="M21.1,25.4c0,0.1,0.3,0.2,0.5,0.3c0,0.2-0.3-0.1-0.4-0.2c0.1,0.1,0.3,0.3,0.3,0.4c-0.1,0-0.1,0-0.1-0.1
		c0.2,0.2-0.1,0.2,0.1,0.5c0,0-0.1,0-0.1-0.1c0.2,0.1,0.3,0.2,0.4,0.3c0,0,0.1,0.2-0.1,0.1c0,0,0-0.1-0.1-0.1l0,0.1
		c-0.3-0.2,0-0.1-0.2-0.3c0,0.1,0.2,0.4,0,0.4c-0.3-0.2,0-0.2-0.3-0.3l0.2,0c-0.5-0.3,0.1,0-0.4-0.3c-0.2,0,0,0.2-0.1,0.2
		c0.1,0.2,0.2,0.2,0.3,0.3c0.1,0.4-0.7-0.5-0.5-0.1c0.1,0.2,0.4,0.5,0.1,0.4l-0.2-0.3c-0.1,0,0.3,0.5,0,0.4c-0.1-0.1,0-0.2,0-0.2
		c-0.2-0.2,0.1,0.2,0,0.3l-0.2-0.3c-0.1,0.1-0.1,0.4-0.2,0.5c0-0.1-0.1-0.2-0.1-0.3c-0.1,0.2-0.4,0.1-0.6,0l0,0.3
		c0,0-0.1-0.1-0.1-0.2c-0.1-0.1,0.1,0.2,0.1,0.3c0,0-0.1-0.1-0.1-0.2c0,0.3-0.2,0.6-0.4,0.3l0-0.1c-0.1-0.1,0,0.6-0.2,0.4l0-0.1
		c-0.2-0.1-0.5,0.2-0.7-0.3c-0.1,0.4-0.2-0.2-0.3,0.4c-0.1-0.3,0-0.4-0.2-0.6c0,0-0.1,0.3-0.2,0.4l0.1-0.3l-0.2,0.3l0.1-0.4
		l-0.1,0.1c0,0,0,0.1,0,0.2c-0.1,0.1-0.2-0.3-0.1-0.4l-0.3,0.2c0-0.1,0.1-0.1,0.1-0.2c-0.2,0.3,0.1-0.3-0.1-0.1
		c0,0.1-0.1,0.2-0.1,0.2c0-0.2-0.1-0.2-0.2-0.2l0.1-0.2c-0.1-0.1-0.3-0.1-0.4-0.1c0,0.1-0.2,0.4-0.3,0.4l0.2-0.3
		c-0.1,0.2,0,0.1-0.2,0.3c0-0.1,0.2-0.3,0.3-0.4l-0.1,0c0.1-0.1,0.1-0.1,0.2-0.2c-0.1,0.1,0.1-0.3-0.1-0.1l0.1-0.1
		c-0.1-0.1-0.2-0.1-0.4-0.1c-0.2,0.2-0.2,0.1-0.4,0.3c0-0.1,0.1-0.4,0-0.5c-0.2,0-0.2,0.1-0.4,0.2c0.2-0.2,0.1-0.3,0.3-0.3
		c-0.1-0.1-0.2-0.1-0.4-0.2c-0.1,0.1-0.1,0.1-0.2,0.2c-0.1,0,0-0.1,0.2-0.2l0,0c-0.5,0,0.4-0.8-0.1-0.7l0,0l-0.3-0.1
		c0-0.1,0.2,0,0.3-0.1c-0.5,0,0-0.3-0.3-0.4c0.7-0.3-0.1-0.4,0.3-0.6l-0.2,0c-0.2,0,0.1-0.1,0.1-0.1c-0.1,0-0.2,0.1-0.3,0
		c-0.2-0.4,0.3-0.7,0.5-1c0.1-0.1-0.9-0.3-0.4-0.4l0.3,0.1c-0.3-0.4,0.2-0.5,0-0.8C14.9,22,15,22,15,22c0.2,0.1,0.1-0.2-0.1-0.3
		c0,0,0.2,0.1,0.3,0.1c0.1,0-0.2-0.3,0-0.2c0,0,0.1,0.1,0.1,0.1c-0.1-0.1,0.1-0.1-0.1-0.2c0.2,0,0-0.2,0.2-0.2
		c-0.2-0.2,0.2,0-0.1-0.3c0.3,0.3,0.4,0.1,0.3-0.1c0.1,0.1,0.1,0.1,0.2,0.2c0,0,0-0.2-0.1-0.3c0.4,0.3-0.1-0.5,0.4,0
		c0-0.3,0.1-0.6,0.2-0.8c0.2,0.4-0.2,0.1,0.1,0.6c0-0.3,0-0.6,0.2-0.6c0.1,0,0.1,0.2,0.1,0.3c0.1-0.2,0.3-0.1,0.4-0.4
		c0,0,0,0.1,0,0.1c0,0,0.1,0,0-0.2l0,0.1c-0.1-0.3,0-0.6-0.1-0.8c0.1,0.6,0.2,0.1,0.3,0.8c0,0,0-0.1,0-0.3c0,0,0.1,0.1,0.1,0.3
		c0.1-0.1,0-0.3,0.1-0.4c0,0.1,0,0.1,0,0.3c0-0.2,0-0.4,0.2-0.3c0,0.1,0,0.1,0,0.1c0.1-0.1,0.2-0.5,0.4-0.4c0,0.4,0.1,0.1,0.1,0.5
		c0,0,0.1-0.1,0.1-0.1l0-0.2c0.1,0,0.2-0.3,0.2-0.1l-0.1,0.2l0.2-0.1l-0.1-0.1c0.1-0.2,0-0.5,0.1-0.4c0,0,0.1,0,0.1,0.2l0,0
		c0.1-0.1,0.1-0.2,0.2-0.1c0,0.1-0.1,0.4-0.1,0.5c0.1-0.3,0.2-0.1,0.3-0.4c0,0.1-0.1,0.3-0.1,0.3l0.1-0.2c0,0.1,0,0.1,0,0.3
		c0.1,0.1,0.1-0.5,0.2-0.2c0,0,0,0.1-0.1,0.1c0.1,0.1,0.3-0.1,0.4,0.1c-0.1,0.4-0.1,0-0.2,0.4c0.2,0,0.5-0.3,0.7-0.1l0-0.1
		c0.3-0.5,0,0.3,0.2,0.1c0,0-0.2,0.2-0.1,0.2c0.1,0.1,0.3,0,0.5,0l-0.1,0.1c0,0.1,0.1,0.2,0.1,0.3c0.1-0.1,0.1,0,0.2-0.2
		c-0.3,0.7,0.7,0,0.4,0.7c0,0-0.1,0-0.1,0.1l0.2,0.1c0.2-0.2,0.1-0.1,0.2-0.3c0.1-0.1,0.2-0.1,0.3-0.1c-0.2,0-0.3,0.2-0.4,0.3
		c0.1,0,0.1-0.1,0.2-0.1c-0.3,0.3,0.4-0.3,0.2,0l-0.1,0.1c0.1,0,0.2,0,0.3,0c-0.2,0.2-0.1,0-0.3,0.2c0.1,0.1,0.5-0.2,0.3,0.1
		c-0.1,0-0.1,0-0.2,0c-0.2,0.2-0.1,0.2-0.2,0.3l0,0l-0.1,0.2l0.1-0.1c0.6-0.3,0.2,0.1,0.7,0c-0.4,0.1-0.2,0.1-0.5,0.2
		c-0.1,0.1-0.1,0.2-0.2,0.2c0.2-0.1-0.1,0.2,0.2,0.1c-0.1,0,0,0.1-0.2,0.1c0.1,0,0.1-0.1,0.3-0.1c0.4,0-0.3,0.4,0.2,0.4
		c0.2,0.1,0.5,0,0.7,0.1c-0.1,0.1-0.4,0-0.4,0c-0.1,0.1-0.1,0.2,0,0.2c-0.1,0-0.2,0-0.3,0.1c0,0.1,0.4,0,0.2,0.1c-0.1,0-0.3,0-0.4,0
		c0.1,0,0.3,0.1,0.4,0.1c-0.2,0-0.3,0-0.4,0c0.1,0.1,0.2,0.2,0.5,0.2l0.1-0.1c0,0-0.2,0-0.3,0c-0.2,0,0.1-0.1,0.2-0.1l0.1,0
		c0.6-0.1-0.1-0.2-0.1-0.3l0.4,0l-0.4,0c0.1,0,0.3-0.1,0.4-0.1c0.2-0.1-0.2,0,0-0.2c0,0,0.1,0,0.1,0l-0.1-0.1c0.1,0,0.3-0.1,0.2,0
		c0.2-0.2-0.4-0.2-0.1-0.3l0,0c-0.2-0.2-0.3,0.1-0.7,0l0.7-0.3L23,22c0,0,0-0.1,0.1-0.1c-0.2,0-0.1,0.1-0.3,0.1
		c0.2-0.2-0.2-0.2,0.2-0.4c-0.2,0.1-0.1,0.2-0.3,0.1c0.5-0.2-0.1-0.1,0-0.3c0.3-0.1,0.2,0.1,0.3-0.1c-0.4,0.2,0-0.2-0.1-0.3
		c-0.3,0.2-0.2-0.1-0.4-0.1c0.1-0.1,0-0.3,0-0.5l0.1,0c-0.3,0.2-0.3,0.1-0.5,0c0.2-0.1,0.2-0.2,0.4-0.2l-0.1-0.1
		c-0.1,0.1-0.2,0.1-0.2,0.1l0.2-0.2c-0.1-0.1-0.4,0-0.4-0.2c-0.2,0.2-0.4,0.6-0.6,0.6c0.1-0.1,0.3-0.3,0.3-0.3c0,0-0.1,0.1-0.1,0
		l0.2-0.1c0-0.1-0.2,0.1-0.2,0.1c0.1-0.1,0.1-0.1,0.2-0.2c0,0,0,0.1,0.1,0.1c0-0.1,0-0.2,0.1-0.3c-0.1,0.1-0.2,0.2-0.2,0.2
		c-0.1-0.1,0.1-0.2,0.1-0.3c-0.1,0.1-0.1-0.1-0.3,0.2c0,0,0.1-0.1,0.1-0.2c-0.1,0.1-0.3-0.2-0.4,0.1l0,0c0,0,0,0,0,0l0,0l0,0
		c-0.3,0.1-0.3-0.4-0.5-0.4l0-0.1c-0.2,0-0.3-0.1-0.4,0.1c0,0,0-0.2,0.1-0.3c-0.1,0-0.2,0.1-0.2-0.1c0.2-0.1,0-0.2,0.1-0.1
		c-0.1-0.1-0.1-0.3-0.3-0.1c0.1-0.2,0-0.3-0.1-0.3l0,0.2c-0.1,0-0.1,0-0.2-0.1l0.1-0.3c-0.2-0.5-0.6,0.5-0.7-0.2
		c-0.1,0.2,0.1,0.2,0,0.4c-0.1-0.1-0.2-0.6-0.2-0.6c-0.2-0.2-0.2,0.5-0.4,0.3c0,0.1,0,0.4-0.1,0.5c-0.1,0-0.1-0.5,0-0.6
		c0,0,0,0,0,0.1c0,0,0.1-0.1,0.1-0.2l0,0.1c-0.1-0.1-0.2-0.1-0.2-0.3c-0.1,0.1,0,0.2,0,0.3c-0.2-0.2-0.2,0-0.4-0.1
		c0,0.1,0.1,0.2,0,0.2c-0.2-0.1-0.1,0.2-0.2,0.3c-0.1-0.2,0-0.4-0.1-0.3c-0.1-0.1-0.1-0.3,0-0.4c-0.1,0.2-0.3-0.1-0.4-0.1l0.1-0.1
		c0,0.1-0.1,0.1-0.1,0.1l0.1,0.2c-0.1,0-0.1,0-0.1-0.1c0,0.2,0.1,0.4,0,0.6c-0.1-0.1-0.2,0.2-0.2-0.1c0.2,0.1-0.1-0.3,0.1-0.4
		c0,0-0.1,0-0.1,0c0,0,0-0.1,0-0.1c-0.3-0.2,0,0.4-0.2,0.4c0-0.2-0.1-0.3-0.2-0.3c0.1,0,0.1,0.3,0.1,0.4c-0.2-0.1-0.1,0.1-0.2,0.1
		l0.1,0c0,0.2,0,0.2-0.1,0.3c-0.1-0.1,0-0.1,0-0.2c0,0.3-0.3-0.2-0.4,0C16,18.3,16,18.1,15.9,18c-0.1,0.3-0.3-0.2-0.3,0.1
		c0.1,0.2,0.1,0.1,0.1,0.4l0.2-0.3l0,0.4c0.1,0,0.1-0.2,0.1-0.2c0,0.2,0,0.2,0.1,0.3c-0.2-0.3-0.1,0.3-0.3,0.1l-0.3-0.5
		c-0.3-0.2-0.2,0.4-0.4,0.4l0.1,0c0.1,0.2-0.1,0.1-0.1,0.2c-0.1-0.2-0.2-0.2-0.3-0.3c0.1,0.1-0.2,0.1,0.1,0.4L14.7,19
		c-0.2,0,0.2,0.6,0,0.6c-0.1-0.2-0.3-0.2-0.3-0.4c0,0-0.1,0.1,0,0.2c-0.1-0.1,0.1,0.3-0.1,0.2c0,0.1,0.2,0.2,0.1,0.3
		c0,0-0.1-0.1-0.1-0.1c0.1,0.1,0,0.2,0.2,0.3c-0.6-0.3-0.3,0.4-0.8,0.2c0,0.1-0.1,0.3-0.1,0.4c0,0-0.1-0.1-0.1-0.1
		c-0.2,0,0.4,0.4,0.2,0.4c-0.3-0.1-0.1-0.2-0.2-0.2c-0.6-0.3,0,0.2-0.4,0.2l0,0c-0.2,0,0.1,0.3,0,0.5c0,0,0,0-0.1,0
		c0.2,0.2,0.3,0.5,0.3,0.6c-0.2-0.1-0.1-0.1-0.4-0.2c0,0.1,0.4,0.1,0.4,0.3c-0.1,0-0.3,0-0.6,0c0,0,0-0.1,0-0.1
		c-0.4,0,0,0.2-0.1,0.2l-0.1-0.1c0,0.2,0.4,0.3,0.3,0.5l0.1,0c0.4,0.2-0.2,0,0,0.2l-0.4,0c0.1,0.1,0.3,0.3,0.4,0.4
		c-0.3-0.1-0.4-0.3-0.6-0.4c0,0.1,0,0.3,0.2,0.3c0,0-0.1-0.1-0.1-0.1c0.3,0.1,0.4,0.3,0.4,0.4c-0.8-0.1-0.2,0.4-0.8,0.5
		c0.3,0.3-0.1,0.6,0,0.9c0.6-0.2,0,0.1,0.6,0c0,0.1,0.1,0.1,0,0.1l-0.3,0.3c-0.2,0.1-0.1,0-0.3,0c0,0.2-0.2,0.1-0.4,0.3
		c0.2-0.1,0.3,0,0.3,0.1l0.2-0.2c0.4,0.1-0.4,0.4,0,0.5l-0.2,0c0.1,0.1,0.2,0.5,0.7,0.4c-0.1,0-0.2,0.1-0.3,0.1
		c0.1,0.3,0.8,0.3,0.6,0.7L13,27.1c0.1,0,0.3-0.1,0.2,0.1c-0.1,0-0.1,0.1-0.1,0.1c0.1,0,0.3,0,0.3,0.1l-0.2,0c0,0.4,0.6,0.1,0.8,0.2
		c-0.3,0.3-0.3,0.6-0.2,0.7l0,0c0.2,0.3,0.7,0.1,1,0.2c-0.1,0.5,0.4,0.5,0.6,0.9c0-0.1,0.2-0.3,0.2-0.3c0,0.1,0.3-0.2,0.1,0.2l0,0
		c-0.1,0.4,0.1,0.4,0.2,0.4l0.2-0.5c0,0.4,0.2,0.4,0.4,0.4c0.2,0,0.4-0.1,0.4,0.3c0.1-0.1,0.2-0.1,0.3-0.2l-0.1,0.3
		c0.2,0.1,0.3,0.2,0.6,0.1l-0.1,0.2c0.2,0,0.2-0.8,0.4-0.8l0,0.4c0.2,0,0.5,0.4,0.7,0c0,0.1,0,0.2,0,0.2c0.1,0,0.5,0.2,0.4-0.3
		c0.1,0.4,0.3,0,0.3-0.2l0,0.3c0-0.4,0-0.5,0.1-0.6c0,0,0.1,0.2,0,0.2c0.2,0.1,0-0.3,0.2-0.2l0,0.2c0.1,0,0.1-0.1,0.1-0.3
		c0-0.1,0.2,0,0.3,0.2c0-0.2-0.1-0.4,0-0.3c0,0.1,0,0.1,0,0.2c0.3,0.1,0.1-0.4,0.4-0.2c0,0.1,0.1,0.1,0.1,0.1
		C20.6,29,20.5,29,20.5,29c0.1,0.2,0.2,0.2,0.3,0.6c0-0.2,0-0.7,0.2-0.6c0,0,0,0,0.1,0.1l0,0c0,0,0.1,0,0.1-0.1c0.1,0,0.1,0,0.1,0
		c0.1,0.2,0.2,0,0.3,0c-0.2-0.2-0.1-0.2-0.2-0.4c0,0,0,0,0,0.1c0,0,0,0,0,0l0,0c0,0-0.1,0.1-0.1,0.1c0-0.2,0-0.3,0.1-0.2
		c-0.1-0.2-0.1-0.3-0.2-0.4c0.3,0.3,0.5,0.4,0.7,0.6c0.1-0.3,0.3-0.4,0.1-0.9c0-0.1,0.1,0.1,0.2,0.1c0,0.1,0,0.1,0,0.2
		c0-0.2,0.2-0.3,0-0.5c0.2,0,0.2,0.3,0.3,0.1l0.1,0.1c0.3,0.1,0.3-0.2,0.2-0.5c-0.1-0.3-0.1-0.5,0.3-0.4c-0.1,0-0.1,0-0.1,0
		c0.6-0.2,0.2-0.9,0.8-1.2c0.1-0.1-0.1-0.2-0.2-0.3l0.3,0.1l-0.3-0.2c-0.2-0.2,0.8-0.1,0.4-0.5l-0.2,0c0.1-0.1-0.1-0.3,0.2-0.2
		c0,0-0.2-0.1-0.1-0.1l0.2,0c-0.1-0.1-0.2-0.2-0.2-0.2c0.1-0.2,0.6,0.1,0.7-0.2c-0.1-0.1-0.4-0.3-0.6-0.2c0,0-0.1,0.1-0.3,0.1
		l-0.1-0.1c-0.5,0-0.9-0.1-1.3,0.1l0.3,0.1L22,24l0-0.1c-0.2,0,0,0.1,0.1,0.1c-0.1,0-0.2,0-0.2,0l0.4,0.1c-0.2,0-0.4-0.1-0.5,0
		c0.2,0.1,0.4,0,0.5,0.1c-0.2,0-0.4,0-0.2,0.1c-0.1,0-0.2,0-0.2-0.1c0.1,0.1,0,0.1,0.3,0.2c-0.3,0,0,0.2-0.4,0.1
		c0.1,0,0.3,0.2,0.3,0.2c-0.5-0.2-0.1,0.2-0.6,0c0.4,0.2,0.1,0.3,0.3,0.5c0,0-0.1-0.1-0.1-0.1c-0.1,0-0.2,0-0.3,0
		c0.4,0.2,0.4,0.3,0.6,0.4c-0.4-0.1-0.4-0.2-0.7-0.4c0.3,0.1,0.2,0.2,0.5,0.3c-0.2-0.1-0.1,0-0.4-0.1c0.4,0.2,0.1,0.1,0.3,0.3
		c-0.3,0-0.4-0.2-0.3-0.1C21.2,25.6,21.1,25.4,21.1,25.4z M20.1,27.4L20.1,27.4C20.1,27.4,20.1,27.4,20.1,27.4
		C20.1,27.4,20.1,27.4,20.1,27.4z M19.9,27.5C20,27.5,20,27.5,19.9,27.5c0.1,0.1,0.2,0.1,0.1,0.2C20.1,27.6,20,27.6,19.9,27.5z
		 M21.3,29C21.3,29.1,21.2,29,21.3,29C21.2,29,21.2,28.9,21.3,29l-0.1-0.1C21.3,28.9,21.3,29,21.3,29z"/>
	<path class="st2" d="M21.2,28.6C21.2,28.6,21.2,28.6,21.2,28.6C21.2,28.6,21.1,28.6,21.2,28.6L21.2,28.6L21.2,28.6z"/>
	<path class="st2" d="M21.3,19.4L21.3,19.4C21.3,19.4,21.3,19.4,21.3,19.4C21.3,19.4,21.3,19.4,21.3,19.4z"/>
	<polygon class="st2" points="17.4,27.3 17.4,27.3 17.4,27.3 	"/>
	<path class="st2" d="M21.6,21C21.6,21,21.6,21,21.6,21C21.6,21,21.6,21,21.6,21z"/>
	<path class="st2" d="M21.8,21.4l0,0.1C21.8,21.5,21.8,21.4,21.8,21.4z"/>
	<path class="st2" d="M21.9,21.8c0,0,0.1,0,0.1,0l0,0L21.9,21.8z"/>
	<path class="st2" d="M17.1,20.1C17.1,20.1,17.1,20.1,17.1,20.1C17.1,20.1,17.1,20.1,17.1,20.1z"/>
	<path class="st2" d="M18.7,19.3c0,0,0,0.1-0.1,0.1C18.7,19.4,18.7,19.4,18.7,19.3z"/>
	<polygon class="st2" points="15.8,21.2 15.8,21.2 15.8,21.2 	"/>
	<path class="st2" d="M18.6,19.4C18.6,19.4,18.6,19.4,18.6,19.4C18.6,19.4,18.6,19.3,18.6,19.4z"/>
	<path class="st2" d="M22.2,23.3L22.2,23.3C22.2,23.3,22.2,23.3,22.2,23.3L22.2,23.3z"/>
	<path class="st2" d="M22.3,23.3L22.3,23.3C22.3,23.3,22.3,23.3,22.3,23.3z"/>
	<path class="st2" d="M22.4,23.4L22.4,23.4C22.3,23.3,22.3,23.4,22.4,23.4z"/>
	<path class="st2" d="M22.3,22.8l-0.1,0C22.2,22.8,22.2,22.8,22.3,22.8z"/>
	<path class="st2" d="M22.2,22.7c0,0-0.2,0.1-0.1,0.2l0.1,0C22,22.8,22.4,22.7,22.2,22.7z"/>
	<path class="st2" d="M23.2,21.6l0,0.2c0.1-0.1,0.2-0.2,0.3-0.1C23.6,21.4,23.2,21.8,23.2,21.6z"/>
	<path class="st2" d="M23.1,21.1c0.1,0.1,0.1-0.1,0.2-0.1C23.2,21,23.1,21,23.1,21.1z"/>
	<path class="st2" d="M20.5,18.6l0.1-0.2C20.5,18.4,20.5,18.5,20.5,18.6z"/>
	<polygon class="st2" points="19.4,19.7 19.4,19.8 19.5,19.6 	"/>
	<polygon class="st2" points="19.5,17.8 19.6,17.8 19.4,17.8 	"/>
	<path class="st2" d="M13.6,19.9l0.3,0.2C13.8,20,13.6,19.8,13.6,19.9z"/>
	<path class="st2" d="M12.7,22.5c-0.2,0-0.3,0.1-0.1,0.1C12.6,22.6,12.7,22.6,12.7,22.5z"/>
	<polygon class="st2" points="16.1,29.5 16,29.6 16.1,29.5 	"/>
</g>
<g>
	<path class="st0" d="M27.7,6.2c0,0.1,0,0.1-0.1,0.2l0.3-0.2L27.7,6.2z"/>
	<path class="st0" d="M34.6,2l-1.1,0.5L34.1,3l-4,2.5l0.2,0l-0.2,0.1l0.4,0.1l-1,0.5l1,0.1l-2.6,1.8l0.4,0.2l-0.8,0.4l0.4-0.1
		l-0.9,0.9c0.2,2.6,1.6,4.8,3.7,6l0,0l0,0c0,0,0,0,0,0l0.5-0.6l-0.2-0.1l1.4-1l-0.2,0l2.6-2.7l-0.2,0l1.1-0.2l-0.3-0.5l0.7-0.1
		l-0.1-0.1L37,10l-0.4-0.1l0.7-0.4l-0.4,0.2l0.2-0.6l0,0l0,0l0.1-0.3l-0.1,0.3l0,0l0.2-0.4l0,0.1l4.1-3.1l-0.4-0.1l0.2-0.3
		c-1.2-2.2-3.5-3.8-6.2-3.9l-0.6,0.6L34.6,2z M30.8,5.6l0.1,0.3L30.8,5.6z M40.8,4.9l-0.3,0.5L40.8,4.9z M38.1,8.1L38,8L38.1,8.1z"
		/>
	<path class="st0" d="M41,6.7l-1,0.9l0.2,0.2L39.8,8L40,7.6l-3.8,3.7l0.4,0.1l-0.6,0.3l0.2,0.1L34.7,12l0.4,0.2l-0.2,0.1l0.3,0
		l-0.3,0.1l0.1,0.3l0.2-0.1L35,12.8l0,0l-1.4,1.3l0,0l0,0l0,0l0,0l-1.7,1.8c0.9,0.3,1.8,0.5,2.8,0.5c4.1,0,7.5-3.4,7.5-7.5
		c0-1.1-0.2-2.1-0.6-3L41,6.7L41,6.7z M33.4,14.5l0.1-0.2L33.4,14.5z M36.5,11.6l0.2,0L36.5,11.6z M38.3,9.4l0.4,0.2L38.3,9.4z
		 M38.9,9.1L39,9.3L38.9,9.1z"/>
	<path class="st0" d="M30.7,3.6l1.8-1.9c-2.2,0.7-4,2.3-4.9,4.5l3-2.7L30.7,3.6z"/>
	<path class="st1" d="M30.9,15.4C30.9,15.4,30.9,15.4,30.9,15.4L30.9,15.4L30.9,15.4z"/>
	<polygon class="st1" points="37.1,9.1 37.1,9.1 37.1,9.1 	"/>
	<polygon class="st1" points="35.1,12.6 35,12.8 35,12.8 	"/>
	<path class="st1" d="M41.4,5.7l-4.1,3.1l0-0.1l-0.2,0.4l-0.2,0.6l0.4-0.2l-0.7,0.4L37,10l-0.5,0.3l0.1,0.1l-0.7,0.1l0.3,0.5
		L35,11.1l0.2,0l-2.6,2.7l0.2,0l-1.4,1l0.2,0.1L31,15.4c0.3,0.2,0.6,0.3,0.9,0.4l1.7-1.8l0,0l0,0l0,0l0,0l1.4-1.3l-0.1-0.3l0.3-0.1
		l-0.3,0l0.2-0.1L34.7,12l1.7-0.2l-0.2-0.1l0.6-0.3l-0.4-0.1L40,7.6l0,0l0,0l1-0.9l0,0l0.6-0.8c-0.1-0.2-0.2-0.4-0.3-0.5l-0.2,0.3
		L41.4,5.7z"/>
	<polygon class="st1" points="40.3,7.8 40.1,7.6 40,7.6 39.8,8 	"/>
	<polygon class="st1" points="40.1,7.6 40,7.6 40.1,7.6 	"/>
	<path class="st1" d="M32.6,1.7l-1.8,1.9l0-0.2l-3,2.7c0,0,0,0,0,0.1l0.2-0.1l-0.3,0.2c-0.3,0.8-0.4,1.6-0.4,2.5c0,0.2,0,0.3,0,0.5
		l0.9-0.9l-0.4,0.1l0.8-0.4l-0.4-0.2l2.6-1.8l-1-0.1l1-0.5l-0.4-0.1l0.2-0.1l-0.2,0l4-2.5l-0.6-0.5L34.6,2l-0.1,0l0.6-0.6
		c-0.1,0-0.3,0-0.4,0C34,1.4,33.2,1.5,32.6,1.7z"/>
</g>
<g>
	<path class="st2" d="M41.5,8.9c0.1,0,0.3,0,0.2-0.1L41.5,8.9L41.5,8.9z"/>
	<path class="st2" d="M42.1,8.4c-0.2-0.1-0.4-0.1-0.8-0.1c0.3,0,0.2,0.1,0.6,0.1c0,0.1-0.1,0.1-0.2,0.1c0.1,0-0.1,0.1,0.1,0.1
		c0.3-0.1,0.3-0.2,0-0.3C42,8.4,42.1,8.4,42.1,8.4z"/>
	<path class="st2" d="M39.3,2.4L39.3,2.4C39.3,2.5,39.3,2.4,39.3,2.4z"/>
	<path class="st2" d="M35.2,0.8C35.3,0.8,35.3,0.7,35.2,0.8C35.2,0.7,35.2,0.8,35.2,0.8z"/>
	<path class="st2" d="M34.4,0.4C34.5,0.4,34.5,0.4,34.4,0.4C34.5,0.4,34.5,0.4,34.4,0.4z"/>
	<path class="st2" d="M39.3,2.4l0-0.2C39.2,2.3,39.3,2.4,39.3,2.4z"/>
	<path class="st2" d="M41.2,7.7C41.2,7.7,41.3,7.7,41.2,7.7C41.3,7.7,41.3,7.7,41.2,7.7L41.2,7.7z"/>
	<path class="st2" d="M40.9,3.5L40.9,3.5c0.1,0,0.1,0,0.1,0L40.9,3.5z"/>
	<path class="st2" d="M41.9,4.8c0,0-0.3,0.1-0.4,0.1c0.1,0,0.2,0,0.2,0C41.7,4.9,41.8,4.8,41.9,4.8z"/>
	<path class="st2" d="M42.3,7.2L42.3,7.2C42.3,7.2,42.3,7.2,42.3,7.2z"/>
	<path class="st2" d="M40.2,2.7C40.2,2.7,40.3,2.7,40.2,2.7C40.2,2.7,40.2,2.7,40.2,2.7z"/>
	<path class="st2" d="M40.7,10.2C40.7,10.2,40.8,10.2,40.7,10.2C40.7,10.2,40.7,10.2,40.7,10.2z"/>
	<polygon class="st2" points="42.3,8.9 42.3,8.9 42.4,8.9 	"/>
	<path class="st2" d="M32.9,0.2L32.9,0.2C33,0.2,32.9,0.2,32.9,0.2z"/>
	<path class="st2" d="M26.2,10.7c0.2-0.2,0.4,0.2,0.6-0.1C26.7,10.7,26.3,10.5,26.2,10.7z"/>
	<path class="st2" d="M41.3,7.6C41.3,7.6,41.2,7.6,41.3,7.6C41.2,7.6,41.2,7.6,41.3,7.6z"/>
	<path class="st2" d="M26.8,10.6L26.8,10.6L26.8,10.6C26.8,10.6,26.8,10.6,26.8,10.6z"/>
	<path class="st2" d="M29.8,1.7C29.8,1.7,29.9,1.8,29.8,1.7C29.9,1.8,29.8,1.7,29.8,1.7z"/>
	<path class="st2" d="M32.2,1L32.2,1C32.2,1,32.2,1,32.2,1z"/>
	<path class="st2" d="M29,2.8C29,2.8,28.9,2.8,29,2.8C28.9,2.9,29,2.9,29,2.8C29,2.9,29,2.8,29,2.8z"/>
	<path class="st2" d="M28.1,3.8C28.1,3.8,28.2,3.8,28.1,3.8L28.1,3.8L28.1,3.8z"/>
	<path class="st2" d="M39.5,13c0.1,0,0.2,0.1,0.2,0.1C39.6,13,39.6,12.8,39.5,13z"/>
	<path class="st2" d="M41.4,7.7c-0.1,0-0.1,0-0.1,0c0,0,0,0,0,0C41.3,7.7,41.4,7.7,41.4,7.7z"/>
	<path class="st2" d="M30.5,4.5l-0.1,0.1C30.4,4.6,30.5,4.5,30.5,4.5z"/>
	<path class="st2" d="M32.9,15L32.9,15C33,15,32.9,15,32.9,15z"/>
	<path class="st2" d="M30.1,4.9c-0.1,0-0.2-0.1-0.2-0.1c0,0,0,0,0,0.1L30.1,4.9z"/>
	<path class="st2" d="M39.7,13.1L39.7,13.1L39.7,13.1z"/>
	<path class="st2" d="M39.8,11.9c-0.1,0.1,0.3,0.2,0.4,0.4c0,0.2-0.3-0.1-0.5-0.1c0,0.1,0.3,0.4,0.2,0.5c-0.1,0-0.1,0-0.1-0.1
		c0.2,0.3-0.2,0.3,0,0.6c0,0-0.1,0-0.1,0c0.2,0.1,0.3,0.2,0.4,0.3c0,0.1,0.1,0.3-0.1,0.1c0,0,0-0.1-0.1-0.2l0,0.1
		c-0.3-0.2,0-0.2-0.2-0.3c0,0.2,0.1,0.5-0.1,0.5c-0.3-0.2,0.1-0.3-0.2-0.4l0.2,0c-0.5-0.3,0.1-0.1-0.4-0.3c-0.2,0.1,0,0.3-0.3,0.4
		c0.1,0.2,0.2,0.2,0.3,0.4c0,0.5-0.8-0.5-0.6,0c0.1,0.2,0.3,0.6,0.1,0.5l-0.2-0.3c-0.2,0.1,0.2,0.5-0.1,0.4c-0.1-0.1,0.1-0.2,0-0.2
		c-0.3-0.2,0,0.2,0,0.3l-0.2-0.3c-0.2,0.2-0.2,0.5-0.5,0.7c0-0.1,0-0.2-0.1-0.3c-0.2,0.3-0.6,0.3-1,0.2l0,0.3c0,0-0.1-0.1-0.1-0.2
		c-0.1-0.1,0,0.2,0,0.3c-0.1,0-0.1-0.1-0.1-0.2c-0.1,0.3-0.5,0.7-0.8,0.4l0-0.1c-0.2-0.1-0.1,0.6-0.3,0.4l0-0.1
		c-0.4-0.1-0.8,0.2-1.1-0.3c-0.1,0.4-0.4-0.2-0.4,0.4c-0.2-0.3-0.1-0.4-0.4-0.7c-0.1,0-0.2,0.3-0.3,0.4l0.1-0.3l-0.2,0.3l0-0.4
		L33,15c0,0,0,0.2,0,0.2c-0.2,0.1-0.3-0.3-0.2-0.5l-0.4,0.1c0.1-0.1,0.1-0.1,0.2-0.2c-0.3,0.2,0.1-0.3-0.2-0.1
		c0,0.1-0.1,0.2-0.1,0.2c0-0.2-0.2-0.3-0.3-0.3l0.1-0.2c-0.2-0.1-0.5-0.2-0.7-0.3c0,0.1-0.2,0.4-0.3,0.4l0.2-0.3
		c-0.2,0.1,0,0.1-0.2,0.3c-0.1-0.1,0.2-0.3,0.3-0.4l-0.2,0c0-0.1,0.1-0.1,0.2-0.2c-0.2,0.1,0-0.4-0.2-0.2l0.1-0.1
		c-0.2-0.2-0.4-0.2-0.6-0.3c-0.2,0.2-0.2,0.1-0.4,0.2c-0.1-0.2,0-0.5-0.2-0.6c-0.2,0-0.2,0.1-0.4,0.2c0.2-0.2,0-0.3,0.3-0.3
		c-0.2-0.2-0.2-0.2-0.6-0.4c-0.1,0.1-0.1,0.1-0.2,0.2c-0.1,0,0-0.2,0.1-0.2l0,0c-0.5-0.1,0.3-1.1-0.3-1.1l0,0l-0.4-0.2
		c0-0.1,0.2,0,0.3-0.1c-0.5-0.2-0.1-0.5-0.4-0.7c0.7-0.3-0.2-0.7,0.3-1l-0.2,0c-0.2-0.1,0.1-0.1,0.1-0.1c-0.1,0-0.2,0.1-0.3,0
		C28.1,8.6,28.7,8,29,7.5c0.1-0.2-0.9-0.4-0.4-0.5l0.3,0.2c-0.1-0.3,0-0.5,0-0.7c0.1-0.2,0.2-0.4,0.2-0.7c0.1,0.1,0.1,0.1,0.1,0.1
		c0.3,0,0.2-0.3,0-0.4c0.1,0,0.2,0.1,0.3,0.1c0.2,0-0.1-0.4,0.1-0.3c0,0,0,0.1,0.1,0.1c-0.1-0.1,0.2-0.2-0.1-0.3
		c0.2,0,0.1-0.3,0.3-0.3c-0.2-0.3,0.3-0.1,0-0.4c0.3,0.3,0.4,0,0.4-0.2c0.1,0.1,0.2,0,0.3,0.2c0.1-0.1,0.1-0.2-0.1-0.4
		C30.9,4.4,30.5,3.5,31,4c0.1-0.4,0.3-0.7,0.6-1c0.2,0.4-0.3,0.2,0,0.6c0.1-0.3,0.2-0.7,0.5-0.8c0.1,0,0,0.2,0,0.3
		c0.2-0.3,0.5-0.2,0.7-0.5c0,0,0,0.1,0,0.1c0,0,0.1,0,0.1-0.2l0,0.1c-0.2-0.3,0-0.7,0-0.8c0.1,0.6,0.3,0.1,0.3,0.8c0,0,0-0.2,0-0.3
		c0.1,0,0.1,0.1,0.1,0.3c0.2-0.2,0.1-0.3,0.2-0.4c0,0.1,0,0.1,0,0.3c0.1-0.2,0.1-0.4,0.3-0.3c0,0.1,0,0.1,0,0.1
		C34,2.3,34.2,1.8,34.5,2c-0.1,0.4,0.1,0.1,0.1,0.5c0,0,0.1-0.1,0.1-0.1l-0.1-0.2c0.1,0,0.3-0.3,0.4-0.1L35,2.2l0.3-0.1L35.1,2
		c0.2-0.2,0-0.5,0.2-0.4c0,0,0.1,0,0.2,0.2l0,0c0.1-0.1,0.2-0.2,0.3-0.1c0,0.1-0.1,0.4-0.1,0.5c0.1-0.3,0.3,0,0.5-0.3
		c0,0.1-0.1,0.3-0.1,0.3L36.2,2c0,0.1,0,0.1,0,0.3c0.2,0.1,0-0.5,0.2-0.2c0,0,0,0.1-0.1,0.1c0.2,0.2,0.5,0,0.7,0.2
		c-0.1,0.4-0.2,0-0.2,0.3c0.3,0,0.7-0.2,1,0l0-0.1c0.3-0.5,0.1,0.3,0.3,0.2c-0.1,0-0.2,0.2-0.1,0.2C38,3.1,38.3,3,38.7,3.1l-0.1,0.1
		c0,0.2,0.2,0.2,0.3,0.4c0.1-0.1,0.2,0,0.2-0.2c-0.1,0.4,0.1,0.5,0.3,0.5c0.2,0,0.5,0.1,0.3,0.4c0,0-0.2,0-0.1,0l0.3,0.1
		c0.2-0.2,0.1-0.1,0.2-0.3c0.1-0.1,0.3-0.1,0.3,0c-0.2,0-0.3,0.2-0.3,0.4c0-0.1,0.1-0.1,0.2-0.1c-0.2,0.4,0.4-0.3,0.3,0.1l-0.1,0.1
		c0.1,0,0.3,0,0.3,0.1c-0.2,0.2-0.2,0-0.3,0.1c0.1,0.1,0.6-0.1,0.4,0.2c-0.1,0-0.1-0.1-0.2-0.1c-0.2,0.3-0.1,0.2-0.1,0.3l0,0l0,0.2
		l0-0.1c0.7-0.2,0.3,0.2,0.8,0.2c-0.5,0-0.2,0.1-0.5,0.2c-0.1,0.1-0.1,0.2-0.2,0.2c0.3,0-0.1,0.2,0.3,0.2c-0.1,0,0,0.1-0.2,0.2
		c0.1,0.1,0.1-0.1,0.3-0.1c0.4,0.1-0.2,0.6,0.3,0.7C41.5,7,41.8,7,42,7.2c-0.1,0.1-0.4,0-0.4,0c-0.1,0.2-0.1,0.2,0.1,0.3
		c-0.1,0-0.2,0-0.3,0.1c0,0.1,0.4,0,0.2,0.1c-0.1,0-0.3,0-0.4,0c0.1,0.1,0.3,0.2,0.4,0.3c-0.2,0.1-0.3,0-0.4-0.1
		c0.1,0.1,0.2,0.3,0.5,0.3l0.1-0.1c0,0-0.2,0-0.3,0C41.4,8.1,41.7,8,41.8,8l0.1,0.1c0.6-0.2-0.1-0.3-0.1-0.5l0.4,0l-0.4-0.1
		c0.1-0.1,0.3-0.1,0.4-0.1c0.2-0.2-0.2-0.1,0-0.2c0,0,0.1,0,0.1,0l-0.2-0.1c0.1,0,0.3-0.1,0.2,0c0.2-0.3-0.4-0.3-0.1-0.4l0,0
		c-0.2-0.3-0.3,0.1-0.7,0l0.7-0.4l-0.3,0.1c0,0,0-0.1,0.1-0.1c-0.2,0-0.1,0.1-0.3,0.1c0.2-0.3-0.3-0.3,0.1-0.6
		c-0.2,0-0.1,0.2-0.3,0.1c0.5-0.3-0.2-0.1,0-0.4c0.3-0.1,0.2,0.1,0.3-0.1c-0.4,0.1,0-0.3-0.2-0.4c-0.3,0.2-0.3-0.2-0.5-0.3
		c0.1-0.1-0.1-0.4-0.1-0.7l0.1,0c-0.3,0.2-0.4,0-0.5-0.1c0.2-0.1,0.3-0.2,0.4-0.2L41,3.6c-0.1,0.1-0.2,0.1-0.3,0l0.2-0.2
		c-0.1-0.1-0.5-0.1-0.5-0.4c-0.2,0.2-0.4,0.6-0.7,0.6c0.1-0.1,0.2-0.3,0.3-0.3c0,0-0.1,0-0.1,0l0.2-0.1c0-0.1-0.2,0.1-0.2,0
		C40.1,3.1,40,3.1,40.1,3c0,0,0,0.1,0.1,0.1c0-0.1-0.1-0.3,0-0.4C40.1,2.8,40,2.9,40,2.9c-0.1-0.1,0.1-0.2,0.1-0.4
		c-0.1,0.1-0.1-0.1-0.3,0.1c0,0,0-0.1,0.1-0.2c-0.2,0-0.4-0.2-0.5,0.1l0,0c0,0,0,0,0,0l0,0l0,0c-0.4,0-0.4-0.5-0.8-0.5l0-0.1
		c-0.2,0-0.4-0.1-0.6,0c0,0,0-0.2,0-0.3c-0.2,0-0.2,0.1-0.3-0.1c0.2-0.1,0-0.2,0.2-0.1c-0.1-0.1-0.1-0.3-0.4-0.1
		c0.2-0.2,0-0.3-0.1-0.3l0.1,0.2c-0.1,0-0.2-0.1-0.3-0.1l0.1-0.3c-0.3-0.5-0.8,0.5-1-0.2c-0.1,0.2,0.2,0.2,0,0.4
		C36.2,0.9,36,0.4,36,0.4c-0.2-0.2-0.3,0.4-0.5,0.3c0,0.1,0,0.4-0.2,0.5c-0.2-0.1-0.2-0.5-0.1-0.6c0,0,0.1,0,0.1,0.1
		c0.1,0,0.1-0.1,0.1-0.2l0,0.1c-0.1-0.1-0.3-0.1-0.3-0.3c-0.1,0.1-0.1,0.2,0,0.3c-0.2-0.2-0.4,0-0.6-0.1c0,0.1,0.1,0.2,0,0.2
		c-0.3-0.1-0.1,0.2-0.4,0.3c-0.1-0.2,0-0.4-0.2-0.3c-0.2-0.1-0.1-0.3,0-0.4c-0.2,0.2-0.4-0.1-0.6-0.1L33.5,0
		c-0.1,0.1-0.1,0.1-0.2,0.1l0.1,0.2c-0.1,0-0.1,0-0.1-0.1c0,0.2,0.1,0.4,0,0.6C33.2,0.7,33,1,32.9,0.7c0.3,0.1-0.1-0.3,0.1-0.4
		c0,0-0.1,0.1-0.2,0c0,0,0-0.1,0-0.1c-0.3-0.2-0.1,0.4-0.3,0.4c0-0.2-0.1-0.3-0.2-0.3c0.1,0,0.1,0.3,0.1,0.4C32.3,0.7,32.3,1,32.2,1
		l0.1,0c0,0.2-0.1,0.2-0.2,0.3c-0.1-0.1,0.1-0.1,0-0.2c0,0.3-0.4-0.2-0.5,0.1c-0.1-0.1-0.1-0.3-0.2-0.4C31.3,1.1,31.1,0.7,31,1
		c0.2,0.2,0.1,0.1,0.1,0.4l0.3-0.3l-0.1,0.4c0.1,0,0.1-0.2,0.2-0.2c0,0.2,0,0.2,0.1,0.3c-0.3-0.3-0.2,0.3-0.4,0.2l-0.3-0.5
		c-0.4-0.1-0.3,0.5-0.7,0.5l0.1,0c0.1,0.2-0.2,0.1-0.2,0.3c-0.1-0.2-0.2-0.2-0.3-0.3c0.1,0.1-0.2,0.1,0,0.5l-0.3-0.1
		c-0.3,0.1,0.1,0.6-0.1,0.7c-0.1-0.2-0.3-0.2-0.2-0.5c-0.1,0.1-0.2,0.1-0.1,0.2C29,2.6,29.2,3,29,2.9c0,0.1,0.2,0.2,0.1,0.3
		c0,0-0.1-0.1-0.1-0.1c0.1,0.1,0,0.2,0.2,0.3c-0.6-0.2-0.5,0.6-1,0.4C28.1,4,28,4.3,27.9,4.4c0,0-0.1-0.1,0-0.1
		c-0.3,0.1,0.4,0.4,0.1,0.5c-0.3,0-0.1-0.2-0.2-0.2C27.2,4.4,27.7,5,27.3,5l0-0.1c-0.3,0,0.1,0.4-0.1,0.6c0,0,0,0-0.1,0
		c0.2,0.3,0.2,0.6,0.2,0.8c-0.2-0.1-0.1-0.1-0.4-0.2c0,0.1,0.4,0.1,0.4,0.3c-0.2,0-0.3,0.1-0.6,0c0-0.1,0-0.1,0-0.2
		c-0.4,0-0.1,0.2-0.1,0.3l-0.1-0.1c0,0.3,0.4,0.4,0.3,0.7l0.1,0c0.3,0.2-0.2,0.1,0,0.3l-0.4,0c0.1,0.1,0.3,0.4,0.4,0.6
		c-0.3-0.1-0.4-0.4-0.5-0.6c0,0.1,0,0.4,0.2,0.5c0,0-0.1-0.1-0.1-0.2c0.3,0.2,0.4,0.4,0.4,0.6c-0.8-0.1-0.2,0.5-0.8,0.7
		c0.3,0.4-0.1,0.8,0.1,1.3c0.6-0.3,0,0.1,0.6,0c0.1,0.1,0.1,0.1,0,0.2L26.5,11c-0.2,0.1-0.2-0.1-0.3,0c0,0.3-0.2,0.2-0.3,0.4
		c0.2-0.1,0.3,0,0.3,0.2l0.2-0.3c0.4,0.2-0.4,0.4,0,0.7l-0.2,0c0.2,0.1,0.2,0.6,0.8,0.6c-0.1,0.1-0.2,0.2-0.3,0.1
		c0.1,0.4,0.9,0.6,0.8,1l-0.1,0.1c0.1,0,0.3,0,0.2,0.1c-0.1,0-0.1,0.1-0.1,0.1c0.1,0,0.3,0,0.3,0.1l-0.2,0c0.1,0.5,0.7,0.3,1,0.4
		c-0.3,0.3-0.2,0.6-0.1,0.8l0,0c0.3,0.4,0.9,0.3,1.3,0.4c-0.1,0.6,0.6,0.7,0.9,1.1c0-0.1,0.2-0.3,0.3-0.3c0.1,0.1,0.4-0.2,0.2,0.2
		l0,0c-0.1,0.4,0.1,0.4,0.3,0.5l0.2-0.5c0.1,0.4,0.4,0.5,0.6,0.5c0.3,0,0.5,0,0.6,0.3c0.1-0.1,0.3-0.1,0.4-0.2l-0.1,0.3
		c0.3,0.1,0.4,0.2,0.8,0.1l-0.1,0.2c0.2,0,0.3-0.8,0.5-0.8l0,0.4c0.3,0,0.7,0.4,1.1,0c0,0.1,0,0.2-0.1,0.2c0.2,0,0.7,0.2,0.5-0.4
		c0.1,0.4,0.4,0,0.5-0.2l0,0.3c0.1-0.4,0.1-0.5,0.2-0.6c0.1,0,0.1,0.2,0,0.2c0.2,0.1,0.1-0.3,0.3-0.2l0,0.2c0.2,0,0.1-0.1,0.2-0.3
		c0.1-0.1,0.3,0,0.4,0.2c0-0.2,0-0.4,0.1-0.3c0,0.1,0,0.2,0,0.2c0.4,0.1,0.3-0.5,0.6-0.3c0,0.1,0.1,0.1,0.1,0.1
		c-0.2,0.1-0.4,0.2-0.4,0.1c0.1,0.2,0.3,0.2,0.3,0.6c0.1-0.2,0.1-0.7,0.3-0.7c0,0,0,0,0.1,0.1l0,0c0.1,0,0.1,0,0.1-0.1
		c0.1,0,0.1,0,0.2,0c0.1,0.2,0.3,0,0.3-0.1c-0.2-0.2,0-0.3-0.2-0.4c0,0,0,0,0,0.1c0,0,0,0,0,0l0,0c-0.1,0-0.1,0.1-0.2,0.1
		c0-0.2,0-0.3,0.2-0.2c-0.1-0.2-0.1-0.4-0.1-0.5c0.3,0.3,0.6,0.3,0.8,0.5c0.1-0.3,0.5-0.5,0.3-1c0-0.1,0.2,0.1,0.2,0.1
		c0,0.1,0,0.1,0,0.2c0-0.2,0.3-0.4,0.1-0.7c0.3,0,0.2,0.3,0.3,0.1l0.1,0.1c0.4,0,0.4-0.3,0.4-0.6c0-0.3-0.1-0.6,0.4-0.6
		c-0.1,0-0.1,0-0.1,0c0.7-0.4,0.4-1.3,1.2-1.8c0.2-0.1,0-0.2-0.2-0.4l0.3,0.1l-0.3-0.3c-0.2-0.3,0.9-0.3,0.4-0.8l-0.2,0
		c0.1-0.1-0.1-0.4,0.2-0.4c0,0-0.2-0.1-0.1-0.1l0.2,0c-0.1-0.1-0.2-0.2-0.2-0.3c0.1-0.2,0.6,0.1,0.7-0.3c-0.1-0.1-0.4-0.4-0.5-0.3
		C42.6,9,42.5,9,42.4,9l-0.1-0.1c-0.5,0-0.9-0.1-1.3,0.1l0.3,0.2l-0.2,0l0-0.1c-0.2,0.1,0,0.1,0.1,0.2c-0.1,0-0.2,0-0.3,0.1l0.4,0.2
		c-0.2,0-0.4-0.1-0.5,0c0.2,0.1,0.4,0,0.5,0.1c-0.2,0.1-0.4,0-0.2,0.1c-0.1,0-0.2,0-0.2-0.1c0.1,0.1,0,0.2,0.3,0.3
		c-0.3,0,0,0.3-0.4,0.2c0.1,0,0.3,0.2,0.3,0.3c-0.5-0.3-0.1,0.3-0.6,0.1c0.4,0.2,0.1,0.4,0.3,0.7c0,0-0.1-0.1-0.1-0.1
		c-0.1,0.1-0.2,0.1-0.3,0.1c0.4,0.2,0.4,0.3,0.5,0.5c-0.4,0-0.4-0.3-0.7-0.4c0.3,0.1,0.2,0.3,0.4,0.4c-0.3,0-0.1,0-0.4-0.1
		c0.4,0.2,0,0.1,0.3,0.3c-0.3,0-0.4-0.2-0.4,0C39.9,12.1,39.8,11.9,39.8,11.9z M37.8,14.9L37.8,14.9C37.8,14.9,37.8,14.9,37.8,14.9
		C37.8,14.9,37.8,14.9,37.8,14.9z M37.5,15c0,0,0.1,0,0.1-0.1c0.1,0.1,0.1,0.2,0.1,0.2C37.7,15.1,37.6,15.1,37.5,15z M39.1,16.4
		c0,0.1-0.1,0-0.1,0c0,0,0,0,0.1-0.1l0,0C39.1,16.3,39.1,16.4,39.1,16.4z"/>
	<path class="st2" d="M39,16C39,16,39,16,39,16C39,16,39,16,39,16L39,16L39,16z"/>
	<path class="st2" d="M39.3,2.5L39.3,2.5C39.3,2.5,39.3,2.5,39.3,2.5C39.3,2.5,39.3,2.5,39.3,2.5z"/>
	<polygon class="st2" points="33.3,15 33.3,15 33.3,15 	"/>
	<path class="st2" d="M40.1,4.5C40.1,4.5,40,4.6,40.1,4.5C40.1,4.6,40.1,4.5,40.1,4.5z"/>
	<path class="st2" d="M40.5,5.2l0,0.1C40.5,5.3,40.5,5.2,40.5,5.2z"/>
	<path class="st2" d="M40.7,5.8c0,0,0.1,0,0.1,0l0,0L40.7,5.8z"/>
	<path class="st2" d="M32.8,2.8C32.8,2.8,32.8,2.8,32.8,2.8C32.8,2.8,32.8,2.8,32.8,2.8z"/>
	<path class="st2" d="M35.5,1.9c0,0-0.1,0.1-0.1,0.1C35.4,2,35.5,2,35.5,1.9z"/>
	<polygon class="st2" points="30.5,4.5 30.5,4.5 30.5,4.5 	"/>
	<path class="st2" d="M35.3,2c0,0.1,0.1,0,0.1,0C35.4,2,35.3,1.9,35.3,2z"/>
	<path class="st2" d="M41.3,8.2L41.3,8.2C41.3,8.2,41.3,8.2,41.3,8.2L41.3,8.2z"/>
	<path class="st2" d="M41.3,8.2L41.3,8.2C41.3,8.2,41.3,8.2,41.3,8.2z"/>
	<path class="st2" d="M41.4,8.3L41.4,8.3C41.4,8.3,41.3,8.3,41.4,8.3z"/>
	<path class="st2" d="M41.3,7.4l-0.1,0C41.2,7.4,41.2,7.4,41.3,7.4z"/>
	<path class="st2" d="M41.2,7.2c0,0.1-0.2,0.2-0.1,0.2l0.1,0C41,7.4,41.4,7.2,41.2,7.2z"/>
	<path class="st2" d="M42,5.8L42,6c0.1-0.1,0.2-0.2,0.3-0.1C42.5,5.5,42.1,6.1,42,5.8z"/>
	<path class="st2" d="M41.9,5C42,5.1,42,5,42.1,4.9C41.9,4.9,41.9,4.9,41.9,5z"/>
	<path class="st2" d="M38,1.5l0.1-0.2C38,1.2,38.1,1.3,38,1.5z"/>
	<path class="st2" d="M36.7,2.4l0,0.2l0.1-0.2C36.8,2.3,36.7,2.4,36.7,2.4z"/>
	<polygon class="st2" points="36.6,0.5 36.6,0.4 36.4,0.5 	"/>
	<path class="st2" d="M28.1,3.5l0.3,0.2C28.3,3.6,28.1,3.3,28.1,3.5z"/>
	<path class="st2" d="M26.6,7.2c-0.2,0-0.3,0.1-0.1,0.2C26.5,7.3,26.7,7.2,26.6,7.2z"/>
	<polygon class="st2" points="31.7,17.1 31.5,17.2 31.7,17.2 	"/>
</g>
</svg>
