<?xml version="1.0" encoding="utf-8"?>
<!-- Generator: Adobe Illustrator 21.0.0, SVG Export Plug-In . SVG Version: 6.00 Build 0)  -->
<svg version="1.1" id="Layer_1" xmlns="http://www.w3.org/2000/svg" xmlns:xlink="http://www.w3.org/1999/xlink" x="0px" y="0px"
	 viewBox="0 0 147.3 94.4" style="enable-background:new 0 0 147.3 94.4;" xml:space="preserve">
<style type="text/css">
	.st0{opacity:0.75;fill:#B5AED3;enable-background:new    ;}
</style>
<path class="st0" d="M138.1,94.2c1.7-0.2,2.9-0.9,4.2-1.9c-0.4,0-0.6,0-1,0c0.8-0.2-1.2,2.3-1.9,0.6c0.2-0.2,0.6-0.2,0.8-0.4
	c-1.3-1.2-4.6,0.9-5.6,0.9c0.8-0.6,16.1-3.3,10.2-6.6c1-1.1,1-0.6,2.5,0c-1.1-1.5-4.4-3.5-4.6-4.8c0.4,0.2,0.8,0.6,1.3,0.8
	c-0.4-1.3-3-2.3-4-2.7c0.6,0,0.8-0.4,0.6-1.1c-1.3-0.4-1.3-1.2-1.3-1.2c-5.9-3.9-3.4-11.9-8.5-17.3c1.3,0.6-3.2-5-3.6-5
	c0.6,0.2,1,0.2,1.7,0c-1.7,1.7-4.4-5.2-5.7-3.7c0-0.4,0.2-1.7,1-1.3c-0.6,0.2-1.5,0.6-2.1,0.4c0.4-0.4,1-0.6,1.7-0.4
	c-1.9-0.4,2.7-7.6,2.7-7.6c-2.3,0.2-1.1-2.1-0.4-2.1c-1,2.3,0.6-0.6,0.6,0.2c-0.2,0.4-0.2,0.8-0.2,1.5c0.4-1.9,0.8-3.6,1.4-5.2
	c1.3,0-0.8,3.8-0.6,3.6c0.8-0.4,1-0.2,0.6,0.4c0.2-1.5,1.8-6.1,2-8c0.2-1.3,1.9-2.1,2.1-3.2c0.2-2.1-1.3-3.1-0.7-5.2
	c0.2,0.2,0.6,0.6,0.8,0.8c0.2-2.1-1.1-2.7-0.7-4.8c0.2,0.6,0.4,1.3,0.4,1.9c1.6-4.8-3.3-18.4-7.9-21.5C119.4-1.6,114,1.1,113.3,3
	c-1.2,2.7-3.9,8.2-5.4,8.6c-1.5,1.7-2.7,5.7-3.7,7.6c0.6,0.4,1.3,0.6,1.9,1c0.2,0-2.3-0.2-2.1-0.8c-1.7,3.2-6.2,7-6,10.5
	c-1,0-0.9-2.1-0.9-2.3c-0.2,0.2-0.6,0.4-1,0.2c-0.2-0.8,0-0.2-0.6-1.3c-1.1-1.9,0.4-1.1-0.6-0.8c-2.5-2.9-2.6-5-5.9-7.5
	c1.7-0.9,0.6,0.4-1.1-1C83,13.3,81.1,11,74,8.3c1.1,0.8,0.8,1.3-0.4,1.3c0-0.2,0-0.6-0.2-0.8c-1,0.2,1.5,0.6-0.6,0.8
	c-1.1-0.6-0.8-1,0.2-1.3C65.4,4,55.5,5.1,47.4,9c0.8,0.8,3.2,4.8,2.1,4c2.3,2.9,8,5.6,9.3,5.6c3.8,2.3,7.8,12.5,12.5,13.7
	c-0.4-0.4-0.6-0.4-0.6,0.2c5.5,4.8,3.9,13-1.6,15.3c1.1,1.2-21.1,5.8-24.9,4c0.4-0.2,0.6-0.4,1-0.6c-4.2,0.2-10.7-0.5-13.6-4.3
	c1.1,0.4-3.6-6.3-3.6-6.3c-2.7-1.9-3.4-5.8-7.2-6.2c-3.8-0.6-8.3,4.5-10.8,6.4c-1.5,1.1-8.5,6.1-9.6,8.7c-2.1,5.7,5.1,8.1,8.9,10.4
	c-0.8,0.8-3.8-2.5-4.2-1.4c1.3,0.6,10.5,4.9,7.6,4.8c4.2,2.5,3.2,2.9,5.5,7.1c-1.7,0.4,0.8,0.4,0.2,0.6c-1.5-1.9,2.3,1.4,2.3,1.4
	c-1.7-0.6,0.9,3.3-1.7,2.3c0.4,0.6,3,4.4,1.9,4.2c1.3,0.8,2.3,1.9,3.4,3.1c-0.2,0.2-0.4,0.2-0.6-0.2c2.3,2.5,7.2,6.9,10.1,8.1
	c-0.2-0.2-0.4-0.4-0.4-0.8c1.5,0.4,2.9,1,4.4,1.6c0,0.4-8.2-2,1.7,0.8c-0.4-0.4-1.1-0.6-1.5-1c2.1,0.2,2.3-0.4,4.4,1
	c3.4-0.2,8.8,2,10.3,1.8c2.7,0.2,5.2,0.2,8-0.1c0.6,0.6-1.9,0.6-1.2,1.1c3.8-0.2,7.3-1.7,11.1-2.2c0,0,2.1,0.2,3.8-0.9
	c0.6-0.2,8.2-1.9,10-2.4c5-1.7,9.6-6.4,15.2-7.2c-0.4,0.2-0.6,0.4-0.6,0.6c1-0.6,2.1-1.5,2.9-2.1c-0.8-0.4-4.2,1.1,0.2-1.9
	c-1.5,1.5,4.8-2.6,5.6-2.8c0,0.4-0.2,0.8-0.6,1.3c1-1.1,2.1-1.5,3.6-1.5c-2.9,0.9,0.6,1,1.3,2.1c1.9-0.6,1.9,1.7,4.2,3.1
	c-3.6-2.5,1.3,6.1,1.3,6.1c0-0.4,0-0.6,0-1c3.2,2.5,3.4,5.4,7.6,6.6c1.9,0.6,3.8,0,5.7,0.4c-0.2,0.4-0.4,0.6-1,0.6
	c1.5,0.8,8,0.1,5.7,1.4C138.8,93.7,140.6,92.3,138.1,94.2z M90.9,77.6C92.1,77.1,91.9,77.8,90.9,77.6z M92.5,76.5
	C93.6,75.9,92.7,76.5,92.5,76.5z M56,61.9c-0.6,0.8,4.8,0.2,6.9-0.3c3.6-0.7,8.6-4.3,10.9-4.1c3.1-0.9,6.9-6.3,8.1-8.9
	c1.4-2.7,3.9-5.5,2.3-5.9c-0.9-3.6,1.9-0.4,0-5c1.3,0-0.9-5.6-2.6-8.6c0,0.8-0.4,1.1-1,0.6c0.2-0.2,0.4-0.4,0.6-0.6
	c-0.2,0.2-0.4,0.4-0.8,0.4c0-0.6,0.4-0.8,1-0.6c-0.4-2.9-4.4-5.4-6.8-8.5c1.1,0.6,8.6,6,8.6,6c-0.2,0-0.6,0.2-0.8,0.2
	c2.5,1,3.4,3.7,5.5,5.2c2.7,0.2,4.7,15,3.7,19.7c-0.2-0.6-0.4-1.5-0.6-2.1c0,0.2,0.5,5.9-0.8,3.6c-0.4,1.5-2.9,3.8-2.5,4.2
	c-0.4-0.8,0.9,2.3,0.6,1.9c-0.6-1.5-1.5,0.8-2.1-1.2c0,0-1,2.3-1.2,1.3c-0.6,3.4-6.5,4-6.9,5.3c-0.4,0.2-0.6,0.6-1,0.8
	c2.3,0.6-4,1.9-4.2,2.8c0.4-1.5-1.3,0.4-1.5,0.4c0.6-0.6-3.1,0.9-3.3,0.9c0-0.4,0.2-0.8,0.4-1.1c-7.1,2.6-11.5,2.6-18.4,1.6
	c-0.6,0-1,0-1.7,0.2c0,0.6,1.5,1.7-0.8,1.3c0.4-0.4,0.4-0.8-0.2-1.3c0,0.8-2.3,1.1-2.7,0.6c0.2-0.4,0.4-0.6,0.6-0.8
	c-0.6,0.4-1.3,0.4-2.1,0.2c2.1-0.9-0.2-0.8-1.1-1.7c-0.8,0.8-1.7,0.2-2.9,0.9c2.9-1.5-2.1-2.3-1.7-2.9c-0.2,0-6.1,0.3-7.3-0.2
	c0.2-0.4,0.4-0.4,0.6-0.6c-0.6-0.8-3.6-1.4-1.9-2.1c-1.5-0.2-1.7-1.7-3.1-0.6c0.6-0.8,0.4-0.4,1-0.8c0-0.2-0.4-0.8-0.2-1.3
	c0.2,0.4,0.4,0.6,1.1,0.6c-0.4-0.2-0.6-0.6-0.8-1.3c0.4,0,1.5-0.4,1.3,0.4c0-0.4,0.8-2.7,1.5-1.3c-0.2-0.4-0.2-0.8,0-1.3
	c0,1,0.4,0.8,0.4,1.9c0-1.3,1.7-0.2,2.3-0.2c-1.5,0.8,2.1,0.6,3.1,0c0,0.8-0.2,1.5-0.6,2.1c0.6-0.4,1-0.8,1.5-1.3
	c0.4,0.2,0.6,0.6,0.6,1.3c0.2-2.3,1.5,1,1.5,1c0.6-0.2,1-0.6,1-1.3c0.6,0.2,0.8,0.6,0.6,1.3c0.6,0,5.2-1.1,5.2-0.5
	c-0.2-1.3,0.8-1.9,1-1.1c0.2,0-0.6,0.4-0.6,1.1c0.8-0.4,1.7-0.4,2.7-0.4c-0.6,0.2-0.8,0.4-0.8,1.1c-0.4-0.2-0.6-0.2-1.1-0.4
	c0.6,1.5-0.6-0.2,0,1.3c2.5,0.8,6.1-1.9,8-0.9c-0.2,0.4-0.2,0.6-0.4,1.1C54.3,62.1,55.1,61.9,56,61.9z M99.4,41.2
	C101.3,42.7,99,41.5,99.4,41.2z M99,41c0.6-0.6,7.3-0.9,5.6-6.3c3.6,1.6-0.4-1.5,2.9-0.2c-1.3-4,0.7,4.4-0.9-4.6
	c1.1,1.2,1.5,1,1-0.6c-0.2,1,0.4,1.5,1.3,1.7c1-0.8,3.3-7.6,1.2-8.6c4.4,2.1,7.3-10.1,7.9-9.1c0.8,0.8,1.1,0.8,0.2,0
	c0.4,0.8,0.6,0.6,0.6-0.4c0,0.4,0,0.8,0.4,1c0-0.4-0.6-2.1,0.8-2.7c-0.2,1.9-0.2,1.9,0-0.2c1.1,6.1-6.7,32.7-4.8,36.7
	c-3.2-2.7-14.4,4.5-18,5.2c0.6-0.6,1.2-1.3,1.9-2.1c-0.4,0.4-0.8,0.8-1.2,1.3c1-1.1,1.2-1.9,2.3-3.4c-0.6,0.8-1.2,1.1-1.7,0.2
	c3.1-0.4,0.6-7.1,1.2-7.1C96.9,44.2,101.5,43.1,99,41z M111,23.6C111.8,24.4,111.2,23.1,111,23.6z M111.2,24.2
	C111,24.8,111.2,24.4,111.2,24.2z M51,71.4C51.4,70.1,52.5,71.3,51,71.4z M16.5,55.3c0.8,0.4-1.3-3.8-1.3-4
	c-0.6,0.4-0.4,0.4-2.1,0.4c0-1-1.9-0.4,1.5-0.8c-1.9,0.2-1.9,0-0.4,0c-2.7-0.4,0.2-0.2,0.6,0c-1.3-0.2-1.3-0.2,0.2,0
	c-3.1-0.4,0.2,0-1.7-0.8c0.6,0,4.8-2.1,5.6-3.8c0,1.5,0,1.5,0.4-0.2c-0.2,0.8-0.4,2.1,0.6,0c0,0.4-0.2,0.8-0.6,1.3
	c1.2-1.7,0.2,1.9,4,0.2c-2.9,2.7,1.1,2.5,1.5,1.9c-1.3,0-0.2,1.9,0.2,1.9c-3.1,0-0.4,1.3-1.4,2.5c-1.3-2.7-0.6-0.2-0.4,0.4
	C23,54,20.7,52.3,22.4,55c-2.1-3.1-1.5-0.6-2.9,0.2c0-0.4,2.3-2.5-1,0.4c2.1-3.2-0.6,0.8,0.8-2.3C17.4,55.1,19.4,51.5,16.5,55.3z
	 M19.5,55.5L19.5,55.5z M24.3,53.5C23.4,52.5,24.3,53.3,24.3,53.5z M25.2,63c0.2-0.8,0-1.3,0.8-1.1c-0.2,0.2-0.4,0.4-0.6,0.6
	c0.4-0.2,0.6,0,0.6,0.2c-0.2,0,0.6-1.5,1-0.4c0.4,1.9-0.4,0.2,1.9,1.7c-0.2,0.2-0.4,0.4-0.6,0.6C24.8,64,23.7,63.4,25.2,63z
	 M29.4,64.6C29.6,65.2,27.5,65.3,29.4,64.6z M98,53.2C99.9,50.9,98.6,53,98,53.2z M98.6,44C99.8,45,98.6,44.2,98.6,44z M98.6,46.5
	C99.9,46.7,98.4,47.1,98.6,46.5z M19.5,57.6C21.2,57.3,20.1,58,19.5,57.6z M125.1,64.3C125.8,65.3,124.1,64.7,125.1,64.3z
	 M133.8,82.7C134.5,83.9,133.2,83.7,133.8,82.7z M130.7,88.1c-0.4,0,0.6-1.5,0.8-1.9c-0.6-0.4-1.9-1.5-2.3-1.4
	c0.8,0.2-0.4-0.4-1.7,0c0.4-0.2,0.4-0.6,0.4-1.1c-0.2,0.4-0.6,0.8-1,1.1c0-0.4-0.4-1.3,0.2-1.3c-1.3,0-2.9-2.1-3.4-2.7
	c2.1,0-2.1-4.6-2.3-4.8c1.9,0.2-1.5-1.9-2.3-2.1c0.4-0.6,1-0.8,1.9-0.9c-1.3,0.8-2.3-0.6-1.7-1.9c-1.7,1.1-2.1-2.5-2.1-2.5
	c1,0-0.4,0.4-1,0.6c-1.9-0.8-0.2-1.7-3.6-1.6c0.8,0-4.8-0.4-4.6,0.2c0.6,1.3-0.4,2.1-0.8,1.5c-0.2,0,0.6-0.6,0.4-1.3
	c-0.8,0.6-1.9,1.1-2.9,1.5c-0.6-1,1.7-1.3,1.9-1.3c-0.6-0.4-0.6-0.6,0-0.6l-8.1,4.7c0-0.4-0.2-0.6-0.2-1c-0.4,0.8-0.8,1.5-1.7,1.9
	c0.2-0.2,0.4-0.6,0.6-0.8c-0.4,0-1.9,1.3-2.3,1.5c-3.3,1.7-5.4,2.1-9.2,4c-1.3,0.6-3.1,3.6-6.1,3c-0.6,0.6-1.2,1.1-2.1,1.5
	c-3.6,1.1-13.8,2.8-15.3,1.8c-0.8,0-0.8,0.4,0,0.8c-0.6,0.2-3.6-0.2-4.6,0c0.2-1-5-0.8-8.4-1.2c0.4,0.6,0.4,1-0.2,1.3
	c0-0.2,0-0.6,0-0.8c0,0.4,0,0.6-0.2,0.8c-0.4-0.4-0.4-0.8,0.2-1.3c-1.5-0.8-4.4-1-6.9-1.4c-2.7-0.6-6.7-4.3-8.6-3.5
	c-0.8-0.4-2.3-4-3.4-4.8c0.4,0.2,1.1,0.4,1.5,0.6c-1.3-0.8-0.6-1-1.5-2.1c0.2,0.2,2.3,1.7,2.7,2.3c-0.9-1.9,0.2,1.7-0.4-0.8
	c0.6-0.2,2.1,0.8,2.5,1c2.3,0.8,4.4,2.3,6.9,2.9c1.5,0.4,1.5-1.9,3.1-0.7c-0.2,0.2-0.4,0.4-0.6,0.6c3.3-0.4,6.5,1,9.8,0.1
	c-0.4,0.4,7.5-0.3,9.4-0.5c5.9-0.9,9.8-1.8,16.3-6c0.4,1-2.3,1.1-1.7,2.3c0.2-0.2,5.2-5.5,4.4-2.8c1.2-1.1,5.6-3.4,5.2-3.8
	c0.4,1.3-0.7-3.1,0-2.1c0.4,1.7,1.7-0.9,2.1,1.2c0-0.2,1.4-2.5,1.7-1.5c0.4-1.7,6.7-6.1,7.9-6.1c-1.9,1.1,1.3-0.2,0.8-0.2
	c-1.9-2.5,4,0,4.6-2.8c-0.8,1.5,1.5-0.2,1.7-0.2c-0.6,0.4,3.4-0.2,3.6-0.2c-0.2,0.4-0.4,0.6-0.6,1.1c6.1-0.9,5.7,0.2,10.3,2.9
	c1.3,1.9,3.6,6,4.2,7.7c1.5,2.3,1.9-0.2,2.5,1.7c-0.6-0.2-1,0-1,0.8c0.6-0.4,2.1,1.9,2.1,2.3c-0.4,0-0.6,0-1-0.2
	c0.6,0.4,1.3,1,1.5,1.9c-1.9-1.5-0.6,0.6-0.8,1.9c0.8,0.2,1.5,1.5,2.7,2.1c-3.2-1.4-0.2,3.6-0.6,3.6c0.4,0.2,0.6,0,0.6-0.4
	c0.8,0.4,5.5,4.6,6.3,5.4c-0.2,0.6-2.3,0.6-2.1,0.6c2.5,4-0.4-1.3,1.5,0c0.6,1.3-0.4,0.4,1.3,1C135.1,88.3,132.8,88.3,130.7,88.1z
	 M138.1,87.9c-0.4-0.6-0.2,0.2-0.6-0.2c0.2,0,0.2-0.2,0.2-0.4C138.1,87.5,138.3,87.7,138.1,87.9z M128.9,10.2
	C130,12.1,129.1,10.6,128.9,10.2z M127.8,8.1C127.2,9,127,6.3,127,6.5C127.2,7.1,127.6,7.7,127.8,8.1z M94.7,83
	C93.8,82.1,97.2,81.3,94.7,83z M123.4,90.1C123.2,88.2,125.9,90.7,123.4,90.1z M133.3,93.2c-0.6-1-0.2-1.3,1.7-0.6
	C134.3,92.7,133.7,92.9,133.3,93.2z"/>
</svg>
