<?xml version="1.0" encoding="utf-8"?>
<!-- Generator: Adobe Illustrator 21.0.0, SVG Export Plug-In . SVG Version: 6.00 Build 0)  -->
<svg version="1.1" id="Layer_1" xmlns="http://www.w3.org/2000/svg" xmlns:xlink="http://www.w3.org/1999/xlink" x="0px" y="0px"
	 viewBox="0 0 600 300" style="enable-background:new 0 0 600 300;" xml:space="preserve">
<style type="text/css">
	.st0{opacity:0.75;fill:#B5AED3;}
	.st1{opacity:0.5;fill:#B5AED3;}
	.st2{opacity:0.75;}
	.st3{fill:#B5AED3;}
</style>
<path class="st0" d="M460.3,270.1c0.8-0.1,1.4-0.4,2-0.9c-0.2,0-0.3,0-0.5,0c0.4-0.1-0.6,1.1-0.9,0.3c0.1-0.1,0.3-0.1,0.4-0.2
	c-0.6-0.6-2.2,0.4-2.7,0.4c0.4-0.3,7.7-1.5,4.9-3.1c0.5-0.5,0.5-0.3,1.2,0c-0.5-0.7-2.1-1.7-2.2-2.3c0.2,0.1,0.4,0.3,0.6,0.4
	c-0.2-0.6-1.4-1.1-1.9-1.3c0.3,0,0.4-0.2,0.3-0.5c-0.6-0.2-0.6-0.6-0.6-0.6c-2.8-1.9-1.6-5.7-4-8.3c0.6,0.3-1.5-2.4-1.7-2.4
	c0.3,0.1,0.5,0.1,0.8,0c-0.8,0.8-2.1-2.5-2.7-1.8c0-0.2,0.1-0.8,0.5-0.6c-0.3,0.1-0.7,0.3-1,0.2c0.2-0.2,0.5-0.3,0.8-0.2
	c-0.9-0.2,1.3-3.6,1.3-3.6c-1.1,0.1-0.5-1-0.2-1c-0.5,1.1,0.3-0.3,0.3,0.1c-0.1,0.2-0.1,0.4-0.1,0.7c0.2-0.9,0.4-1.7,0.7-2.5
	c0.6,0-0.4,1.8-0.3,1.7c0.4-0.2,0.5-0.1,0.3,0.2c0.1-0.7,0.9-2.9,1-3.8c0.1-0.6,0.9-1,1-1.5c0.1-1-0.6-1.5-0.3-2.5
	c0.1,0.1,0.3,0.3,0.4,0.4c0.1-1-0.5-1.3-0.3-2.3c0.1,0.3,0.2,0.6,0.2,0.9c0.8-2.3-1.5-8.8-3.7-10.3c-2.2-1.4-4.8-0.1-5.1,0.8
	c-0.6,1.3-1.9,3.9-2.6,4.1c-0.7,0.8-1.3,2.7-1.8,3.6c0.3,0.2,0.6,0.3,0.9,0.5c0.1,0-1.1-0.1-1-0.4c-0.8,1.5-3,3.3-2.9,5
	c-0.5,0-0.4-1-0.4-1.1c-0.1,0.1-0.3,0.2-0.5,0.1c-0.1-0.4,0-0.1-0.3-0.6c-0.5-0.9,0.2-0.5-0.3-0.4c-1.2-1.4-1.2-2.4-2.8-3.6
	c0.8-0.4,0.3,0.2-0.5-0.5c-2.3-1.9-3.2-3-6.6-4.3c0.5,0.4,0.4,0.6-0.2,0.6c0-0.1,0-0.3-0.1-0.4c-0.5,0.1,0.7,0.3-0.3,0.4
	c-0.5-0.3-0.4-0.5,0.1-0.6c-3.6-2.1-8.3-1.6-12.2,0.2c0.4,0.4,1.5,2.3,1,1.9c1.1,1.4,3.8,2.7,4.4,2.7c1.8,1.1,3.7,6,5.9,6.6
	c-0.2-0.2-0.3-0.2-0.3,0.1c2.6,2.3,1.8,6.2-0.8,7.3c0.5,0.6-10.1,2.7-11.9,1.8c0.2-0.1,0.3-0.2,0.5-0.3c-2,0.1-5.1-0.3-6.5-2.1
	c0.5,0.2-1.7-3-1.7-3c-1.3-0.9-1.6-2.8-3.4-3c-1.8-0.3-4,2.1-5.2,3c-0.7,0.5-4.1,2.9-4.6,4.1c-1,2.7,2.4,3.9,4.2,5
	c-0.4,0.4-1.8-1.2-2-0.7c0.6,0.3,5,2.4,3.6,2.3c2,1.2,1.5,1.4,2.6,3.4c-0.8,0.2,0.4,0.2,0.1,0.3c-0.7-0.9,1.1,0.7,1.1,0.7
	c-0.8-0.3,0.4,1.6-0.8,1.1c0.2,0.3,1.4,2.1,0.9,2c0.6,0.4,1.1,0.9,1.6,1.5c-0.1,0.1-0.2,0.1-0.3-0.1c1.1,1.2,3.4,3.3,4.8,3.9
	c-0.1-0.1-0.2-0.2-0.2-0.4c0.7,0.2,1.4,0.5,2.1,0.8c0,0.2-3.9-1,0.8,0.4c-0.2-0.2-0.5-0.3-0.7-0.5c1,0.1,1.1-0.2,2.1,0.5
	c1.6-0.1,4.2,1,4.9,0.9c1.3,0.1,2.5,0.1,3.8,0c0.3,0.3-0.9,0.3-0.6,0.5c1.8-0.1,3.5-0.8,5.3-1c0,0,1,0.1,1.8-0.4
	c0.3-0.1,3.9-0.9,4.8-1.1c2.4-0.8,4.6-3,7.3-3.4c-0.2,0.1-0.3,0.2-0.3,0.3c0.5-0.3,1-0.7,1.4-1c-0.4-0.2-2,0.5,0.1-0.9
	c-0.7,0.7,2.3-1.2,2.7-1.3c0,0.2-0.1,0.4-0.3,0.6c0.5-0.5,1-0.7,1.7-0.7c-1.4,0.4,0.3,0.5,0.6,1c0.9-0.3,0.9,0.8,2,1.5
	c-1.7-1.2,0.6,2.9,0.6,2.9c0-0.2,0-0.3,0-0.5c1.5,1.2,1.6,2.6,3.6,3.2c0.9,0.3,1.8,0,2.7,0.2c-0.1,0.2-0.2,0.3-0.5,0.3
	c0.7,0.4,3.8,0.1,2.7,0.7C460.6,269.9,461.5,269.2,460.3,270.1z M437.8,262C438.4,261.8,438.3,262.1,437.8,262z M438.6,261.5
	C439.1,261.2,438.7,261.5,438.6,261.5z M421.2,254.4c-0.3,0.4,2.3,0.1,3.3-0.1c1.7-0.3,4.1-2,5.2-1.9c1.5-0.4,3.3-3,3.9-4.2
	c0.7-1.3,1.9-2.6,1.1-2.8c-0.4-1.7,0.9-0.2,0-2.4c0.6,0-0.4-2.7-1.2-4.1c0,0.4-0.2,0.5-0.5,0.3c0.1-0.1,0.2-0.2,0.3-0.3
	c-0.1,0.1-0.2,0.2-0.4,0.2c0-0.3,0.2-0.4,0.5-0.3c-0.2-1.4-2.1-2.6-3.2-4.1c0.5,0.3,4.1,2.9,4.1,2.9c-0.1,0-0.3,0.1-0.4,0.1
	c1.2,0.5,1.6,1.8,2.6,2.5c1.3,0.1,2.2,7.2,1.7,9.4c-0.1-0.3-0.2-0.7-0.3-1c0,0.1,0.2,2.8-0.4,1.7c-0.2,0.7-1.4,1.8-1.2,2
	c-0.2-0.4,0.4,1.1,0.3,0.9c-0.3-0.7-0.7,0.4-1-0.6c0,0-0.5,1.1-0.6,0.6c-0.3,1.6-3.1,1.9-3.3,2.5c-0.2,0.1-0.3,0.3-0.5,0.4
	c1.1,0.3-1.9,0.9-2,1.3c0.2-0.7-0.6,0.2-0.7,0.2c0.3-0.3-1.5,0.4-1.6,0.4c0-0.2,0.1-0.4,0.2-0.5c-3.4,1.2-5.5,1.2-8.8,0.7
	c-0.3,0-0.5,0-0.8,0.1c0,0.3,0.7,0.8-0.4,0.6c0.2-0.2,0.2-0.4-0.1-0.6c0,0.4-1.1,0.5-1.3,0.3c0.1-0.2,0.2-0.3,0.3-0.4
	c-0.3,0.2-0.6,0.2-1,0.1c1-0.4-0.1-0.4-0.5-0.8c-0.4,0.4-0.8,0.1-1.4,0.4c1.4-0.7-1-1.1-0.8-1.4c-0.1,0-2.9,0.1-3.5-0.1
	c0.1-0.2,0.2-0.2,0.3-0.3c-0.3-0.4-1.7-0.7-0.9-1c-0.7-0.1-0.8-0.8-1.5-0.3c0.3-0.4,0.2-0.2,0.5-0.4c0-0.1-0.2-0.4-0.1-0.6
	c0.1,0.2,0.2,0.3,0.5,0.3c-0.2-0.1-0.3-0.3-0.4-0.6c0.2,0,0.7-0.2,0.6,0.2c0-0.2,0.4-1.3,0.7-0.6c-0.1-0.2-0.1-0.4,0-0.6
	c0,0.5,0.2,0.4,0.2,0.9c0-0.6,0.8-0.1,1.1-0.1c-0.7,0.4,1,0.3,1.5,0c0,0.4-0.1,0.7-0.3,1c0.3-0.2,0.5-0.4,0.7-0.6
	c0.2,0.1,0.3,0.3,0.3,0.6c0.1-1.1,0.7,0.5,0.7,0.5c0.3-0.1,0.5-0.3,0.5-0.6c0.3,0.1,0.4,0.3,0.3,0.6c0.3,0,2.5-0.5,2.5-0.2
	c-0.1-0.6,0.4-0.9,0.5-0.5c0.1,0-0.3,0.2-0.3,0.5c0.4-0.2,0.8-0.2,1.3-0.2c-0.3,0.1-0.4,0.2-0.4,0.5c-0.2-0.1-0.3-0.1-0.5-0.2
	c0.3,0.7-0.3-0.1,0,0.6c1.2,0.4,2.9-0.9,3.8-0.4c-0.1,0.2-0.1,0.3-0.2,0.5C420.4,254.5,420.8,254.4,421.2,254.4z M442,244.7
	C442.9,245.4,441.8,244.8,442,244.7z M441.8,244.6c0.3-0.3,3.5-0.4,2.7-3c1.7,0.8-0.2-0.7,1.4-0.1c-0.6-1.9,0.3,2.1-0.4-2.2
	c0.5,0.6,0.7,0.5,0.5-0.3c-0.1,0.5,0.2,0.7,0.6,0.8c0.5-0.4,1.6-3.6,0.6-4.1c2.1,1,3.5-4.8,3.8-4.3c0.4,0.4,0.5,0.4,0.1,0
	c0.2,0.4,0.3,0.3,0.3-0.2c0,0.2,0,0.4,0.2,0.5c0-0.2-0.3-1,0.4-1.3c-0.1,0.9-0.1,0.9,0-0.1c0.5,2.9-3.3,15.6-2.4,17.5
	c-1.5-1.3-6.9,2.1-8.6,2.4c0.3-0.3,0.6-0.6,0.9-1c-0.2,0.2-0.4,0.4-0.6,0.6c0.5-0.5,0.6-0.9,1.1-1.6c-0.3,0.4-0.6,0.5-0.8,0.1
	c1.5-0.2,0.3-3.4,0.6-3.4C440.8,246.1,443,245.6,441.8,244.6z M447.6,236.3C448,236.7,447.7,236.1,447.6,236.3z M447.7,236.6
	C447.6,236.9,447.7,236.7,447.7,236.6z M418.8,258.9C419,258.3,419.5,258.9,418.8,258.9z M402.4,251.1c0.4,0.2-0.6-1.8-0.6-1.9
	c-0.3,0.2-0.2,0.2-1,0.2c0-0.5-0.9-0.2,0.7-0.4c-0.9,0.1-0.9,0-0.2,0c-1.3-0.2,0.1-0.1,0.3,0c-0.6-0.1-0.6-0.1,0.1,0
	c-1.5-0.2,0.1,0-0.8-0.4c0.3,0,2.3-1,2.7-1.8c0,0.7,0,0.7,0.2-0.1c-0.1,0.4-0.2,1,0.3,0c0,0.2-0.1,0.4-0.3,0.6
	c0.6-0.8,0.1,0.9,1.9,0.1c-1.4,1.3,0.5,1.2,0.7,0.9c-0.6,0-0.1,0.9,0.1,0.9c-1.5,0-0.2,0.6-0.7,1.2c-0.6-1.3-0.3-0.1-0.2,0.2
	c-0.1-0.1-1.2-0.9-0.4,0.4c-1-1.5-0.7-0.3-1.4,0.1c0-0.2,1.1-1.2-0.5,0.2c1-1.5-0.3,0.4,0.4-1.1C402.8,251,403.8,249.3,402.4,251.1z
	 M403.8,251.2C403.8,251.2,403.8,251.2,403.8,251.2z M406.1,250.3C405.7,249.8,406.1,250.2,406.1,250.3z M406.5,254.8
	c0.1-0.4,0-0.6,0.4-0.5c-0.1,0.1-0.2,0.2-0.3,0.3c0.2-0.1,0.3,0,0.3,0.1c-0.1,0,0.3-0.7,0.5-0.2c0.2,0.9-0.2,0.1,0.9,0.8
	c-0.1,0.1-0.2,0.2-0.3,0.3C406.3,255.3,405.8,255,406.5,254.8z M408.5,255.6C408.6,255.9,407.6,255.9,408.5,255.6z M441.3,250.4
	C442.2,249.3,441.6,250.3,441.3,250.4z M441.6,246C442.2,246.5,441.6,246.1,441.6,246z M441.6,247.2
	C442.2,247.3,441.5,247.5,441.6,247.2z M403.8,252.2C404.6,252.1,404.1,252.4,403.8,252.2z M454.2,255.8
	C454.5,256.3,453.7,256,454.2,255.8z M458.3,264.6C458.6,265.2,458,265.1,458.3,264.6z M456.8,267.2c-0.2,0,0.3-0.7,0.4-0.9
	c-0.3-0.2-0.9-0.7-1.1-0.7c0.4,0.1-0.2-0.2-0.8,0c0.2-0.1,0.2-0.3,0.2-0.5c-0.1,0.2-0.3,0.4-0.5,0.5c0-0.2-0.2-0.6,0.1-0.6
	c-0.6,0-1.4-1-1.6-1.3c1,0-1-2.2-1.1-2.3c0.9,0.1-0.7-0.9-1.1-1c0.2-0.3,0.5-0.4,0.9-0.4c-0.6,0.4-1.1-0.3-0.8-0.9
	c-0.8,0.5-1-1.2-1-1.2c0.5,0-0.2,0.2-0.5,0.3c-0.9-0.4-0.1-0.8-1.7-0.8c0.4,0-2.3-0.2-2.2,0.1c0.3,0.6-0.2,1-0.4,0.7
	c-0.1,0,0.3-0.3,0.2-0.6c-0.4,0.3-0.9,0.5-1.4,0.7c-0.3-0.5,0.8-0.6,0.9-0.6c-0.3-0.2-0.3-0.3,0-0.3c0,0-3.9,2.2-3.9,2.2
	c0-0.2-0.1-0.3-0.1-0.5c-0.2,0.4-0.4,0.7-0.8,0.9c0.1-0.1,0.2-0.3,0.3-0.4c-0.2,0-0.9,0.6-1.1,0.7c-1.6,0.8-2.6,1-4.4,1.9
	c-0.6,0.3-1.5,1.7-2.9,1.4c-0.3,0.3-0.6,0.5-1,0.7c-1.7,0.5-6.6,1.3-7.3,0.8c-0.4,0-0.4,0.2,0,0.4c-0.3,0.1-1.7-0.1-2.2,0
	c0.1-0.5-2.4-0.4-4-0.6c0.2,0.3,0.2,0.5-0.1,0.6c0-0.1,0-0.3,0-0.4c0,0.2,0,0.3-0.1,0.4c-0.2-0.2-0.2-0.4,0.1-0.6
	c-0.7-0.4-2.1-0.5-3.3-0.7c-1.3-0.3-3.2-2.1-4.1-1.7c-0.4-0.2-1.1-1.9-1.6-2.3c0.2,0.1,0.5,0.2,0.7,0.3c-0.6-0.4-0.3-0.5-0.7-1
	c0.1,0.1,1.1,0.8,1.3,1.1c-0.4-0.9,0.1,0.8-0.2-0.4c0.3-0.1,1,0.4,1.2,0.5c1.1,0.4,2.1,1.1,3.3,1.4c0.7,0.2,0.7-0.9,1.5-0.3
	c-0.1,0.1-0.2,0.2-0.3,0.3c1.6-0.2,3.1,0.5,4.7,0.1c-0.2,0.2,3.6-0.1,4.5-0.2c2.8-0.4,4.7-0.8,7.8-2.8c0.2,0.5-1.1,0.5-0.8,1.1
	c0.1-0.1,2.5-2.6,2.1-1.3c0.6-0.5,2.7-1.6,2.5-1.8c0.2,0.6-0.3-1.5,0-1c0.2,0.8,0.8-0.4,1,0.6c0-0.1,0.7-1.2,0.8-0.7
	c0.2-0.8,3.2-2.9,3.8-2.9c-0.9,0.5,0.6-0.1,0.4-0.1c-0.9-1.2,1.9,0,2.2-1.3c-0.4,0.7,0.7-0.1,0.8-0.1c-0.3,0.2,1.6-0.1,1.7-0.1
	c-0.1,0.2-0.2,0.3-0.3,0.5c2.9-0.4,2.7,0.1,4.9,1.4c0.6,0.9,1.7,2.9,2,3.7c0.7,1.1,0.9-0.1,1.2,0.8c-0.3-0.1-0.5,0-0.5,0.4
	c0.3-0.2,1,0.9,1,1.1c-0.2,0-0.3,0-0.5-0.1c0.3,0.2,0.6,0.5,0.7,0.9c-0.9-0.7-0.3,0.3-0.4,0.9c0.4,0.1,0.7,0.7,1.3,1
	c-1.5-0.7-0.1,1.7-0.3,1.7c0.2,0.1,0.3,0,0.3-0.2c0.4,0.2,2.6,2.2,3,2.6c-0.1,0.3-1.1,0.3-1,0.3c1.2,1.9-0.2-0.6,0.7,0
	c0.3,0.6-0.2,0.2,0.6,0.5C458.9,267.3,457.8,267.3,456.8,267.2z M460.3,267.1c-0.2-0.3-0.1,0.1-0.3-0.1c0.1,0,0.1-0.1,0.1-0.2
	C460.3,266.9,460.4,267,460.3,267.1z M456.2,230C456.7,230.9,456.3,230.2,456.2,230z M455.7,229c-0.3,0.4-0.4-0.9-0.4-0.8
	C455.4,228.5,455.6,228.8,455.7,229z M439.6,264.6C439.2,264.2,440.8,263.8,439.6,264.6z M453.3,268.1
	C453.2,267.2,454.5,268.4,453.3,268.1z M458,269.6c-0.3-0.5-0.1-0.6,0.8-0.3C458.5,269.4,458.2,269.5,458,269.6z"/>
<path class="st0" d="M148.7,237.1c-0.1-0.1-0.6-1.2-1-1.6c1.2,1.2,0.6-1.8,0.7-1.8c-0.2-0.2-0.3-0.1-0.3,0.2
	c-0.4-0.4-0.7-2.1-0.9-2.6c-0.3-0.6-1.2-0.8-1.5-1.3c0.2-0.1,0.3-0.1,0.5,0.1c-0.1-0.6-1.4-2-0.4-1.7c-0.9-0.8-1.5-0.8-0.5-0.7
	c-0.3-0.4-0.8-0.6-1.3-0.7c0,0,0.7,0.2,0.7,0.4c0,0.8,0.1,0.1,0.8,1.4c-1.2-0.5-2.2-2.2-3.4-3.1c0.4-0.4,0.4-0.4,0.9-0.4
	c-0.4-0.6-2.6-1.8-1.1-1.2c-0.4-0.6-1.5-0.4-2-0.1c0.2-0.2,0.1-0.4-0.2-0.6c-0.3,0.2-1.2,0.3-0.8,0.1c-2.3,1.1-5.1,1.9-4.7,5.1
	c-0.5-0.8-0.2,1.3,0,1.6c-0.4,0-0.7-0.1-0.9-0.4c0.7,0.1,0.5,1.1-0.1,1.2c0.9,0.4-0.4,1.4-0.5,1.3c-0.2-0.4,0.3,0.1,0.5,0.3
	c0-0.2-1.1,3.7-0.6,3.7c0.8-0.1,0.8,0.6,0.5,0.6c0,0.1-0.2-0.4-0.5-0.4c0.1,0.5,0.2,1.1,0.1,1.6c-0.6,0-0.1-0.9-0.1-1.1
	c-0.3,0.2-0.4,0.1-0.3-0.1c0.1,0.2-0.5,4.4-0.7,4.6c-0.1-0.1-0.3-0.2-0.4-0.3c-0.2,0.6,0.4,0.7,0,1.3c0-0.2,0-0.4,0-0.5
	c-0.2,0.2-0.4,1.1-0.5,1.4c-1,1.9-1.5,2.5-2.8,4.6c-0.4,0.7-0.8,2.6-2.1,2.9c-0.1,0.4-0.4,0.8-0.7,1.1c-2.1,1.2-4.9,2.1-6.9,3.2
	c-0.4-0.1-0.2,0.1-0.8-0.2c-0.4,0.1-0.4,0.2,0,0.4c-0.4,0.3-2,0.2-2.6,0.4c0-0.7-0.3,0-1.9,0.1c-0.4,0-2.2,0-3,0
	c0.4,0.1,0,1.1-0.1,0.2c0,0.2,0,0.3,0,0.4c-0.3,0,0.2-0.8-0.1-0.9c-1.2-0.6-2.4-0.9-3.6-1.2c-1.4-0.4-3.1-0.9-3.8-0.5
	c-1.4,0.2-2.1,1.7-1.9,2.3c-0.6,1.3-4.4,3.2-2.2,4.9c0.1,0.1,1.8,0.9,1.9,0.8c-0.3-0.1-0.4,0-0.3,0.2c1.8,0.4,5.2,2.1,5.9,3.2
	c0.5-0.8,1.1,1.5,2.1,0.9c-2.2,1.5,4,4.1,4.5,4.7c-0.2,0.1-0.3,0.1-0.5,0.2c1.9,0.3,3.6,1.3,5.6,1.1c-0.5,0.3,2.5,0.4,2.3,0.4
	c4.6-2.1,7.4-0.9,11.9-4.3c0.3,0.6-1.2,0.6-0.9,1.2c0,0,3-3.1,2.3-1.5c0.7-0.6,3-2,2.8-2.2c0.2,0.7-0.3-1.6,0-1.1
	c0.2,0.8,0.9-0.5,1,0.5c0.1-0.1,0.8-1.5,0.9-0.9c0.5-2.1,3.6-4.2,4.1-5.1c-0.7,0.1,1.5-3.4,1.8-3.7c-0.1,0.5,1-1.9,1-1.9
	c0.1,0.2,0.2,0.4,0.3,0.6c1.5-3.9,3.6-8.8,3.5-12.9c-0.3,0.1-0.8,1-0.6-0.4c0.2,0.3,0.5,0.2,0.6-0.2c-0.4,0.1-0.5-1.5-0.5-1.7
	c0.2,0.1,0.3,0.2,0.4,0.3c-0.2-0.4-0.3-0.8-0.3-1.2C148.6,239,148.6,237.8,148.7,237.1z M139.7,226.5c0.1-0.1,1.3,0.3,1.5,0.5
	C140.9,227.4,139.7,226.6,139.7,226.5z M142.4,229.8c-0.2,0.3,0.9,1.2,1.2,1.7c-1-0.1,0.7,2.1,0.8,2.2c-1-0.3,0.6,0.9,0.8,1.1
	c-0.3,0.2-0.6,0.2-1,0.1c0.3,0.1,0.5,0.2,0.8,0.3c-0.1,0.2-0.2,0.4-0.4,0.5c1.2-0.1-0.2,0.9-0.2,0.9c0.2,0.3,0.4,0.4,0.7,0.2
	c0,0.3-0.2,0.5-0.5,0.5c0.1,0.3,1.1,2.4,0.7,2.4c0.7-0.2,0.9,0.4,0.6,0.4c0,0.1-0.2-0.3-0.5-0.3c0.2,0.4,0.3,0.9,0.3,1.3
	c-0.1-0.3-0.2-0.4-0.5-0.4c0.1-0.2,0.1-0.3,0.2-0.5c-1.4,0.7,0.4,2.7-0.5,3.8c-0.1-0.1-0.3-0.2-0.4-0.3c0.2,0.4,0.2,0.7,0.1,1.1
	c0-0.2-0.1-0.3-0.1-0.5c-0.2,0.3-0.1,0.5,0.1,0.7c-0.5,0.3-1.9,4.2-2.3,5.2c-0.1,0.4-0.2,2.3-1.1,2.8c0,0.4,0,0.8-0.2,1.2
	c-0.9,1.9-3.6,5.3-4.6,5.5c-0.2,0.3-0.2,0.4,0.2,0.3c-0.1,0.3-1.4,1.1-1.7,1.4c-0.3-0.4-2,1.3-3.4,2.2c0.4,0,0.5,0.2,0.3,0.5
	c-0.1-0.1-0.2-0.2-0.3-0.3c0.1,0.1,0.2,0.2,0.2,0.4c-0.3,0-0.4-0.1-0.3-0.5c-1,0.2-6.9,3.4-7,3.9c-1.9,1.2-6.7,0-8.7-0.4
	c3.9-1,7.6-1.1,11.6-4.2c0.3,0.5-1,0.6-0.7,1.1c0.1-0.1,2.2-2.9,1.9-1.5c0.6-0.6,2.5-1.9,2.3-2.1c0.3,0.6-0.5-1.4-0.2-1
	c0.3,0.8,0.7-0.5,1,0.5c0-0.1,0.5-1.3,0.7-0.8c0.1-0.7,2.4-4,2.8-4.3c-0.5,0.4,0.2-0.2,0.3-0.4c-0.1,0.1-0.3,0.2-0.4,0.3
	c0.1-1.1,1.6-3.3,1.8-3.5c0,0.4,0.9-1.6,0.9-1.6c0.1,0.2,0.2,0.3,0.3,0.5c1.2-3.2,3.2-7.7,3-11c-0.3,0-0.8,0.8-0.6-0.4
	c0.2,0.3,0.4,0.2,0.6-0.1c-0.4,0.1-0.4-1.2-0.4-1.5c0.2,0.1,0.3,0.2,0.4,0.3c-0.2-0.3-0.3-0.7-0.2-1.1c0.3,0.6,0.3,0.6,0.5-0.1
	c-0.1,0.2,0,0,0.2-0.6c-0.3-0.3-0.3-0.9-0.7-1.4c1,1.3,0.9-1.4,1.1-1.3c-0.1-0.2-0.2-0.1-0.4,0.1c-0.2-0.3-1-3.1-1.1-3.7
	c0.2-0.2,1.6,1.4,0.2-0.8c0.2,0,0.4,0,0.6,0.1c-0.4,0.7,0.4,0.2,0.6,0.3c-0.2,0.2-0.5,0.3-0.5,0.1c0,0.2,0,0.5,0,0.7
	C141.6,228.8,142.2,229.7,142.4,229.8z M113.7,260.1c2.4,0.5,6-1.1,8.1-2.4c-0.2,0.3-0.5,0.6-0.7,0.9c0.1-0.1,2.1-2.2,1.8-1
	c0.6-0.5,2.4-1.2,2.2-1.5c0.1,0.6-0.3-1.4-0.1-1c0.2,0.8,0.7-0.3,0.9,0.7c0-0.1,0.6-1.1,0.7-0.6c0.3-1.4,2.8-3,3.2-3.6
	c-1.2-1,1.8-0.6,1-2.1c0.2,0.7,0.4-0.5,0.4-0.5c0,0.4,0.8-1.3,0.9-1.3c0.1,0.2,0.2,0.3,0.3,0.5c1.2-2.9,2.2-5.8,2.8-8.6
	c0-0.3,0-0.5,0-0.8c-0.3,0-0.8,0.6-0.6-0.4c0.2,0.2,0.4,0.2,0.6,0c-0.4,0-0.4-1-0.3-1.3c0.2,0.1,0.3,0.2,0.4,0.3
	c-0.2-0.3-0.2-0.6-0.1-0.9c0.4,0.9,0.4-0.1,0.8-0.5c-0.4-0.3-0.2-0.7-0.6-1.3c0.9,1.3,1-1,1.3-0.9c-0.1-1.6-0.5-3.5,0.4-4.3
	c0.4,0.5,0.5,0.5,0.3,0c0.5,0.4,0.6,1.4,0.6,1.8c-0.9-0.4-0.2,1.9,0,2.1c-0.2-0.3-0.3-0.1-0.4,0.4c0.4,0.1,0.7,0.4,0.8,0.7
	c-0.3,0.1-0.7,0-1-0.1c0.2,0.2,0.4,0.3,0.7,0.5c-0.1,0.2-0.3,0.3-0.5,0.3c1.2,0.1-0.3,0.7-0.4,0.7c0.1,0.3,0.3,0.4,0.7,0.3
	c-0.1,0.3-0.3,0.4-0.6,0.3c0.1,0.3,0.7,2.2,0.4,2.2c0.6-0.1,0.9,0.4,0.5,0.4c0,0.1-0.2-0.3-0.5-0.3c0.2,0.4,0.2,0.8,0.2,1.2
	c-0.1-0.2-0.2-0.4-0.4-0.4c0.1-0.1,0.2-0.3,0.2-0.4c-0.7,0.2,0.1-0.3-0.6-0.1c-0.4,0.9,0.5,2.8,0,3.3c-0.1-0.1-0.3-0.2-0.4-0.3
	c0.2,0.3,0.2,0.6,0.1,1c0-0.1-0.1-0.3-0.1-0.4c-0.1,0.2-0.1,0.4,0.1,0.6c-0.5,0.5-2.2,4.1-1.9,4.8c0,0-1.1,1.9-1.1,1.9
	c0.1,0.4,0,0.7-0.1,1c-0.8,1.4-3.7,4-3.5,4.8c-0.2-0.1-0.3-0.1-0.5-0.2c-0.2,0.3-0.1,0.4,0.2,0.3c-0.1,0.2-1.1,0.9-1.4,1.2
	c-0.3-0.4-1.7,1.2-2.8,1.9c0.3,0,0.4,0.2,0.3,0.5c-0.1-0.1-0.2-0.2-0.3-0.3c0.1,0.1,0.2,0.2,0.2,0.4c-0.4,0.2-3.8,0.4-4.5,2.2
	c-0.5-1-1.7,0.4-1.7,0.6c-0.7,0.4-5.5,0.2-6.2,0c-1-0.2-3.9-1.4-3.5-1.3c-0.2,0-0.5-0.1-0.6-0.3c0-0.9,0.5,0.1,0.5,0.1
	c0.1-1.1,0.2-0.6,1.3-1C111,260.6,113.8,260.3,113.7,260.1z M134.3,240C134.8,240.2,134.2,240.6,134.3,240z M137.8,229.5
	c-0.6,0.3-0.1-0.7-0.1-0.5C138.2,228.8,137.6,229.3,137.8,229.5z M137.4,228.8C137.7,228.8,137.4,229,137.4,228.8z M137.8,228.9
	C137.8,228.8,137.9,228.8,137.8,228.9z M137.3,228.8C137.5,228.7,137.7,228.9,137.3,228.8z M140.1,226.9c0,0.1,0.3,0.5,0.5,0.3
	c-0.1,0.3-0.2,0.3-0.4,0c-0.5,0.4,0.4,1,0.5,1.4C139.9,228.3,140.1,227.4,140.1,226.9z M141,228.5
	C141.3,228.8,141.2,228.7,141,228.5z M140.6,227.5C140.5,227.3,140.9,227.3,140.6,227.5z M140.6,227.1c0-0.1,0-0.1,0-0.2
	C140.6,227,140.6,227,140.6,227.1z M140.2,241.3C139.7,241.3,140.2,240.6,140.2,241.3z M115,267.2
	C115.3,267.2,115.2,267.3,115,267.2z M140.8,231.6C140.8,231.2,141,231.2,140.8,231.6z M140.4,229C140.2,228,141,229,140.4,229z
	 M138,227C138.1,226.9,138.4,226.8,138,227z M137.2,228.1c0-0.1,0.5-0.2,0.1,0.2c-0.2-0.5-0.1,0,0.1,0.1c-0.6,0.4-0.2,0.9-0.4,1.4
	c-0.1-0.1-0.2-0.2-0.3-0.3C136.8,229,137,228.5,137.2,228.1z M136.7,229.6C136.8,230.2,136.5,230,136.7,229.6z M136,231.8
	C136.4,232,135.9,232.4,136,231.8z M147,231.9C146.6,232.4,146.4,231.5,147,231.9z M145.6,229.2
	C145.5,229.5,144.6,229.1,145.6,229.2z M140.9,224C140.9,224,140.8,224,140.9,224z M129.7,245.9C130,246,129.2,247,129.7,245.9z
	 M147.4,243.5C147.5,242.7,147.8,243.6,147.4,243.5z M102.9,258.5c0.4,0,0.6-0.2,0.1-1.6c0.8,1.5,1.1,0.4,0.9-0.2
	c-0.2,0.4,1.4,1.8,2.3,1c-0.1,0.2-0.6,0.9,0.2,0.4c-0.7,0.7-0.6,0.7,0.1,1.3c-1.1-0.6-1.2-0.6-0.3-0.1c-1.7-0.4,1.5,0.5-0.8-0.2
	c1.6,1.4-1.4-1.9,1.1,1.1c-0.6-0.5-0.7-0.5-0.3-0.1c-1.6-1.3-0.2,0.7-0.7-0.5c0.5,0.4,0.1,0.9-0.2,0c0.1,0.2,0.1,0.6,0.2,0.8
	c-0.2-0.6-0.2-0.5-0.1,0c-0.2-0.7-0.3-0.8-0.3,0c0.2-0.6-1.6-1.6-2.1-1C103.8,258.8,102.9,258.5,102.9,258.5z"/>
<path class="st1" d="M128.6,277.5c-0.1,0,12.8-2.9,12.3-4.4c-3.2-0.2,4.2,0.8,3.3,0.5c0.3,1.5-3.1,1.5-2.8,1.1
	c0.1,0.7,0.2,1.3,0.2,2c6.1,1,11.4-3.6,15.6-1.8c-0.2,0.3,23.9,1.1,29.3,0.8c1.1-0.7,2.4-1.1,3.7-1.2c17.9,5.1,31.3,2.3,45.1,0.1
	c0.7,2.7-0.1,0.4,0.6-0.2c2.3,0.3,23.9,4.5,26.8-0.2c1.2-0.3,10.6,1.5,12.2,1.9c33.7-5.6,61.7,2.9,96.9-1.4c-1.2,0.6-2.4,1.2-3.5,2
	c0.2,0,10.3-4.1,7.2-0.7c8.4-2.3,11.1-2.5,8.2-0.3c0.4,0,2.7-2,2.9-3.3c-1.8,4.3,19.3,2.1,19.4,2.1c0.8-0.1,1.7-0.2,2.5-0.3
	c0.6-1.2,11-2.2,16.8-0.9c-0.3,0.5-0.7,1-1.1,1.5c12.4-1.1,21.1-0.6,32.8-0.6c1.5-0.9,2.8-2.6,3.8-2.6c-0.7,0.8-0.5,1.5,0.6,1.9
	c0.1,0.2,3.9-4.2,3.7-0.5c1-0.8,2.1-1.1,3.3-0.9c-2.5,1.4,3.6,2.4,6.7-0.4c-5.5,4.7,16.4-0.6,15.9-0.5c0.2,0.6,0,1.1-0.6,1.3
	c1.6,0.8,6.5-0.4,4.3,1.7c1.1-0.4,5.1-0.2,5.6-1.6c-0.8-0.7-1.1-0.4-0.9,0.7c-2.9,2.3-7.8-5.7-14.5-1.1c-0.4-0.9-0.9-1.9-1.3-2.8
	c-5.5,3-13-1.7-23.3,0.7c0.3-4.6-5.3,1.7-6.7,2.1c-0.3-2.1-1-2.2-0.5-2.8c-3.8-0.6-5.5,0.4-8.7,0.4c-4.7,0.2-15-1-14.9-1
	c-3.1-0.7-11,1.8-13.9-1.4c0.3,0.5,0.6,1.1,0.9,1.6c-5.9-0.7-3.3,0.1-8.1,1.4c-4-0.5,0.4-2.6,0.1-2.8c0.5,0-3.1,0.4-2.4-0.7
	c-4.6,1.8-9.4,1.9-11.6-1.4c-0.1,0.1-4.5,4.1-4.9,2.2c0.8-0.2,1.3-0.7,1.6-1.4c-1.3,0.3-1.6,0.2-1.1-0.3c0.6,0.3-15.9,1.8-16.1,2
	c1-0.2,1.9-0.4,2.9-0.6c-0.6,0.4-1.3,0.9-1.9,1.3c3,0-12.7,1.5-18.8,0.8c0-0.8,0.4-1.5,1.1-1.9c-6.2-0.1-15.6,4.6-21.6,2.5
	c-3.6-3.9-6.8-1.2-13.3,0c2-3.5-0.7,0.3-0.9,0.4c-2.4-1.7-2.6-2.4-0.3-2.1c-0.8-1.3-13.6,1.5-14.8,1.7c4.8-5.9,1.7,0.3-2.6,0
	c-4.1-0.3-11.8-2.3-15.7-2.7c-3.6-0.4-2.1-0.4-5.9-2.2c-2.2,0.5-2.3,1.1-0.2,1.9c-7.6,3.6-25.5-1.1-34.1-1.1
	c-16.2,0-32.5,4.5-44.5-0.4c-1.2,1-2.3,2-3.4,3.1c-11-7.4-23.5,6.7-32.8-0.7c7.9,0.1,0.4,0.5,2.9-2.3c-4.4,2.7-4.7,1.1-9.3,0.8
	c0.1,2.2,0.3,1.6,2.7,1.5c-1.6-0.2-2.7,0.5-3.1,2.1c-3.1-4.6-11.1-0.6-10-2.1c-11.6,4.6-32.1,0.8-44.8,1.2c-6.5,0.2-17.3,3-9.1,6.3
	c0.3,0.3,5,0.7,4.6,0.6c3.8-3.8,16.1,3.5,21.7-2.4c0.3,1.1,0.2,2.1-0.4,3.1C122.2,272.1,129.1,278,128.6,277.5z M165.7,274.3
	C165.7,274.3,163.6,274.6,165.7,274.3z M168.8,274.3C166.9,274.1,167.5,273.4,168.8,274.3z M162.2,267
	C164.2,266.4,161.2,268.4,162.2,267z"/>
<g class="st2">
	<path class="st3" d="M174.8,222.9c-0.2,0.3-0.8,0.8,0.6,1.4c-0.5,0.2-0.5,0.2,0.1,0c0,0-0.6,0.4-0.7,0.4c0.2,0.1,0.2,0.2,0,0.2
		c2.1,3.4,10.4,1.8,8.4,0.2c0.7,0.7,0.7,0.4,0.9,0.6c0-0.1-0.5-1.3,0.4-0.8c-0.1-0.2-0.4-0.9-0.8-0.8c0.3,0.3,0.3-0.2,0.1-0.2
		c1.1,0.3-0.5-0.6,0.7-0.4c-0.2-0.5-1.4-1.8-1.2-1.9c0,0,0,0,0,0c0.4,0.2,0.6,0.1,0.7-0.2c-0.6,0.2,2.9,2.7,2.6,2.1
		c0.7,2.7-2.4,3.2,0.2,4.2c-0.4,0.3-0.4,0.3,0.1,0c0,4.9,9.4,1.9,7.8,0.6c0.7,0.6,0.8,0.3,0.9,0.5c0-0.2-0.5-1.3,0.4-1
		c-0.1-0.2-0.5-0.9-0.9-0.6c0.6,0.3,0.4-1.9-0.5-2.9c-0.2,0-0.7,0.5-0.7,0.5c1.2-0.6,0.1-0.4,0-0.2c0.2-0.2,0.1-0.2-0.1,0
		c0,0,0.5-0.4,0.3-0.8c0.1,0.1-0.7,0.5-0.7,0.5c0.2-0.2,0.4-0.5,0.5-0.8c-0.3,0.2-0.3,0.1-0.1-0.2c0,0-1.2,0.7-1.1,0.7
		c0.2-0.7-0.2-0.4,0.2-0.9c-0.4,0.5-0.4,0.4-0.1-0.1c0.2-0.1-0.9,1-0.2,0.2c-0.3,0.5,0.3,0.4,0.2,0.3c0.5,0.6-0.8,0.1-0.8,0.2
		c0.2-0.7,0.4-0.7,0.3-1.4c-0.4,0-0.1,0.4-0.1,0c-0.2,0.2-0.2,0.1-0.1-0.2c-0.6,0.1,0.1,0-0.3,0.6c0-0.7-0.2-0.4-0.5-0.3
		c0.2-0.8,0.2-1.1-0.5-1.6c0.7,0.6,0.8,0.3,0.9,0.5c0-0.2-0.5-1.3,0.4-1c-0.1-0.2-0.5-0.9-0.9-0.6c0.6,0.3,0.4-1.9-0.5-2.9
		c-0.2,0-0.7,0.5-0.7,0.5c1.2-0.6,0.1-0.4,0-0.2c0.2-0.2,0.1-0.2-0.1,0c0,0,0.5-0.4,0.3-0.8c0.1,0.1-0.7,0.5-0.7,0.5
		c0.2-0.2,0.4-0.5,0.5-0.8c-0.3,0.2-0.3,0.1-0.1-0.2c0,0-1.2,0.7-1.1,0.7c0.2-0.7-0.2-0.4,0.2-0.9c-0.4,0.5-0.4,0.4-0.1-0.1
		c0.2-0.1-0.9,1-0.2,0.2c-0.3,0.5,0.3,0.4,0.2,0.3c0.3,0.7-0.7,0.2-0.8,0.2c0.2-0.7,0.4-0.7,0.3-1.4c-0.5,0-0.1,0.4-0.1,0
		c-0.2,0.2-0.2,0.1-0.1-0.2c-0.6,0.1,0.2,0-0.3,0.6c0-1.1-0.8,0.3-0.6-1c-0.5,2.1-0.2-1.8-0.7,1c-0.3-1.5,0.3,0.2-0.4-1.1
		c0,0.9,0,0.9-0.2,0.1c-0.3,0.4-0.6,0.8-0.4,1.3c0-0.2,0-0.3,0-0.1c0-0.6,0-0.6-0.2,0c-0.2-0.7,0.2-0.2,0-1
		c-1.2-0.5-4.4,4.5-2.9,5.8c-0.1,0-0.8,0.5-0.9,0.5c0.4-0.7-0.2-0.4,0.3-0.8c-0.5,0.4-0.6,0.4-0.1-0.1c0.2-0.1-1.1,0.9-0.3,0.2
		c-0.4,0.4,0.3,0.4,0.2,0.3c0.3,0.6-0.8,0.1-0.8,0.1c0.8-2.7,0.1-0.7,0.2-1.4c-0.2,0.2-0.3,0.1-0.2-0.2c-0.5,1.1,0.6-0.5-0.3,0.6
		c-0.1-0.7-1.7-1.1-1.5,0c-0.9-1.3,0.2-0.1-1-1c0.4,0.8,0.4,0.9-0.2,0.2c-0.1,0.6-0.2,0.7,0.3,1.3c-0.2,0.1-0.2-0.3-0.2,0
		c-0.3-0.5-0.3-0.5-0.3,0c-0.6-0.6,0.2-0.2-0.6-0.8c-0.2,0-0.4,1.1-2,1.5C174.8,220.4,174.8,222.9,174.8,222.9z"/>
	<path class="st3" d="M172.7,268.5c2.5,1.4,11.5-1.7,11.2-3c0.3,2,7.6-4,9.2-5.8c0-0.1,2.1-0.1,1.4-1.5c0.4,0.9,2.5-2.8,2.3-3
		c-0.3,0-0.2,0.1,0.1,0.2c-0.3-0.5-0.7,0.7-0.6,0.6c-0.4,0.4,0.5-1.8,0.5-1.8c-0.1,0,0.8,0.5,0.7,0.6c3-2.6-3.4-4.9-5.3-2.3
		c0.2-0.3-0.2,1.9,0.4,2.2c-0.1-0.2-0.1-0.3-0.1,0c-0.3-0.6-0.5-0.5-0.3,0.3c-0.8-0.4,0.4-0.5-0.6-0.8c-2.3,1.4-7.5,5.9-10,7.7
		c-0.2-0.5-0.2-0.5-0.1,0.1C182.8,261.8,163.9,263.4,172.7,268.5z"/>
	<path class="st3" d="M212.9,238.8c0,0-1.3-2.2-0.9-2.4c0.1,0.3,0.3,0.6,0.5,0.8c-0.6-1.6-1.2-3.3-1.6-4.3c0.8-0.4-0.1-3.4-0.7-4.2
		c0.2,0.5,0.4,0.9,0.6,1.4c-0.8-1.1-0.9-1-0.2,0.3c-4.5-4.6-4.2-11-11-16.9c-5.6-4.9-6.8-2.7-13.5-5.3c3.2-0.6,0.9-0.2,0.9-0.2
		c-7.3,1.6-12.6-0.9-16.1,0.3c-11.7,4.2-19.2,17.9-22.3,28.6c-1.3,7.2,2.9,11.7,2.4,18c-0.5,0.3-0.4-1-0.6-1.4
		c-0.1,0.4-0.3,0.5-0.7,0.4c0.5,0.7,2.3,4.6,2.5,4.2c0-0.1-0.6-1.1-0.7-1.2c1.3,0.9,2.9,6,2.6,5.9c1.1,1.2,10.7,12.4,10.9,8.5
		c13.2,7.5,28,2.3,36.3-5.8c1.4,1.9,1.4-2.7,3.4-3.1c1.3-2,2.5-4.9,4-6.9c0.1,0.2,0.1,0.4-0.1,0.6c1.1-1.8,0.6-4.7,2.6-6.5
		c-0.2,0.1-0.4,0.2-0.6,0.3c0.8-2.5,0.4-2,0.3-4.1c0.3-1.5,0.9,0.2,0.9,0.2c0,0.1,0.2-1.4,0.4-1.2
		C212,242.5,212.2,240.3,212.9,238.8z M171.6,270.9c-8.4-5.6-12-5.5-15.8-14.7c2.1-0.5-1.8-2.4-0.9-4c-0.9-3.5-2.5-10.3-0.5-12.4
		c-0.2,0.1-0.4,0.2-0.6,0.4c0.3-1.8,0-2.1,0-3.6c0.4-1.4,0.8,0.3,0.9,0.2c0.1-1.6,2.7-7.7,2.6-7.7c-0.1,0.3-0.1,0.6,0.1,0.8
		c0.5-3.2,2.9-3.5,3.4-6.6c-1.2,2.4,0.7-0.4-0.9,1.2c0.1-0.9,4-5.8,5.9-7.1c0,0.2,5.8-4.3,7.8-4.4c4.6,1.8,7.3-1.9,12.5-0.6
		c-2.5-0.2-2.6-0.1-0.4,0.4c12.2,1.2,26,18.3,20.2,33.8c-0.7,3.7-1.1,12.3-5.2,14.3c0.5,0.3-0.1-1.8,0-1.5c-0.1,0.6-2,3.5-2,3.5
		c-0.1,0,1.1-1.2,0.8-0.9c-0.2,1.7-4.2,3.5-4.3,3.6c-1.8,2.2-6.1,3.4-7.5,4.6C183.5,270.7,174.1,271.4,171.6,270.9z M185.3,273.8
		C185.1,273.8,185.9,273.6,185.3,273.8z"/>
</g>
<g>
	<path class="st3" d="M309.7,215.4c0,0,0,0.1,0,0.2C309.9,215.6,309.9,215.6,309.7,215.4z"/>
	<path class="st3" d="M301.2,203.9c0.2,0,0.2,0,0.6,0c0.1-0.1,0.1-0.3,0.3-0.5C301.6,203.7,301.3,203.2,301.2,203.9z"/>
	<path class="st3" d="M309.7,212C309.7,212,309.7,212,309.7,212C309.8,212,309.8,212,309.7,212z"/>
	<path class="st3" d="M336.5,175.5C336.5,175.6,336.5,175.6,336.5,175.5C336.7,175.7,336.6,175.6,336.5,175.5z"/>
	<path class="st3" d="M325.1,217.4c0,0.1,0,0.2-0.1,0.3C325.1,217.7,325.1,217.6,325.1,217.4z"/>
	<path class="st3" d="M334.8,181.9c0,0-0.1,0-0.1-0.1C334.5,182,334.6,182,334.8,181.9z"/>
	<path class="st3" d="M332.6,132.9c0,0-0.1,0-0.2,0C332.6,133,332.8,133.1,332.6,132.9z"/>
	<path class="st3" d="M336.5,176.2c0-0.2-0.1-0.3,0-0.6c-0.1,0-0.3-0.1-0.6-0.2C336.4,175.9,335.7,176.1,336.5,176.2z"/>
	<path class="st3" d="M367.7,253.9C367.8,253.7,367.8,253.7,367.7,253.9L367.7,253.9z"/>
	<path class="st3" d="M372.7,251.4c0.1-0.1,0.1-0.1,0.2-0.2C372.7,251.2,372.6,251.3,372.7,251.4z"/>
	<path class="st3" d="M397.6,190.4c-0.2-0.8-0.3-1.6-0.5-2.4c-0.6-0.7-2.5-5.8-2.8-7.1c0.4,0.8,0.8,1.6,1.3,2.5
		c-0.6-2.2-2.3-5.6-4.1-7.2c0.2,0,0.4,0,0.6,0.1c0-0.6-0.2-1.1-0.7-1.3c0,0.2,0,0.4-0.2,0.5c-0.9-0.6-1-2.7-1.6-3.6
		c0.1,0,0.2,0,0.3,0c-2.6-4-4.5-8.4-6.7-12.5c0,0-2.2-3.7-4.5-4.8c-0.4-0.2-2.7,0.5-3.3,0.5c1.2-1.7,2.4-3.2,2.7-6.4
		c0-0.2-2.2-3.3-1-3.3c0.1,0,0.9,1.8,1.1,1.4c-1,0.4-1.8-13-2.1-13.4c0.2,0.5,0.4,1,0.5,1.5c-0.6-3.4-4.2-19.8-6.6-20.1
		c-0.5-0.8-0.8-1.6-1-2.5c0.1,0.2,0.3,0.5,0.6,0.7c-0.3-0.3-0.5-0.7-0.7-1.1c0,0,0,0.1,0,0.1c0,0,0-0.1,0-0.1c0,0,0,0,0,0
		c0-0.2,0-0.4,0.1-0.5c0.1,0.1,0.9,2.1,1.1,2c-1.1-2.6-2.7-5-4.2-7.4c0.1-0.5,2.7,4.2,1.7,1.6c0.5,1,1,2.1,1.4,3.2
		c-0.3-2.5,0.4,0.4,0.6,0.2c1.7-2-4.7-8.3-6.7-8.4c-2.2-0.1,2.1-2.7,1.9-2.5c2.4-2.1,4.3-1.7,4.6-6.2c0.2,0.4,0.4,0.7,0.6,1.1
		c0-2.4-0.7-4.5-0.6-6.9c0.2,0.6,0.4,2,0.3,2.7c0.8-6-0.5-12.9-0.8-19.3c0.7,1.2,0.4-5,0.2-6.2c-0.5-4.1-1.9-7.8-5.1-10.6
		c-2.6-2.3-6.7-3.7-7.8-3.8c-5.4-1-11.3,0.5-16.8-0.1c0.3,0,0.6-0.1,0.9-0.1c-2.4-0.1-4.7,0.8-7.1,0.5c0.2,0,0.4-0.1,0.6-0.1
		c-2.1-0.1-8.4,1.1-10.2,0c-1.9-1.2-2.9-6.8-3.9-8.8c-1.4-3-3.2-6.3-4.8-9c-3.6-5.9-10.8-4.2-17-4c0.5-0.1,1,0.1,1.5,0.3
		c-4.8,0.3-12-2.8-13.9,3.8c-0.1-0.3,0.3-1.3,0.5-1.6c-1.6,3.6-3.5,6.9-5.3,10.9c0-0.2,0-0.4,0-0.6c-3.1,6-2.1,8.4-8.7,8.4
		c2.6,0.2,0.5,0.6-0.6,0.5c0.1,0,0.1,0.1,0.2,0.1c-0.7,0.3-1.4,0.3-2.1,0c0-0.2,0.1-0.4,0.3-0.5c-0.6,0-1.3,0-1.9,0.1
		c0.2-0.2,0.4-0.3,0.6-0.4c-6.8,1.9-15.4-0.6-22.7,0.9c-5,1.1-8.8,2.5-11.8,6.8c-0.3,0.4-2.2,4.5-1.7,2.9c-1.6,3.7-0.9,8.7-0.8,12.7
		c0-0.3,0.2-0.5,0.4-0.6c0,0.9-0.5,2.4-0.4,2.1c0.4,6.2-2.9,18.6-0.1,22.4c1.9,2.8,4,0.9,5.9,1.9c0.3,2.6-0.5,2.3-2.2,4.8
		c-5.7,8.4-7.9,18.4-10,27c-1.7,3.7-1.5,11.5-2,15.4c-0.1,0.8-0.9,1.4-0.8,2.2c0.1,2.1,2.3,4,2.3,5.8c-7.4-1.3-6.7,4.9-9.6,9.4
		c0.1-0.5,0.2-1.1,0.3-1.6c-3.5,8.3-8.1,16.1-11.7,24.4c0-0.5,0.2-0.9,0.4-1.4c-2.6,3.4-1.7,6.3,1.4,8.8c1,0.8,5.2,3.2,6.1,2.4
		c0.3-0.3,0.6-0.7,0.8-1.1c-0.3,6.2-0.7,12.1-1.2,18.3c-1,10.9-4.2,25.6,0.2,36.6c-0.1,0-0.1,0-0.2-0.1c1.3,2.8,3.4,5.2,6.6,6.1
		c4.9,2.3,9.5,5,14.5,7.1c-0.4-0.1-0.7-0.2-1.1-0.4c0.6,0.5,1.4,0.8,2.2,0.9c0.1,0.1-1.4-0.6-1.1-0.7c1.2-0.4,3.2,1.6,4.4,1.3
		c-0.3,0.4,4.3,2.7,1.7,2.3c0,0,3.9,1.3,1.7,0.8c1.9,0.7,4,0.9,6,1.4c-0.4,0.1-0.8,0.1-1.1,0.1c6.9,0.6,12.4,0.4,19.8,0.7
		c-0.7,0.3,4.3,0.7,5.1,0.6c-0.4-0.1-0.8-0.2-1.2-0.3c2.3,0,4.7-0.4,7-0.2c-0.6,0.1-1.3,0.2-1.9,0.2c1.6,0,3.2-0.1,4.8-0.1
		c-0.9,0-1.8-0.2-2.7-0.2c2.4-0.3,4.4-0.6,7-0.2c4.2-0.6,7.3,1.4,12-0.1c-0.3,0.1,3.8,0,4.9,0.1c-0.3,0.1-0.6,0.1-0.9,0.1
		c3,0.1,9.7,1.1,12.2,0.2c-0.7,0.3-1.6-0.1-2.4,0.2c4.1-1.4,12.9-0.5,17.3-0.4c-0.3,0-0.7,0-1-0.1c1-1,4.7,0,6.4,0
		c-0.2,0-0.3,0.2-0.3,0.3c4.4,0.2,8.9-0.3,13.3-0.4c-0.2,0.1-0.5,0.1-0.7,0.2c8.6,0.7,14.3-2.5,21-5.7c-0.4-0.4,1.5-1.1,1.6-1.2
		c-0.3,0.3-0.6,0.6-0.9,0.8c1.9-0.9,3.9-1.8,6.1-2.5c-0.2,0.1-0.3,0.3-0.3,0.5c1.6-0.9,3.2-1.8,4.8-2.7c-0.7,0-1.3,0.2-1.9,0.4
		c0.9-0.8,2-1.4,3.1-2c-2.3,1.5,2.2-0.6,2.7-0.9c2.2-1.1,3.5-2.4,6.1-3.6c0.2,0-1.3,1.2-1.3,1.2c2.4-1.3,2.9-2.7,4.2-5
		c-0.2,1.1-0.7,2.2-1.4,3.1c1.1-0.9,2.1-2.7,2.2-3.6c0.4-1.3,0.7-2.5,0.9-3.8c-0.1,0.3-0.2,0.6-0.3,1c-0.6-2.7-0.1-5.4-0.3-8.1
		c0.1,0.1,0.2,0.1,0.3,0.2c0.6-2.4,1.4-8.8,0.2-10.8c0.1,0.1-0.3,1.2-0.3,1.3c-0.9-4.4-0.4-9.1-1.1-13.5c-0.5-3.3-1.4-6.4-1.6-9.7
		c0.3,0.5,0.4,1,0.5,1.5c0-2.1-0.2-4.7-0.2-6.3c0-0.8-0.9-6.1,0.2-2.1c-0.3-1.6-0.7-3.2-0.9-4.9c0.3,0.6,0.6,1.3,0.7,2
		c-0.1-0.7-0.2-1.4-0.3-2.1c0.2,0.2,0.7,1.2,1.1,1.1c-0.9-0.7-1.2-1.6-2-2.7c-0.6,0.2,0.8,7.4,0.8,7.9c-1.1-2.5-0.9-5.8-1.2-8.5
		c2.6,5,11.9,2.2,9.7-3.1C397.1,188.3,397.2,189.3,397.6,190.4z M368.6,65.4c0,0.9,0,1.8,0.1,2.7C368.3,68.5,368.7,64.2,368.6,65.4z
		 M368.8,71.5c0,0.5,0,1,0.1,1.5C368.3,72,368.3,71.5,368.8,71.5z M383.2,227.2C382.8,226.2,383.1,226,383.2,227.2L383.2,227.2z
		 M382.8,221.8C382.9,222.8,382.6,222.5,382.8,221.8L382.8,221.8z M307.2,37.9C306.8,37.6,307.1,37.5,307.2,37.9L307.2,37.9z
		 M306.6,37.9C306.6,37.9,306.2,37.9,306.6,37.9L306.6,37.9z M290.3,40.5C290.6,40.7,290.4,40.9,290.3,40.5L290.3,40.5z M287.5,46.1
		C287.9,46.3,287.6,46.5,287.5,46.1L287.5,46.1z M286.7,50.6c0,0-0.5-1.1-0.6-0.7c0.3-0.9,0.8,0,0.9-1.4c0.7-1,1-3.2,1.1-3.5
		c0.3,1.2,0.6-0.6,0.5-0.9c0.1,0.1,0.3,0.2,0.4,0.4c-0.2-0.3-0.2-0.5,0-0.8c0.4,0.9,0.4,0,1,0c0.1,0.2-0.6-1.3-0.5-1.2
		c0.8,1.2,1.3-0.3,1.6-0.2c0-0.5-0.1-1.8-0.3-2.8c0.7,0.1,0.9-0.7,1.4-0.2c-0.1-0.5,0.5-0.9-0.1-1.3c-0.2,0-0.3,0.1-0.1,0.2
		c-0.2,0.2-0.5,0.9-0.5,0.9c-0.4-0.8,0.2-1.5,0.7-2.4c0,0.4,0.2,1.1-0.3,0.8c0.3,0.3,0.5,0.6,0.6,1c0.1-0.2,0.2-0.3,0.2-0.1
		c0-0.1,0-0.3,0.2-0.4c0,0.5-0.2,0.3-0.1,0.5c0.7-0.5,0.5-0.2,0.9,0.1c0-0.3,0-0.6,0.1-0.8c0.1,0.2,0.5,0.4,0.2,0.7
		c0.3-0.4,1.3-0.4,1.6-0.4c0.1,0.3,0.3,0.6,0.5,0.9c0.4-1.3,1.3,0.1,2-1.3c0.1,0.4,0,0.8-0.1,1.2c0.1-0.3,0.3-0.6,0.4-0.9
		c0.2,0.2,0.2,0.4,0.3,0.7c0-0.3,0.1-0.5,0.3-0.6c0.6,0.8-0.1,0.3,0.3,1c0.2-0.2,0.3-0.5,0.2-0.9c0.3,0.1,0.4,0.3,0.3,0.7
		c0.9-0.6,1.3-1.3,1.8-1.7c0.2-0.1-0.1,0.6-0.1,0.8c0.2-0.3,0.5-0.4,0.9-0.5c0,0.4-0.6,0.8-0.6,0.4c0,0.3,0,0.5,0,0.8
		c0.8,0.2,0.9-0.2,1-0.7c0.1,0.2,1.1,0.3,1.5,0.1c0,0.1,0,0.2-0.1,0.3c0.2-0.3,0.4-0.4,0.7-0.4c-0.1,0.2,2.4,0.7,2.8,0.4
		c0,0,0,0,0,0c0,0,0.1-0.1,0.1-0.1c0.1,0.2,1.1,1.5,1.1,1.4c0.6,1.6,0.9,3.3,1.8,4c0,0.1-0.1,0.1-0.1,0.2c0.1,0,0.1,0,0.2,0.1
		c-0.1,0.1-0.3,0.3-0.4,0.4c0.1,0.2,0.6,0.5,0.9,1.2c-1.1,0.4,1.3,2,1.6,2.3c-1.1,0.6,0,0.1,0.1,0.1c0.3,1.4-1.3,1.2,1.2,2.4
		c-0.3-0.1-0.6-0.1-0.8-0.3c0.4,0.4,0.5,0.5,0.8,0.7c-0.5-0.2-1.2-0.6-1.4-0.6c0,0.2,0,0.4,0,0.6c-2.7-1.5-8.3-0.8-11-0.7
		c-2.2,0.1-4.5,0.1-7.5,0.8c0.3-0.2,0.5-0.5,0.7-0.8c-1.1,0.5-2.7,0-3.1,0.4c-0.3,0.2-0.3,0.3-0.1,0.1c0,0.4-0.2,0.8-0.5,1.2
		c-0.2-0.4-0.2-0.9-0.3-1.3c0.2-0.2-1.9,1.3-2.7,0.8c0-0.3,0-0.5,0-0.8c-0.1,0.1-1.3,1.3-1.3,1.3c0,0-0.7,0.2,0.1-0.8
		c-0.4,0.2-0.8,0.4-1.3,0.6c2.3-1.3-1.2,0.7,0.6-0.5c-0.3,0.2-0.5,0.3-0.8,0.4C285.9,51.5,286.1,51,286.7,50.6z M290.6,59.3
		C288.8,59.2,289.9,59,290.6,59.3L290.6,59.3z M287.7,59.3C288.5,59.3,288.5,59.3,287.7,59.3L287.7,59.3z M239.7,86.2
		c-0.9-2.5-0.1-6.1-0.8-8.9c0.3,0.1,0.4,0.3,0.5,0.5c0.2-0.8,0-4.7,0.7-3.2c-0.4-2.6-0.7-2.9,0-1.6c0-0.9-0.2-1.8-0.6-2.6
		c-0.1,0.2-0.1,0.4-0.2,0.6c0-0.4,1.2,0.9,0.1,1.2c0-0.2-0.1-0.4-0.1-0.6c-0.4,1.1-0.4,2.3,0,3.4c-0.6-1.4-1.1-8.7,0.3-9
		c0.2-0.5,1.6-2.7,1.3-1.4c0.6-0.5,0.7-1.8,0.8-2.4c0.1,0.3,0.3,0.4,0.7,0.3c0.2-1.1,2.3-2.6,4.8-2.9c-0.4,0.5,5.8,0.2,6,0.1
		c-0.8,0.6,2.6-0.2,3.1-0.5c1,0.6-0.6,0.6-0.3,1.2c-0.2-1.5,5.2-0.1,5,0c-1.1,0.5,7.2-1.9,7.7-0.8c-0.7-1.2,0.8-1.1,1-0.7
		c-1.5,0,0,0.1,0.1,0.1c-0.1,0.3-0.2,0.4-0.5,0.5c0.9-0.2,1.9-0.4,2.9-0.4c0.1,0.4-1.6,0.3-0.9,0.6c2.4-0.3,7.1-0.5,8.3-0.2
		c-0.1,0.2-0.3,0.4-0.4,0.6c1.2,0,1.4-0.7,2.6-0.4c-0.3,0.1-0.7,0.2-1,0.3c1.9,0.8,5-0.4,7.4-0.4c0.6,0,6.2,0.8,7.8,0.7
		c1.9,0,5.6-1.2,7.6-0.3c4.4,0.6,10.8-0.1,15.7,0.1c2.2,0.1,4.9-0.1,5-0.3c1.9-0.4,3.4,0.7,5.4,0.2c-0.2,0.6,7.8,0.4,10.2,0.4
		c-0.6-0.1-0.5-0.7,0.3-0.3c-0.1-0.2-0.1-0.4,0.2-0.6c0.7,0.2,0.7,0.4,0.1,0.7c2.6,0.4,6.9-0.3,10.4-0.4c3.6,0,5.4,2,7.9,2.2
		c2.7,2.1-0.5,8.1,1.4,10.4c0.6,0.7-0.1,12.3-0.4,14.1c1.2-0.4,0.8,2.7,0.4,3.9c-3-0.6-6.9,0.9-9.2,0.2c0.2-0.2,0.4-0.3,0.6-0.5
		c-3.4,0.6-6.9,0-10.4,0.5c-0.3,0.2-8.9,0.3-11.4,0.2c-5.6-0.3-11.1-0.1-17.5,0.3c0.1-0.7,2.7-0.1,2.6-0.8c-0.9,0.1-7,1.2-5.4,0.3
		c-2.2,0.3-4.4-0.1-6.5,0.3c0.6-0.2,0.6-0.3-0.2-0.2c1.7-0.1-4.3,1.8-2.5,0c-0.4,0.1-3,0.8-2.5,0.1c-2.4,1.1-8.1,0-9,0.4
		c-0.9,0.2-1.8,0.2-2.7,0.2c0.2-0.1,0.5-0.2,0.7-0.2c-0.6,0-1.2,0.1-1.8,0.1c0.3,0.1,0.7,0.1,1,0.2c-1.2,0.4-1.1,0.5-2.7,0.2
		c-1.4,0.5-5.3,0.2-6.5,0c0.7-0.2-4.1-0.1-4.3-0.1c-0.3-0.4,1.1-0.3,0.8-0.6c-2.2,0.1-4.4,0.7-6.6,0.5c-0.4,0.1-5.5-0.1-6.8-0.1
		c-3.5,0.1-8.3,1.2-11.5-0.1c0.3,0.1,0.4,0,0.5-0.2c-0.7,0.1-1.4,0.1-2.1,0.2c0.2,0.3,0.4,0.4,0.7,0.5c-0.3,0.2-3.9,0.4-5.2,0.3
		c0.1-0.3,0.3-0.4,0.6-0.5c-0.8,0.3-1.6,0.4-2.4,0.4c1.9-0.7,0.3-0.5-0.8-0.9c0.4,0.3,0.1,0.5-0.8,0.6c0-0.8-0.1-1.6-0.4-2.3
		C239.3,90.7,240.4,86.5,239.7,86.2z M238.8,81.3C239.2,81.6,239,82.9,238.8,81.3L238.8,81.3z M238.9,76c0-0.4,0-0.7,0-1.1
		C238.9,74.9,239.7,76.4,238.9,76z M354.2,100.1c-0.1,0,1.5,2.2-0.3,1.9c0.6,0.7,0.3,0.8,0.3,1.4c0.4,0.2,1.2,0.8-0.2,0.9
		c0.2,0.3,0.3,0.6,0.5,0.9c-1-0.7,0.5,0.4-0.5,0.1c-0.2,0.5,0.8,1.1-0.5,1.3c0,2.1,0.1,4.6,0,6.4c0,0,0.1,0.1,0.2,0.2
		c-0.1,0-0.1-0.1-0.2-0.1c0,0.6-0.1,1.1-0.1,1.4c-0.2-0.2-0.5-0.2-0.8,0c0.4,0,0.6,0.9,0.5,1.1c-0.2,0-0.3-0.1-0.5-0.3
		c0.3,0.2,0.3,0.5,0.2,0.8c-0.6-0.8-0.4,0.1-0.9,0.3c0.2,0.2,0.6,0.9,0.8,1.1c-0.5-0.5-1.8,0-1.1,0.6c-0.5,0,0.2,2,0.6,2.8
		c-0.7,0.1-0.7,1-1.3,0.6c0.2,0.5-0.2,1.1,0.4,1.3c0.2-0.1,0.2-0.2,0-0.2c0.2-0.2,0.2-1,0.2-1.1c0.3,0.8,0.2,1.5,0,2.7
		c-1.2-0.3-0.2-0.1-1.1-0.4c-0.2,0.4-1.1,0.5-0.3,1.1c-0.3,0.2-0.4,0.1-0.4-0.2c-0.1,0.1-0.1,0.6-0.3,0.8c0.7,0.4,0.3,0.6,0.2,1.7
		c-0.9-0.7-1,0.7-0.8,1.2c-0.7-0.9-0.1,0.7,0,0.9c-0.4-0.2-0.7-0.5-0.9-0.8c0.2,0.3,0.3,0.5,0.5,0.8c-0.2,0-0.5-0.1-0.6-0.3
		c0.2,0.2,0.3,0.4,0.2,0.6c-1-0.2,0-0.2-0.8-0.6c0,0.3,0.2,0.6,0.4,0.8c-0.3,0.1-0.5-0.1-0.6-0.4c-0.1,0.4-0.4,2-0.6,2.3
		c-0.1,0.1-0.2-0.6-0.2-0.8c-0.1,0.3-0.3,0.5-0.6,0.7c-0.1-0.2,0.2-0.8,0.3-0.7c-0.1-0.2-0.2-0.4-0.2-0.6c-0.6-0.1-0.4,0.8-0.4,0.9
		c-0.3,0.4-0.1-0.8-0.2-0.7c0,0.2-0.6,0.8-0.6,0.8c1.2-1.7-0.2,0-0.2-0.1c0.1-0.1,0.1-0.1,0.2-0.1c-0.1,0.1-0.3,0.2-0.3,0.2
		c0.2-0.6,0.9-2.2,0.2-2.8c0.1-0.1,0.1-1.8,0.2-1.9c-0.2-0.2-0.4-0.5-0.5-0.8c0.2-2.2,0.7-4.1,0.2-5c0.2-0.1,0.4-0.1,0.6-0.2
		c0-0.2-0.1-0.8-0.3-1.6c1.1,0.1-0.3-2.6-0.4-2.9c1.3,0.4,0.1-0.1-0.1-0.1c0.1-0.4,2.4-2.9,0-4.2c1.2-0.1,0.3-1.4-0.1-1.5
		c0,0,0.5-2.5,0.3-3.3c0.1-0.6,1.2-6.4,1-6.5c0,0-0.1-0.1-0.2-0.2c1.9-1,5.3,0.2,8.6-0.9c-0.2,0.2-0.3,0.5-0.4,0.8
		c0.1-0.4,0.4-0.6,0.8-0.7c0,0.5-0.5,0.4,0.4,0.3c-0.1,0-0.2,0.1-0.2,0.2c0,0,1.2-0.5,1.4-0.6C355.2,99.5,354.7,99.8,354.2,100.1
		C354.8,99.8,354.8,99.9,354.2,100.1z M352.4,119.8C352,119.7,352.2,119.4,352.4,119.8L352.4,119.8z M352.1,121.7
		C351.7,120.9,352,121.4,352.1,121.7L352.1,121.7z M344.1,130.5C344.1,130.5,344.1,130.7,344.1,130.5L344.1,130.5z M343.3,182.3
		C342.5,182.5,342.9,180.4,343.3,182.3L343.3,182.3z M339.3,154.8c-0.9,0.1-0.2-0.6-1.2-0.4c-0.2,0.6,0.2,0.7,0.6,0.7
		c-0.2,0.1-0.3,0.8-0.1,1.1c-0.1,0-0.1,0-0.2,0c0.3,0.1,0.4,0.3,0.4,0.5c-0.1,0-0.9,2.7-0.1,3.1c0.2,0.7,0.5,3.7-0.5,3.5
		c0.1,0,1.1,0.9,0.4,0.4c-0.4-0.3-0.3-0.2,0.3,0.3c-0.2-0.1-0.3-0.3-0.4-0.3c-0.3-0.3-0.4-0.3-0.1,0.2c-0.1-0.1-0.5-0.9-0.1-0.1
		c-0.8-1.1-0.5,0.2-1,0.4c0.4-1,0-0.1-0.1,0.1c-0.2-0.1-2-2.4-3,0c0-1-0.8-0.6-1,0c-0.2-0.3-2.4-0.2-2.3-0.2c0.1,0-0.8-0.9-1.1-0.2
		c0-0.5-0.2-0.4-0.1-0.6c-0.1,0.2-0.3,0.5-0.5,0.4c0.1-0.4,0.4-0.6,0.7-0.7c-0.4,0.1-0.7,0-0.7-0.4c0.2-2.6,0.6-4.6-0.4-7.8
		c0.2,0.2,0.5,0.4,0.8,0.5c-0.6-1-0.5-2-0.5-2.4c-0.4,0-0.8-0.1-1.2-0.3c0.4-0.1,0.9-0.2,1.3-0.2c0.3,0.3-1.2-1.4-0.8-2
		c0.3,0,0.5,0,0.8-0.2c-0.1-0.1-1-0.7-0.4-0.5c0,0-0.9-0.3-0.9-0.4c0,0,0.2-0.4,0.8-0.2c-0.2-0.2-0.4-0.5-0.6-0.8
		c1.3,1.3-0.7-0.7,0.5,0.3c-0.2-0.1-0.3-0.3-0.4-0.5c0.2,0.3,0.2,0.2,0.1-0.1c0.4-0.3,0.6,0.4,0.7,0.6c0.1-0.1,0.5-0.7,0.5-0.8
		c0.3,0.4,2.9,0.5,3.3,0.5c0,0,0.2-0.3,0.3-0.5c0.2,0.1,0.9-0.3,1-0.4c0,0.2,0,0.3-0.1,0.5c0.1-0.3,0.2-0.4,0.5-0.4
		c-0.3,0.5,0,0.5,0.3,0.8c0.1-0.2,0.7-1.1,0.7-1c-0.3,0.7,0.2,0.7,0.1,1.2c0.1-0.2,0.6-0.4,0.5,0.1c0.4-0.2,1.1-0.9,1.7-1.5
		c0,0.2,0.5,1,0.6,0.6c0.3,0.4-0.3,0.4,0.4,0.3c-0.1,0.2,0.1,0.5-0.3,0.2c0.4,0.2,0.4,1,0.4,1.2c-0.3,0.1-0.6,0.2-0.9,0.4
		c0.4,0.2,0.6,0.5,0.7,0.8c-0.7-0.2-0.6,0.2,0.5,0.6c-0.4,0-0.8,0-1.2-0.1c0.3,0.1,0.6,0.2,0.9,0.3c-0.2,0.1-0.4,0.2-0.7,0.2
		c0.2,0,0.4,0.1,0.6,0.2c-0.1,0-0.6,0.2-0.8,0.3c0.2,0.1,0.5,0.2,0.7,0.1c-0.2,0.2-0.4,0.3-0.7,0.2c0.6,0.8,1.1,0.8,1.7,1.4
		c0,0-0.6,0-0.8,0C339.1,154.3,339.2,154.5,339.3,154.8z M339,158C339,158,338.9,157.8,339,158L339,158z M338.7,164.1
		c-0.1-0.1-0.2-0.2-0.3-0.3C338.6,163.9,338.8,164.1,338.7,164.1z M337,175.4C336.3,174.8,337,175.3,337,175.4L337,175.4z
		 M337,177.1c0.1,0-0.5-0.1-0.8-0.1c0.2-0.1,0.5-0.3,0.7-0.5C336.9,176.7,337,176.9,337,177.1z M336.2,175.3c0,0,0.2,0.1,0.3,0.2
		c0-0.1,0-0.1,0-0.2c0.2,0.3,0.2,0.5,0.3,0.9c-0.4,0.2-0.9,0.6-1.6,1.1c0,0.1,0,0.1,0,0.1c-0.1,0,0.2,0.1-0.2,0.3
		c1.2,0.2,0.1,0.2,0,0.3c0.7,0.3,0.4,0.4,0.6,1.3c-0.3,0.1-0.6,0.2-0.9,0.4c0.4,0.2,0.6,0.4,0.7,0.8c-0.7-0.2-0.7,0.2,0.5,0.6
		c-0.4,0-0.8,0-1.2-0.1c0.3,0.1,0.6,0.2,0.9,0.2c-0.2,0.1-0.4,0.2-0.7,0.2c0.2,0,0.4,0.1,0.6,0.2c-0.1,0-0.6,0.2-0.8,0.2
		c0.2,0.1,0.5,0.2,0.7,0.1c-0.2,0.2-0.4,0.3-0.7,0.2c0.6,0.7,1.1,0.7,1.7,1.3c0,0-0.6,0-0.8,0c0.2,0.1,0.4,0.3,0.5,0.6
		c-0.9,0.1-0.2-0.6-1.2-0.4c-0.3,0.7,0.6,0.7,0.8,0.7c0.4,0.3-1,0.5-0.6,0.7c0.4-0.1,0.6,0,0.6,0.4c-0.2,0-0.4-0.1-0.6-0.1
		c0.3,0.1,0.4,0.2,0.4,0.5c-0.1,0-0.9,2.5-0.1,2.9c0.3,0.8,0.5,3.1-0.5,2.6c0.2,0.2,0.4,0.4,0.6,0.7c-0.1-0.1-0.2-0.1-0.2-0.1
		c-0.2-0.4-0.7-0.7-0.5-0.2c-0.6-1.2-0.9,0.3-1.2,0.4c0-1.3,0,0-0.1,0.1c-0.4-0.2-0.3-2.1-1.2-0.2c0-0.4,0-0.5-0.1-0.4
		c-0.3,0.1-0.4,0.2-0.7,0.4c0.2-0.2,0.7-0.8,0.8-0.9c-0.1,0.1-0.5-0.3-0.6-0.3c1.3-3.9,1.1-9.4-0.1-13.1c0.2,0.2,0.5,0.3,0.8,0.5
		c-0.4-0.3-0.6-0.6-0.7-1.1c0.3-0.3,0.2-1.1,0.2-1.1c-0.4,0-0.8-0.1-1.2-0.3c0.4-0.1,0.9-0.2,1.3-0.2c-0.5-0.1-0.5-0.1,0-0.1
		c0.1,0.2-1.1-1.5-0.8-1.7c0.3,0,0.5,0,0.8,0c-0.1-0.1-1.1-0.9-1.3-1c0-0.1-0.1-0.4,0.8,0.1c-0.2-0.3-0.4-0.6-0.6-0.9
		c0.9,1.1,0.4,0.3,0.1,0.1c1.2,0.8,0.3,0.1,0.2,0c0,0,0.8,0.5,0.9,0.7c1.1-1.4,2.8,0,3.5-0.4c0-0.1,0.1-0.1,0.1-0.2
		c0.2-0.1,0.4-0.1,0.4-0.1c0.7-0.7,0-0.2,0.8-0.5c0.1,0-0.5,0.5-0.5,0.5c0.1-0.1,0.3-0.1,0.4-0.2c-0.2,0.1-0.6,0.7-0.8,1
		c0.1-0.2,0.1-0.2-0.1,0.1c0.6-0.5,0.5-0.1,1-0.1c-0.6,0.1-0.7,0.4-1.2,0.6c0.1,0,0.7,0.1-0.1,0.3c0.5,0.2,0.7,0.6,1.5,1.3
		C336.6,175.1,336.7,175.2,336.2,175.3z M335.9,187.1C335.9,187,335.8,186.8,335.9,187.1L335.9,187.1z M335.3,171.7
		C335.5,171,335.6,171.5,335.3,171.7L335.3,171.7z M335.9,171.8c0.1-0.2,0.2-0.3,0.5-0.3C336.2,171.6,336,171.7,335.9,171.8z
		 M337,174.2C336.5,174.1,336.9,174.1,337,174.2L337,174.2z M330.8,141.5C330.1,141.5,330.3,141.5,330.8,141.5L330.8,141.5z
		 M331.2,129.3c0.7-0.1,0.4,0.5,0.4,0.7c0.3,0,0.5,0,0.8,0c0.2-0.9-1.2-2.7-0.9-3.1c0.2,0,0.4,0.1,0.6,0.1c-0.3-0.2-0.4-0.5-0.4-0.9
		c0.2,0.1,0.9-4.4,0.1-5.1c0,0.1,0.2-2,0.2-2.1c-0.2-0.3-0.4-0.6-0.5-0.9c0.8-1.8,0.4-5.1,0.2-5.7c0.2-0.1,0.4-0.1,0.6-0.2
		c0-1.4-0.1-3.1-0.7-5.2c1.4,0.3-0.1-0.2-0.1-0.1c0.1-0.3,2-3.5,0-4.8c1.1-0.1,0.5-1.4,0-1.7c0.3,0,0.7-1,0.8-1.1
		c0.1,0.1,2.5,0.8,2.4,0.8c0.1-0.2,0.1-0.5,0.6-0.5c0.1,5.7-0.8,9.4,0.5,15.8c-0.2-0.3-0.5-0.6-0.8-0.8c0.5,1.4,0,3.2,0.4,3.8
		c0.2,0.3,0.3,0.4,0.1,0.2c0.5,0,0.8,0.2,1.2,0.6c-0.4,0.2-0.9,0.3-1.3,0.3c-0.1-0.2,1.6,3.5,0.1,3.6c0.8,0.9,0.3,0.7,0.5,1.5
		c0.6,0.1,1.1,0.7-0.1,1.1c0.2,0.3,0.4,0.6,0.6,1c-0.6-0.3,0.2,1.4-0.8,1.8c0.5,3.4,0.3,5.1,0.2,8c0.1,0.2,0.1,0.5,0.2,0.7
		c0.4-0.4,0.7-0.3,0.8,0.2c-0.3-0.2-0.5-0.1-0.8,0.1c0.4-0.1,0.8,0.9,0.7,1.1c-0.2,0-0.4-0.1-0.5-0.2c0.3,0.2,0.4,0.5,0.4,0.8
		c-0.5-0.6-0.4-0.1-0.8,0.2c0.2-0.1,0.1-0.1-0.1,0.1c0.3,0.3,0.6,0.7,1,1.2c-0.5-0.7-0.7-0.3-1.2-0.7c0.1,0.2,0.1,0.4,0.2,0.6
		c-0.2-0.1-0.3-0.2-0.4-0.3c-0.1,0.6,0.2,0.5-1.5,1.5c-0.2-0.6-1.3-0.6-0.9-1.1c-1.3,0.7-1.2-0.1-0.9-0.6c-0.3,0-0.6,0-0.8-0.1
		c0.2-0.1,0.4-0.5,0.7-0.3c-0.6-0.6-0.1-3.8,0.3-4.3c-0.4-0.1-0.8-0.3-1.1-0.6c0.4-0.1,0.8,0,1.2,0.1c-0.3-0.2-0.6-0.3-0.9-0.4
		c0.2-0.2,0.4-0.3,0.7-0.3c-0.3,0-0.5-0.2-0.6-0.4c0.1-0.1,0.4-0.3,0.6-0.4c-0.1,0-0.3-0.1-0.4-0.1c0.1-0.3,0.2-2.5-0.2-2.4
		c-1.1,0.2-0.7-0.4-0.7-0.4c0.2-0.1,0.3-0.1,0.4-0.1C331.3,130,330.8,130,331.2,129.3z M331.5,124
		C331.5,124.1,331.5,124.5,331.5,124L331.5,124z M337,135.6C336.7,135.6,336.7,135.2,337,135.6L337,135.6z M336.9,147.4
		C336.8,147.9,336.7,147.6,336.9,147.4L336.9,147.4z M335.4,141.5C335.3,141.2,335.7,141.2,335.4,141.5L335.4,141.5z M333.6,141.5
		C333.2,141.1,333.7,141.2,333.6,141.5L333.6,141.5z M331.3,141.5c1.8-0.2,0.5-0.3,0.7-0.7c0,0,0,0,0.1,0.1c0,0.1,0,0.1,0,0
		c0.3,0.1,1.1,0.2,1.2,0.2C332.9,141.8,332.3,141.6,331.3,141.5z M332.2,147.4C332.2,148,332,147.6,332.2,147.4L332.2,147.4z
		 M331.9,140.9C331.9,140.8,332.1,140.3,331.9,140.9L331.9,140.9z M338,147.8C337.9,147.6,338.2,146.9,338,147.8L338,147.8z
		 M338.1,147.9c0.1-0.2,0.2-0.3,0.3-0.4C338.5,147.6,338.4,148,338.1,147.9z M338.4,148c-0.1,0-0.1,0-0.1,0.1
		C338.3,147.9,338.3,147.9,338.4,148z M338.6,148.2C338.7,148.4,338.5,148.2,338.6,148.2L338.6,148.2z M339,148.4
		C338.3,148.7,338.9,148.3,339,148.4L339,148.4z M338.8,148.3C338.8,148.2,339,148.3,338.8,148.3L338.8,148.3z M339.4,147.9
		c-0.1-0.1-0.1-0.2-0.1-0.4c-0.6,1.3-0.3-0.1-0.8-0.1c0.3-0.1,0.8,0,1.4,0c0.1,0-0.1,0.9-0.1,1.1c0.1,0.1,0.2,0.3,0.3,0.5
		C339.8,148.3,339.3,148.6,339.4,147.9z M322.7,140.1C322.7,140.1,322.7,140.1,322.7,140.1c-1-0.2-1.8,1.2-1.8,1.9
		c-0.1-0.4-0.4-0.4-0.7-0.2c0,0.4-0.4,1.6-0.4,1.1c0,2.6-1.2,4.9,0,7.2c-1-0.7,0.3,1.5,0.5,1.7c-0.2,0.1-0.5,0.1-0.7,0
		c0.4,0.6-0.4,2.3-0.7,2.4c0.1,0.4,0.4,0.6,0.8,0.5c-0.1,0.3-0.3,4.2,0.2,4.1c0.9-0.3,1.1,0.5,0.7,0.6c0,0.1-0.3-0.4-0.7-0.4
		c0.3,0.6,0.4,1.1,0.5,1.8c-0.1-0.3-0.3-0.5-0.6-0.5c0.1-0.2,0.1-0.5,0.2-0.7c-0.2,0.2-0.3,0.2-0.4,0.1c0.1,0.9,0.6,4.9,0.4,5.2
		c-0.2-0.1-0.4-0.2-0.6-0.2c0.3,0.4,0.5,0.9,0.4,1.5c-0.1-0.2-0.2-0.4-0.3-0.6c-1.7,2.3,1.7,5.5,2.7,7.3c-0.3,0-2.3-0.1-1.9,0.2
		c-2.6,0.1-9.9-1-10-0.2c-0.4,0.1-2.4-0.2-3-0.2c0.2-1.3-5,0.3-5.7,0.4c0-1.2-0.1,0-0.2,0.1c-0.4-0.2-0.4-0.4,0-0.7
		c-1.5-0.5-10.4-0.2-11.1,0.8c-0.7,0.2-4.2-0.7-5.1-0.7c-0.8,0.1-4,0.8-4.7,0.1c1.6-0.9,2.3-2.3,2.7-4.1c0.3-1.2-0.8-3.3-0.5-3.9
		c0.2,0.1,0.3,0.2,0.5,0.3c-1.4-4.4-0.3-7.5-0.5-11.9c-0.1-2.8,1.3-7.3-1-10.6c0,0,0.1,0,0.1,0c-0.8-1-1.7-2-1.4-1.9
		c-0.9-0.5-1.2-0.6-2.1-1.5c0.4,0.5,1.3,0.6,1.6,1.2c0.9-1,5.6-0.3,6-0.5c0.3,0,0.7-0.1,1-0.1c-0.2-0.1-0.4-0.1-0.6-0.2
		c1.8-0.9,5.1-0.7,7.6-0.1c-0.1,0.2-0.3,0.4-0.4,0.6c5.1-0.4,9-0.3,13.6-0.2c0.5-0.4,1.2-1,1.6-1c-0.3,0.3-0.2,0.6,0.2,0.8
		c-0.2-0.5,1.5-0.8,1.9-0.7c0,0.2-0.2,0.4-0.4,0.5c0.4-0.3,0.9-0.4,1.4-0.4c-1.3,0.7,0.3,0.5,1,0.9c0.3-0.4,1.2-0.5,1.8-1
		c-1.6,1.3,1.8,1,1.7,1.4c0.7-0.2,3.6-0.7,4.9-1.5c0,0.2-0.1,0.4-0.3,0.5c1.4,0.6,1.9,0.3,2.5,0.1c-0.5,0.8,0.3,0.7,0,0.5
		c-0.3,0,0.2-0.6,0.5-0.8c0.4,0.8,0.6,2,0.3,2.8c0-0.2-0.3-1.4-0.1-1.5C324.1,139.8,323.3,140,322.7,140.1z M322.7,173.2
		C323.4,173,322.6,173.4,322.7,173.2L322.7,173.2z M322.8,173.1C322.8,173.2,322.6,173,322.8,173.1L322.8,173.1z M321.7,171.5
		C321,170.8,321.3,170.6,321.7,171.5L321.7,171.5z M280.2,173.1C280.2,173.3,280.2,173.1,280.2,173.1L280.2,173.1z M280.2,173.1
		C279.7,173,280.2,172.2,280.2,173.1L280.2,173.1z M279.5,99.2c0.6,0.2,5.5,0,5.6-0.1c0.3,0,0.6-0.1,1-0.1c-0.2-0.1-0.4-0.1-0.6-0.2
		c1.6-0.9,4.9-0.7,7.1-0.1c-0.1,0.2-0.3,0.4-0.4,0.6c4.8-0.4,8.4-0.3,12.9-0.2c0.4-0.3,1.3-1,1.5-1c-0.3,0.3-0.2,0.6,0.2,0.8
		c-0.2-0.5,1.4-0.8,1.8-0.7c0,0.2-0.2,0.4-0.3,0.5c0.4-0.3,0.8-0.4,1.3-0.4c-1.2,0.7,0.2,0.5,0.9,0.9c0.3-0.4,1.2-0.5,1.7-1
		c-1.5,1.3,1.7,1,1.6,1.4c0.6-0.2,3.4-0.7,4.6-1.5c0,0.2-0.1,0.4-0.3,0.5c0.6,0.3,2.5-0.2,1.7,0.7c0.7-0.2,1.9,0.3,2.2-0.6
		c-0.9,0.2-0.4,0.1-0.6-0.1c-0.4-0.2-0.8-0.3-1.2-0.2c1.2-0.4,3.3-0.7,2.6,0.2c0.1-0.7,0-0.4-0.4,0.8c0.6-1.1,0.4,0.2,0.3,0.3
		c0,0,0.2,0.1,0.4,1.1c-0.3-0.1-0.5-0.1-0.7,0.1c0.3,0,0.6,0,0.8,0.2c-0.2,0.2-0.4,0.9-0.7,0.4c0.5,0.8,0.4,2.3,0.4,3
		c-1-0.7-0.3,3-0.2,3.2c-1-0.7,0.2,1.4,0.5,1.6c-0.2,0.1-0.5,0.1-0.7,0c0.4,0.6-0.4,2.1-0.7,2.2c0.2,0.4,0.4,0.5,0.9,0.4
		c0,0.4-0.2,0.6-0.7,0.6c0.1,0.2,1.2,3.2,0.8,3.3c0.8-0.3,1.1,0.4,0.7,0.5c0,0.1-0.3-0.4-0.7-0.4c0.3,0.5,0.4,1.1,0.5,1.7
		c-0.1-0.3-0.3-0.5-0.6-0.4c0.1-0.2,0.1-0.5,0.2-0.7c-0.3,0.2-0.4,0.2-0.4,0c-0.1-0.1,0.5,4.8,0.4,5c-0.2-0.1-0.4-0.2-0.6-0.2
		c0.3,0.4,0.5,0.9,0.4,1.4c-0.1-0.2-0.2-0.4-0.3-0.5c0,0-0.4,7.9,0,8.1c0,0,0,0,0,0c0.1,0,0.1,0.1,0.2,0.1c-0.6-0.2-0.6,0,0,0.6
		c-0.4-0.1-1.9,0.2-1.6,0.3c-2.6,0.1-9.3-1-9.5-0.2c-0.6,0.2-2-0.3-2.8-0.2c0.2-1.3-4.7,0.3-5.4,0.4c0-1.2-0.1,0-0.2,0.1
		c-0.8-0.1-1.7-1-4.4-0.7c-1.3,0.1-5.6,0-6.1,0.8c-0.6,0.2-4-0.7-4.8-0.7c-0.6,0.1-7.6,0-7.5-0.4c-0.2,0.2,0.1,0.5-0.6,0.5
		c0-1.5-0.3-5.5,0-6.1c0.2,0.1,0.3,0.2,0.5,0.3c-2.1-6.3,0-13.4-0.9-20.7c0.2,0.5,0.5,0.9,0.8,1.4c0-0.1-1.6-4.1-0.3-2.8
		c-0.7-3,0.5-2.4-1.4-4.1c0.4,0.4,0.9,0.4,1.3,0.8C279.8,99.5,279.7,99.3,279.5,99.2z M304.2,98C304.1,98.2,303.3,98.4,304.2,98
		L304.2,98z M316.1,98.3C316.2,97.6,316.4,98.1,316.1,98.3L316.1,98.3z M319.3,98.4C319.2,98.2,319.9,97.4,319.3,98.4L319.3,98.4z
		 M324,138.5c-0.4,0-1.1,0.2-1.4,0.3C323.2,137.9,323.7,138,324,138.5z M324.5,98C323.4,97.9,324.4,98,324.5,98L324.5,98z
		 M322.2,138.4C323.2,138.8,322.1,138.8,322.2,138.4L322.2,138.4z M323.3,125.8C323.3,126.2,323.3,126.2,323.3,125.8L323.3,125.8z
		 M323.3,127.3C323.4,126.5,323.7,126.8,323.3,127.3L323.3,127.3z M319,138.5c-0.1,0-0.2-0.1-0.3-0.1
		C318.8,138.5,318.9,138.5,319,138.5z M306.2,138.4C306.2,138.6,305.3,138.8,306.2,138.4L306.2,138.4z M274.9,164.5
		c-1.3-1.4,0.7,0.8-0.5-0.3c0.2,0.1,0.3,0.3,0.4,0.5c-0.1-0.2-0.6-0.1-1-0.6c-0.1,0.1-0.6,0.7-0.5,0.8c-0.3-0.5-2.8-0.5-3.4-0.5
		c0,0-0.2,0.3-0.3,0.5c-0.2-0.1-0.9,0.3-1,0.4c0-0.2,0-0.3,0.1-0.5c-0.1,0.3-0.2,0.4-0.5,0.4c0.3-0.5,0-0.5-0.3-0.8
		c-0.1,0.2-0.7,1.1-0.7,1c0.3-0.7-0.2-0.7-0.1-1.2c-0.1,0.2-0.6,0.4-0.5-0.1c-0.4,0.2-1.1,0.9-1.7,1.5c-0.2-0.2-0.5-0.6-0.7-0.9
		c0-0.2,0.1-0.2,0.3-0.2c-0.1,0-0.2,0-0.1-0.1c-0.1,0-0.5,0.3-0.7,0.1c0.2-0.3,0.4-0.3,0.7-0.2c-0.4-0.2-0.4-1-0.4-1.2
		c0.3-0.1,0.6-0.2,0.9-0.4c-0.4-0.2-0.6-0.5-0.7-0.8c0.7,0.2,0.6-0.2-0.5-0.6c0.4,0,0.8,0,1.2,0.1c-0.3-0.1-0.6-0.2-0.9-0.3
		c0.2-0.1,0.4-0.2,0.7-0.2c-0.2,0-0.4-0.1-0.6-0.2c0.1,0,0.6-0.2,0.8-0.3c-0.2-0.1-0.5-0.2-0.7-0.1c0.2-0.2,0.4-0.3,0.7-0.2
		c-0.5-0.6-1.6-1.5-1.5-1.5c1.3-0.2-0.4,0.1,0.1-0.5c0.9-0.1,0.2,0.6,1.2,0.4c0.2-0.6-0.2-0.7-0.6-0.7c0.2-0.1,0.3-0.8,0.1-1.1
		c0.1,0,0.1,0,0.2,0c-0.3-0.1-0.4-0.3-0.4-0.5c0.1,0,0.9-2.7,0.1-3.1c-0.1-0.3,0.3-3.3-0.4-3.6c0.3,0,0.5,0,0.7,0c0.1,0,0.1,0,0.2,0
		c0,0,0,0,0,0c0,0,0,0,0,0c0,0,0,0,0,0c0-0.1,0-0.1,0-0.2c0.1,0.1,0.5,0.9,0.1,0.1c0.7,1.1,0.7-0.3,1.1-0.4c-0.4,1,0,0.1,0.1-0.1
		c0.2,0.1,2,2.4,3,0c0,1,0.8,0.6,1,0c0.2,0.3,2.4,0.2,2.3,0.2c-0.1,0,0.7,0.9,1,0.2c0,0.4,0.1,0.4,0.1,0.5c0.1-0.2,0.1-0.4,0.5-0.4
		c-0.1,0.4-0.3,0.6-0.7,0.7c0,0,1.1,0.3,0.7,0.5c-0.2,2.6-0.6,4.6,0.4,7.8c-0.2-0.2-0.5-0.4-0.8-0.5c0.6,1,0.5,2,0.5,2.4
		c0.4,0,0.8,0.1,1.2,0.3c-0.4,0.1-0.9,0.2-1.3,0.2c-0.3-0.3,1.2,1.4,0.8,2c-0.3,0-0.5,0-0.8,0.2c0.1,0.1,1.1,1.1,1.3,0.9
		c0,0-0.1,0.4-0.8,0.1C274.5,164,274.7,164.3,274.9,164.5z M271.5,178.4c-0.9,0.1-0.2-0.6-1.2-0.4c-0.3,0.7,0.6,0.7,0.8,0.7
		c0.4,0.3-1,0.5-0.6,0.7c0.4-0.1,0.6,0,0.6,0.4c-0.2,0-0.4-0.1-0.6-0.1c0.3,0.1,0.4,0.2,0.4,0.5c-0.1,0-0.9,2.5-0.1,2.9
		c0-0.1,0,3.7,0.4,3.8c-0.4,0.1-0.6,0.4-0.9,0.7c0.2,0.1,0.4,0.2,0.6,0.3c-0.6-0.1-0.6,0,0,0.2c-0.2,0-0.4,0.1-0.6,0.1
		c0.1,0.1,0.2,0.2,0.3,0.1c-0.1,0.3,0,1,0,0.9c-1.1-0.1,0.1,1.8,0.4,1.9c-0.1,0.1-0.9,0-1.1,0c0,0.1,0.8,0.7,0.9,0.8
		c-0.5,0-0.9-0.8-0.1,0.4c-0.6-0.7-0.6-0.7-0.6-0.4c-0.4-0.2-1.4,0.1-1.6,0.2c0.1,0-0.4-1-0.8-0.2c0-0.4-0.1-0.4-0.1-0.5
		c-0.1,0.2-0.1,0.3-0.5,0.4c0.1-0.4,0.3-0.6,0.7-0.7c-0.4,0.2-0.7,0.1-0.7-0.3c0.3-2.4,0.6-4.3-0.4-7.2c0.2,0.2,0.5,0.3,0.8,0.5
		c-0.4-0.3-0.6-0.6-0.7-1.1c0.3-0.3,0.2-1,0.2-1.1c-0.4,0-0.8-0.1-1.2-0.3c0.4-0.1,0.9-0.2,1.3-0.2c-0.5-0.1-0.5-0.1,0-0.1
		c0,0.1-1.1-1.3-0.8-1.8c0.3,0,0.5,0,0.8-0.2c-0.7-0.3-0.6-0.4-0.5-0.8c-0.1,0.1-0.9,0.2-0.8-0.1c-0.2-0.2,0.9-0.6,0.8-0.6
		c-0.2-0.2-0.4-0.4-0.6-0.5c1.3,0.4-0.7-0.2,0.5-0.1c0.1-0.3-1-0.6,0.3-0.9c-0.5-2.1-0.5-2.2-0.7-3.8c0.1,0,0.2,0,0.3,0
		c-0.4-0.5-1.1-1.4,0.2-0.1c-0.1-0.1-0.2-0.2-0.2-0.2c0.1,0,0.1,0-0.1-0.4c0.1,0.2,0.5-0.1,0.4-0.1c0.1,0.2,0.2,0.3,0.2,0.5
		c0.3-0.1,0.1-0.1,0.6,0.4c-0.1-0.1-0.1-0.1,0.1,0.1c0.1-0.4,0.2-0.6,0.3-1c-0.2,0.6,0.1,0.7,0.1,1.2c0.1-0.2,0.5-0.4,0.5,0.1
		c0,0,2.3-1.7,1.5-1c0.4,0.5,0.8,0,0.3,0.5c0.6,0.2,0.2-0.1,0.7,0c-0.1,0.2-0.2,0.3-0.4,0.3c0.2-0.2,0,0-0.1,0
		c0.4,0.2,0.4,0.9,0.4,1.1c-0.3,0.1-0.6,0.2-0.9,0.4c0.4,0.2,0.6,0.4,0.7,0.8c-0.7-0.2-0.7,0.2,0.5,0.6c-0.4,0-0.8,0-1.2-0.1
		c0.3,0.1,0.6,0.2,0.9,0.2c-0.2,0.1-0.4,0.2-0.7,0.2c0.2,0,0.4,0.1,0.6,0.2c-0.1,0-0.6,0.2-0.8,0.2c0.2,0.1,0.5,0.2,0.7,0.1
		c-0.2,0.2-0.4,0.3-0.7,0.2c0.6,0.7,1.1,0.7,1.7,1.3c0,0-0.6,0-0.8,0C271.3,177.9,271.4,178.1,271.5,178.4z M271.2,181.4
		C271.2,181.3,271.1,181.1,271.2,181.4L271.2,181.4z M265.6,171.9C266.4,172.6,265.8,172.1,265.6,171.9L265.6,171.9z M265.6,165.5
		C265.7,165,265.8,165.3,265.6,165.5L265.6,165.5z M269.5,171.4C269.4,171.9,269.3,171.6,269.5,171.4L269.5,171.4z M270.3,165.5
		C270.4,164.9,270.5,165.2,270.3,165.5L270.3,165.5z M270.6,171.9C270.8,171.5,270.8,171.9,270.6,171.9L270.6,171.9z M270.8,172
		C270.7,172,270.7,171.9,270.8,172L270.8,172z M271.1,172.3C270.9,172.3,270.8,172.3,271.1,172.3L271.1,172.3z M271.2,172.4
		C271,172.5,271.2,172.4,271.2,172.4L271.2,172.4z M271.9,171.4C271.8,171.4,271.7,171.4,271.9,171.4L271.9,171.4z M264.6,165.5
		C264.4,165.3,264.6,164.9,264.6,165.5L264.6,165.5z M264.3,165.2c-0.1,0,0.2,0.3-0.4,0.3C263.2,165.5,263.3,165.4,264.3,165.2z
		 M264.1,164.6C263.7,164.3,264.1,164.5,264.1,164.6L264.1,164.6z M264.1,164.9C264.3,165,264.1,165,264.1,164.9L264.1,164.9z
		 M264.3,164.9C264,164.8,264.4,164.7,264.3,164.9L264.3,164.9z M263.7,154.7C263.7,154.7,263.7,155,263.7,154.7L263.7,154.7z
		 M263.9,148.8c0.1,0,0.1,0.1,0.1,0.1c0,0,0,0,0,0C264,148.9,263.9,148.9,263.9,148.8z M265.6,98.9c0.2,1.8,0.3,0.5,0.7,0.7
		c0,0,0,0-0.1,0.1c-0.1,0-0.1,0,0,0c-0.1,0.3-0.2,1.1-0.2,1.2C265.4,100.5,265.6,99.9,265.6,98.9z M265.7,98
		C265.6,99,265.7,98,265.7,98L265.7,98z M267.4,99.9c0-0.3,0-0.6,0.1-0.8c0.1,0.2,0.5,0.4,0.3,0.7c0.6-0.7,2.3-0.4,2.2,0.4
		c0.1-0.4,0.3-0.6,0.6-0.7c-0.2,0.1-0.3,0.3-0.3,0.5c0.3-0.4,0.7-0.7,1.1-0.9c-0.4,0.4-0.8,0.7-1.2,1.1c0.3-0.2,0.6-0.4,0.9-0.6
		c-0.2,0.2-0.4,0.4-0.7,0.5c0.2-0.2,0.4-0.2,0.6-0.2c0,0-0.3,0.2-0.6,0.3c0.2,0,0.3-0.1,0.5-0.1c-0.2,0.2-0.4,0.2-0.7,0.1
		c0,0,0,0,0,0c0.1,0.1,1.1,2,0.8,2c0.5-0.3,0.8-0.2,0.9,0.2c0.1,0.2-0.6-0.1-0.8-0.1c0.3,0.3,0.4,0.6,0.5,1
		c-0.5,0.1-0.7-0.8-0.4-0.7c-0.3,0-0.5,0-0.8,0c-0.2,0.9,1.2,2.7,0.9,3.1c-0.2,0-0.4-0.1-0.6-0.1c0.3,0.2,0.4,0.5,0.4,0.9
		c-0.2-0.1-0.9,4.4-0.1,5.1c0-0.1-0.2,2-0.2,2.1c0.2,0.3,0.4,0.6,0.5,0.9c-0.8,1.8-0.4,5.1-0.2,5.7c-0.2,0.1-0.4,0.1-0.6,0.2
		c0,1.4,0.1,3.1,0.7,5.2c-1.4-0.3,0.1,0.2,0.1,0.1c-0.1,0.3-2,3.5,0,4.8c-1.2,0.1-0.3,1.6,0.1,1.7c0.3,0.7-1.5,6.7-1.2,6.8
		c0.2,0.1,0.5,0.1,0.5,0.6c-0.3,0-2.5-1.3-2.7-0.4c-0.1,0-0.3,0.1-0.6,0c0.4-0.1,0.5-0.2,0-0.2c0.9-1.5,0.1-6-0.4-8.5
		c0.2,0.3,0.5,0.6,0.8,0.8c-0.5-1.4,0-3.2-0.4-3.8c-0.2-0.3-0.3-0.4-0.1-0.2c-0.5,0-0.8-0.2-1.2-0.6c0.4-0.2,0.9-0.3,1.3-0.3
		c0.1,0.2-1.6-3.5-0.1-3.6c-0.8-0.9-0.3-0.7-0.5-1.5c-0.6-0.1-1.1-0.7,0.1-1.1c-0.2-0.3-0.4-0.6-0.6-1c0.6,0.3-0.2-1.4,0.8-1.8
		c-0.5-3.4-0.3-5.1-0.2-8c-0.1-0.2-0.1-0.5-0.2-0.7c-0.4,0.4-0.7,0.3-0.8-0.2c0.2,0.3,1.2-0.2,0.4-0.2c0,0-0.4-1.1-0.4-1.1
		c0.2,0,0.4,0.1,0.5,0.2c-0.3-0.2-0.4-0.5-0.4-0.8c0.7,0.7,0.4-0.2,0.9-0.6c-0.1-0.1-0.8-0.9-1-1.1c1.4,1,0.9-1.1,1.4-1
		c-0.2-0.4-0.9-2-1.5-2.9c0.6-0.2,0.6-1.3,1.1-0.9C266.1,99.5,266.9,99.6,267.4,99.9z M271.2,109.5
		C271.3,109.1,271.6,109.1,271.2,109.5L271.2,109.5z M271.2,108.8C271.2,108.7,271.1,108.3,271.2,108.8L271.2,108.8z M266,110.8
		C265.3,110.9,265.7,110.4,266,110.8L266,110.8z M265.6,103C266,103,266,103.4,265.6,103L265.6,103z M265.7,101
		c0.1,0.1,0.1,0.2,0.1,0.2C265.8,101.2,265.8,101.1,265.7,101z M263.1,165.5C262.3,165.5,262.5,165.5,263.1,165.5L263.1,165.5z
		 M259.7,98C258.7,97.9,259.6,98,259.7,98L259.7,98z M258.9,109.2c-0.5,0-0.7-0.7-0.4-0.6c-0.3,0-0.5,0-0.8,0
		c-0.2,0.8,0.2,0.9,0.7,1.1c-0.2,0.1-0.3,1.2-0.1,1.7c-0.1,0-0.2,0-0.3-0.1c0.3,0.2,0.4,0.5,0.4,0.8c-0.2-0.1-0.9,4-0.1,4.6
		c-0.1,0.1-0.1,1.8-0.2,1.9c0.2,0.2,0.4,0.5,0.5,0.8c-0.2,2.3-0.7,4.3-0.2,5.2c-0.2,0.1-0.4,0.1-0.6,0.2c0,0.2,0.1,0.8,0.3,1.7
		c-1.2-0.1,0.3,2.7,0.4,3.1c-1.2-0.1-0.2,0.1,0,0.1c-0.2,0-1.2,0.5-1,0.5c0,0.2,0.8,0.9,0.9,1c-0.7-0.3-0.7-0.9-0.6,0.2
		c-0.4-0.9-0.9-0.6-1.2,0.1c-0.1,0-1.9-1-2.6-0.9c-4.7-4.3-3.1-12-5.7-18.2c0.3,0.2,0.6,0.4,0.9,0.6c-0.7-1.1-0.5-2.9-1-3.3
		c-0.3-0.3-0.3-0.3-0.1-0.1c-0.4,0-0.9-0.1-1.2-0.3c0.4-0.2,0.8-0.4,1.3-0.5c0.2,0.2-2.1-2.8-0.6-3.2c-0.6-0.5-0.6-0.6-0.6-0.7
		c-0.1-0.2-0.1-0.4-0.2-0.5c-0.7,0-1.2-0.4-0.1-1c-0.3-0.3-0.5-0.5-0.8-0.8c1.1,0.4-0.6-0.2,0.5-0.3c0-0.2-0.8-0.7-0.6-1.6
		c0.2,0,0.4,0.1,0.6,0.1c-0.1-0.2-0.9-1.6-1-1.5c0.3,0,0.1-0.2,0.5,0.1c0.8-1,1.6-0.3,2.9-0.3c0.1-0.2,0.8-1,0.8-1
		c-0.2,0.3-0.1,0.5,0.1,0.8c-0.1-0.4,0.8-0.8,1-0.7c0,0.2-0.1,0.4-0.2,0.5c0.2-0.3,0.4-0.4,0.7-0.4c-0.7,0.7,0.1,0.4,0.5,0.9
		c0.1-0.2,0.8-0.8,1-1c-0.9,1.4,1,0.9,0.9,1.4c0.4-0.2,1.8-0.9,2.6-1.5c0.2,0.7,1.2,0.5,0.8,1.1c1.2-0.7,0.9,0,0.6,0.4
		c0.3,0,0.6,0,0.8,0.1c-0.2,0.1-0.4,0.5-0.7,0.2c0.4,0.4,0.4,1.4,0.4,1.7c-0.8-0.3-0.4,1.8-0.7,2.2c0.4,0.1,0.8,0.3,1.1,0.6
		c-0.4,0.1-0.8,0-1.2-0.1c0.3,0.2,0.6,0.3,0.9,0.4c-0.2,0.2-0.4,0.3-0.7,0.3c0.3,0,0.5,0.1,0.6,0.4c-0.7,0.6-0.4-0.1-1,0.3
		c0.2,0.3,0.5,0.3,0.9,0.2c-0.1,0.3-0.3,0.4-0.7,0.3c0.5,1,1.3,1.5,1.7,2c0.1,0.2-0.6-0.1-0.8-0.1
		C258.7,108.5,258.9,108.8,258.9,109.2z M258.6,114.7C258.7,114.3,259.1,114.3,258.6,114.7L258.6,114.7z M258.6,114
		C258.6,113.9,258.5,113.6,258.6,114L258.6,114z M257.2,140c-0.1-0.3,0.8-0.5,0.8-0.3C258.6,140.1,257.3,140,257.2,140z
		 M257.6,140.4C257.6,140.4,257.6,140.4,257.6,140.4C257.6,140.4,257.6,140.4,257.6,140.4z M258.5,139.6
		C258.7,139.8,257.5,139.8,258.5,139.6L258.5,139.6z M248.2,98C248.1,98.3,247.8,98.3,248.2,98L248.2,98z M251.7,91.7
		C251.9,92.5,249.9,92,251.7,91.7L251.7,91.7z M255,98.3C255.1,97.6,255.2,98.1,255,98.3L255,98.3z M256.8,98.4
		C256.7,98.2,257.1,97.4,256.8,98.4L256.8,98.4z M257,98.5c0.4-0.9,0.8-0.4,1.8-0.5C258.5,98,257.3,98.5,257,98.5z M258.3,98.6
		C258.3,98.7,258.2,98.8,258.3,98.6L258.3,98.6z M258.1,98.9c-0.1,0-0.1,0-0.1-0.1C258,98.8,258,98.8,258.1,98.9z M217.2,244.2
		C217.7,244.4,217.3,245.5,217.2,244.2L217.2,244.2z M229.8,253.6C229.6,254.4,228.6,253.3,229.8,253.6L229.8,253.6z M232.6,254.8
		c-1.1-1.6-3.4-1.1-4.5-2.7c0.8,0.4-0.9-0.5-1-0.5c0.5,0.8,0.2,1-0.8,0.5c0.5-0.2,0.5-0.4,0.1-0.8c0,0.5-2.2-0.3-2.5-0.5
		c0.2-0.2,0.4-0.3,0.6-0.3c-0.6,0-1.2-0.1-1.7-0.5c1.7,0.1,0-0.7-0.7-1.3c-0.3,0.1-1.7-0.3-2.5-0.2c0.4,0-2.5-5.2-2.6-7.3
		c0.2,0,0.4,0.1,0.5,0.4c0.2-0.7-0.2-3.4,0.6-2.3c-0.5-1.9-0.8-2,0-1.1c0-0.7-0.2-1.3-0.6-1.8c0,0.5-0.2,1.4-0.1,0.9
		c-0.4,0.8-0.4,1.6,0.1,2.4c-0.2-0.1-0.3-0.2-0.5-0.3c0-2.1,0.1-4.2,0.2-6.3c1,0.2,0.3,0.1,1.1,0.6c0.2-0.9,0.7-1.7,0.7-2.5
		c0,0.3,0,0.5,0,0.8c0.6-0.7,0-1.6-0.3-2.3c0.3,0.2,0.5,0.1,0.7-0.2c-0.3,0-0.6-0.1-0.8-0.3c0.8-1,1.8-6.8,1.1-8.9
		c0.9,1-0.1-1.9-0.4-2.2c0.2-0.1,0.5-0.1,0.7,0c-0.4-0.8,0.9-2.9,1-2.9c-0.1-0.5-0.3-0.7-0.8-0.6c0,0.3,0.7-5.3,0.3-5.2
		c-1.1,0.4-1-0.7-0.7-0.8c0-0.1,0.3,0.5,0.6,0.5c-0.2-0.7-0.3-1.5-0.3-2.3c0.7-0.1,0.3,1.3,0.3,1.5c0.2-0.1,0.3-0.2,0.3-0.2
		c-0.1-1.2-0.1-6.1,0.1-6.5c0.2,0.1,0.4,0.2,0.6,0.3c-0.3-0.6-0.4-1.2-0.3-1.9c0.1,0.2,0.1,0.5,0.2,0.8c0.8-1.2,1.1-8.7,1.2-10.7
		c0-1.2-0.6-4,0.1-5.4c-0.2-0.6-0.3-1.3-0.3-2c0.6-1.5-0.4-8.1-3.6-6c0-0.1,1-0.9,1.1-0.9c-0.2,0.1-0.5,0.1-0.7,0
		c1.1-0.4-0.6-0.4,0.8-0.4c-0.3-0.5,0.5-1.9,1.2-3.1c0.9,0.7,0,0.1,0.3-0.5c1.1-2.2,1.9-3.2,3.3-5.8c-0.6,0.6-0.3-0.1-0.1-0.3
		c-0.2,0-0.4-0.1-0.4-0.4c0.4-0.3,0.6-0.3,0.7,0.3c1-2.7,7.7-1.1,9.5-1.1c1.4,1.2-2.8,15.5-3.2,16.6c-0.8,0-0.1,10.7-0.8,12.1
		c-0.2-0.2-0.3-0.3-0.5-0.5c0.4,2.5-0.4,5,0,7.5c0,0-0.2,5.6-0.3,7.3c-0.1,4.4-0.1,8.1,0.7,13.3c-0.7,0-0.1-1.9-0.9-1.8
		c0-0.1,2,5.5,0.5,3.8c0.2,1.1,0.3,4.3,0.6,4.9c0.5,0.2,2,1,1.2,0.9c-0.9-0.4-0.1,1.5-1.3,0.8c0.6,1.6,2.2,7.7,1.8,10
		c-0.1-0.2-0.2-0.3-0.3-0.5c0.1,0.4,0.2,0.9,0.3,1.3c0-0.3,0.1-0.5,0.1-0.8c1,1.8,1.2,5.5,1.1,6.5c-0.3-0.5,0.4,3,0.4,3.1
		c-0.2-0.1-0.5-0.3-0.7-0.5c0.3,1.3,0.9,4.5,1.5,5.4c-0.1-0.2-0.3-0.3-0.4-0.4c0.1,0.7,0.3,1.3,0.6,2
		C234.3,255.6,232.2,253.7,232.6,254.8z M216.9,239.6C217.2,240.5,217,240.8,216.9,239.6L216.9,239.6z M221.2,195.6
		C221.1,196.6,221.2,195.8,221.2,195.6L221.2,195.6z M238.2,212.1c0,0.5,0,1.1,0,1.6C237.6,212.6,237.6,212.1,238.2,212.1z
		 M238.2,205.9c0,0.8,0,1.6-0.1,2.5C237.9,208.7,238.1,206.9,238.2,205.9z M249.3,261.9c-1,0-1.9-0.2-2.8-0.5c0.3,0,0.6,0,1-0.1
		c-0.5,0.1-0.9,0-1.4-0.1c0,0,0,0,0.1,0c0,0-0.1,0-0.1,0c0,0,0,0,0.1,0c-0.1-0.1-0.3-0.2-0.3-0.4c0.1,0,2.3,0.5,2.4,0.3
		c-3.5-0.5-5.3-0.3-5.6-3.7c0,0,0.7,2.1,0.9,2.3c0.3,0,0.8,0.3,2,0.7c-1.3-0.9-0.6-0.6,0-0.4c-2.4-1.7-5.4-21.2-5.5-23.5
		c0.2,0.4,0.5,0.8,0.7,1.1c-0.3-2.6-1.2-4.8-1.2-7.4c0.3,0.7,0.5,2.1,0.5,2.9c0.3-6.7-1.3-14-1.5-21c0.9,1.7,0.4-4.9,0.4-5.4
		c0-2.7,0.2-5.5,0.5-8.2c0.3-3.5,0.7-8,1-10.9c0.1-1.1,0.3-2.1,0.4-3.2c0.5-5.6,0.9-11.4,2.7-16.7c0,0.3,0,0.6-0.1,0.9
		c1-3.7,0-5.1-2-8.2c0.2,0.2,0.3,0.3,0.5,0.5c-2.6-3.4-6.9-6.9-8.7-10.8c-1.3-2.8-0.2-4.8,0.3-8.1c0.6-3.9,0.8-7.8,1.8-11.6
		c0.5-1.7,3.5-16.2,4.7-16c0.4,1,0.7,4.1,0.9,5.1c-0.3-0.5-0.5-1-0.6-1.6c0.7,2.4,1.1,5,1.3,7.4c0.3,7.4,5.5,15.2,15.2,15.2
		c-3.7,2.5-2.1,9.8-2.1,13.3c0.1,4.3-1.2,16.4,2.9,18.8c-0.7,0.5-4.5,0-3-0.2c-7.1,0.1-9.1,1.9-8.9,8.8c0.1-0.2,0.2-0.4,0.4-0.5
		c0,0.6-0.5,2.8-0.4,2.3c0.5,7.4-0.7,14.7-0.5,22.1c0.1,2.1,1.3,6.1,0.5,9c0-0.1-0.3-1.1-0.3-1.1c-3.3,0.1,3.4,9.3,3.2,9.1
		c1.5,2,1.2-0.4,2,1.9c1.3,3.5-0.4,10.4-0.3,14.2c0.1,5-0.3,9.2,0.2,13.3c0-0.1,0-0.2,0-0.3c0.1,3.9,5.2,9,7.8,10.5
		C255.1,261.7,250.1,260.8,249.3,261.9z M258.7,251.5C259.3,251.4,259.2,252.7,258.7,251.5L258.7,251.5z M341,238.4
		c0.3,2.7,0.3,7.9-0.5,11.1c-0.4,1.7-5.1,6.2-8.5,4.8c0.2-0.2,0.3-0.3,0.5-0.5c-2.6,0.6-5.2,0-7.8,0.5c0,0-5.9-0.1-7.7-0.1
		c-4.6,0-8.6,0-14,0.5c0.1-0.7,2,0,1.9-0.8c0.1,0-5.9,1.7-4.1,0.3c-1.2,0.2-4.5,0-5.1,0.2c-0.3,0.5-1.2,1.9-1.1,1.2
		c0.5-0.9-1.6-0.2-0.7-1.3c-1.9,0.5-8.2,1.4-10.7,0.7c0.2-0.1,0.4-0.2,0.5-0.2c-0.5,0-0.9,0.1-1.4,0.1c0.3,0.1,0.5,0.1,0.8,0.2
		c-2,0.8-5.8,0.5-6.9,0.2c0.6-0.2-3.1-0.1-3.3-0.1c0.2-0.2,0.4-0.4,0.6-0.6c-1.6,0.3-3.3,0.5-4.9,0.5c-0.5,0-3.5,0-5.1-0.2
		c-2.1-1-4-3.3-4.5-5.2c-0.6-1.3-1.2-0.6-1.3-1.8c0.4,0.4,0.6,0.3,0.8-0.3c-0.5,0.2-0.7-2.3-0.7-2.5c0.2,0.1,0.4,0.2,0.5,0.5
		c-0.3-0.6-0.4-1.2-0.4-1.9c0.7,1.7,0.7-0.4,0.9-1.3c-0.2-0.2-0.5-1.7-1-2.5c1.2,2,1.2-2.4,1.4-2.3c-0.2-0.9-0.6-4.7-1.5-6.6
		c0.3,0,0.4,0.2,0.5,0.4c0.2-0.7-0.1-3.6,0.7-2.4c-0.5-2-0.8-2.2,0-1.2c0-0.7-0.2-1.4-0.6-1.9c0,0.6-0.2,1.5-0.1,0.9
		c-0.4,0.9-0.3,1.7,0.1,2.6c-0.8-1.4-0.5-3.5-0.5-5.4c0.2,0.3,0.2,1.9,1.2,1.4c-0.2-0.1-0.9-0.8-0.8-1.1c0.1,0.1,0.9,0.2,1.3,0.3
		c-0.2,0-0.4-0.1-0.6-0.1c0.7,0.7,1.7,0.2,2.4,0c-0.2,0.3-0.2,0.5,0.1,0.7c2.1-1,6,2.1,9.8,1.2c-1.1,0.8,2,0,2.4-0.2
		c0.1,0.3,0,0.5,0,0.7c0.8-0.4,2.8,0.5,3.3,0.8c0.1-0.2,0.3-0.4,0.5-0.6c-0.3,0,5.7,0.8,5.6,0.4c-0.4-1.1,0.7-1,0.8-0.7
		c0.1,0-0.6,0.3-0.6,0.6c0.8-0.2,1.6-0.3,2.4-0.3c0.1,0.7-1.4,0.3-1.6,0.3c0.1,0.2,0.2,0.3,0.2,0.3c1.3-0.1,6.4-0.2,7,0
		c-0.1,0.2-0.2,0.4-0.3,0.6c0.6-0.3,1.3-0.4,2-0.4c-0.3,0.1-0.5,0.2-0.8,0.2c4,2.4,13.7-2,17.3,0c2.9,0.4,8.3-0.4,11.5-0.8
		c1.9-0.2,4-0.2,4.1-0.6c1.4-0.5,2.5,0.3,4.1-0.3c-0.1,0.7,5.1-0.3,7.7-0.8c-0.2,0-0.9-0.9,0.2-0.3c-0.1-0.2-0.1-0.4,0-0.6
		c0.5,0.1,0.6,0.3,0.2,0.7c1.3,0,2.6-0.2,4.4-1c-0.5,1.9-0.6,5.9,0.3,6.7C342.1,233.1,340.1,236.4,341,238.4z M257.9,234.2
		C258.3,234.4,258.2,235.4,257.9,234.2L257.9,234.2z M258,222.7C257.8,223.2,257.9,222.7,258,222.7L258,222.7z M287.9,219.7
		c0.4,0,0.7,0,1.1,0.1C289.3,220.3,287.5,219.5,287.9,219.7z M290.4,219.8C290.6,219.8,291.8,219.8,290.4,219.8L290.4,219.8z
		 M297.7,228.1C297.5,228.1,296.7,228.2,297.7,228.1L297.7,228.1z M299.9,212.6c0,0-0.1,0-0.1,0c0,0,0,0-0.1,0c0,0,0,0,0,0
		c-0.1,0-0.2-0.1-0.3-0.1C299.6,212.4,299.8,212.5,299.9,212.6c-0.9-0.4,0.7,0.2-0.3-0.2c0,0,0,0,0,0c-0.6-0.2,0.4,0.1-0.3-0.4
		c0.7,0.2,0.4,0.3,0.9,0.6c-0.1-0.1-0.1-0.1,0,0c-0.2-0.2-0.4-0.4-0.6-0.6c0.3,0.3,0.4,0.3,0.3,0.1c0.2,0.3,0.1,0.1,0-0.2
		c0-0.1,0-0.1,0-0.1c0.1,0.2,0.2,0.3,0.3,0.5c0-0.1-0.1-0.5-0.2-0.6c0.3,0.4,0.3,0.7,0.2,0.2c-0.1-0.4,0.2,0.7,0.2,0.6
		c0,0,0-0.7,0-0.1c0-0.8,0.1-0.1,0,0.2c0.4-1.5,0.1-0.4,0.1-0.2c0.1-0.1,0.1-0.3,0.3-0.4c-0.1,0.1-0.4,0.7,0,0c0,0.1,0,0.1-0.1,0.2
		c0,0,0,0,0,0c0.1-0.1,0.2-0.1,0.4-0.3c-0.1,0.1-0.2,0.2-0.3,0.3c0,0,0,0,0.1,0c0,0,0,0,0,0c0,0,0,0,0,0c-0.1,0.1-0.1,0.1,0,0
		c-0.1,0-0.1,0.1-0.2,0.2c0.1-0.1,0.2-0.2,0.2-0.2c0,0,0,0,0,0c0,0,0,0,0,0c0,0,0,0,0,0c0.1-0.1,0.1-0.1,0,0c0.1,0,0.3,0,0.5-0.1
		c-0.1,0-0.2,0.1-0.3,0.2c0.1,0,0.2-0.1,0.3-0.1c-0.5,0.3-0.1,0.2,0,0.2c-0.5,0.1-0.1,0,1.1-0.2c-0.4,0.1-0.9,0.2-1.3,0.3
		c0.5-0.1,0.5-0.1,0,0c0.6-0.1,0.6-0.1,0.1,0c0.4-0.1,0.4,0.1,0.4,0.1c-0.2,0-0.3,0-0.5,0c0.4,0.1,0.5,0.2,0.7,0.2
		c-0.1,0-0.2,0-0.3,0c0.2,0.1,0.4,0.1,0.6,0.2c-1.5-0.4,0.8,0.2-0.5-0.1c0.1,0,0.3,0.1,0.4,0.1c-0.1,0-0.3,0-0.7-0.1
		c0.1,0.1,0.4,0.4,0.6,0.5c-0.1,0-0.2,0-0.3-0.1c-0.1,0-0.3,0.1,0.1,0.4c-0.8-0.5-0.1,0-0.2,0.1c-0.2-0.1-0.3-0.2-0.4-0.3
		c0,0,0.1,0.1,0.1,0.2c0,0.1,0.1,0.3,0.2,0.5c0,0,0,0.1,0.1,0.3c-0.1-0.1-0.5-0.9-0.1-0.1c0,0-0.3-0.4-0.4-0.5c0.1,0.1,0,0-0.1-0.2
		c0,0.2,0.3,0.7,0.4,0.9c-0.2-0.4-0.4-0.7-0.6-1.1c0.1,0.2,0.2,0.6-0.1-0.1c0.2,0.6,0.2,0.6,0.2,1.5c0,0-0.3-0.8-0.3-0.8
		c0,0,0,0.2,0,0.3c0-0.1,0,0,0,0c0,0,0,0.1,0,0.1c0,0,0,0.1,0,0c-0.2,0.6-0.3,0.7-0.3-0.3c0-0.5,0-0.1,0-0.8c0.1-0.3,0.1-0.9,0-0.3
		c0,0,0,0,0-0.1c0,0,0,0.1,0,0.1c0,0.2,0,0.2,0,0c0,0,0,0,0,0c0,0.1,0,0.1,0,0.2c0,0.1,0,0.2-0.1,0.3c0-0.1,0-0.2,0-0.3
		c0,0,0-0.1,0-0.1c0,0.1,0,0.1,0,0.1c0-0.1,0-0.2,0-0.4c-0.2,1.1-0.1,0,0-0.1c-0.2,1.1-0.1,0.2,0-0.2c0.1-0.1,0.1-0.2,0,0
		c0-0.1,0-0.1,0-0.1c0,0.1-0.1,0.3-0.2,0.4c-0.1,0.2-0.2,0.4-0.4,0.7c0.1-0.3,0.2-0.5,0.3-0.7c0-0.1,0.1-0.1,0.1-0.3
		c0,0.1-0.1,0.1-0.1,0.1c0,0,0,0,0-0.1c0.1-0.1,0.1-0.3,0.2-0.4c-0.1,0.1-0.1,0.2-0.2,0.3c0,0,0,0,0,0c0-0.1,0.1-0.1,0.1-0.1
		c0,0,0,0.1-0.1,0.1c0.2-0.5,0-0.2-0.1,0.1c-0.3,0.4-0.3,0.4-0.1,0.1c-0.3,0.4-0.4,0.5-0.7,0.8c0.1-0.1,0.1-0.1,0.4-0.5
		c-0.1,0.1-0.2,0.2-0.4,0.3c0.5-0.6,0.3-0.2,0.9-0.9c0,0.1-1.4,1.3-0.6,0.5c0-0.1,0.1-0.2,0.2-0.3c0,0,0,0,0,0
		c-0.1,0.1-0.3,0.3-0.2,0.1c0,0-0.1,0-0.1,0c0,0,0.1,0,0.1-0.1c0,0,0.1-0.1,0.2-0.2c-0.1,0-0.1,0.1-0.2,0.1c0.1-0.1,0.2-0.1,0.2-0.1
		c0,0,0.1-0.1,0.2-0.1c-1.2,0.5,0-0.2,0.2-0.2c-0.5,0.1-0.5,0.2-0.2,0.1c-0.2,0.1-0.7,0.2,0,0c-1,0.3-0.4,0-0.2,0
		c-0.2,0-0.3,0-0.5,0c0.1-0.1,0.3-0.2,0.5-0.2C299.2,212.6,298.1,212.5,299.9,212.6z M299.3,212.5c0.1,0,0.2,0,0.2,0.1c0,0,0,0,0,0
		C299.5,212.5,299.4,212.5,299.3,212.5z M300.4,204.4c0,0.1,0.1-0.5,0.1-0.9c0.2,0.2,0.4,0.5,0.7,0.8
		C301,204.4,300.7,204.4,300.4,204.4z M302.1,204.6C301.7,204.5,302.3,203.7,302.1,204.6L302.1,204.6z M302.4,212.9
		c0.1,0.1,0.1,0.1-0.3,0.1C302.2,213,302.3,213,302.4,212.9z M302.1,214.4C301.5,213.8,302.2,214.4,302.1,214.4L302.1,214.4z
		 M301.9,214.5c0-0.1-0.1-0.1-0.1-0.2C301.9,214.5,301.9,214.5,301.9,214.5z M301,214.7C301.3,215.3,301.1,215,301,214.7L301,214.7z
		 M300.8,215.1C300.8,214.1,300.8,215.1,300.8,215.1L300.8,215.1z M300,213.3C300,213.3,300,213.3,300,213.3
		C299.7,213.8,299.9,213.6,300,213.3z M299.9,213.5C299.9,213.5,299.9,213.5,299.9,213.5C299.9,213.5,299.9,213.6,299.9,213.5
		C299.9,213.6,299.9,213.5,299.9,213.5z M299.5,228.1C298.3,228,298.8,227.8,299.5,228.1L299.5,228.1z M303.1,204.8
		C302.9,204.8,303.2,204.1,303.1,204.8L303.1,204.8z M306.4,206.9C306.2,206.8,307,206.4,306.4,206.9L306.4,206.9z M342,214.9
		c-0.4,0.3-1.5,0.6-1.2,0.4c-4.3,2.4-7.9,0.5-12.5,2.4c0.8-0.7-3.7,0.7-3.6,0.6c0.2-0.1,0.4-0.3,0.4-0.5c-0.6,1-5.6,0.4-5.3,0.2
		c1-0.6-7.6,2.6-8.3,1.4c0.8,1.1-1.6,1.4-0.5,0.5c-0.2,0.1-0.4,0.1-0.6,0.2c0.1-0.2,0.2-0.4,0.4-0.5c-1,0.3-2,0.5-3.1,0.5
		c0.3-0.3,0.4-0.4,0.3-0.3c1.2-0.2,0.5-0.2,2-0.2c-0.4-0.3-0.4-0.5,0.1-0.4c-0.2-0.5-0.6-0.7-1.1-0.6c0.2-0.3,0.2-0.8-0.1-1.5
		c0.1,0.3,0.3,0.6,0.4,0.8c0-0.4,0.4-1.8,0.4-2.4c-0.1-0.1-0.5-0.3-1-0.7c0.5,0,0.9,0.1,1.3,0.1c-0.5-0.2-0.5-0.3,0-0.1
		c0,0-0.9-1.6-0.6-1.9c0.3,0,0.5,0,0.8-0.1c-0.4-0.7-0.5-0.2-0.6-0.8c-0.1,0.1-0.9,0.2-0.8,0c-0.2-0.1,0.8-0.7,0.8-0.7
		c-0.2-0.2-0.5-0.3-0.7-0.4c1.4,0.1-0.7,0,0.5-0.2c-0.2,0-0.3,0-0.4-0.1c-0.6-0.3,0.1-0.6,0.5-0.8c-1-1.6-1.8-2.9-2.7-3.8
		c0,0-0.3,0.1-0.6,0.2c0-0.2-0.8-0.3-1-0.2c0.1-0.1,0.2-0.2,0.4-0.3c-0.2,0.2-0.4,0.2-0.6,0c0.5-0.3,0.3-0.4,0.2-0.9
		c-0.1,0.1-1.1,0.6-1,0.6c0.5-0.5,0.1-0.7,0.5-1.1c-0.2,0.2-0.7,0.1-0.4-0.4c-0.5,0.1-1.2,0.4-1.9,0.9c0-0.2-0.3-0.8-0.3-0.9
		c0,0-0.2,0.2-0.3,0.3c0.1,0,0.1,0,0.2,0.1c-0.3,0.1-0.4,0.2-0.6,0.3c-0.3-0.4-0.7-0.9-1.3-1.7c-0.1,0-0.1,0-0.2,0
		c-0.1,0-0.2,0-0.3-0.2c-0.1,1.2-0.1,0.1-0.3,0c-0.2,0.9-0.3,0.3-1.3,0.8c-0.1-0.3-0.4-0.6-0.6-0.8c0.1,2-1.2-0.7-0.9,1.7
		c-0.2-0.4-0.4-0.7-0.5-1.1c0,0.3,0.1,0.6,0.1,0.9c-0.2-0.1-0.4-0.3-0.5-0.5c0.1,0.2,0.1,0.4,0,0.6c-0.1-0.1-0.4-0.4-0.6-0.6
		c0,0.2,0.1,0.5,0.3,0.7c-0.3,0-0.5-0.2-0.6-0.5c-0.5,1.2,0,1.1-0.1,2.2c0,0-0.3-0.5-0.5-0.6c0.1,0.3,0,0.5-0.1,0.7
		c-0.6-0.6,0.3-0.5-0.5-1.2c-0.8,0.3-0.2,0.8,0,1.1c0,0.5-1.1-0.4-0.9,0.1c0.4,0.2,0.5,0.4,0.3,0.7c-0.1-0.1-0.3-0.3-0.4-0.4
		c0.1,0.2,0.2,0.5,0,0.7c-0.2-0.2-2.1,2.1-1.5,2.7c0,0.9-0.2,3.6-0.7,4.8c0,0,0.8,0.4,0.8,0.4c-0.2,0.1-0.3,0.2-0.5,0.2
		c0.1,0.1,0.2,0.2,0.3,0c0,0.3,0.3,0.9,0.3,1c-1.1,0.4,1,1.5,1.3,1.6c0,0,0,0,0,0.1c0,0,0.1,0,0.1,0c0.1,0.5-1.4,0.7,0,1.6
		c-3,0.2-7.7-0.9-11.2-1.1c-1.4-0.1-6.1,0.1-7.4-0.7c-5.1-1.3-13.9-3.1-19.4-3.3c0-0.1,0-0.2,0-0.2c-0.1,0-0.2,0-0.3-0.1
		c0.5-0.1,0.7-0.4,0.4-0.6c0,0.2,0.2-4.1-0.2-5.3c1,0.3,0.1-0.3,0.2-1.7c0.2-3.2,0.2-5.5,0.2-9.4c-0.3,0.8-0.5,0.8-0.8,0
		c0.2-0.1,0.3-0.2,0.5-0.3c-0.2,0.2-0.4,0.1-0.6-0.2c0.2-0.7,0.4-0.8,0.7-0.1c0.4-2.9,1.2-11.6-0.7-15c0.9,0.6,2.7,0.2,3.5-0.3
		c0.5,0.1,1.9,0,1,0.1c0.3,2.8-1.9,7.2-0.2,9.5c0.9,1.1-1.4,7.2,1.7,9.5c2.1,1.6,6.2,0.8,8,1c0.2,0.8,10.8-0.4,12.3-3.8
		c1.2-2.6-0.9-5.5-0.3-7.8c0.2,0.2,0.3,0.4,0.5,0.7c-0.4-2.8-0.4-6.2-0.2-8.8c0.1,0.4,4.5,0.3,3.6,0.4c3.3-1.1,8-0.6,11.5-0.5
		c4.4,0.1,10.1-0.1,15.2-0.4c-0.1,0.7-2.9,0.1-2.8,0.8c1-0.1,7.6-1.2,5.9-0.3c2.4-0.3,4.7,0.1,7.1-0.3c-0.7,0.2-0.6,0.3,0.2,0.2
		c-1.3,0.1,3.6-1.9,1.7,0c1.3-0.7,0.8,7.7,0.6,10.4c0.1-0.2,0.2-0.3,0.3-0.5c0.2,1,0.2,2,0.2,2.9c-0.1-0.3-0.2-0.5-0.2-0.8
		c0,0.7,0.1,1.3,0.1,2c0.1-0.4,0.1-0.8,0.2-1.1c0.3,1.2,0.6,1.5,0.5,3.2c0.4,0.9,1,1.7,1.2,2.1c2.6,0,4.1-0.2,5.8,0.1
		c-0.7,0.2,4.5,0.1,4.7,0.1c0.3,0.4-1.2,0.3-0.9,0.6c2.2-0.1,6.6-1,7-1.2c0,0.1,2.1-3.2,2.1-2.7c0.4-1.7-0.4-3.8-0.4-5.6
		c-0.1-1.9-0.5-7.6,0-10.5c0.9,0,1.2,0.1,0.8,0.4c0.3-0.1,1.1-0.2,1.4-0.2c-0.1-0.6-2.5-0.8,0.8-0.8c-0.9,0.2-0.3,0.4,0,0.8
		c0-0.2,1.1-0.5,1.2-0.6c-0.2,0,0,1.9,0,2.4c-0.2-0.1-0.4-0.3-0.5-0.5c0.1,0.4,0.2,0.8,0.3,1.3c0,0.4,0,0.9,0,1.3
		c-0.8-2.7-0.8,0.7-0.9,1.9c0.5,0.3,0.4,2.1,1,3.6c-0.7-1.7-1.5,3-0.9,3.3c0.9,2.6,0.5,6.8,1,9.7c-0.3-0.1-0.4-0.3-0.5-0.6
		c-0.7,3.2-0.4,4.2-0.1,6c-0.3-0.2-0.5-0.4-0.6-0.8c0,1,0.2,1.9,0.6,2.8c0-0.2,0.1-0.4,0.1-0.6c0,0.5-1.2-1-0.1-1.3
		c0,0.2,0.1,0.4,0.1,0.6c0.3-0.9,0.3-1.8,0.2-2.7c0.4,2.5,0.8,8.7,0.1,8.9c0-0.4,0-5-1.1-4.2c1.1,1.3,0,1.7,0.6,2.9
		c-1.1-0.5-1.9,0.4-2.9,0.3c0.4-0.1,0.7-0.2,1.1-0.3c-1.2-0.3-2.3,0.7-3.2,1.2C342.6,215.1,342.4,214.9,342,214.9z M292,208.4
		C292,208.1,292,208.4,292,208.4L292,208.4z M343.9,140.2c0.2,0.2,0.3,0.2,0.2,0.3C344,140.4,343.9,140.3,343.9,140.2z M348,197.7
		c0,0.3,0,0.7,0,1C347.5,198.3,347.5,198,348,197.7z M348,204.5c0,0.4,0,0.8,0,1.2C348,205.7,347.2,204.2,348,204.5z M347.7,206.4
		c-0.1-0.3-0.1-0.6-0.2-0.9C347.6,205.6,347.6,206,347.7,206.4z M360.6,248.5c0-0.2,0.4-3.4,0.5-3.2
		C360.9,246.4,360.7,247.5,360.6,248.5z M362.8,230.3c-0.4-0.9-0.3-1.9,0.2-2.7C363,228.5,362.9,229.4,362.8,230.3z M362.7,157
		c-2,2.5-3.1,4.1-3.6,5.7c0.3-0.3,0.6-0.4,0.2,0.2c-0.2,0.4-0.3,0.8-0.5,1.2c-0.2,1.6-0.1,3.4,0.1,6.4c-0.1-0.2-0.2-0.4-0.4-0.5
		c0.5,2,1,3.9,1.3,5.9c0.2-0.7,0.2-1.4,0.1-2.1c0.5,1.3,0.8,2.5,1,3.9c-0.7-2.7-0.2,1.5-0.2,2.1c0.5,3.3,1.4,5.1,1.6,8.6
		c-0.1,0.2-0.7-1.8-0.7-1.8c0.3,2.3,1.2,4.6,1.1,7c-0.2-1.2-0.4-2.4-0.6-3.6c-0.1,1.1-0.1,3.7,0,4.3c0,1.4,0,2.8,0.1,4.2
		c0-0.4,0-0.7,0.1-1.1c1.1,2.7,0.8,5.8,1.1,8.7c-0.1-0.1-0.2-0.2-0.3-0.2c-0.6,2.7-2,9.3-0.9,11.8c-0.1-0.2,0.3-0.9,0.4-1.2
		c0.5,4.8-0.7,9.9-0.8,14.7c-0.1,3.5,0.2,7.1-0.2,10.6c-0.1,0.2-0.3-1.5-0.3-1.6c-0.5,2.2-1,5.1-1.3,6.8c-0.1,1-0.6,6.8-0.7,2.2
		c-0.2,2.2-0.4,4.4-0.5,6.6c-0.1,0.2-0.2-2.4-0.2-2.2c-0.1,0.8-0.1,1.9-0.1,2.9c0.1-0.2,0.2-0.4,0.4-0.5c-0.1,0.5-0.1,1.1-0.2,1.6
		c1.7-2.3,1-6.9,1.5-9.7c0.3,1.8,0,11-1.5,12.6c-2.3,2.6-9.8,2.7-12.9,2.8c-0.3,0.2,1.1-1,1.9-1.3c-2.2,0.4-2.5-0.2-4.7-0.4
		c10.7-6.2,7.6-22.9,7.7-33c0-9.4-0.8-2.2,3.8-7.6c2.1-2.4,2-7,1.5-11.2c0,0,0,0,0,0c-0.2-4.3,0.6-11.6-0.3-16.3
		c0-4.6,1.4-12.4-0.2-17c0,0.1,0,0.2,0,0.3c0-0.4-0.3-1-0.7-1.5c-0.7,0.2-3.9-3-5.5-1.6c0.1-0.4-4.9-0.4-3-1.2
		c-0.4,0.1-1.6,0.4-1.6,0.2c0-0.5,0.4,0,0.4-0.5c0,0,0-0.1,0-0.1c-0.1,0.1-0.3,0.2-0.4,0.3c0.1-0.2,0.3-0.3,0.6-0.6
		c0.4-0.7,1.5-1.6,1.7-2.3c0.3-1.1,0.1-3.3,0.1-4.3c0.2,0.1,0.2,0.2,0.2,0.4c-0.1-5-0.7-9.9-0.5-14.9c0.3,0.7,0.7-4.7,0.6-5.6
		c-0.1,0.4-0.2,0.9-0.3,1.3c0-3.1-1.6-4.3-3-5.9c0.1,0,0.3,0,0.5,0.1c-1.3-0.5-0.4-0.9-0.2-1.3c-1,0.1-0.3-0.3-0.7,0.7
		c-0.1-0.6-0.6-0.9-0.6-1.4c0.2,0.5,5.5-0.4,5.6-0.4c3.5-1.9,9.1-4.2,8.8-9.8c0,0.8,0.7-4.2,0.9-5.4c0,0.3,0,0.6,0,1
		c0.8-3.8,1-7.7,2-11.4c0,0.9,0.1,1.8,0.2,2.6c0.1-0.6,0.1-1.4,0.3-2.1c2.4,2.7,3.3,6.8,4,10.2c-0.1-0.4-0.1-0.7-0.2-1.1
		c1.3,0.8,1.2,5,1.5,6.8c-0.1-0.2-0.2-0.2-0.4-0.2c0.8,4.8,2.1,9.5,3,14.3c-0.1-0.2-0.2-0.5-0.3-0.7
		C369,150.9,367.9,150.4,362.7,157z M355.1,202.3c0.3,0.1,0.4,3,0.5,5.2C355.4,205.5,355.2,203.6,355.1,202.3z M366.9,253.2
		C366.9,253.7,366.9,253.3,366.9,253.2L366.9,253.2z M382.5,236.9c-0.3-0.2-0.5-0.1-0.7,0.2c0.3,0,0.6,0,0.8,0.3
		c-0.2,0.2-0.4,1.2-0.7,0.6c1.1,2,0,8.1-0.3,9.4c-0.2-0.2-0.4-0.5-0.6-0.8c0.5,0.9-2.4,1-2.5,0.9c-0.4,0.3-0.4,0.7-0.1,1
		c0.1-0.1-5,2.1-4.6,2.5c0.9,0.7,0,1.2-0.3,1c-0.1,0.1,0.3-0.5,0.1-0.8c-0.5,0.6-1.1,1.1-1.8,1.4c-0.5-0.6,0.9-0.9,1.1-1.1
		c-0.2-0.1-0.3-0.1-0.3-0.2c-1.2,1.1-4.6,2.6-4.5,2c-0.2,0.4-0.4,0.7-0.8,0.9c0.1-0.2,0.2-0.3,0.3-0.4c-0.2,0.2-0.4,0.6-0.5,0.6
		c0.2-0.3,0.3-0.6,0.5-0.8c0.9-0.7,0.2-9.3,1.3-10.6c-0.2-0.7-0.3-1.3-0.2-2c0.7-2.5,1.7-7.3,1.9-10.2c0.1-1.1-0.4-2.5-0.4-2.5
		c-0.3-1.5,0.7-2,0.4-3.8c1.1,0.3,0,0.1,0.1-0.6c0.2-2.5,0.6-3.6,0.6-6.7c-0.3,0.9-0.3-0.1-0.3-0.2c-0.2,0.1-0.4,0-0.6-0.1
		c0.2-0.5,0.4-0.5,0.7,0c0.5-1.9,0.5-13.2-0.8-14.2c-0.3-1.4,0.8-4.8,0.4-6.5c-0.7-3.2-1-8.7-0.8-11.9c0.7-0.2-2.7-10.3-2.3-11.9
		c0.2,0.1,0.4,0.2,0.6,0.3c-0.9-2.2-1.1-4.6-1.9-6.8c0.4,0.1,0.5-0.1,0.1-0.4c0.3-0.2,1.4-0.7,1.2-1.2c1.1,0.7,6.9,0.4,7.8-0.1
		c-0.3,0,2.6,4.4,2.9,4.8c-0.7,0.2-0.9-1.7-1.5-1.3c1,1,1.8,2.2,2.5,3.5c-0.2-0.7,1.6,3.9,1.7,4c-0.3-0.3,1.5,0.3,1.6,0.3
		c-0.8-0.2-0.3,0.4-0.8,0.4c0.1,0.1,0.2,0.3,0.5,0.9c-1.5-0.9-0.2-0.1,0.1,0.2c-3.1-2.4-3.8,3.4-3.9,4.1c-0.1-0.2-0.2-0.4-0.3-0.6
		c0,0.4,0.1,0.9,0.2,1.4c0.1-0.3,0.1-0.5,0.2-0.8c0.9,1.8,0.9,5.6,0.7,6.5c-0.2-0.5,0.2,3,0.1,3.1c-0.2-0.2-0.4-0.3-0.7-0.5
		c0.4,1.5,0.7,3.1,0.9,4.6c0.2,2.6,0.4,9.3,0.6,12.6c0.1,0.5,0.2,1,0.3,1.5c0.4-0.9,0.7-0.7,0.9,0.4c-0.4-0.3-0.6-0.2-0.7,0.4
		c0.5-0.3,0.9,2,0.9,2.3c-0.2-0.1-0.4-0.2-0.6-0.4c0.4,0.5,0.5,1.1,0.5,1.7c-0.8-1.5-0.6,0.3-0.8,1.3c0.2,0.2,0.7,1.6,1.2,2.2
		c-1.4-1.8-1,2.4-1.2,2.3c0.2,0.8,1.5,4.3,2,6c-0.3,0.1-0.5,0-0.6-0.3c-0.2,0.7,0.4,3.4-0.5,2.3c0.6,1.8,0.9,2,0.1,1.1
		c0.1,0.7,0.3,1.3,0.8,1.8c-0.1-0.6,0.1-1.4,0-0.9c0.3-0.8,0.2-1.6-0.3-2.4c0.2,0.1,0.4,0.2,0.6,0.3c0.1,2.1,0.3,4.1,0.4,6.2
		c-1-0.1-0.4-0.1-1.2-0.5c-0.1,0.9-0.5,1.8-0.4,2.6c0-0.2,0-0.5-0.1-0.7C381.5,235.5,382.2,236.3,382.5,236.9z M382.7,220.5
		C382.8,220.8,382.7,220.7,382.7,220.5L382.7,220.5z M382.6,218.6C382.6,218.5,382.6,218.4,382.6,218.6L382.6,218.6z M381.6,205.6
		C381.7,206.8,380.7,205.3,381.6,205.6L381.6,205.6z M388.7,217.4c-0.2-0.3-0.1,2-0.1,2.4c0-0.2-0.1-1.2-0.3-3.7
		C388.4,216.5,388.6,217,388.7,217.4z M387,199.5c0.2,0.7,0.3,1.4,0.5,2.1C387,203,386.8,202.4,387,199.5z"/>
	<path class="st3" d="M299.7,213.3c0.1-0.1,0.2-0.1,0.3-0.2C299.9,213.1,299.8,213.2,299.7,213.3z"/>
	<path class="st3" d="M301.8,204c0,0-0.1,0-0.1,0C301.6,204.2,301.7,204.1,301.8,204z"/>
	<path class="st3" d="M307.6,38.5C307.3,38.9,307.6,38.7,307.6,38.5L307.6,38.5z"/>
	<path class="st3" d="M310.6,44C310.3,44,310.3,44.4,310.6,44L310.6,44z"/>
	<path class="st3" d="M381.7,175.9c0.1,0,0.1,0,0.2,0C381.9,175.9,381.8,175.9,381.7,175.9z"/>
	<path class="st3" d="M211.1,250.2c-0.4-0.8-0.7-1.6-0.9-2.4C210.4,249,210.7,250,211.1,250.2z"/>
	<path class="st3" d="M389.8,171.9c0.1,0.2,0.3,0.4,0.4,0.6C390.1,172.1,390,171.9,389.8,171.9z"/>
	<path class="st3" d="M209.2,243.4c0.2,1.4,0.5,2.9,1,4.4C209.7,245.8,209.4,243.3,209.2,243.4z"/>
	<path class="st3" d="M364.6,264.3c0.2-0.1,0.5-0.3,0.7-0.4C365,264,364.8,264.1,364.6,264.3C364.5,264.3,364.5,264.3,364.6,264.3z"
		/>
	<path class="st3" d="M381.7,175.9c-0.1,0-0.2-0.1-0.3-0.1C381.6,175.9,381.7,175.9,381.7,175.9z"/>
	<path class="st3" d="M271.3,50.8c-0.1-0.1-0.3-0.1-0.4-0.1C271,50.8,271.2,50.8,271.3,50.8z"/>
	<path class="st3" d="M269.7,50.5c0.3,0,0.5,0,0.7,0C270.1,50.4,269.9,50.4,269.7,50.5z"/>
	<path class="st3" d="M353.4,113.2c0,0,0-0.1,0-0.1C353.3,113,353.3,113.1,353.4,113.2z"/>
	<path class="st3" d="M355.4,176.5c-0.1-0.5-0.3-1-0.6-1.5C355,175.4,355.3,175.9,355.4,176.5z"/>
	<path class="st3" d="M344.6,130.9C344.7,130.8,344.8,130.7,344.6,130.9L344.6,130.9z"/>
	<path class="st3" d="M337.9,152.5c0,0-0.1,0-0.1-0.1C337.6,152.6,337.7,152.6,337.9,152.5z"/>
	<path class="st3" d="M353.5,173.6c0,0.1,0.7,0.9,1.3,1.7c0,0,0,0,0,0C354.8,174.5,354.3,173.9,353.5,173.6z"/>
	<path class="st3" d="M345.5,171.7c-0.1,0.1-0.1,0.1-0.2,0.2c-0.1,0.1-0.1,0.2-0.2,0.3C345.4,172,345.6,171.8,345.5,171.7z"/>
	<path class="st3" d="M346.4,172.5c-0.1,0-0.1,0-0.1,0.1C346.4,172.5,346.5,172.5,346.4,172.5z"/>
	<path class="st3" d="M271.5,59.7C271.5,59.6,271.4,59.6,271.5,59.7c-0.1,0-0.1,0-0.2,0C271.4,59.6,271.4,59.6,271.5,59.7z"/>
	<path class="st3" d="M358.3,258.6c-0.1,0.6-0.2,1.2-0.5,1.7C358.3,260.2,358.3,259.5,358.3,258.6z"/>
	<path class="st3" d="M270.5,59.8c-0.1,0-0.3,0.1-0.4,0.1C270.4,59.9,270.5,59.9,270.5,59.8z"/>
	<path class="st3" d="M270.5,59.8c0.2,0,0.5-0.1,0.9-0.1c-0.4-0.1-0.7-0.1-1.1-0.2C270.4,59.6,270.4,59.7,270.5,59.8z"/>
	<path class="st3" d="M239.8,66.1c0,0-0.1,0-0.1,0C239.6,66.2,239.6,66.3,239.8,66.1z"/>
	<path class="st3" d="M358.3,258.6c0.1-0.7,0.2-1.4,0.2-2.2C358.2,257,358.3,257.8,358.3,258.6z"/>
	<path class="st3" d="M358.6,164.3c0.1-0.1,0.1-0.3,0.2-0.4c0.1-0.5,0.2-0.9,0.3-1.3C358.6,163,358.1,163.8,358.6,164.3z"/>
	<path class="st3" d="M299.5,213.4C299.5,213.4,299.5,213.4,299.5,213.4c0,0,0.1-0.1,0.1-0.1c0,0,0,0,0.1-0.1
		C299.6,213.3,299.6,213.3,299.5,213.4z"/>
	<path class="st3" d="M270.1,176.2c0,0-0.1,0-0.1-0.1C269.8,176.3,269.9,176.3,270.1,176.2z"/>
	<path class="st3" d="M266.5,172.3c0.1,0.1,0.1,0.2,0.2,0.2C266.7,172.4,266.6,172.4,266.5,172.3z"/>
	<path class="st3" d="M266.7,178.3C266.7,178.3,266.7,178.3,266.7,178.3C266.7,178.3,266.7,178.3,266.7,178.3z"/>
	<path class="st3" d="M299.9,213.1c-0.1,0-0.1,0.1-0.2,0.1c0,0,0,0,0,0C299.8,213.2,299.8,213.2,299.9,213.1z"/>
	<path class="st3" d="M267.8,191.3c0-0.1,0-0.1,0.1-0.2C267.8,191.3,267.8,191.3,267.8,191.3z"/>
	<path class="st3" d="M299.7,213.2C299.7,213.2,299.7,213.2,299.7,213.2C299.7,213.2,299.7,213.2,299.7,213.2
		C299.7,213.2,299.7,213.2,299.7,213.2z"/>
	<path class="st3" d="M264.8,160.2c0,0,0.1,0,0.1,0.1C265.1,160.2,265,160.2,264.8,160.2z"/>
	<path class="st3" d="M300.6,214c-0.1,0.3-0.1,0.5,0,0.8c0-0.1,0.1-0.1,0.1-0.2C300.7,214.5,300.6,214.3,300.6,214
		C300.6,214.7,300.6,214.7,300.6,214z"/>
	<path class="st3" d="M273.2,149.5c0,0.1,0,0.1-0.1,0.2C273.2,149.6,273.2,149.5,273.2,149.5z"/>
	<path class="st3" d="M300.7,214.7C300.7,214.7,300.7,214.7,300.7,214.7c0,0,0-0.1,0-0.1c0,0,0,0,0,0
		C300.7,214.7,300.7,214.7,300.7,214.7z"/>
	<path class="st3" d="M301.6,213.4c0.1,0.1,0.1,0.1,0.2,0.1C301.9,213.5,301.9,213.4,301.6,213.4z"/>
	<path class="st3" d="M295,203.6c0-0.1,0-0.1,0-0.2C294.8,203.4,294.9,203.5,295,203.6z"/>
	<path class="st3" d="M300.3,213.6C300.3,213.6,300.3,213.6,300.3,213.6C300.3,213.5,300.3,213.5,300.3,213.6
		C300.3,213.5,300.3,213.6,300.3,213.6z"/>
	<path class="st3" d="M300.3,213.2c0,0.1,0,0.2,0,0.3c0,0,0,0,0,0C300.3,213.4,300.3,213.3,300.3,213.2z"/>
	<path class="st3" d="M245.5,181.8c0-0.2,0-0.4,0-0.7C245.4,181.3,245.4,181.5,245.5,181.8z"/>
	<path class="st3" d="M220.5,218.5c-0.2-0.2-0.4-0.3-0.6-0.3C220,218.4,220.2,218.5,220.5,218.5z"/>
	<path class="st3" d="M220.7,208.3c0,0.1,0,0.2,0,0.3C220.7,208.4,220.7,208.3,220.7,208.3z"/>
	<path class="st3" d="M230.4,227.9C230.3,227.9,230.3,227.8,230.4,227.9C230.2,227.8,230.1,227.8,230.4,227.9z"/>
	<path class="st3" d="M245.7,260.1c-0.1,0-0.3,0-0.4-0.1C245.4,260.1,245.5,260.1,245.7,260.1z"/>
	<path class="st3" d="M270.1,100.4C270.1,100.4,270.1,100.4,270.1,100.4C270.1,100.4,270.1,100.4,270.1,100.4c0.1,0,0.1,0,0.2-0.1
		c-0.1,0-0.2,0-0.3,0.1C269.9,100.4,270,100.4,270.1,100.4z"/>
	<path class="st3" d="M295.8,254.6C295.8,254.6,295.8,254.6,295.8,254.6C295.9,254.4,295.9,254.4,295.8,254.6z"/>
	<path class="st3" d="M273.3,227.6c0.2-0.2,0.3-0.3,0.3-0.5C273.5,227.2,273.3,227.3,273.3,227.6z"/>
	<path class="st3" d="M284.3,228c-0.1,0-0.2,0-0.3,0C284.2,228.1,284.3,228.1,284.3,228z"/>
	<path class="st3" d="M277.1,228c0,0,0-0.1-0.1-0.1C276.9,228.1,276.8,228.2,277.1,228z"/>
	<path class="st3" d="M300.3,213.5C300.3,213.5,300.3,213.5,300.3,213.5C300.3,213.5,300.3,213.5,300.3,213.5c0,0,0-0.1,0-0.1
		C300.3,213.4,300.3,213.4,300.3,213.5z"/>
	<path class="st3" d="M283.3,144.3c0-0.3-0.3-0.7-0.6-1.1C282.8,143.7,283,144.3,283.3,144.3z"/>
	<path class="st3" d="M319.7,151.9c-0.1-0.1-0.3-0.2-0.6-0.2C319.3,151.8,319.5,151.9,319.7,151.9z"/>
	<path class="st3" d="M322.8,109.3c-0.1-0.1-0.3-0.2-0.5-0.2C322.4,109.2,322.6,109.3,322.8,109.3z"/>
	<path class="st3" d="M322.8,130.3C322.3,130,322.7,130.4,322.8,130.3L322.8,130.3z"/>
	<path class="st3" d="M282.1,142.3c0.2,0.3,0.4,0.6,0.6,0.8C282.6,142.6,282.4,142.2,282.1,142.3z"/>
	<path class="st3" d="M254.4,214.2C254.7,214.2,254.4,213.8,254.4,214.2L254.4,214.2z"/>
	<path class="st3" d="M339.8,147.9c-0.1,0-0.2,0-0.3,0C339.5,148.2,339.6,148.2,339.8,147.9z"/>
	<path class="st3" d="M292.4,218C291.9,218.2,292.2,218.5,292.4,218L292.4,218z"/>
	<path class="st3" d="M339.8,148.5C339.8,148.5,339.8,148.5,339.8,148.5C339.8,148.5,339.8,148.4,339.8,148.5z"/>
	<path class="st3" d="M339.5,147.8c0,0,0,0.1,0,0.1c0,0,0,0,0,0C339.5,147.8,339.5,147.8,339.5,147.8z"/>
	<polygon class="st3" points="300.7,212.3 300.7,212.3 300.7,212.3 	"/>
	<path class="st3" d="M299.6,212.4c0.1,0,0.2,0.1,0.4,0.2C300,212.5,299.8,212.4,299.6,212.4z"/>
	<path class="st3" d="M300.8,212.3C300.8,212.3,300.8,212.3,300.8,212.3C300.8,212.3,300.7,212.3,300.8,212.3
		C300.7,212.3,300.7,212.3,300.8,212.3C300.7,212.3,300.8,212.3,300.8,212.3z"/>
	<path class="st3" d="M300.7,212.3c0,0-0.1,0.1-0.2,0.2C300.8,212.2,300.6,212.7,300.7,212.3z"/>
	<path class="st3" d="M300.9,212.2C300.9,212.2,300.9,212.2,300.9,212.2C300.9,212.3,300.9,212.3,300.9,212.2
		C300.9,212.3,300.9,212.3,300.9,212.2C300.9,212.3,300.9,212.2,300.9,212.2z"/>
	<path class="st3" d="M298.9,119c0,0,0.1,0,0.1,0C299.1,118.8,299,118.9,298.9,119z"/>
	<path class="st3" d="M290.5,110.2c0.4,0.7,0.5,0.2,0.6,0.8c0.1-0.1,0.9-0.2,0.8,0c0.2,0.1-0.8,0.7-0.8,0.7c0.2,0.2,0.5,0.3,0.7,0.4
		c-1.4-0.1,0.7,0-0.5,0.2c0.2,0,0.3,0,0.4,0.1c0.6,0.3-0.1,0.6-0.5,0.8c1,1.6,1.8,2.9,2.7,3.8c0,0,0.3-0.1,0.6-0.2
		c0,0.2,0.8,0.3,1,0.2c-0.1,0.1-0.2,0.2-0.4,0.3c0.2-0.2,0.4-0.2,0.6,0c-0.5,0.3-0.3,0.4-0.2,0.9c0.1-0.1,1.1-0.6,1-0.6
		c-0.5,0.5-0.1,0.7-0.5,1.1c0.2-0.2,0.7-0.1,0.4,0.4c0.5-0.1,1.2-0.4,1.9-0.9c0,0.2,0.3,0.8,0.3,0.9c0,0,0.2-0.2,0.3-0.3
		c-0.1,0-0.1,0-0.2-0.1c0.3-0.1,0.4-0.2,0.6-0.3c0.3,0.4,0.7,0.9,1.3,1.7c0.1,0,0.1,0,0.2,0c0.1,0,0.2,0,0.3,0.2
		c0.1-1.2,0.1-0.1,0.3,0c0.2-0.9,0.3-0.3,1.3-0.8c0.1,0.3,0.4,0.6,0.6,0.8c-0.1-2,1.2,0.7,0.9-1.7c0.2,0.4,0.4,0.7,0.5,1.1
		c0-0.3-0.1-0.6-0.1-0.9c0.2,0.1,0.4,0.3,0.5,0.5c-0.1-0.2-0.1-0.4,0-0.6c0.1,0.1,0.4,0.4,0.6,0.6c0-0.2-0.1-0.5-0.3-0.7
		c0.3,0,0.5,0.2,0.6,0.5c0.5-1.2,0-1.1,0.1-2.2c0,0,0.3,0.5,0.5,0.6c-0.1-0.3,0-0.5,0.1-0.7c0.6,0.6-0.3,0.5,0.5,1.2
		c0.8-0.3,0.2-0.8,0-1.1c0-0.5,1.1,0.4,0.9-0.1c-0.4-0.2-0.5-0.4-0.3-0.7c0.1,0.1,0.3,0.3,0.4,0.4c-0.1-0.2-0.2-0.5,0-0.7
		c0.2,0.2,2.1-2.1,1.5-2.7c0-1.1,0.9-4.2,0-5c0.1-0.1,0.1-0.2,0.1-0.2c0,0,0.1,0,0.4-0.2c-0.1-0.2-0.3-0.1-0.4,0
		c0-0.2-0.1-0.8-0.2-1c1.1-0.4-1-1.5-1.3-1.6c1.2-0.3-0.1,0-0.1,0c0,0,0.5-3.5-1.9-2.1c0.6-0.8-0.3-1-0.8-0.6
		c-0.1-0.3-1.8-1.1-2-1.2c-1.3-1-6-0.2-6.2-0.4c-2.3,0.6-4.9,1.8-5.5,5.2c-0.1-0.3-0.3-0.6-0.4-0.8c0,0.4-0.4,1.8-0.4,2.4
		c0.1,0.1,0.5,0.3,1,0.7c-0.5,0-0.9-0.1-1.3-0.1c0.5,0.2,0.5,0.3,0,0.1c0,0,0.9,1.6,0.6,1.9C291,110,290.7,110,290.5,110.2z
		 M300.3,119.4c-0.2-0.2-0.4-0.5-0.7-0.8c0.2,0,0.4,0,0.8,0C300.4,118.5,300.3,119.1,300.3,119.4z M298.3,107.9
		c0.8,1.4-0.2-0.1,1.7,1.4c-0.4-1.7-0.2-2.3,0.5-2.3c0,0,0,0,0,0c0,0,0,0,0,0c0,0,0,0,0,0c0,0.1,0,0.1,0,0.2
		c0.1,1.6,0.2,2.2,0.3,2.4c0.5-1.3,0.8-0.6-0.3,1c0.5-0.8,1.1-1.5,1.9-2.1c-1.1,1.1-1.5,2.2,0,2.4c-0.7,0-2.1,0.3-2.2,0.9
		C300.2,111.9,295.5,110.5,298.3,107.9z"/>
	<path class="st3" d="M300.9,109.7C300.9,109.6,300.9,109.6,300.9,109.7c-0.1,0.2-0.2,0.4-0.2,0.7
		C300.7,110.1,300.8,109.8,300.9,109.7z"/>
	<path class="st3" d="M300.5,107.2c0-0.1,0-0.1,0-0.2c0,0,0,0,0,0C300.5,107.4,300.5,107.5,300.5,107.2z"/>
	<path class="st3" d="M291,107.6c0,0,0-0.1,0-0.2C290.9,107.3,290.9,107.4,291,107.6z"/>
	<path class="st3" d="M305.8,119.4c0,0.1,0,0.1,0,0.2C305.9,119.6,305.9,119.5,305.8,119.4z"/>
	<path class="st3" d="M299.6,119.1c-0.2,0-0.2,0-0.6,0c-0.1,0.1-0.1,0.3-0.3,0.5C299.2,119.3,299.4,119.8,299.6,119.1z"/>
	<path class="st3" d="M291,111C291,111,291,111,291,111C291,111,291,111,291,111z"/>
	<path class="st3" d="M300.9,109.7C301.1,109.9,301.3,108.6,300.9,109.7L300.9,109.7z"/>
</g>
</svg>
