<?xml version="1.0" encoding="utf-8"?>
<!-- Generator: Adobe Illustrator 21.0.0, SVG Export Plug-In . SVG Version: 6.00 Build 0)  -->
<svg version="1.1" id="Layer_1" xmlns="http://www.w3.org/2000/svg" xmlns:xlink="http://www.w3.org/1999/xlink" x="0px" y="0px"
	 viewBox="0 0 300 300" style="enable-background:new 0 0 300 300;" xml:space="preserve">
<style type="text/css">
	.st0{fill:#B5AED3;}
	.st1{fill:#BEB8D9;}
	.st2{opacity:0.5;fill:#B5AED3;enable-background:new    ;}
</style>
<path class="st0" d="M242.6,89.6c-23.7-6.7-50.5-3.5-77.9-2c4.5-6.2,10.5-14.1,17.5-23c-6,1.1-11,2-13.6,2.6l-1.9,0.7
	c-0.2-0.1,0.5-0.3,1.9-0.7l15.9-5.5c5-6.2,10.5-12.8,16.4-19.6c-1.9-1-3.5-1.8-4.6-2.3l-1.9-0.7c-0.1-0.2,0.6,0.1,1.9,0.7l5,1.8
	c2.3-2.6,4.6-5.3,7-7.9c-8.3-2.6-15.3-4.7-17.4-5.2l-0.8-0.1c-0.1-0.1,0.2-0.1,0.8,0.1l20.9,1.4c5-5.4,10.2-10.9,15.5-16.1
	c-18.2,2.3-51.9,9.7-57.1,16.5c-9.3,12.3-14.4,24.7-15.9,41.4c-3.6-15.7-7.3-30.8-15.7-42.7c-5.5-7.9-22.2-10-35.8-13.7
	c0.2,1.4,0.3,2.8,0.5,4.2l21.8,25c0.6,0.5,0.8,0.7,0.6,0.7l-0.6-0.7c-2.3-2-10.5-7.8-19.4-14.1c1.1,3.8,2.5,7.5,4,10.9L135.2,57
	c1.4,0.6,2.1,1.1,1.8,1.1l-1.8-1.1c-3.8-1.8-12.9-5.5-22.4-9.3c9.9,18.7,24.9,31.8,35.2,39.2c0,0.8-0.1,1.7-0.1,2.5
	c-28.4-1.4-56.2-5.2-80.7,1.8c-12.8,3.6-27.6,42.2-33.8,54.3c8.8,1.5,15.9,1.6,21.9,0.7l8-36.8c0-0.7,0.1-1,0.2-0.9l-0.2,0.9
	c-0.3,4,0.1,20.6,0.6,34.6c2.2-0.7,4.1-1.7,5.8-2.8l-1.4-22.9c-0.3-1.5-0.3-2.4-0.1-2.2l0.1,2.2c0.6,3.8,2.4,12,4.5,20.8
	c7.1-5.4,11.3-12.5,15.7-17.9l3.8-21.1c0.1-1.6,0.2-2.4,0.4-2.1l-0.4,2.1c-0.2,3.3-0.4,9.9-0.5,17.5c1.6-1.4,3.2-2.6,5.1-3.3
	c16.6-6.7,31-12.2,41.9-16.2c-15,12.8-30.4,24.6-38.6,40.1c-1.6,3.1-1.8,7.3-1.2,11.9l11.9-8.3c0.5-0.5,0.8-0.7,0.8-0.6l-0.8,0.6
	c-1.7,1.6-6.1,6.4-11.3,12.2c1.4,7,3.9,14.9,5.5,22.2c4.4-2.3,8.4-4.9,12-7.7c0.3-11.4,0.5-22.4,0.2-25.7l-0.2-1
	c0.1-0.2,0.2,0.2,0.2,1l4.8,21.6c4.7-4.3,8.6-8.9,11.8-13.7c-2.4-6.5-4.3-11.9-5.3-14l-0.6-0.9c0-0.2,0.2,0.2,0.6,0.9l7.2,11
	c1.1-1.8,2.1-3.6,3-5.4c-0.5-9.7-0.9-18.4-1.3-21.4l-0.3-1c0.1-0.2,0.2,0.2,0.3,1l4.4,14.7c0.6-1.6,1.2-3.2,1.8-4.8
	c-8.2,54.2-27,112.6-52.9,161.2h22.9c28.4-55,41.3-113,45.9-176.6c1.1,5.1,2.6,10.6,4.8,16.2l4.4-14.7c0.1-0.8,0.2-1.2,0.3-1l-0.3,1
	c-0.4,2.9-0.9,11.6-1.3,21.4c0.9,1.9,1.9,3.6,3,5.4l7.2-11c0.3-0.7,0.5-1.1,0.6-0.9l-0.6,0.9c-0.9,2.1-2.9,7.5-5.3,14
	c3.2,4.8,7.1,9.4,11.8,13.7l4.8-21.6c0.1-0.8,0.1-1.2,0.2-1l-0.2,1c-0.2,3.4-0.1,14.4,0.2,25.7c3.6,2.8,7.6,5.4,12,7.7
	c1.6-7.3,4.1-15.2,5.5-22.2c-5.2-5.8-9.6-10.6-11.3-12.2l-0.8-0.6c0-0.2,0.3,0,0.8,0.6l11.9,8.3c0.6-4.6,0.4-8.8-1.2-11.9
	c-7.7-14.8-22.1-26.1-36.4-38.2c11.1,4.1,26,9.8,43.3,16.7c1.9,0.7,3.6,1.9,5.1,3.3c-0.1-7.6-0.3-14.2-0.5-17.5l-0.4-2.1
	c0.1-0.2,0.3,0.6,0.4,2.1l3.8,21.1c4.4,5.4,8.6,12.6,15.7,17.9c2.1-8.9,3.9-17.1,4.5-20.8l0.1-2.2c0.2-0.2,0.1,0.7-0.1,2.2
	l-1.4,22.9c1.7,1,3.6,2,5.8,2.8c0.4-14.1,0.8-30.7,0.6-34.6l-0.2-0.9c0.1-0.1,0.2,0.2,0.2,0.9l8,36.8c5.9,0.9,13.1,0.8,21.9-0.7
	C270.2,131.8,255.4,93.2,242.6,89.6z"/>
<path class="st1" d="M267.1,137c-0.6-1.1-1.1-2.2-1.6-3.3c-0.7-1.5-1.4-2.9-2-4.4c-2-4.4-4.1-8.7-6.3-13c-1.2-2.4-2.4-4.7-3.7-6.9
	c-0.2-0.4-0.3-0.8-0.5-1.4c-0.1-0.4-0.3-1-0.5-1.6c-0.1-0.3-0.2-0.7-0.3-1.1c-0.1-0.2-0.1-0.4-0.2-0.6c0-0.1,0-0.1,0-0.1l0,0l0,0
	l0,0c0,0,0,0,0-0.1c0-0.2,0-0.4-0.1-0.8l-0.1-0.4c0-0.1-0.1-0.5-0.2-0.8c-0.1-0.3-0.2-0.6-0.3-0.8c-0.1-0.3-0.3-0.6-0.5-0.9
	c-0.1-0.2-0.2-0.3-0.3-0.4l-0.1-0.2l-0.2-0.3c-0.2-0.2-0.3-0.4-0.5-0.6c-0.4-0.4-0.8-0.7-1.2-0.9l-0.3-0.2l-0.2-0.1l-0.3-0.2
	c-0.5-0.2-1-0.4-1.5-0.5c-0.2,0-0.3-0.1-0.5-0.1c-1-1.2-2.1-2.3-3.2-3.2c1.1,1,1.9,2.1,2.7,3.1c-0.8-0.1-1.5,0-2.2,0.1
	c-0.2,0-0.3,0.1-0.5,0.1c-0.2-0.2-0.4-0.4-0.6-0.5c-0.4-0.3-0.7-0.6-1-0.8c-0.6-0.3-0.9-0.6-1-0.5c0.7,0.5,1.4,1.2,2.1,2
	c0,0,0,0-0.1,0c-0.1,0-0.3,0.1-0.4,0.2c-0.1-0.1-0.2-0.2-0.3-0.3c-0.2-0.2-0.4-0.4-0.6-0.5c-0.4-0.3-0.6-0.4-0.7-0.4
	c0.4,0.3,0.9,0.8,1.4,1.3c-0.1,0-0.2,0.1-0.3,0.1c0,0-0.1,0-0.1,0.1c0,0,0-0.1-0.1-0.1c-0.3-0.3-0.6-0.6-0.9-0.9l-0.4-0.3l-0.2-0.2
	l-0.2-0.1c-0.1-0.1-0.2-0.1-0.3-0.2c-0.1,0-0.1-0.1-0.2-0.1l-0.1-0.1c0,0,0,0,0,0c0,0,0,0,0,0c0,0,0,0,0,0c0,0.1,0,0.1,0,0.1l0,0
	c0,0,0,0,0,0c0,0,0,0.1,0.1,0.1c0.1,0.1,0.1,0.1,0.2,0.1c0.1,0.1,0.2,0.2,0.3,0.3c0.4,0.3,1,0.8,1.6,1.5c-0.4,0.3-0.8,0.5-1.2,0.9
	l-0.2,0.2l-0.1,0.1l-0.2,0.2c-0.3,0.3-0.6,0.7-0.8,1.1l-1.9,2.9l0.2,0.7l2.1-3.4c0.2-0.3,0.4-0.6,0.7-0.9c0.3-0.3,0.2-0.4,1.3-1.2
	c0.2-0.1,0.3-0.2,0.5-0.3c0.4,0.4,0.8,0.9,1.3,1.5c-0.3,0.1-0.5,0.3-0.8,0.4c-0.2,0.1-0.3,0.2-0.4,0.3l-0.2,0.2
	c-0.1,0.1-0.2,0.2-0.3,0.3c-0.2,0.2-0.3,0.4-0.5,0.6l-1.2,1.9l0.5,1.9c0,0.1,0.1,0.2,0.1,0.3c-0.3,0-0.6,0-0.9,0.1
	c-0.2,0-0.3,0.1-0.5,0.1l-0.2,0.1c-0.1,0-0.2,0.1-0.3,0.1c0-0.2,0-0.3,0-0.3l-0.8-0.7l0.3,0.8c0,0.1,0.1,0.2,0.1,0.2
	c0,0.1,0,0.1,0,0.2c0,0,0,0,0,0c-0.5,0.2-1,0.6-1.4,0.9l-1.8,1.6l-0.2,2.6c0,0.4-0.1,0.7-0.1,1.1c0,0.2,0,0.4,0,0.5l0,0.2
	c0-0.1,0-0.1,0-0.2c0-0.2,0-0.3,0.1-0.5c0-0.4,0.1-0.7,0.1-1.1l0.3-2.6l1.8-1.6c0.4-0.3,0.8-0.6,1.2-0.8c0.1,0,0.1,0,0.2-0.1
	c0,0.2,0,0.3,0,0.5c-0.4,0.2-0.8,0.5-1.1,0.7l-1.7,1.5l-0.2,2.3c0,0.5-0.1,1-0.1,1.4c0,0.5,0,0.3-0.1,0.8c-0.2,0.9-0.4,1.8-0.6,2.8
	c-0.2,0.8-0.4,1.5-0.6,2.1c-0.4,1.3-0.7,2.2-0.9,2.6c-0.1,0.1-0.1,0.2-0.1,0.2c0,0,0,0-0.1-0.1c0,0-0.1-0.1-0.1-0.1
	c-0.1-0.2,0-0.1,0-0.6l0,0.2l-0.2-0.1c-0.1-0.1-0.2-0.2-0.3-0.2c-0.2-0.2-0.4-0.3-0.6-0.5c-0.4-0.4-0.7-0.7-1.1-1.1
	c-0.3-0.4-0.7-0.8-1-1.3L227,116l-0.9-1.1l-0.3-0.3c-0.1-0.1-0.1-0.2-0.1-0.4l-0.1-0.6l-0.5-2.9l-1.1-5.8L223,99l-0.5-2.9l-0.1-0.4
	l0-0.5c0-0.3-0.1-0.6-0.1-1c0-0.2-0.1-0.4-0.2-0.9l-0.1-0.4l-0.1-0.3l0-0.2l-0.1-0.3l-0.1-0.3l-0.1-0.1l-0.1-0.2
	c-0.1-0.2-0.3-0.5-0.4-0.7c-0.1-0.1-0.2-0.2-0.2-0.3c-0.1-0.2,0-0.1-0.4-0.5c-0.6-0.7-1.5-1.2-2.4-1.6c-0.4-0.1-1-0.3-1.8-0.4
	c-0.8,0-1.6,0.1-2.4,0.3c-0.7,0.2-1.6,0.7-1.6,0.8c-0.2,0.2-0.4,0.3-0.7,0.5c-0.4,0.4-0.8,0.8-1.1,1.2L209,93l0.5,2.5l0.3,1.7l0,0.9
	c-0.1,0-0.1-0.1-0.2-0.4c0,0,0-0.2,0-0.4c0-0.2,0-0.1,0-0.2c-0.1-0.5-0.2-1-0.3-1.5l-0.5-2.6l1.5-2.2c0.3-0.5,0.8-1,1.3-1.4
	c0.1-0.1,0.2-0.2,0.4-0.3l0.2-0.1l0.3-0.2c0.7-0.4,1.6-0.7,2.5-0.9c0.9-0.1,1.9,0,2.6,0.2c0.5,0.1,1,0.3,1.5,0.6
	c0.5,0.3,1,0.6,1.3,1l0.3,0.3l0.2,0.2l0.2,0.2c0.2,0.3,0.4,0.5,0.5,0.8c0.1,0.1,0.2,0.3,0.2,0.4l0.1,0.2c0.1,0.2,0.2,0.4,0.3,0.7
	c0.1,0.2,0.1,0.5,0.2,0.6l0.1,0.4c0.1,0.4,0.1,0.6,0.1,0.9c0.1,0.4,0.1,0.8,0.1,1.1l0,0.2c0,0,0,0.1,0,0.1c0,0.3,0.1,0.5,0.1,0.8
	c0.2,1.1,0.4,2.1,0.5,2.8l-0.6-3.1l-0.1-0.5c0-0.1,0,0,0-0.4c0-0.3-0.1-0.6-0.1-1.1c0-0.2-0.1-0.5-0.1-0.9l-0.1-0.4l-0.1-0.3l0-0.2
	l-0.1-0.2c-0.1-0.2-0.2-0.4-0.3-0.6l-0.2-0.3c-0.1-0.1-0.1-0.3-0.2-0.4c-0.2-0.3-0.3-0.5-0.5-0.7l-0.1-0.1l-0.3-0.3
	c-0.2-0.2-0.4-0.4-0.6-0.5c-0.4-0.3-0.9-0.6-1.4-0.9c-0.2-0.1-0.5-0.2-0.7-0.3l-0.4-0.1c-0.1,0-0.4-0.1-0.5-0.1
	c-0.8-0.1-1.7-0.1-2.6,0.1c-0.4,0.1-0.8,0.2-1.2,0.4c-0.2,0.1-0.4,0.2-0.5,0.3c-0.2,0.1-0.4,0.2-0.4,0.2c-0.2,0.2-0.5,0.3-0.7,0.5
	c-0.5,0.4-0.9,0.9-1.2,1.4l-1.5,2.2l0.5,2.6l0.2,1.4l0,0.3l0,0.4l0,0.9l0,1.8l0,1.8l0,0.4l0,0.2c0,0,0,0.1,0,0.1l-0.1-0.1
	c-0.2-0.2-0.4-0.3-0.6-0.4c0,0,0,0,0,0c-0.6-0.5-0.5-0.5-0.2-0.4c0.1,0,0.3,0.1,0.4,0.3l0,0c0,0,0,0,0-0.1l0-0.1l0-0.3l-0.1-0.6
	c-0.1-0.8-0.2-1.5-0.3-1.8l0.1,1.5c0,0.2,0,0.5,0,0.7c-0.1-0.1-0.3-0.2-0.4-0.3c-0.4-0.2-0.8-0.4-1.2-0.5c0.2-0.1,0.3-0.2,0.4-0.3
	c-0.1,0-0.2,0-0.3,0c-0.1,0-0.2,0-0.2-0.1l-0.1,0l0,0c0,0,0,0-0.1,0c-0.3-0.1-0.7-0.3-1-0.4c-2.9-1.1-6.3-2.4-9.7-3.7
	c-6.9-2.7-13.8-5.5-16.4-6.8c-0.4-0.2-0.8-0.3-1.3-0.5c0.3,0,0.5-0.1,0.8-0.1c1.4-0.2,3-0.4,4.9-0.6c1.4-0.2,2.9-0.4,4.6-0.7
	c6.5-1,15-2.2,23.4-2.9c8.3-0.8,16.4-0.7,21.8-0.5c1.3,0.1,2.5,0,3.5,0.1c1,0,1.7,0,2.3-0.1c1-0.1,1.1-0.5-0.2-1.2
	c-1.5-0.5-1.3-0.5-0.3-0.4c0.9,0.2,2.7,0.5,4.1,0.8c2.9,0.6,4.9,1-1.1-0.7c-4.3-0.9-8.6-1.6-12.8-2c1.1,0-0.2-0.4-1.9-0.8
	c-1.7-0.4-3.9-0.8-4.6-1c-1.3,0.1-0.9,0.2,0.1,0.5c1.1,0.2,2.8,0.6,4.2,0.9c1.4,0.3,2.5,0.7,2.3,0.8c-0.1,0.1-0.5,0.1-1.4,0.1
	c-0.9,0-2.2-0.1-4.1-0.2c-1.8,0-5.4-0.2-9.4-0.4c-2-0.1-4-0.1-5.9-0.2c-1.9,0-3.7,0-5.1,0c12.7,0.1-0.3,0.5-5.4,1
	c-3.9,0-8.9,0.2-13.4,0.4c-3.6,0.2-6.1,0.3-7.1,0.1c-0.5,0.1-1.7,0.2-3.2,0.4c-0.4,0-0.8,0.1-1.2,0.1c0,0,0,0,0,0l-0.1,0.1l0,0
	l0.1-0.1c-0.4,0-0.7,0.1-1.1,0.1c-0.4,0-0.8,0-1.1,0.1l-0.3,0c-0.1,0-0.2,0-0.2,0l0.1-0.1l0.5-0.2c0.2-0.5,0.2-0.5-0.1-0.2
	c-0.3,0.3-0.8,0.8-0.8,0.7c0.2-0.3,0.6-0.8,0.9-1.2c0.1-0.1,0.2-0.2,0.3-0.3c0.9-1.1,1.7-2.2,2.6-3.4c0.8-1,1.6-2,2.4-3.1
	c0.8-1,1.6-2,2.4-3l0.6-0.8l0.3-0.3l-0.4,0.5l-0.7,0.9c0.4-0.5,0.7-0.9,1.1-1.4c0.8-1,1.6-2,2.3-3c0,0,0.1,0,0.1-0.1
	c-0.7,1-1.4,1.9-2.2,2.9c-0.3,0.4-0.7,0.9-1,1.3l-0.2,0.3l-0.1,0.1c0,0,0,0,0,0l0.1-0.1l0.4-0.6l0.4-0.6l0.2-0.3l0.1-0.1l-0.1,0.1
	l-0.5,0.7c-0.7,1-1.4,1.9-2,2.8c-0.7,0.9-1.3,1.8-1.9,2.7c-0.3,0.4-0.6,0.8-0.9,1.2c-0.5,0.7-1,1.3-1.5,2l-0.7,1l-0.4,0.5
	c0,0,0,0,0,0l0,0c0,0.1,0.1,0.1,0.2,0.1c0.1-0.1,0.1,0,0.2,0c0,0,0,0.1,0,0.1c0.3-0.4,0.6-0.8,0.9-1.1c0.3-0.3,0.5-0.6,0.6-0.8
	c0.6-0.7,0.4-0.3-0.6,1.1c-0.1,0.2-0.3,0.4-0.4,0.6c-0.1,0.1-0.1,0.2-0.2,0.3c0,0,0,0,0,0c0,0,0.1,0,0.1,0c0.1,0,0.2-0.1,0.3-0.2
	c0.2-0.2,0.5-0.4,0.8-0.7c0.3-0.2,0.5-0.6,1-0.8c0,0,0,0,0-0.1c0.8-1.1,1.6-2.1,2.4-3.2c0.4-0.6,0.8-1.2,1.3-1.8
	c0.7-1,1.4-2,2.2-3.1c0.4-0.5,0.7-1,1.1-1.5l0.3-0.4l0.1-0.2l0,0l-0.1,0.1l-0.2,0.3c-0.5,0.7-1.1,1.4-1.6,2.1l-0.4,0.5l0.3-0.4
	l0.6-0.9c0.4-0.6,0.9-1.2,1.3-1.8c0.8-1.1,1.7-2.3,2.5-3.4c0.2-0.1,0.3-0.1,0.4-0.2c-0.1,0-0.3,0.1-0.4,0.2c0,0,0.1-0.1,0.1-0.1
	c0.1-0.1,0.2-0.3,0.3-0.4c0.3-0.1,0.6-0.2,0.8-0.4c0.5-0.2,1-0.4,1.3-0.6c0.3-0.4,0.5-0.8,0.7-1.1c0.4-0.7,0.9-1.3,1.3-2l0.1-0.2
	l0.1-0.2l0.2-0.3c0.1-0.2,0.2-0.4,0.3-0.6c0.5-0.9,1.1-1.9,2.1-3.4c0.2-0.2,0.3-0.4,0.5-0.6c0.2,0,0.4-0.1,0.6-0.1l0.6-0.1l0.2,0
	c0.1,0,0.1,0,0,0l-0.2,0.3c-0.3,0.5-0.7,0.9-1,1.4c-1.9,2.7-3.9,5.4-5.4,7.4l-0.2,0.1c-0.7,0.3-1.4,0.5-2,0.8
	c0.8-0.3,1.5-0.5,2.1-0.8c0.1,0,0.1,0,0.1,0c-0.2,0.3-0.4,0.5-0.5,0.7c0.2-0.2,0.4-0.5,0.6-0.7c0.2-0.1,0.4-0.4,0.5-0.5
	c0.2-0.2,0.3-0.4,0.5-0.6c0.5-0.7,0.7-0.9,0.4-0.6c-0.3,0.3-0.5,0.6-0.7,0.9l-0.4,0.5c-0.1,0.1-0.1,0.2-0.2,0.2l-0.1,0
	c2.2-3,4.4-5.9,6.7-8.9c0.6-0.7-0.1-0.3-0.4-0.3l-0.9,0.1c3.1-3.5,7.2-8.1,10.7-12.1l2.1-2.4c2.2-2.3,0.7,0,1.7-0.9
	c1.6-2.3,0.5-1.8,2.8-4.9c1.2,0.1,2.1,0.1,2.7,0.1c0.3,0,0.5,0.1,0.6-0.2c0.1-0.1,0.2-0.3,0.3-0.3c0.1-0.2,0.2-0.2,0.1-0.2
	c-0.1,0-0.2,0.1-0.4,0.3c-0.1,0.1-0.2,0.3-0.4,0.2c-0.2,0-0.4,0-0.6-0.1c-0.6-0.1-1.4-0.1-2.1-0.2l0.3-0.4c0.2,0,0.4,0,0.6,0
	c0.3,0,0.6,0,1,0.1c0.3,0,0.8,0.2,1-0.2l5-5l3.1-3c9-9.8-1.2,0,8.1-9.9l10.2-11l-14.5,2.2c-0.6,0.1-1.7,0.2-2.9,0.4
	c3.2-0.6,3.5-0.7,2.1-0.6c-1.3,0.1-4.3,0.5-7.6,1.1c-6.6,1-14.5,2.7-14,2.1c-0.3,0.6-8.6,2.4-17.4,5c-4.4,1.3-8.8,2.9-12.6,4.7
	c-1.9,1-3.5,1.9-5,3.2c-0.4,0.3-0.7,0.7-1,1c-0.3,0.3-0.5,0.6-0.7,0.9c-0.5,0.6-0.6,0.9-0.7,1.1l0.4-0.5c0.2-0.2,0.4-0.5,0.6-0.7
	c0.2-0.2,0.4-0.5,0.7-0.7l0.7-0.6c1-0.9,1.9-1.4,2.8-1.9c1.8-1,3.4-1.7,5.1-2.4c-0.8,0.1-1.6,0.4-2.4,0.5c2.7-1.3,5.3-2.3,7.8-3.2
	c2.5-0.9,5-1.7,7.4-2.4c4.9-1.4,10-2.7,15.5-3.8c-8.7,2.3,3.2,0.2-6.9,2.9c-4.7,1.3-7.4,2.1-8.8,2.5c-1.4,0.4-1.6,0.3-1.2,0.1
	c0.7-0.5,3.4-1.5,2.1-1.2c-5,1.6-9.9,3.3-14.9,5.8c3.5-1.4,6.9-2.4,10.4-3.3c-2.9,1-6.1,2.1-9.4,3.6c-1.7,0.8-3.4,1.6-5.2,2.9
	c-0.9,0.6-2,1.5-2.7,2.5c-0.4,0.5-0.6,0.9-0.9,1.3c-0.3,0.4-0.6,0.8-0.9,1.2c-2.3,3.2-4.5,6.7-6.4,10.5c-1.2,2.3-2.1,4.6-2.9,7
	c-1.1,3.3-1.3,4.6-1.4,5c-0.1,0.3-0.1-0.1,0-0.6c0.1-1,0.3-2.4-0.1-1.3c-0.1,0.3-0.2,0.8-0.3,1.5c0,0.6-0.1,1.1-0.1,1.5l0,0.2l0-0.1
	c0-0.1,0-0.1-0.1-0.1c0-0.1-0.1-0.2-0.1-0.3c-0.1-0.3-0.2-0.6-0.3-0.9c-0.2-0.7-0.5-1.7-1.3-4.6c0.4,1.9,0.7,3.2,1,4.3
	c0.2,0.5,0.3,1,0.4,1.4c0.1,0.2,0.1,0.5,0.2,0.7l0.1,0.4c0,0,0,0.1,0,0.1l0-0.1l0-0.2c0,0,0,0.1,0,0.4c0,0.1,0,0.3,0,0.6
	c0,0.1,0,0.2,0,0.4c0,0.1,0,0.3,0,0.2c-0.2-0.6-0.5-1.9-0.9-3.3c-0.7-2.8-1.7-6.1-1.8-5.3c-0.7-3.2-0.3-2.8,0.4-1.4
	c-0.4-1.1-0.8-2.3-1.2-3.4c-0.2-0.6-0.4-1.1-0.7-1.7l-0.4-0.9c-0.2-0.5-0.4-1.1-0.7-1.6c-1.9-4.2-4-8.2-6.3-11.6
	c-0.2-0.2-0.3-0.4-0.4-0.7l-0.6-0.7c-0.4-0.5-0.8-1-1.2-1.4c-0.4-0.4-0.8-0.8-1.3-1.2c-0.4-0.4-0.9-0.7-1.3-1
	c-1.7-1.3-3.3-2.1-4.8-2.9c-0.7-0.4-1.4-0.7-2.1-1c-0.3-0.2-0.8-0.3-1.2-0.5c-0.4-0.2-0.9-0.3-1.3-0.5c-0.8-0.3-1.6-0.6-2.4-0.9
	c-0.8-0.3-1.5-0.5-2.1-0.8c-3.9-0.8-7.5-1.3-10.9-1.9c-5.2-1.4-8.8-2.3-11-2.9c-1.1,0.8-1.5,0.9-1.5,0.8c0-0.1,0.4-0.6,0.9-1.3
	c4.2,0.9,11,2.6,13.6,3c1.3,0.3,1.7,0.3,0.2-0.2c-0.8-0.2-2-0.6-3.8-1c-1.9-0.5-4.3-1.2-7.5-2c-1.4-0.4-2.8-0.7-4.1-1.1
	c-0.2,0.4-0.4,0.7-0.6,1c-0.2,0.3-0.4,0.7-0.6,0.8c-0.2,0.2-0.4,0.4-0.6,0.6c0,0,0,0.1,0,0.2l0,0.2l-1.3-1.3l0.7,4.8l1.2,0.9
	c0.1,0.5,0.2,0.9,0.4,1.1c0.1,0.2,0.2,0.4,0.3,0.6l7.9,5.2l-7.8-4.9c0,0,0,0.1,0.1,0.1l-1.5-1l-0.3-0.2l0.5,3.5l-1-3.8l-0.4-0.3
	l1.5,4.8l0.7,4.5l-3.3-10.1l-0.9-0.5l4.4,11.9l0.7,4.8l0.1,0.5c0.1,0.3,0.2,0.7,0.3,1l-1.5-0.6l8.7,17.1c1.9,3.8,4.5,8.1,7.5,12.2
	c3,4.2,6.4,8.2,9.6,11.7c-1.4-1.3-0.6-0.1,0.1,1c0.8,1.1,1.5,2-0.2,0.4c0.3,0.3,0.7,0.7,1,1l0.5,0.4l0.1,0l0.2,0.1
	c0.1,0.1,0.3,0.2,0.5,0.3c0.3,0.2,0.8,0.4,1.2,0.6c-0.8-0.8-0.8-1.1-0.2-0.6c0.6,0.4,1.8,1.3,2.9,1.9l0,0c0.1,0.3,0.1,0.5,0.2,0.7
	c0,0.1-0.1,0.1,0,0.1c0.1,0,0.2,0.1,0.5,0.2c0.1,0,0.2,0,0.2,0c0,0,0.1-0.1,0.1-0.1c0.1-0.1,0.1-0.3,0.2-0.4v0c0,0-0.1-0.1-0.2-0.2
	c0.1,0.1,0.3,0.2,0.4,0.3l0,0c0,0.1,0,0.3,0,0.4l0,0.2c0,0,0,0.2-0.1,0.1c-0.3,0-0.5,0-0.8-0.1c-0.5,0-1-0.1-1.4-0.1
	c-2-0.2-3.4-0.5-4.3-0.7l-0.2,0l0,0l-0.2,0l-0.4,0c-0.5-0.1-1-0.1-1.6-0.2c-1.1-0.1-2.1-0.2-3.2-0.3c-2.2-0.2-4.6-0.4-7.4-0.6
	c0.5-0.1,6.9,0.1,10.7,0.2c0.5,0,0.9,0,1.3,0c0.2,0,0.4,0,0.5,0c0.1,0,0.2,0,0.2,0c0,0,0,0,0,0c0.1,0,0.1-0.1,0.1-0.1
	c0,0,0,0-0.1-0.1c-0.3,0-0.8-0.1-1.4-0.1c-1.2-0.1-3-0.2-5.4-0.4c-5.7-0.1-8.3,0-9.3,0.1c-1,0.1-0.3,0.3,0.5,0.4
	c1.6,0.3,3.9,0.6-5,0.9c4.8,0.1,9.6,0.4,14.3,0.7c0.9,0.5-5.3,0.2-12.2,0c-1.7,0-3.5,0-5.2-0.1c-1.7,0-3.4,0-4.9,0
	c-3,0.1-5.4,0.2-6.3,0.3c-4.5,0.2-1.4-0.1,1.8-0.4c3.1-0.3,6.3-0.5,1.9-0.7c-6.7,0.2-11.8,0.9-16.3,1.7c-1.1,0.2-2.2,0.5-3.2,0.7
	c-1.1,0.2-2.1,0.4-3.1,0.7c-1,0.3-2,0.5-3.1,0.8l-0.8,0.2l-0.4,0.1l-0.6,0.2c-0.4,0.1-0.8,0.3-1.2,0.4c-0.4,0.1-0.7,0.3-1.1,0.5
	c0.3-0.2,0.6-0.4,1-0.5c0.4-0.2,0.7-0.3,1-0.4c0.3-0.1,0.7-0.3,0.9-0.3c0.2-0.1,0.4-0.1,0.5-0.2c0.7-0.2,1.2-0.4,1.6-0.5
	c0.8-0.3,1.2-0.4,1.7-0.6c0.9-0.3,1.9-0.6,6.7-1.8c-2,0.3-3.7,0.7-5.3,1c-1.5,0.3-2.8,0.7-3.9,0.9c-0.5,0.1-1,0.3-1.5,0.4
	c-0.1,0-0.3,0.1-0.5,0.2c-0.2,0.1-0.3,0.1-0.5,0.2c-0.3,0.1-0.6,0.2-0.9,0.3c-0.6,0.2-1,0.5-1.4,0.7c-0.4,0.2-0.8,0.4-1,0.5
	c-2.1,1.3-1.6,0.9-0.9,0.2c0.7-0.6,2-1.4,0.8-0.9c-1,0.5-4.6,2.5-8.9,7.7c-2.6,3.4-2.7,4.1-3.4,5.3c-0.6,1.2-1.7,2.9-4.8,8.3
	c2.1-3,3.1-4.3,5-7c1-1.3,2.1-3,4.1-5.4c1-1.2,2.2-2.6,3.8-4.2c0.4-0.4,0.9-0.8,1.3-1.2c0.5-0.4,1-0.9,1.6-1.3
	c0.6-0.4,1.3-0.9,2-1.3c0.8-0.4,1.5-0.9,2.6-1.2c-2.7,1.3-5.5,3.4-7.8,5.9c-2.4,2.5-4.7,5.5-6.8,8.7c-4.3,6.4-8.2,13.6-10.9,19.9
	c2.4-4.9,2.9-5.7,3.4-6.5c0.5-0.9,0.9-1.8,3.8-7.2c0.7-0.5,1.7-1.7,1.9-1.6c0.2,0.2-0.6,1.7-2.8,6.6c1.5-2.8,2.7-5.3,4-7.6
	c1.3-2.3,2.6-4.5,4.2-6.8c0.8-1.2,1.7-2.3,2.7-3.6c1.1-1.2,2.2-2.5,3.9-3.8c0.4-0.3,0.8-0.7,1.3-1c0.5-0.3,0.9-0.7,1.5-1
	c0.3-0.2,0.6-0.3,0.9-0.5l0.4-0.2l0.5-0.2c0.7-0.3,1.5-0.6,1.9-0.6c1.9-0.5,4-1.1,6.4-1.5c1.3-0.1,0.6,0.2-1.3,0.7
	c-0.9,0.2-2.1,0.6-3.5,1c-0.3,0.1-0.7,0.2-1,0.3c-0.2,0.1-0.4,0.1-0.5,0.2l-0.3,0.1l-0.4,0.1c-0.5,0.2-1.1,0.4-1.6,0.6
	c-0.5,0.3-0.9,0.5-1.4,0.8c-3.5,2.3-5.8,5.1-7.4,7.3c-1.6,2.2-2.4,3.8-2.2,4c-2.5,4-6.4,10.8-9.9,17.8c-1.8,3.5-3.5,7-5.1,10.2
	c-1.9,4-3.7,7.6-5.1,10.3c-1.4,3.1-2.9,6.3-4.4,9.4l0.2,0.2c0.1,0.1,0.1,0.2,0.3,0.2l1.1,0.2c0.7,0.1,1.4,0.2,2.1,0.3
	c1.4,0.2,2.8,0.4,4.2,0.5c2.8,0.3,5.6,0.6,8.5,0.7c0.7,0,1.4,0,2.1,0c0.8,0,1.2,0,1.8,0c1.4-0.1,2.8-0.1,4.2-0.3
	c1.4-0.1,2.7-0.3,4-0.5l1-0.2c0.2,0,0.4,0,0.5-0.1l0.1-0.5c0.2-0.7,0.3-1.3,0.5-2c0.1-0.6,0.3-1.3,0.4-1.9c0.1-0.7,0.3-1.3,0.4-2
	c0.2-1.2,0.4-2.3,0.7-3.5c0.3-1.8,0.7-3.6,1-5.3c0,0,0,0,0,0c0.1,1.6,0.1,3.2,0.2,4.9l-0.9,3.9c-0.5,2.4-1.2,4.7-1.8,7
	c-2.4,0.3-4.8,0.6-7.2,0.7c0.3,0.1-0.1,0.3-1.2,0.5c-0.3,0-0.6,0.1-1,0.1c-0.3,0-0.7,0.1-1.1,0.1c-0.2,0-0.3,0-0.5,0
	c-0.2,0-0.4,0-0.6,0c-0.5,0-1.1,0-1.7,0c-2.4,0-5.3-0.1-8.5-0.5c-1.6-0.2-3.3-0.4-5.1-0.7c-0.9-0.1-1.8-0.3-2.8-0.4
	c-0.9-0.2-2.1-0.2-2.5-0.6c1.2-2.5,2.5-5.2,3.8-7.9c1.3-2.7,2.6-5.5,3.9-8.4l0.4-0.8l0.3-0.5l0.6-1l1.2-2c-0.5,1.2-1,2.5-1.5,3.8
	c-0.8,1.9-1.6,3.8-2.5,5.8c0.9-2,1.5-3.3,2-4.4c0.2-0.5,0.4-1,0.6-1.5c0.1-0.3,0.2-0.6,0.4-0.9c0.5-1.2,1-2.6,2.6-5.8
	c-1.4,2.1,3.4-9.9-1.7,0c-1,2.1-1.8,4-2.6,5.7c-1.2,2.7-2.3,5.2-3.3,7.4c-2.2,4.6-3.9,8.2-5.3,11.2c0.2,0.1,0.4,0.2,0.6,0.3
	c0.3,0.1,0.6,0.1,0.9,0.1c0.6,0.1,1.2,0.2,1.7,0.2c1.1,0.1,2,0.3,2.9,0.4c1.8,0.2,3.3,0.4,4.6,0.5c2.7,0.2,5,0.3,8.1,0.3
	c0.8,0,1.6,0,2.5,0c1,0,1.2,0,2.4-0.1c2.1-0.1,4.5-0.4,7.3-0.8c0.7-0.1,1.5-0.2,2.2-0.3l0.1,0c0,0,0.1,0,0.1,0l0-0.1l0.1-0.3
	c0-0.2,0.1-0.4,0.1-0.6c0.1-0.4,0.2-0.8,0.3-1.2c0.2-0.8,0.4-1.7,0.6-2.6c0.2-0.9,0.4-1.9,0.6-2.9c0.2-0.9,0.4-1.9,0.6-2.9
	c0.1,1.5,0.1,3,0.2,4.5l0.1,3l2.8-1c2.2-0.8,4.2-1.8,6.1-2.9l1.1-0.7l0-0.2l0.1-0.1l0.2-0.2c0.5-0.4,1-0.8,1.5-1.2
	c1-0.8,1.9-1.7,2.9-2.6c1.8-1.7,3.6-3.6,5.2-5.6c0.8-1,1.6-2,2.4-3.1c0.7-1,1.5-2,2.2-3c0.3-0.4,0.6-0.8,1-1.3
	c0.3-0.4,0.7-0.9,1-1.3c0.4-0.5,0.8-1,1.2-1.4c0.1-0.1,0.1-0.3,0.2-0.4l0.1-0.4l0.2-0.9c0.1-0.2,0.1-0.3,0.1-0.4c0,0,0,0,0,0
	c0,0,0,0,0,0c0,0,0,0.1,0,0.2c0,0.2,0,0.5-0.1,0.8c0,0.2-0.1,0.4-0.1,0.6c-0.1,0.2,0,0.5-0.2,0.7c-0.6,0.8-1.4,1.9-2,2.7
	c-0.7,1-1.4,2-2.2,3c-3.3,4.8-6.9,8.5-3.8,5.5c1.1-1.4,2.6-3.5,4.3-6c0.4-0.5,0.8-1.1,1.2-1.7c0.4-0.5,0.8-1.1,1.1-1.6
	c0.5-0.7,1.1-1.4,1.5-2.1c0.1-0.7,0.2-1.4,0.3-2.2c0.5-0.2,0.9-0.3,1.4-0.2c1.1-0.9,2.3-1.7,3.5-2.3c1.1-0.6,2.1-1.2,3-1.7
	c1-0.6,1.7-0.9,2.5-1.1c0.8-0.3,1.5-0.5,2.2-0.8c0.6-0.2,1.2-0.4,1.8-0.6c0.5-0.2,0.9-0.3,1.4-0.5c0.9-0.3,1.6-0.6,2.3-0.8
	c1.4-0.4,2.5-0.7,3.4-1c1.8-0.5,3.1-0.7,4.8-1.4l1.4-0.6c-2.7,2.6-4.4,4.4-3.7,4c-2.6,2.3-5.2,4.8-7.7,7.6c-0.6,0.7-1.3,1.4-1.9,2.1
	c-0.6,0.8-1.1,1.3-2,2.5l-2.4,3.2c-0.7,1.1-1.4,2.2-2.1,3.3c-0.4,0.5-0.6,1.1-0.9,1.6l-0.8,1.6c-0.3,0.5-0.6,1.1-0.8,1.6l-0.5,1.5
	c-0.3,1-0.7,2-0.9,2.9c-0.2,1-0.3,1.9-0.4,2.9c-0.1,2,0,4,0.1,5.9c0.1,1,0.2,2,0.2,3l0.1,0.7l0,0.4l0,0.2l0,0.1c0,0,0,0,0.1,0
	c0.3-0.1,0.6-0.2,1-0.3c-0.2,0.1-0.4,0.1-0.6,0.2c-0.1,0-0.2,0.1-0.3,0.1l-0.1,0c0,0,0-0.1,0-0.2c0-0.5-0.1-0.9-0.1-1.2
	c0-0.7,0-1,0-1.2c0-0.3,0.2,0.2,0.3,0.9c0.1,0.4,0.2,0.8,0.2,1.2c0,0.1,0,0,0.1,0l0.1-0.1c0.1,0,0.2-0.1,0.2-0.1c0,0,0,0,0,0
	c0.3,1.3,0.6,2.7,0.9,3.8c0.2,0.7,0.4,1.4,0.5,1.8c0.1,0.4,0.2,0.7,0.3,0.9c0.2,0.4,0.2,0.3,0.1-0.5c-0.2-1-0.6-3-1.2-6.1
	c0-0.1,0-0.1,0-0.2c0.4-0.2,0.5-0.3,0.1-0.2l-0.1,0.1c0-0.1,0-0.1,0-0.2c0.8-0.4,1.6-0.8,2.4-1.1c-0.4,0.4-0.8,0.9-1.2,1.4
	c0.3,1.7,0.8,3.6,1.3,5.6c0.4,1.7,0.9,3.4,1.4,5.2c1.2,4.2,2.4,8.8,3.5,13.2l0.2,0.3l0.1,0.1l0,0l0,0l0.1-0.1l0.8-0.4
	c0.5-0.3,1-0.6,1.5-0.9c1-0.6,2-1.2,2.9-1.7c1.9-1.2,3.6-2.3,5.2-3.5c1-0.7,1.9-1.3,2.8-1.9l0.5-0.3l0.1-0.7
	c0.2-2.9,0.5-5.2,0.7-8.3c0.3,0.9,0.7,2,1.3,4.6l0.2,0.9l-0.2-0.9l-1-4.5l0.6,0.2c0.1,0.3,0.2,0.7,0.3,1.1c0.3,1.2,0.5,2.4,0.7,3
	l0.4,1.9l1.5-1.3c1.1-1,2.1-2,3.1-2.9l0.4,0.1c-0.3,0.3-0.6,0.6-0.9,0.9c0.3-0.3,0.6-0.6,0.9-0.9l1.9,0.6c-0.2-0.7-0.3-1.4-0.5-2.1
	c0.2-0.2,0.5-0.5,0.7-0.8c-0.2,0.3-0.5,0.5-0.7,0.8c0-0.1-0.1-0.3-0.1-0.4c0.8-0.9,1.6-1.8,2.4-2.6c1.7-2,3.5-4.3,4.9-6.3
	c-0.2,0.9-0.4,1.6-0.5,2.2c-0.4,1.4-0.6,2-0.7,2.2c-0.3,0.4-0.2-0.8-0.4-0.7c-1.9,11.1-0.3,4.8,1.3-1.7c0.2-0.8,0.4-1.5,0.6-2.3
	c0-0.1,0.1-0.1,0.1-0.2c0,0,0-0.1,0-0.1c0,0,0-0.1,0-0.1l0.6,0.8l0.1-0.2c-0.6,4.1-1.8,10.6-3.4,17.7c-0.8,3.8-1.9,7.8-2.8,11.7
	c-1,3.9-2,7.7-3,11.1c3.9-11.6,0.8,1.6-3.4,15.7c1.5-4.6,2.3-7.1,2.8-8.7c0.5-1.6,0.8-2.3,1.1-3c0.3-0.8,0.6-1.6,1.2-3.7
	c0.6-2,1.4-5.3,2.8-10.7l0.7-0.3c-2.5,9.3-5.8,20.1-8.8,29.2c0.5-1.9-0.3,0.1,0.5-2.9c-1.3,4.6-2.9,9.1-4.4,13.6
	c-0.7,2.3-1.6,4.5-2.3,6.7c-0.8,2.2-1.6,4.5-2.4,6.7l0.7-2.8c-3.2,8.2-6.8,17.3-10.5,25.4c-1.8,4.1-3.6,7.9-5.2,11.3
	c-0.8,1.7-1.6,3.3-2.3,4.8c-0.8,1.6-1.5,3-2.1,4.3c0.5-1.1,1-2.1,1.5-3.1c0.5-0.9,0.9-1.7,1.3-2.5c0.8-1.5,1.5-2.8,1.9-3.6
	c0.9-1.6,0.9-1.1-0.9,2.9c-0.5,1.2-1.1,2.6-1.8,4.2c-0.4,0.9-0.8,1.8-1.2,2.7c-0.4,0.9-0.9,1.9-1.4,2.9c-1,1.9-2,4-3,6
	c-0.5,1-1,2-1.5,3c0,0-0.1,0.1,0,0.1l0.1,0l0.2,0l0.4,0l0.8,0c0.6,0,1.1,0,1.7,0c1.1,0.2,5.1,0.3,9.5,0.4c4.4,0.1,9.2,0.2,12,0.3
	c1.4-2.7,2-3.5,0.2,0.4c-1,0.1-2.7,0.1-4.9,0.2c2.3,0,4.4,0,4.9-0.1c1.3-2.7,2.3-4.9,3.3-6.8c0.7-1.6,1.4-2.9,1.9-4
	c1-2.3,1.7-3.9,2.4-5.6c0.7-1.7,1.5-3.4,2.5-6c0.9-2.2,2.1-5.1,3.6-9.1c-0.7,1.8-1.5,3.5-2.2,5.3c-1,2.5-2,4.9-3.1,7.3
	c-1.3,1.6,3.4-10.7-3.2,2.9c3.6-8.2,3.8-9.8,4.5-12.1c0.3-1.1,0.7-2.5,1.6-4.9c0.8-2.4,2.1-5.9,4.2-11.5c1.8-4.5,1.8-3.7,0.8-0.3
	c-0.5,1.8-1.3,4.1-2.3,6.9c-0.5,1.4-1,2.8-1.6,4.3c-0.6,1.5-1.2,3-1.8,4.6c0.7-1.6,1.4-3,2-4.6c0.6-1.5,1.2-3,1.8-4.5
	c0.6-1.5,1.2-3,1.8-4.6c0.6-1.6,1.1-3.2,1.6-4.9c1.1-2.3,0.2,0.7-0.9,4.3c-1.2,3.5-2.6,7.6-2.4,7.3c2.2-5.7,2.2-5.7,2-5.6
	c-0.2,0.1-0.3,0.3,1.6-5.2c0.8-2.4,1.4-4.4,2-6.1c0.6-1.7,1-3.1,1.4-4.2c0.8-2.3,1.4-3.8,2-5.3c0.6-1.4,1.2-2.9,1.9-5.1
	c0.4-1.1,0.8-2.4,1.3-4.1c0.2-0.8,0.5-1.7,0.8-2.7c0.3-1,0.5-2.1,0.8-3.2c-0.3,1-0.6,2.3-0.9,3.4c-0.4,1.2-0.7,2.3-1,3.2
	c-0.6,1.7-0.8,2.3-0.2-0.2c3.6-12.6,4.2-16.2,4.7-18.9c0.4-2.7,0.8-4.5,2.6-13.8c0.7-2.6,1.3-4.2,1.7-5.5c0.4-1.3,0.8-2.2,1.1-3.3
	c0.4-1.1,0.8-2.4,1.3-4.5c0.5-2.1,1-5,1.8-9.2c-0.5,3.2-1,6.3-1.6,9.5c0.8-3.3,1.4-6.8,2.1-10.3c0.7-3.5,1.1-7.2,1.6-10.6
	c0.9-8,1.6-15.6,2.1-23.1l3.6-0.2c0.3,0.7,0.6,1.4,0.9,2.1l0.4,0.9l0.2-0.9c0.2-0.7,0.4-1.5,0.6-2.2l2.9-0.1c0,0.2,0,0.3,0,0.5
	c0,1.5-0.1,3-0.1,4.5c-1.1,1.8-2.3,3.5-3.5,5.3l4.3,0c0,0.1,0.1,0.2,0.1,0.2c0.2,0.3,0.3,0.6,0.5,0.9c0,0,0,0,0,0
	c-0.2-0.4-0.4-0.8-0.6-1.1l0.3,0c0,0.1,0.1,0.2,0.1,0.2c0.1,0.2,0.2,0.4,0.4,0.6c0.1-0.2,0.3-0.4,0.4-0.6c0-0.1-0.1-0.2-0.1-0.3
	l0.3,0c0,0,0,0,0,0c0,0,0,0,0,0l0.1,0l-0.1-0.1c0,0,0,0,0,0c0,0.1,0.1,0.1,0.1,0.2l0.6,0c-0.1,0.2-0.2,0.3-0.3,0.5
	c0,0.1,0.1,0.1,0.1,0.2l0.5-0.7l0.4,0l-0.7,1.1c0,0,0,0,0,0c0.2-0.4,0.4-0.7,0.7-1.1l0.8,0c-0.3,0.5-0.6,1-1,1.5
	c0.4-0.6,0.7-1.1,1-1.5l0.9,0c0,0.1,0,0.1,0.1,0l0.3,0c-2.1,5.2,0.1-1.3-1.2,1.7c-0.7,1.9-1.2,3.5-1.7,5c0,0.2,0.3,0.4,0.4,0.7
	l0.5,0.6c0.3,0.4,0.6,0.8,0.9,1.3c0.6,0.8,1.3,1.7,2,2.6l-0.5-0.5l-0.6-0.6c-0.4-0.4-0.8-0.8-1.1-1.2c0.5,0.7,0.9,1.3,1.4,2
	c0.4,0.5,0.8,1,1.1,1.5c0.7,0.9,1.4,1.7,2,2.4c0.5,0.6,1,1.1,1.4,1.6c-0.1,0.6-0.3,1.2-0.4,1.8l1.6-0.5c0,0,0.1,0.1,0.1,0.1
	c1.4,1.4,2.1,1.8,3.1,2.6l1.8,1.4l0.3-2.1c0.1-0.9,0.3-2,0.6-3.9l0.8-0.3c0.1,2,0.2,4.4,0.4,7.5c0-1.8,0-3.3,0-4.6
	c0-1.1,0-2,0.1-2.7c0-0.1,0-0.2,0-0.4l0.4-0.1c0,0.4,0.1,0.9,0.1,1.5c0.1,1,0.1,2.1,0.2,3.1c0.1,1.1,0.2,1.9,0.2,2.4
	c0.2,1,0.3,0.4,0.5-3.3c0,2.1,0,3.7,0,4.6c0.9,0.9,1.9,1.5,2.6,2.1c0.4,0.3,0.8,0.6,1.2,0.9c0.4,0.3,0.7,0.5,1.1,0.8
	c0.7,0.5,1.5,1,2.5,1.7c-0.1,0.3-0.1,0.5-0.2,0.8l0.8-0.4c1,0.6,2.2,1.3,3.7,2.1l0.9,0.5l0.2-1c0.2-1,0.6-2.5,1-4.3l0,0
	c-0.8,3.8-0.6,3.9-0.6,4.5l0.1,1.1l0.2-1c1.1-5,1.8-7.8,2.5-10.7c0.4-1.4,0.7-2.9,1.1-4.6c0.4-1.6,1-4.1,1.5-7.1
	c-1.2-1.3-3-3.3-5.2-5.7l1.5-0.7c0.3,0.2,0.6,0.4,0.9,0.6c-0.3-0.2-0.6-0.4-0.9-0.6l0.4-0.2c2.1,1.6,2.3,1.9,0.5,0.7
	c0.5,0.3,0.9,0.6,1.3,0.8c0-1,0-1.8,0-2.4l5-2.2c-2.6-1.5-4.2-2.4-6-3.3c-0.1-0.1-0.3-0.1-0.4-0.2c-0.1-0.2-0.1-0.3-0.2-0.5
	c0.1,0.2,0.1,0.3,0.2,0.5c-0.5-0.3-1.1-0.6-1.7-0.9c0-0.1-0.1-0.1-0.1-0.2c-0.2-0.3-0.3-0.5-0.5-0.8c-0.7-1.2-1.6-2.7-2.8-4.5
	c-0.5-0.6-0.9-1.2-1.2-1.8c-0.4-0.5-0.8-1-1.1-1.5c-0.6-0.9-1.2-1.6-1.7-2.1c-0.9-1.1-1.3-1.7-1.5-2c-0.3-0.6,0.4,0,0.4-0.2
	c-3.4-3.7-6.6-6.7-9.6-9.5c-3-2.8-5.7-5.3-8.3-7.7c0.4,0.6-0.2,0.2-2.6-1.9c-2.5-2-4.3-3.6-5.5-4.6l-4.6-4l-0.3-1.6
	c1.2-0.1,2.4-0.2,3.5-0.2l3.9,1.5c7.4,3,3.6,2,8.5,4c23,9.3-2.4-2.3,23.4,7.7l-29.9-11.8c1.1,0.1,1.9,0-1.4-1.4l-0.7-0.3
	c0.4,0,0.7,0,1.1-0.1c2.5,1,5.1,2,7.5,2.9c-7.7-2.3,24,9.4,10.8,5c5.8,2.2,10.7,4.1,15,5.8c1.4,0.5,2.7,1.1,4,1.5
	c1.1,0.4,2.1,0.8,2.9,1.3c0.5,0.3,0.9,0.7,1.3,1l0.2,0.1c0,0,0-0.1,0-0.2l0-0.4c0-0.3,0-0.6,0-0.8c0-1.1-0.1-2.2-0.1-3.3
	c0-1.1-0.1-2.2-0.1-3.4c0-0.6,0-1.2-0.1-1.8l0-0.6c0-0.1,0-0.3-0.1-0.4c-0.1-0.5-0.2-1-0.3-1.5l-0.3-1.5l0.8-1.3
	c0.3-0.4,0.6-0.8,1-1l0.2-0.1c0.1-0.1,0.3-0.2,0.4-0.2c0.3-0.1,0.6-0.2,1-0.3c0.3-0.1,0.7-0.1,1,0c0.2,0,0.3,0,0.5,0.1
	c0.1,0,0.2,0.1,0.3,0.1c0.4,0.1,0.8,0.3,1.1,0.6c0.2,0.1,0.3,0.3,0.5,0.4l0.1,0.1l0.1,0.1c0.2,0.2,0.3,0.4,0.4,0.6l0.1,0.2l0.1,0.1
	l0.1,0.3l0.1,0.3c0.1,0.3,0.1,0.5,0.1,0.6c0.1,0.3,0.1,0.5,0.1,0.8c0,0.4,0.1,0.7,0.1,1.1c0.1,0.7,0.3,1.4,0.4,2.1
	c0.3,1.6,0.6,3.2,0.9,5c0.7,3.4,1.4,7.2,2.2,11.5c-0.1-0.2-0.1-0.2-0.2-0.7c-0.1-0.4-0.2-1-0.4-1.6c-0.3-1.3-0.7-2.9-1.1-4.7
	c-0.4-1.9-0.9-4-1.4-6.4c-0.2-1.2-0.5-2.4-0.8-3.6c-0.1-0.6-0.3-1.3-0.3-1.7c0-0.3-0.1-0.7-0.1-1c0-0.2-0.1-0.4-0.1-0.7
	c0-0.1-0.1-0.3-0.1-0.6c0-0.1,0-0.1-0.1-0.3l-0.1-0.2l-0.1-0.1c0-0.1-0.1-0.2-0.1-0.2c-0.1-0.2-0.2-0.3-0.4-0.5
	c-0.4-0.4-1-0.8-1.6-0.9c-0.4-0.1-1-0.1-1.5,0.1c-0.2,0.1-0.5,0.2-0.7,0.3c-0.2,0.1-0.2,0.1-0.3,0.2c-0.3,0.2-0.5,0.5-0.7,0.8
	l-0.7,1l0.2,1.2c0.1,0.7,0.3,1.6,0.4,2c0,0.6,0.1,1.1,0.1,1.7c0,1.1,0.1,2.2,0.1,3.3c0.1,2.2,0.1,4.5,0.1,6.5l-0.2,0.2
	c0,0-0.1,0-0.1-0.1l-0.1-0.1l-0.3-0.3c-0.5-0.4-1-0.7-1.3-0.9c-0.8-0.5-1.4-0.7-1.7-0.8c-0.3-0.1-0.5-0.1-0.4-0.1
	c0.1,0.1,1.1,0.4,2.3,1.3c0.4,0.3,0.9,0.7,1.4,1.1l0.4,0.3c0.1,0.1,0.1,0,0.1-0.1l0-0.2c0-0.3,0-0.6,0-1c0-1.3,0-2.6,0-3.8
	c0-2.3,0.1-4,0.3-3.1c-0.1-0.9-0.1-1.9-0.2-2.8l0-0.7l0-0.4c0-0.1,0-0.2-0.1-0.3c-0.1-0.6-0.2-1.2-0.4-1.7l-0.2-0.9l0.6-0.8
	c0.1-0.2,0.2-0.3,0.4-0.5c0.1-0.1,0.2-0.1,0.2-0.2c0.1,0,0.2-0.1,0.5-0.3c0.5-0.2,1.2-0.3,1.6-0.1c0.3,0.1,0.7,0.3,0.9,0.5
	c0.1,0.1,0.3,0.3,0.3,0.3l0.1,0.1c0.1,0.1,0.1,0.2,0.2,0.3c0.1,0.2,0.1,0.2,0.2,0.3l0.1,0.2l0,0.1l0.1,0.2c0.1,0.2,0.1,0.4,0.1,0.5
	c0,0.3,0.1,0.6,0.1,0.8c0.1,0.6,0.1,0.8,0.2,1.2c0.2,0.9,0.4,1.8,0.5,2.8c0.3,1.9,0.7,3.7,1,5.6c0.3,1.9,0.7,3.8,1,5.8
	c0.3,1.7,0.6,3.5,0.9,5.3c0.2,0.3,0.4,0.6,0.6,0.9l0.8,1.1c0.6,0.8,1.1,1.6,1.7,2.3c0.9,1.2,1.7,2.4,2.7,3.6c0.9,1.2,2,2.4,3.1,3.5
	c0.6,0.6,1.1,1.1,1.7,1.6c0.3,0.3,0.6,0.5,0.9,0.8l0.1,0.1c0,0.1,0-0.1,0.1-0.1l0.1-0.3l0.1-0.6c0.6-2.5,1.3-5.1,1.9-7.8l0.4-2
	l0.5-2.1l0.5-2.6c0-0.2,0.1-0.3,0.1-0.5l0-0.6l0.1-1.4l0.1-0.9l0.6-0.6c0.1-0.1,0.3-0.2,0.5-0.3c0.1,0,0.2-0.1,0.3-0.1l0.1,0l0.2,0
	c0.1,0,0.2,0,0.3,0c0,0.3,0,0.7,0,1c0,2.2,0,4.3,0,6.2c0,3.8,0.1,6.7,0.3,7c-0.3,2.6-0.5,5.8-0.6,10.6c0.3,0.2,0.6,0.3,0.9,0.5
	l0.1,0.2c0,0,0-0.1,0-0.1c0,0,0.1,0,0.1,0.1c0,0.1,0,0.1,0,0.2l0.5,1c0,0.1,0,0.3,0,0.4l0.8-0.5c0,0,0,0,0,0l-0.3-0.6
	c0.1,0,0.2,0.1,0.3,0.1c0-0.3,0-0.5,0-0.8c-0.2-0.1-0.5-0.2-0.7-0.3c0-0.3,0-0.7,0-1c0.3,0.1,0.5,0.3,0.7,0.4c0-0.7,0-1.3,0-2
	l0.1,0.3c0.1,0,0.2,0,0.4,0.1c0,0,0,0,0,0c0,0.2-0.1,0.3-0.1,0.5l0.1,0.3c-0.1,0-0.1-0.1-0.2-0.1c0,0.3-0.1,0.7-0.2,1
	c0.4,0.2,0.7,0.4,1.1,0.5l0.2,0.3l0.2-0.2c0.1,0,0.2,0.1,0.3,0.1l-0.4,0.3l0.2,0.4c-0.2-0.1-0.4-0.1-0.5-0.2l-0.7,0.5
	c0.2,0.1,0.4,0.2,0.5,0.2l0.8-0.5l0.3,0.5l-0.4,0.2c0.2,0.1,0.3,0.1,0.5,0.2l0.8-0.5c-0.2-0.1-0.3-0.1-0.5-0.2l-0.2,0.2
	c0-0.1,0-0.2,0-0.2c-0.2-0.1-0.3-0.1-0.5-0.2l0.5-0.4c0-0.1,0-0.1,0-0.2c0.1,0,0.1,0,0.2,0.1l1-0.7c-0.2-0.1-0.4-0.1-0.6-0.2
	l-0.6,0.4c0-0.1,0-0.2,0-0.3l0.3-0.2c-0.1,0-0.2-0.1-0.3-0.1c0-0.3,0-0.6,0-0.9c0.2,0.1,0.5,0.2,0.7,0.3c0.1,0,0.2,0.1,0.3,0.1
	l0.4-0.3c-0.5-0.2-1-0.4-1.5-0.6c0.3-5.1,0.6-10.4,0.9-15.2c-0.2,2.3-0.4,3-0.3-1.6c0-0.3,0-0.6,0.1-0.9c0-0.1,0-0.3,0-0.4
	c0-0.1,0-0.1,0-0.2c0-0.1,0-0.3,0.1-0.4c0-0.2,0.1-0.4,0.1-0.6c0-0.2,0.1-0.5,0.1-0.9l0-0.3c0-0.2,0-0.3,0-0.5l0-0.4l0-0.4l0-0.2
	l-0.1-0.3c-0.1-0.3-0.2-0.7-0.3-1l-0.1-0.3c-0.1-0.3-0.3-0.5-0.5-0.7c-0.4-0.5-0.8-0.9-1.3-1.3c-0.2-0.2-0.7-0.5-1.3-0.7
	c0-0.2,0-0.3,0-0.5c0.2,0.1,0.4,0.1,0.6,0.2c0.1,0.1,0.3,0.1,0.4,0.2l0.3,0.2c0.2,0.1,0.3,0.2,0.5,0.3c0.3,0.2,0.6,0.5,0.8,0.8
	c0.3,0.3,0.5,0.6,0.7,0.9c0.1,0.1,0.2,0.4,0.2,0.4l0.1,0.1c0.1,0.2,0.2,0.4,0.2,0.6s0.1,0.4,0.2,0.6l0.1,0.3c0,0.2,0.1,0.3,0.1,0.5
	l0,0.3c0,0.2,0,0.4,0,0.4l0,0.3l0,0.2l0,0.4c0,0.4-0.1,0.7-0.1,1l-0.1,0.4l0,0.2l0,0.1c0,0.1,0,0.1,0,0.2c-0.1,0.9-0.2,1.9-0.2,2.9
	c0.1-0.7,0.2-1.6,0.2-2.6l0-0.3l0-0.1l0-0.1l0.1-0.4c0.1-0.3,0.1-0.6,0.2-1c0-0.2,0-0.4,0.1-0.9c0-0.2,0-0.4-0.1-1.1l0-0.3l-0.1-0.3
	c-0.1-0.2-0.1-0.5-0.2-0.7l-0.1-0.4l-0.1-0.2l-0.2-0.3c-0.4-0.7-1-1.5-1.7-2c-0.2-0.1-0.4-0.3-0.5-0.4c-0.2-0.1-0.6-0.3-0.9-0.4
	c-0.1,0-0.2-0.1-0.3-0.1c0-0.1,0-0.1,0-0.2c0-0.3-0.1-0.6-0.2-0.9l-0.2-1.2l0.6-0.9c0.1-0.1,0.2-0.2,0.3-0.3l0.1-0.2l0.1-0.1
	c0,0,0.1-0.1,0.2-0.2c0.3-0.2,0.7-0.4,1.1-0.5c0.9,1.2,1.9,2.6,2.9,4.1c0.4,0.6,0.8,1.3,1.2,1.9c2.9,13.6,0.1-0.8,1,2.5
	c2,8.1,2.8,13.5,3.6,18.2c0.2,1.2,0.4,2.3,0.6,3.4c0.2,1,0.4,2.1,0.6,3.1c0.2,0.8,0.4,1.7,0.6,2.5c0.1,0.4,0.2,0.9,0.4,1.3
	c0.5,0,1,0.1,1.5,0.1c-0.5-0.1-1-0.1-1.4-0.2l-0.3-1.4l-0.6-2.8l-1.7-8.4c3.2,12.5-0.7-3.7,0.7-0.9c0.6,2.4,1.2,5.1,1.9,7.9
	c0.2,0.9,0.4,1.8,0.7,2.8c0.1,0.4,0.2,0.8,0.3,1.2l0.1,0.3c0,0,0,0.1,0.1,0.1l0.2,0l0.6,0.1c0.9,0.1,1.7,0.1,2.6,0.1l0.9,0l0.8,0
	c0.4,0,0.9,0,1.3-0.1c0.9-0.1,1.8-0.1,2.7-0.3c0.5-0.1,0.9-0.1,1.4-0.2l0.7-0.1l0.3-0.1C267.3,137.2,267.1,137.1,267.1,137z
	 M170.5,126.3l-0.8,0l0,0L170.5,126.3C170.4,126.3,170.4,126.3,170.5,126.3z M168.6,113.5c-0.4,1.1-0.4,2.2-0.4,3.3
	c0,0.1,0,0.1,0,0.2c-0.1-0.4-0.2-0.9-0.3-1.3c0.1-0.4,0.2-0.9,0.3-1.3l0.1-0.5c0-0.1,0-0.2,0.1-0.3c0,0,0-0.1,0.1-0.1
	c0,0,0-0.1,0.1-0.1C168.5,113.3,168.6,113.4,168.6,113.5L168.6,113.5L168.6,113.5z M167.6,116.5c0.1,0.5,0.3,1,0.5,1.5
	c0,0.4,0,0.8-0.1,1.3c-0.2-0.9-0.4-1.6-0.6-2.2C167.5,116.8,167.6,116.6,167.6,116.5z M159.7,118.1c0.1,0.5,0.3,0.9,0.4,1.4
	l-0.6,2.2C159.6,120.5,159.7,119.3,159.7,118.1z M160.2,119.6c0.1,0.2,0.1,0.5,0.2,0.7c0,0,0,0,0,0.1
	C159.9,121.5,159.8,121.4,160.2,119.6z M140.5,100.4l-0.6-1c0,0,0.1,0,0.1,0L140.5,100.4C140.5,100.4,140.5,100.4,140.5,100.4z
	 M136.5,93.7l-0.6-1c0,0,0,0,0.1-0.1L136.5,93.7C136.5,93.7,136.5,93.7,136.5,93.7z M151.8,83.6c0.1,0.4,0.2,0.8,0.3,1.2l-0.5,0.2
	l-0.5-0.9c-0.2-0.4-0.3-0.8-0.5-1.1l-0.2-0.6c0,0,0,0,0,0L151.8,83.6z M189.2,28.1C189.2,28.1,189.3,28.1,189.2,28.1
	C189.3,28.1,189.2,28.1,189.2,28.1z M189.2,28.2C189.2,28.2,189.2,28.2,189.2,28.2C189.2,28.2,189.2,28.2,189.2,28.2
	C189.2,28.2,189.2,28.2,189.2,28.2z M189.2,28.3C189.2,28.3,189.2,28.3,189.2,28.3C189.2,28.3,189.2,28.3,189.2,28.3
	C189.2,28.3,189.2,28.3,189.2,28.3C189.2,28.3,189.2,28.3,189.2,28.3z M189.2,28.7C189.2,28.7,189.2,28.8,189.2,28.7
	C189.2,28.8,189.2,28.8,189.2,28.7C189.2,28.8,189.2,28.7,189.2,28.7C189.2,28.7,189.2,28.7,189.2,28.7z M189.2,29.3
	c0,0,0,0.1,0,0.1c0,0,0,0,0,0C189.2,29.4,189.2,29.3,189.2,29.3C189.2,29.3,189.2,29.3,189.2,29.3z M189.2,29.5
	C189.2,29.5,189.2,29.5,189.2,29.5c0,0.2,0,0.4-0.1,0.6c0,0,0,0,0,0C189.2,29.9,189.2,29.7,189.2,29.5z M189.1,30.9
	C189,30.9,189,30.9,189.1,30.9c0-0.1,0-0.2,0-0.4C189.1,30.6,189.1,30.8,189.1,30.9z M188.8,32.7l0,0.1l0,0.2l0.1-0.6
	C188.8,32.5,188.8,32.6,188.8,32.7z M188.8,33.1c0.4,0,0.5,0.1,1.4,0.3c0.6,0.2,1.1,0.3,1.6,0.5c-0.1,0-0.1,0-0.2,0.1l-2.5-0.1
	l-0.5-0.1l0.1-0.6L188.8,33.1z M166.4,66.6C166.4,66.7,166.5,66.7,166.4,66.6c0.1,0.1,0.1,0.1,0.1,0.2c0,0,0,0,0,0
	c0,0,0,0.1,0.1,0.1c0,0,0,0,0,0.1c0-0.1-0.1-0.1-0.1-0.2C166.5,66.7,166.5,66.7,166.4,66.6C166.4,66.6,166.4,66.6,166.4,66.6
	C166.4,66.6,166.4,66.6,166.4,66.6z M166.9,67.5c0.1,0.1,0.1,0.2,0.1,0.3C167,67.7,167,67.5,166.9,67.5L166.9,67.5z M167.8,69.7
	c0,0.1,0.1,0.2,0.1,0.2C167.9,69.9,167.9,69.8,167.8,69.7C167.8,69.7,167.8,69.7,167.8,69.7z M182,67.6c0.1-0.1,0.2-0.2,0.3-0.3
	c0,0,0.1,0,0.1-0.1c-0.1,0.1-0.2,0.2-0.2,0.3C182.1,67.6,182.1,67.6,182,67.6z M195,44.9l0-0.1C195.1,44.8,195.1,44.9,195,44.9z
	 M221.1,26.3c-0.9,1.1-2,2.2-3,3.4l-0.8,0.9c-0.5,0.5-0.9,1-1.4,1.5c-0.9,1-1.8,1.9-2.7,2.9l-0.3,0.3l-0.2,0.2
	c-0.1,0.1-0.1,0.1-0.2,0.1c-0.3,0-0.6,0-0.9-0.1c-0.4,0-0.8,0-1.2-0.1l0.8-1c0.1,0,0.1,0,0.2,0l0.5,0c0.2,0,0.3,0.1,0.4-0.1l0.7-0.8
	l1.3-1.5c1.4-1.5,2.8-3.1,4.4-4.8c1.3-1.4,2.7-2.9,4.4-4.6C227.1,19.1,224.9,22,221.1,26.3z M203.2,23c2.7-0.6,5.4-1.2,8.2-1.7
	c-0.9,1-1.9,2-2.8,3c-0.1,0.2-0.3,0.1-0.5,0.1l-0.6,0l-1.5-0.1c-1.7-0.1-3.5-0.2-5.2-0.3c-0.4,0-0.7,0-1.1-0.1
	C200.8,23.6,202,23.3,203.2,23z M189.6,22.5l0,0.6l0,0L189.6,22.5C189.6,22.5,189.6,22.5,189.6,22.5z M160.9,62.4
	c0.1-0.6,0.2-1.3,0.3-1.9l0.3-1.5l0.6-3l0.2-0.7l0.2-0.6l0.4-1.2l0.8-2.5c0.6-1.5,1.2-3,1.9-4.5c0.2-0.4,0.3-0.7,0.5-1.1l0.5-0.9
	c0.2-0.4,0.4-0.8,0.6-1.2c1.8-3.3,3.8-6.4,6.1-9.5c0.8-1.5,4.4-3.2,7.8-4.5c1.1-0.4,2.2-0.8,3.3-1.2l0,0.2c0,0.2,0,0.4,0.1,0.6
	c0.1,0.4,0.2,0.8,0.4,1.2c0.1,0.2,0.2,0.4,0.2,0.5l0.1,0.2c0.1,0.1,0.1,0.2,0.2,0.3c0.1,0.2,0.3,0.4,0.5,0.6l1.4,1.4l1.7,0.1
	l-0.1,0.8l0,0l0,0l0,0l0,0c0,0,0,0,0,0l0.2,0c0.1,0,0.2,0,0.3,0.1c0.6,0.1,1.3,0.1,1.9,0.2c-0.2,0.1-0.3,0.2-0.4,0.3
	c-0.5,0.3-1.2,0.9-1.5,1.7c-0.2,0.4-0.4,0.7-0.5,1.1c-0.1,0.2-0.1,0.4-0.1,0.5l0,0.3c-0.1,0.7,0,1.6,0.3,2.3l0.8,2.1l2,0.7
	c0.1,0,0.3,0.1,0.4,0.1c-1.5,1.8-2.9,3.5-4.4,5.3c-1.4,1.7-2.8,3.4-4.2,5l-1.9,2.3c-0.3,0.3-0.6,0.8-1.1,0.9
	c-3.2,1.1-6.4,2.2-9.5,3.4l0,0c-0.1,0-0.2,0-0.2,0.1l0,0c-0.1,0-0.2,0.1-0.3,0.1c-0.2,0.1-0.4,0.1-0.6,0.2c0,0,0,0,0,0.1
	c-0.2,0.1-0.5,0.2-0.7,0.3l-1.5,0.5l-0.6,0.2c-0.1,0-0.1,0-0.2,0.1l-0.3,0.1c-0.3,0.1-0.6,0.2-1,0.3c-0.2,0.1-0.4,0.1-0.9,0.3
	l-0.2,0.1c-0.1,0-0.3,0.1-0.4,0.2l-0.2,0.1c-0.2,0.1-0.3,0.2-0.5,0.4c-0.2,0.3-0.1,0-0.6,0.7c-0.4,0.6-0.7,1.3-0.8,1.9
	c-0.3,1.1,0.1,2.8,0.8,3.6l1.1,0.9c0.5,0.4,0.4,0.3,0.4,0.3l0,0l0,0l0.7-0.3c1-0.2,1.9-0.4,2.9-0.6l0.1,0.4c0,0,0-0.1,0-0.1
	c0,0.1,0,0.1,0.1,0.2l0,0l0,0.1c0,0,0,0,0,0.1c0,0.1,0,0.1,0.1,0.2l0.3,0.8l0,0c0,0,0.2-0.1,0.3-0.1l0.2-0.1l0.3-0.1
	c0.3-0.1,0.6-0.2,0.9-0.3c0,0,0.1,0,0.1-0.1l-1,1.3c0,0,0,0,0,0l-0.2,0.1c-0.1,0.1-0.3,0.1-0.3,0.2c0,0,0,0,0,0l0,0l0,0c0,0,0,0,0,0
	l0,0v0l0.1,0.2l0,0.1c0,0,0,0,0,0l0,0l0,0l0,0l0,0l-0.8,1c-1.2,1.6-2.4,3.2-3.6,4.8l-0.4,0.6l-0.2,0.3c0,0.1-0.3,0.3,0,0l1.6-2.1
	c-0.9,1.2-1.7,2.3-2.6,3.5l-2,0.8l-1.5-7.3l0.5-3.8C160.2,67.3,160.5,64.9,160.9,62.4z M116.4,23.9c0.7,0.2,1.5,0.4,2.2,0.6
	c1.4,0.3,2.9,0.7,4.3,1c0.7,0.2,1.4,0.4,2.1,0.6c0.4,0.1,0.7,0.2,1.1,0.3l0.6,0.2l0.3,0.1l0.5,0.2c0.7,0.3,1.4,0.6,2.1,0.9
	c0.3,0.2,0.7,0.3,1,0.5l0.9,0.5l0.4,0.3l0.4,0.3l0.8,0.6c0.4,0.4,0.9,0.8,1.2,1.2l0.2,0.3l0.1,0.1l0.2,0.2l0.7,1
	c0.5,0.7,0.9,1.4,1.3,2c0.4,0.7,0.8,1.4,1.2,2.1c0.4,0.7,0.8,1.4,1.1,2.2c0.4,0.7,0.7,1.5,1,2.2c0.4,0.8,0.7,1.5,1,2.3
	c0.5,1.3,1,2.6,1.5,3.9l0.7,2c0.2,0.7,0.4,1.4,0.6,2.1c1.7,5.5,3.2,11.7,4.7,17.9c0.7,3.2,1.5,6.3,2.2,9.5l-4.9-1.8l-0.6-0.5
	l-4.1-3.4c-1.3-1.1-2.5-2.3-3.8-3.5c-0.6-0.6-1.2-1.2-1.8-1.8l-1.2-1.3l-2.1-2.3c-0.6-0.6-1.2-1.3-1.7-2c0.2,0.1,0.4,0.2,0.6,0.3
	c0.3,0.1,0.5,0.3,0.8,0.4c0.2,0.1,0.4,0.2,0.6,0.3c0.2,0.1,0.4,0.2,0.4,0.2l0,0l0,0l0,0l0.1-0.1l0.2-0.4l0.9-1.6
	c0.2-0.3,0.3-0.5,0.4-0.8l0.3,0.2l1.7,1l1.9-0.5c0.3-0.1,0.7-0.2,1-0.3c0.2-0.1,0.3-0.2,0.5-0.3c0.2-0.1,0.2-0.1,0.5-0.4
	c0.7-0.6,1.4-1.5,1.7-2.5c0.1-0.5,0.2-0.9,0.2-1.2c0-0.3,0-0.7-0.1-1c-0.1-0.3-0.1-0.7-0.3-1c-0.1-0.4-0.3-0.6-0.3-0.6
	c-0.1-0.2-0.2-0.4-0.3-0.5c-0.1-0.2-0.2-0.3-0.4-0.5l-0.2-0.2c-0.1-0.1-0.2-0.2-0.3-0.3l-0.2-0.2c-0.1-0.1-0.2-0.2-0.3-0.2
	c0,0-0.1,0-0.1-0.1l1.7-2.8c-0.4-0.2-0.9-0.5-1.3-0.7l-0.5-0.3c-0.2-0.1-0.4-0.2-0.6-0.3c-0.4-0.2-0.7-0.3-1-0.4
	c-0.9-0.4-1.7-0.7-2.5-1c-1.5-0.6-3-1.1-4.5-1.6c0.1-0.6,0.2-1.1,0.1-1.7c0-0.2,0-0.3-0.1-0.5l0-0.2c0-0.1-0.1-0.2-0.1-0.3
	c-0.1-0.2-0.2-0.4-0.3-0.7l-0.1-0.3c-0.4-0.7-0.5-0.7-0.7-0.9c-0.2-0.3-0.4-0.4-0.5-0.5l-0.3-0.2c-0.9-1-1.7-2-2.6-3
	c-1.5-1-3.4-2.4-5.5-3.8c-0.1-0.1-0.2-0.1-0.3-0.2c0.9,0.5,1.7,0.9,2.4,1.3l1.3,1l1.5,1.1c-1.1-1.2-2.2-2.5-3.3-3.7
	c-1-0.6-1.9-1.2-2.9-1.8c0.4,0.2,1,0.6,1.6,0.9c0.3,0.2,0.6,0.4,0.9,0.6c-0.9-1.1-1.9-2.2-2.8-3.3c-1-1.1-2-2.3-3-3.4
	c-0.3-0.2-0.3-0.7-0.3-1l-0.1-0.6l0-0.3c0,0,0-0.1,0-0.1L116.4,23.9z M101.3,33.3c-0.1-0.5-0.3-1-0.4-1.5l-2.2-8.6l2.6,8.5
	c0.3,1,0.6,2,0.9,2.8l-0.6-0.3C101.6,33.9,101.5,33.6,101.3,33.3z M72.4,114L72.4,114L72.4,114L72.4,114z M60.1,106.4
	c-0.5,2.4-1,4.9-1.6,7.5c-0.6,2.7-1.1,5.6-1.7,8.7c0-0.5,1.1-6.6-0.3-0.3c-0.8,3.4-1.5,6.9-2.3,10.3l-0.9,3.9l-0.2,1
	c-0.1,0.3,0,0.8-0.5,0.7c-0.7,0.1-1.4,0.1-2.1,0.2l-1.5,0l-1,0c-0.7,0-1.4-0.1-2.1-0.2l-1-0.1l-0.5-0.1l-0.3,0
	c0-0.1,0.1-0.1,0.1-0.2c0.5-1,1-2,1.4-3l2.6-5.8c2.3-5.1,4.7-10.1,7.3-14.9c1.5-2.9,3.1-5.7,4.8-8.4c0,0.2-0.1,0.4-0.1,0.5
	L60.1,106.4z M90.5,91.9c-0.3,0.2-0.6,0.5-0.7,0.7l-0.2,0.2c-0.1,0.2-0.2,0.3-0.4,0.5c-0.3,0.5-0.3,0.5-0.3,0.7
	c-0.1,0.1-0.1,0.3-0.2,0.4l-0.1,0.2l-0.1,0.2l0,0.1c-0.1,0.4-0.1,0.6-0.1,0.8c-0.1,0.4-0.1,0.6-0.1,0.9c0,0.2,0,0.4-0.1,0.6
	c0,0.1,0,0.2,0,0.2c-0.1,0.7-0.3,1.4-0.4,2l0.4-1.8c0-0.2,0.1-0.2,0.1-0.3c0-0.1,0-0.1,0-0.2l0.2-1c0,0.5-0.1,1.1-0.1,1.2
	c0,0.1-0.1,0.7-0.1,1.1c-0.1,0.9-0.3,1.7-0.4,2.6c-0.3,1.8-0.6,3.6-0.9,5.5c-0.3,1.9-0.7,3.7-1,5.6c-0.2,0.9-0.3,1.9-0.5,2.8l-0.2,1
	l-0.1,0.6c-0.1,0.2-0.3,0.3-0.4,0.5l-0.2,0.2l-0.4,0.5c-0.6,0.7-1.1,1.4-1.7,2.1c-0.5,0.7-1,1.2-1.4,1.7c-0.9,1-1.7,1.7-2.4,2.2
	c-0.3,0.2-0.5,0.5-0.8,0.7l-0.4,0.3c0,0.1,0,0-0.1-0.1l0-0.1l-0.1-0.3c-0.3-1.3-0.6-2.6-0.9-4c-0.2-0.7-0.3-1.5-0.5-2.2
	c-0.2-0.9-0.3-1.8-0.5-2.6c-0.1-0.4-0.1-0.3-0.1-0.8l-0.1-1.4l-0.1-2.3l-1.7-1.5c-0.4-0.3-0.8-0.6-1.3-0.9c-0.2-0.1-0.5-0.2-0.7-0.3
	c0,0-0.5-0.1-0.8-0.2c-0.2,0-0.4,0-0.6,0l0-0.3c0-0.2,0.1-0.5,0.1-0.8l0.5-2l-1.1-1.8c-0.1-0.2-0.3-0.4-0.5-0.6
	c-0.1-0.1-0.2-0.2-0.3-0.3l-0.2-0.1c-0.1-0.1-0.3-0.2-0.4-0.3c-0.3-0.2-0.6-0.4-1-0.6c-0.2-0.1-0.3-0.1-0.5-0.2l-0.3-0.1l-0.1,0
	l-0.2,0c-0.5-0.1-1.2-0.1-1.8,0c-0.3,0-0.6,0.1-0.9,0.2c-0.1,0-0.3,0.1-0.4,0.2l-0.3,0.1c-0.1,0.1-0.2,0.1-0.3,0.2
	c0.4-0.6,0.8-1.1,1.2-1.7c1.5-2,3.2-3.8,4.8-5l0.6-0.4c0.2-0.1,0.3-0.2,0.5-0.3c0.2-0.1,0.3-0.1,0.4-0.2c0.1,0,0.1-0.1,0.2-0.1
	c0.1,0,0.3-0.1,0.4-0.1l3.9-1c6-1.4,12.3-2.1,18.6-2.5c-0.3,0-0.5,0.1-0.7,0.1C91.8,91.1,91.1,91.5,90.5,91.9z M113.5,100.7
	c-0.2-0.3-2.6,0.4-6.3,1.8c-0.9,0.3-1.9,0.7-3,1.1c-0.6,0.2-1.1,0.4-1.8,0.7c-0.4,0.2-0.9,0.4-1.3,0.5c-0.5,0.2-1,0.4-1.4,0.7
	c-0.3,0.2-0.6,0.5-0.9,0.8c-0.1,0.1-0.1,0-0.1-0.1l0-0.3l0-0.6c0-0.9,0-1.7,0-2.5c0-0.9,0-1.7,0-2.5c0-0.5,0-0.9,0-1.3
	c0-0.3,0-0.2,0.1-0.7c0.1-0.4,0.1-0.8,0.2-1.1l0.4-2.1l-1.2-1.7c-0.2-0.3-0.5-0.7-0.8-1c-0.2-0.1-0.3-0.3-0.5-0.4l-0.3-0.2
	c-0.1-0.1-0.4-0.3-0.7-0.4c-0.7-0.4-1.7-0.5-2.5-0.4c4.5-0.3,9.1-0.3,13.7-0.3c5.5,0.1,11.1,0.3,16.7,0.7l10.3,0.6
	C127.5,94.5,132.2,93.5,113.5,100.7z M117,109.9c0.5-0.7,1.8-2.1,3.6-3.8l3.2-1.2C117.7,109.8,116.2,111,117,109.9z M113.9,160.5
	c-0.1,0.1-0.2,0.1-0.2,0.2l0.2-0.3c0.1-0.1,0.1-0.1,0.2-0.2L113.9,160.5z M110.5,142.8l0.1,0.5c0,0.1,0,0,0,0.1l0,0c0,0,0,0,0,0
	l-0.2-0.7c0,0,0,0,0,0L110.5,142.8z M112.5,138.3C112.5,138.3,112.5,138.3,112.5,138.3L112.5,138.3
	C112.5,138.3,112.5,138.3,112.5,138.3z M111.1,136.4l-0.4-0.6l0,0L111.1,136.4C111.1,136.4,111.1,136.4,111.1,136.4z M96.9,150.5
	c-0.1,0.1-0.1-0.1-0.1-0.1l0-0.3l-0.1-0.5l-0.2-2.2c-0.1-1.4-0.2-2.8-0.2-4.2c0-1.4,0.1-2.8,0.3-4.1c0.1-0.7,0.3-1.3,0.5-2
	c0.2-0.6,0.5-1.3,0.7-1.9c-0.2,0.6-0.4,1.1-0.6,1.7c-0.2,0.6-0.3,1.1-0.4,1.7c-0.2,1.2-0.3,2.5-0.3,3.8c0,1.3,0.1,2.7,0.2,4.1
	c0.1,0.7,0.1,1.4,0.2,2.1l0.1,0.9c-0.1,0.1-0.2,0.2-0.3,0.3C96.8,150,96.9,150.3,96.9,150.5L96.9,150.5z M110.2,162.8
	c-0.2,0.1-0.4,0.3-0.4,0c-0.3-1.1-0.7-2.2-1.1-3.4c-0.5-1.6-1-3.4-1.4-5c-0.1-0.3-0.2-0.7-0.3-1c-0.1-0.3-0.1-0.6-0.2-0.8
	c0.3-0.3,0.5-0.6,0.8-0.8c0.5-0.5,0.9-1,1.4-1.5c1-1,1.9-2,2.8-2.9c0,0.1,0,0.1,0,0.2c-0.8,0.9-1.7,1.9-2.5,2.8
	c0.8-0.9,1.7-1.8,2.5-2.7c0,1.9,0,3.8,0,5.5c0,3.1,0,6,0,8.6l-0.1,0.1c0-1.6,0-3.1,0-4c0,1.3-0.1,2.7-0.1,4
	c-0.3,0.2-0.6,0.4-0.9,0.6L110.2,162.8z M111.7,164.6l0.1-0.3c0,0.1,0,0.2,0,0.3l-0.1,0.3C111.7,164.8,111.7,164.7,111.7,164.6z
	 M148.3,129.7l-0.3-0.1c0,0,0,0,0,0L148.3,129.7C148.3,129.7,148.3,129.7,148.3,129.7z M134.6,118.4L134.6,118.4L134.6,118.4
	L134.6,118.4z M127.3,145.6c0.1,0.3,0.3,0.7,0.4,1c-0.4,0.7-0.7,1.1-0.9,1.4c-0.1,0.1-0.2,0.2-0.4,0.4c-0.7-3.1-1.4-6.3-2.2-9.5
	l0-0.4c0-0.2,0-0.4-0.1-0.8c0-0.2-0.1-0.3-0.1-0.5c0.1,0.1,0.1,0.2,0.2,0.4c0.3,0.7,0.6,1.4,0.8,2c0.5,1.3,1,2.6,1.5,3.7
	c0.2,0.6,0.4,1.1,0.6,1.7C127.1,145.2,127.2,145.4,127.3,145.6z M125.1,144.5c-1.1-5.8,0-1.6,1.3,3.9c-0.1,0.1-0.1,0.1-0.2,0.2
	C125.8,147.1,125.4,145.7,125.1,144.5z M119.3,149c-0.1-0.6-0.1-1.5-0.2-2.6c0.2,0.7,0.4,1.4,0.6,2
	C119.5,150.4,119.4,150.3,119.3,149z M120.2,153.1c-0.1-0.1-0.2,0-0.3,0.1c0-1.1,0-2.4,0-3.8c0.3,1.1,0.6,2,0.8,2.4
	c0.1,0.6,0.3,1.3,0.4,1.9c-0.2,0.2-0.3,0.3-0.5,0.5C120.5,153.8,120.3,153.4,120.2,153.1z M118.6,138.7
	C118.6,138.7,118.6,138.7,118.6,138.7l1.4-0.4c0,0,0,0,0,0L118.6,138.7z M122.9,161.2l-0.4,0.4l-0.1-0.5c-0.3-1.4-0.7-2.6-1-3.8
	l0.5,0.1c0.3,1.2,0.5,2.4,0.8,3.5c0.9-0.8,1.7-1.6,2.5-2.5l0.4,0.1C124.6,159.5,123.8,160.4,122.9,161.2z M129.3,154.3
	c-0.4,0.5-0.9,1.1-1.4,1.6c0-0.1-0.1-0.3-0.1-0.4c0.3-0.4,0.7-0.8,1-1.2c0.9-1.1,1.8-2.3,2.7-3.4c0.4-0.6,0.8-1.1,1.3-1.7
	c0.4-0.6,0.9-1.1,1.2-1.8c-0.3-0.9-0.6-1.9-0.9-3c0.3,0.7,0.7,1.7,1.2,3C133.2,149.4,131.3,151.9,129.3,154.3z M135.7,147.3
	C135.7,147.3,135.7,147.3,135.7,147.3L135.7,147.3C135.7,147.3,135.7,147.3,135.7,147.3z M151.5,112.5l-0.8,9.2
	c-0.4,8.1,1-4.6-0.3,11c-1.4,10.4-2.9,22.2-5,34.2c-2.1,12.1-4.7,24.4-7.7,35.8c0.8-2.7,1.5-5.4,2.2-8l1.1-4c0.4-1.3,0.7-2.7,1-4.1
	c-0.7,3.5-1.3,5.9-1.7,7.7c-0.3,1.8-0.5,2.9-0.5,3.7c-0.1,1.6,0.2,2.1-0.2,4.3c-0.9,3.2-1.8,6.7-2.8,10.2c-1.1,3.5-2.1,7.2-3.2,10.8
	c-1.2,3.6-2.3,7.1-3.5,10.3c-1.2,3.2-2.3,6.2-3.3,8.9c1.9-6.1,2.3-7.9,1.6-6.9c-0.3,0.5-0.9,1.8-1.7,3.6c-0.4,0.9-0.8,1.9-1.3,3.1
	c-0.5,1.1-1.1,2.4-1.6,3.8c-2.4,6.2-4.2,10.5-5.4,13.6c-1.2,3.2-2,5.1-2.6,6.8c-0.6,1.7-1.1,3-1.7,4.8c-0.3,0.9-0.7,1.9-1.2,3.1
	c-0.5,1.1-1,2.3-1.7,3.8c-0.1-0.1,0.2-0.8,0.4-1.2c0.1-0.4,0.2-0.7,0.2-0.8c0-0.3-0.1-0.1-0.4,0.4c-0.2,0.3-0.3,0.6-0.6,1l-0.1,0.2
	l0,0l0,0.1c0,0-0.1,0.1-0.1,0.1c-0.1,0.2-0.3,0.4-0.4,0.7c-1.3,0-2.6,0-3.6-0.1c-0.4,0-0.7-0.1-0.5-0.3l-1,0c-0.3,0-0.9,0.2-0.6-0.3
	l0.5-0.9l0.8-1.6c3.9-7.9,7.4-16.1,10.9-24.2c6.7-16.4,12.7-33.3,18-50.6c-0.4,0.6-3.7,10.5-1.9,4.4c0.5-1.6,0.9-3.1,1.4-4.5
	c0.4-1.4,0.8-2.7,1.1-3.9c0.7-2.4,1.4-4.4,1.9-6c1-3.3,1.7-5.2,2.1-6.1c1.1-4.1,2-7.9,2.8-11.2c0.8-3.3,1.4-6.3,1.9-8.9
	c1.1-5.2,1.6-9.1,2-11.9c-1.4,7.3-1.7,8-1.7,6.5c0.8-4.2,1.5-7.1,2-9.2c0.5-2.2,0.8-3.7,1.1-5.1c0.3-1.5,0.6-2.9,1-5
	c0.4-2.1,0.7-4.8,1.2-8.9c0.7-2.1,0,2.4-0.7,7.2c-0.8,4.8-1.7,9.9-1.2,9.2c0.6-3.5,1.3-6.7,1.7-9.7c0.5-3,0.9-5.8,1.3-8.5l-2.8-0.7
	c-1-3-2-6-3-9.1c-0.3-2.5,3,9.6,0.9,1.6c-0.4-1.4-0.9-2.8-1.3-4.1c0-0.1-0.1-0.3-0.1-0.4c0-0.2-0.1-0.4-0.2-0.9l-0.1-0.2l-0.1-0.3
	l-0.1-0.3c-0.1-0.1-0.2-0.4-0.3-0.6c0-0.1-0.4-0.7-0.7-1l-0.3-0.3l-0.3-0.3c-0.1-0.1-0.2-0.2-0.4-0.3c-0.3-0.2-0.5-0.4-0.8-0.6
	c-0.1-0.1-0.3-0.2-0.4-0.3l-0.2-0.1l-0.3-0.1c-1.2-0.5-2.7-0.6-3.9-0.3c-0.9,0.2-1.8,0.6-2.6,1.2c-0.2,0.1-0.4,0.3-0.5,0.4l-0.2,0.2
	c-0.1,0.1-0.2,0.3-0.4,0.4c-0.2,0.3-0.4,0.6-0.6,0.9l-1.6,2.6l0.9,2.8l0.1,0.3l0,0.1c0,0.1,0,0.1,0,0.2l0.1,0.8l0.1,0.9
	c0.1,1.2,0.2,2.4,0.3,3.6c0.1,0.9,0.1,1.8,0.2,2.7c0,0,0,0-0.1-0.1l-0.3-0.2l-0.3-0.1c-0.1-0.1-0.3-0.1-0.4-0.2
	c-0.6-0.2-1.3-0.4-1.9-0.4l-0.2,0c-0.1,0-0.3,0-0.4,0c-0.3,0-0.6,0-0.8,0.1c-0.6,0.1-1.1,0.3-1.7,0.6c-0.5,0.2-1,0.6-1.2,0.8
	c-0.2,0.2-0.5,0.4-0.7,0.7c-0.2,0.2-0.4,0.5-0.6,0.8c-0.2,0.2-0.3,0.6-0.4,0.7c-0.2,0.4-0.3,0.9-0.4,1.3l-0.5,2.4
	c-0.5-0.4-1-0.8-1.6-1.1c-0.1-0.1-0.5-0.2-0.8-0.3c-0.3-0.1-0.7-0.2-1-0.2c-0.7-0.1-1.5-0.1-2.1,0.1c-0.4,0.1-0.5,0.1-0.7,0.2
	c-0.1,0-0.3,0.1-0.4,0.1c-0.7-0.4-1.3-0.6-0.9-0.4c0,0,0,0,0,0l0,0l-0.1,0.1l-0.1,0.1l-0.3,0.2l-0.6,0.4l-1.1,0.8l-1.2,0.8l-0.6,0.4
	c-0.1-0.1-0.1-0.4-0.1-0.6c-0.1-0.9-0.1-1.8,0.2-2.7c0.4-0.8,0.8-1.6,1.4-2.4c0.6-1,0.6-1,2.9-3.7c1.8-2.1,3.7-4.2,5.8-6.2
	c4.1-4.1,8.8-8.1,13.7-12.3c3.8-3,6.5-5.3,8.3-6.9l10.5-9L151.5,112.5z M157.2,126.9l0.8,0l0,0L157.2,126.9
	C157.2,126.9,157.2,126.9,157.2,126.9z M159.2,126.8C159.2,126.8,159.2,126.8,159.2,126.8l3.5-0.2c0,0,0,0,0,0L159.2,126.8z
	 M164.9,126.5C164.9,126.5,164.9,126.5,164.9,126.5l2.9-0.2c0,0,0,0,0,0L164.9,126.5z M167.6,135.1L167.6,135.1
	c0,0.1,0.1,0.2,0.1,0.3C167.6,135.4,167.5,135.3,167.6,135.1z M174,134.3C174,134.3,174,134.3,174,134.3c0.3-0.5,0.5-0.7,0.6-0.8
	c-0.1,0.3-0.2,0.5-0.3,0.8c-0.1,0.1-0.1,0.2-0.2,0.4C174.1,134.5,174,134.4,174,134.3z M173.8,143.3c0.5-1.4,0.9-2.6,1.2-3.5
	c0.4-1.2,0.7-2.1,0.9-2.9c0.4-1.5,0.6-2.2,0.6-2.7c0-0.5,0-0.8,0.1-1.5c0-0.1,0-0.2,0.1-0.4c0,0,0,0,0-0.1c0.3-0.6,0.7-1.2,1.1-1.8
	c0.1-0.2,0.2-0.4,0.2-0.5l0.1-0.2l0,0c0,0,0.1,0-0.1-0.1c-0.1,0-0.1-0.1-0.2-0.1c0,0,0.1,0.1,0.1,0.1c0.1,0,0,0,0,0l0,0l0,0
	l-0.1,0.2l-0.2,0.5c-0.3,0.5-0.6,1.1-1,1.6c0-0.2,0.1-0.4,0.2-0.6c0.1-0.3,0.2-0.6,0.3-0.9c0.1-0.1,0.1-0.2,0.2-0.3
	c0.1-0.2,0.1-0.3,0.2-0.5c0-0.1,0.1-0.1,0.1-0.2c0,0,0,0,0,0c0,0,0,0,0,0c0,0,0,0,0,0c0,0,0,0,0.1,0c0,0,0,0-0.1,0
	c0,0,0-0.1,0.1-0.1l0.1-0.1l0-0.2c0,0,0-0.1,0-0.1c0-0.1-0.1-0.1-0.2-0.2c-0.4-0.1-0.4,0.1-0.5,0.1c0,0-0.1,0.1-0.1,0.1l0,0
	c0,0,0,0,0,0.1l0,0c0,0,0,0,0,0l0,0c-0.1,0.2-0.3,0.5-0.5,0.8c-0.2,0.3-0.3,0.7-0.5,1c-0.2,0.4-0.5,0.8-0.8,1.3
	c0.1-0.4,0.3-0.9,0.5-1.4c0.1-0.3,0.3-0.7,0.4-1c0.2-0.3,0.4-0.7,0.6-1l-0.1-0.1c-0.2,0.3-0.4,0.6-0.6,1l-0.4,1.1
	c-0.3,0.7-0.5,1.3-0.7,2c0,0,0,0.1,0,0.1c-0.3,0.5-0.6,1-1,1.6c-0.1-0.1-0.1-0.2-0.1-0.3c0-0.2,0-0.5,0-0.7c0,0,0-0.1,0-0.1l0.8-1.1
	c0.2-0.4-0.2-0.1-0.8,0.7c0-0.7,0.1-1.3,0.1-2c0.4-0.6,0.7-1.2,1.1-1.7l0.1-0.2l0.1-0.3c0.1-0.1,0.1-0.2,0.2-0.4
	c0.1-0.1,0.1-0.2,0.4-0.5l0.1-0.1c0.1-0.1,0.2-0.1,0.2-0.2c0,0,0.7-0.4,1.3-0.4c0.5,0,1,0.2,1.3,0.5c0.2,0.2,0.4,0.4,0.6,0.6
	l0.1,0.2l0,0.1l0.1,0.1c0,0.1,0.1,0.2,0.1,0.3l0.2,0.8l-0.5,0.8l-0.4,0.7l-0.3,0.7c-0.2,0.6-0.5,1.2-0.7,1.8
	c-0.5,1.2-0.9,2.5-1.3,3.7c-0.4,1.1-0.8,2.3-1.2,3.4c-0.3,0.9-0.7,1.8-1,2.6c0.5,0.9,1.1,1.7,1.7,2.6l0.5,0.7l0.6,0.8l1.2,1.6
	C175.9,146.2,174.8,144.8,173.8,143.3z M177.5,129.2C177.5,129.2,177.5,129.1,177.5,129.2C177.5,129.1,177.5,129.2,177.5,129.2
	C177.5,129.2,177.5,129.2,177.5,129.2z M177.4,129C177.4,129,177.4,129,177.4,129C177.4,129,177.4,129.1,177.4,129
	C177.4,129.1,177.4,129,177.4,129z M177.4,129L177.4,129C177.4,129,177.4,129,177.4,129C177.4,129,177.4,129,177.4,129
	C177.4,129,177.4,129,177.4,129C177.4,129,177.4,129,177.4,129C177.4,129,177.4,129,177.4,129z M179.7,145.2c-0.4-0.4-0.9-1-1-1.1
	c-0.4-0.4-0.7-0.7-1-1c0.7,0.4,1.3,0.6,1.8,0.7c-0.3-0.4-0.6-0.8-0.9-1.2l0.3-0.9l0.6-1.7c0.7-1.9,1.4-3.7,2-5.5
	c0.2-0.5,0.4-0.9,0.6-1.2c0-0.1,0.1-0.2,0.1-0.2l0-0.1c0,0,0.1-0.1,0.1-0.1c0.1-0.1,0.2-0.2,0.2-0.1c0,0,0,0,0,0
	c-0.2,0.6-0.2,0.7-0.3,1c0,0,0,0,0,0.1c-0.5,1.3-1.1,3-1.8,5c-0.2,0.5-0.4,1.1-0.6,1.6c-0.1,0.4-0.3,0.7-0.4,1.1
	c-0.1,0.3-0.2,0.6-0.3,0.9c0.1,0.2,0.3,0.4,0.5,0.7c0.2,0.2,0.3,0.4,0.5,0.6c-0.1,0.5-0.2,1-0.3,1.4c0,0,0,0.1,0,0.1
	C179.8,145.3,179.8,145.3,179.7,145.2z M188.2,134.9C188.2,134.9,188.2,134.9,188.2,134.9C188.2,134.9,188.2,134.9,188.2,134.9
	C188.2,134.9,188.2,134.9,188.2,134.9z M188.2,134.9C188.2,134.9,188.2,134.9,188.2,134.9C188.2,134.9,188.2,134.9,188.2,134.9
	C188.2,134.9,188.2,134.9,188.2,134.9C188.2,134.9,188.2,134.9,188.2,134.9z M187.9,134.8C187.9,134.8,187.9,134.8,187.9,134.8
	l0.2,0.2c0,0,0.1,0,0.1-0.1c0,0,0,0,0,0c0,0,0,0,0,0c0,0,0,0,0,0c0,0,0,0-0.1,0L187.9,134.8C187.9,134.9,187.9,134.9,187.9,134.8
	l0.2,0.2L187.9,134.8z M188.2,134.9C188.2,134.9,188.2,134.9,188.2,134.9C188.2,134.9,188.2,134.9,188.2,134.9
	C188.2,134.9,188.2,134.9,188.2,134.9z M188.2,134.9C188.2,134.9,188.2,134.9,188.2,134.9C188.2,134.9,188.2,134.9,188.2,134.9
	C188.2,134.9,188.2,134.9,188.2,134.9z M188.2,134.9C188.2,134.9,188.2,134.9,188.2,134.9C188.2,134.9,188.2,134.9,188.2,134.9
	C188.2,134.9,188.2,134.9,188.2,134.9C188.2,134.9,188.2,134.9,188.2,134.9z M188.2,134.9C188.2,134.9,188.2,134.9,188.2,134.9
	C188.2,134.9,188.2,134.9,188.2,134.9C188.2,134.9,188.2,134.9,188.2,134.9z M188.2,134.9C188.2,134.9,188.3,134.9,188.2,134.9
	C188.3,134.9,188.2,134.9,188.2,134.9C188.2,134.9,188.2,134.9,188.2,134.9C188.2,134.9,188.2,134.9,188.2,134.9z M188.3,134.9
	C188.3,135,188.3,135,188.3,134.9C188.3,135,188.3,135,188.3,134.9C188.3,135,188.3,135,188.3,134.9z M188.3,135
	C188.3,135,188.3,135,188.3,135C188.3,135,188.3,135,188.3,135C188.3,135,188.3,135,188.3,135z M188.3,135
	C188.3,135,188.3,135,188.3,135C188.3,135,188.3,135,188.3,135C188.3,135,188.3,135,188.3,135z M188.3,135
	C188.4,135,188.4,135,188.3,135C188.4,135,188.4,135,188.3,135C188.3,135,188.3,135,188.3,135z M188.5,135.1c0,0-0.1,0-0.1,0
	C188.5,135,188.5,135,188.5,135.1C188.5,135.1,188.5,135.1,188.5,135.1z M188.8,135.1C188.8,135.1,188.8,135.1,188.8,135.1
	c-0.1,0-0.2-0.1-0.3-0.1C188.6,135.1,188.7,135.1,188.8,135.1z M193.8,143.2c0.1,0.1,0.2,0.2,0.2,0.3c0.5,0.6,0.3,0.5-0.2,0
	C193.8,143.4,193.8,143.3,193.8,143.2z M187.8,134.9C187.8,134.9,187.8,134.9,187.8,134.9l-0.3-0.1c0,0.3,0,0.5,0.1,0.7l0,0.1
	c0,0.1-0.1,0.2-0.1,0.4l-0.1,1.3l-0.1,2.4l-0.1,2.7c-0.2,0.6-0.5,1.8-0.9,3.5c0-0.4,0-0.9-0.1-1.3c0-1.2-0.1-2.3-0.1-3.4
	c0.2-0.9,0.3-1.8,0.5-2.7c0.1-0.5,0.2-1,0.3-1.4c0.1-0.5,0.2-0.9,0.2-1.3c0-0.2,0-0.3,0-0.5c0-0.1,0-0.2,0-0.4c0,0,0-0.1,0-0.1
	l-1-0.3c0,0,0,0,0,0l1,0.3c0-0.1,0-0.1,0.1-0.2c0,0,0.1-0.1,0.1-0.2l0-0.1c0,0,0,0,0,0l0,0c0,0.2,0,0.4,0,0.5L187.8,134.9z
	 M185.6,144.5c0,0.7,0,1.4,0.1,2.1c0,0.7,0.1,1.4,0.1,2.1c-0.2,0.7-0.3,1.5-0.5,2.3c-0.2-0.2-0.5-0.5-0.7-0.7
	c0.1-0.8,0.3-1.7,0.5-2.6C185.2,146.6,185.4,145.6,185.6,144.5z M180.2,143.8l-0.3-0.4l-0.2-0.3c-0.1-0.2-0.3-0.3-0.3-0.5
	c0.5-1.4,1-2.8,1.5-4.2c0.4-1.1,0.8-2.2,1.2-3.2C181.5,138,180.8,140.9,180.2,143.8z M184,157.1l-0.2,1.2l-0.9-0.8
	c-0.2-0.2-0.5-0.5-0.8-0.7c-0.5-0.8-0.1-0.6,1.1,0.4l0.3,0.2l0-0.3c0.1-0.8,0.2-1.9,0.5-3.3l0.8-0.2
	C184.5,154.7,184.2,155.9,184,157.1z M185.6,151.3c0.1-0.4,0.2-0.8,0.3-1.2c0,0.5,0,1,0.1,1.5C185.8,151.5,185.7,151.4,185.6,151.3z
	 M186.5,152.1c0-0.6,0.1-0.9,0.1-1c0.1-0.2,0.1,0.3,0.2,1.3C186.7,152.2,186.6,152.1,186.5,152.1z M187,152.8l0.2-0.1l0,1.6
	C187.1,153.9,187,153.4,187,152.8z M187.2,152.7c-0.1-0.1-0.2-0.2-0.3-0.3c-0.2-1.6-0.3-3.4-0.5-5.3c0.2-1.1,0.5-2.3,0.8-3.6l0,1.1
	L187.2,152.7z M189.4,148c-0.2-1.9-0.5-4.3-0.5,5.4c-0.2,5.2-0.5,2-0.8-3.2c-0.1-2.6-0.2-5.7-0.3-8.6c0-1.4-0.1-2.8-0.1-3.9
	c0-0.6,0-1.1,0-1.5l0.3,1.7l1.1,0.7c0,0.1,0,0.2,0,0.3c0.1,0.9,0.3,1.4,0.4,1.1C189.7,151.4,189.7,149.9,189.4,148z M194.7,159.2
	c-0.4-0.3-0.9-0.6-1.2-1c0-0.6,0-1.1,0.1-1.4c0-0.1,0-0.2,0-0.3c0-0.2,0-0.4,0.1-0.5c0-0.3,0.1-0.5,0.1-0.6c0-2.6,0-5.7-0.1-9.2
	c0-0.8,0-1.5,0-2.3c0.5,0.5,0.9,0.9,1.4,1.4c0.5,0.5,1,1,1.5,1.4l0.7,0.7c0.3,0.3,0.3,0.3,0.4,0.4c0.3,0.3,0.6,0.6,0.8,0.9
	c-0.1,0.4-0.3,0.8-0.5,1l0,0.2c0,0.1,0,0.1,0,0.4c-0.1,0.5-0.2,1-0.3,1.4c-0.2,0.9-0.3,1.7-0.5,2.5c-0.3,1.4-0.4,2.5-0.4,2.8
	c0,0.4,0.2,0.1,0.6-1.1c0.2-0.6,0.4-1.4,0.8-2.4c0.1-0.5,0.3-1.1,0.5-1.7c0.1-0.5,0.3-1.1,0.5-1.7c-0.7,2.7-1.4,5.7-2.2,8.6
	c-0.2,0.6-0.3,1.3-0.5,1.9c-0.2-0.2-0.5-0.4-0.8-0.6c-0.2-0.1-0.4-0.3-0.7-0.5C195,159.4,194.9,159.3,194.7,159.2z M196.1,160.9
	c0.1,0.1,0.2,0.1,0.4,0.2c0,0,0,0,0,0C196.3,161,196.2,160.9,196.1,160.9z M201.8,163.9c0.1-0.3,0.2-0.6,0.2-0.9
	C202,163.3,201.9,163.6,201.8,163.9C201.9,163.9,201.9,163.9,201.8,163.9z M202.3,142.6c0.6,0.7,1.2,1.5,1.7,2.1
	c1.8,2.2,2.1,2.8-3.8-3.4l0.8-0.3C201.4,141.5,201.8,142,202.3,142.6z M198.4,137.4c0.1,0.7,0.1,1.5,0.2,2.2c-0.5-0.5-1-1-1.5-1.6
	c-1-1.1-1.7-1.8-2.1-2.3c-0.2-0.2-0.3-0.3-0.4-0.5c0.3,0.2,0.5,0.3,0.7,0.5c0.3,0.3,0.7,0.7,1.2,1.2c-0.4-0.4-0.7-0.7-1-1.1
	c3.1,2.1,0.1-0.4-0.7-1.4c-0.1-0.1-0.1-0.2-0.1-0.2l0-0.1c0.1,0,0.1,0,0.3,0.1c0.3,0.1,1.2,0.7,2.7,1.7c0.2,0.2,0.4,0.3,0.7,0.5
	C198.3,136.6,198.4,137,198.4,137.4z M194.6,128.4C194.6,128.4,194.6,128.4,194.6,128.4l-0.3,0l-0.1,0c-1-1.2-2.8-3.5-5-6
	c-3.1-3.5-7.2-7.3-9.9-9.5c2.1,2,6.4,5.9,9.9,9.9c1.8,2,3.3,3.9,4.4,5.6c-0.2,0-0.4,0-0.6,0c-0.3,0-0.6,0.1-0.9,0.1
	c-0.2,0-0.3,0.1-0.4,0.1l-0.2,0.1l-0.4,0.1c-0.3,0.1-0.6,0.3-1,0.5c-0.2-0.1-0.4-0.2-0.6-0.2c-1.2-0.3-2.7-0.2-3.8,0.3
	c-0.4,0.2-0.8,0.4-1.2,0.7l-0.5-2.4c-0.1-0.3-0.2-0.7-0.3-1c-0.2-0.4-0.1-0.4-0.7-1.4c-0.3-0.4-0.6-0.8-0.9-1.1
	c-0.4-0.3-0.6-0.5-1.3-1c-0.7-0.4-1.5-0.7-2.3-0.8c-0.4-0.1-0.8-0.1-1.2-0.1c-0.2,0-0.3,0-0.4,0l-0.3,0c-0.9,0.1-1.9,0.4-2.5,0.8
	c-0.2,0.1-0.5,0.3-0.7,0.5c0-0.6,0.1-1.2,0.1-1.8c0.1-1.3,0.2-2.6,0.3-3.9l0.2-1.9c0-0.2,0-0.3,0.1-0.4l0.2-0.5l0.8-2.5l-1.4-2.2
	c-0.2-0.3-0.4-0.6-0.6-0.8c-0.1-0.1-0.2-0.2-0.3-0.4l-0.1-0.1l-0.2-0.2c-0.2-0.1-0.3-0.3-0.5-0.4c-0.4-0.2-0.8-0.5-1.2-0.6
	c-0.2-0.1-0.4-0.1-0.6-0.2c-0.2,0-0.5-0.1-0.8-0.2c-0.6-0.1-1.3,0-1.9,0.1c-0.4,0.1-0.8,0.2-1.1,0.3l-1.6-7.8
	c5.6,4.5,9.2,7.1,13.6,10.7c2.3,1.9,4.7,4,7.6,6.9C188.4,120.6,191.6,123.9,194.6,128.4z M166.5,97.1c0.6,0.5,1.3,1.2,2.4,2.1
	c0.4,0,2.9,1.8,6.2,4.4c3.3,2.6,7.5,6.2,11.3,9.8c0.4,0.6-0.6-0.3-2.3-1.7c-1.7-1.4-4-3.4-6.1-5.1c-4.1-3.3-6.8-5.4-0.2,0.7
	c-3.1-2.8-7.3-6.2-11.5-9.8l-2.6-2.2l-0.2-1L166.5,97.1z M257.5,122.7l-0.8,0.6c-0.1-0.3-0.2-0.5-0.4-0.8c-0.3-1.3-0.5-2.6-0.7-3.7
	C256.3,120.1,256.9,121.4,257.5,122.7z M249,108.6c-0.1-0.5-0.2-0.9-0.4-1.4c0.1,0.1,0.1,0.3,0.2,0.4l0.3,1.3
	C249.1,108.7,249,108.6,249,108.6z M243.9,101c-0.1,0-0.1,0-0.2,0c-0.1,0-0.2,0-0.3,0.1c-0.1-0.1-0.1-0.1-0.2-0.2
	c-0.1,0-0.2,0.1-0.3,0.1c0.1,0,0.1,0,0.2-0.1c0,0,0.1,0,0.1,0c-0.1-0.1-0.2-0.2-0.2-0.3c0.1,0,0.2-0.1,0.3-0.1c0,0,0.1,0,0.1,0
	c0.1,0.1,0.2,0.2,0.3,0.3c0.1,0,0.1,0,0.2,0c-0.1-0.1-0.2-0.2-0.3-0.3c0.2,0,0.3,0,0.5,0c0.1,0.1,0.2,0.2,0.3,0.4
	c-0.1,0-0.2,0-0.3,0c0.1,0,0.2,0,0.3,0c0.1,0.1,0.1,0.2,0.2,0.3c-0.2,0-0.4,0-0.6,0c-0.1-0.1-0.1-0.2-0.2-0.2c-0.1,0-0.1,0-0.2,0
	C243.8,100.8,243.8,100.9,243.9,101z M247.9,102.3c0.1,0.1,0.2,0.3,0.3,0.5l0.1,0.2c0.1,0.1,0.1,0.3,0.1,0.4l0.1,0.2l0.1,0.3
	c0.1,0.3,0.1,0.4,0.1,0.6c0,0.1,0,0.2,0,0.4c0.2,1.1,0.5,2.3,0.8,3.5c-0.7-3.3-0.6-2.4-0.5-1.3c0,0.2,0.1,0.4,0.1,0.6
	c-0.1-0.1-0.1-0.3-0.2-0.4c-0.1-0.3-0.1-0.7-0.3-1.2l0.2,1.2c-0.1-0.2-0.2-0.3-0.3-0.5c-0.2-0.6-0.3-1.2-0.5-1.9l0-0.4
	c0-0.1,0-0.3-0.1-0.5c0-0.2,0-0.3-0.2-0.8l-0.1-0.2c0-0.1-0.1-0.3-0.2-0.4l-0.1-0.2l-0.1-0.1l-0.1-0.2c-0.3-0.3-0.6-0.6-1-0.8
	l-0.1-0.1c-0.1,0-0.1-0.1-0.2-0.1c-0.1-0.1-0.2-0.2-0.3-0.4c0,0,0.1,0,0.1,0c-0.1,0-0.1,0-0.2-0.1c-0.1-0.1-0.2-0.3-0.4-0.4
	c0.4,0.1,0.8,0.2,1.2,0.4c0.4,0.2,0.8,0.5,1.2,0.9c0.1,0.1,0.2,0.2,0.2,0.3l0.1,0.1L247.9,102.3z M249.1,108.4
	c0-0.1-0.1-0.3-0.2-0.8c0.1,0.1,0.1,0.2,0.2,0.3C249.1,108.2,249.1,108.5,249.1,108.4z M246.5,102.9l0.1,0.1
	c0.1,0.2,0.3,0.4,0.3,0.5c0,0.1,0.1,0.2,0.1,0.3l0,0.2l0,0.1c-0.3-0.5-0.5-0.9-0.6-1.3C246.5,102.9,246.5,102.9,246.5,102.9z
	 M245.4,102.1c0.6,0.9,1.2,1.8,1.8,2.7c0,0.1,0,0.2,0,0.4c0.1,0.3,0.1,0.5,0.2,0.8c-0.5-0.9-1.1-1.7-1.7-2.6c-0.3-0.5-0.7-1-1-1.5
	C245,101.9,245.2,102,245.4,102.1z M251.9,113.2c0.1,0.1,0.1,0.1,0.1,0.1c-0.1-0.1-0.1-0.2-0.2-0.3c-0.1-0.6-0.2-1.2-0.2-1.5
	c0,1-0.3,0.5-0.7-0.8c-0.2-0.7-0.5-1.6-0.7-2.6c-0.2-1-0.5-2.1-0.8-3.2l0-0.3c0-0.2,0-0.3-0.1-0.7c0-0.2-0.1-0.3-0.2-0.7
	c0.8,1.3,1.7,2.8,2.7,4.6c0,0.2,0.1,0.3,0.1,0.5c0.1,0.5,0.2,0.9,0.2,1.3c-0.2-0.3-0.4-0.5-0.6-0.8c-0.2-0.7-0.4-1.6-0.7-2.8
	l0.7,2.7c-1.4-1.9-1.9-2.4-0.6,1.1c0.5,1,1.1,1.9,1.6,2.9l0.7,2.8c0.1,0.4,0.1,0.7,0.2,1c-0.5-1-1-2.1-1.5-3
	C251.9,113.4,251.9,113.3,251.9,113.2z M246.1,97.9c0.4,0.1,0.8,0.3,1.2,0.4l0.4,0.2l0.3,0.2c0.7,0.4,1.4,1,1.9,1.6
	c0.2,0.3,0.4,0.5,0.5,0.8c0.1,0.1,0.1,0.3,0.2,0.4l0.1,0.3l0.1,0.3l0.1,0.3l0.1,0.2l0.1,0.4l0.1,0.4c0.1,0.4,0.1,0.6,0.1,0.8l0,0.2
	c0,0,0,0,0,0l0,0.1l0,0.1c0,0.2,0.1,0.4,0.1,0.5c0,0.3,0.1,0.5,0.1,0.7c-0.4-0.7-0.8-1.4-1.3-2.1c-1.2-1.9-2.5-3.8-3.9-5.5
	c-0.1-0.2-0.3-0.3-0.4-0.5C246,97.9,246,97.9,246.1,97.9z M245.5,97.8c0,0,0.1,0.1,0.1,0.1c0.8,1,1.4,2,2.1,3
	c-0.3-0.3-0.6-0.5-0.9-0.7c-0.1-0.1-0.8-0.4-1.4-0.5c-0.3-0.1-0.7-0.1-1.1-0.1c-0.5-0.6-1-1.1-1.4-1.6c-0.1-0.1-0.1-0.1-0.2-0.2
	c0.2,0,0.4-0.1,0.7-0.1C244.1,97.7,244.8,97.7,245.5,97.8z M242.3,98c0.5,0.5,0.9,1.1,1.4,1.7c0,0,0,0-0.1,0c-0.1,0-0.3,0-0.4,0.1
	l0,0c-0.5-0.6-0.9-1.1-1.3-1.5c0,0,0,0,0,0C241.9,98.1,242.1,98,242.3,98z M241.6,98.2c0.5,0.5,0.9,1,1.4,1.5l-0.1,0
	c-0.1,0-0.3,0.1-0.4,0.1c-0.4-0.5-0.9-1-1.4-1.5C241.3,98.3,241.4,98.3,241.6,98.2z M240.9,108.2c0,0.1,0,0.2,0,0.2c0,0,0,0,0,0
	c-0.2-0.1-0.4-0.1-0.7-0.1c0-0.1,0-0.2,0-0.2C240.4,108.1,240.6,108.1,240.9,108.2z M241.7,113.5c0-0.6,0-1.2,0-1.9c0,0,0,0.1,0,0.1
	c0,0.1,0,0.2,0,0.3c0,0.3,0,0.4,0,0.5c0,0.2,0,0.4,0,0.5C241.8,113.2,241.7,113.4,241.7,113.5z M240.2,109.3c0-0.2,0-0.4,0-0.6
	c0.2,0,0.5,0.1,0.7,0.2c0,0.1,0,0.2,0,0.2c0,0.1,0,0.3,0,0.4C240.7,109.4,240.5,109.3,240.2,109.3z M237.4,108.7
	c0.3-0.2,0.5-0.3,0.8-0.4l0.2-0.1c0,0,0.2-0.1,0.3-0.1c0.2-0.1,0.5-0.1,0.7-0.1c0,0.1,0,0.2,0,0.2c-0.1,0-0.3,0-0.4,0
	c-0.7,0.1-0.7,0.2-0.9,0.3c-0.3,0.1-0.5,0.3-0.8,0.4C237.4,108.9,237.4,108.8,237.4,108.7z M237.4,106.5
	C237.4,106.5,237.4,106.5,237.4,106.5l0.3-0.1l0.2-0.1c0.1,0,0.3-0.1,0.4-0.1c0.3-0.1,0.6-0.1,0.9-0.1c0,0.2,0.1,0.3,0.1,0.4
	c0,0,0,0,0,0c-0.2,0-0.3,0-0.5,0c-0.2,0-0.5,0.1-0.7,0.1l-0.2,0.1l-0.1,0c-0.1,0-0.3,0.1-0.4,0.2
	C237.4,106.8,237.4,106.7,237.4,106.5z M235.6,113.7c0,0.2,0,0.3-0.1,0.5c-0.1,0.3-0.1,0.5-0.2,0.8c-0.1,0.5-0.2,1-0.3,1.5
	c-0.1,0.2-0.1,0.4-0.1,0.6c0,0.1-0.1,0.2-0.1,0.4c0.1-0.6,0.2-1.1,0.3-1.6c0.1-0.6,0.2-1.1,0.3-1.6c0.1-0.4,0-0.4,0.1-1
	c0-0.5,0-0.9,0-1.3l0.1-1.7l1.3-1.2c0,0,0.1-0.1,0.1-0.1c0,0.1,0,0.2,0,0.3l-1.2,1.1l-0.1,1.6C235.7,112.5,235.7,113.1,235.6,113.7z
	 M236.6,113.1c0,0.2,0,0.4-0.1,0.6c0,0.1,0,0.3-0.1,0.4c-0.1,0.4-0.2,0.9-0.3,1.4c-0.1,0.5-0.3,1.1-0.4,1.8c0-0.4,0.1-1.2,0.2-2.2
	c0-0.2,0.1-0.5,0.1-0.8c0-0.2,0-0.4,0-0.5c0-0.6,0-1.2,0.1-1.8l0-1.4l0.8-0.7c0,0.2,0,0.5,0,0.7l-0.2,0.2l-0.1,1.2
	C236.7,112.3,236.7,112.7,236.6,113.1z M239.1,109.3c-0.4,0.1-0.4,0.1-0.5,0.1c-0.1,0-0.2,0.1-0.3,0.2c-0.2,0.1-0.4,0.3-0.6,0.4
	l-0.4,0.3c0-0.1,0-0.1,0-0.2c0-0.2,0-0.4,0-0.6c0.3-0.3,0.7-0.5,1.1-0.6c0.1,0,0.2-0.1,0.3-0.1c0.2-0.1,0.5-0.1,0.8-0.1
	c0,0.2,0,0.4,0,0.6C239.4,109.3,239.2,109.3,239.1,109.3z M240.9,133c-0.1-1-0.2-1.3-0.4-0.8c0,0.5-0.1,1-0.1,1.6
	c0.2,0.1,0.3,0.2,0.5,0.3c0,0.3,0,0.6,0,1c0,0-0.1,0-0.1,0l-0.4-0.7c0,0.2,0,0.4,0,0.5c0,0-0.1,0-0.1-0.1c0-0.2,0-0.5,0-0.7
	l-0.2-0.4c0.1,0,0.1,0.1,0.2,0.1c0.1-5.8,0.1-9.7,0-13.3c0-2.3-0.1-4.5-0.1-7c0-1,0-2.2,0-3.3c0.1,0,0.1,0,0.2,0
	c0.1,0,0.2,0.1,0.3,0.1c0.1,0,0.1,0.1,0.2,0.1c0,0,0,0,0,0c0,1,0,2.1,0,3.2c0,3.1,0,6.2,0,9.2C240.9,126.4,240.9,129.8,240.9,133z
	 M243.4,110.3c0.1,0.2,0.2,0.4,0.3,0.7c0,0.1,0.1,0.2,0.1,0.3l0,0.1l0,0.3c0,0.2,0,0.3,0,0.4c0,0.4,0,0.5,0,0.7c0,0.3,0,0.5-0.1,0.7
	c0,0.4-0.1,0.7-0.1,1c0,0.1,0,0.3,0,0.4c0,0.2,0,0.5,0,0.7c0,0.9,0,1.7,0,2.5c0,1.5,0,3.1,0,5.8c-0.6,5.3-0.8,5.8-1.3,8.3
	c-0.2-0.1-0.4-0.2-0.7-0.4c0-1.9,0-3.9,0-5.9c0,0.1,0,0.2,0,0.2c0.2-4.5,0.4-7.2,0.5-9.1c0.1-0.9,0.1-1.7,0.1-2.5
	c0-0.1,0-0.2,0.1-0.4c0-0.2,0.1-0.4,0.1-0.6c0-0.2,0.1-0.5,0.1-0.8c0-0.2,0-0.3,0-0.6l0-0.2c0-0.1,0-0.2,0-0.4l0-0.1
	c0-0.1-0.1-0.2-0.1-0.3c0-0.1-0.1-0.2-0.1-0.3l0-0.1l-0.1-0.2c-0.1-0.2-0.2-0.3-0.3-0.4c-0.1-0.1-0.1-0.1-0.2-0.2c0-0.1,0-0.3,0-0.4
	c0-0.1,0-0.3,0-0.4c0,0,0,0,0,0c0.1,0.1,0.3,0.2,0.4,0.3c0.2,0.2,0.5,0.5,0.6,0.8l0.1,0.2l0,0.1l0.1,0.1c0,0.1,0.1,0.2,0.1,0.3
	c0.1,0.5,0.1,0.5,0.2,0.7l0,0.2l0,0.1c0,0.2,0,0.3,0,0.4l0,0.3c0,0.3,0,0.5-0.1,0.7c0,0.4-0.1,0.7-0.1,1.1c0,0.3,0,1.1-0.1,1.7
	c0,1.3-0.1,2.6-0.1,3.6c0.1,1.1,0.2,0.4,0.3-1.1c0-0.8,0.1-1.8,0.2-2.9c0-0.3,0-0.6,0-0.9c0-0.2,0-0.3,0.1-0.5
	c0-0.3,0.1-0.7,0.1-1.1c0-0.2,0-0.4,0.1-0.7c0-0.2,0-0.3,0-0.7c0,0,0-0.3,0-0.4l-0.1-0.3c0-0.2-0.1-0.4-0.2-0.6l-0.1-0.3l0-0.1
	l-0.1-0.2c-0.1-0.1-0.2-0.3-0.3-0.4c-0.2-0.3-0.5-0.5-0.7-0.7c-0.1-0.1-0.2-0.2-0.4-0.3c0-0.1,0-0.2,0-0.3c0,0,0.1,0,0.1,0
	C242.4,108.9,243.1,109.6,243.4,110.3z M240.8,106.7c-0.1,0-0.2,0-0.3,0c-0.1,0-0.2,0-0.4,0c0-0.1,0-0.2,0-0.2c0-0.1,0-0.1,0-0.2
	c0.2,0,0.4,0,0.7,0.1C240.8,106.3,240.8,106.5,240.8,106.7z M242.8,101.2c-0.3,0.1-0.5,0.2-0.7,0.4c-0.1,0.1-0.2,0.2-0.3,0.3
	l-0.1,0.1c-0.1,0.1-0.1,0.1-0.2,0.2c-0.1,0.1-0.2,0.3-0.3,0.5l-0.8,1.3l0.3,1.5c0,0.2,0.1,0.5,0.2,0.7c-0.2,0-0.4-0.1-0.7-0.1
	c0-0.2-0.1-0.3-0.1-0.5l-0.4-1.8l0.9-1.4c0.1-0.2,0.2-0.4,0.4-0.5c0.1-0.1,0.1-0.2,0.2-0.2l0.1-0.1c0.1-0.1,0.2-0.2,0.3-0.3
	c0.3-0.2,0.6-0.4,1-0.5c0.1,0.1,0.2,0.2,0.2,0.3c0,0,0,0,0,0c0,0,0,0,0,0c0.1,0.1,0.1,0.1,0.2,0.2
	C242.9,101.2,242.9,101.2,242.8,101.2z M246.6,105.4c-0.4-0.5-1.2-1.7-2.3-3.1c-0.1-0.1-0.2-0.3-0.3-0.4c0.2,0,0.3,0,0.5,0
	c0.6,0.8,1.2,1.6,1.7,2.5C247,105.6,247,105.8,246.6,105.4z M252.6,116.7c0.5,0.9,0.9,1.8,1.4,2.7c1,5.9-1.7-5.2,1.5,10.4
	C254.8,126.5,253.5,120.9,252.6,116.7z M262.9,134.7c0,0.1-0.3,0-0.6-0.1c-0.2-0.1-0.5-0.1-0.6-0.2c-0.2-0.1-0.2-0.2-0.3-0.2
	c0,0,0-0.1,0-0.1c0,0,0,0,0-0.1l0,0c0,0,0,0-0.1,0c0,0-0.1,0-0.1,0.1c-0.1,0-0.1,0.1-0.2,0.1c-0.1,0-0.2,0-0.3,0c-0.1,0-0.2,0-0.4,0
	c-0.4,0-0.9,0-1.6,0c0.1,0,0-0.1,0-0.1c0,0,0-0.2,0-0.3c0-0.1,0-0.1,0-0.2l0-0.1c-0.1-0.3-0.1-0.7-0.2-1c-0.4-1.7-0.8-3.6-1.1-5.5
	c-0.1-0.5-0.2-1-0.3-1.5c0.5,1,0.9,1.9,1.4,2.9c-0.1-0.3,0.4,0.4,1,1.5c0.3,0.5,0.7,1.1,1,1.7c0.2,0.3,0.3,0.6,0.5,0.9
	c0.1,0.1,0.2,0.3,0.2,0.4c0,0.1,0,0.1,0.1,0.1l0,0c0.2,0.1,0.3,0.1,0.3,0c0.3,0.5-0.7-2-2.5-5.8c0.1,0,0.5,0.6,1,1.6
	c0.3,0.5,0.6,1.1,0.9,1.7c0.3,0.6,0.7,1.4,1.1,2.1c0.4,0.6,0.9,1.6,1.3,2.3C263.1,134.6,263,134.7,262.9,134.7z"/>
<path class="st2" d="M267.4,292.1c-0.4-0.7-0.5-1.4-0.3-2.1c3.8,4,12.2-1,14.7,1.6c-0.3,0.1,2.9-0.2,3.1-0.4
	c5.6-2.2-1.8-4.1-6.2-4.3c-8.6-0.3-22.5,2.3-30.4-0.8c0.7,1-4.7-1.7-6.8,1.4c-0.3-1.1-1-1.6-2.1-1.4c1.6,0.1,1.8,0.5,1.8-1
	c-3.1,0.2-3.3,1.3-6.3-0.5c1.7,1.9-3.4,1.6,2,1.6c-6.3,5-14.8-4.5-22.3,0.5c-0.7-0.7-1.5-1.4-2.3-2.1c-8.1,3.3-19.2,0.3-30.2,0.3
	c-5.8,0-18,3.2-23.2,0.7c1.4-0.5,1.4-1-0.1-1.3c-2.6,1.2-1.6,1.2-4,1.5c-2.6,0.3-7.9,1.6-10.7,1.8c-2.9,0.2-5-4-1.8,0
	c-0.8-0.1-9.5-2-10-1.2c1.6-0.2,1.4,0.3-0.2,1.4c-0.1-0.1-2-2.6-0.6-0.3c-4.4-0.8-6.6-2.6-9,0c-4.1,1.4-10.5-1.8-14.7-1.7
	c0.5,0.3,0.7,0.7,0.7,1.3c-4.1,0.5-14.8-0.5-12.8-0.5c-0.4-0.3-0.9-0.6-1.3-0.9c0.7,0.1,1.3,0.3,2,0.4c-0.1-0.1-11.3-1.2-10.9-1.4
	c0.3,0.3,0.1,0.4-0.7,0.2c0.2,0.5,0.5,0.8,1.1,1c-0.3,1.3-3.3-1.4-3.3-1.5c-1.5,2.2-4.8,2.2-7.9,1c0.5,0.7-2,0.5-1.6,0.5
	c-0.2,0.1,2.8,1.6,0.1,1.9c-3.3-0.9-1.5-1.4-5.5-1c0.2-0.3,0.4-0.7,0.6-1.1c-2,2.2-7.3,0.5-9.4,1c0.1,0-6.9,0.8-10.1,0.7
	c-2.2,0-3.3-0.7-5.9-0.3c0.3,0.4-0.1,0.5-0.3,1.9c-1-0.3-4.8-4.5-4.5-1.4c-7-1.6-12.1,1.6-15.8-0.5c-0.3,0.6-0.6,1.3-0.9,1.9
	c-4.5-3.1-7.9,2.3-9.8,0.7c0.1-0.7-0.1-1-0.6-0.5c0.3,1,3.1,0.8,3.8,1.1c-1.5-1.4,1.8-0.6,2.9-1.2c-0.4-0.1-0.5-0.5-0.4-0.9
	c-0.3-0.1,14.5,3.5,10.8,0.3c2.1,1.9,6.2,1.2,4.5,0.3c0.8-0.1,1.6,0.1,2.2,0.6c-0.1-2.5,2.4,0.5,2.5,0.3c0.7-0.3,0.9-0.7,0.4-1.3
	c0.7,0,1.6,1.2,2.6,1.8c7.9,0,13.8-0.3,22.3,0.4c-0.3-0.3-0.5-0.7-0.7-1c3.9-0.9,11-0.2,11.4,0.6c0.5,0.1,1.2,0.1,1.7,0.2
	c0.1,0,14.4,1.5,13.2-1.4c0.1,0.9,1.7,2.2,2,2.2c-2-1.5-0.1-1.4,5.6,0.2c-2.1-2.3,4.8,0.5,4.9,0.5c-0.7-0.5-1.6-1-2.4-1.4
	c23.9,2.9,42.9-2.9,65.8,1c1.1-0.3,7.5-1.5,8.3-1.3c2,3.2,16.6,0.3,18.2,0.1c0.5,0.4-0.1,2,0.4,0.1c9.4,1.5,18.5,3.4,30.6-0.1
	c0.9,0.1,1.8,0.3,2.5,0.8c3.7,0.2,20-0.3,19.9-0.5c2.9-1.2,6.4,1.9,10.6,1.2c0-0.5,0.1-0.9,0.1-1.4c0.2,0.3-2.1,0.3-1.9-0.7
	c-0.6,0.2,4.4-0.5,2.2-0.3c-0.3,1,8.4,3,8.4,3C262.9,292.9,267.5,288.9,267.4,292.1z M238,290.4C239.4,290.6,238,290.4,238,290.4z
	 M235.9,290.4C236.8,289.7,237.2,290.2,235.9,290.4z M240.4,285.4C241.1,286.4,239,285,240.4,285.4z"/>
</svg>
