<?xml version="1.0" encoding="utf-8"?>
<!-- Generator: Adobe Illustrator 21.0.0, SVG Export Plug-In . SVG Version: 6.00 Build 0)  -->
<svg version="1.1" id="Layer_1" xmlns="http://www.w3.org/2000/svg" xmlns:xlink="http://www.w3.org/1999/xlink" x="0px" y="0px"
	 viewBox="0 0 248 248" style="enable-background:new 0 0 248 248;" xml:space="preserve">
<style type="text/css">
	.st0{fill:#B5AED3;}
</style>
<g>
	<path class="st0" d="M133.7,189.4c0,0,0,0.1,0,0.2C133.9,189.6,133.9,189.6,133.7,189.4z"/>
	<path class="st0" d="M125.2,177.9c0.2,0,0.2,0,0.6,0c0.1-0.1,0.1-0.3,0.3-0.5C125.6,177.7,125.3,177.2,125.2,177.9z"/>
	<path class="st0" d="M133.7,186C133.7,186,133.7,186,133.7,186C133.8,186,133.8,186,133.7,186z"/>
	<path class="st0" d="M160.5,149.5C160.5,149.6,160.5,149.6,160.5,149.5C160.7,149.7,160.6,149.6,160.5,149.5z"/>
	<path class="st0" d="M149.1,191.4c0,0.1,0,0.2-0.1,0.3C149.1,191.7,149.1,191.6,149.1,191.4z"/>
	<path class="st0" d="M158.8,155.9c0,0-0.1,0-0.1-0.1C158.5,156,158.6,156,158.8,155.9z"/>
	<path class="st0" d="M156.6,106.9c0,0-0.1,0-0.2,0C156.6,107,156.8,107.1,156.6,106.9z"/>
	<path class="st0" d="M160.5,150.2c0-0.2-0.1-0.3,0-0.6c-0.1,0-0.3-0.1-0.6-0.2C160.4,149.9,159.7,150.1,160.5,150.2z"/>
	<path class="st0" d="M191.7,227.9C191.8,227.7,191.8,227.7,191.7,227.9L191.7,227.9z"/>
	<path class="st0" d="M196.7,225.4c0.1-0.1,0.1-0.1,0.2-0.2C196.7,225.2,196.6,225.3,196.7,225.4z"/>
	<path class="st0" d="M221.6,164.4c-0.2-0.8-0.3-1.6-0.5-2.4c-0.6-0.7-2.5-5.8-2.8-7.1c0.4,0.8,0.8,1.6,1.3,2.5
		c-0.6-2.2-2.3-5.6-4.1-7.2c0.2,0,0.4,0,0.6,0.1c0-0.6-0.2-1.1-0.7-1.3c0,0.2,0,0.4-0.2,0.5c-0.9-0.6-1-2.7-1.6-3.6
		c0.1,0,0.2,0,0.3,0c-2.6-4-4.5-8.4-6.7-12.5c0,0-2.2-3.7-4.5-4.8c-0.4-0.2-2.7,0.5-3.3,0.5c1.2-1.7,2.4-3.2,2.7-6.4
		c0-0.2-2.2-3.3-1-3.3c0.1,0,0.9,1.8,1.1,1.4c-1,0.4-1.8-13-2.1-13.4c0.2,0.5,0.4,1,0.5,1.5c-0.6-3.4-4.2-19.8-6.6-20.1
		c-0.5-0.8-0.8-1.6-1-2.5c0.1,0.2,0.3,0.5,0.6,0.7c-0.3-0.3-0.5-0.7-0.7-1.1c0,0,0,0.1,0,0.1c0,0,0-0.1,0-0.1c0,0,0,0,0,0
		c0-0.2,0-0.4,0.1-0.5c0.1,0.1,0.9,2.1,1.1,2c-1.1-2.6-2.7-5-4.2-7.4c0.1-0.5,2.7,4.2,1.7,1.6c0.5,1,1,2.1,1.4,3.2
		c-0.3-2.5,0.4,0.4,0.6,0.2c1.7-2-4.7-8.3-6.7-8.4c-2.2-0.1,2.1-2.7,1.9-2.5c2.4-2.1,4.3-1.7,4.6-6.2c0.2,0.4,0.4,0.7,0.6,1.1
		c0-2.4-0.7-4.5-0.6-6.9c0.2,0.6,0.4,2,0.3,2.7c0.8-6-0.5-12.9-0.8-19.3c0.7,1.2,0.4-5,0.2-6.2c-0.5-4.1-1.9-7.8-5.1-10.6
		c-2.6-2.3-6.7-3.7-7.8-3.8c-5.4-1-11.3,0.5-16.8-0.1c0.3,0,0.6-0.1,0.9-0.1c-2.4-0.1-4.7,0.8-7.1,0.5c0.2,0,0.4-0.1,0.6-0.1
		c-2.1-0.1-8.4,1.1-10.2,0c-1.9-1.2-2.9-6.8-3.9-8.8c-1.4-3-3.2-6.3-4.8-9c-3.6-5.9-10.8-4.2-17-4c0.5-0.1,1,0.1,1.5,0.3
		c-4.8,0.3-12-2.8-13.9,3.8C109.4,7,109.8,6,110,5.6c-1.6,3.6-3.5,6.9-5.3,10.9c0-0.2,0-0.4,0-0.6c-3.1,6-2.1,8.4-8.7,8.4
		c2.6,0.2,0.5,0.6-0.6,0.5c0.1,0,0.1,0.1,0.2,0.1c-0.7,0.3-1.4,0.3-2.1,0c0-0.2,0.1-0.4,0.3-0.5c-0.6,0-1.3,0-1.9,0.1
		c0.2-0.2,0.4-0.3,0.6-0.4c-6.8,1.9-15.4-0.6-22.7,0.9c-5,1.1-8.8,2.5-11.8,6.8c-0.3,0.4-2.2,4.5-1.7,2.9c-1.6,3.7-0.9,8.7-0.8,12.7
		c0-0.3,0.2-0.5,0.4-0.6c0,0.9-0.5,2.4-0.4,2.1c0.4,6.2-2.9,18.6-0.1,22.4c1.9,2.8,4,0.9,5.9,1.9c0.3,2.6-0.5,2.3-2.2,4.8
		c-5.7,8.4-7.9,18.4-10,27c-1.7,3.7-1.5,11.5-2,15.4c-0.1,0.8-0.9,1.4-0.8,2.2c0.1,2.1,2.3,4,2.3,5.8c-7.4-1.3-6.7,4.9-9.6,9.4
		c0.1-0.5,0.2-1.1,0.3-1.6c-3.5,8.3-8.1,16.1-11.7,24.4c0-0.5,0.2-0.9,0.4-1.4c-2.6,3.4-1.7,6.3,1.4,8.8c1,0.8,5.2,3.2,6.1,2.4
		c0.3-0.3,0.6-0.7,0.8-1.1c-0.3,6.2-0.7,12.1-1.2,18.3c-1,10.9-4.2,25.6,0.2,36.6c-0.1,0-0.1,0-0.2-0.1c1.3,2.8,3.4,5.2,6.6,6.1
		c4.9,2.3,9.5,5,14.5,7.1c-0.4-0.1-0.7-0.2-1.1-0.4c0.6,0.5,1.4,0.8,2.2,0.9c0.1,0.1-1.4-0.6-1.1-0.7c1.2-0.4,3.2,1.6,4.4,1.3
		c-0.3,0.4,4.3,2.7,1.7,2.3c0,0,3.9,1.3,1.7,0.8c1.9,0.7,4,0.9,6,1.4c-0.4,0.1-0.8,0.1-1.1,0.1c6.9,0.6,12.4,0.4,19.8,0.7
		c-0.7,0.3,4.3,0.7,5.1,0.6c-0.4-0.1-0.8-0.2-1.2-0.3c2.3,0,4.7-0.4,7-0.2c-0.6,0.1-1.3,0.2-1.9,0.2c1.6,0,3.2-0.1,4.8-0.1
		c-0.9,0-1.8-0.2-2.7-0.2c2.4-0.3,4.4-0.6,7-0.2c4.2-0.6,7.3,1.4,12-0.1c-0.3,0.1,3.8,0,4.9,0.1c-0.3,0.1-0.6,0.1-0.9,0.1
		c3,0.1,9.7,1.1,12.2,0.2c-0.7,0.3-1.6-0.1-2.4,0.2c4.1-1.4,12.9-0.5,17.3-0.4c-0.3,0-0.7,0-1-0.1c1-1,4.7,0,6.4,0
		c-0.2,0-0.3,0.2-0.3,0.3c4.4,0.2,8.9-0.3,13.3-0.4c-0.2,0.1-0.5,0.1-0.7,0.2c8.6,0.7,14.3-2.5,21-5.7c-0.4-0.4,1.5-1.1,1.6-1.2
		c-0.3,0.3-0.6,0.6-0.9,0.8c1.9-0.9,3.9-1.8,6.1-2.5c-0.2,0.1-0.3,0.3-0.3,0.5c1.6-0.9,3.2-1.8,4.8-2.7c-0.7,0-1.3,0.2-1.9,0.4
		c0.9-0.8,2-1.4,3.1-2c-2.3,1.5,2.2-0.6,2.7-0.9c2.2-1.1,3.5-2.4,6.1-3.6c0.2,0-1.3,1.2-1.3,1.2c2.4-1.3,2.9-2.7,4.2-5
		c-0.2,1.1-0.7,2.2-1.4,3.1c1.1-0.9,2.1-2.7,2.2-3.6c0.4-1.3,0.7-2.5,0.9-3.8c-0.1,0.3-0.2,0.6-0.3,1c-0.6-2.7-0.1-5.4-0.3-8.1
		c0.1,0.1,0.2,0.1,0.3,0.2c0.6-2.4,1.4-8.8,0.2-10.8c0.1,0.1-0.3,1.2-0.3,1.3c-0.9-4.4-0.4-9.1-1.1-13.5c-0.5-3.3-1.4-6.4-1.6-9.7
		c0.3,0.5,0.4,1,0.5,1.5c0-2.1-0.2-4.7-0.2-6.3c0-0.8-0.9-6.1,0.2-2.1c-0.3-1.6-0.7-3.2-0.9-4.9c0.3,0.6,0.6,1.3,0.7,2
		c-0.1-0.7-0.2-1.4-0.3-2.1c0.2,0.2,0.7,1.2,1.1,1.1c-0.9-0.7-1.2-1.6-2-2.7c-0.6,0.2,0.8,7.4,0.8,7.9c-1.1-2.5-0.9-5.8-1.2-8.5
		c2.6,5,11.9,2.2,9.7-3.1C221.1,162.3,221.2,163.3,221.6,164.4z M192.6,39.4c0,0.9,0,1.8,0.1,2.7C192.3,42.5,192.7,38.2,192.6,39.4z
		 M192.8,45.5c0,0.5,0,1,0.1,1.5C192.3,46,192.3,45.5,192.8,45.5z M207.2,201.2C206.8,200.2,207.1,200,207.2,201.2L207.2,201.2z
		 M206.8,195.8C206.9,196.8,206.6,196.5,206.8,195.8L206.8,195.8z M131.2,11.9C130.8,11.6,131.1,11.5,131.2,11.9L131.2,11.9z
		 M130.6,11.9C130.6,11.9,130.2,11.9,130.6,11.9L130.6,11.9z M114.3,14.5C114.6,14.7,114.4,14.9,114.3,14.5L114.3,14.5z M111.5,20.1
		C111.9,20.3,111.6,20.5,111.5,20.1L111.5,20.1z M110.7,24.6c0,0-0.5-1.1-0.6-0.7c0.3-0.9,0.8,0,0.9-1.4c0.7-1,1-3.2,1.1-3.5
		c0.3,1.2,0.6-0.6,0.5-0.9c0.1,0.1,0.3,0.2,0.4,0.4c-0.2-0.3-0.2-0.5,0-0.8c0.4,0.9,0.4,0,1,0c0.1,0.2-0.6-1.3-0.5-1.2
		c0.8,1.2,1.3-0.3,1.6-0.2c0-0.5-0.1-1.8-0.3-2.8c0.7,0.1,0.9-0.7,1.4-0.2c-0.1-0.5,0.5-0.9-0.1-1.3c-0.2,0-0.3,0.1-0.1,0.2
		c-0.2,0.2-0.5,0.9-0.5,0.9c-0.4-0.8,0.2-1.5,0.7-2.4c0,0.4,0.2,1.1-0.3,0.8c0.3,0.3,0.5,0.6,0.6,1c0.1-0.2,0.2-0.3,0.2-0.1
		c0-0.1,0-0.3,0.2-0.4c0,0.5-0.2,0.3-0.1,0.5c0.7-0.5,0.5-0.2,0.9,0.1c0-0.3,0-0.6,0.1-0.8c0.1,0.2,0.5,0.4,0.2,0.7
		c0.3-0.4,1.3-0.4,1.6-0.4c0.1,0.3,0.3,0.6,0.5,0.9c0.4-1.3,1.3,0.1,2-1.3c0.1,0.4,0,0.8-0.1,1.2c0.1-0.3,0.3-0.6,0.4-0.9
		c0.2,0.2,0.2,0.4,0.3,0.7c0-0.3,0.1-0.5,0.3-0.6c0.6,0.8-0.1,0.3,0.3,1c0.2-0.2,0.3-0.5,0.2-0.9c0.3,0.1,0.4,0.3,0.3,0.7
		c0.9-0.6,1.3-1.3,1.8-1.7c0.2-0.1-0.1,0.6-0.1,0.8c0.2-0.3,0.5-0.4,0.9-0.5c0,0.4-0.6,0.8-0.6,0.4c0,0.3,0,0.5,0,0.8
		c0.8,0.2,0.9-0.2,1-0.7c0.1,0.2,1.1,0.3,1.5,0.1c0,0.1,0,0.2-0.1,0.3c0.2-0.3,0.4-0.4,0.7-0.4c-0.1,0.2,2.4,0.7,2.8,0.4
		c0,0,0,0,0,0c0,0,0.1-0.1,0.1-0.1c0.1,0.2,1.1,1.5,1.1,1.4c0.6,1.6,0.9,3.3,1.8,4c0,0.1-0.1,0.1-0.1,0.2c0.1,0,0.1,0,0.2,0.1
		c-0.1,0.1-0.3,0.3-0.4,0.4c0.1,0.2,0.6,0.5,0.9,1.2c-1.1,0.4,1.3,2,1.6,2.3c-1.1,0.6,0,0.1,0.1,0.1c0.3,1.4-1.3,1.2,1.2,2.4
		c-0.3-0.1-0.6-0.1-0.8-0.3c0.4,0.4,0.5,0.5,0.8,0.7c-0.5-0.2-1.2-0.6-1.4-0.6c0,0.2,0,0.4,0,0.6c-2.7-1.5-8.3-0.8-11-0.7
		c-2.2,0.1-4.5,0.1-7.5,0.8c0.3-0.2,0.5-0.5,0.7-0.8c-1.1,0.5-2.7,0-3.1,0.4c-0.3,0.2-0.3,0.3-0.1,0.1c0,0.4-0.2,0.8-0.5,1.2
		c-0.2-0.4-0.2-0.9-0.3-1.3c0.2-0.2-1.9,1.3-2.7,0.8c0-0.3,0-0.5,0-0.8c-0.1,0.1-1.3,1.3-1.3,1.3c0,0-0.7,0.2,0.1-0.8
		c-0.4,0.2-0.8,0.4-1.3,0.6c2.3-1.3-1.2,0.7,0.6-0.5c-0.3,0.2-0.5,0.3-0.8,0.4C109.9,25.5,110.1,25,110.7,24.6z M114.6,33.3
		C112.8,33.2,113.9,33,114.6,33.3L114.6,33.3z M111.7,33.3C112.5,33.3,112.5,33.3,111.7,33.3L111.7,33.3z M63.7,60.2
		c-0.9-2.5-0.1-6.1-0.8-8.9c0.3,0.1,0.4,0.3,0.5,0.5c0.2-0.8,0-4.7,0.7-3.2c-0.4-2.6-0.7-2.9,0-1.6c0-0.9-0.2-1.8-0.6-2.6
		c-0.1,0.2-0.1,0.4-0.2,0.6c0-0.4,1.2,0.9,0.1,1.2c0-0.2-0.1-0.4-0.1-0.6c-0.4,1.1-0.4,2.3,0,3.4c-0.6-1.4-1.1-8.7,0.3-9
		c0.2-0.5,1.6-2.7,1.3-1.4c0.6-0.5,0.7-1.8,0.8-2.4c0.1,0.3,0.3,0.4,0.7,0.3c0.2-1.1,2.3-2.6,4.8-2.9c-0.4,0.5,5.8,0.2,6,0.1
		c-0.8,0.6,2.6-0.2,3.1-0.5c1,0.6-0.6,0.6-0.3,1.2c-0.2-1.5,5.2-0.1,5,0c-1.1,0.5,7.2-1.9,7.7-0.8c-0.7-1.2,0.8-1.1,1-0.7
		c-1.5,0,0,0.1,0.1,0.1c-0.1,0.3-0.2,0.4-0.5,0.5c0.9-0.2,1.9-0.4,2.9-0.4c0.1,0.4-1.6,0.3-0.9,0.6c2.4-0.3,7.1-0.5,8.3-0.2
		c-0.1,0.2-0.3,0.4-0.4,0.6c1.2,0,1.4-0.7,2.6-0.4c-0.3,0.1-0.7,0.2-1,0.3c1.9,0.8,5-0.4,7.4-0.4c0.6,0,6.2,0.8,7.8,0.7
		c1.9,0,5.6-1.2,7.6-0.3c4.4,0.6,10.8-0.1,15.7,0.1c2.2,0.1,4.9-0.1,5-0.3c1.9-0.4,3.4,0.7,5.4,0.2c-0.2,0.6,7.8,0.4,10.2,0.4
		c-0.6-0.1-0.5-0.7,0.3-0.3c-0.1-0.2-0.1-0.4,0.2-0.6c0.7,0.2,0.7,0.4,0.1,0.7c2.6,0.4,6.9-0.3,10.4-0.4c3.6,0,5.4,2,7.9,2.2
		c2.7,2.1-0.5,8.1,1.4,10.4c0.6,0.7-0.1,12.3-0.4,14.1c1.2-0.4,0.8,2.7,0.4,3.9c-3-0.6-6.9,0.9-9.2,0.2c0.2-0.2,0.4-0.3,0.6-0.5
		c-3.4,0.6-6.9,0-10.4,0.5c-0.3,0.2-8.9,0.3-11.4,0.2c-5.6-0.3-11.1-0.1-17.5,0.3c0.1-0.7,2.7-0.1,2.6-0.8c-0.9,0.1-7,1.2-5.4,0.3
		c-2.2,0.3-4.4-0.1-6.5,0.3c0.6-0.2,0.6-0.3-0.2-0.2c1.7-0.1-4.3,1.8-2.5,0c-0.4,0.1-3,0.8-2.5,0.1c-2.4,1.1-8.1,0-9,0.4
		c-0.9,0.2-1.8,0.2-2.7,0.2c0.2-0.1,0.5-0.2,0.7-0.2c-0.6,0-1.2,0.1-1.8,0.1c0.3,0.1,0.7,0.1,1,0.2c-1.2,0.4-1.1,0.5-2.7,0.2
		c-1.4,0.5-5.3,0.2-6.5,0c0.7-0.2-4.1-0.1-4.3-0.1c-0.3-0.4,1.1-0.3,0.8-0.6c-2.2,0.1-4.4,0.7-6.6,0.5c-0.4,0.1-5.5-0.1-6.8-0.1
		c-3.5,0.1-8.3,1.2-11.5-0.1c0.3,0.1,0.4,0,0.5-0.2c-0.7,0.1-1.4,0.1-2.1,0.2c0.2,0.3,0.4,0.4,0.7,0.5c-0.3,0.2-3.9,0.4-5.2,0.3
		c0.1-0.3,0.3-0.4,0.6-0.5c-0.8,0.3-1.6,0.4-2.4,0.4c1.9-0.7,0.3-0.5-0.8-0.9c0.4,0.3,0.1,0.5-0.8,0.6c0-0.8-0.1-1.6-0.4-2.3
		C63.3,64.7,64.4,60.5,63.7,60.2z M62.8,55.3C63.2,55.6,63,56.9,62.8,55.3L62.8,55.3z M62.9,50c0-0.4,0-0.7,0-1.1
		C62.9,48.9,63.7,50.4,62.9,50z M178.2,74.1c-0.1,0,1.5,2.2-0.3,1.9c0.6,0.7,0.3,0.8,0.3,1.4c0.4,0.2,1.2,0.8-0.2,0.9
		c0.2,0.3,0.3,0.6,0.5,0.9c-1-0.7,0.5,0.4-0.5,0.1c-0.2,0.5,0.8,1.1-0.5,1.3c0,2.1,0.1,4.6,0,6.4c0,0,0.1,0.1,0.2,0.2
		c-0.1,0-0.1-0.1-0.2-0.1c0,0.6-0.1,1.1-0.1,1.4c-0.2-0.2-0.5-0.2-0.8,0c0.4,0,0.6,0.9,0.5,1.1c-0.2,0-0.3-0.1-0.5-0.3
		c0.3,0.2,0.3,0.5,0.2,0.8c-0.6-0.8-0.4,0.1-0.9,0.3c0.2,0.2,0.6,0.9,0.8,1.1c-0.5-0.5-1.8,0-1.1,0.6c-0.5,0,0.2,2,0.6,2.8
		c-0.7,0.1-0.7,1-1.3,0.6c0.2,0.5-0.2,1.1,0.4,1.3c0.2-0.1,0.2-0.2,0-0.2c0.2-0.2,0.2-1,0.2-1.1c0.3,0.8,0.2,1.5,0,2.7
		c-1.2-0.3-0.2-0.1-1.1-0.4c-0.2,0.4-1.1,0.5-0.3,1.1c-0.3,0.2-0.4,0.1-0.4-0.2c-0.1,0.1-0.1,0.6-0.3,0.8c0.7,0.4,0.3,0.6,0.2,1.7
		c-0.9-0.7-1,0.7-0.8,1.2c-0.7-0.9-0.1,0.7,0,0.9c-0.4-0.2-0.7-0.5-0.9-0.8c0.2,0.3,0.3,0.5,0.5,0.8c-0.2,0-0.5-0.1-0.6-0.3
		c0.2,0.2,0.3,0.4,0.2,0.6c-1-0.2,0-0.2-0.8-0.6c0,0.3,0.2,0.6,0.4,0.8c-0.3,0.1-0.5-0.1-0.6-0.4c-0.1,0.4-0.4,2-0.6,2.3
		c-0.1,0.1-0.2-0.6-0.2-0.8c-0.1,0.3-0.3,0.5-0.6,0.7c-0.1-0.2,0.2-0.8,0.3-0.7c-0.1-0.2-0.2-0.4-0.2-0.6c-0.6-0.1-0.4,0.8-0.4,0.9
		c-0.3,0.4-0.1-0.8-0.2-0.7c0,0.2-0.6,0.8-0.6,0.8c1.2-1.7-0.2,0-0.2-0.1c0.1-0.1,0.1-0.1,0.2-0.1c-0.1,0.1-0.3,0.2-0.3,0.2
		c0.2-0.6,0.9-2.2,0.2-2.8c0.1-0.1,0.1-1.8,0.2-1.9c-0.2-0.2-0.4-0.5-0.5-0.8c0.2-2.2,0.7-4.1,0.2-5c0.2-0.1,0.4-0.1,0.6-0.2
		c0-0.2-0.1-0.8-0.3-1.6c1.1,0.1-0.3-2.6-0.4-2.9c1.3,0.4,0.1-0.1-0.1-0.1c0.1-0.4,2.4-2.9,0-4.2c1.2-0.1,0.3-1.4-0.1-1.5
		c0,0,0.5-2.5,0.3-3.3c0.1-0.6,1.2-6.4,1-6.5c0,0-0.1-0.1-0.2-0.2c1.9-1,5.3,0.2,8.6-0.9c-0.2,0.2-0.3,0.5-0.4,0.8
		c0.1-0.4,0.4-0.6,0.8-0.7c0,0.5-0.5,0.4,0.4,0.3c-0.1,0-0.2,0.1-0.2,0.2c0,0,1.2-0.5,1.4-0.6C179.2,73.5,178.7,73.8,178.2,74.1
		C178.8,73.8,178.8,73.9,178.2,74.1z M176.4,93.8C176,93.7,176.2,93.4,176.4,93.8L176.4,93.8z M176.1,95.7
		C175.7,94.9,176,95.4,176.1,95.7L176.1,95.7z M168.1,104.5C168.1,104.5,168.1,104.7,168.1,104.5L168.1,104.5z M167.3,156.3
		C166.5,156.5,166.9,154.4,167.3,156.3L167.3,156.3z M163.3,128.8c-0.9,0.1-0.2-0.6-1.2-0.4c-0.2,0.6,0.2,0.7,0.6,0.7
		c-0.2,0.1-0.3,0.8-0.1,1.1c-0.1,0-0.1,0-0.2,0c0.3,0.1,0.4,0.3,0.4,0.5c-0.1,0-0.9,2.7-0.1,3.1c0.2,0.7,0.5,3.7-0.5,3.5
		c0.1,0,1.1,0.9,0.4,0.4c-0.4-0.3-0.3-0.2,0.3,0.3c-0.2-0.1-0.3-0.3-0.4-0.3c-0.3-0.3-0.4-0.3-0.1,0.2c-0.1-0.1-0.5-0.9-0.1-0.1
		c-0.8-1.1-0.5,0.2-1,0.4c0.4-1,0-0.1-0.1,0.1c-0.2-0.1-2-2.4-3,0c0-1-0.8-0.6-1,0c-0.2-0.3-2.4-0.2-2.3-0.2c0.1,0-0.8-0.9-1.1-0.2
		c0-0.5-0.2-0.4-0.1-0.6c-0.1,0.2-0.3,0.5-0.5,0.4c0.1-0.4,0.4-0.6,0.7-0.7c-0.4,0.1-0.7,0-0.7-0.4c0.2-2.6,0.6-4.6-0.4-7.8
		c0.2,0.2,0.5,0.4,0.8,0.5c-0.6-1-0.5-2-0.5-2.4c-0.4,0-0.8-0.1-1.2-0.3c0.4-0.1,0.9-0.2,1.3-0.2c0.3,0.3-1.2-1.4-0.8-2
		c0.3,0,0.5,0,0.8-0.2c-0.1-0.1-1-0.7-0.4-0.5c0,0-0.9-0.3-0.9-0.4c0,0,0.2-0.4,0.8-0.2c-0.2-0.2-0.4-0.5-0.6-0.8
		c1.3,1.3-0.7-0.7,0.5,0.3c-0.2-0.1-0.3-0.3-0.4-0.5c0.2,0.3,0.2,0.2,0.1-0.1c0.4-0.3,0.6,0.4,0.7,0.6c0.1-0.1,0.5-0.7,0.5-0.8
		c0.3,0.4,2.9,0.5,3.3,0.5c0,0,0.2-0.3,0.3-0.5c0.2,0.1,0.9-0.3,1-0.4c0,0.2,0,0.3-0.1,0.5c0.1-0.3,0.2-0.4,0.5-0.4
		c-0.3,0.5,0,0.5,0.3,0.8c0.1-0.2,0.7-1.1,0.7-1c-0.3,0.7,0.2,0.7,0.1,1.2c0.1-0.2,0.6-0.4,0.5,0.1c0.4-0.2,1.1-0.9,1.7-1.5
		c0,0.2,0.5,1,0.6,0.6c0.3,0.4-0.3,0.4,0.4,0.3c-0.1,0.2,0.1,0.5-0.3,0.2c0.4,0.2,0.4,1,0.4,1.2c-0.3,0.1-0.6,0.2-0.9,0.4
		c0.4,0.2,0.6,0.5,0.7,0.8c-0.7-0.2-0.6,0.2,0.5,0.6c-0.4,0-0.8,0-1.2-0.1c0.3,0.1,0.6,0.2,0.9,0.3c-0.2,0.1-0.4,0.2-0.7,0.2
		c0.2,0,0.4,0.1,0.6,0.2c-0.1,0-0.6,0.2-0.8,0.3c0.2,0.1,0.5,0.2,0.7,0.1c-0.2,0.2-0.4,0.3-0.7,0.2c0.6,0.8,1.1,0.8,1.7,1.4
		c0,0-0.6,0-0.8,0C163.1,128.3,163.2,128.5,163.3,128.8z M163,132C163,132,162.9,131.8,163,132L163,132z M162.7,138.1
		c-0.1-0.1-0.2-0.2-0.3-0.3C162.6,137.9,162.8,138.1,162.7,138.1z M161,149.4C160.3,148.8,161,149.3,161,149.4L161,149.4z
		 M161,151.1c0.1,0-0.5-0.1-0.8-0.1c0.2-0.1,0.5-0.3,0.7-0.5C160.9,150.7,161,150.9,161,151.1z M160.2,149.3c0,0,0.2,0.1,0.3,0.2
		c0-0.1,0-0.1,0-0.2c0.2,0.3,0.2,0.5,0.3,0.9c-0.4,0.2-0.9,0.6-1.6,1.1c0,0.1,0,0.1,0,0.1c-0.1,0,0.2,0.1-0.2,0.3
		c1.2,0.2,0.1,0.2,0,0.3c0.7,0.3,0.4,0.4,0.6,1.3c-0.3,0.1-0.6,0.2-0.9,0.4c0.4,0.2,0.6,0.4,0.7,0.8c-0.7-0.2-0.7,0.2,0.5,0.6
		c-0.4,0-0.8,0-1.2-0.1c0.3,0.1,0.6,0.2,0.9,0.2c-0.2,0.1-0.4,0.2-0.7,0.2c0.2,0,0.4,0.1,0.6,0.2c-0.1,0-0.6,0.2-0.8,0.2
		c0.2,0.1,0.5,0.2,0.7,0.1c-0.2,0.2-0.4,0.3-0.7,0.2c0.6,0.7,1.1,0.7,1.7,1.3c0,0-0.6,0-0.8,0c0.2,0.1,0.4,0.3,0.5,0.6
		c-0.9,0.1-0.2-0.6-1.2-0.4c-0.3,0.7,0.6,0.7,0.8,0.7c0.4,0.3-1,0.5-0.6,0.7c0.4-0.1,0.6,0,0.6,0.4c-0.2,0-0.4-0.1-0.6-0.1
		c0.3,0.1,0.4,0.2,0.4,0.5c-0.1,0-0.9,2.5-0.1,2.9c0.3,0.8,0.5,3.1-0.5,2.6c0.2,0.2,0.4,0.4,0.6,0.7c-0.1-0.1-0.2-0.1-0.2-0.1
		c-0.2-0.4-0.7-0.7-0.5-0.2c-0.6-1.2-0.9,0.3-1.2,0.4c0-1.3,0,0-0.1,0.1c-0.4-0.2-0.3-2.1-1.2-0.2c0-0.4,0-0.5-0.1-0.4
		c-0.3,0.1-0.4,0.2-0.7,0.4c0.2-0.2,0.7-0.8,0.8-0.9c-0.1,0.1-0.5-0.3-0.6-0.3c1.3-3.9,1.1-9.4-0.1-13.1c0.2,0.2,0.5,0.3,0.8,0.5
		c-0.4-0.3-0.6-0.6-0.7-1.1c0.3-0.3,0.2-1.1,0.2-1.1c-0.4,0-0.8-0.1-1.2-0.3c0.4-0.1,0.9-0.2,1.3-0.2c-0.5-0.1-0.5-0.1,0-0.1
		c0.1,0.2-1.1-1.5-0.8-1.7c0.3,0,0.5,0,0.8,0c-0.1-0.1-1.1-0.9-1.3-1c0-0.1-0.1-0.4,0.8,0.1c-0.2-0.3-0.4-0.6-0.6-0.9
		c0.9,1.1,0.4,0.3,0.1,0.1c1.2,0.8,0.3,0.1,0.2,0c0,0,0.8,0.5,0.9,0.7c1.1-1.4,2.8,0,3.5-0.4c0-0.1,0.1-0.1,0.1-0.2
		c0.2-0.1,0.4-0.1,0.4-0.1c0.7-0.7,0-0.2,0.8-0.5c0.1,0-0.5,0.5-0.5,0.5c0.1-0.1,0.3-0.1,0.4-0.2c-0.2,0.1-0.6,0.7-0.8,1
		c0.1-0.2,0.1-0.2-0.1,0.1c0.6-0.5,0.5-0.1,1-0.1c-0.6,0.1-0.7,0.4-1.2,0.6c0.1,0,0.7,0.1-0.1,0.3c0.5,0.2,0.7,0.6,1.5,1.3
		C160.6,149.1,160.7,149.2,160.2,149.3z M159.9,161.1C159.9,161,159.8,160.8,159.9,161.1L159.9,161.1z M159.3,145.7
		C159.5,145,159.6,145.5,159.3,145.7L159.3,145.7z M159.9,145.8c0.1-0.2,0.2-0.3,0.5-0.3C160.2,145.6,160,145.7,159.9,145.8z
		 M161,148.2C160.5,148.1,160.9,148.1,161,148.2L161,148.2z M154.8,115.5C154.1,115.5,154.3,115.5,154.8,115.5L154.8,115.5z
		 M155.2,103.3c0.7-0.1,0.4,0.5,0.4,0.7c0.3,0,0.5,0,0.8,0c0.2-0.9-1.2-2.7-0.9-3.1c0.2,0,0.4,0.1,0.6,0.1c-0.3-0.2-0.4-0.5-0.4-0.9
		c0.2,0.1,0.9-4.4,0.1-5.1c0,0.1,0.2-2,0.2-2.1c-0.2-0.3-0.4-0.6-0.5-0.9c0.8-1.8,0.4-5.1,0.2-5.7c0.2-0.1,0.4-0.1,0.6-0.2
		c0-1.4-0.1-3.1-0.7-5.2c1.4,0.3-0.1-0.2-0.1-0.1c0.1-0.3,2-3.5,0-4.8c1.1-0.1,0.5-1.4,0-1.7c0.3,0,0.7-1,0.8-1.1
		c0.1,0.1,2.5,0.8,2.4,0.8c0.1-0.2,0.1-0.5,0.6-0.5c0.1,5.7-0.8,9.4,0.5,15.8c-0.2-0.3-0.5-0.6-0.8-0.8c0.5,1.4,0,3.2,0.4,3.8
		c0.2,0.3,0.3,0.4,0.1,0.2c0.5,0,0.8,0.2,1.2,0.6c-0.4,0.2-0.9,0.3-1.3,0.3c-0.1-0.2,1.6,3.5,0.1,3.6c0.8,0.9,0.3,0.7,0.5,1.5
		c0.6,0.1,1.1,0.7-0.1,1.1c0.2,0.3,0.4,0.6,0.6,1c-0.6-0.3,0.2,1.4-0.8,1.8c0.5,3.4,0.3,5.1,0.2,8c0.1,0.2,0.1,0.5,0.2,0.7
		c0.4-0.4,0.7-0.3,0.8,0.2c-0.3-0.2-0.5-0.1-0.8,0.1c0.4-0.1,0.8,0.9,0.7,1.1c-0.2,0-0.4-0.1-0.5-0.2c0.3,0.2,0.4,0.5,0.4,0.8
		c-0.5-0.6-0.4-0.1-0.8,0.2c0.2-0.1,0.1-0.1-0.1,0.1c0.3,0.3,0.6,0.7,1,1.2c-0.5-0.7-0.7-0.3-1.2-0.7c0.1,0.2,0.1,0.4,0.2,0.6
		c-0.2-0.1-0.3-0.2-0.4-0.3c-0.1,0.6,0.2,0.5-1.5,1.5c-0.2-0.6-1.3-0.6-0.9-1.1c-1.3,0.7-1.2-0.1-0.9-0.6c-0.3,0-0.6,0-0.8-0.1
		c0.2-0.1,0.4-0.5,0.7-0.3c-0.6-0.6-0.1-3.8,0.3-4.3c-0.4-0.1-0.8-0.3-1.1-0.6c0.4-0.1,0.8,0,1.2,0.1c-0.3-0.2-0.6-0.3-0.9-0.4
		c0.2-0.2,0.4-0.3,0.7-0.3c-0.3,0-0.5-0.2-0.6-0.4c0.1-0.1,0.4-0.3,0.6-0.4c-0.1,0-0.3-0.1-0.4-0.1c0.1-0.3,0.2-2.5-0.2-2.4
		c-1.1,0.2-0.7-0.4-0.7-0.4c0.2-0.1,0.3-0.1,0.4-0.1C155.3,104,154.8,104,155.2,103.3z M155.5,98C155.5,98.1,155.5,98.5,155.5,98
		L155.5,98z M161,109.6C160.7,109.6,160.7,109.2,161,109.6L161,109.6z M160.9,121.4C160.8,121.9,160.7,121.6,160.9,121.4
		L160.9,121.4z M159.4,115.5C159.3,115.2,159.7,115.2,159.4,115.5L159.4,115.5z M157.6,115.5C157.2,115.1,157.7,115.2,157.6,115.5
		L157.6,115.5z M155.3,115.5c1.8-0.2,0.5-0.3,0.7-0.7c0,0,0,0,0.1,0.1c0,0.1,0,0.1,0,0c0.3,0.1,1.1,0.2,1.2,0.2
		C156.9,115.8,156.3,115.6,155.3,115.5z M156.2,121.4C156.2,122,156,121.6,156.2,121.4L156.2,121.4z M155.9,114.9
		C155.9,114.8,156.1,114.3,155.9,114.9L155.9,114.9z M162,121.8C161.9,121.6,162.2,120.9,162,121.8L162,121.8z M162.1,121.9
		c0.1-0.2,0.2-0.3,0.3-0.4C162.5,121.6,162.4,122,162.1,121.9z M162.4,122c-0.1,0-0.1,0-0.1,0.1C162.3,121.9,162.3,121.9,162.4,122z
		 M162.6,122.2C162.7,122.4,162.5,122.2,162.6,122.2L162.6,122.2z M163,122.4C162.3,122.7,162.9,122.3,163,122.4L163,122.4z
		 M162.8,122.3C162.8,122.2,163,122.3,162.8,122.3L162.8,122.3z M163.4,121.9c-0.1-0.1-0.1-0.2-0.1-0.4c-0.6,1.3-0.3-0.1-0.8-0.1
		c0.3-0.1,0.8,0,1.4,0c0.1,0-0.1,0.9-0.1,1.1c0.1,0.1,0.2,0.3,0.3,0.5C163.8,122.3,163.3,122.6,163.4,121.9z M146.7,114.1
		C146.7,114.1,146.7,114.1,146.7,114.1c-1-0.2-1.8,1.2-1.8,1.9c-0.1-0.4-0.4-0.4-0.7-0.2c0,0.4-0.4,1.6-0.4,1.1c0,2.6-1.2,4.9,0,7.2
		c-1-0.7,0.3,1.5,0.5,1.7c-0.2,0.1-0.5,0.1-0.7,0c0.4,0.6-0.4,2.3-0.7,2.4c0.1,0.4,0.4,0.6,0.8,0.5c-0.1,0.3-0.3,4.2,0.2,4.1
		c0.9-0.3,1.1,0.5,0.7,0.6c0,0.1-0.3-0.4-0.7-0.4c0.3,0.6,0.4,1.1,0.5,1.8c-0.1-0.3-0.3-0.5-0.6-0.5c0.1-0.2,0.1-0.5,0.2-0.7
		c-0.2,0.2-0.3,0.2-0.4,0.1c0.1,0.9,0.6,4.9,0.4,5.2c-0.2-0.1-0.4-0.2-0.6-0.2c0.3,0.4,0.5,0.9,0.4,1.5c-0.1-0.2-0.2-0.4-0.3-0.6
		c-1.7,2.3,1.7,5.5,2.7,7.3c-0.3,0-2.3-0.1-1.9,0.2c-2.6,0.1-9.9-1-10-0.2c-0.4,0.1-2.4-0.2-3-0.2c0.2-1.3-5,0.3-5.7,0.4
		c0-1.2-0.1,0-0.2,0.1c-0.4-0.2-0.4-0.4,0-0.7c-1.5-0.5-10.4-0.2-11.1,0.8c-0.7,0.2-4.2-0.7-5.1-0.7c-0.8,0.1-4,0.8-4.7,0.1
		c1.6-0.9,2.3-2.3,2.7-4.1c0.3-1.2-0.8-3.3-0.5-3.9c0.2,0.1,0.3,0.2,0.5,0.3c-1.4-4.4-0.3-7.5-0.5-11.9c-0.1-2.8,1.3-7.3-1-10.6
		c0,0,0.1,0,0.1,0c-0.8-1-1.7-2-1.4-1.9c-0.9-0.5-1.2-0.6-2.1-1.5c0.4,0.5,1.3,0.6,1.6,1.2c0.9-1,5.6-0.3,6-0.5c0.3,0,0.7-0.1,1-0.1
		c-0.2-0.1-0.4-0.1-0.6-0.2c1.8-0.9,5.1-0.7,7.6-0.1c-0.1,0.2-0.3,0.4-0.4,0.6c5.1-0.4,9-0.3,13.6-0.2c0.5-0.4,1.2-1,1.6-1
		c-0.3,0.3-0.2,0.6,0.2,0.8c-0.2-0.5,1.5-0.8,1.9-0.7c0,0.2-0.2,0.4-0.4,0.5c0.4-0.3,0.9-0.4,1.4-0.4c-1.3,0.7,0.3,0.5,1,0.9
		c0.3-0.4,1.2-0.5,1.8-1c-1.6,1.3,1.8,1,1.7,1.4c0.7-0.2,3.6-0.7,4.9-1.5c0,0.2-0.1,0.4-0.3,0.5c1.4,0.6,1.9,0.3,2.5,0.1
		c-0.5,0.8,0.3,0.7,0,0.5c-0.3,0,0.2-0.6,0.5-0.8c0.4,0.8,0.6,2,0.3,2.8c0-0.2-0.3-1.4-0.1-1.5C148.1,113.8,147.3,114,146.7,114.1z
		 M146.7,147.2C147.4,147,146.6,147.4,146.7,147.2L146.7,147.2z M146.8,147.1C146.8,147.2,146.6,147,146.8,147.1L146.8,147.1z
		 M145.7,145.5C145,144.8,145.3,144.6,145.7,145.5L145.7,145.5z M104.2,147.1C104.2,147.3,104.2,147.1,104.2,147.1L104.2,147.1z
		 M104.2,147.1C103.7,147,104.2,146.2,104.2,147.1L104.2,147.1z M103.5,73.2c0.6,0.2,5.5,0,5.6-0.1c0.3,0,0.6-0.1,1-0.1
		c-0.2-0.1-0.4-0.1-0.6-0.2c1.6-0.9,4.9-0.7,7.1-0.1c-0.1,0.2-0.3,0.4-0.4,0.6c4.8-0.4,8.4-0.3,12.9-0.2c0.4-0.3,1.3-1,1.5-1
		c-0.3,0.3-0.2,0.6,0.2,0.8c-0.2-0.5,1.4-0.8,1.8-0.7c0,0.2-0.2,0.4-0.3,0.5c0.4-0.3,0.8-0.4,1.3-0.4c-1.2,0.7,0.2,0.5,0.9,0.9
		c0.3-0.4,1.2-0.5,1.7-1c-1.5,1.3,1.7,1,1.6,1.4c0.6-0.2,3.4-0.7,4.6-1.5c0,0.2-0.1,0.4-0.3,0.5c0.6,0.3,2.5-0.2,1.7,0.7
		c0.7-0.2,1.9,0.3,2.2-0.6c-0.9,0.2-0.4,0.1-0.6-0.1c-0.4-0.2-0.8-0.3-1.2-0.2c1.2-0.4,3.3-0.7,2.6,0.2c0.1-0.7,0-0.4-0.4,0.8
		c0.6-1.1,0.4,0.2,0.3,0.3c0,0,0.2,0.1,0.4,1.1c-0.3-0.1-0.5-0.1-0.7,0.1c0.3,0,0.6,0,0.8,0.2c-0.2,0.2-0.4,0.9-0.7,0.4
		c0.5,0.8,0.4,2.3,0.4,3c-1-0.7-0.3,3-0.2,3.2c-1-0.7,0.2,1.4,0.5,1.6c-0.2,0.1-0.5,0.1-0.7,0c0.4,0.6-0.4,2.1-0.7,2.2
		c0.2,0.4,0.4,0.5,0.9,0.4c0,0.4-0.2,0.6-0.7,0.6c0.1,0.2,1.2,3.2,0.8,3.3c0.8-0.3,1.1,0.4,0.7,0.5c0,0.1-0.3-0.4-0.7-0.4
		c0.3,0.5,0.4,1.1,0.5,1.7c-0.1-0.3-0.3-0.5-0.6-0.4c0.1-0.2,0.1-0.5,0.2-0.7c-0.3,0.2-0.4,0.2-0.4,0c-0.1-0.1,0.5,4.8,0.4,5
		c-0.2-0.1-0.4-0.2-0.6-0.2c0.3,0.4,0.5,0.9,0.4,1.4c-0.1-0.2-0.2-0.4-0.3-0.5c0,0-0.4,7.9,0,8.1c0,0,0,0,0,0c0.1,0,0.1,0.1,0.2,0.1
		c-0.6-0.2-0.6,0,0,0.6c-0.4-0.1-1.9,0.2-1.6,0.3c-2.6,0.1-9.3-1-9.5-0.2c-0.6,0.2-2-0.3-2.8-0.2c0.2-1.3-4.7,0.3-5.4,0.4
		c0-1.2-0.1,0-0.2,0.1c-0.8-0.1-1.7-1-4.4-0.7c-1.3,0.1-5.6,0-6.1,0.8c-0.6,0.2-4-0.7-4.8-0.7c-0.6,0.1-7.6,0-7.5-0.4
		c-0.2,0.2,0.1,0.5-0.6,0.5c0-1.5-0.3-5.5,0-6.1c0.2,0.1,0.3,0.2,0.5,0.3c-2.1-6.3,0-13.4-0.9-20.7c0.2,0.5,0.5,0.9,0.8,1.4
		c0-0.1-1.6-4.1-0.3-2.8c-0.7-3,0.5-2.4-1.4-4.1c0.4,0.4,0.9,0.4,1.3,0.8C103.8,73.5,103.7,73.3,103.5,73.2z M128.2,72
		C128.1,72.2,127.3,72.4,128.2,72L128.2,72z M140.1,72.3C140.2,71.6,140.4,72.1,140.1,72.3L140.1,72.3z M143.3,72.4
		C143.2,72.2,143.9,71.4,143.3,72.4L143.3,72.4z M148,112.5c-0.4,0-1.1,0.2-1.4,0.3C147.2,111.9,147.7,112,148,112.5z M148.5,72
		C147.4,71.9,148.4,72,148.5,72L148.5,72z M146.2,112.4C147.2,112.8,146.1,112.8,146.2,112.4L146.2,112.4z M147.3,99.8
		C147.3,100.2,147.3,100.2,147.3,99.8L147.3,99.8z M147.3,101.3C147.4,100.5,147.7,100.8,147.3,101.3L147.3,101.3z M143,112.5
		c-0.1,0-0.2-0.1-0.3-0.1C142.8,112.5,142.9,112.5,143,112.5z M130.2,112.4C130.2,112.6,129.3,112.8,130.2,112.4L130.2,112.4z
		 M98.9,138.5c-1.3-1.4,0.7,0.8-0.5-0.3c0.2,0.1,0.3,0.3,0.4,0.5c-0.1-0.2-0.6-0.1-1-0.6c-0.1,0.1-0.6,0.7-0.5,0.8
		c-0.3-0.5-2.8-0.5-3.4-0.5c0,0-0.2,0.3-0.3,0.5c-0.2-0.1-0.9,0.3-1,0.4c0-0.2,0-0.3,0.1-0.5c-0.1,0.3-0.2,0.4-0.5,0.4
		c0.3-0.5,0-0.5-0.3-0.8c-0.1,0.2-0.7,1.1-0.7,1c0.3-0.7-0.2-0.7-0.1-1.2c-0.1,0.2-0.6,0.4-0.5-0.1c-0.4,0.2-1.1,0.9-1.7,1.5
		c-0.2-0.2-0.5-0.6-0.7-0.9c0-0.2,0.1-0.2,0.3-0.2c-0.1,0-0.2,0-0.1-0.1c-0.1,0-0.5,0.3-0.7,0.1c0.2-0.3,0.4-0.3,0.7-0.2
		c-0.4-0.2-0.4-1-0.4-1.2c0.3-0.1,0.6-0.2,0.9-0.4c-0.4-0.2-0.6-0.5-0.7-0.8c0.7,0.2,0.6-0.2-0.5-0.6c0.4,0,0.8,0,1.2,0.1
		c-0.3-0.1-0.6-0.2-0.9-0.3c0.2-0.1,0.4-0.2,0.7-0.2c-0.2,0-0.4-0.1-0.6-0.2c0.1,0,0.6-0.2,0.8-0.3c-0.2-0.1-0.5-0.2-0.7-0.1
		c0.2-0.2,0.4-0.3,0.7-0.2c-0.5-0.6-1.6-1.5-1.5-1.5c1.3-0.2-0.4,0.1,0.1-0.5c0.9-0.1,0.2,0.6,1.2,0.4c0.2-0.6-0.2-0.7-0.6-0.7
		c0.2-0.1,0.3-0.8,0.1-1.1c0.1,0,0.1,0,0.2,0c-0.3-0.1-0.4-0.3-0.4-0.5c0.1,0,0.9-2.7,0.1-3.1c-0.1-0.3,0.3-3.3-0.4-3.6
		c0.3,0,0.5,0,0.7,0c0.1,0,0.1,0,0.2,0c0,0,0,0,0,0c0,0,0,0,0,0c0,0,0,0,0,0c0-0.1,0-0.1,0-0.2c0.1,0.1,0.5,0.9,0.1,0.1
		c0.7,1.1,0.7-0.3,1.1-0.4c-0.4,1,0,0.1,0.1-0.1c0.2,0.1,2,2.4,3,0c0,1,0.8,0.6,1,0c0.2,0.3,2.4,0.2,2.3,0.2c-0.1,0,0.7,0.9,1,0.2
		c0,0.4,0.1,0.4,0.1,0.5c0.1-0.2,0.1-0.4,0.5-0.4c-0.1,0.4-0.3,0.6-0.7,0.7c0,0,1.1,0.3,0.7,0.5c-0.2,2.6-0.6,4.6,0.4,7.8
		c-0.2-0.2-0.5-0.4-0.8-0.5c0.6,1,0.5,2,0.5,2.4c0.4,0,0.8,0.1,1.2,0.3c-0.4,0.1-0.9,0.2-1.3,0.2c-0.3-0.3,1.2,1.4,0.8,2
		c-0.3,0-0.5,0-0.8,0.2c0.1,0.1,1.1,1.1,1.3,0.9c0,0-0.1,0.4-0.8,0.1C98.5,138,98.7,138.3,98.9,138.5z M95.5,152.4
		c-0.9,0.1-0.2-0.6-1.2-0.4c-0.3,0.7,0.6,0.7,0.8,0.7c0.4,0.3-1,0.5-0.6,0.7c0.4-0.1,0.6,0,0.6,0.4c-0.2,0-0.4-0.1-0.6-0.1
		c0.3,0.1,0.4,0.2,0.4,0.5c-0.1,0-0.9,2.5-0.1,2.9c0-0.1,0,3.7,0.4,3.8c-0.4,0.1-0.6,0.4-0.9,0.7c0.2,0.1,0.4,0.2,0.6,0.3
		c-0.6-0.1-0.6,0,0,0.2c-0.2,0-0.4,0.1-0.6,0.1c0.1,0.1,0.2,0.2,0.3,0.1c-0.1,0.3,0,1,0,0.9c-1.1-0.1,0.1,1.8,0.4,1.9
		c-0.1,0.1-0.9,0-1.1,0c0,0.1,0.8,0.7,0.9,0.8c-0.5,0-0.9-0.8-0.1,0.4c-0.6-0.7-0.6-0.7-0.6-0.4c-0.4-0.2-1.4,0.1-1.6,0.2
		c0.1,0-0.4-1-0.8-0.2c0-0.4-0.1-0.4-0.1-0.5c-0.1,0.2-0.1,0.3-0.5,0.4c0.1-0.4,0.3-0.6,0.7-0.7c-0.4,0.2-0.7,0.1-0.7-0.3
		c0.3-2.4,0.6-4.3-0.4-7.2c0.2,0.2,0.5,0.3,0.8,0.5c-0.4-0.3-0.6-0.6-0.7-1.1c0.3-0.3,0.2-1,0.2-1.1c-0.4,0-0.8-0.1-1.2-0.3
		c0.4-0.1,0.9-0.2,1.3-0.2c-0.5-0.1-0.5-0.1,0-0.1c0,0.1-1.1-1.3-0.8-1.8c0.3,0,0.5,0,0.8-0.2c-0.7-0.3-0.6-0.4-0.5-0.8
		c-0.1,0.1-0.9,0.2-0.8-0.1c-0.2-0.2,0.9-0.6,0.8-0.6c-0.2-0.2-0.4-0.4-0.6-0.5c1.3,0.4-0.7-0.2,0.5-0.1c0.1-0.3-1-0.6,0.3-0.9
		c-0.5-2.1-0.5-2.2-0.7-3.8c0.1,0,0.2,0,0.3,0c-0.4-0.5-1.1-1.4,0.2-0.1c-0.1-0.1-0.2-0.2-0.2-0.2c0.1,0,0.1,0-0.1-0.4
		c0.1,0.2,0.5-0.1,0.4-0.1c0.1,0.2,0.2,0.3,0.2,0.5c0.3-0.1,0.1-0.1,0.6,0.4c-0.1-0.1-0.1-0.1,0.1,0.1c0.1-0.4,0.2-0.6,0.3-1
		c-0.2,0.6,0.1,0.7,0.1,1.2c0.1-0.2,0.5-0.4,0.5,0.1c0,0,2.3-1.7,1.5-1c0.4,0.5,0.8,0,0.3,0.5c0.6,0.2,0.2-0.1,0.7,0
		c-0.1,0.2-0.2,0.3-0.4,0.3c0.2-0.2,0,0-0.1,0c0.4,0.2,0.4,0.9,0.4,1.1c-0.3,0.1-0.6,0.2-0.9,0.4c0.4,0.2,0.6,0.4,0.7,0.8
		c-0.7-0.2-0.7,0.2,0.5,0.6c-0.4,0-0.8,0-1.2-0.1c0.3,0.1,0.6,0.2,0.9,0.2c-0.2,0.1-0.4,0.2-0.7,0.2c0.2,0,0.4,0.1,0.6,0.2
		c-0.1,0-0.6,0.2-0.8,0.2c0.2,0.1,0.5,0.2,0.7,0.1c-0.2,0.2-0.4,0.3-0.7,0.2c0.6,0.7,1.1,0.7,1.7,1.3c0,0-0.6,0-0.8,0
		C95.3,151.9,95.4,152.1,95.5,152.4z M95.2,155.4C95.2,155.3,95.1,155.1,95.2,155.4L95.2,155.4z M89.6,145.9
		C90.4,146.6,89.8,146.1,89.6,145.9L89.6,145.9z M89.6,139.5C89.7,139,89.8,139.3,89.6,139.5L89.6,139.5z M93.5,145.4
		C93.4,145.9,93.3,145.6,93.5,145.4L93.5,145.4z M94.3,139.5C94.4,138.9,94.5,139.2,94.3,139.5L94.3,139.5z M94.6,145.9
		C94.8,145.5,94.8,145.9,94.6,145.9L94.6,145.9z M94.8,146C94.7,146,94.7,145.9,94.8,146L94.8,146z M95.1,146.3
		C94.9,146.3,94.8,146.3,95.1,146.3L95.1,146.3z M95.2,146.4C95,146.5,95.2,146.4,95.2,146.4L95.2,146.4z M95.9,145.4
		C95.8,145.4,95.7,145.4,95.9,145.4L95.9,145.4z M88.6,139.5C88.4,139.3,88.6,138.9,88.6,139.5L88.6,139.5z M88.3,139.2
		c-0.1,0,0.2,0.3-0.4,0.3C87.2,139.5,87.3,139.4,88.3,139.2z M88.1,138.6C87.7,138.3,88.1,138.5,88.1,138.6L88.1,138.6z M88.1,138.9
		C88.3,139,88.1,139,88.1,138.9L88.1,138.9z M88.3,138.9C88,138.8,88.4,138.7,88.3,138.9L88.3,138.9z M87.7,128.7
		C87.7,128.7,87.7,129,87.7,128.7L87.7,128.7z M87.9,122.8c0.1,0,0.1,0.1,0.1,0.1c0,0,0,0,0,0C88,122.9,87.9,122.9,87.9,122.8z
		 M89.6,72.9c0.2,1.8,0.3,0.5,0.7,0.7c0,0,0,0-0.1,0.1c-0.1,0-0.1,0,0,0c-0.1,0.3-0.2,1.1-0.2,1.2C89.4,74.5,89.6,73.9,89.6,72.9z
		 M89.7,72C89.6,73,89.7,72,89.7,72L89.7,72z M91.4,73.9c0-0.3,0-0.6,0.1-0.8c0.1,0.2,0.5,0.4,0.3,0.7c0.6-0.7,2.3-0.4,2.2,0.4
		c0.1-0.4,0.3-0.6,0.6-0.7c-0.2,0.1-0.3,0.3-0.3,0.5c0.3-0.4,0.7-0.7,1.1-0.9c-0.4,0.4-0.8,0.7-1.2,1.1c0.3-0.2,0.6-0.4,0.9-0.6
		c-0.2,0.2-0.4,0.4-0.7,0.5c0.2-0.2,0.4-0.2,0.6-0.2c0,0-0.3,0.2-0.6,0.3c0.2,0,0.3-0.1,0.5-0.1c-0.2,0.2-0.4,0.2-0.7,0.1
		c0,0,0,0,0,0c0.1,0.1,1.1,2,0.8,2c0.5-0.3,0.8-0.2,0.9,0.2c0.1,0.2-0.6-0.1-0.8-0.1c0.3,0.3,0.4,0.6,0.5,1
		c-0.5,0.1-0.7-0.8-0.4-0.7c-0.3,0-0.5,0-0.8,0c-0.2,0.9,1.2,2.7,0.9,3.1c-0.2,0-0.4-0.1-0.6-0.1c0.3,0.2,0.4,0.5,0.4,0.9
		c-0.2-0.1-0.9,4.4-0.1,5.1c0-0.1-0.2,2-0.2,2.1c0.2,0.3,0.4,0.6,0.5,0.9c-0.8,1.8-0.4,5.1-0.2,5.7c-0.2,0.1-0.4,0.1-0.6,0.2
		c0,1.4,0.1,3.1,0.7,5.2c-1.4-0.3,0.1,0.2,0.1,0.1c-0.1,0.3-2,3.5,0,4.8c-1.2,0.1-0.3,1.6,0.1,1.7c0.3,0.7-1.5,6.7-1.2,6.8
		c0.2,0.1,0.5,0.1,0.5,0.6c-0.3,0-2.5-1.3-2.7-0.4c-0.1,0-0.3,0.1-0.6,0c0.4-0.1,0.5-0.2,0-0.2c0.9-1.5,0.1-6-0.4-8.5
		c0.2,0.3,0.5,0.6,0.8,0.8c-0.5-1.4,0-3.2-0.4-3.8c-0.2-0.3-0.3-0.4-0.1-0.2c-0.5,0-0.8-0.2-1.2-0.6c0.4-0.2,0.9-0.3,1.3-0.3
		c0.1,0.2-1.6-3.5-0.1-3.6c-0.8-0.9-0.3-0.7-0.5-1.5c-0.6-0.1-1.1-0.7,0.1-1.1c-0.2-0.3-0.4-0.6-0.6-1c0.6,0.3-0.2-1.4,0.8-1.8
		c-0.5-3.4-0.3-5.1-0.2-8c-0.1-0.2-0.1-0.5-0.2-0.7c-0.4,0.4-0.7,0.3-0.8-0.2c0.2,0.3,1.2-0.2,0.4-0.2c0,0-0.4-1.1-0.4-1.1
		c0.2,0,0.4,0.1,0.5,0.2c-0.3-0.2-0.4-0.5-0.4-0.8c0.7,0.7,0.4-0.2,0.9-0.6c-0.1-0.1-0.8-0.9-1-1.1c1.4,1,0.9-1.1,1.4-1
		c-0.2-0.4-0.9-2-1.5-2.9c0.6-0.2,0.6-1.3,1.1-0.9C90.1,73.5,90.9,73.6,91.4,73.9z M95.2,83.5C95.3,83.1,95.6,83.1,95.2,83.5
		L95.2,83.5z M95.2,82.8C95.2,82.7,95.1,82.3,95.2,82.8L95.2,82.8z M90,84.8C89.3,84.9,89.7,84.4,90,84.8L90,84.8z M89.6,77
		C90,77,90,77.4,89.6,77L89.6,77z M89.7,75c0.1,0.1,0.1,0.2,0.1,0.2C89.8,75.2,89.8,75.1,89.7,75z M87.1,139.5
		C86.3,139.5,86.5,139.5,87.1,139.5L87.1,139.5z M83.7,72C82.7,71.9,83.6,72,83.7,72L83.7,72z M82.9,83.2c-0.5,0-0.7-0.7-0.4-0.6
		c-0.3,0-0.5,0-0.8,0c-0.2,0.8,0.2,0.9,0.7,1.1c-0.2,0.1-0.3,1.2-0.1,1.7c-0.1,0-0.2,0-0.3-0.1c0.3,0.2,0.4,0.5,0.4,0.8
		c-0.2-0.1-0.9,4-0.1,4.6c-0.1,0.1-0.1,1.8-0.2,1.9c0.2,0.2,0.4,0.5,0.5,0.8c-0.2,2.3-0.7,4.3-0.2,5.2c-0.2,0.1-0.4,0.1-0.6,0.2
		c0,0.2,0.1,0.8,0.3,1.7c-1.2-0.1,0.3,2.7,0.4,3.1c-1.2-0.1-0.2,0.1,0,0.1c-0.2,0-1.2,0.5-1,0.5c0,0.2,0.8,0.9,0.9,1
		c-0.7-0.3-0.7-0.9-0.6,0.2c-0.4-0.9-0.9-0.6-1.2,0.1c-0.1,0-1.9-1-2.6-0.9c-4.7-4.3-3.1-12-5.7-18.2c0.3,0.2,0.6,0.4,0.9,0.6
		c-0.7-1.1-0.5-2.9-1-3.3c-0.3-0.3-0.3-0.3-0.1-0.1c-0.4,0-0.9-0.1-1.2-0.3c0.4-0.2,0.8-0.4,1.3-0.5c0.2,0.2-2.1-2.8-0.6-3.2
		c-0.6-0.5-0.6-0.6-0.6-0.7c-0.1-0.2-0.1-0.4-0.2-0.5c-0.7,0-1.2-0.4-0.1-1c-0.3-0.3-0.5-0.5-0.8-0.8c1.1,0.4-0.6-0.2,0.5-0.3
		c0-0.2-0.8-0.7-0.6-1.6c0.2,0,0.4,0.1,0.6,0.1c-0.1-0.2-0.9-1.6-1-1.5c0.3,0,0.1-0.2,0.5,0.1c0.8-1,1.6-0.3,2.9-0.3
		c0.1-0.2,0.8-1,0.8-1c-0.2,0.3-0.1,0.5,0.1,0.8c-0.1-0.4,0.8-0.8,1-0.7c0,0.2-0.1,0.4-0.2,0.5c0.2-0.3,0.4-0.4,0.7-0.4
		c-0.7,0.7,0.1,0.4,0.5,0.9c0.1-0.2,0.8-0.8,1-1c-0.9,1.4,1,0.9,0.9,1.4c0.4-0.2,1.8-0.9,2.6-1.5c0.2,0.7,1.2,0.5,0.8,1.1
		c1.2-0.7,0.9,0,0.6,0.4c0.3,0,0.6,0,0.8,0.1c-0.2,0.1-0.4,0.5-0.7,0.2c0.4,0.4,0.4,1.4,0.4,1.7c-0.8-0.3-0.4,1.8-0.7,2.2
		c0.4,0.1,0.8,0.3,1.1,0.6c-0.4,0.1-0.8,0-1.2-0.1c0.3,0.2,0.6,0.3,0.9,0.4C82.2,78.9,82,79,81.7,79c0.3,0,0.5,0.1,0.6,0.4
		c-0.7,0.6-0.4-0.1-1,0.3c0.2,0.3,0.5,0.3,0.9,0.2c-0.1,0.3-0.3,0.4-0.7,0.3c0.5,1,1.3,1.5,1.7,2c0.1,0.2-0.6-0.1-0.8-0.1
		C82.7,82.5,82.9,82.8,82.9,83.2z M82.6,88.7C82.7,88.3,83.1,88.3,82.6,88.7L82.6,88.7z M82.6,88C82.6,87.9,82.5,87.6,82.6,88
		L82.6,88z M81.2,114c-0.1-0.3,0.8-0.5,0.8-0.3C82.6,114.1,81.3,114,81.2,114z M81.6,114.4C81.6,114.4,81.6,114.4,81.6,114.4
		C81.6,114.4,81.6,114.4,81.6,114.4z M82.5,113.6C82.7,113.8,81.5,113.8,82.5,113.6L82.5,113.6z M72.2,72
		C72.1,72.3,71.8,72.3,72.2,72L72.2,72z M75.7,65.7C75.9,66.5,73.9,66,75.7,65.7L75.7,65.7z M79,72.3C79.1,71.6,79.2,72.1,79,72.3
		L79,72.3z M80.8,72.4C80.7,72.2,81.1,71.4,80.8,72.4L80.8,72.4z M81,72.5c0.4-0.9,0.8-0.4,1.8-0.5C82.5,72,81.3,72.5,81,72.5z
		 M82.3,72.6C82.3,72.7,82.2,72.8,82.3,72.6L82.3,72.6z M82.1,72.9c-0.1,0-0.1,0-0.1-0.1C82,72.8,82,72.8,82.1,72.9z M41.2,218.2
		C41.7,218.4,41.3,219.5,41.2,218.2L41.2,218.2z M53.8,227.6C53.6,228.4,52.6,227.3,53.8,227.6L53.8,227.6z M56.6,228.8
		c-1.1-1.6-3.4-1.1-4.5-2.7c0.8,0.4-0.9-0.5-1-0.5c0.5,0.8,0.2,1-0.8,0.5c0.5-0.2,0.5-0.4,0.1-0.8c0,0.5-2.2-0.3-2.5-0.5
		c0.2-0.2,0.4-0.3,0.6-0.3c-0.6,0-1.2-0.1-1.7-0.5c1.7,0.1,0-0.7-0.7-1.3c-0.3,0.1-1.7-0.3-2.5-0.2c0.4,0-2.5-5.2-2.6-7.3
		c0.2,0,0.4,0.1,0.5,0.4c0.2-0.7-0.2-3.4,0.6-2.3c-0.5-1.9-0.8-2,0-1.1c0-0.7-0.2-1.3-0.6-1.8c0,0.5-0.2,1.4-0.1,0.9
		c-0.4,0.8-0.4,1.6,0.1,2.4c-0.2-0.1-0.3-0.2-0.5-0.3c0-2.1,0.1-4.2,0.2-6.3c1,0.2,0.3,0.1,1.1,0.6c0.2-0.9,0.7-1.7,0.7-2.5
		c0,0.3,0,0.5,0,0.8c0.6-0.7,0-1.6-0.3-2.3c0.3,0.2,0.5,0.1,0.7-0.2c-0.3,0-0.6-0.1-0.8-0.3c0.8-1,1.8-6.8,1.1-8.9
		c0.9,1-0.1-1.9-0.4-2.2c0.2-0.1,0.5-0.1,0.7,0c-0.4-0.8,0.9-2.9,1-2.9c-0.1-0.5-0.3-0.7-0.8-0.6c0,0.3,0.7-5.3,0.3-5.2
		c-1.1,0.4-1-0.7-0.7-0.8c0-0.1,0.3,0.5,0.6,0.5c-0.2-0.7-0.3-1.5-0.3-2.3c0.7-0.1,0.3,1.3,0.3,1.5c0.2-0.1,0.3-0.2,0.3-0.2
		c-0.1-1.2-0.1-6.1,0.1-6.5c0.2,0.1,0.4,0.2,0.6,0.3c-0.3-0.6-0.4-1.2-0.3-1.9c0.1,0.2,0.1,0.5,0.2,0.8c0.8-1.2,1.1-8.7,1.2-10.7
		c0-1.2-0.6-4,0.1-5.4c-0.2-0.6-0.3-1.3-0.3-2c0.6-1.5-0.4-8.1-3.6-6c0-0.1,1-0.9,1.1-0.9c-0.2,0.1-0.5,0.1-0.7,0
		c1.1-0.4-0.6-0.4,0.8-0.4c-0.3-0.5,0.5-1.9,1.2-3.1c0.9,0.7,0,0.1,0.3-0.5c1.1-2.2,1.9-3.2,3.3-5.8c-0.6,0.6-0.3-0.1-0.1-0.3
		c-0.2,0-0.4-0.1-0.4-0.4c0.4-0.3,0.6-0.3,0.7,0.3c1-2.7,7.7-1.1,9.5-1.1c1.4,1.2-2.8,15.5-3.2,16.6c-0.8,0-0.1,10.7-0.8,12.1
		c-0.2-0.2-0.3-0.3-0.5-0.5c0.4,2.5-0.4,5,0,7.5c0,0-0.2,5.6-0.3,7.3c-0.1,4.4-0.1,8.1,0.7,13.3c-0.7,0-0.1-1.9-0.9-1.8
		c0-0.1,2,5.5,0.5,3.8c0.2,1.1,0.3,4.3,0.6,4.9c0.5,0.2,2,1,1.2,0.9c-0.9-0.4-0.1,1.5-1.3,0.8c0.6,1.6,2.2,7.7,1.8,10
		c-0.1-0.2-0.2-0.3-0.3-0.5c0.1,0.4,0.2,0.9,0.3,1.3c0-0.3,0.1-0.5,0.1-0.8c1,1.8,1.2,5.5,1.1,6.5c-0.3-0.5,0.4,3,0.4,3.1
		c-0.2-0.1-0.5-0.3-0.7-0.5c0.3,1.3,0.9,4.5,1.5,5.4c-0.1-0.2-0.3-0.3-0.4-0.4c0.1,0.7,0.3,1.3,0.6,2
		C58.3,229.6,56.2,227.7,56.6,228.8z M40.9,213.6C41.2,214.5,41,214.8,40.9,213.6L40.9,213.6z M45.2,169.6
		C45.1,170.6,45.2,169.8,45.2,169.6L45.2,169.6z M62.2,186.1c0,0.5,0,1.1,0,1.6C61.6,186.6,61.6,186.1,62.2,186.1z M62.2,179.9
		c0,0.8,0,1.6-0.1,2.5C61.9,182.7,62.1,180.9,62.2,179.9z M73.3,235.9c-1,0-1.9-0.2-2.8-0.5c0.3,0,0.6,0,1-0.1
		c-0.5,0.1-0.9,0-1.4-0.1c0,0,0,0,0.1,0c0,0-0.1,0-0.1,0c0,0,0,0,0.1,0c-0.1-0.1-0.3-0.2-0.3-0.4c0.1,0,2.3,0.5,2.4,0.3
		c-3.5-0.5-5.3-0.3-5.6-3.7c0,0,0.7,2.1,0.9,2.3c0.3,0,0.8,0.3,2,0.7c-1.3-0.9-0.6-0.6,0-0.4c-2.4-1.7-5.4-21.2-5.5-23.5
		c0.2,0.4,0.5,0.8,0.7,1.1c-0.3-2.6-1.2-4.8-1.2-7.4c0.3,0.7,0.5,2.1,0.5,2.9c0.3-6.7-1.3-14-1.5-21c0.9,1.7,0.4-4.9,0.4-5.4
		c0-2.7,0.2-5.5,0.5-8.2c0.3-3.5,0.7-8,1-10.9c0.1-1.1,0.3-2.1,0.4-3.2c0.5-5.6,0.9-11.4,2.7-16.7c0,0.3,0,0.6-0.1,0.9
		c1-3.7,0-5.1-2-8.2c0.2,0.2,0.3,0.3,0.5,0.5c-2.6-3.4-6.9-6.9-8.7-10.8c-1.3-2.8-0.2-4.8,0.3-8.1c0.6-3.9,0.8-7.8,1.8-11.6
		c0.5-1.7,3.5-16.2,4.7-16c0.4,1,0.7,4.1,0.9,5.1c-0.3-0.5-0.5-1-0.6-1.6c0.7,2.4,1.1,5,1.3,7.4c0.3,7.4,5.5,15.2,15.2,15.2
		c-3.7,2.5-2.1,9.8-2.1,13.3c0.1,4.3-1.2,16.4,2.9,18.8c-0.7,0.5-4.5,0-3-0.2c-7.1,0.1-9.1,1.9-8.9,8.8c0.1-0.2,0.2-0.4,0.4-0.5
		c0,0.6-0.5,2.8-0.4,2.3c0.5,7.4-0.7,14.7-0.5,22.1c0.1,2.1,1.3,6.1,0.5,9c0-0.1-0.3-1.1-0.3-1.1c-3.3,0.1,3.4,9.3,3.2,9.1
		c1.5,2,1.2-0.4,2,1.9c1.3,3.5-0.4,10.4-0.3,14.2c0.1,5-0.3,9.2,0.2,13.3c0-0.1,0-0.2,0-0.3c0.1,3.9,5.2,9,7.8,10.5
		C79.1,235.7,74.1,234.8,73.3,235.9z M82.7,225.5C83.3,225.4,83.2,226.7,82.7,225.5L82.7,225.5z M165,212.4
		c0.3,2.7,0.3,7.9-0.5,11.1c-0.4,1.7-5.1,6.2-8.5,4.8c0.2-0.2,0.3-0.3,0.5-0.5c-2.6,0.6-5.2,0-7.8,0.5c0,0-5.9-0.1-7.7-0.1
		c-4.6,0-8.6,0-14,0.5c0.1-0.7,2,0,1.9-0.8c0.1,0-5.9,1.7-4.1,0.3c-1.2,0.2-4.5,0-5.1,0.2c-0.3,0.5-1.2,1.9-1.1,1.2
		c0.5-0.9-1.6-0.2-0.7-1.3c-1.9,0.5-8.2,1.4-10.7,0.7c0.2-0.1,0.4-0.2,0.5-0.2c-0.5,0-0.9,0.1-1.4,0.1c0.3,0.1,0.5,0.1,0.8,0.2
		c-2,0.8-5.8,0.5-6.9,0.2c0.6-0.2-3.1-0.1-3.3-0.1c0.2-0.2,0.4-0.4,0.6-0.6c-1.6,0.3-3.3,0.5-4.9,0.5c-0.5,0-3.5,0-5.1-0.2
		c-2.1-1-4-3.3-4.5-5.2c-0.6-1.3-1.2-0.6-1.3-1.8c0.4,0.4,0.6,0.3,0.8-0.3c-0.5,0.2-0.7-2.3-0.7-2.5c0.2,0.1,0.4,0.2,0.5,0.5
		c-0.3-0.6-0.4-1.2-0.4-1.9c0.7,1.7,0.7-0.4,0.9-1.3c-0.2-0.2-0.5-1.7-1-2.5c1.2,2,1.2-2.4,1.4-2.3c-0.2-0.9-0.6-4.7-1.5-6.6
		c0.3,0,0.4,0.2,0.5,0.4c0.2-0.7-0.1-3.6,0.7-2.4c-0.5-2-0.8-2.2,0-1.2c0-0.7-0.2-1.4-0.6-1.9c0,0.6-0.2,1.5-0.1,0.9
		c-0.4,0.9-0.3,1.7,0.1,2.6c-0.8-1.4-0.5-3.5-0.5-5.4c0.2,0.3,0.2,1.9,1.2,1.4c-0.2-0.1-0.9-0.8-0.8-1.1c0.1,0.1,0.9,0.2,1.3,0.3
		c-0.2,0-0.4-0.1-0.6-0.1c0.7,0.7,1.7,0.2,2.4,0c-0.2,0.3-0.2,0.5,0.1,0.7c2.1-1,6,2.1,9.8,1.2c-1.1,0.8,2,0,2.4-0.2
		c0.1,0.3,0,0.5,0,0.7c0.8-0.4,2.8,0.5,3.3,0.8c0.1-0.2,0.3-0.4,0.5-0.6c-0.3,0,5.7,0.8,5.6,0.4c-0.4-1.1,0.7-1,0.8-0.7
		c0.1,0-0.6,0.3-0.6,0.6c0.8-0.2,1.6-0.3,2.4-0.3c0.1,0.7-1.4,0.3-1.6,0.3c0.1,0.2,0.2,0.3,0.2,0.3c1.3-0.1,6.4-0.2,7,0
		c-0.1,0.2-0.2,0.4-0.3,0.6c0.6-0.3,1.3-0.4,2-0.4c-0.3,0.1-0.5,0.2-0.8,0.2c4,2.4,13.7-2,17.3,0c2.9,0.4,8.3-0.4,11.5-0.8
		c1.9-0.2,4-0.2,4.1-0.6c1.4-0.5,2.5,0.3,4.1-0.3c-0.1,0.7,5.1-0.3,7.7-0.8c-0.2,0-0.9-0.9,0.2-0.3c-0.1-0.2-0.1-0.4,0-0.6
		c0.5,0.1,0.6,0.3,0.2,0.7c1.3,0,2.6-0.2,4.4-1c-0.5,1.9-0.6,5.9,0.3,6.7C166.1,207.1,164.1,210.4,165,212.4z M81.9,208.2
		C82.3,208.4,82.2,209.4,81.9,208.2L81.9,208.2z M82,196.7C81.8,197.2,81.9,196.7,82,196.7L82,196.7z M111.9,193.7
		c0.4,0,0.7,0,1.1,0.1C113.3,194.3,111.5,193.5,111.9,193.7z M114.4,193.8C114.6,193.8,115.8,193.8,114.4,193.8L114.4,193.8z
		 M121.7,202.1C121.5,202.1,120.7,202.2,121.7,202.1L121.7,202.1z M123.9,186.6c0,0-0.1,0-0.1,0c0,0,0,0-0.1,0c0,0,0,0,0,0
		c-0.1,0-0.2-0.1-0.3-0.1C123.6,186.4,123.8,186.5,123.9,186.6c-0.9-0.4,0.7,0.2-0.3-0.2c0,0,0,0,0,0c-0.6-0.2,0.4,0.1-0.3-0.4
		c0.7,0.2,0.4,0.3,0.9,0.6c-0.1-0.1-0.1-0.1,0,0c-0.2-0.2-0.4-0.4-0.6-0.6c0.3,0.3,0.4,0.3,0.3,0.1c0.2,0.3,0.1,0.1,0-0.2
		c0-0.1,0-0.1,0-0.1c0.1,0.2,0.2,0.3,0.3,0.5c0-0.1-0.1-0.5-0.2-0.6c0.3,0.4,0.3,0.7,0.2,0.2c-0.1-0.4,0.2,0.7,0.2,0.6
		c0,0,0-0.7,0-0.1c0-0.8,0.1-0.1,0,0.2c0.4-1.5,0.1-0.4,0.1-0.2c0.1-0.1,0.1-0.3,0.3-0.4c-0.1,0.1-0.4,0.7,0,0c0,0.1,0,0.1-0.1,0.2
		c0,0,0,0,0,0c0.1-0.1,0.2-0.1,0.4-0.3c-0.1,0.1-0.2,0.2-0.3,0.3c0,0,0,0,0.1,0c0,0,0,0,0,0c0,0,0,0,0,0c-0.1,0.1-0.1,0.1,0,0
		c-0.1,0-0.1,0.1-0.2,0.2c0.1-0.1,0.2-0.2,0.2-0.2c0,0,0,0,0,0c0,0,0,0,0,0c0,0,0,0,0,0c0.1-0.1,0.1-0.1,0,0c0.1,0,0.3,0,0.5-0.1
		c-0.1,0-0.2,0.1-0.3,0.2c0.1,0,0.2-0.1,0.3-0.1c-0.5,0.3-0.1,0.2,0,0.2c-0.5,0.1-0.1,0,1.1-0.2c-0.4,0.1-0.9,0.2-1.3,0.3
		c0.5-0.1,0.5-0.1,0,0c0.6-0.1,0.6-0.1,0.1,0c0.4-0.1,0.4,0.1,0.4,0.1c-0.2,0-0.3,0-0.5,0c0.4,0.1,0.5,0.2,0.7,0.2
		c-0.1,0-0.2,0-0.3,0c0.2,0.1,0.4,0.1,0.6,0.2c-1.5-0.4,0.8,0.2-0.5-0.1c0.1,0,0.3,0.1,0.4,0.1c-0.1,0-0.3,0-0.7-0.1
		c0.1,0.1,0.4,0.4,0.6,0.5c-0.1,0-0.2,0-0.3-0.1c-0.1,0-0.3,0.1,0.1,0.4c-0.8-0.5-0.1,0-0.2,0.1c-0.2-0.1-0.3-0.2-0.4-0.3
		c0,0,0.1,0.1,0.1,0.2c0,0.1,0.1,0.3,0.2,0.5c0,0,0,0.1,0.1,0.3c-0.1-0.1-0.5-0.9-0.1-0.1c0,0-0.3-0.4-0.4-0.5c0.1,0.1,0,0-0.1-0.2
		c0,0.2,0.3,0.7,0.4,0.9c-0.2-0.4-0.4-0.7-0.6-1.1c0.1,0.2,0.2,0.6-0.1-0.1c0.2,0.6,0.2,0.6,0.2,1.5c0,0-0.3-0.8-0.3-0.8
		c0,0,0,0.2,0,0.3c0-0.1,0,0,0,0c0,0,0,0.1,0,0.1c0,0,0,0.1,0,0c-0.2,0.6-0.3,0.7-0.3-0.3c0-0.5,0-0.1,0-0.8c0.1-0.3,0.1-0.9,0-0.3
		c0,0,0,0,0-0.1c0,0,0,0.1,0,0.1c0,0.2,0,0.2,0,0c0,0,0,0,0,0c0,0.1,0,0.1,0,0.2c0,0.1,0,0.2-0.1,0.3c0-0.1,0-0.2,0-0.3
		c0,0,0-0.1,0-0.1c0,0.1,0,0.1,0,0.1c0-0.1,0-0.2,0-0.4c-0.2,1.1-0.1,0,0-0.1c-0.2,1.1-0.1,0.2,0-0.2c0.1-0.1,0.1-0.2,0,0
		c0-0.1,0-0.1,0-0.1c0,0.1-0.1,0.3-0.2,0.4c-0.1,0.2-0.2,0.4-0.4,0.7c0.1-0.3,0.2-0.5,0.3-0.7c0-0.1,0.1-0.1,0.1-0.3
		c0,0.1-0.1,0.1-0.1,0.1c0,0,0,0,0-0.1c0.1-0.1,0.1-0.3,0.2-0.4c-0.1,0.1-0.1,0.2-0.2,0.3c0,0,0,0,0,0c0-0.1,0.1-0.1,0.1-0.1
		c0,0,0,0.1-0.1,0.1c0.2-0.5,0-0.2-0.1,0.1c-0.3,0.4-0.3,0.4-0.1,0.1c-0.3,0.4-0.4,0.5-0.7,0.8c0.1-0.1,0.1-0.1,0.4-0.5
		c-0.1,0.1-0.2,0.2-0.4,0.3c0.5-0.6,0.3-0.2,0.9-0.9c0,0.1-1.4,1.3-0.6,0.5c0-0.1,0.1-0.2,0.2-0.3c0,0,0,0,0,0
		c-0.1,0.1-0.3,0.3-0.2,0.1c0,0-0.1,0-0.1,0c0,0,0.1,0,0.1-0.1c0,0,0.1-0.1,0.2-0.2c-0.1,0-0.1,0.1-0.2,0.1c0.1-0.1,0.2-0.1,0.2-0.1
		c0,0,0.1-0.1,0.2-0.1c-1.2,0.5,0-0.2,0.2-0.2c-0.5,0.1-0.5,0.2-0.2,0.1c-0.2,0.1-0.7,0.2,0,0c-1,0.3-0.4,0-0.2,0
		c-0.2,0-0.3,0-0.5,0c0.1-0.1,0.3-0.2,0.5-0.2C123.2,186.6,122.1,186.5,123.9,186.6z M123.3,186.5c0.1,0,0.2,0,0.2,0.1c0,0,0,0,0,0
		C123.5,186.5,123.4,186.5,123.3,186.5z M124.4,178.4c0,0.1,0.1-0.5,0.1-0.9c0.2,0.2,0.4,0.5,0.7,0.8
		C125,178.4,124.7,178.4,124.4,178.4z M126.1,178.6C125.7,178.5,126.3,177.7,126.1,178.6L126.1,178.6z M126.4,186.9
		c0.1,0.1,0.1,0.1-0.3,0.1C126.2,187,126.3,187,126.4,186.9z M126.1,188.4C125.5,187.8,126.2,188.4,126.1,188.4L126.1,188.4z
		 M125.9,188.5c0-0.1-0.1-0.1-0.1-0.2C125.9,188.5,125.9,188.5,125.9,188.5z M125,188.7C125.3,189.3,125.1,189,125,188.7L125,188.7z
		 M124.8,189.1C124.8,188.1,124.8,189.1,124.8,189.1L124.8,189.1z M124,187.3C124,187.3,124,187.3,124,187.3
		C123.7,187.8,123.9,187.6,124,187.3z M123.9,187.5C123.9,187.5,123.9,187.5,123.9,187.5C123.9,187.5,123.9,187.6,123.9,187.5
		C123.9,187.6,123.9,187.5,123.9,187.5z M123.5,202.1C122.3,202,122.8,201.8,123.5,202.1L123.5,202.1z M127.1,178.8
		C126.9,178.8,127.2,178.1,127.1,178.8L127.1,178.8z M130.4,180.9C130.2,180.8,131,180.4,130.4,180.9L130.4,180.9z M166,188.9
		c-0.4,0.3-1.5,0.6-1.2,0.4c-4.3,2.4-7.9,0.5-12.5,2.4c0.8-0.7-3.7,0.7-3.6,0.6c0.2-0.1,0.4-0.3,0.4-0.5c-0.6,1-5.6,0.4-5.3,0.2
		c1-0.6-7.6,2.6-8.3,1.4c0.8,1.1-1.6,1.4-0.5,0.5c-0.2,0.1-0.4,0.1-0.6,0.2c0.1-0.2,0.2-0.4,0.4-0.5c-1,0.3-2,0.5-3.1,0.5
		c0.3-0.3,0.4-0.4,0.3-0.3c1.2-0.2,0.5-0.2,2-0.2c-0.4-0.3-0.4-0.5,0.1-0.4c-0.2-0.5-0.6-0.7-1.1-0.6c0.2-0.3,0.2-0.8-0.1-1.5
		c0.1,0.3,0.3,0.6,0.4,0.8c0-0.4,0.4-1.8,0.4-2.4c-0.1-0.1-0.5-0.3-1-0.7c0.5,0,0.9,0.1,1.3,0.1c-0.5-0.2-0.5-0.3,0-0.1
		c0,0-0.9-1.6-0.6-1.9c0.3,0,0.5,0,0.8-0.1c-0.4-0.7-0.5-0.2-0.6-0.8c-0.1,0.1-0.9,0.2-0.8,0c-0.2-0.1,0.8-0.7,0.8-0.7
		c-0.2-0.2-0.5-0.3-0.7-0.4c1.4,0.1-0.7,0,0.5-0.2c-0.2,0-0.3,0-0.4-0.1c-0.6-0.3,0.1-0.6,0.5-0.8c-1-1.6-1.8-2.9-2.7-3.8
		c0,0-0.3,0.1-0.6,0.2c0-0.2-0.8-0.3-1-0.2c0.1-0.1,0.2-0.2,0.4-0.3c-0.2,0.2-0.4,0.2-0.6,0c0.5-0.3,0.3-0.4,0.2-0.9
		c-0.1,0.1-1.1,0.6-1,0.6c0.5-0.5,0.1-0.7,0.5-1.1c-0.2,0.2-0.7,0.1-0.4-0.4c-0.5,0.1-1.2,0.4-1.9,0.9c0-0.2-0.3-0.8-0.3-0.9
		c0,0-0.2,0.2-0.3,0.3c0.1,0,0.1,0,0.2,0.1c-0.3,0.1-0.4,0.2-0.6,0.3c-0.3-0.4-0.7-0.9-1.3-1.7c-0.1,0-0.1,0-0.2,0
		c-0.1,0-0.2,0-0.3-0.2c-0.1,1.2-0.1,0.1-0.3,0c-0.2,0.9-0.3,0.3-1.3,0.8c-0.1-0.3-0.4-0.6-0.6-0.8c0.1,2-1.2-0.7-0.9,1.7
		c-0.2-0.4-0.4-0.7-0.5-1.1c0,0.3,0.1,0.6,0.1,0.9c-0.2-0.1-0.4-0.3-0.5-0.5c0.1,0.2,0.1,0.4,0,0.6c-0.1-0.1-0.4-0.4-0.6-0.6
		c0,0.2,0.1,0.5,0.3,0.7c-0.3,0-0.5-0.2-0.6-0.5c-0.5,1.2,0,1.1-0.1,2.2c0,0-0.3-0.5-0.5-0.6c0.1,0.3,0,0.5-0.1,0.7
		c-0.6-0.6,0.3-0.5-0.5-1.2c-0.8,0.3-0.2,0.8,0,1.1c0,0.5-1.1-0.4-0.9,0.1c0.4,0.2,0.5,0.4,0.3,0.7c-0.1-0.1-0.3-0.3-0.4-0.4
		c0.1,0.2,0.2,0.5,0,0.7c-0.2-0.2-2.1,2.1-1.5,2.7c0,0.9-0.2,3.6-0.7,4.8c0,0,0.8,0.4,0.8,0.4c-0.2,0.1-0.3,0.2-0.5,0.2
		c0.1,0.1,0.2,0.2,0.3,0c0,0.3,0.3,0.9,0.3,1c-1.1,0.4,1,1.5,1.3,1.6c0,0,0,0,0,0.1c0,0,0.1,0,0.1,0c0.1,0.5-1.4,0.7,0,1.6
		c-3,0.2-7.7-0.9-11.2-1.1c-1.4-0.1-6.1,0.1-7.4-0.7c-5.1-1.3-13.9-3.1-19.4-3.3c0-0.1,0-0.2,0-0.2c-0.1,0-0.2,0-0.3-0.1
		c0.5-0.1,0.7-0.4,0.4-0.6c0,0.2,0.2-4.1-0.2-5.3c1,0.3,0.1-0.3,0.2-1.7c0.2-3.2,0.2-5.5,0.2-9.4c-0.3,0.8-0.5,0.8-0.8,0
		c0.2-0.1,0.3-0.2,0.5-0.3c-0.2,0.2-0.4,0.1-0.6-0.2c0.2-0.7,0.4-0.8,0.7-0.1c0.4-2.9,1.2-11.6-0.7-15c0.9,0.6,2.7,0.2,3.5-0.3
		c0.5,0.1,1.9,0,1,0.1c0.3,2.8-1.9,7.2-0.2,9.5c0.9,1.1-1.4,7.2,1.7,9.5c2.1,1.6,6.2,0.8,8,1c0.2,0.8,10.8-0.4,12.3-3.8
		c1.2-2.6-0.9-5.5-0.3-7.8c0.2,0.2,0.3,0.4,0.5,0.7c-0.4-2.8-0.4-6.2-0.2-8.8c0.1,0.4,4.5,0.3,3.6,0.4c3.3-1.1,8-0.6,11.5-0.5
		c4.4,0.1,10.1-0.1,15.2-0.4c-0.1,0.7-2.9,0.1-2.8,0.8c1-0.1,7.6-1.2,5.9-0.3c2.4-0.3,4.7,0.1,7.1-0.3c-0.7,0.2-0.6,0.3,0.2,0.2
		c-1.3,0.1,3.6-1.9,1.7,0c1.3-0.7,0.8,7.7,0.6,10.4c0.1-0.2,0.2-0.3,0.3-0.5c0.2,1,0.2,2,0.2,2.9c-0.1-0.3-0.2-0.5-0.2-0.8
		c0,0.7,0.1,1.3,0.1,2c0.1-0.4,0.1-0.8,0.2-1.1c0.3,1.2,0.6,1.5,0.5,3.2c0.4,0.9,1,1.7,1.2,2.1c2.6,0,4.1-0.2,5.8,0.1
		c-0.7,0.2,4.5,0.1,4.7,0.1c0.3,0.4-1.2,0.3-0.9,0.6c2.2-0.1,6.6-1,7-1.2c0,0.1,2.1-3.2,2.1-2.7c0.4-1.7-0.4-3.8-0.4-5.6
		c-0.1-1.9-0.5-7.6,0-10.5c0.9,0,1.2,0.1,0.8,0.4c0.3-0.1,1.1-0.2,1.4-0.2c-0.1-0.6-2.5-0.8,0.8-0.8c-0.9,0.2-0.3,0.4,0,0.8
		c0-0.2,1.1-0.5,1.2-0.6c-0.2,0,0,1.9,0,2.4c-0.2-0.1-0.4-0.3-0.5-0.5c0.1,0.4,0.2,0.8,0.3,1.3c0,0.4,0,0.9,0,1.3
		c-0.8-2.7-0.8,0.7-0.9,1.9c0.5,0.3,0.4,2.1,1,3.6c-0.7-1.7-1.5,3-0.9,3.3c0.9,2.6,0.5,6.8,1,9.7c-0.3-0.1-0.4-0.3-0.5-0.6
		c-0.7,3.2-0.4,4.2-0.1,6c-0.3-0.2-0.5-0.4-0.6-0.8c0,1,0.2,1.9,0.6,2.8c0-0.2,0.1-0.4,0.1-0.6c0,0.5-1.2-1-0.1-1.3
		c0,0.2,0.1,0.4,0.1,0.6c0.3-0.9,0.3-1.8,0.2-2.7c0.4,2.5,0.8,8.7,0.1,8.9c0-0.4,0-5-1.1-4.2c1.1,1.3,0,1.7,0.6,2.9
		c-1.1-0.5-1.9,0.4-2.9,0.3c0.4-0.1,0.7-0.2,1.1-0.3c-1.2-0.3-2.3,0.7-3.2,1.2C166.6,189.1,166.4,188.9,166,188.9z M116,182.4
		C116,182.1,116,182.4,116,182.4L116,182.4z M167.9,114.2c0.2,0.2,0.3,0.2,0.2,0.3C168,114.4,167.9,114.3,167.9,114.2z M172,171.7
		c0,0.3,0,0.7,0,1C171.5,172.3,171.5,172,172,171.7z M172,178.5c0,0.4,0,0.8,0,1.2C172,179.7,171.2,178.2,172,178.5z M171.7,180.4
		c-0.1-0.3-0.1-0.6-0.2-0.9C171.6,179.6,171.6,180,171.7,180.4z M184.6,222.5c0-0.2,0.4-3.4,0.5-3.2
		C184.9,220.4,184.7,221.5,184.6,222.5z M186.8,204.3c-0.4-0.9-0.3-1.9,0.2-2.7C187,202.5,186.9,203.4,186.8,204.3z M186.7,131
		c-2,2.5-3.1,4.1-3.6,5.7c0.3-0.3,0.6-0.4,0.2,0.2c-0.2,0.4-0.3,0.8-0.5,1.2c-0.2,1.6-0.1,3.4,0.1,6.4c-0.1-0.2-0.2-0.4-0.4-0.5
		c0.5,2,1,3.9,1.3,5.9c0.2-0.7,0.2-1.4,0.1-2.1c0.5,1.3,0.8,2.5,1,3.9c-0.7-2.7-0.2,1.5-0.2,2.1c0.5,3.3,1.4,5.1,1.6,8.6
		c-0.1,0.2-0.7-1.8-0.7-1.8c0.3,2.3,1.2,4.6,1.1,7c-0.2-1.2-0.4-2.4-0.6-3.6c-0.1,1.1-0.1,3.7,0,4.3c0,1.4,0,2.8,0.1,4.2
		c0-0.4,0-0.7,0.1-1.1c1.1,2.7,0.8,5.8,1.1,8.7c-0.1-0.1-0.2-0.2-0.3-0.2c-0.6,2.7-2,9.3-0.9,11.8c-0.1-0.2,0.3-0.9,0.4-1.2
		c0.5,4.8-0.7,9.9-0.8,14.7c-0.1,3.5,0.2,7.1-0.2,10.6c-0.1,0.2-0.3-1.5-0.3-1.6c-0.5,2.2-1,5.1-1.3,6.8c-0.1,1-0.6,6.8-0.7,2.2
		c-0.2,2.2-0.4,4.4-0.5,6.6c-0.1,0.2-0.2-2.4-0.2-2.2c-0.1,0.8-0.1,1.9-0.1,2.9c0.1-0.2,0.2-0.4,0.4-0.5c-0.1,0.5-0.1,1.1-0.2,1.6
		c1.7-2.3,1-6.9,1.5-9.7c0.3,1.8,0,11-1.5,12.6c-2.3,2.6-9.8,2.7-12.9,2.8c-0.3,0.2,1.1-1,1.9-1.3c-2.2,0.4-2.5-0.2-4.7-0.4
		c10.7-6.2,7.6-22.9,7.7-33c0-9.4-0.8-2.2,3.8-7.6c2.1-2.4,2-7,1.5-11.2c0,0,0,0,0,0c-0.2-4.3,0.6-11.6-0.3-16.3
		c0-4.6,1.4-12.4-0.2-17c0,0.1,0,0.2,0,0.3c0-0.4-0.3-1-0.7-1.5c-0.7,0.2-3.9-3-5.5-1.6c0.1-0.4-4.9-0.4-3-1.2
		c-0.4,0.1-1.6,0.4-1.6,0.2c0-0.5,0.4,0,0.4-0.5c0,0,0-0.1,0-0.1c-0.1,0.1-0.3,0.2-0.4,0.3c0.1-0.2,0.3-0.3,0.6-0.6
		c0.4-0.7,1.5-1.6,1.7-2.3c0.3-1.1,0.1-3.3,0.1-4.3c0.2,0.1,0.2,0.2,0.2,0.4c-0.1-5-0.7-9.9-0.5-14.9c0.3,0.7,0.7-4.7,0.6-5.6
		c-0.1,0.4-0.2,0.9-0.3,1.3c0-3.1-1.6-4.3-3-5.9c0.1,0,0.3,0,0.5,0.1c-1.3-0.5-0.4-0.9-0.2-1.3c-1,0.1-0.3-0.3-0.7,0.7
		c-0.1-0.6-0.6-0.9-0.6-1.4c0.2,0.5,5.5-0.4,5.6-0.4c3.5-1.9,9.1-4.2,8.8-9.8c0,0.8,0.7-4.2,0.9-5.4c0,0.3,0,0.6,0,1
		c0.8-3.8,1-7.7,2-11.4c0,0.9,0.1,1.8,0.2,2.6c0.1-0.6,0.1-1.4,0.3-2.1c2.4,2.7,3.3,6.8,4,10.2c-0.1-0.4-0.1-0.7-0.2-1.1
		c1.3,0.8,1.2,5,1.5,6.8c-0.1-0.2-0.2-0.2-0.4-0.2c0.8,4.8,2.1,9.5,3,14.3c-0.1-0.2-0.2-0.5-0.3-0.7
		C193,124.9,191.9,124.4,186.7,131z M179.1,176.3c0.3,0.1,0.4,3,0.5,5.2C179.4,179.5,179.2,177.6,179.1,176.3z M190.9,227.2
		C190.9,227.7,190.9,227.3,190.9,227.2L190.9,227.2z M206.5,210.9c-0.3-0.2-0.5-0.1-0.7,0.2c0.3,0,0.6,0,0.8,0.3
		c-0.2,0.2-0.4,1.2-0.7,0.6c1.1,2,0,8.1-0.3,9.4c-0.2-0.2-0.4-0.5-0.6-0.8c0.5,0.9-2.4,1-2.5,0.9c-0.4,0.3-0.4,0.7-0.1,1
		c0.1-0.1-5,2.1-4.6,2.5c0.9,0.7,0,1.2-0.3,1c-0.1,0.1,0.3-0.5,0.1-0.8c-0.5,0.6-1.1,1.1-1.8,1.4c-0.5-0.6,0.9-0.9,1.1-1.1
		c-0.2-0.1-0.3-0.1-0.3-0.2c-1.2,1.1-4.6,2.6-4.5,2c-0.2,0.4-0.4,0.7-0.8,0.9c0.1-0.2,0.2-0.3,0.3-0.4c-0.2,0.2-0.4,0.6-0.5,0.6
		c0.2-0.3,0.3-0.6,0.5-0.8c0.9-0.7,0.2-9.3,1.3-10.6c-0.2-0.7-0.3-1.3-0.2-2c0.7-2.5,1.7-7.3,1.9-10.2c0.1-1.1-0.4-2.5-0.4-2.5
		c-0.3-1.5,0.7-2,0.4-3.8c1.1,0.3,0,0.1,0.1-0.6c0.2-2.5,0.6-3.6,0.6-6.7c-0.3,0.9-0.3-0.1-0.3-0.2c-0.2,0.1-0.4,0-0.6-0.1
		c0.2-0.5,0.4-0.5,0.7,0c0.5-1.9,0.5-13.2-0.8-14.2c-0.3-1.4,0.8-4.8,0.4-6.5c-0.7-3.2-1-8.7-0.8-11.9c0.7-0.2-2.7-10.3-2.3-11.9
		c0.2,0.1,0.4,0.2,0.6,0.3c-0.9-2.2-1.1-4.6-1.9-6.8c0.4,0.1,0.5-0.1,0.1-0.4c0.3-0.2,1.4-0.7,1.2-1.2c1.1,0.7,6.9,0.4,7.8-0.1
		c-0.3,0,2.6,4.4,2.9,4.8c-0.7,0.2-0.9-1.7-1.5-1.3c1,1,1.8,2.2,2.5,3.5c-0.2-0.7,1.6,3.9,1.7,4c-0.3-0.3,1.5,0.3,1.6,0.3
		c-0.8-0.2-0.3,0.4-0.8,0.4c0.1,0.1,0.2,0.3,0.5,0.9c-1.5-0.9-0.2-0.1,0.1,0.2c-3.1-2.4-3.8,3.4-3.9,4.1c-0.1-0.2-0.2-0.4-0.3-0.6
		c0,0.4,0.1,0.9,0.2,1.4c0.1-0.3,0.1-0.5,0.2-0.8c0.9,1.8,0.9,5.6,0.7,6.5c-0.2-0.5,0.2,3,0.1,3.1c-0.2-0.2-0.4-0.3-0.7-0.5
		c0.4,1.5,0.7,3.1,0.9,4.6c0.2,2.6,0.4,9.3,0.6,12.6c0.1,0.5,0.2,1,0.3,1.5c0.4-0.9,0.7-0.7,0.9,0.4c-0.4-0.3-0.6-0.2-0.7,0.4
		c0.5-0.3,0.9,2,0.9,2.3c-0.2-0.1-0.4-0.2-0.6-0.4c0.4,0.5,0.5,1.1,0.5,1.7c-0.8-1.5-0.6,0.3-0.8,1.3c0.2,0.2,0.7,1.6,1.2,2.2
		c-1.4-1.8-1,2.4-1.2,2.3c0.2,0.8,1.5,4.3,2,6c-0.3,0.1-0.5,0-0.6-0.3c-0.2,0.7,0.4,3.4-0.5,2.3c0.6,1.8,0.9,2,0.1,1.1
		c0.1,0.7,0.3,1.3,0.8,1.8c-0.1-0.6,0.1-1.4,0-0.9c0.3-0.8,0.2-1.6-0.3-2.4c0.2,0.1,0.4,0.2,0.6,0.3c0.1,2.1,0.3,4.1,0.4,6.2
		c-1-0.1-0.4-0.1-1.2-0.5c-0.1,0.9-0.5,1.8-0.4,2.6c0-0.2,0-0.5-0.1-0.7C205.5,209.5,206.2,210.3,206.5,210.9z M206.7,194.5
		C206.8,194.8,206.7,194.7,206.7,194.5L206.7,194.5z M206.6,192.6C206.6,192.5,206.6,192.4,206.6,192.6L206.6,192.6z M205.6,179.6
		C205.7,180.8,204.7,179.3,205.6,179.6L205.6,179.6z M212.7,191.4c-0.2-0.3-0.1,2-0.1,2.4c0-0.2-0.1-1.2-0.3-3.7
		C212.4,190.5,212.6,191,212.7,191.4z M211,173.5c0.2,0.7,0.3,1.4,0.5,2.1C211,177,210.8,176.4,211,173.5z"/>
	<path class="st0" d="M123.7,187.3c0.1-0.1,0.2-0.1,0.3-0.2C123.9,187.1,123.8,187.2,123.7,187.3z"/>
	<path class="st0" d="M125.8,178c0,0-0.1,0-0.1,0C125.6,178.2,125.7,178.1,125.8,178z"/>
	<path class="st0" d="M131.6,12.5C131.3,12.9,131.6,12.7,131.6,12.5L131.6,12.5z"/>
	<path class="st0" d="M134.6,18C134.3,18,134.3,18.4,134.6,18L134.6,18z"/>
	<path class="st0" d="M205.7,149.9c0.1,0,0.1,0,0.2,0C205.9,149.9,205.8,149.9,205.7,149.9z"/>
	<path class="st0" d="M35.1,224.2c-0.4-0.8-0.7-1.6-0.9-2.4C34.4,223,34.7,224,35.1,224.2z"/>
	<path class="st0" d="M213.8,145.9c0.1,0.2,0.3,0.4,0.4,0.6C214.1,146.1,214,145.9,213.8,145.9z"/>
	<path class="st0" d="M33.2,217.4c0.2,1.4,0.5,2.9,1,4.4C33.7,219.8,33.4,217.3,33.2,217.4z"/>
	<path class="st0" d="M188.6,238.3c0.2-0.1,0.5-0.3,0.7-0.4C189,238,188.8,238.1,188.6,238.3C188.5,238.3,188.5,238.3,188.6,238.3z"
		/>
	<path class="st0" d="M205.7,149.9c-0.1,0-0.2-0.1-0.3-0.1C205.6,149.9,205.7,149.9,205.7,149.9z"/>
	<path class="st0" d="M95.3,24.8c-0.1-0.1-0.3-0.1-0.4-0.1C95,24.8,95.2,24.8,95.3,24.8z"/>
	<path class="st0" d="M93.7,24.5c0.3,0,0.5,0,0.7,0C94.1,24.4,93.9,24.4,93.7,24.5z"/>
	<path class="st0" d="M177.4,87.2c0,0,0-0.1,0-0.1C177.3,87,177.3,87.1,177.4,87.2z"/>
	<path class="st0" d="M179.4,150.5c-0.1-0.5-0.3-1-0.6-1.5C179,149.4,179.3,149.9,179.4,150.5z"/>
	<path class="st0" d="M168.6,104.9C168.7,104.8,168.8,104.7,168.6,104.9L168.6,104.9z"/>
	<path class="st0" d="M161.9,126.5c0,0-0.1,0-0.1-0.1C161.6,126.6,161.7,126.6,161.9,126.5z"/>
	<path class="st0" d="M177.5,147.6c0,0.1,0.7,0.9,1.3,1.7c0,0,0,0,0,0C178.8,148.5,178.3,147.9,177.5,147.6z"/>
	<path class="st0" d="M169.5,145.7c-0.1,0.1-0.1,0.1-0.2,0.2c-0.1,0.1-0.1,0.2-0.2,0.3C169.4,146,169.6,145.8,169.5,145.7z"/>
	<path class="st0" d="M170.4,146.5c-0.1,0-0.1,0-0.1,0.1C170.4,146.5,170.5,146.5,170.4,146.5z"/>
	<path class="st0" d="M95.5,33.7C95.5,33.6,95.4,33.6,95.5,33.7c-0.1,0-0.1,0-0.2,0C95.4,33.6,95.4,33.6,95.5,33.7z"/>
	<path class="st0" d="M182.3,232.6c-0.1,0.6-0.2,1.2-0.5,1.7C182.3,234.2,182.3,233.5,182.3,232.6z"/>
	<path class="st0" d="M94.5,33.8c-0.1,0-0.3,0.1-0.4,0.1C94.4,33.9,94.5,33.9,94.5,33.8z"/>
	<path class="st0" d="M94.5,33.8c0.2,0,0.5-0.1,0.9-0.1c-0.4-0.1-0.7-0.1-1.1-0.2C94.4,33.6,94.4,33.7,94.5,33.8z"/>
	<path class="st0" d="M63.8,40.1c0,0-0.1,0-0.1,0C63.6,40.2,63.6,40.3,63.8,40.1z"/>
	<path class="st0" d="M182.3,232.6c0.1-0.7,0.2-1.4,0.2-2.2C182.2,231,182.3,231.8,182.3,232.6z"/>
	<path class="st0" d="M182.6,138.3c0.1-0.1,0.1-0.3,0.2-0.4c0.1-0.5,0.2-0.9,0.3-1.3C182.6,137,182.1,137.8,182.6,138.3z"/>
	<path class="st0" d="M123.5,187.4C123.5,187.4,123.5,187.4,123.5,187.4c0,0,0.1-0.1,0.1-0.1c0,0,0,0,0.1-0.1
		C123.6,187.3,123.6,187.3,123.5,187.4z"/>
	<path class="st0" d="M94.1,150.2c0,0-0.1,0-0.1-0.1C93.8,150.3,93.9,150.3,94.1,150.2z"/>
	<path class="st0" d="M90.5,146.3c0.1,0.1,0.1,0.2,0.2,0.2C90.7,146.4,90.6,146.4,90.5,146.3z"/>
	<path class="st0" d="M90.7,152.3C90.7,152.3,90.7,152.3,90.7,152.3C90.7,152.3,90.7,152.3,90.7,152.3z"/>
	<path class="st0" d="M123.9,187.1c-0.1,0-0.1,0.1-0.2,0.1c0,0,0,0,0,0C123.8,187.2,123.8,187.2,123.9,187.1z"/>
	<path class="st0" d="M91.8,165.3c0-0.1,0-0.1,0.1-0.2C91.8,165.3,91.8,165.3,91.8,165.3z"/>
	<path class="st0" d="M123.7,187.2C123.7,187.2,123.7,187.2,123.7,187.2C123.7,187.2,123.7,187.2,123.7,187.2
		C123.7,187.2,123.7,187.2,123.7,187.2z"/>
	<path class="st0" d="M88.8,134.2c0,0,0.1,0,0.1,0.1C89.1,134.2,89,134.2,88.8,134.2z"/>
	<path class="st0" d="M124.6,188c-0.1,0.3-0.1,0.5,0,0.8c0-0.1,0.1-0.1,0.1-0.2C124.7,188.5,124.6,188.3,124.6,188
		C124.6,188.7,124.6,188.7,124.6,188z"/>
	<path class="st0" d="M97.2,123.5c0,0.1,0,0.1-0.1,0.2C97.2,123.6,97.2,123.5,97.2,123.5z"/>
	<path class="st0" d="M124.7,188.7C124.7,188.7,124.7,188.7,124.7,188.7c0,0,0-0.1,0-0.1c0,0,0,0,0,0
		C124.7,188.7,124.7,188.7,124.7,188.7z"/>
	<path class="st0" d="M125.6,187.4c0.1,0.1,0.1,0.1,0.2,0.1C125.9,187.5,125.9,187.4,125.6,187.4z"/>
	<path class="st0" d="M119,177.6c0-0.1,0-0.1,0-0.2C118.8,177.4,118.9,177.5,119,177.6z"/>
	<path class="st0" d="M124.3,187.6C124.3,187.6,124.3,187.6,124.3,187.6C124.3,187.5,124.3,187.5,124.3,187.6
		C124.3,187.5,124.3,187.6,124.3,187.6z"/>
	<path class="st0" d="M124.3,187.2c0,0.1,0,0.2,0,0.3c0,0,0,0,0,0C124.3,187.4,124.3,187.3,124.3,187.2z"/>
	<path class="st0" d="M69.5,155.8c0-0.2,0-0.4,0-0.7C69.4,155.3,69.4,155.5,69.5,155.8z"/>
	<path class="st0" d="M44.5,192.5c-0.2-0.2-0.4-0.3-0.6-0.3C44,192.4,44.2,192.5,44.5,192.5z"/>
	<path class="st0" d="M44.7,182.3c0,0.1,0,0.2,0,0.3C44.7,182.4,44.7,182.3,44.7,182.3z"/>
	<path class="st0" d="M54.4,201.9C54.3,201.9,54.3,201.8,54.4,201.9C54.2,201.8,54.1,201.8,54.4,201.9z"/>
	<path class="st0" d="M69.7,234.1c-0.1,0-0.3,0-0.4-0.1C69.4,234.1,69.5,234.1,69.7,234.1z"/>
	<path class="st0" d="M94.1,74.4C94.1,74.4,94.1,74.4,94.1,74.4C94.1,74.4,94.1,74.4,94.1,74.4c0.1,0,0.1,0,0.2-0.1
		c-0.1,0-0.2,0-0.3,0.1C93.9,74.4,94,74.4,94.1,74.4z"/>
	<path class="st0" d="M119.8,228.6C119.8,228.6,119.8,228.6,119.8,228.6C119.9,228.4,119.9,228.4,119.8,228.6z"/>
	<path class="st0" d="M97.3,201.6c0.2-0.2,0.3-0.3,0.3-0.5C97.5,201.2,97.3,201.3,97.3,201.6z"/>
	<path class="st0" d="M108.3,202c-0.1,0-0.2,0-0.3,0C108.2,202.1,108.3,202.1,108.3,202z"/>
	<path class="st0" d="M101.1,202c0,0,0-0.1-0.1-0.1C100.9,202.1,100.8,202.2,101.1,202z"/>
	<path class="st0" d="M124.3,187.5C124.3,187.5,124.3,187.5,124.3,187.5C124.3,187.5,124.3,187.5,124.3,187.5c0,0,0-0.1,0-0.1
		C124.3,187.4,124.3,187.4,124.3,187.5z"/>
	<path class="st0" d="M107.3,118.3c0-0.3-0.3-0.7-0.6-1.1C106.8,117.7,107,118.3,107.3,118.3z"/>
	<path class="st0" d="M143.7,125.9c-0.1-0.1-0.3-0.2-0.6-0.2C143.3,125.8,143.5,125.9,143.7,125.9z"/>
	<path class="st0" d="M146.8,83.3c-0.1-0.1-0.3-0.2-0.5-0.2C146.4,83.2,146.6,83.3,146.8,83.3z"/>
	<path class="st0" d="M146.8,104.3C146.3,104,146.7,104.4,146.8,104.3L146.8,104.3z"/>
	<path class="st0" d="M106.1,116.3c0.2,0.3,0.4,0.6,0.6,0.8C106.6,116.6,106.4,116.2,106.1,116.3z"/>
	<path class="st0" d="M78.4,188.2C78.7,188.2,78.4,187.8,78.4,188.2L78.4,188.2z"/>
	<path class="st0" d="M163.8,121.9c-0.1,0-0.2,0-0.3,0C163.5,122.2,163.6,122.2,163.8,121.9z"/>
	<path class="st0" d="M116.4,192C115.9,192.2,116.2,192.5,116.4,192L116.4,192z"/>
	<path class="st0" d="M163.8,122.5C163.8,122.5,163.8,122.5,163.8,122.5C163.8,122.5,163.8,122.4,163.8,122.5z"/>
	<path class="st0" d="M163.5,121.8c0,0,0,0.1,0,0.1c0,0,0,0,0,0C163.5,121.8,163.5,121.8,163.5,121.8z"/>
	<polygon class="st0" points="124.7,186.3 124.7,186.3 124.7,186.3 	"/>
	<path class="st0" d="M123.6,186.4c0.1,0,0.2,0.1,0.4,0.2C124,186.5,123.8,186.4,123.6,186.4z"/>
	<path class="st0" d="M124.8,186.3C124.8,186.3,124.8,186.3,124.8,186.3C124.8,186.3,124.7,186.3,124.8,186.3
		C124.7,186.3,124.7,186.3,124.8,186.3C124.7,186.3,124.8,186.3,124.8,186.3z"/>
	<path class="st0" d="M124.7,186.3c0,0-0.1,0.1-0.2,0.2C124.8,186.2,124.6,186.7,124.7,186.3z"/>
	<path class="st0" d="M124.9,186.2C124.9,186.2,124.9,186.2,124.9,186.2C124.9,186.3,124.9,186.3,124.9,186.2
		C124.9,186.3,124.9,186.3,124.9,186.2C124.9,186.3,124.9,186.2,124.9,186.2z"/>
	<path class="st0" d="M122.9,93c0,0,0.1,0,0.1,0C123.1,92.8,123,92.9,122.9,93z"/>
	<path class="st0" d="M114.5,84.2c0.4,0.7,0.5,0.2,0.6,0.8c0.1-0.1,0.9-0.2,0.8,0c0.2,0.1-0.8,0.7-0.8,0.7c0.2,0.2,0.5,0.3,0.7,0.4
		c-1.4-0.1,0.7,0-0.5,0.2c0.2,0,0.3,0,0.4,0.1c0.6,0.3-0.1,0.6-0.5,0.8c1,1.6,1.8,2.9,2.7,3.8c0,0,0.3-0.1,0.6-0.2
		c0,0.2,0.8,0.3,1,0.2c-0.1,0.1-0.2,0.2-0.4,0.3c0.2-0.2,0.4-0.2,0.6,0c-0.5,0.3-0.3,0.4-0.2,0.9c0.1-0.1,1.1-0.6,1-0.6
		c-0.5,0.5-0.1,0.7-0.5,1.1c0.2-0.2,0.7-0.1,0.4,0.4c0.5-0.1,1.2-0.4,1.9-0.9c0,0.2,0.3,0.8,0.3,0.9c0,0,0.2-0.2,0.3-0.3
		c-0.1,0-0.1,0-0.2-0.1c0.3-0.1,0.4-0.2,0.6-0.3c0.3,0.4,0.7,0.9,1.3,1.7c0.1,0,0.1,0,0.2,0c0.1,0,0.2,0,0.3,0.2
		c0.1-1.2,0.1-0.1,0.3,0c0.2-0.9,0.3-0.3,1.3-0.8c0.1,0.3,0.4,0.6,0.6,0.8c-0.1-2,1.2,0.7,0.9-1.7c0.2,0.4,0.4,0.7,0.5,1.1
		c0-0.3-0.1-0.6-0.1-0.9c0.2,0.1,0.4,0.3,0.5,0.5c-0.1-0.2-0.1-0.4,0-0.6c0.1,0.1,0.4,0.4,0.6,0.6c0-0.2-0.1-0.5-0.3-0.7
		c0.3,0,0.5,0.2,0.6,0.5c0.5-1.2,0-1.1,0.1-2.2c0,0,0.3,0.5,0.5,0.6c-0.1-0.3,0-0.5,0.1-0.7c0.6,0.6-0.3,0.5,0.5,1.2
		c0.8-0.3,0.2-0.8,0-1.1c0-0.5,1.1,0.4,0.9-0.1c-0.4-0.2-0.5-0.4-0.3-0.7c0.1,0.1,0.3,0.3,0.4,0.4c-0.1-0.2-0.2-0.5,0-0.7
		c0.2,0.2,2.1-2.1,1.5-2.7c0-1.1,0.9-4.2,0-5c0.1-0.1,0.1-0.2,0.1-0.2c0,0,0.1,0,0.4-0.2c-0.1-0.2-0.3-0.1-0.4,0
		c0-0.2-0.1-0.8-0.2-1c1.1-0.4-1-1.5-1.3-1.6c1.2-0.3-0.1,0-0.1,0c0,0,0.5-3.5-1.9-2.1c0.6-0.8-0.3-1-0.8-0.6
		c-0.1-0.3-1.8-1.1-2-1.2c-1.3-1-6-0.2-6.2-0.4c-2.3,0.6-4.9,1.8-5.5,5.2c-0.1-0.3-0.3-0.6-0.4-0.8c0,0.4-0.4,1.8-0.4,2.4
		c0.1,0.1,0.5,0.3,1,0.7c-0.5,0-0.9-0.1-1.3-0.1c0.5,0.2,0.5,0.3,0,0.1c0,0,0.9,1.6,0.6,1.9C115,84,114.7,84,114.5,84.2z
		 M124.3,93.4c-0.2-0.2-0.4-0.5-0.7-0.8c0.2,0,0.4,0,0.8,0C124.4,92.5,124.3,93.1,124.3,93.4z M122.3,81.9c0.8,1.4-0.2-0.1,1.7,1.4
		c-0.4-1.7-0.2-2.3,0.5-2.3c0,0,0,0,0,0c0,0,0,0,0,0c0,0,0,0,0,0c0,0.1,0,0.1,0,0.2c0.1,1.6,0.2,2.2,0.3,2.4c0.5-1.3,0.8-0.6-0.3,1
		c0.5-0.8,1.1-1.5,1.9-2.1c-1.1,1.1-1.5,2.2,0,2.4c-0.7,0-2.1,0.3-2.2,0.9C124.2,85.9,119.5,84.5,122.3,81.9z"/>
	<path class="st0" d="M124.9,83.7C124.9,83.6,124.9,83.6,124.9,83.7c-0.1,0.2-0.2,0.4-0.2,0.7C124.7,84.1,124.8,83.8,124.9,83.7z"/>
	<path class="st0" d="M124.5,81.2c0-0.1,0-0.1,0-0.2c0,0,0,0,0,0C124.5,81.4,124.5,81.5,124.5,81.2z"/>
	<path class="st0" d="M115,81.6c0,0,0-0.1,0-0.2C114.9,81.3,114.9,81.4,115,81.6z"/>
	<path class="st0" d="M129.8,93.4c0,0.1,0,0.1,0,0.2C129.9,93.6,129.9,93.5,129.8,93.4z"/>
	<path class="st0" d="M123.6,93.1c-0.2,0-0.2,0-0.6,0c-0.1,0.1-0.1,0.3-0.3,0.5C123.2,93.3,123.4,93.8,123.6,93.1z"/>
	<path class="st0" d="M115,85C115,85,115,85,115,85C115,85,115,85,115,85z"/>
	<path class="st0" d="M124.9,83.7C125.1,83.9,125.3,82.6,124.9,83.7L124.9,83.7z"/>
</g>
</svg>
