<?xml version="1.0" encoding="utf-8"?>
<!-- Generator: Adobe Illustrator 19.2.1, SVG Export Plug-In . SVG Version: 6.00 Build 0)  -->
<svg version="1.1" id="Layer_1" xmlns="http://www.w3.org/2000/svg" xmlns:xlink="http://www.w3.org/1999/xlink" x="0px" y="0px"
	 viewBox="0 0 300.5 148.4" style="enable-background:new 0 0 300.5 148.4;" xml:space="preserve">
<style type="text/css">
	.st0{fill:#4AC8CC;}
	.st1{fill:#4BC8CC;}
	.st2{fill:#FCFAED;}
</style>
<g>
	<path id="XMLID_2_" class="st0" d="M225.8,12.2c-17.7-16.3-46.5-16.3-64.2,0l-12,11.1l-12-11.1c-17.7-16.3-46.5-16.3-64.2,0
		c-19.9,18.3-19.9,47.9,0,66.2l76.2,70l76.2-70C245.8,60.1,245.8,30.5,225.8,12.2z"/>
	<g>
		<g>
			<path class="st1" d="M47.7,56.5c-0.2,0.5-0.4,0.9-0.8,1.1s-0.9,0.3-1.5,0.3v1c3.2-0.1,5.3-0.2,6.3-0.2c1,0,3.1,0.1,6.3,0.2v-1
				c-0.8,0-1.4-0.1-1.8-0.3s-0.8-0.6-1-1.1s-0.3-1.2-0.3-2.1V41.5c0-1.6-0.1-2.9-0.4-3.9s-0.6-1.8-1.1-2.4s-1.2-1.1-2.1-1.4
				s-1.9-0.5-3.2-0.5c-3.8,0-6.4,1.5-7.9,4.5v-4.3c-1.8,0.4-4.2,0.7-7,0.7c-1,0-2,0-3-0.1v1c1.1,0,1.9,0.3,2.4,1s0.7,1.7,0.7,3.2
				v15.1c0,0.9-0.1,1.6-0.3,2.1s-0.5,0.9-1,1.1s-1.1,0.3-1.8,0.3v1c3.4-0.1,5.6-0.2,6.6-0.2c1,0,3,0.1,6,0.2v-1
				c-0.6,0-1.1-0.1-1.5-0.3s-0.6-0.6-0.8-1.1s-0.3-1.2-0.3-2.1V41.1c0-1,0.2-2,0.6-2.8s1-1.5,1.7-2s1.5-0.7,2.4-0.7
				c1.1,0,1.9,0.3,2.3,1s0.6,1.7,0.6,3v14.9C47.9,55.3,47.8,56,47.7,56.5z"/>
			<path class="st1" d="M36.5,117c-0.7,0-1.2-0.2-1.6-0.6s-0.5-1.1-0.5-2V95.1h5.7v-1h-5.7v-7.9c-2,1-4.3,1.5-6.9,1.5v6.4h-4v1h4
				v16.2c0,1.8,0.1,3.2,0.4,4.2s0.7,1.8,1.4,2.5c1.1,1.1,2.7,1.6,4.8,1.6c3.2,0,5.4-1.6,6.6-4.9l-0.8-0.4
				C39,116.1,37.9,117,36.5,117z"/>
			<path class="st1" d="M21,117.4c-0.4,0-0.6-0.2-0.8-0.5s-0.2-0.9-0.2-1.7v-13.1c0-1.8-0.1-3.2-0.4-4.2s-0.7-1.8-1.4-2.5
				c-1.4-1.4-3.7-2.2-7-2.2c-2.9,0-5.4,0.5-7.3,1.6c-1.8,1-2.7,2.4-2.7,4c0,1.1,0.3,1.9,0.9,2.6s1.4,1.1,2.5,1.1
				c0.8,0,1.4-0.2,2-0.5s1.1-0.7,1.4-1.2s0.5-1.1,0.5-1.8c0-1-0.2-1.7-0.8-2.4s-1.2-1.1-2.1-1.4c0.4-0.4,0.9-0.7,1.5-0.9
				s1.2-0.3,1.9-0.3c1.3,0,2.3,0.4,3,1.1s0.9,1.8,0.9,3.1v3.7c0,0.7-0.3,1.3-0.9,1.8s-1.6,1.1-3,1.6s-2.2,0.8-2.4,0.9
				c-2.3,0.8-4,1.8-5.1,2.9S0,112.1,0,113.7c0,1.7,0.6,3.1,1.7,4s2.6,1.4,4.4,1.4c1.4,0,2.8-0.3,4.1-1s2.3-1.6,3.1-2.9
				c0,1.2,0.4,2.1,1.1,2.8s1.9,1.1,3.5,1.1c1.2,0,2.2-0.1,3.1-0.4s1.7-0.7,2.4-1.3l-0.5-0.8C22.1,117.2,21.5,117.4,21,117.4z
				 M13.1,114.2c-0.9,1.3-2,2-3.3,2c-0.9,0-1.6-0.3-2.2-0.9s-0.8-1.6-0.8-2.8c0-1.3,0.3-2.4,0.9-3.3s1.4-1.7,2.4-2.4
				c0.9-0.5,1.5-1,2-1.3s0.8-0.7,1-1.1V114.2z"/>
			<path class="st1" d="M59.9,34.1h-1.4v1h1.2C59.7,34.7,59.8,34.4,59.9,34.1z"/>
			<path class="st1" d="M76.5,116.5c-0.2-0.5-0.3-1.2-0.3-2.1v-12.9c0-1.6-0.1-2.9-0.4-3.9s-0.6-1.8-1.2-2.4c-1-1.2-2.8-1.9-5.3-1.9
				c-3.8,0-6.4,1.5-7.8,4.5V81.3c-1.9,0.5-4.2,0.7-7,0.7c-1,0-2,0-3-0.1v1c1.1,0,1.9,0.3,2.4,1s0.7,1.7,0.7,3.2v27.3
				c0,0.9-0.1,1.6-0.3,2.1s-0.5,0.9-1,1.1s-1,0.3-1.8,0.3v1c3.3-0.1,5.5-0.2,6.6-0.2c0.9,0,2.9,0.1,5.9,0.2v-1
				c-0.7,0-1.2-0.1-1.5-0.3s-0.6-0.6-0.8-1.1s-0.2-1.2-0.2-2.1V101c0-1,0.2-2,0.6-2.8s1-1.5,1.7-2s1.5-0.7,2.4-0.7
				c1.1,0,1.9,0.3,2.3,1s0.6,1.7,0.6,3v14.9c0,0.9-0.1,1.6-0.3,2.1s-0.4,0.9-0.8,1.1s-0.9,0.3-1.5,0.3v1c3.1-0.1,5.1-0.2,6.2-0.2
				c0.9,0,3,0.1,6.4,0.2v-1c-0.8,0-1.4-0.1-1.8-0.3S76.7,117,76.5,116.5z"/>
			<path class="st1" d="M26.9,58.9c-0.2-1.9-0.3-4.4-0.3-7.3c0-1.6,0-3,0.1-4h-1.1c-0.6,3.7-1.6,6.3-3,7.9s-3.2,2.3-5.5,2.3h-2.4
				c-1,0-1.7-0.1-2.2-0.2s-0.7-0.5-0.9-0.9s-0.2-1.2-0.2-2.2V42.3H13c3.3,0,5.2,2.1,5.9,6.4H20c-0.2-2.9-0.3-5.2-0.3-6.8l0-2.3
				c0-1.4,0.1-2.9,0.2-4.5h-1.1c-0.3,1.7-1,3.2-1.8,4.5s-2.2,1.9-3.9,1.9h-1.5V29.4c0-1,0.1-1.8,0.2-2.2s0.5-0.8,0.9-0.9
				s1.2-0.2,2.2-0.2h2c1.5,0,2.8,0.3,3.8,0.9s1.9,1.5,2.6,2.9s1.2,3.2,1.5,5.5h1.1c-0.1-0.8-0.1-1.8-0.1-3.3c0-2.1,0.1-4.5,0.3-7.1
				c-2,0.1-5.3,0.1-10,0.1c-7,0-12.2,0-15.6-0.1v1c1.1,0,1.8,0.2,2.3,0.4s0.8,0.6,1,1.1s0.3,1.4,0.3,2.6v23.8c0,1.2-0.1,2.1-0.3,2.6
				s-0.5,0.9-1,1.1s-1.3,0.3-2.3,0.4v1c3.5-0.1,8.7-0.1,15.6-0.1C21,58.7,24.7,58.8,26.9,58.9z"/>
			<path class="st1" d="M239.1,33.4c0.1,0.4,0.2,0.8,0.3,1.3c0.6,0.4,1.1,1.1,1.5,2.2c0.6,1.7,0.8,3.7,0.8,6.2h-1c0,0.3,0,0.6,0,0.9
				h7C247.8,37.1,244.9,33.5,239.1,33.4z"/>
			<path class="st1" d="M275.1,56.9c-0.5-0.7-0.7-1.7-0.7-3.2V33.5c-1.9,0.4-4.2,0.7-7,0.7c-1,0-2,0-3-0.1v1c1.1,0,1.9,0.3,2.4,1
				s0.7,1.7,0.7,3.2v12.6c0,1-0.2,2-0.6,2.8s-1,1.5-1.7,2s-1.5,0.7-2.3,0.7c-1.1,0-1.9-0.3-2.3-1s-0.6-1.7-0.6-3V33.5
				c-1.9,0.4-4.2,0.7-7,0.7c-1,0-2,0-3-0.1v1c1.1,0,1.9,0.3,2.4,1s0.7,1.7,0.7,3.2v12.2c0,1.6,0.1,2.9,0.3,3.9s0.6,1.8,1.1,2.4
				c1.1,1.2,2.8,1.9,5.2,1.9c3.7,0,6.3-1.5,7.7-4.5v4.3c1.9-0.5,4.2-0.7,7-0.7c1,0,2,0,3,0.1v-1C276.4,57.9,275.6,57.5,275.1,56.9z"
				/>
			<path class="st1" d="M300,35.7c-0.3-0.7-0.8-1.2-1.5-1.6s-1.5-0.6-2.4-0.6c-1.5,0-2.8,0.4-3.9,1.3s-2,2-2.6,3.3v-4.5
				c-1.8,0.4-4.2,0.7-7,0.7c-1,0-2,0-3-0.1v1c1.1,0,1.9,0.3,2.4,1s0.7,1.7,0.7,3.2v15.1c0,0.9-0.1,1.6-0.3,2.1s-0.5,0.9-1,1.1
				s-1.1,0.3-1.8,0.3v1c3.6-0.1,5.9-0.2,6.9-0.2c1.1,0,3.6,0.1,7.6,0.2v-1c-1.6,0-2.7-0.3-3.4-0.9s-1.1-1.6-1.1-3.1V41.2
				c0-0.9,0.2-1.7,0.6-2.6s0.9-1.7,1.6-2.3s1.4-1,2.2-1.2c0.3-0.1,0.5-0.1,0.8-0.1c0.2,0,0.4,0,0.6,0.1c-1.4,1-2.1,2.2-2.1,3.8
				c0,0.9,0.3,1.7,0.9,2.2s1.5,0.8,2.6,0.8c1.1,0,2-0.4,2.7-1.1s1-1.7,1-2.9C300.5,37,300.4,36.3,300,35.7z"/>
			<path class="st1" d="M95.1,115.6c-1.1,0-2.1-0.3-3-1s-1.7-1.7-2.3-3.1s-0.9-3.2-0.9-5.3c0-1,0-1.8,0.1-2.2h12.3l-5.1-4.7
				c0.2,1.1,0.2,2.4,0.2,3.8h-7.5c0.2-3,0.6-5.2,1.4-6.6c0.4-0.7,0.7-1.2,1.2-1.5l-1.3-1.2c-1,0.2-1.9,0.6-2.8,1.1
				c-1.8,1-3.1,2.5-4.1,4.5s-1.5,4.4-1.5,7.3c0,2.8,0.5,5.2,1.4,7.1s2.2,3.3,3.9,4.3s3.6,1.4,5.8,1.4c1.7,0,3.2-0.4,4.5-1.1
				s2.4-1.6,3.2-2.8s1.5-2.4,1.9-3.7l-0.8-0.3C99.8,114.3,97.7,115.6,95.1,115.6z"/>
			<path class="st1" d="M240.5,55.6c-0.3,0-0.6,0-0.9-0.1c-0.3,1.3-0.7,2.7-1.2,4c1.5,0,2.9-0.4,4.2-1c1.3-0.7,2.4-1.6,3.2-2.8
				s1.5-2.4,1.9-3.7l-0.8-0.3C245.2,54.3,243.1,55.6,240.5,55.6z"/>
			<path class="st1" d="M114.2,116c-0.5-0.1-0.9-0.4-1.2-0.8c-0.2-0.2-0.3-0.5-0.4-0.7l-5.4-5c0,0-0.1,0.1-0.1,0.1
				c-1.1,1.1-1.6,2.5-1.6,4.1c0,1.7,0.6,3.1,1.7,4s2.6,1.4,4.4,1.4c1.4,0,2.8-0.3,4.1-1c0.3-0.1,0.5-0.3,0.7-0.4L114.2,116z"/>
		</g>
		<g>
			<path class="st2" d="M100.4,39.4c-1,2-1.5,4.4-1.5,7.3c0,2.8,0.5,5.2,1.4,7.1s2.2,3.3,3.9,4.3s3.6,1.4,5.8,1.4
				c1.7,0,3.2-0.4,4.5-1.1s2.4-1.6,3.2-2.8s1.5-2.4,1.9-3.7l-0.8-0.3c-1.6,2.6-3.7,3.8-6.4,3.8c-1.1,0-2.1-0.3-3-1s-1.7-1.7-2.3-3.1
				s-0.9-3.2-0.9-5.3c0-1,0-1.8,0.1-2.2h13.5c0-7.1-3-10.6-9-10.6c-2.3,0-4.4,0.5-6.1,1.5S101.4,37.4,100.4,39.4z M107.5,36.5
				c0.8-1.4,1.7-2.1,2.8-2.1c1.1,0,2,0.8,2.5,2.5s0.8,3.7,0.8,6.2h-7.5C106.3,40.1,106.8,37.9,107.5,36.5z"/>
			<path class="st2" d="M240.8,44c0-0.3,0-0.6,0-0.9h-6.5c0.2-3,0.6-5.2,1.4-6.6s1.7-2.1,2.8-2.1c0.4,0,0.7,0.1,1,0.3
				c-0.1-0.4-0.2-0.8-0.3-1.3c-0.1,0-0.2,0-0.4,0c-2.3,0-4.4,0.5-6.1,1.5s-3.1,2.5-4.1,4.5s-1.5,4.4-1.5,7.3c0,2.8,0.5,5.2,1.4,7.1
				s2.2,3.3,3.9,4.3s3.6,1.4,5.8,1.4c0.1,0,0.2,0,0.3,0c0.5-1.3,0.9-2.7,1.2-4c-0.7-0.1-1.5-0.4-2.1-0.9c-0.9-0.6-1.7-1.7-2.3-3.1
				s-0.9-3.2-0.9-5.3c0-1,0-1.8,0.1-2.2H240.8z"/>
			<path class="st2" d="M90.1,38.8c0,0.9,0.3,1.7,0.9,2.2s1.5,0.8,2.6,0.8c1.1,0,2-0.4,2.7-1.1s1-1.7,1-2.9c0-0.8-0.2-1.5-0.5-2.1
				s-0.8-1.2-1.5-1.6s-1.5-0.6-2.4-0.6c-1.5,0-2.8,0.4-3.9,1.3s-2,2-2.6,3.3v-4.5c-1.8,0.4-4.2,0.7-7,0.7c-1,0-2,0-3-0.1v1
				c1.1,0,1.9,0.3,2.4,1s0.7,1.7,0.7,3.2v15.1c0,0.9-0.1,1.6-0.3,2.1s-0.5,0.9-1,1.1s-1.1,0.3-1.8,0.3v1c3.6-0.1,5.9-0.2,6.9-0.2
				c1.1,0,3.6,0.1,7.6,0.2v-1c-1.6,0-2.7-0.3-3.4-0.9s-1.1-1.6-1.1-3.1V41.2c0-0.9,0.2-1.7,0.6-2.6s0.9-1.7,1.6-2.3s1.4-1,2.2-1.2
				c0.3-0.1,0.5-0.1,0.8-0.1c0.2,0,0.4,0,0.6,0.1C90.8,36,90.1,37.2,90.1,38.8z"/>
			<path class="st2" d="M75.6,54.6l-0.8-0.4C74,56.1,72.9,57,71.5,57c-0.7,0-1.2-0.2-1.6-0.6s-0.5-1.1-0.5-2V35.1h5.7v-1h-5.7v-7.9
				c-2,1-4.3,1.5-6.9,1.5v6.4h-2.6c-0.1,0.3-0.2,0.6-0.2,1h2.9v16.2c0,1.8,0.1,3.2,0.4,4.2s0.7,1.8,1.4,2.5c1.1,1.1,2.7,1.6,4.8,1.6
				C72.2,59.6,74.4,57.9,75.6,54.6z"/>
			<path class="st2" d="M115.2,116.1c-0.3,0-0.7-0.1-1-0.2l2,1.8c0.9-0.6,1.7-1.4,2.4-2.5c0,1.2,0.4,2.1,1.1,2.8s1.9,1.1,3.5,1.1
				c1.2,0,2.2-0.1,3.1-0.4s1.7-0.7,2.4-1.3l-0.5-0.8c-0.7,0.5-1.3,0.8-1.8,0.8c-0.4,0-0.6-0.2-0.8-0.5s-0.2-0.9-0.2-1.7v-13.1
				c0-1.8-0.1-3.2-0.4-4.2s-0.7-1.8-1.4-2.5c-1.4-1.4-3.7-2.2-7-2.2c-2.9,0-5.4,0.5-7.3,1.6c-1.8,1-2.7,2.4-2.7,4
				c0,1.1,0.3,1.9,0.9,2.6s1.4,1.1,2.5,1.1c0.8,0,1.4-0.2,2-0.5s1.1-0.7,1.4-1.2s0.5-1.1,0.5-1.8c0-1-0.2-1.7-0.8-2.4
				s-1.2-1.1-2.1-1.4c0.4-0.4,0.9-0.7,1.5-0.9s1.2-0.3,1.9-0.3c1.3,0,2.3,0.4,3,1.1s0.9,1.8,0.9,3.1v3.7c0,0.7-0.3,1.3-0.9,1.8
				s-1.6,1.1-3,1.6s-2.2,0.8-2.4,0.9c-2.2,0.8-3.9,1.7-5,2.8l5.4,5c-0.2-0.6-0.4-1.2-0.4-2.1c0-1.3,0.3-2.4,0.9-3.3s1.4-1.7,2.4-2.4
				c0.9-0.5,1.5-1,2-1.3s0.8-0.7,1-1.1v9.8C117.5,115.5,116.5,116.1,115.2,116.1z"/>
			<path class="st2" d="M132.3,38v-4.5c-1.9,0.4-4.2,0.7-7,0.7c-1,0-2,0-3-0.1v1c1.1,0,1.9,0.3,2.4,1s0.7,1.7,0.7,3.2v24
				c0,0.8-0.1,1.5-0.3,2s-0.5,0.8-0.9,1s-1,0.3-1.7,0.3v1c0.3,0,1.1-0.1,2.3-0.1s2.5-0.1,3.7-0.1c1.6,0,3.2,0,4.9,0.1
				s2.7,0.1,3.2,0.1v-1c-1.5,0-2.5-0.3-3.2-0.8s-1.1-1.5-1.1-2.9V58c1.2,1,2.8,1.5,4.9,1.5c2.3,0,4.2-0.5,5.9-1.6s3-2.7,3.9-4.8
				s1.4-4.7,1.4-7.8c0-2.6-0.4-4.8-1.1-6.6s-1.8-3.1-3.1-4s-2.8-1.3-4.4-1.3c-1.7,0-3.2,0.4-4.5,1.2S132.9,36.5,132.3,38z M140,38
				c0.7,1.7,1.1,4.4,1.1,8.3s-0.4,6.9-1.3,8.9s-2.4,3.1-4.4,3.1c-1.3,0-2.3-0.4-3-1.3V39.6c0.3-1.3,0.8-2.3,1.7-3s1.8-1.1,2.9-1.1
				C138.2,35.5,139.3,36.3,140,38z"/>
			<path class="st2" d="M155.7,115.4c0.2,1,0.7,1.8,1.4,2.5c1.1,1.1,2.7,1.6,4.8,1.6c3.2,0,5.4-1.6,6.6-4.9l-0.8-0.4
				c-0.8,1.9-1.9,2.9-3.3,2.9c-0.7,0-1.2-0.2-1.6-0.6s-0.5-1.1-0.5-2V95.1h5.7v-1h-5.7v-7.9c-2,1-4.3,1.5-6.9,1.5v6.4h-4v1h4v16.2
				C155.3,113,155.4,114.4,155.7,115.4z"/>
			<path class="st2" d="M171.7,113.1c-0.7,0.7-1.1,1.6-1.1,2.7s0.4,2,1.1,2.7s1.7,1,3,1c1.3,0,2.3-0.3,3-1s1.1-1.6,1.1-2.7
				s-0.4-2-1.1-2.7s-1.7-1-3-1C173.4,112.1,172.4,112.5,171.7,113.1z"/>
			<path class="st2" d="M93.4,93.4c-1.2,0-2.3,0.1-3.3,0.4l1.3,1.2c0.5-0.4,1.1-0.6,1.7-0.6c1.1,0,2,0.8,2.5,2.5
				c0.2,0.7,0.4,1.6,0.6,2.5l5.1,4.7h1.2C102.4,96.9,99.4,93.4,93.4,93.4z"/>
			<path class="st2" d="M221.8,56.5c-0.2-0.5-0.3-1.2-0.3-2.1V41.5c0-1.6-0.1-2.9-0.4-3.9s-0.6-1.8-1.1-2.4s-1.2-1.1-2.1-1.4
				s-1.9-0.5-3.2-0.5c-3.8,0-6.4,1.5-7.9,4.5v-4.3c-1.8,0.4-4.2,0.7-7,0.7c-1,0-2,0-3-0.1v1c1.1,0,1.9,0.3,2.4,1s0.7,1.7,0.7,3.2
				v15.1c0,0.9-0.1,1.6-0.3,2.1s-0.5,0.9-1,1.1s-1.1,0.3-1.8,0.3v1c3.4-0.1,5.6-0.2,6.6-0.2c1,0,3,0.1,6,0.2v-1
				c-0.6,0-1.1-0.1-1.5-0.3s-0.6-0.6-0.8-1.1s-0.3-1.2-0.3-2.1V41.1c0-1,0.2-2,0.6-2.8s1-1.5,1.7-2s1.5-0.7,2.4-0.7
				c1.1,0,1.9,0.3,2.3,1s0.6,1.7,0.6,3v14.9c0,0.9-0.1,1.6-0.2,2.1s-0.4,0.9-0.8,1.1s-0.9,0.3-1.5,0.3v1c3.2-0.1,5.3-0.2,6.3-0.2
				c1,0,3.1,0.1,6.3,0.2v-1c-0.8,0-1.4-0.1-1.8-0.3S222,57,221.8,56.5z"/>
			<path class="st2" d="M150.9,97.8c0-0.8-0.2-1.5-0.5-2.1s-0.8-1.2-1.5-1.6s-1.5-0.6-2.4-0.6c-1.5,0-2.8,0.4-3.9,1.3s-2,2-2.6,3.3
				v-4.5c-1.8,0.4-4.2,0.7-7,0.7c-1,0-2,0-3-0.1v1c1.1,0,1.9,0.3,2.4,1s0.7,1.7,0.7,3.2v15.1c0,0.9-0.1,1.6-0.3,2.1s-0.5,0.9-1,1.1
				s-1.1,0.3-1.8,0.3v1c3.6-0.1,5.9-0.2,6.9-0.2c1.1,0,3.6,0.1,7.6,0.2v-1c-1.6,0-2.7-0.3-3.4-0.9s-1.1-1.6-1.1-3.1v-12.7
				c0-0.9,0.2-1.7,0.6-2.6s0.9-1.7,1.6-2.3s1.4-1,2.2-1.2c0.3-0.1,0.5-0.1,0.8-0.1c0.2,0,0.4,0,0.6,0.1c-1.4,1-2.1,2.2-2.1,3.8
				c0,0.9,0.3,1.7,0.9,2.2s1.5,0.8,2.6,0.8c1.1,0,2-0.4,2.7-1.1S150.9,99,150.9,97.8z"/>
			<path class="st2" d="M194.4,44c0-7.1-3-10.6-9-10.6c-2.3,0-4.4,0.5-6.1,1.5s-3.1,2.5-4.1,4.5s-1.5,4.4-1.5,7.3
				c0,2.8,0.5,5.2,1.4,7.1s2.2,3.3,3.9,4.3s3.6,1.4,5.8,1.4c1.7,0,3.2-0.4,4.5-1.1s2.4-1.6,3.2-2.8s1.5-2.4,1.9-3.7l-0.8-0.3
				c-1.6,2.6-3.7,3.8-6.4,3.8c-1.1,0-2.1-0.3-3-1s-1.7-1.7-2.3-3.1s-0.9-3.2-0.9-5.3c0-1,0-1.8,0.1-2.2H194.4z M180.8,43.1
				c0.2-3,0.6-5.2,1.4-6.6s1.7-2.1,2.8-2.1c1.1,0,2,0.8,2.5,2.5s0.8,3.7,0.8,6.2H180.8z"/>
			<path class="st2" d="M154.2,34.2c-1,0-2,0-3-0.1v1c1.1,0,1.9,0.3,2.4,1s0.7,1.7,0.7,3.2v15.1c0,0.9-0.1,1.6-0.3,2.1
				s-0.5,0.9-1,1.1s-1.1,0.3-1.8,0.3v1c3.6-0.1,5.9-0.2,6.9-0.2c1.1,0,3.6,0.1,7.6,0.2v-1c-1.6,0-2.7-0.3-3.4-0.9s-1.1-1.6-1.1-3.1
				V41.2c0-0.9,0.2-1.7,0.6-2.6s0.9-1.7,1.6-2.3s1.4-1,2.2-1.2c0.3-0.1,0.5-0.1,0.8-0.1c0.2,0,0.4,0,0.6,0.1c-1.4,1-2.1,2.2-2.1,3.8
				c0,0.9,0.3,1.7,0.9,2.2s1.5,0.8,2.6,0.8c1.1,0,2-0.4,2.7-1.1s1-1.7,1-2.9c0-0.8-0.2-1.5-0.5-2.1s-0.8-1.2-1.5-1.6
				s-1.5-0.6-2.4-0.6c-1.5,0-2.8,0.4-3.9,1.3s-2,2-2.6,3.3v-4.5C159.4,34,157.1,34.2,154.2,34.2z"/>
		</g>
	</g>
</g>
</svg>
