<?xml version="1.0" encoding="utf-8"?>
<!-- Generator: Adobe Illustrator 19.2.1, SVG Export Plug-In . SVG Version: 6.00 Build 0)  -->
<svg version="1.1" id="Layer_1" xmlns="http://www.w3.org/2000/svg" xmlns:xlink="http://www.w3.org/1999/xlink" x="0px" y="0px"
	 viewBox="0 0 287.7 94.2" style="enable-background:new 0 0 287.7 94.2;" xml:space="preserve">
<style type="text/css">
	.st0{fill:#4BC8CC;}
	.st1{fill:#FCFAED;}
</style>
<path id="XMLID_3_" class="st0" d="M179.3,29.2v60.1c0,2.7,2.2,4.9,4.9,4.9h8.1V24.4h-8.1C181.5,24.4,179.3,26.5,179.3,29.2z
	 M231.2,0c-13.5,0-24.4,10.9-24.4,24.4h-9.7v69.8h68.2V24.4h-9.7C255.6,10.9,244.7,0,231.2,0z M216.6,24.4c0-8.1,6.5-14.6,14.6-14.6
	s14.6,6.5,14.6,14.6H216.6z M278.3,24.4h-8.1v69.8h8.1c2.7,0,4.9-2.2,4.9-4.9V29.2C283.2,26.5,281,24.4,278.3,24.4z"/>
<g>
	<path class="st0" d="M166.9,47.3c1.3,0,2.4-0.3,3.2-1s1.2-1.6,1.2-2.7c0-1.1-0.4-2-1.2-2.7s-1.8-1-3.2-1c-1.4,0-2.4,0.3-3.2,1
		s-1.2,1.6-1.2,2.7c0,1.2,0.4,2.1,1.2,2.7S165.6,47.3,166.9,47.3z"/>
	<path class="st0" d="M90.9,52.2c-0.7-0.4-1.5-0.6-2.4-0.6c-1.5,0-2.8,0.4-3.9,1.3s-2,2-2.6,3.3v-4.5c-1.8,0.4-4.2,0.7-7,0.7
		c-1,0-2,0-3-0.1v1c1.1,0,1.9,0.3,2.4,1S75,56,75,57.5v15.1c0,0.9-0.1,1.6-0.3,2.1s-0.5,0.9-1,1.1s-1.1,0.3-1.8,0.3v1
		c3.6-0.1,5.9-0.2,6.9-0.2c1.1,0,3.6,0.1,7.6,0.2v-1c-1.6,0-2.7-0.3-3.4-0.9s-1.1-1.6-1.1-3.1V59.4c0-0.9,0.2-1.7,0.6-2.6
		s0.9-1.7,1.6-2.3s1.4-1,2.2-1.2c0.3-0.1,0.5-0.1,0.8-0.1c0.2,0,0.4,0,0.6,0.1c-1.4,1-2.1,2.2-2.1,3.8c0,0.9,0.3,1.7,0.9,2.2
		s1.5,0.8,2.6,0.8c1.1,0,2-0.4,2.7-1.1s1-1.7,1-2.9c0-0.8-0.2-1.5-0.5-2.1S91.5,52.7,90.9,52.2z"/>
	<path class="st0" d="M57.2,51.6c-3.7,0-6.5,1.1-8.6,3.2s-3.1,5.4-3.1,9.9s1,7.8,3.1,9.9s5,3.1,8.6,3.1s6.5-1,8.6-3.1
		s3.1-5.4,3.1-9.9c0-4.5-1-7.9-3.1-10S60.9,51.6,57.2,51.6z M60.5,73.8c-0.8,2-1.9,3-3.3,3c-1.4,0-2.5-1-3.3-3s-1.2-5-1.2-9.1
		c0-4.1,0.4-7.2,1.2-9.2s1.9-3,3.3-3c1.4,0,2.5,1,3.3,3s1.2,5.1,1.2,9.2C61.7,68.8,61.3,71.9,60.5,73.8z"/>
	<path class="st0" d="M47.3,43.1c-1,0.1-2.2,0.1-3.7,0.1c-1.8,0-3.8,0-6-0.1v1c1.4,0,2.4,0.4,3.1,1s1,1.6,1,3s-0.4,3.3-1.1,5.6
		l-4.6,14.5l-6.6-20.1c-0.3-1-0.5-1.7-0.5-2.2c0-0.7,0.2-1.1,0.8-1.4s1.3-0.4,2.5-0.4v-1c-1.5,0.1-3.8,0.1-6.9,0.1
		c-2.8,0-5.1,0-6.9-0.1v1c0.6,0,1.1,0.3,1.5,0.6s0.8,1,1.1,2l2.5,7.4l-4.9,14.2l-7-20.2c-0.3-0.8-0.4-1.6-0.4-2.2
		c0-1.1,0.6-1.7,1.7-1.9v-1c-1.2,0.1-3.2,0.1-5.9,0.1c-2.9,0-5.2,0-7.2-0.1v1c0.5,0,1.1,0.3,1.7,0.8s1,1.2,1.4,2.3l10.8,30
		c0.4,0,0.9,0,1.7,0s1.3,0,1.7,0l7.1-21.4l7.1,21.4c0.3,0,0.9,0,1.7,0c0.8,0,1.3,0,1.7,0l8.5-27.4c0.9-3.1,2.3-5,4.2-5.7V43.1z"/>
	<path class="st0" d="M179.3,63.4v-9.9c-0.4,0.3-0.8,0.7-1.1,1.2c-0.8,1-1.1,2.2-1.1,3.6c0,1.2,0.3,2.3,0.8,3.2
		C178.2,62.2,178.7,62.8,179.3,63.4z"/>
	<path class="st0" d="M265.3,55.8c0,0,0,0.1,0.1,0.1l4.8,10.9V52.5c-0.4,0-0.8,0-1.2,0c-1.3,0-2.5,0-3.7-0.1V55.8z"/>
	<path class="st0" d="M192.3,57.7c0.2,0.8,0.4,1.6,0.6,2.4h1.1c0-4,0.1-6.8,0.2-8.4H193c-0.1,0.9-0.4,1.4-0.7,1.7V57.7z"/>
	<rect x="196.8" y="52.3" class="st0" width="0.3" height="1"/>
	<path class="st0" d="M192.5,65c-0.1-0.1-0.1-0.1-0.2-0.2v11.1c0.6-0.4,1.1-0.9,1.6-1.5c0.8-1.1,1.2-2.3,1.2-3.7
		c0-1.2-0.2-2.3-0.7-3.2S193.2,65.7,192.5,65z"/>
	<path class="st0" d="M270.2,85.2c-0.4,0-0.7,0-0.9,0c0.3-0.1,0.6-0.3,0.9-0.4v-5.3c-0.6-0.3-1.3-0.4-2.1-0.4
		c-1.2,0-2.1,0.3-2.8,0.9c0,0,0,0,0,0v4.7c0.5,0.5,1.1,0.8,1.7,1c0.8,0.3,1.6,0.4,2.4,0.4c0.2,0,0.5,0,0.7,0V85.2z"/>
	<path class="st0" d="M117.5,73.6l-8.1-13.5l3.1-3.2c2.1-2,4.1-3.3,6-3.7v-1c-1.1,0.1-3,0.1-5.6,0.1c-2,0-3.8,0-5.6-0.1v1
		c1.1,0,2,0.3,2.7,0.7s1,1,1,1.8c0,0.9-0.5,1.9-1.6,2.9l-3.6,3.5c-0.4,0.4-0.8,0.7-1.2,0.9s-1,0.3-1.6,0.4V39.5
		c-1.9,0.5-4.2,0.7-7,0.7c-1,0-2,0-3-0.1v1c1.1,0,1.9,0.3,2.4,1s0.7,1.7,0.7,3.2v27.4c0,0.9-0.1,1.6-0.3,2.1s-0.5,0.9-1,1.1
		s-1,0.3-1.8,0.3v1c3.3-0.1,5.5-0.2,6.6-0.2c1,0,3,0.1,6.2,0.2v-1c-0.7,0-1.3-0.1-1.7-0.3s-0.7-0.6-0.9-1.1s-0.3-1.2-0.3-2.1v-8.2
		c0.5,0,1,0.2,1.3,0.4s0.7,0.6,1,1.1l4.8,8.6c0.2,0.3,0.2,0.5,0.2,0.7c0,0.6-0.5,0.9-1.4,0.9v1c3.1-0.1,5.1-0.2,6.2-0.2
		c0.8,0,2.5,0.1,5,0.2v-1c-0.5-0.2-0.9-0.4-1.3-0.8S118,74.3,117.5,73.6z"/>
	<path class="st0" d="M284,52.4c-0.3,0-0.6,0-0.8,0v8.4l1.2-3.4c0.5-1.3,1-2.3,1.5-2.9s1.1-1,1.8-1.2v-1
		C286.9,52.4,285.6,52.4,284,52.4z"/>
	<path class="st0" d="M156.2,74.7c-0.2-0.5-0.3-1.2-0.3-2.1V59.7c0-1.6-0.1-2.9-0.4-3.9s-0.6-1.8-1.2-2.4c-1-1.2-2.8-1.9-5.3-1.9
		c-3.8,0-6.4,1.5-7.8,4.5V39.5c-1.9,0.5-4.2,0.7-7,0.7c-1,0-2,0-3-0.1v1c1.1,0,1.9,0.3,2.4,1s0.7,1.7,0.7,3.2v27.3
		c0,0.9-0.1,1.6-0.3,2.1s-0.5,0.9-1,1.1s-1,0.3-1.8,0.3v1c3.3-0.1,5.5-0.2,6.6-0.2c0.9,0,2.9,0.1,5.9,0.2v-1c-0.7,0-1.2-0.1-1.5-0.3
		s-0.6-0.6-0.8-1.1s-0.2-1.2-0.2-2.1V59.2c0-1,0.2-2,0.6-2.8s1-1.5,1.7-2s1.5-0.7,2.4-0.7c1.1,0,1.9,0.3,2.3,1s0.6,1.7,0.6,3v14.9
		c0,0.9-0.1,1.6-0.3,2.1s-0.4,0.9-0.8,1.1c-0.4,0.2-0.9,0.3-1.5,0.3v1c3.1-0.1,5.1-0.2,6.2-0.2c0.9,0,3,0.1,6.4,0.2v-1
		c-0.8,0-1.4-0.1-1.8-0.3S156.4,75.2,156.2,74.7z"/>
	<path class="st0" d="M171,74.7c-0.2-0.5-0.3-1.2-0.3-2.1V51.8c-1.8,0.4-4.2,0.7-7,0.7c-1,0-2,0-3-0.1v1c1.1,0,1.9,0.3,2.4,1
		s0.7,1.7,0.7,3.2v15.1c0,0.9-0.1,1.6-0.3,2.1s-0.5,0.9-1,1.1s-1.1,0.3-1.8,0.3v1c3.4-0.1,5.7-0.2,6.7-0.2c1.1,0,3.2,0.1,6.4,0.2v-1
		c-0.8,0-1.4-0.1-1.8-0.3S171.2,75.2,171,74.7z"/>
	<path class="st0" d="M179.3,72.7c-0.6-1.3-1-3-1.2-4.9H177c0,4.6-0.1,7.8-0.2,9.6h1.1c0.2-1.1,0.6-1.7,1.1-1.7c0.1,0,0.1,0,0.2,0
		c0,0,0,0,0,0V72.7z"/>
</g>
<g>
	<path class="st1" d="M262.4,53.3c0.5,0,1,0.2,1.5,0.5c0.5,0.3,0.9,1,1.4,2v-3.4c-1,0-2-0.1-2.9-0.2V53.3z"/>
	<path class="st1" d="M244.8,52.4c-1,0-2,0-3-0.1v1c1.1,0,1.9,0.3,2.4,1s0.7,1.7,0.7,3.2v15.1c0,0.9-0.1,1.6-0.3,2.1s-0.5,0.9-1,1.1
		s-1.1,0.3-1.8,0.3v1c3.6-0.1,5.9-0.2,6.9-0.2c1.1,0,3.6,0.1,7.6,0.2v-1c-1.6,0-2.7-0.3-3.4-0.9s-1.1-1.6-1.1-3.1V59.4
		c0-0.9,0.2-1.7,0.6-2.6s0.9-1.7,1.6-2.3s1.4-1,2.2-1.2c0.3-0.1,0.5-0.1,0.8-0.1c0.2,0,0.4,0,0.6,0.1c-1.4,1-2.1,2.2-2.1,3.8
		c0,0.9,0.3,1.7,0.9,2.2s1.5,0.8,2.6,0.8c1.1,0,2-0.4,2.7-1.1s1-1.7,1-2.9c0-0.8-0.2-1.5-0.5-2.1s-0.8-1.2-1.5-1.6s-1.5-0.6-2.4-0.6
		c-1.5,0-2.8,0.4-3.9,1.3s-2,2-2.6,3.3v-4.5C250,52.2,247.6,52.4,244.8,52.4z"/>
	<path class="st1" d="M283.2,52.4c-1.3,0-2.6-0.1-3.8-0.1v1c1.1,0.1,2,0.4,2.6,1.1s0.9,1.6,0.9,2.8c0,1-0.3,2.3-0.8,3.8l-3.3,9.2
		L273,56c-0.2-0.5-0.3-1-0.3-1.4c0-0.4,0.1-0.7,0.4-0.9s0.6-0.3,1-0.4s0.9-0.1,1.6-0.1v-1c-2,0.1-3.9,0.2-5.5,0.3v14.3l5.4,12.2
		l-0.8,2.3c-0.9,2.5-2.4,3.8-4.4,3.8c-0.1,0-0.2,0-0.2,0v0.9c1.5-0.1,2.7-0.5,3.5-1.2c0.8-0.6,1.5-1.8,2.1-3.4l7.4-20.7V52.4z"/>
	<path class="st1" d="M201.2,73.6c0.2,1,0.7,1.8,1.4,2.5c1.1,1.1,2.7,1.6,4.8,1.6c3.2,0,5.4-1.6,6.6-4.9l-0.8-0.4
		c-0.8,1.9-1.9,2.9-3.3,2.9c-0.7,0-1.2-0.2-1.6-0.6s-0.5-1.1-0.5-2V53.3h5.7v-1h-5.7v-7.9c-2,1-4.3,1.5-6.9,1.5v6.4h-3.7v1h3.7v16.2
		C200.9,71.2,201,72.6,201.2,73.6z"/>
	<path class="st1" d="M192.3,64.8c-0.8-0.7-1.7-1.5-2.9-2.4c-0.5-0.4-1.2-0.9-2.2-1.6s-1.9-1.5-2.6-2.2s-1.1-1.7-1.1-2.8
		c0-1,0.3-1.7,0.9-2.2s1.4-0.8,2.3-0.8c1.9,0,3.3,0.7,4.3,2.1c0.6,0.8,1,1.8,1.3,2.8v-4.3c-0.1,0.1-0.2,0.1-0.4,0.1
		c-0.2,0-0.5-0.1-0.8-0.3c-0.6-0.4-1.4-0.7-2.4-1s-2.1-0.4-3.4-0.4c-1.5,0-2.9,0.3-4.1,0.8c-0.7,0.3-1.3,0.7-1.9,1.1v9.9
		c0.2,0.2,0.3,0.3,0.5,0.5c0.7,0.7,1.9,1.6,3.3,2.8c1.2,1,2.1,1.7,2.7,2.2s1.1,1.2,1.5,1.9s0.6,1.5,0.6,2.4c0,1.1-0.3,2-1,2.6
		s-1.5,0.9-2.4,0.9c-1.9,0-3.4-0.8-4.4-2.3c-0.3-0.5-0.6-1-0.8-1.6v3c0.5,0.2,1.3,0.5,2.2,1c1.3,0.7,2.8,1,4.5,1
		c1.7,0,3.2-0.3,4.6-0.9c0.6-0.3,1.2-0.6,1.7-1V64.8z"/>
	<path class="st1" d="M271.1,83.9c0.4-0.6,0.6-1.2,0.6-1.8c0-1-0.3-1.7-1-2.2c-0.2-0.1-0.4-0.3-0.5-0.4v5.3
		C270.6,84.5,270.9,84.2,271.1,83.9z"/>
	<path class="st1" d="M227.1,77.8c3.7,0,6.5-1,8.6-3.1s3.1-5.4,3.1-9.9c0-4.5-1-7.9-3.1-10s-5-3.1-8.6-3.1s-6.5,1.1-8.6,3.2
		s-3.1,5.4-3.1,9.9s1,7.8,3.1,9.9S223.5,77.8,227.1,77.8z M223.8,55.6c0.8-2,1.9-3,3.3-3c1.4,0,2.5,1,3.3,3s1.2,5.1,1.2,9.2
		c0,4.1-0.4,7.2-1.2,9.1s-1.9,3-3.3,3c-1.4,0-2.5-1-3.3-3s-1.2-5-1.2-9.1C222.6,60.6,223,57.6,223.8,55.6z"/>
	<path class="st1" d="M265.3,79.9c-0.7,0.6-1,1.4-1,2.3c0,0.9,0.3,1.6,0.8,2.2c0.1,0.1,0.2,0.2,0.3,0.2V79.9z"/>
</g>
</svg>
