<?xml version="1.0" encoding="utf-8"?>
<!-- Generator: Adobe Illustrator 21.0.0, SVG Export Plug-In . SVG Version: 6.00 Build 0)  -->
<svg version="1.1" id="Layer_1" xmlns="http://www.w3.org/2000/svg" xmlns:xlink="http://www.w3.org/1999/xlink" x="0px" y="0px"
	 width="80.1px" height="38.8258px" viewBox="0 0 80.1 38.8258" style="enable-background:new 0 0 80.1 38.8258;"
	 xml:space="preserve">
<style type="text/css">
	.st0{opacity:0.04;}
	.st1{fill:#FFFFFF;}
</style>
<g class="st0">
	<path class="st1" d="M80.175,7.2879v-1.9c-4.95,0-9.2,2.9-11.15,7.05c-1.25-1.5-2.65-2.9-4.15-4.15c2.7-4.4,7.3-7.5,12.6-8.3h-6.3
		c-3.2,1.6-5.9,4.05-7.8,7.1c-1.9-1.5-3.95-2.75-6.1-3.9c0.7-1.15,1.55-2.2,2.4-3.2h-2.5c-0.6,0.75-1.15,1.55-1.65,2.35
		c-2.2-1-4.5-1.75-6.9-2.35c0,0,0,0,0-0.05h-0.15h-17c-2.4,0.55-4.7,1.3-6.85,2.3c-0.5-0.8-1.05-1.55-1.6-2.3h-2.5
		c0.85,1,1.65,2,2.35,3.1c-2.15,1.1-4.2,2.4-6.1,3.85c-1.9-2.95-4.6-5.35-7.75-6.95h-6.3c5.25,0.8,9.8,3.85,12.5,8.2
		c-1.5,1.25-2.85,2.65-4.15,4.1c-2-4.1-6.2-6.9-11.05-6.9v1.95c4.4,0,8.15,2.75,9.7,6.65c-1.2,1.55-2.3,3.25-3.25,5
		c-0.4-0.05-0.8-0.15-1.2-0.2c0.05-0.35,0.1-0.7,0.1-1.05c0-2.95-2.4-5.35-5.35-5.35v1.95c1.9,0,3.4,1.55,3.4,3.4
		c0,0.3-0.05,0.55-0.1,0.85c-1.1-0.1-2.2-0.15-3.3-0.15v1.95c13.5,0,25.3,7.45,31.5,18.45h16.95h0.15c6.2-11,18-18.45,31.55-18.45
		v-1.95c-1.1,0-2.2,0.05-3.3,0.15c-0.05-0.25-0.1-0.55-0.1-0.85c0-1.9,1.55-3.4,3.4-3.4v-1.9c-2.95,0-5.35,2.4-5.35,5.35
		c0,0.35,0.05,0.7,0.1,1.05c-0.45,0.05-0.95,0.15-1.4,0.2c-0.9-1.7-1.95-3.3-3.1-4.85C71.875,10.1379,75.725,7.2879,80.175,7.2879z
		 M43.275,37.9879c-1.1-0.1-2.2-0.15-3.3-0.15s-2.2,0.05-3.3,0.15c-0.05-0.25-0.1-0.55-0.1-0.85c0-1.9,1.55-3.4,3.4-3.4
		c1.9,0,3.4,1.55,3.4,3.4C43.375,37.4379,43.325,37.7379,43.275,37.9879z M46.575,38.4379c-0.45-0.1-0.9-0.15-1.4-0.2
		c0.05-0.35,0.1-0.7,0.1-1.05c0-2.95-2.4-5.35-5.35-5.35s-5.35,2.4-5.35,5.35c0,0.35,0.05,0.7,0.1,1.05c-0.4,0.05-0.8,0.1-1.2,0.2
		c-0.95-1.75-2.05-3.4-3.25-5c1.5-3.9,5.3-6.65,9.7-6.65c4.5,0,8.3,2.85,9.75,6.85C48.575,35.1379,47.525,36.7379,46.575,38.4379z
		 M51.125,31.8879c-2-4.15-6.25-7.05-11.15-7.05c-4.85,0-9.05,2.8-11.05,6.9c-1.25-1.5-2.65-2.85-4.15-4.1
		c3.2-5.05,8.8-8.4,15.2-8.4c6.45,0,12.1,3.4,15.3,8.55C53.775,28.9879,52.375,30.3879,51.125,31.8879z M56.775,26.4879
		c-3.55-5.55-9.75-9.25-16.8-9.25c-7,0-13.15,3.65-16.7,9.1c-1.9-1.45-3.95-2.75-6.1-3.85c4.85-7.5,13.25-12.5,22.8-12.5
		c9.6,0,18.05,5,22.85,12.55C60.675,23.6879,58.625,24.9879,56.775,26.4879z M71.525,19.4379c-2.4,0.55-4.7,1.35-6.9,2.35
		c-5.15-8.2-14.25-13.65-24.65-13.65c-10.35,0-19.45,5.45-24.6,13.6c-2.2-1-4.55-1.75-6.95-2.3c6.2-11,18-18.45,31.5-18.45
		C53.475,0.9379,65.275,8.3879,71.525,19.4379z"/>
	<path class="st1" d="M57.175,38.7879h2.5c5-5.75,12.3-9.35,20.45-9.35v-1.95C70.825,27.4879,62.475,31.9379,57.175,38.7879z"/>
	<path class="st1" d="M77.475,38.7879c0.85-0.15,1.75-0.2,2.65-0.2v-1.95c-3.2,0-6.2,0.8-8.9,2.15H77.475z"/>
	<path class="st1" d="M0.025,27.4879v1.95c8.15,0,15.5,3.65,20.45,9.35h2.5C17.625,31.9379,9.325,27.4879,0.025,27.4879z"/>
	<path class="st1" d="M0.025,38.5879c0.9,0,1.8,0.1,2.7,0.2h6.3c-2.7-1.35-5.75-2.15-9-2.1441V38.5879z"/>
	<polygon class="st1" points="0.025,38.5938 0.025,38.5879 0.025,38.5879 	"/>
</g>
</svg>
