<?xml version="1.0" encoding="utf-8"?>
<!-- Generator: Adobe Illustrator 21.0.0, SVG Export Plug-In . SVG Version: 6.00 Build 0)  -->
<svg version="1.1" id="Layer_1" xmlns="http://www.w3.org/2000/svg" xmlns:xlink="http://www.w3.org/1999/xlink" x="0px" y="0px"
	 viewBox="0 0 60 30" style="enable-background:new 0 0 60 30;" xml:space="preserve">
<style type="text/css">
	.st0{fill:#584A9C;}
</style>
<path class="st0" d="M57,2.2c0.2-0.5,0.5-0.8,0.9-1C58.3,1,59,0.9,60,0.9V0c-1.6,0.1-3.9,0.1-6.9,0.1H50L42,20.3L33.2,0l-6.2,0l-2,0
	l-0.3,0L13.5,0.1C7.2,0.1,2.7,0.1,0,0c0.2,3,0.3,5.4,0.3,7.4c0,1.3,0,2.4-0.1,3.3h1C1.7,8.3,2.3,6.4,3,5c0.7-1.4,1.5-2.4,2.5-3
	C6.4,1.3,7.6,1,9,1h1v24c0,1.2-0.1,2.1-0.4,2.6c-0.2,0.6-0.7,0.9-1.3,1.1c-0.6,0.2-1.6,0.3-3,0.3V30c3.5-0.1,6.2-0.1,8-0.1h13.1
	c2,0,3.5,0,4.6,0.1v-0.9c-1.3-0.1-2.2-0.4-2.8-0.7c-0.6-0.4-1-1-1.1-1.8c-0.2-0.8-0.3-2.1-0.3-3.8v-20L38.6,30h0.7L49.8,3.4v21.9
	c0,1.1-0.1,1.9-0.3,2.4c-0.2,0.5-0.5,0.8-1,1c-0.5,0.2-1.2,0.3-2.3,0.3V30c1.5-0.1,3.8-0.1,6.9-0.1c3,0,5.2,0,6.9,0.1v-0.9
	c-1,0-1.7-0.2-2.1-0.3c-0.4-0.2-0.8-0.5-0.9-1c-0.2-0.5-0.2-1.3-0.2-2.4V4.6C56.7,3.5,56.8,2.7,57,2.2z M18.6,28.8
	c-0.6-0.2-1.1-0.6-1.3-1.1c-0.3-0.6-0.4-1.4-0.4-2.6V1h1c1.4,0,2.6,0.3,3.5,0.9c1,0.6,1.8,1.6,2.5,3c0.7,1.4,1.3,3.3,1.8,5.8v12.6
	c0,1.5-0.1,2.6-0.2,3.4c-0.2,0.7-0.5,1.3-0.9,1.7c-0.4,0.4-1.1,0.6-3,0.7C20.3,29.1,19.3,29,18.6,28.8z"/>
</svg>
