<?xml version="1.0" encoding="utf-8"?>
<!-- Generator: Adobe Illustrator 17.1.0, SVG Export Plug-In . SVG Version: 6.00 Build 0)  -->
<!DOCTYPE svg PUBLIC "-//W3C//DTD SVG 1.1//EN" "http://www.w3.org/Graphics/SVG/1.1/DTD/svg11.dtd">
<svg version="1.1" id="Layer_1" xmlns="http://www.w3.org/2000/svg" xmlns:xlink="http://www.w3.org/1999/xlink" x="0px" y="0px"
	 viewBox="60.997 60.997 78.006 78.006" enable-background="new 60.997 60.997 78.006 78.006" xml:space="preserve">
<path fill="#D81D5D" d="M64.969,86.67c0-3.792,2.687-8.446,5.971-10.343l23.088-13.33c3.284-1.896,8.658-1.896,11.943,0
	l23.088,13.33c3.284,1.896,5.971,6.55,5.971,10.343v26.66c0,3.792-2.687,8.446-5.971,10.343l-23.088,13.33
	c-3.284,1.896-8.658,1.896-11.943,0l-23.088-13.33c-3.284-1.896-5.971-6.55-5.971-10.343V86.67z"/>
<g>
	<g>
		<path fill="#FFFFFF" d="M117.094,93.993c-0.175-0.175-0.356-0.345-0.54-0.51c-0.003,0-0.008,0.003-0.011,0.003
			c0.192,0.167,0.375,0.343,0.556,0.521c0.367,0.367,0.707,0.75,1.02,1.152C117.806,94.751,117.463,94.362,117.094,93.993z
			 M119.279,96.939c0.143,0.267,0.275,0.54,0.397,0.815C119.557,97.476,119.422,97.206,119.279,96.939z"/>
	</g>
	<g>
		<path opacity="0.2" fill="#221F1F" d="M89.204,112.224c0.103,0.089,0.205,0.175,0.31,0.259h-3.378
			c-5.356,0-9.713-4.357-9.713-9.713v-1.349h-1.349c-2.31,0-4.19-1.881-4.19-4.193c0-2.31,1.881-4.19,4.19-4.19h1.349v-1.349
			c0-2.312,1.88-4.193,4.193-4.193c2.312,0,4.193,1.88,4.193,4.193v1.349h1.349c2.31,0,4.19,1.88,4.19,4.19
			c0,2.304-1.872,4.185-4.177,4.193l-1.344,0.005v1.344C84.827,106.431,86.462,109.89,89.204,112.224z"/>
		<path fill="#FFFFFF" d="M119.393,90.369c-1.951,0-3.807,0.432-5.534,1.29c-1.711-0.853-3.61-1.3-5.536-1.3h-0.062
			c-6.842,0-12.411,5.566-12.411,12.411c0,3.178-1.576,6.162-4.16,7.97c-2.258-1.578-3.748-4.055-4.088-6.775
			c3.106-0.667,5.445-3.437,5.445-6.737c0-3.375-2.442-6.192-5.65-6.778c-0.585-3.211-3.402-5.652-6.78-5.652
			c-3.378,0-6.195,2.442-6.78,5.652c-3.208,0.585-5.65,3.402-5.65,6.778c0,3.359,2.415,6.165,5.599,6.769
			c0.621,6.27,5.922,11.184,12.352,11.184h11.103c4.08,0,7.703-1.978,9.967-5.024c0.812,2.9,3.48,5.032,6.637,5.032
			c2.266,0,4.279-1.098,5.536-2.795c1.255,1.702,3.276,2.809,5.547,2.809c3.799,0,6.888-3.092,6.888-6.891v-5.531
			C131.815,95.935,126.248,90.369,119.393,90.369z M86.136,112.483c-5.356,0-9.713-4.357-9.713-9.713v-1.349h-1.349
			c-2.31,0-4.19-1.881-4.19-4.193c0-2.31,1.881-4.19,4.19-4.19h1.349v-1.349c0-2.312,1.88-4.193,4.193-4.193
			c2.312,0,4.193,1.88,4.193,4.193v1.349h1.349c2.31,0,4.19,1.881,4.19,4.19c0,2.304-1.872,4.185-4.177,4.193l-1.344,0.005v1.344
			c0,3.661,1.635,7.12,4.376,9.454c0.103,0.089,0.205,0.175,0.31,0.259h-0.264H86.136z M118.033,108.301
			c0,2.31-1.881,4.19-4.19,4.19c-2.312,0-4.193-1.881-4.193-4.19v-5.531h-2.698c0,5.356-4.358,9.713-9.713,9.713
			c-0.121,0-0.246-0.003-0.367-0.008c-0.1-0.003-0.199-0.008-0.299-0.016c-0.081-0.003-0.159-0.011-0.24-0.019
			c-0.083-0.008-0.167-0.016-0.251-0.027c-0.065-0.008-0.132-0.016-0.197-0.024c-0.076-0.011-0.154-0.022-0.232-0.038
			c-0.138-0.022-0.272-0.046-0.41-0.076c-0.073-0.013-0.146-0.029-0.218-0.048c-0.218-0.048-0.434-0.108-0.65-0.175
			c2.617-2.331,4.174-5.712,4.174-9.281c0-5.356,4.358-9.713,9.713-9.713h0.062c1.56,0,3.097,0.375,4.471,1.087l0.005,0.003
			c0.121,0.062,0.243,0.13,0.362,0.197l0.076,0.046c0.707,0.416,1.365,0.926,1.951,1.511c0.348,0.345,0.667,0.718,0.95,1.106
			c0.192,0.256,0.37,0.521,0.529,0.79c0.165,0.27,0.313,0.55,0.445,0.834c0.064,0.135,0.124,0.267,0.181,0.405
			c0.003,0.008,0.008,0.019,0.011,0.027c0.043,0.1,0.081,0.202,0.119,0.305c0.041,0.102,0.076,0.205,0.111,0.307
			c0.03,0.089,0.059,0.181,0.086,0.27c0.032,0.111,0.065,0.224,0.094,0.337c0.019,0.065,0.035,0.132,0.051,0.197
			c0.032,0.13,0.059,0.262,0.086,0.394c0.022,0.108,0.041,0.213,0.057,0.321c0.022,0.13,0.041,0.259,0.057,0.391
			c0.008,0.057,0.014,0.111,0.019,0.167c0.003,0.019,0.006,0.035,0.006,0.051c0.013,0.148,0.027,0.297,0.032,0.445
			c0.003,0.022,0.006,0.043,0.003,0.067c0.008,0.151,0.011,0.302,0.011,0.453V108.301z M129.117,108.311
			c0,2.312-1.878,4.193-4.19,4.193c-2.31,0-4.19-1.881-4.193-4.19v-5.531c0-0.418-0.022-0.836-0.062-1.246
			c-0.04-0.408-0.1-0.81-0.178-1.206c-0.03-0.14-0.06-0.281-0.092-0.418c-0.005-0.032-0.013-0.062-0.022-0.092
			c-0.03-0.116-0.059-0.232-0.092-0.351c0-0.003,0-0.008-0.003-0.014c-0.035-0.127-0.073-0.256-0.113-0.383
			c-0.003-0.008-0.005-0.016-0.008-0.024c-0.038-0.13-0.081-0.256-0.127-0.383c-0.035-0.103-0.073-0.202-0.111-0.302
			c-0.078-0.208-0.162-0.41-0.251-0.61c-0.121-0.275-0.254-0.548-0.397-0.815c-0.332-0.621-0.721-1.217-1.16-1.781
			c-0.313-0.402-0.653-0.785-1.02-1.152c-0.181-0.178-0.364-0.354-0.556-0.521c0.003,0,0.008-0.003,0.011-0.003
			c0.915-0.275,1.864-0.415,2.849-0.415c5.356,0,9.713,4.357,9.713,9.713V108.311z"/>
	</g>
	<g>
		<g>
			<path opacity="0.2" fill="#221F1F" d="M129.117,102.78v5.531c0,2.312-1.878,4.193-4.19,4.193c-2.31,0-4.19-1.881-4.193-4.19
				v-5.531c0-0.418-0.022-0.836-0.062-1.246c-0.04-0.407-0.1-0.809-0.178-1.206c-0.03-0.14-0.06-0.281-0.092-0.418
				c-0.005-0.032-0.013-0.062-0.022-0.092c-0.029-0.116-0.059-0.232-0.092-0.351c0-0.003,0-0.008-0.003-0.014
				c-0.035-0.127-0.073-0.256-0.113-0.383c-0.003-0.008-0.005-0.016-0.008-0.024c-0.038-0.13-0.081-0.256-0.127-0.383
				c-0.035-0.103-0.073-0.202-0.111-0.302c-0.078-0.208-0.162-0.41-0.251-0.61c-0.121-0.275-0.254-0.548-0.397-0.815
				c-0.332-0.621-0.721-1.217-1.16-1.781c-0.313-0.402-0.653-0.785-1.02-1.152c-0.181-0.178-0.364-0.353-0.556-0.521
				c0.003,0,0.008-0.003,0.011-0.003c0.915-0.275,1.864-0.416,2.849-0.416C124.759,93.067,129.117,97.425,129.117,102.78z"/>
		</g>
	</g>
</g>
</svg>
