<?xml version="1.0" encoding="UTF-8" standalone="no"?>
<!-- Created with Inkscape (http://www.inkscape.org/) -->

<svg
   xmlns:dc="http://purl.org/dc/elements/1.1/"
   xmlns:cc="http://creativecommons.org/ns#"
   xmlns:rdf="http://www.w3.org/1999/02/22-rdf-syntax-ns#"
   xmlns:svg="http://www.w3.org/2000/svg"
   xmlns="http://www.w3.org/2000/svg"
   xmlns:inkscape="http://www.inkscape.org/namespaces/inkscape"
   version="1.1"
   width="18.2575"
   height="20"
   id="svg2"
   xml:space="preserve"><metadata
     id="metadata8"><rdf:RDF><cc:Work
         rdf:about=""><dc:format>image/svg+xml</dc:format><dc:type
           rdf:resource="http://purl.org/dc/dcmitype/StillImage" /></cc:Work></rdf:RDF></metadata><defs
     id="defs6"><clipPath
       id="clipPath16"><path
         d="m 0,16 14.606,0 0,-16 L 0,0 0,16 z"
         inkscape:connector-curvature="0"
         id="path18" /></clipPath><clipPath
       id="clipPath32"><path
         d="m 1.23302,10.5937 4.05798,0 0,-5.20939 -4.05798,0 0,5.20939 z"
         inkscape:connector-curvature="0"
         id="path34" /></clipPath><clipPath
       id="clipPath52"><path
         d="m 10.7525,9.43216 2.6213,0 0,-4.05237 -2.6213,0 0,4.05237 z"
         inkscape:connector-curvature="0"
         id="path54" /></clipPath><clipPath
       id="clipPath72"><path
         d="m 2.67026,9.13206 11.93574,0 0,-9.0479536 -11.93574,0 0,9.0479536 z"
         inkscape:connector-curvature="0"
         id="path74" /></clipPath><clipPath
       id="clipPath92"><path
         d="m 1.23326,10.596 4.058,0 0,-5.20945 -4.058,0 0,5.20945 z"
         inkscape:connector-curvature="0"
         id="path94" /></clipPath><clipPath
       id="clipPath112"><path
         d="m 10.7527,9.4344 2.6214,0 0,-4.05235 -2.6214,0 0,4.05235 z"
         inkscape:connector-curvature="0"
         id="path114" /></clipPath></defs><g
     transform="matrix(1.25,0,0,-1.25,0,20)"
     id="g10"><g
       id="g12"><g
         clip-path="url(#clipPath16)"
         id="g14"><g
           transform="translate(0,10.7659)"
           id="g20"><path
             d="m 0,0 c 0,0.791 0.56,1.761 1.245,2.156 l 4.813,2.779 c 0.685,0.396 1.806,0.396 2.49,0 L 13.362,2.156 C 14.047,1.761 14.607,0.791 14.607,0 l 0,-5.558 c 0,-0.791 -0.56,-1.761 -1.245,-2.156 l -4.814,-2.78 c -0.684,-0.395 -1.805,-0.395 -2.49,0 l -4.813,2.78 C 0.56,-7.319 0,-6.349 0,-5.558 L 0,0 z"
             inkscape:connector-curvature="0"
             id="path22"
             style="fill:#d81d5d;fill-opacity:1;fill-rule:nonzero;stroke:none" /></g><g
           transform="translate(11.3229,8.6249)"
           id="g24"><path
             d="M 0,0 C 0.03,-0.056 0.057,-0.113 0.083,-0.17 0.058,-0.112 0.03,-0.056 0,0 M -0.456,0.614 C -0.492,0.651 -0.53,0.686 -0.568,0.721 -0.569,0.721 -0.57,0.72 -0.57,0.72 -0.53,0.685 -0.492,0.649 -0.455,0.611 -0.378,0.535 -0.307,0.455 -0.242,0.371 -0.307,0.456 -0.379,0.537 -0.456,0.614"
             inkscape:connector-curvature="0"
             id="path26"
             style="fill:#ffffff;fill-opacity:1;fill-rule:nonzero;stroke:none" /></g><g
           id="g28"><g
             id="g30" /><g
             id="g36"><g
               clip-path="url(#clipPath32)"
               id="g38"
               style="opacity:0.19999701"><g
                 transform="translate(5.0525,5.4383)"
                 id="g40"><path
                   d="m 0,0 c 0.021,-0.019 0.043,-0.037 0.065,-0.054 l -0.705,0 c -1.116,0 -2.025,0.908 -2.025,2.025 l 0,0.281 -0.281,0 c -0.481,0 -0.873,0.392 -0.873,0.874 0,0.482 0.392,0.874 0.873,0.874 l 0.281,0 0,0.281 c 0,0.482 0.392,0.874 0.875,0.874 0.482,0 0.874,-0.392 0.874,-0.874 l 0,-0.281 0.281,0 c 0.481,0 0.873,-0.392 0.873,-0.874 0,-0.48 -0.39,-0.872 -0.87,-0.874 l -0.28,-10e-4 0,-0.28 C -0.912,1.208 -0.572,0.487 0,0"
                   inkscape:connector-curvature="0"
                   id="path42"
                   style="fill:#221f1f;fill-opacity:1;fill-rule:nonzero;stroke:none" /></g></g></g></g><g
           transform="translate(13.3738,6.254)"
           id="g44"><path
             d="m 0,0 c 0,-0.482 -0.392,-0.874 -0.874,-0.874 -0.481,0 -0.873,0.392 -0.874,0.873 l 0,1.154 c 0,0.087 -0.004,0.174 -0.013,0.259 -0.008,0.085 -0.02,0.169 -0.037,0.252 -0.006,0.029 -0.012,0.058 -0.019,0.087 -0.001,0.007 -0.003,0.013 -0.004,0.019 -0.007,0.024 -0.013,0.049 -0.02,0.073 0,0.001 0,0.002 0,0.003 -0.007,0.027 -0.015,0.054 -0.024,0.08 0,0.002 -0.001,0.003 -0.001,0.005 -0.008,0.027 -0.017,0.054 -0.027,0.08 C -1.9,2.032 -1.908,2.053 -1.916,2.074 -1.932,2.117 -1.95,2.16 -1.968,2.201 -1.994,2.258 -2.021,2.315 -2.051,2.371 -2.12,2.5 -2.201,2.625 -2.293,2.742 c -0.065,0.084 -0.136,0.164 -0.212,0.24 -0.038,0.038 -0.076,0.074 -0.116,0.109 0,0 10e-4,10e-4 0.002,10e-4 0.191,0.057 0.389,0.086 0.594,0.086 C -0.908,3.178 0,2.27 0,1.153 L 0,0 z m -2.311,0.002 c 0,-0.481 -0.392,-0.873 -0.873,-0.873 -0.483,0 -0.875,0.392 -0.875,0.873 l 0,1.153 -0.562,0 c 0,-1.116 -0.909,-2.025 -2.025,-2.025 -0.025,0 -0.051,0.001 -0.077,0.002 -0.02,0.001 -0.041,0.002 -0.062,0.003 -0.017,0.001 -0.033,0.003 -0.05,0.004 -0.018,0.002 -0.035,0.004 -0.052,0.006 -0.014,0.002 -0.028,0.003 -0.041,0.005 -0.016,0.002 -0.033,0.005 -0.049,0.008 -0.029,0.004 -0.057,0.009 -0.085,0.016 -0.016,0.002 -0.031,0.006 -0.046,0.01 -0.046,0.01 -0.091,0.022 -0.136,0.036 0.546,0.486 0.871,1.191 0.871,1.935 0,1.117 0.908,2.025 2.025,2.025 l 0.013,0 c 0.325,0 0.645,-0.078 0.932,-0.226 L -3.402,2.953 C -3.377,2.94 -3.351,2.926 -3.327,2.912 L -3.311,2.903 C -3.164,2.816 -3.026,2.71 -2.904,2.588 -2.832,2.516 -2.765,2.438 -2.706,2.357 -2.666,2.303 -2.629,2.248 -2.596,2.192 -2.562,2.136 -2.531,2.077 -2.503,2.018 -2.49,1.99 -2.477,1.963 -2.466,1.934 -2.465,1.932 -2.464,1.93 -2.463,1.928 -2.454,1.908 -2.446,1.886 -2.439,1.865 -2.43,1.843 -2.423,1.822 -2.415,1.801 -2.409,1.782 -2.403,1.763 -2.397,1.744 -2.391,1.721 -2.384,1.698 -2.378,1.674 -2.374,1.661 -2.37,1.646 -2.367,1.633 -2.36,1.606 -2.355,1.578 -2.349,1.551 -2.345,1.528 -2.341,1.506 -2.337,1.484 -2.333,1.457 -2.329,1.43 -2.325,1.402 -2.324,1.391 -2.323,1.379 -2.322,1.367 -2.321,1.364 -2.32,1.36 -2.32,1.357 -2.318,1.326 -2.315,1.295 -2.314,1.264 -2.313,1.259 -2.313,1.255 -2.313,1.25 -2.311,1.218 -2.311,1.187 -2.311,1.155 l 0,-1.153 z m -6.65,-0.872 c -1.116,0 -2.025,0.909 -2.025,2.025 l 0,0.282 -0.281,0 c -0.482,0 -0.874,0.392 -0.874,0.874 0,0.481 0.392,0.873 0.874,0.873 l 0.281,0 0,0.282 c 0,0.482 0.392,0.874 0.874,0.874 0.482,0 0.874,-0.392 0.874,-0.874 l 0,-0.282 0.282,0 c 0.481,0 0.873,-0.392 0.873,-0.873 0,-0.481 -0.39,-0.873 -0.871,-0.874 l -0.28,-0.001 0,-0.281 c 0,-0.763 0.341,-1.484 0.913,-1.971 0.021,-0.018 0.042,-0.036 0.064,-0.054 l -0.055,0 -0.649,0 z m 6.934,4.611 c -0.407,0 -0.794,-0.09 -1.154,-0.269 -0.357,0.178 -0.753,0.271 -1.154,0.271 l -0.013,0 c -1.427,0 -2.588,-1.16 -2.588,-2.588 0,-0.662 -0.328,-1.284 -0.867,-1.661 -0.471,0.329 -0.782,0.845 -0.852,1.412 0.647,0.139 1.135,0.717 1.135,1.405 0,0.703 -0.509,1.291 -1.178,1.413 -0.122,0.669 -0.71,1.178 -1.414,1.178 -0.704,0 -1.291,-0.509 -1.413,-1.178 -0.669,-0.122 -1.178,-0.71 -1.178,-1.413 0,-0.701 0.503,-1.286 1.167,-1.412 0.129,-1.307 1.235,-2.331 2.575,-2.331 l 2.315,0 c 0.85,0 1.606,0.412 2.078,1.047 0.169,-0.604 0.725,-1.049 1.384,-1.049 0.472,0 0.892,0.229 1.154,0.583 0.261,-0.355 0.683,-0.586 1.156,-0.586 0.792,0 1.437,0.645 1.437,1.437 l 0,1.153 c 0,1.427 -1.161,2.588 -2.59,2.588"
             inkscape:connector-curvature="0"
             id="path46"
             style="fill:#ffffff;fill-opacity:1;fill-rule:nonzero;stroke:none" /></g><g
           id="g48"><g
             id="g50" /><g
             id="g56"><g
               clip-path="url(#clipPath52)"
               id="g58"
               style="opacity:0.19999701"><g
                 transform="translate(13.3738,7.4071)"
                 id="g60"><path
                   d="m 0,0 0,-1.153 c 0,-0.482 -0.392,-0.874 -0.874,-0.874 -0.481,0 -0.873,0.392 -0.874,0.873 l 0,1.153 c 0,0.088 -0.004,0.175 -0.013,0.26 -0.008,0.085 -0.02,0.169 -0.037,0.252 -0.006,0.029 -0.012,0.058 -0.019,0.087 -0.001,0.007 -0.003,0.013 -0.004,0.019 -0.007,0.024 -0.013,0.048 -0.02,0.073 0,0.001 0,0.002 0,0.003 -0.007,0.026 -0.015,0.053 -0.024,0.08 0,0.002 -0.001,0.003 -0.001,0.005 -0.008,0.027 -0.017,0.053 -0.027,0.08 C -1.9,0.879 -1.908,0.9 -1.916,0.921 -1.932,0.964 -1.95,1.006 -1.968,1.048 c -0.026,0.057 -0.053,0.114 -0.083,0.17 -0.069,0.129 -0.15,0.254 -0.242,0.371 -0.065,0.084 -0.136,0.164 -0.212,0.24 -0.038,0.037 -0.076,0.074 -0.116,0.109 0,0 10e-4,0 0.002,0 0.191,0.058 0.389,0.087 0.594,0.087 C -0.908,2.025 0,1.117 0,0"
                   inkscape:connector-curvature="0"
                   id="path62"
                   style="fill:#221f1f;fill-opacity:1;fill-rule:nonzero;stroke:none" /></g></g></g></g><g
           transform="translate(2e-4,10.7681)"
           id="g64"><path
             d="m 0,0 c 0,0.791 0.56,1.761 1.245,2.156 l 4.813,2.779 c 0.685,0.396 1.806,0.396 2.49,0 L 13.362,2.156 C 14.047,1.761 14.607,0.791 14.607,0 l 0,-5.558 c 0,-0.791 -0.56,-1.761 -1.245,-2.156 l -4.814,-2.78 c -0.684,-0.395 -1.805,-0.395 -2.49,0 l -4.813,2.78 C 0.56,-7.319 0,-6.349 0,-5.558 L 0,0 z"
             inkscape:connector-curvature="0"
             id="path66"
             style="fill:#d81d5d;fill-opacity:1;fill-rule:nonzero;stroke:none" /></g><g
           id="g68"><g
             id="g70" /><g
             id="g76"><g
               clip-path="url(#clipPath72)"
               id="g78"
               style="opacity:0.19999701"><g
                 transform="translate(14.606,7.8023)"
                 id="g80"><path
                   d="M 0,0 0,-2.592 C 0,-3.383 -0.559,-4.353 -1.244,-4.749 L -6.058,-7.528 C -6.196,-7.61 -6.352,-7.673 -6.52,-7.718 l -5.416,5.416 c 0.462,-0.421 1.072,-0.676 1.744,-0.676 l 2.313,0 c 0.851,0 1.606,0.411 2.078,1.047 0.17,-0.604 0.726,-1.05 1.384,-1.05 0.473,0 0.894,0.229 1.154,0.584 0.262,-0.355 0.683,-0.586 1.158,-0.586 0.791,0 1.436,0.645 1.436,1.436 l 0,1.154 c 0,0.66 -0.249,1.264 -0.661,1.723 L 0,0 z"
                   inkscape:connector-curvature="0"
                   id="path82"
                   style="fill:#221f1f;fill-opacity:1;fill-rule:nonzero;stroke:none" /></g></g></g></g><g
           transform="translate(11.3231,8.6272)"
           id="g84"><path
             d="M 0,0 C 0.03,-0.056 0.057,-0.113 0.083,-0.17 0.058,-0.112 0.03,-0.056 0,0 M -0.456,0.614 C -0.492,0.651 -0.53,0.686 -0.568,0.721 -0.569,0.721 -0.57,0.72 -0.57,0.72 -0.53,0.685 -0.492,0.649 -0.455,0.611 -0.378,0.535 -0.307,0.455 -0.242,0.371 -0.307,0.456 -0.379,0.537 -0.456,0.614"
             inkscape:connector-curvature="0"
             id="path86"
             style="fill:#ffffff;fill-opacity:1;fill-rule:nonzero;stroke:none" /></g><g
           id="g88"><g
             id="g90" /><g
             id="g96"><g
               clip-path="url(#clipPath92)"
               id="g98"
               style="opacity:0.19999701"><g
                 transform="translate(5.0528,5.4406)"
                 id="g100"><path
                   d="m 0,0 c 0.021,-0.019 0.043,-0.037 0.065,-0.054 l -0.705,0 c -1.116,0 -2.025,0.908 -2.025,2.025 l 0,0.281 -0.281,0 c -0.481,0 -0.874,0.392 -0.874,0.874 0,0.482 0.393,0.874 0.874,0.874 l 0.281,0 0,0.281 c 0,0.482 0.392,0.874 0.875,0.874 0.482,0 0.874,-0.392 0.874,-0.874 l 0,-0.281 0.281,0 c 0.481,0 0.873,-0.392 0.873,-0.874 0,-0.48 -0.39,-0.872 -0.87,-0.874 l -0.28,-10e-4 0,-0.28 C -0.912,1.208 -0.572,0.487 0,0"
                   inkscape:connector-curvature="0"
                   id="path102"
                   style="fill:#221f1f;fill-opacity:1;fill-rule:nonzero;stroke:none" /></g></g></g></g><g
           transform="translate(13.3736,6.2555)"
           id="g104"><path
             d="m 0,0 c 0,-0.482 -0.391,-0.873 -0.873,-0.873 -0.482,0 -0.873,0.391 -0.875,0.873 l 0,1.153 c 0,0.089 -0.005,0.174 -0.011,0.26 -0.009,0.084 -0.023,0.17 -0.039,0.251 -0.007,0.03 -0.011,0.059 -0.018,0.089 -0.002,0.006 -0.002,0.011 -0.004,0.018 -0.007,0.025 -0.014,0.047 -0.021,0.072 l 0,0.005 C -1.848,1.872 -1.857,1.9 -1.863,1.927 -1.866,1.929 -1.866,1.929 -1.866,1.931 -1.875,1.958 -1.884,1.986 -1.893,2.013 -1.9,2.033 -1.909,2.053 -1.915,2.074 -1.931,2.119 -1.949,2.16 -1.967,2.203 -1.992,2.259 -2.022,2.316 -2.051,2.372 -2.119,2.501 -2.2,2.626 -2.293,2.743 -2.359,2.827 -2.429,2.906 -2.506,2.983 -2.542,3.021 -2.578,3.055 -2.619,3.091 -2.429,3.15 -2.23,3.18 -2.024,3.18 -0.909,3.18 0,2.27 0,1.153 L 0,0 z m -2.311,0.002 c 0,-0.481 -0.391,-0.873 -0.873,-0.873 -0.482,0 -0.873,0.392 -0.873,0.873 l 0,1.154 -0.563,0 c 0,-1.118 -0.909,-2.024 -2.026,-2.024 l -0.077,0 c -0.021,0.002 -0.041,0.002 -0.061,0.004 -0.018,0 -0.034,0.002 -0.05,0.005 -0.018,0 -0.036,0.002 -0.052,0.004 -0.014,0.002 -0.029,0.005 -0.043,0.005 -0.016,0.002 -0.032,0.004 -0.047,0.009 -0.03,0.004 -0.057,0.009 -0.086,0.016 -0.014,0.002 -0.03,0.006 -0.046,0.009 -0.045,0.011 -0.09,0.022 -0.135,0.038 0.545,0.484 0.87,1.19 0.87,1.934 0,1.117 0.909,2.026 2.024,2.026 l 0.014,0 c 0.326,0 0.647,-0.079 0.932,-0.229 l 0.002,0 c 0.025,-0.013 0.05,-0.027 0.074,-0.04 l 0.016,-0.009 c 0.147,-0.086 0.285,-0.195 0.407,-0.315 0.073,-0.072 0.138,-0.151 0.197,-0.23 0.041,-0.055 0.079,-0.109 0.111,-0.165 0.034,-0.057 0.065,-0.116 0.093,-0.175 0.013,-0.029 0.027,-0.056 0.038,-0.085 0,0 0.002,-0.003 0.002,-0.005 0.009,-0.02 0.016,-0.043 0.025,-0.063 0.009,-0.023 0.016,-0.043 0.023,-0.064 0.007,-0.02 0.013,-0.038 0.018,-0.056 0.007,-0.025 0.013,-0.048 0.02,-0.07 0.005,-0.014 0.007,-0.03 0.009,-0.043 0.007,-0.027 0.014,-0.055 0.018,-0.082 0.005,-0.022 0.009,-0.045 0.014,-0.068 0.004,-0.024 0.007,-0.052 0.011,-0.081 0.003,-0.011 0.003,-0.023 0.005,-0.034 l 0,-0.011 c 0.002,-0.03 0.007,-0.061 0.007,-0.093 0,-0.004 0.002,-0.009 0,-0.013 0.002,-0.032 0.002,-0.064 0.002,-0.095 l 0,-1.154 z m -6.649,-0.87 c -1.117,0 -2.026,0.906 -2.026,2.024 l 0,0.282 -0.28,0 c -0.482,0 -0.873,0.391 -0.873,0.873 0,0.482 0.391,0.873 0.873,0.873 l 0.28,0 0,0.283 c 0,0.481 0.394,0.873 0.875,0.873 0.482,0 0.873,-0.392 0.873,-0.873 l 0,-0.283 0.283,0 c 0.481,0 0.873,-0.391 0.873,-0.873 0,-0.479 -0.392,-0.873 -0.871,-0.873 l -0.28,-0.002 0,-0.28 c 0,-0.763 0.341,-1.484 0.913,-1.97 0.021,-0.02 0.041,-0.039 0.064,-0.054 l -0.704,0 z m 8.863,3.745 -0.208,0.208 C -0.762,3.492 -1.366,3.74 -2.026,3.74 -2.433,3.74 -2.82,3.652 -3.18,3.474 -3.537,3.65 -3.933,3.743 -4.335,3.743 l -0.014,0 c -1.424,0 -2.587,-1.16 -2.587,-2.587 0,-0.663 -0.328,-1.285 -0.866,-1.663 -0.473,0.331 -0.782,0.846 -0.852,1.414 0.646,0.138 1.135,0.717 1.135,1.404 0,0.703 -0.509,1.291 -1.178,1.414 -0.123,0.669 -0.711,1.178 -1.414,1.178 -0.705,0 -1.291,-0.509 -1.413,-1.178 -0.67,-0.123 -1.178,-0.711 -1.178,-1.414 0,-0.701 0.502,-1.284 1.167,-1.411 0.054,-0.572 0.298,-1.09 0.667,-1.49 0.054,-0.059 0.108,-0.113 0.165,-0.165 0.461,-0.421 1.072,-0.676 1.743,-0.676 l 2.314,0 c 0.85,0 1.605,0.411 2.078,1.047 0.17,-0.604 0.726,-1.05 1.384,-1.05 0.473,0 0.893,0.229 1.153,0.584 0.263,-0.355 0.683,-0.586 1.158,-0.586 0.792,0 1.436,0.644 1.436,1.436 l 0,1.153 c 0,0.661 -0.249,1.264 -0.66,1.724"
             inkscape:connector-curvature="0"
             id="path106"
             style="fill:#ffffff;fill-opacity:1;fill-rule:nonzero;stroke:none" /></g><g
           id="g108"><g
             id="g110" /><g
             id="g116"><g
               clip-path="url(#clipPath112)"
               id="g118"
               style="opacity:0.19999701"><g
                 transform="translate(13.3741,7.4093)"
                 id="g120"><path
                   d="m 0,0 0,-1.153 c 0,-0.482 -0.392,-0.874 -0.874,-0.874 -0.481,0 -0.873,0.392 -0.874,0.873 l 0,1.153 c 0,0.088 -0.004,0.175 -0.013,0.26 -0.008,0.085 -0.02,0.169 -0.037,0.252 -0.006,0.029 -0.012,0.058 -0.019,0.087 -0.001,0.007 -0.003,0.013 -0.004,0.019 -0.007,0.024 -0.013,0.048 -0.02,0.073 0,0.001 0,0.002 0,0.003 -0.007,0.026 -0.015,0.053 -0.024,0.08 0,0.002 -0.001,0.003 -0.001,0.005 -0.008,0.027 -0.017,0.053 -0.027,0.08 C -1.9,0.879 -1.908,0.9 -1.916,0.921 -1.932,0.964 -1.95,1.006 -1.968,1.048 c -0.026,0.057 -0.053,0.114 -0.083,0.17 -0.069,0.129 -0.15,0.254 -0.242,0.371 -0.065,0.084 -0.136,0.164 -0.212,0.24 -0.038,0.037 -0.076,0.074 -0.116,0.109 0,0 10e-4,0 0.002,0 0.191,0.058 0.389,0.087 0.594,0.087 C -0.908,2.025 0,1.117 0,0"
                   inkscape:connector-curvature="0"
                   id="path122"
                   style="fill:#221f1f;fill-opacity:1;fill-rule:nonzero;stroke:none" /></g></g></g></g></g></g></g></svg>