<?xml version="1.0" encoding="utf-8"?>
<!-- Generator: Adobe Illustrator 21.0.0, SVG Export Plug-In . SVG Version: 6.00 Build 0)  -->
<svg version="1.1" id="Layer_1" xmlns="http://www.w3.org/2000/svg" xmlns:xlink="http://www.w3.org/1999/xlink" x="0px" y="0px"
	 viewBox="0 0 60 60" style="enable-background:new 0 0 60 60;" xml:space="preserve">
<style type="text/css">
	.st0{fill:#584A9C;}
</style>
<g id="dribbble_1_">
	<g id="dribbble">
		<g>
			<path class="st0" d="M59.4,24c-0.4-1.9-1-3.8-1.7-5.6c-0.8-1.8-1.7-3.5-2.8-5.1c-1.1-1.6-2.3-3.1-3.7-4.4
				c-1.4-1.4-2.8-2.6-4.4-3.7c-1.6-1.1-3.3-2-5.1-2.8C39.9,1.6,38,1,36,0.6c-2-0.4-4-0.6-6-0.6c-2,0-4.1,0.2-6,0.6
				c-1.9,0.4-3.8,1-5.6,1.7c-1.8,0.8-3.5,1.7-5.1,2.8c-1.6,1.1-3.1,2.3-4.4,3.7c-1.4,1.4-2.6,2.8-3.7,4.4c-1.1,1.6-2,3.3-2.8,5.1
				C1.6,20.1,1,22,0.6,24c-0.4,2-0.6,4-0.6,6c0,2,0.2,4.1,0.6,6c0.4,1.9,1,3.8,1.8,5.6c0.8,1.8,1.7,3.5,2.8,5.1
				c1.1,1.6,2.3,3.1,3.7,4.4c1.4,1.4,2.8,2.6,4.4,3.7c1.6,1.1,3.3,2,5.1,2.8c1.8,0.8,3.7,1.4,5.6,1.7c2,0.4,4,0.6,6,0.6
				c2,0,4.1-0.2,6-0.6c1.9-0.4,3.8-1,5.6-1.7c1.8-0.8,3.5-1.7,5.1-2.8c1.6-1.1,3.1-2.3,4.4-3.7c1.4-1.4,2.6-2.8,3.7-4.4
				c1.1-1.6,2-3.3,2.8-5.1c0.8-1.8,1.4-3.7,1.7-5.6c0.4-2,0.6-4,0.6-6C60,28,59.8,25.9,59.4,24z M30,4.4c6.5,0,12.4,2.4,16.9,6.4
				c-0.1,0.1-3.7,5.7-13.4,9.3C29.2,12,24.3,5.6,24,5.1C25.9,4.6,27.9,4.4,30,4.4z M23.9,5.1C23.9,5.1,23.9,5.1,23.9,5.1
				C23.9,5.1,23.8,5.1,23.9,5.1C23.8,5.1,23.8,5.1,23.9,5.1z M19.1,6.8c0.3,0.5,5.1,6.9,9.5,14.8c-12.3,3.3-23,3.1-23.7,3.1
				C6.6,16.8,11.9,10.2,19.1,6.8z M10.9,47.1C6.9,42.6,4.4,36.6,4.4,30c0-0.3,0-0.5,0-0.8c0.5,0,13.1,0.3,26.3-3.7
				c0.7,1.4,1.4,2.9,2.1,4.4c-0.3,0.1-0.7,0.2-1,0.3C17.9,34.7,10.9,47.1,10.9,47.1C10.9,47.1,10.9,47.1,10.9,47.1z M30,55.6
				c-5.9,0-11.4-2-15.7-5.4c0,0,0,0,0,0S14,50,13.7,49.7c0.2,0.2,0.4,0.3,0.6,0.4c0.1-0.2,5.1-10.8,20.1-16c0.1,0,0.1,0,0.2-0.1
				c3.6,9.4,5.1,17.2,5.5,19.5C36.9,54.9,33.5,55.6,30,55.6z M44.3,51.3c-0.3-1.5-1.6-9.1-5-18.3c8.3-1.3,15.4,0.9,16,1.1
				C54.2,41.2,50.1,47.4,44.3,51.3z M37.8,28.9c-0.2-0.4-0.4-0.9-0.6-1.3c-0.5-1.3-1.1-2.5-1.7-3.7c10.1-4.1,14.2-10.1,14.3-10.1
				c3.6,4.4,5.8,9.9,5.8,16C55.2,29.7,46.6,27.8,37.8,28.9z"/>
		</g>
	</g>
</g>
</svg>
