<?xml version="1.0" encoding="utf-8"?>
<!-- Generator: Adobe Illustrator 21.0.0, SVG Export Plug-In . SVG Version: 6.00 Build 0)  -->
<svg version="1.1" id="Layer_1" xmlns="http://www.w3.org/2000/svg" xmlns:xlink="http://www.w3.org/1999/xlink" x="0px" y="0px"
	 viewBox="0 0 60 60" style="enable-background:new 0 0 60 60;" xml:space="preserve">
<style type="text/css">
	.st0{fill:#584A9C;}
</style>
<g id="MAIL_2_">
	<g id="MAIL_3_">
		<g>
			<path class="st0" d="M59.1,10.1c-0.5-0.4-1.2-0.7-1.9-0.7H2.8c-0.7,0-1.4,0.3-1.9,0.7L30,32.8L59.1,10.1z M0.8,10.2
				c-0.5,0.5-0.8,1.2-0.8,2v35.6c0,0.7,0.3,1.4,0.8,1.9l18.3-21.8L0.8,10.2z M30,38.4L22.4,31L0.9,49.9c0.5,0.5,1.2,0.8,1.9,0.8
				h54.4c0.7,0,1.4-0.3,1.9-0.8L37.6,31L30,38.4z M59.2,10.2L40.9,27.9l18.3,21.8c0.5-0.5,0.8-1.2,0.8-1.9V12.2
				C60,11.4,59.7,10.7,59.2,10.2z"/>
		</g>
	</g>
</g>
</svg>
