<?xml version="1.0" encoding="utf-8"?>
<!-- Generator: Adobe Illustrator 21.0.0, SVG Export Plug-In . SVG Version: 6.00 Build 0)  -->
<svg version="1.1" id="Layer_1" xmlns="http://www.w3.org/2000/svg" xmlns:xlink="http://www.w3.org/1999/xlink" x="0px" y="0px"
	 viewBox="0 0 60 60" style="enable-background:new 0 0 60 60;" xml:space="preserve">
<style type="text/css">
	.st0{fill:#584A9C;}
</style>
<g id="twitter_1_">
	<g id="twitter">
		<g>
			<g>
				<path class="st0" d="M51.1,14.7L51.1,14.7c0.5-0.2,0.9-0.6,1.2-0.9c1.7-1.3,2.8-3.1,3.7-5.3c-0.5,0.3-0.9,0.5-1.4,0.8
					c-1.4,0.7-3.9,1.8-5.8,1.9c-2.2-2-4.5-3.6-8.9-3.5c-0.5,0.1-0.9,0.1-1.4,0.2C37.6,8,36.8,8.3,36,8.6c-3.2,1.4-5.4,4-6.4,7.6
					c-0.4,1.4-0.6,3.8-0.1,5.3c-1.8,0-3.6-0.3-5.1-0.7c-6-1.5-9.7-3.4-13.8-6.7c-1.2-0.9-2.4-2-3.4-3.2c-0.3-0.4-0.8-0.7-1-1.2
					c0,0,0,0-0.1,0c-0.5,0.9-0.9,1.8-1.2,2.9C4,17,5.7,20.6,7.6,22.9c0.6,0.7,1.5,1.1,2.1,1.8h0.1c-0.4,0.2-1.2-0.1-1.5-0.1
					c-0.9-0.2-1.6-0.3-2.4-0.7c-0.4-0.2-0.8-0.4-1.2-0.5c0,4.7,2.4,7.8,5.3,9.7c1,0.6,2.3,1.4,3.7,1.5c-0.7,0.6-3.9,0.3-5,0.2
					c1.4,3.6,3.5,5.9,7.2,7.2c0.9,0.3,2.1,0.6,3.4,0.6c-0.7,0.8-2.1,1.4-3.1,2c-2,1.1-4.2,1.9-6.8,2.4c-1,0.2-2.1,0.2-3.2,0.4
					c-1.2,0.2-2.5-0.1-3.6-0.1c0.3,0.2,0.7,0.4,1,0.6c1,0.6,2.1,1.1,3.2,1.6c2,0.9,4.2,1.6,6.6,2.2c4.9,1.2,11.7,0.7,16-0.7
					C41.1,47.3,48.6,38.7,51.4,26c0.5-2.2,0.6-4.7,0.5-7.2c0.6-0.5,1.2-0.9,1.8-1.4c1.5-1.2,2.8-2.8,3.8-4.4v0
					C55.6,13.6,53.6,14.7,51.1,14.7z"/>
			</g>
		</g>
	</g>
</g>
</svg>
