<?xml version="1.0" encoding="utf-8"?>
<!-- Generator: Adobe Illustrator 21.0.0, SVG Export Plug-In . SVG Version: 6.00 Build 0)  -->
<svg version="1.1" id="Layer_1" xmlns="http://www.w3.org/2000/svg" xmlns:xlink="http://www.w3.org/1999/xlink" x="0px" y="0px"
	 viewBox="0 0 600 300" style="enable-background:new 0 0 600 300;" xml:space="preserve">
<style type="text/css">
	.st0{fill:#9E95C6;}
	.st1{opacity:0.2;}
	.st2{opacity:0.2;fill:#9E95C6;}
	.st3{opacity:0.35;fill:#9E95C6;}
</style>
<g>
	<g>
		<path class="st0" d="M331.3,99c0,0.1,0.1,0.3,0.1,0.4C331.4,99.2,331.4,99.1,331.3,99z"/>
		<path class="st0" d="M351.4,120.2c-0.2,0.1-0.4,0.2-0.6,0.4C351,120.5,351.2,120.3,351.4,120.2z"/>
		<path class="st0" d="M362.4,143.5c-0.4-0.1,0-1.9-0.2-3.3c0.1,0,0.1-5.6,0.1-4.1l0.1,0c-0.4-0.8-0.6-1.7-0.7-2.6
			c0.2,0,0.3,0.2,0.5,0.7c-0.1-0.8-0.4-1.3-0.5-2l0.3,0.2c-0.2-1.2-0.8-2.4-1-4.1c-0.3,0-0.3,1.4-1-0.2c0.1-0.1,0.3-0.2,0.5,0.2
			c-0.1-0.1-0.3-0.5-0.3-0.8l0.4,0.6c-0.1-0.7-0.3-0.3-0.4-0.9c0.2,0,0-0.5,0.2-0.4c0.1,0.1,0.1,0.5,0.2,0.7
			c-0.1-0.7-0.3-1.5-0.2-1.8c-0.4,0.3-0.6-2.7-1.2-2.6c-0.1-0.3,0-0.5,0-0.6c-0.4-0.6-1-1.8-1.2-1.8c-1.1-1.9-1.8-4.1-3-5.9l0.1,0
			c-0.2-0.2-2.4-3.7-2.4-3.7c-0.6-0.7-0.8-0.8-1.5-2c0.7,0.7-0.1-0.4,0.7,0.7c-0.7-1.1-0.8-1.4-1.9-2.2c0.5,0.2-0.4-1-0.9-1.3
			c0.2,0.3,0.3,0.5,0.5,0.8c-0.5-0.5-0.9-0.9-1.3-1.4l0.5,0c-1.3-1.8-3.7-2.6-4.9-4.5c-0.2-0.1,0.5,0.9,0.3,0.8
			c-1.6-1.5-3-2.4-4.7-3.7c-0.5-0.9-2,0.2-1-0.6c0.3,0.2,0.8,0.4,0.5,0l-0.2,0c-0.4-0.4-1.9-1.3-1.4-1.2c-0.8-0.3-0.4,0,0.1,0.4
			c-1.3-0.9-2.1-1.2-3.4-2c0.5,0.4-4.8-1.9-3.1-1.6c-1.4-0.4-2.5-1.1-3.2-1.4l0.8,0.2c-0.5-0.1-0.8-0.2-1.2-0.4l0.3,0.4
			c-0.4-0.2-0.8-0.3-0.7-0.4c-1,0-2.2,0.6-3.4-0.5c3,0.9-0.7-0.6,2.1,0.2c-2-0.3-2.5-0.5-1.6-0.6c-0.4-0.2-0.8-0.3-1.2-0.4
			c-0.3,1.1-0.1,2.3-0.3,3.5c-0.1-0.3-0.4,0.4-0.4,0.7c0.2-0.9,0.2,1.8,0.1,2.3l0.2-0.7c0.1,0.3,0,0.8,0,1.7c-0.2,0.1-1.4,4.9-1,6.6
			c0.2-0.5,0.1-0.5,0.5,0.5c-0.2-0.9-0.3-1.7-0.3-2.6c0.1,0.5,0.2,1.1,0.4,1.6c-0.1-0.8-0.2-1.6-0.2-2.1c0.2,0.8,0.1,0.7,0.3,0.3
			c-0.4,1,0.2,2,0.2,3.2l-0.6,0.1c0.1,2.6,2.6,3.1,4.5,3.8c-0.4-0.3-0.4-0.4-0.6-0.5c0.5-0.2,2.6,1.9,2.2,1.7c0,0.3,0.5,0.8,0.8,1.1
			c0.3,0.1,0.5,0.1,0.8,0.2c-0.3,0.2-0.6,0.4-0.8,0.5l0-0.2c-1.1,0.9-2.1,1.9-3,3l0.2-0.1c-0.5,1.1-0.8,0.6-1.3,1.6l-0.5,0
			c-0.7,1.1-1.4,2.3-2.1,3.5c0.3-1.1,0.8-2.2,1.5-3.1c-0.5,0.6-1.6,1.7-1.7,2.5c0.1-0.4,0.3-0.8,0.6-1c-0.8,1.3-0.8,2.6-0.1,3.9
			c-0.5,0.1,2.2,3.4,1.5,3.5c-0.4,2.7-7.1,2.8-2.5,7c-0.5-1.3,0.7,0.7,1,0c0.8,0.5,1.9,1.1,2.9,0.5c-0.4,0.5-0.8,1-1.2,1.4
			c-0.3,0-1,1.2-1.3,1.8c0.3,0.1-0.2,0.8,0.4,0.2c0.1-0.3,0.2-0.5,0.3-0.8c0,0,0,0,0,0.1c0.2-0.4,0.5-0.8,0.9-1.4
			c-0.2,0.5-0.4,1-0.9,1.6c0,0.4,0,0.8,0,1c-0.8,0.6-1.5,2.2-1.8,2.4c-0.4,2.3,0.5,4.7,0,6.8c-0.1-0.3-0.1-0.7-0.2-0.9
			c0.2,1.1,0.7,3.3,1.2,3.4c0.4,1.4-0.7-0.6,0.2,1.2l-0.2-0.2c1.4,3.6,5.1,4.6,8.7,4.6c-0.1,0-0.1,0-0.1,0c5.6-0.4,10-3.5,15,0.4
			l-0.1,0.4c2.1,1.2,2,4.2,3,6.1l0.1-0.4c0.2,0.8,0.9,2.6,0.6,2.5c0.1,0.1,0.3,0.2,0.3,0.6l-0.1,0.1c1,2.2,1.2,6.2,2.5,5.1
			c0.2,0.2,0.4,0.4,0.5,0.6c1.5-0.5,0.1-2-0.5-2.7l0-0.5c0.1,0.3,0.3,0.7,0.5,1c-0.1-0.6-0.4-0.9-0.7-1.3c0.2-0.7-0.1-1.3-0.8-1.8
			c0.1-0.2,0.1-1-0.5-2c0.1-0.1,0.2,0,0.3,0.3c-0.3-0.6-0.6-1.8-0.9-2.1c0.1-0.8-0.9-2.3-0.4-2.4c-0.4-0.5-0.8-1.1-1.1-1.7
			c0.5,0.5-0.9-2.3-0.7-2.3c-1.7-1.1-2.2-2.4-4.5-3c0.1,0,0.3,0,0.4,0.1c-0.6-0.3-1.2-0.6-1.8-0.8c-0.8,0.3-1.6,0.4-2.4,0.5
			c-1.2-0.4,0.7-0.4,0.4-0.8c-0.6,0.1-1.1,0.3-1.6,0.6c-0.9-0.2-0.8,0-1.3-0.3c-0.1,0.9-2.7,1.2-2.7,0.4c-1.5,0.5-1.9,1.5-4.1,1.6
			c-0.1-0.1-0.2-0.1,0-0.2c-0.4,0.2-3.6,0.1-3.7-0.6c0.1,0.3,0,0.4-0.1,0.5c-0.5-0.3-1-0.4-1.1-0.7c0.3,0.2,0.4,0.1,0.5,0.2
			c-0.2-0.1-0.4-0.2-0.5-0.2c0.3-0.1,0.6-0.1,0.9,0.1c-0.9-0.5-2.1-1-2.4-2.1c0.1-0.3,1.3,1.5,0.8,0.5c0.2,0.4,0.5,0.7,0.8,1
			c-0.6-1.8-3.6-5.6-2.8-9.1l0.4,0.5c0.1-1.2-0.3-1.6,0.2-2.8c0.3,1.9-0.1,0.4,0.1-0.6l0.4-0.1c0.5-1.7,1.3-3.6,2.7-5.1
			c0.3-2.5,6.6-0.8,8.2-0.9c-0.3-0.1,1.4,0,1,0.1c2.7-0.1,4.7-1.4,7.3-1.8l-0.3,0.2c1.3-0.4,1.3-1.1,2.7-1.2l-0.2,0.1
			c2.3-0.6,8-3,6.5-6.5c-0.4-1-4.2-2.7-4.4-1c-0.3,0-3.1,0.1-2.8-1l0.3,0.1c-0.1-0.1,0-0.4,0.2-0.7c0.2,0,0.4,0,0.6,0.1
			c0.2-0.1,0.4-0.2,0.6-0.3c-0.3,0.1-0.6,0.1-0.6,0c0.9-0.6,2.8-0.7,2.9-0.5c1.1-0.4,2.5-0.8,3.4-1.7c0,0.1-0.2,0.3-0.5,0.6
			c0.7-0.5,1.2-0.4,1.5-1.4c-0.2,0.3-0.1-0.2-0.2-0.2c0.9-1.9-1.9-3.2-3.3-3.4l0.3-0.1c-2.8-0.7-5.8,0.9-7.6,3
			c0.8-0.7,0.9-0.2,0.3,0.4l-0.5,0c0-0.1-1,1.6-0.3,0.2c-0.2,0.4-0.4,0.8-0.6,1.2c-0.1,0,0-0.3-0.1-0.4c0-0.1-1,1.6-0.6,2l-0.1-0.1
			c0.2,0.3,0.2,0.4-0.1,0.4c0.1,0.5,0,0.3-0.2,0.4c-1.3-2.2-4-2.1-5.8-1.3c-0.3-0.3-2,0.7-1.5,0.2c-0.6,0.4-0.6,1-0.3,1.9
			c-2-2-4.7,0.4-5.4,2.4l0.1-0.1c-0.2,1-0.5,2-1.1,2.8c0-0.9-1.6,3.4-2.3,4c-1-2.1-3.2-2,0.7-3.4l-0.2-0.1c0.5-0.3,1-0.7,1.5-1
			c2.2-0.5-2.5-4.9-2.5-6.6c0-2,6-7.3,7.3-7.6c-0.2,0.2-0.3,0.4-0.4,0.6c3.3-2.3,8.7-6.7,4.6-10.9c0.2,0.2,0.3,0.1,0.6,0.4
			c-0.6-1.7-2.1-1.3-2.5-2.1c-0.5-0.7-1.4-2.6-1.3-2.4c-0.4-1.1-0.1-2.6,0-3.7c0.6,0.2,1.1,0.4,1.7,0.8c-0.8,0.1,0.6,0.5,0.6,0.9
			c0.4,0.1,0.8,0.3,1.1,0.5l-0.3-0.4c0.9,0.5,1.9,0.8,2.7,1.4c-0.3-0.1-0.5-0.2-0.8-0.3c0.6,0.3,1.2,0.7,1.8,1l-0.9-0.7
			c1,0.4,0.1-0.5,1.3,0.4c-0.3-0.1,0.9,0.6,1.3,1.1l0,0c1.6,0.3,2.1,0.7,1.3,1.4c0.6,0,2,1.5,2.8,1.7c-0.2-0.1-0.4,0.1-0.3,0.1
			c0.5-0.1,0.7,0.1,0.7,0.6c1.1,1.1,0-0.7,1.2,0.7c-0.1-0.1-0.1,0-0.3-0.2c1.3,1.1,2.5,2.4,3.7,3.7c-0.3-0.1-0.6-0.3-0.9-0.4
			c1.6,1.6,3.6,3.5,4.8,5.5l-0.2-0.4c0.6,0,0.8,1.6,1.6,2.4c-0.2-0.2-0.4-0.2-0.4-0.1c1,1.6,2,3.2,3,4.8l-0.3-0.2
			c0.1,0.4,1.7,3.7,1.8,3.6c0.3,2.9,2.3,5.4,2.2,8.5c-0.3-1.5,0.3,1.6,0.3,1.8c0.2-0.2,0.1-0.3,0.2-0.9c0.2,0.3,0.4,0.9,0.5,1.5
			c-0.3-1-0.4,0.1-0.4,0.5c0.1-0.1,0.2,0.1,0.2,0c-0.2,1.3,0.5,0.1,0.4,1.9l-0.1-0.1c0.1,0.6,0.3,1.2,0.4,1.9
			c-0.2,0.3-0.2-0.7-0.4-0.7c0.1,0.9,0.6,1.9,0.4,2.7c-0.1-0.4-0.1-1-0.2-1.4c-0.3,1.1-0.2,2.2-0.4,3.3l0.1-0.4
			c0.6,1.2,0.1,2.4,0.4,4.1c-0.3-1.6-0.2-0.3-0.5-0.4c-0.1,0.4-0.3,1-0.3,0.8c0.2,0.8-0.3,1.2-0.1,2.3c-0.1,0-0.1,0.8-0.3,0.6
			c-0.1,1,0.2-0.2,0.3-0.1c0.1,2.3-2.1,9-1.9,9.1c-0.4,0.9-0.7,1.5-0.9,2.4c0-0.3-0.8,1.7-0.7,1.6c0-0.2-0.1-0.5-0.1-0.8
			c-0.2,0.8-0.5,1.6-0.8,2.5c-0.3,0.1,0-0.6,0-0.9c-0.4,0.9-0.7,1.8-0.9,2.8l0.4-0.5c0,0-0.2-1.3,0.5-1.3l-0.2,0.6
			c0.8-0.3,1.1-2.3,1.5-3.5l0.2,0.7c0-0.6,0.8-2.1,0.5-1c0,0,0.7-1.5,0.7-1.4l0.2-0.9c0,0.2,0.3,0,0.1,0.5c0.8-1.5,0.6-2.6,1-3.1
			l0,0.1c0.5-2.2-0.2-0.3-0.1-2c0.4-0.3,0.7-0.6,1-0.9l-0.3-0.3c0.1-0.2,0.2-0.7,0.3-0.6c0-0.5-0.2-3.3,0.7-3.6
			c-0.2-0.4-0.3,1-0.3-0.2c0.6-0.3,0.1-1.4,0.4-2.3c0.2,0.3,0,1.3,0.3,0.3C361.8,145.7,362.5,144.3,362.4,143.5z M323.2,135.7
			C323.2,135.7,323.2,135.7,323.2,135.7c-0.1-0.2,0.1-0.5,0.4-0.7C323.5,135.2,323.4,135.4,323.2,135.7z M326.3,134.7
			c-0.1,0.1-0.1,0.2-0.2,0.2C326.2,134.9,326.2,134.8,326.3,134.7z M326.3,134.7c0.1-0.1,0.1-0.2,0.2-0.2l0,0
			C326.5,134.5,326.4,134.6,326.3,134.7z M327.6,133.5c-0.1,0-0.1-0.2,0.1-0.3c-0.1,0.1,0.4-0.1,0.8-0.3
			C328.2,133.1,327.9,133.3,327.6,133.5z M343.5,120.2c1-1.3,3.2-2.8,4.9-2.6c-0.6-0.1,2-0.6,1.3,0c0,0,0,0-0.1,0
			c0,0.2,0,0.4-0.1,0.6c0.2,0.1,0.4,0.2,0.6,0.3c-2.6,0.4-5.9,1-7.5,3.4C342.7,121.2,342.9,120.7,343.5,120.2z M334.2,126.5
			C334.2,126.5,334.2,126.5,334.2,126.5C334.2,126.5,334.2,126.5,334.2,126.5C334.2,126.5,334.2,126.5,334.2,126.5z M334.7,126.8
			C334.7,126.8,334.7,126.8,334.7,126.8L334.7,126.8z M334.7,126.7C334.7,126.7,334.7,126.6,334.7,126.7
			C334.7,126.6,334.7,126.7,334.7,126.7C334.7,126.7,334.7,126.7,334.7,126.7z M328.5,128l-0.1,0.7c0.6-1.4,1.3-2.8,2-4.1
			c0.1,0,0.2,0.1,0.2,0.2c0.7-0.5,6.1,6.9,5.4,0.7c0.1,0.1,0.1,0.1,0.2,0.2c-0.2-0.7-0.6-0.9-0.7-1.6c0.6,0-0.6-0.9-0.6-1.2
			c0.1,0.1,0.2,0.1,0.3,0.1c0.1-1,1.8-1,2.6-0.7c-0.2,0.4,2.4,3.6,2.5,3.7l0,0.1c1.6,1.7,3.2,1,3.1-1.3c0.2,0.1,0.4,0.3,0.6,0.3
			l-0.2,0.2c1.5,0.8,3.9,0.3,5.4-0.2c0,0.1-0.1,0.1-0.1,0.2c-0.1,0,0.9-0.8,1-0.1c-0.1,0.1-0.3,0.2-0.4,0.2c0.1,1.9-2.2,2.6-3.6,3.2
			c0-0.1,0-0.2,0.4-0.3c1.5-0.5-4.1,0.9-3.5,1.3c-0.2-0.5-4,1.9-3.2,1.4l0.1-0.3c-0.7,0.6-1.7,0.8-1.9,0.8c-1-0.1-0.8,0.3-2.1,0.1
			c0.2,0,0.3-0.1,0.5-0.1c-1-0.1-3.4,0.5-3.9-0.6c-0.2,0.1-0.8,0.2-1.6,0.1c-0.1-0.1,0.2-0.1,0.3-0.2c-1.7-0.2-3.1,0.3-4.4,1.4
			c0,0,0,0,0,0c0.1-0.1,0.2-0.2,0.3-0.4c0,0,0,0,0,0c0.6-0.5,1.3-0.9,2.1-1.1c-0.1-0.4-1.9,0.4-0.5-0.5c-0.6,0.3-1.1,0.8-1.6,1.3
			c0.1-0.3,0.3-0.7,0.5-1.1c-0.3,0.3-0.5,0.7-0.8,1.1C327.3,129.5,327.9,130.1,328.5,128z M334.9,126.1
			C334.9,126.1,334.9,126.1,334.9,126.1C334.9,126.1,334.9,126.1,334.9,126.1z M325.9,132.7c-0.2,0.4-0.6,0.7-1,0.8
			C325,133.4,325.9,132.7,325.9,132.7z M332,102.6c0.5,0.6-0.6-0.1-0.5,0c-0.2,0.4,2.1,2.6,2.1,2.4l-0.2-0.2c0.4,1,0.9,1.6,0.4,2.9
			c0,0,0-0.1-0.1,0c-0.2,1.5-0.9,2.6-2.2,3.5c0.2-0.5,0.4-0.5,0.1-0.5c-0.4,0.3-1.2,2.1-2.2,1.2c0.4-0.2,0.7-0.3,1-0.5
			c-0.2,0-0.3,0-0.4,0.1c1.3-0.9-0.8-4.5-1-5.2c0.7,0.9,0.2-0.5,0.9,1.2c-0.1-0.6-0.3-1.1-0.6-1.5c0-0.8-0.8-2.4-1-2.9
			c-0.1,0-0.3-1-0.4-0.4c0-0.2,0.9-4.9,1.5-3.6c-0.2,0.2,0.5,1.8,0.5,1.9c-0.1,0-0.1,0.1-0.1-0.1C330.1,101.6,331.3,102.1,332,102.6
			z M330.5,95.4c-1-0.1-0.2-0.1-0.5-0.2c-1.1,0.4-4.6,3.1-3.4,4.8c-0.6-0.6,0.7,4.9,0.2,4.1c-0.2-0.3,0.1,0.8-0.2,0.5
			c0.3,1,0.7,1.9,0.8,1.7c0,0.5,0.7,1.9,0.1,1.2c0-0.2-3.5-0.6-3.7-1.3c-0.1,0,1.9,0.9,1.8,0.4c-2.5-0.4-2.1-3.7-2-3.3
			c-0.3-2.4,0.3-4.8,0.4-7.1c0,0,0,0.3,0,0.5c0.1-0.4,0.2-1,0-1c-0.7,1.2,0-1.2-0.5-1.5c0.2,0.4,0.4-1.3,1-0.4
			c0-0.1-0.1-0.3-0.2-0.5c0.1-0.2,0.1-0.1,0.2,0.2c-0.1-0.5,1-0.2,1-0.1c0,0.1-0.4,0-0.5,0.1c0.9,0,1.8,0.1,2.6,0.5
			c-0.1,0,0,0.2-0.3,0c1,0.3,2.1,0.6,3.1,0.9C330.5,95.1,330.4,95.2,330.5,95.4z"/>
		<path class="st0" d="M331.5,154.7c-0.1,0-0.3,0-0.4,0C331.2,154.7,331.3,154.7,331.5,154.7z"/>
	</g>
	<path class="st0" d="M301.9,174.8c-0.5-1-1.9-2.3-3.2-3.1c0-0.1-0.1-0.2,0.1-0.1c-1.1-0.3-2-1.2-3.1-1.6c0-0.1,0-0.1,0-0.1
		c0,0.2-0.1,0.4-0.2,0.5c-0.4-0.3-0.8-0.4-0.8-0.7c0.2,0.2,0.3,0.2,0.4,0.2c-0.1-0.1-0.3-0.2-0.4-0.3c-0.1-0.6,0.6,0.4,0.7,0.2
		c-0.8-0.5-1.7-1.1-2.1-1.8c0.2-0.3,1.2,1.2,0.8,0.3c0.2,0.3,0.4,0.6,0.7,0.9c-0.5-2.3-3.9-4.3-5.2-6.8l0.6,0.1
		c-1-1.2-1-0.3-1.9-1.7c1.5,0.4,0.4,0.5-0.5-0.4l0.1-0.4c-1.3-1.1-3-1.9-4.8-2.5c-0.3,0.1-6.2-2.4-7.7-2.2c0.2,0.1-1.2,0-0.7-0.1
		c-1.9,0-3.7-0.4-5.4-1.2l0.3,0c-1.2-0.6-2.2-0.2-3.3-0.9l0.3,0.1c-1.5-0.7-3.3-1.5-5-2.3c0.1,1.1,4.4,7.7,4.9,4.9
		c-0.2-0.1-0.5-0.1-0.6,0c-1.3-1.1-2-2-3.6-2.6l0.2-0.2c-0.2,0-0.3,0-0.4-0.2l0.3-0.6l-0.2-0.6c0,0.3,0,0.6-0.1,0.5
		c-0.4-0.9-0.2-2.4-0.1-2.5c-0.2-0.8-0.4-1.5-0.6-2.3c0.1,0,0.2,0.4,0.3,0.7c-0.5-1.2,0.3-0.3-0.1-1.4c-0.1,0.2-0.2-0.1-0.3-0.1
		c0.1-0.6,0-1.9-0.1-2.8l0.2,0.2c-0.1-1.7-0.2-3.7-0.1-5.6c-0.1,0.7-0.5,0.5-0.5-0.1l0.3-0.2c-0.1-0.2,0-1.1,0.1-0.2l-0.1-0.9
		c0.1,0,0.1,0.2,0.3,0.2c-0.2-0.4,0.5-1.5,0.2-2l0.1,0c0.3-1.9,0.3-2.8,0.6-4.4c-0.8-0.3,1-4.9,1-5.7c0.3,0,0.7-1.3,0.6-0.6
		c0.2-0.6,0.4-1.1,0.5-1.7c0.1-0.1,0.2,0,0.4,0.1c-0.1-0.2-0.2-0.3-0.1-0.4c0.2,0.1,0.4,0.4,0.3,0.5l-0.1,0c2.6,0.7,3.7,5,7.3,3.3
		l-0.1,0.1c0.1,0,2.8-1.8,2.6-1.8c0,0.2-0.1,0.4-0.2,0.6c0.1-2.2,1.1-3.5,0.5-6.1c0.8-1.4,0.8-2.9,3.1-1.8l-0.1-0.2
		c0.5-0.1,0.5,0.2,0.8,0.3c0,0.2,11.4,2,8.8,7.2l-0.2-0.6c0,0.1-0.9,5.5-2,6c-0.3,1.3,0.5-0.2,0.4-1.3c-0.7,1-1.7,2.4-2,3.5
		c0-0.2-0.1-0.3,0.1-0.6c-0.6,0.8-0.8,1.7-0.7,2.6c-0.1,0.6-0.6,2.6-0.6,2.2c0.1,0.5-0.1,2.1,0.2,1.7c0.1-1-0.2,5.1,0.5,5.3
		c-0.5,0-0.2,2-0.1,2.6c-0.1-0.2-0.2,0.5-0.4,0.3c0,0.3-0.1,0.6,0,0.6c0,0.1,0.1,0.2,0.2,0.2c-0.8,0.1-2.1,0.5-2.8-0.1
		c-2.2,0.1-5.3-0.1-7.3,1.2c-0.3-0.7,2.7-0.8,2.5-1.3c-2.4,0.5-4.6,4.1-4.6,3.8c-0.3,2.6,1.2,6.2,4.3,4.4c0,0-0.2,0.2-0.4,0.3
		c0.4-0.2,0.9-0.3,0.8-0.5c-1.3,0.2,0.8-0.6,0.7-1.2c-0.3,0.8,1.7-0.6,1.1,0.5c0.2-0.1,0.4-0.3,0.3-0.4c0.3-0.1,0.4,0,0.2,0.2
		c0.4-0.4,1-0.5,1.5-0.6c0,0.1-0.2,0.1-0.3,0.2c0.6-0.3,1.1-0.2,1.6,0.3c-0.1,0,0,0.1-0.3,0c1.3,0.8,2.4,1.4,3.6,2.9
		c-0.7-0.1,0.4,0.6,0.2,0.9c0.3,0.2,0.6,0.4,1,0.6c-0.1-0.1-0.2-0.3-0.3-0.4c0.8,0.5,1.7,0.9,2.7,1c-0.3,0.1-0.6,0-0.9,0
		c0.8,0.3,1.5,0.2,2.2-0.3c-0.4,0.2-0.8,0.3-1.2,0.2c0.3-0.1,0.8-0.6,1.1-0.8c-0.2,0.2,0.8-0.5,1.2-0.7l0,0c0.5-1.3,0.9-1.6,1.4-0.8
		c0.1-0.6,1.4-1.4,1.7-1.9c-0.1,0.2,0,0.3,0.1,0.3l0.2-0.4c0.4-0.1,0.4-0.1,0.4,0.1c1.2-0.3-0.8-0.5,0.9-0.5c-0.1,0-0.1,0.1-0.3,0.1
		c1.4-0.2,2.8-0.2,4.1-0.2c-0.2,0.1-0.5,0.3-0.7,0.4c2-0.2,3.9-0.2,5.9-0.1l-0.3-0.1c0.3-0.5,1.4,0.4,2.3,0.3
		c-0.2,0-0.3,0.3-0.3,0.2c1.3,0.3,2.6,0.2,4.6,0.5l-0.3,0.1c-7.1-2.7,3.9,1.7,3.2,0.7c1.4,1.1,5,1.7,4.3,4.2c-0.3-1-0.3-0.5-0.1,1.4
		c0.3-0.1,0.2-0.2,0.4-0.6c0.1,0.3,0.2,0.8,0.1,1.3c0-0.9-0.4,0-0.6,0.3c0.1-0.1,0.1,0.1,0.2,0.1c-0.6,0.9,0.4,0.2-0.1,1.5l-0.1-0.1
		c0,0.5,0,1-0.1,1.6c-0.3,0.2,0-0.6-0.2-0.6c-0.1,0.8,0.2,1.6-0.3,2.2c0-0.3,0.1-0.8,0.1-1.1c-0.5,0.7-0.4,0.8-0.6,1.3l0-0.1
		l-0.4,1.2l0.2-0.3c0.4,1.1-0.4,2-0.2,3.3c-0.1-1.3-0.2-0.3-0.5-0.4c-0.2,0.3-0.4,0.8-0.4,0.6c0.1,0.7-0.4,1-0.3,1.9
		c-0.1,0-0.2,0.6-0.4,0.4c-0.1,0.8,0.2-0.1,0.3,0c0,1.6-1.8,7.6-1.6,7.5c-0.3,0.7-0.4,1.3-0.5,2c-0.1-0.4-0.5,1.6-0.4,1.4
		c-0.1-0.2-0.2-0.4-0.2-0.7c-0.1,0.7-0.1,1.4-0.1,2.1c-0.2,0.1-0.2-0.5-0.2-0.8c-0.1,0.8-0.3,2.1-0.1,2.4l0.2-0.5
		c-0.5-0.1-0.5-0.5,0.2-1.1l-0.1,0.5c0.7-0.4,0.4-2,0.6-3l0.3,0.5l-0.1-1.1c0.2-0.2,0.4-0.3,0.4,0.2c0,0.1,0.5-1.3,0.5-1.2l0.1-0.7
		c0.1,0.2,0.3,0,0.1,0.4c0.6-1.2,0.2-2.1,0.6-2.5l0,0.1c0.3-1.8-0.3-0.2-0.3-1.6l1-0.7l-0.2-0.2c0.1-0.2,0.2-0.5,0.3-0.4
		c0-0.7-0.2,0.1-0.2-0.4c0.5-0.8,0.5-2.4,1-2.5c-0.1-0.4-0.4,0.8-0.3-0.2c0.6-0.1,0.2-1.1,0.6-1.8c0.2,0.3-0.1,1,0.3,0.3
		c-0.3-0.6,0.5-1.5,0.6-2.2c-0.3-0.1,0.2-1.5,0.4-2.7c0.1,0.1,0.7-2.1,1-3.1l0.1,0c-0.3-0.3,0-1.4,0-2.2c0.2,0.1,0.3,0.2,0.3,0.7
		c0.2-0.7,0-1,0-1.7l0.3,0.2c0.1-1.4-0.3-2.5-1-3.7c0,0.7-0.3,0.8-0.9,0.4c0.1-0.1,0.2-0.3,0.5-0.1c-0.1-0.1-0.4-0.2-0.5-0.4
		c0.2,0.1,0.4,0.1,0.6,0.2c-0.4-0.5-0.4-0.1-0.7-0.4c0.1-0.2-0.2-0.3-0.1-0.4c0.1,0,0.3,0.3,0.5,0.4c-0.4-0.4-1-0.9-1.1-1.1
		c0,0.5-2-1.4-2.2-0.7c-0.3-0.1-0.3-0.3-0.4-0.4c-0.8-0.1-1.6-0.4-1.8-0.1c0,0-0.1,0-0.1,0l0,0c-1.7-0.3-3.6-0.9-5.2-1l0-0.1
		c-1.4,0.5-2.6,0.4-3.6-0.4c-0.8,0-0.9,0.1-2-0.1c0.8-0.1-0.3-0.2,0.8-0.1c-1-0.1-1.2-0.3-2.3-0.1c0.4-0.2-0.8-0.3-1.3-0.3l0.7,0.2
		c-0.5,0-1,0-1.5,0l0.3-0.3c-2-0.1-3.9,0.4-5.6,1.4c0.8-1.2-2.2,2.5-3,3c-0.3,0-0.4,1.2-0.6,0.4c0.2-0.1,0.4-0.3,0.1-0.3l0,0.1
		c-0.1,0-0.8-0.2-0.6-0.2c-0.7-0.1-0.1,0.2,0,0.3c-0.8-0.3-1.7-1-2.2-1.6c0.4,0.7-3.4-3.1-1.7-2.1c-1-0.7-1.7-1.7-2.4-2.1
		c0.2,0.1,0.5,0.2,0.7,0.3c-0.4-0.2-0.7-0.3-1.1-0.5l0.3,0.4c-0.3-0.2-0.8-0.4-0.7-0.5c-0.5,0-2,1.1-2.7,0.5c1.3-0.3,0-0.5,1.3-0.6
		c-1.1,0.4-1.5,0.4-1,0.1c-1.3,0.1-0.9,0.6-2.1,1.2c0.1-0.2-0.5-0.1-0.7,0c0.7-0.3-0.8,1-1.3,1.2c0.2,0,0.3-0.1,0.5-0.1
		c-0.2,0.3-0.5,0.4-0.9,0.5c0-0.1,0.4-0.2,0.2-0.2c-1.1,1.2-0.4-3.6-0.4-3.2c-0.3,0.1-0.3,0.2-0.2-0.4c-0.2,0.4-0.2,0.9-0.2,1.5
		c-0.1-0.3-0.2-0.7-0.2-1.1c-0.2,0.5,0,1,0,1.4c-0.2-0.5-0.1-0.5-0.3-0.2c0-0.8,0.2-1.4,0.7-2.1l0.4,0.4c0.9-0.8,2-1.1,3.2-1.1
		l-0.6-0.1c0.2-0.3,1.1-0.1,1.7-0.1c-0.1,0.2,0.3,0.3,0.5,0.4c0-0.2,1.3,0.1,1.5-0.3c1.3,0.4,3.1,0.3,4.2-0.7
		c-0.2,0.4-0.1,0.7-0.7,0.9c0.5-0.1,0.9-0.4,1.1-0.8c0.4-0.7,0.6-1.4,0.6-2.2c-0.5-0.6-0.5-0.9-0.1-0.9c-0.1,0-0.1-0.9-0.4-0.4
		c0.9-2.3-0.1-6.2,0-8.6c0.1,0.1,0.1,0,0.1,0.2c0.1-0.4,0.6-2.6,0.2-1.9c0.4-0.7,0.8-1.5,1.1-2.3l-0.1,0.2c0.2-0.2,0.4-0.5,0.5-0.9
		l-1,0.3c1.2,0.3,1.8-1.1,2.2-1.8c0,0,0,0.1,0.1,0.1c0.1-1,0.6-2.5,0.8-3.7c0.1,0.4,0,0.6,0.3,0.4c0.1-0.4-0.5-2,0.6-2.1l-0.3,1
		c0.5-0.4,0.3-1.3,0.5-1.8l0.1,0.1c0.2-1.2,0-2.5-0.5-3.6l0,0.2c-0.3-0.5-0.6-1-1.1-1.5c0-0.2,0-0.3,0.1-0.5c-1-0.6-2-1-3.2-1.3
		c0.7-0.1,2,0.3,2.8,0.8c-0.5-0.4-2-1.1-2.3-1c0.2,0.1,0.6,0.1,0.8,0.3c-0.8-0.1-1.8-0.3-2.9-0.6c0.2-0.3-4.2-2.6-3.6-1.9
		c-2.5-0.3-6.4-1.4-7,2.3c0.8-1-0.2,0.9,0.5,0.7c0,1.5-0.5,2.2-0.6,2.2c0.1,1.2-0.2,0.6-0.3,1.3c0.2-0.2,0.4,0.4,0.2,1
		c0.1-0.3,0.2-0.5,0.3-0.9c0.3,1.3-0.2,1.1-0.5,1.9c0-0.1,0-0.2,0-0.2c-0.1,0.4-2.7,0.8-2.5,0.8c-0.1-0.1-0.2-0.3,0.1-0.3
		c-2-0.7-4.1-2.5-5.9-3.7c0.1,0,0.1,0,0.2,0c-1-0.5-0.8-0.4-1.3,0.3c0-0.2-1,2.4-1,2.4c0-0.2,0.1-0.5,0.1-0.7
		c-0.8,1.7-0.9,3.4-1.3,5.2c-0.4-0.1-1,1.5-1.3,2.3l-0.1,0c-1.1,4.3-1,9.3-1.3,13.7c0.1-0.4,1,2,0.4,1.9l0-0.2
		c-0.4,0.4-0.1,1.5-0.1,2.4l0.5,0.1c-0.6,2.8,0.8,5.3,1.8,7.6c0.5,0.2,1.1,0.6,1.6,0.8l-0.2,0.2c0.5,0.4,6.3,3.7,5.3,0.3
		c0.4,0.5-0.2,1.4-0.6,1.6c0.6-0.3,0.8-1,0.8-1.6c-0.5-0.2-1.1-0.5-1.5-0.9c0.2,0.1,0.4,0.2,0.7,0.3c-0.2-0.1-0.2-0.2-0.2-0.3
		c0.1,0.2,0.3,0.2,0.4,0c0.1,0.1,0.2,0.3,0.2,0.3c0.3,0.3,0.5,0.3,0.6-0.1c-0.1,0.6,3.1,0.8,2.7,0.7l-0.2,0.2c0.7-0.1,1.8,0,2,0.1
		c0.9,0.3,0.8-0.1,1.8,0.3l-0.4,0.1c0.7,0.2,2.9-0.4,3.3,0.6c0.1-0.1,0.7-0.3,1.2-0.1c0.1,0.1-0.2,0.1-0.3,0.1
		c1.5,0.5,2.3,0.1,3.2,0.7c0,0.1,0,0.2,0.1,0.2c-1.1-0.4-2.1-0.6-2-0.6c0,0.2,0.9,0.5,0,0.7c0.3,0,2.9-0.1,3,0.6l-0.1,0
		c0.4,0.1,0.8,0.3,1.2,0.6c0,0.2,0.9,0.6,1.2,0.9c0.1-0.3,0.6,0.1,0.3-0.4c-0.2-0.1-0.4-0.2-0.5-0.3l0,0c-0.3-0.2-0.6-0.4-1-0.6
		c0.4,0,0.8,0.1,1.2,0.6c0.3,0,0.6,0,0.8,0c0.3,0.7,1.1,1.7,1.1,2c0.7,0.5,3.3,2.6,3.4,3.7c-0.2-0.2-0.3-0.4-0.5-0.5
		c0.6,0.6,1.5,2.1,1.9,2.1c0.5,1-0.7-0.3,0.3,0.9l-0.2-0.1c1.4,2.8,4.8,2.8,6.4,5.2c-0.1-0.2-0.2-0.3-0.2-0.3
		c3.5,3.3,2.7,7.9,4.5,11.8l-0.3,0.3c0.6,1.8,0.3,4,1.2,5.7l0.1-0.3c0.1,0.6,0.3,1.3,0.5,1.9c0.2,0,0.4,0,0.5,0.2
		c0.1,0,0.4-0.2,0.7,0l0,0.2c2.1,0,4.8,1.1,4.6-0.2l0.7-0.1c0.4-1.4-1.2-1.4-2.1-1l-0.4-0.2l0.9,0c-0.5-0.2-0.9-0.1-1.3,0.1
		c-0.3-0.5-1.2-0.1-1.6,0.1c-0.5-0.8,0.2,0-0.6,0c-0.3-0.2,0-0.4-0.4-0.2c0.1-0.1,0.2-0.2,0.3-0.2c-0.3,0.1-0.2-0.4-0.5-0.5
		c0.1-0.6-0.5-1.8,0-1.9c-0.1-0.2-0.5-0.9-0.6-1.4c0.7,0.8-0.3-1.9,0.3-1.8c-0.6-0.6-0.6-2.5-1.2-3.7c0.1,0.1,0.2,0.2,0.1,0.3
		c-0.1-0.7,0-0.9,0-1.4c-0.4,0-0.7-1.1-1.1-1.6c0.1-1,0.6,0.4,0.9,0c-0.3,0.1-0.7-1.4-0.9-1.1c0-0.7-0.1-0.6,0.1-1
		C301.3,177,301.9,174.8,301.9,174.8z"/>
	<path class="st0" d="M348.1,94.4c-0.7-0.5-3.9-2.6-4.4-2.7c-2-0.1-3.4-0.9-4.3-2.3c0.4,1-2.4-0.2-0.7,0c1,0.4-3.6-2.6-2.1-1.5
		c0.5,0.3,0.9,0.5,1.3,0.8c-4.3-5.4-23.6-9.3-31.4-6.9c-0.3,0.4-0.7,0.5-1,0.1c-2,0.4-5.5,1.3-7.6,1.4l0.4-0.2
		c-1.6,0.2-1.6,1-3.1,1.1l0.3-0.1c-7.4,1.7-15,5.6-20.5,9.7c1.3-0.9-5.5,5.2-3.9,3c-3,4-5.8,5.4-9,10c0.5-0.6-0.6,1.3-0.3,0.6
		c-2.6,3.7-7.5,11.5-8.1,17c-0.6,1.9-0.9,3.8-1.2,5.8c0.8-1.5-0.4,0.9-0.1,0.5c-0.2,2.8-1.9,7.1-1.2,10.2l0-0.1
		c1.7,14.9,3.9,26.7,12.4,37.5c2.9,3.1,5.6,6.5,9,8.9c-0.2-0.1-0.3,0-0.6-0.3c-0.1-0.1,5.8,4.4,4.7,3.8c0.5,0.2,2.2,1.5,1.9,0.9
		c0.6,0.5,5.6,3.7,6.3,3.2c-0.3,0.4,2.3,1.5,3.3,1.6c10.8-0.1,13.3,6.2,19.8,4.5c0.7,0,8-0.3,7.4-0.2c0.2,0,3.9-0.5,3.8-0.4
		c0.4-0.5,0.6-0.5,0.8-0.1c2.6-1.2,3.4-1.3,2.2-0.5c2.8-1.3,3.6-1.5,2.5-0.7c2.3-0.6,7.7-2.5,7.9-2.6c1.1-0.5,2-1.1,2.9-1.4
		c-0.2,0.2-0.5,0.3-0.7,0.5c0.7-0.3,1.3-0.7,2-1l-1.2,0.4c1-0.7-0.3-0.4,1.1-1c1.6-0.8,2.2-1,1.7-0.6c2-1.7,2.8,0.3,4.7-2.9
		c-0.6,0.8,2.2-1.4,1.9-1.2c-0.1,0.1,0,0.1-0.3,0.3c7.2-4.6,1.9-0.7,9.4-8.3c-1.1,1.1-0.5,0.4,1.8-2c-0.2,0.4,3.3-4.4,3.5-4.7
		c-0.4,0.2,2-3.3,2.1-3.4c2.4-2.6,2.7-5.9,4.3-8.4c0,0.1,0.1-2,0.4-2.8c0.8-3.9,1.9-5.3,2.4-6.8l0,0.1c0.2-0.6,0.3-1.1,0.5-1.7
		c-0.4,1.2-0.2-4.2-0.1-4c0.5,0.7,0.8,0.6,0.9-0.4c-0.7-3.8-0.3-10.8-0.8-13.2c0-1-0.1-1.8-0.4-2.8c0.1,0.2-0.9-3.3,0.2-1.1
		c-0.1-0.3-1.8-4.1-0.4-1.9c-1.1-3.2-1.4-3.9-1.1-2.2c0.3,0.8,0.7,3.7,0.7,4.3c0.9,1.1,1,1.5,0.2,1.2c0.7,1.3,0.7,1.9,0.1,1.7
		l0.3,0.9c-0.1-0.2-0.3,0.2-0.3-0.4c0.6,3.4,0.7,4.5,0.3,3.2c0.9,6.9,0.2,13.4-2.4,20.7c-0.2,3.1-0.4,3.7-0.6,1.9
		c-0.5,1.5-1.9,6.3-1.8,6.2c-0.1,0.3-0.7,1.7-0.6,0.6c-1.1,2.2-2.8,4.9-3.6,6.7c0,0,0,0.1-0.1,0.1c0,0,0,0,0,0
		c-2.4,3.7-5.5,8.2-9.1,10.8c0.6-0.8-0.4,0.1,0.7-0.8c-1,0.8-1.3,0.9-2.2,2.1c0.2-0.5-1,0.4-1.4,0.9l0.8-0.5
		c-3.3,3-12.7,6.4-14.4,8.5c-0.8,0.5-0.3,0.3,0.4,0.1c-1.5,0.4-2.3,1-3.9,1.4c3.1-0.3-5.1,1.9-3.4,0.9c-1.3,0.7-2.7,0.6-3.5,0.7
		l0.7-0.3c-0.5,0.2-5.4,1.4-2.7,0.8c-1.1,0.4-1.5,0.4-1,0.1c-1.1,0.8-2.3,1-3.4,0.5c-0.4,0.8-1.1,1.1-2.2,0.7
		c0.7-0.1-5.9-0.5-8.3-0.1l2.6,0l-1.7,0.3c0.8,0,1.6,0,2.1,0c-0.8,0.2-0.7,0.1-0.3,0.3c-1.9-0.8-7.1-1-8.9-1.4
		c1.4,0.5-10.7-2.8-8-2.2c-1.1-0.4-4.4-0.7-4.9-1.2c-1.5-1.4-7.9-4.4-9.4-5.7c-3.4-3.1-1.8,0.6-4.7-4l0.3,0.2
		c-6.3-8.8-8.5-7.3-14.5-17.5c0.6,0.6,1.5,2,2.2,2.8c-0.4-0.7-1.3-2.3-1.7-2.6c-2.7-3.8-5.5-16.5-5.5-22.2l-0.2,1.3
		c-0.6-2.2,0.4-2-0.1-4.2l0.2,0.7c-2.1-4-2.1-5.8-0.1-5.4c0.3-3.3,1.2-9.8,1.7-11c2.8-8.5,5.6-17,12.7-23.5
		c5.2-4.1,10.2-9.7,17.2-13.2c0.9-0.5,7.5-3.1,8.7-3.5c3.1-1.1,7.3-2.6,9.5-2.6c2.5-0.6,3.1-0.6,1.8-0.1c1.4-0.1,5.3-0.3,5.5-0.3
		c1.5,0.1,3.2-0.2,4.7,0.3c-2.4-1-3.3-0.9-2.5,0.5c0.9-0.1,3.8-0.1,4.1-0.1c0.7,0.1,4.5,0.5,4,0.3c-0.3,0-0.6-0.1-0.8-0.1
		c0.6-0.2,0-0.3-1.6-0.2c3-0.4,11.3,2.7,11.1,2.7c1.8,0,3.3,0.5,4.5,1.6c1.5,0.7,7.4,3.4,9,4.9c6.8,6.2,23.3,27,22,23.9
		c-0.1-1.4-2.6-5.3-2.4-5.1c-1.5-1.9-2.6-3.9-4-5.8c-1-0.6-3.3-4.8-4.6-5.8c0.1,0,0.3,0.1,0.4,0.3c-1.3-1.6-3.8-2.8-4.1-3.7
		C349.7,96,348.1,94.7,348.1,94.4z M317,82.6c0-0.2,0.3-0.2,0.7,0C317.5,82.6,317.3,82.6,317,82.6z M314.2,82.4
		C316.5,82.5,315,82.6,314.2,82.4z M319.8,84.9c-1.7-0.1,0.2-0.1,0.2-0.1C319.9,84.9,319.9,84.9,319.8,84.9z"/>
</g>
<g class="st1">
	<path class="st0" d="M396,245.9C396.3,244.8,395.7,245.5,396,245.9z"/>
	<path class="st0" d="M394.4,243.4c-0.3,0.6-0.6,1.8-0.4,3c0.2-2.5,0.6-3,1-1.3C395.4,243.5,394.2,245.5,394.4,243.4z"/>
	<path class="st0" d="M370.4,241.4l0.2,0.2C370.5,241.5,370.4,241.4,370.4,241.4z"/>
	<path class="st0" d="M355.5,240.7c0.1,0,0.2-0.2,0.2-0.3C355.6,240.5,355.5,240.5,355.5,240.7z"/>
	<path class="st0" d="M353,239.2c0.1,0,0.1,0.1,0.1,0.1C353.1,239.2,353,239.1,353,239.2z"/>
	<path class="st0" d="M370.4,241.4L370,241C370,241.4,370.2,241.3,370.4,241.4z"/>
	<path class="st0" d="M391,246.6C391.5,246.3,391.1,246.2,391,246.6z"/>
	<path class="st0" d="M376.9,240.3c0.3,0,0.3-0.1,0.2-0.5L376.9,240.3z"/>
	<path class="st0" d="M382,240.1c-0.1,0-0.2,1.1-0.2,1.6C382,241.2,382.1,240.7,382,240.1z"/>
	<path class="st0" d="M389.9,242.1l0.1-0.2C390,242,390,242,389.9,242.1z"/>
	<path class="st0" d="M373.3,240.1c0-0.2,0-0.3,0-0.4C373.3,239.8,373.3,239.9,373.3,240.1z"/>
	<path class="st0" d="M232.8,248.5c0-0.1,0-0.1,0-0.2C232.8,248.4,232.8,248.5,232.8,248.5z"/>
	<path class="st0" d="M227,242.9c0.2-0.1,0.3-0.4,0.1-0.7L227,242.9z"/>
	<path class="st0" d="M348.4,237.8C348.4,237.8,348.4,237.8,348.4,237.8C348.5,237.7,348.4,237.7,348.4,237.8z"/>
	<path class="st0" d="M305.8,238.6c0.5,1-0.8,1.3-0.1,2.4C305.6,240.6,306.4,239.2,305.8,238.6z"/>
	<path class="st0" d="M390.9,246.5c-0.1,0-0.1,0-0.2,0C390.8,246.5,390.9,246.5,390.9,246.5z"/>
	<path class="st0" d="M305.7,241c0,0,0,0.1,0.1,0.1C305.8,241.1,305.7,241,305.7,241z"/>
	<path class="st0" d="M337.7,238.4c0,0.2,0.1,0.3,0.1,0.5C337.8,238.8,337.7,238.7,337.7,238.4z"/>
	<path class="st0" d="M345.6,240l-0.2-0.2C345.5,240,345.6,240,345.6,240z"/>
	<path class="st0" d="M333.5,240C332.5,239.2,333.9,240.6,333.5,240z"/>
	<path class="st0" d="M329.2,240C329.3,240.2,329.6,240.5,329.2,240z"/>
	<path class="st0" d="M245.9,248c-0.1-0.3-0.2-0.7-0.2-1C245.8,247.8,245.1,248.1,245.9,248z"/>
	<path class="st0" d="M391,246C390.9,247.3,391.1,246.1,391,246z"/>
	<path class="st0" d="M333.4,248.9l-0.7-0.2C332.9,248.8,333.1,248.9,333.4,248.9z"/>
	<path class="st0" d="M276.8,247.8l-0.2,0.1C276.7,248,276.7,247.9,276.8,247.8z"/>
	<path class="st0" d="M330.6,248.9C330.4,248.1,330,247.9,330.6,248.9z"/>
	<path class="st0" d="M245.7,247C245.7,247,245.7,247,245.7,247C245.7,247,245.7,247,245.7,247z"/>
	<path class="st0" d="M254.6,239.9C254,240.4,255.2,239.8,254.6,239.9z"/>
	<path class="st0" d="M370.6,241.6L370.6,241.6c0,0,0,0.1,0,0.1C370.6,241.6,370.6,241.6,370.6,241.6z"/>
	<path class="st0" d="M275.4,248.4C275.2,247.8,275.4,248.3,275.4,248.4z"/>
	<path class="st0" d="M377.6,245.4c0,0.1,0,0.2,0.1,0.3C377.7,245.6,377.7,245.5,377.6,245.4z"/>
	<path class="st0" d="M380.7,245.7l0.4,0.4C380.9,245.9,380.8,245.7,380.7,245.7z"/>
	<path class="st0" d="M383,246.2C383,246.2,383.1,244.9,383,246.2z"/>
	<path class="st0" d="M345.8,247.6C345.8,247.6,345.7,247.6,345.8,247.6C345.5,247.8,345.6,247.7,345.8,247.6z"/>
	<path class="st0" d="M356.9,244.9c-0.1,0.2-0.2,0.4-0.4,0.5C356.7,245.5,356.9,245.6,356.9,244.9z"/>
	<path class="st0" d="M333.4,248.9C333.4,248.9,333.4,248.9,333.4,248.9L333.4,248.9z"/>
	<path class="st0" d="M356,245.4c0.2,0.2,0.4,0.2,0.5,0C356.3,245.4,356.2,245.3,356,245.4z"/>
	<path class="st0" d="M393.1,246.7C393.2,246.7,393.4,246.6,393.1,246.7z"/>
	<path class="st0" d="M393.3,246.6l0.1-0.1C393.3,246.5,393.3,246.5,393.3,246.6z"/>
	<path class="st0" d="M393.6,246.2l-0.3,0.3C393.5,246.5,393.6,246.5,393.6,246.2z"/>
	<path class="st0" d="M390,246.2l0,0.4C390,246.6,390,246.4,390,246.2z"/>
	<path class="st0" d="M389.1,246.3c0.6,0.8,0.9,0.9,0.9,0.3C389.9,247.2,389.3,245.7,389.1,246.3z"/>
	<path class="st0" d="M385.2,241.3C386.8,240.8,385.8,241.4,385.2,241.3z"/>
	<path class="st0" d="M382.7,240.7c0.4-0.2,0-0.6,0-0.9C382.5,240.2,382.4,240.3,382.7,240.7z"/>
	<path class="st0" d="M365,240.7l0-1C364.8,239.8,365.1,240,365,240.7z"/>
	<path class="st0" d="M361.7,246C362.6,246.4,361.9,246.1,361.7,246z"/>
	<polygon class="st0" points="359.7,238.7 359.8,238.5 359.3,238.9 	"/>
	<path class="st0" d="M330,239l0.1,1.3C330.3,240.1,330.4,238.7,330,239z"/>
	<path class="st0" d="M317.2,240.3c-0.1-0.6-0.5-1-0.7-0.4C316.7,240,317,240.5,317.2,240.3z"/>
	<path class="st0" d="M278.8,238.3l0.3-0.4C278.4,238.1,278.3,238.2,278.8,238.3z"/>
</g>
<path class="st2" d="M389.9,242.1c-0.6,0.8-0.6,0.6-0.2-0.4c-1.8-2.2-4,6.6-3.2,0.7c-0.1-0.1-0.1-0.3-0.2-0.5
	c0.1,1.9-0.5,1.9-1.8-0.1c-0.1,0.5-3.5-0.4-6.1-1.2c0.1-1.6-5.4,3.5-3.9,2c0,0-0.8-0.7-1.2-2.4c0-0.4-1.9,1.6-2.7,1.6
	c-3.4,0.3-5.4-0.9-6.1-1c-0.6-0.3-0.8-1-1.4,0.1c0-0.1-2.3-0.6-4.4-0.9l1,1.9h-27.1c0,0.1,0,0.3,0.1,0.5c-0.1-0.2-0.1-0.3-0.2-0.5
	h-17.7c-0.2,0.1-0.5,0.2-0.7,0.3c0-0.1,0-0.2,0-0.3h-54.3l0.4-0.8c-0.2-0.1-0.4-0.4-0.5-1.1c-0.1,1-3,1.8-1.6-2.5
	c-0.8,1.3-2.6,1.4-3.4,1.8c-0.6-1.9-9,5.5-11.6,1.5c-0.9-1.2-12.6,1.3-12.6,0.4c0.5-1.8-7.7,0.6-2.9,6.9c0.5-0.3,3.4-1.1,3-0.2
	c0.8-1.4,1.4-1.2,2.1,0.5c0.9-2.2,1.5-1.9,2,0.9c0.4-1.8,1.4-1,2.2-1.7c0.3-1.1,1.2-3.1,1.7,1.7c0-1.3,0.9-1.3,0.7-2.3
	c0.4,0.9,0.3,0.5,0.6,1.8c0.1-3,1.1-0.7,1.2,0.6c0.6-0.7,2.5-1.9,2.3-1.1c1.3-1.9,2.1-2.3,2.2-1.2c-0.3-2.5,0.4-2.4,0.3-1.6
	c1.8,0.4,14,6,15.6,2.8c5.5-6.2,16.5,1.3,17.2,0.2c0,0,4.8-0.7,6.2-0.8c0.1-1.7,0.1-1.7,0.1,0c0.3,0,0.3,0,0,0.1c0,0.2,0,0.3,0,0.5
	c0.7-0.8,0.8-0.6,0.4,0.6c0.2-0.8,1,1.3,1.3-0.1c4.4-1.3,7.4-1.9,9.7-1.7c1.5-1.5,3.4,3,4.6,0.9l-0.1,0.1c5,0.2,24.5,2.7,26.3,0.9
	c0.8-1.5,4-0.1,4.1-2c0,1.8,1.2,1.5,1.7,0.6c0,1.8,0.3,1.8,1.1,0c0.7,1.6,12.4,1.7,12.7-3.5c-0.8,5,2.1,2,1.9,3.3
	c1.2-1.5,1.6-1.7,1.2-0.7c2.3-0.3,9.2-1.5,9.3-2.1c-0.8,2.1,3.9-0.1,6.6,0.7c-0.6-0.4-0.2-0.4,1.2-0.1c-0.7,0.7,4.7,0.6,4.5-0.4
	c3,5.9,4.3-2.9,5.9,0.6c0-0.3,0-0.6,0-0.9c-0.6-1.6,3.3,1.3,3,1.1l0,0c0.9,1,1.7,0,2.6-2.1c-0.4,1.2-0.4,2.3,0.2,3.3
	c0.2-0.6,5.1-2.8,7.1-2.4C390.3,243.9,390.2,241.6,389.9,242.1z M256.1,246.3c0.1,0,0.2,0,0.3-0.1
	C256.4,246.4,256.3,246.4,256.1,246.3z M257.7,246.2C257,246,256.9,244.9,257.7,246.2L257.7,246.2z"/>
<path class="st3" d="M305.3,207.9c-3-0.4-1.5,0.2-2.1,0.3c-1.8-0.1-2.3-0.3-2.4-0.4c-0.1-0.1,0.1-0.2-0.5-0.4
	c-2.3-0.4-4.1-0.3-5.7-0.8c-0.1-0.1-0.4-0.2,0-0.2c-2.4-0.3-6.9-2-9.6-2.9c-0.2-0.1-0.3-0.2-0.3-0.2c0.3,0.4,0.3,0.6,0.2,0.6
	c-1.3-0.6-2.5-0.8-2.9-1.3c0.8,0.3,0.9,0.3,1.3,0.4l-1.4-0.5c-1-0.9,1.9,0.7,2,0.5c-0.7-0.3-1.4-0.5-2.1-0.8c-0.7-0.3-1.4-0.6-2-0.9
	c-1.3-0.6-2.6-1.2-3.5-1.9c-0.1-0.3,1,0.4,1.8,0.8c0.9,0.4,1.5,0.7,0.2-0.1l2.9,1.7c-2-1.7,1.8,1,0-0.6c-1.9-1.1-3-1.6-4.1-2.2
	c-1.1-0.6-2.1-1.2-3.9-2.5c-0.9-0.4,0.1,0.4-0.8,0c-1.3-0.9-2.2-1.5-2.8-2.1c-0.6-0.5-1-1-1.3-1.4c-0.6-0.8-1.2-1.5-3-2.8
	c-1-0.7-1.7-0.7-3.8-3.2c0.3,0.2,0.7,0.4,1,0.6c-1.4-1.6-1.9-2-2.4-2.4c-0.2-0.2-0.5-0.4-0.9-0.8c-0.4-0.4-0.8-0.9-1.4-1.9
	c0.5,0.6,2.2,2.5,1.8,2c-0.8-1.2-1.2-1.6-1.5-1.9c-0.3-0.3-0.6-0.5-1.3-1.4l0-0.6c-0.3-0.5-0.7-0.9-1-1.4c-0.3-0.5-0.6-1-1-1.5
	c-0.7-1-1.3-2-2-3c-1.2-2.1-2.5-4.3-3.5-6.6c0.2,0.2,0.6,1,0.3-0.2c-0.3-0.7-0.7-1.5-1-2.2c-0.3-0.8-0.6-1.5-0.9-2.3
	c-0.3-0.8-0.6-1.6-0.8-2.4c-0.2-0.8-0.5-1.6-0.7-2.4c-0.8-3.3-1.3-6.6-1.6-9.6l-0.5-2.3c0-0.5,0-1,0.1-0.4c-0.1-2.4-0.2-0.1-0.4-1.2
	c-0.1-1.4,0.1-1.8,0.2-0.9c-0.1-0.5-0.1-1.1-0.2-1.7c0-0.6-0.1-1.3-0.1-2c-0.1-1.4,0-2.9,0-4.4c0.2-3,0.6-6.1,1.2-8.2l-0.1,0.9
	c0.4-1.7,0.4-2.7,0.6-3.6c0.1-0.9,0.2-1.9,0.8-3.4l-0.1,0.6c1.1-3.6,2.5-7.3,4.1-10.7c1.6-3.4,3.5-6.4,5.3-8.6
	c0.1-0.6,1.2-2.1,2.3-3.5c1.1-1.4,2.2-2.7,2.2-3.1c0.8-0.8,1.3-1.3,1.7-1.7c0.4-0.4,0.8-0.7,1.2-1c0.4-0.3,0.8-0.7,1.4-1.2
	c0.6-0.5,1.4-1.2,2.6-2.2c0.6-0.5,1-1,1.4-1.5c0.4-0.5,0.9-1,1.7-1.7l0.2,0.2c0.7-0.6,1.3-1.3,2-1.9l1.4-0.5c0.5-0.4,1-0.8,1.5-1.1
	c-0.7,0.4-1.4,0.8-1.4,0.6c0.6-0.5,1.3-0.9,2-1.3c0.7-0.4,1.4-0.8,2-1.1c1.3-0.6,2.3-1,2.4-0.9c1-0.6,2-1.1,3-1.6
	c1-0.5,2.1-1,3.1-1.5c-0.1,0.2-1.1,0.7-2,1.1c3.3-1.7,0.7,0,3.7-1.5c-0.4,0.1,0.2-0.3,0.2-0.3c1.6-0.4,5.3-1.5,8-2.2l-0.5,0.3
	c0.6-0.1,1.3-0.3,1.9-0.4c0.4-0.1,0.7-0.1,1.1-0.2l0.2,0.2c0.3,0.3,0.5,0.6,0.8,0.8c0.6,0.5,1.2,1,1.9,1.4c1.4,0.8,3,1.3,4.6,1.5
	c1.6,0.2,3.3,0,4.9-0.4c-1.2,0.3-1.6,0.2-1.6,0.1c0-0.1,0.2-0.1,0.5-0.2c0.3-0.1,0.6-0.2,1.1-0.4l0.8,0.1c1.1-0.6-1.9,0.6,0.3-0.5
	c1.1-0.5,1.4-0.6,1.4-0.5c0,0.1-0.4,0.5-1,0.8c0.9-0.4,1.7-1,2.4-1.6c0.2,0-0.3,0.4-0.4,0.6c0.4-0.4,1.5-1.2,2.4-2.2
	c0.9-1,1.6-2.3,1.8-3.2l0.1-0.1c1.1-3.2,0.8-5.7,0.1-7.8c-0.7-2.1-1.9-4-4-5.7c-0.1,0.1-0.6-0.2-1.2-0.6c-0.6-0.3-1.5-0.7-2.2-0.9
	c-1.8-0.7-3.8-1-5.9-0.7c-2.1,0.3-4.3,1.3-6,2.9c-0.6,0.6-0.9,1-1,1.2c-0.1,0.2-0.2,0.3-0.1,0.3c0.1,0.1,0.2-0.1-0.1,0.6
	c-0.2,0-0.9,1-1.3,1.8c-0.1,0.1-0.1,0.2-0.2,0.2c0,0,0,0,0-0.1c0,0,0-0.1,0-0.2c0,0.1,0,0.2-0.2,0.2c-0.1,0-0.3,0.1-0.4,0.1
	c-0.5,0.1-1,0.2-1.5,0.3c-0.9,0.2-1.8,0.4-2.6,0.6c-1.7,0.5-3.7,1-6.7,2.1c0.7-0.1,1.5-0.3,1.1-0.1c-1.1,0.4-2.6,0.8-2.4,0.6
	l0.3-0.1c-3.4,1.4-7.2,2.9-10.9,4.6c-3.7,1.7-6.9,3.7-9.2,5.6l0.3-0.2c-0.8,0.6-1.5,1.3-2.3,1.9c-0.8,0.6-1.5,1.3-2.3,2
	c-2.1,1.7,1.1-1.2-0.5,0c-1.2,1.1-2.2,2.1-3.2,3.1c-1,0.9-1.8,1.8-2.7,2.7c-0.9,0.8-1.7,1.7-2.5,2.6c-0.4,0.5-0.8,0.9-1.2,1.4
	c-0.4,0.5-0.8,1-1.2,1.6c-0.4,0.3-0.8,0.8-1.3,1.3c-0.4,0.5-0.9,1.1-1.4,1.8c-1,1.3-2,2.9-3.1,4.5c-2,3.3-3.8,6.9-5.1,9.4l0.3-0.2
	c-0.5,1.4-0.8,1.6-1.2,2.5c0.2-0.1,0.7-1.4,0.5-0.5c-2.3,5.7-4.2,11.7-5.3,17.9c-1.1,6.2-1.6,12.7-1.3,19c0.4,4.6,1.1,2.5,1.5,8.3
	c-0.2-0.5-0.4-1-0.6-1.6c0.9,4.5,2.1,9.1,3.6,13.6c0.4,1.1,0.8,2.2,1.2,3.3c0.5,1.1,0.9,2.1,1.4,3.2l0.7,1.6l0.8,1.5
	c0.6,1,1.1,2,1.6,3c-0.3-0.4-0.4-0.4-0.8-1.2c0.2,0.5,0.4,1.1,0.8,1.7c0.4,0.7,0.8,1.4,1.2,2c0.8,1.3,1.6,2.3,1.7,2.3
	c0.8,1.2,0,0.4,0.4,1.1c1,1.6,3,3.8,3.5,4.7c0.1,0.2-0.4-0.4-0.6-0.6c0.9,0.9,3.6,4.6,3.1,3.4c1.1,1.3,2.2,2.5,3.3,3.6
	c1.1,1.1,2.2,2,3.1,3c0.4,0.2,0.8,0.6,1.3,1.1c0.5,0.4,1,0.9,1.5,1.3c1,0.8,1.9,1.6,2.2,1.6c-0.1,0.1,0.1,0.3,0.5,0.7
	c0.4,0.4,1.1,0.9,1.8,1.4c0.7,0.5,1.5,1.1,2.3,1.6c0.7,0.5,1.5,0.8,1.9,1.1c-0.7-0.3,1.5,1.1,0.7,0.8c2.1,1.3,4.1,2.2,3.9,1.9
	c0.9,0.6,1.9,1.2,2.9,1.7c1,0.5,2,0.8,3,1.2c0.9,0.4,1.8,0.7,2.6,1c0.8,0.3,1.5,0.6,2,1c0.9,0.3,1.7,0.6,2.6,0.8
	c0.9,0.2,1.7,0.4,2.6,0.7c0.9,0.2,1.7,0.4,2.5,0.7c0.8,0.2,1.7,0.3,2.5,0.5c0.8,0.2,1.7,0.3,2.5,0.5c0.8,0.2,1.7,0.2,2.5,0.3
	l1.2,0.2l0.9,0.1l0.3,0l0.1,0l0,0.1l0,0.6c-0.1-0.1-0.2-0.2-0.2-0.5c0.1-0.2-0.2-0.1-0.3-0.1l-0.2,0l-0.6-0.1
	c-1.7-0.2-3.4-0.5-3.3-0.2c0.7,0.1,1.4,0.2,2.1,0.2c0.6,0.1,1.2,0.1,1.8,0.2l0.3,0l0.1,0l0,0.1l0,0.3c0,0,0,0,0,0.1l0,0.2l0,0.4
	c0,1.1-0.1,2.3-0.1,3.5c0,0.6-0.1,1.2-0.1,1.9c0,0.4-0.1,0.8-0.1,1.2c-0.1,0-0.3,0-0.4,0c-0.6,0,0-0.1,0.2-0.2c0-0.1,0-0.2,0-0.2
	c0,0.1,0,0.1,0,0.2l-0.3,0l-0.1,0l-0.2,0l-0.5,0c-0.7,0-1.4,0-2.2,0c-1.4,0-2.8,0-4.2,0c-2.8,0-5.5,0-8.1,0.1c0,0,0.6-0.1,1.2-0.1
	c-1.1,0-2.5-0.1-2.4,0.1l1-0.1c1.7,0.3-4.3,0.6-4.4,0.8c1.8-0.6-5.4-0.1-2.5-0.9c-0.7,0-1.6,0.1-1.4,0.3c-1,0-1.4-0.1-0.3-0.3
	c-3.8,0.1-2.5,0.3-6,0.3c0-0.1,0.7-0.1,1.1-0.3c-0.7,0.1-1.5,0.2-2.3,0.2c-0.4,0-0.8,0.1-1.3,0.1c-0.3,0-0.5,0-0.8,0
	c-0.4,0-0.7,0-1.1,0c-0.2,0.5-0.5,1-0.8,1.6c0-0.1,0-0.1,0-0.1c0-0.1,0-0.1,0.3-0.7c-0.3,0.6-0.6,1.2-0.9,1.8
	c-0.2,0.5-0.5,1-0.7,1.5c-0.5,1-0.9,2-1.4,3c-0.9,2-1.7,3.6-3.6,7.1c0.1,0,0.3,0,0.5,0c-0.3,0-0.6,0.1-0.7,0.1c0-0.1-0.1,0-0.2,0.1
	c0.4,0.1,3.4,0,3.7,0.3l3.1-0.1l-1.2-0.2c2.6,0,4.9-0.3,7.2-0.1l-1.9,0.2l4.9-0.1l-2.8-0.1c2.6-0.2-0.3-0.5,3.2-0.4
	c-0.7,0,2.6,0,4,0.2l0,0c1.3-0.1,2.6-0.2,4.5-0.2c0.5,0.1-0.4,0.4-0.1,0.5c1.3-0.3,6.1-0.1,7.7-0.4c-0.5,0.1-0.6,0.3-0.4,0.3
	l1.1-0.3c1.2,0.1,1.4,0.1,1.2,0.3c3.6,0-1.2-0.5,3.2-0.3c-0.3,0-0.2,0.1-0.9,0.1c4.3,0.1,8.4-0.2,12.4,0c1.2,0.4-3.5,0.1-2.1,0.4
	c5.7-0.1,11.9-0.5,17.4-0.4l-1,0c0.8-0.5,4.1,0.3,6.9,0c-0.7,0-0.9,0.3-0.7,0.2c3.8,0.1,7.8-0.1,13.5-0.3l-0.7,0.1
	c2.2,0.1,5.9,0.1,8.3,0.1c0.7-0.1,2.1-0.1,1.3-0.3c1.6,0.2,3.2,0.2,4.8,0.3c0.4,0,0.8,0,1.2,0c0.4,0,0.9,0,1.3,0c1,0,2.1,0,3.1-0.1
	c-1.1-2-2.2-4-3.3-5.9c-0.9-1.7-1.7-3.4-2.4-5.1c0.4,0.7,1,1.6,0.7,1.1l-2.2-4l-1.8,0c0.2,0.1,0.3,0.1,0.6,0.2c0.3,0,0.6,0,1.1,0.1
	c0.1,0.1,0.1,0.4,0.2,0.6c-0.1-0.1-0.2-0.3-0.3-0.5c-1,0.1-2.2,0.2-3.3,0.2c2.5-0.2,0-0.4-1.1-0.5c0.2,0.1-0.2,0.1-0.1,0.2
	c-2.9-0.4-0.5,0.5-4.5,0.2l0.2-0.1c-1.5,0.1-2.9,0.2-4.5,0.2c-0.7-0.3,1.6-0.1,1.7-0.3c-2.3,0-4.5,0.5-6.6,0.2
	c1-0.1,2.4-0.1,3.3-0.1c-2.2-0.3-2.5-0.2-4.2-0.3l0.2,0l-3.9-0.1l1,0.1c-2.8,0.7-5.8,0.1-9.6,0.6c3.7-0.4,0.6-0.2,0.9-0.6
	c-0.1,0-0.4,0-0.5,0c-0.1,0-0.2,0-0.3,0c-0.2,0-0.3-0.1-0.4-0.1c0-0.1,0-0.2,0.1-0.1c-0.1-0.1-0.1-0.4-0.1-0.6c0-0.4,0-0.8,0-1.2
	c0-0.9-0.1-1.8-0.3-3.1c0.1-0.1-0.1-1.9,0.2-1.5c0-0.3-0.1-0.5-0.1-0.7c0-0.1,0-0.1,0-0.1c0,0,0,0-0.1,0.2c0,0.4,0,1.1-0.1,1
	c0-0.2-0.1-0.5-0.1-0.7c0-0.2,0-0.4-0.1-0.6c0-0.2,0-0.3,0-0.5l0-0.2c0,0,0.2,0,0.2,0c0.4,0,0.8-0.1,1.2-0.1
	c0.6-0.1,1.1-0.1,1.7-0.2c2.3-0.3,4.9-0.7,7.4-1.6c2.2-0.7,3.4-1.2,4.6-1.7c1.2-0.5,2.4-1,4.3-1.9c0.7-0.2,0.4,0,0,0.2
	c-0.4,0.2-1,0.5-1,0.5c2.2-0.7,3.8-1.4,5.7-2.4c-0.4,0.3,0.1,0.1,0.7,0c1.5-0.8,0.9-0.8,3-1.7c-0.3,0.3-0.7,0.7-1.4,1.1
	c1.8-1,3.5-2.1,5.3-3.3c0.6-0.1-1,0.9-1.6,1.3c2.1-1.2,5.2-3.4,5.6-4l-1.3,0.8c0.7-0.5,0.5-0.1,0,0.3c-1.6,1.3-2.5,1.5-2.7,1.5
	l1.3-0.8c-0.8,0.2-2.1,1-3.5,1.9c-1.4,0.9-3,1.9-4.4,2.6l0.9-0.9c-0.9,0.6-1.8,1.1-2.7,1.6c-0.6,0.2-1.1,0.1,0.2-0.5
	c-2.1,0.7-1.7,0.9-3.5,1.4c-0.2,0-0.1,0,0-0.1c-0.6,0.3-1.3,0.6-1.9,0.9c0.4-0.2-0.4-0.2,0.8-0.6c-3.6,1.1-5.7,2.3-7.1,2.4l0.3-0.1
	c-2.5,0.8-2.6,0.8-2.6,0.9c0.1,0.1,0.3,0.2-1.6,0.8c-0.9-0.1-1.8-0.1-2.8-0.2l-0.5,0.4c-0.5,0.1-1.6,0.2-1.4,0.1
	c-2,0.5,0.4,0.1-0.8,0.5c-0.7,0-1.4,0.1-2.3,0.2l-0.7,0.1l-0.3,0l-0.2,0l-0.1,0l0,0.1c0,0.4,0.1,0.9,0.1,1.3c0.1,1.6,0.2,2.9,0,3.2
	c0.3,0.9,0-2.5,0.4,0.3c-0.2,0.4-0.2,1-0.1,1.9c0.1,0.4,0.1,0.9,0.2,1.4c0.1,0.5,0.1,1.1,0.1,1.7c0.3,0,0.6,0,0.9,0.1
	c-0.3,0.1-0.7,0.1-1.1,0.1c-0.1-0.8-0.2-1.8-0.2,0.2c0,0,0.1,0,0.3,0c0.6-0.1,1.2-0.2,1.8-0.2c0.5,0,1.1,0,1.8,0
	c1.2,0.1,2.5,0.2,3.6,0.1c0.1-0.4,4.4-0.2,7.8-0.3c-0.2,0.1,6.4,0.2,9.5,0.3l-0.1,0.1c0.6-0.4,3.9-0.3,6.2-0.4
	c-0.1,0.2-0.5,0.3-1.8,0.4l2.2,0c0.2,0,0.4-0.1,0.6-0.1c0.2,0,0.4-0.1,0.7-0.1c0.1,0.1,0.2,0.3,0.4,0.6c-0.2-0.1-0.3-0.1-0.4-0.1
	c0.3,0.6,0.6,1.2,1,1.7c0.4,0.7,0.8,1.3,1.2,2c0.8,1.4,1.6,2.9,2.4,4.6c0.3,0.1-0.8-3,1.2,0.5c-0.1,0.2-0.2,0.4-0.7-0.5
	c0.2,0.3,0.7,1.1,0.9,1.6l-0.9-1.3c0.2,0.4,0.3,0.6,0.4,0.8c0.1,0.2,0.1,0.2,0.2,0.3c0.1,0.1,0.3,0.2,0.5,0.8
	c-0.3-0.1,0.2,0.7-0.1,0.4c-0.1-0.2-0.3-0.7-0.6-1.1c0.2,0.5,0.4,1,0.6,1.3c-0.6-0.1-1-0.1-1.3-0.2c0.1,0.1,0.1,0.1,0,0.2
	c0,0-0.1,0.1-0.2,0.1c-0.1,0-0.2,0-0.5,0c-3,0-1-0.2-2.7-0.3c-0.7,0.1-2.6,0-2.7,0.3c-0.9,0-1-0.1-1.4-0.2c-1.5,0.1-7.1,0-5.4,0.4
	l0.4,0c-0.1,0-0.2,0-0.3,0c0,0,0,0,0,0h0c-5,0.3-10.4-0.2-15.4,0l0-0.1c-3,0.1-6.6,0.1-8.7,0.3c-0.9,0-2.1-0.2-1.7-0.3
	c-2.3,0.1-2.5,0.2-5.8,0c2.3-0.2-0.8-0.2,2.3-0.1c-3-0.1-3.6-0.2-6.8,0c1.1-0.3-2.2-0.3-3.6-0.2l2.1,0.2c-1.6,0-3,0-4.4,0l0.8-0.3
	c-6-0.4-10.9,0.7-15.5,0c-1.6,0.2,3.3,0.2,1.9,0.4c-2.8,0-5.7-0.5-6.5-0.5c-3.8-0.2-3.6,0.5-7.5,0.4c0.5,0.1,1,0.4-2,0.5
	c-2.8,0-3.4-0.5-1.7-0.6c0.7,0,1,0,1,0.1c0.9,0,2.1-0.1,1-0.2l-0.4,0.1c-1.4-0.1-5.2-0.1-4.3-0.3c-2.1,0.1-0.9,0.2,0.7,0.3
	c-1.8-0.1-3.2-0.1-4.6-0.1c-0.7,0-1.4,0-2.2,0c-1,0-1.1,0-1.4,0c0.1,0.1,0.4,0.2,0.1,0.2c-0.3,0-0.5,0-0.7,0c0.4-0.7,0.4-0.9,0.4-1
	c0-0.1,0.1-0.5,0.8-1.9c1.1-1.8,0,0.9,1.6-2.5c1.1-1.9,0.5-0.3,0.2,0.6c0.6-1.3,1.2-2.6,1.9-3.6c0.6-1,1.4-2.4,1.3-2.1
	c0,0,0.1,0,0.1,0c0,0-0.1,0-0.1,0c0,0.1,0,0.1,0,0.1c0,0,0-0.1,0-0.1c0,0,0.1,0,0.1,0c0.3,0,0.6,0,0.8,0l-0.5-0.1
	c-0.2,0-0.4-0.1-0.4-0.1c0.5,0,0.9,0,1.2,0c0.3,0,0.6,0,0.6,0.1c1.1-0.2-0.8-0.4,1.3-0.6c1.4,0.1,4.2-0.1,4.7,0.2
	c-4.3-0.1,0.5,0.3-3.2,0.4c0.7,0,1.6,0,2.6,0c0.2,0-0.1,0.1-0.4,0.1c4.2,0.3,1.9-0.4,6.2-0.3c-0.5,0.2,1,0.3,1.7,0.3
	c-1.7,0-0.8-0.3,0.8-0.4c2.8,0.1,3-0.1,4.4-0.1l-1.6-0.1c0.6-0.2,1.9-0.2,3.9-0.2c0.2,0.1-1.7,0.1-1.1,0.2c2.1-0.3,4.8,0.3,7.8,0.1
	c1.4,0.1,0.1,0.3,1.3,0.4c1.1-0.1,1.9-0.1,2.6,0c1.1,0,2,0.1,3.1,0.1c0.1-0.6,0.1-1.2,0.2-2c0-0.3,0-0.6,0.1-1c0-0.3,0-0.5,0-0.8
	c-0.3,1-0.3,1.2-0.3-1.3l-0.2,4.8l-2.7,0.1c0.2,0,0.8-0.1,1.3-0.1l1.4-0.1l0-1.5c0-0.5,0-1,0-1.2c0,0.8-0.1,1.7-0.1,2.5
	c-0.8,0-1.6,0-2.3,0.1c-0.5,0-0.9,0-1.3,0c1.8-0.2,1.6-0.1,0.7-0.3l0.5,0.1l0.7,0c0.5,0,1,0,1.4,0c0-0.6,0-1.2,0.1-1.7
	c0-0.5,0-0.9,0-1.4c0-0.9,0.1-1.8,0.2-2.8l0.6,0.1c0.1-0.5,0.1-1,0.2-1.5c0-0.2,0-0.5,0.1-0.7l0.1-0.9l0.1-1.2l0-0.6
	c0-0.1,0-0.2,0-0.3l-0.3,0c-0.8-0.1-1.6-0.2-2.3-0.3c-1-0.1-2-0.2-3.1-0.3c-1.1-0.1-2.3-0.4-3.6-0.7l1.6,0.5c-0.4,0-1.2-0.1-2.1-0.3
	c-0.9-0.2-2-0.4-2.8-0.7c0.2-0.1-0.8-0.5-1.5-0.8c0,0.1-0.9-0.2-1.9-0.5c-1-0.2-2.1-0.6-2.4-0.5l-2.1-1.1c-1-0.4-1.8-0.7-2.5-1
	c-0.7-0.3-1.3-0.4-1.8-0.6c-0.6-0.2-1.2-0.3-1.8-0.6c-0.6-0.3-1.4-0.6-2.3-1.1c1.2,0.4-0.4-0.6,2.1,0.5c-1.2-0.6-2.3-1.3-2.4-1.1
	c-0.3-0.3-1.2-0.6-2.1-1.1c-0.9-0.5-1.8-1-2.3-1.4c-0.5-0.2-0.8-0.1-2.1-1c-0.1-0.1,0.1-0.1,0.1-0.1c-0.1,0.1-2.1-1.3-1.1-0.3
	c-0.8-0.7-1.8-1.6-2.9-2.4c-1.1-0.9-2.2-1.8-3.3-2.7c-1.2-0.9-2.2-1.9-3.1-2.8c-0.9-0.9-1.8-1.7-2.3-2.5c-1-1.1-2.2-2.2-3.3-3.5
	c-1-1.3-2.1-2.5-2.9-3.5c0.2,0.1,0.1-0.1,0.4,0.4c-1.1-1.6-1.5-2-2-2.4c-0.5-0.5-1.1-0.9-2.1-2.8c-0.4-1-0.1-0.6,0.3,0
	c0.3,0.6,0.8,1.2,0.5,0.6c0.1-0.4-0.6-1.5-1.4-2.8c-0.4-0.7-0.9-1.4-1.3-2.1c-0.4-0.7-0.7-1.5-1-2.2l0.4,0.6c-0.4-1-1.1-2.2-1.8-3.5
	c-0.7-1.4-1.4-2.9-2.1-4.5c0,0,0.1,0.1,0.1,0c-1.2-2.2-2.9-6.6-3.7-10c0.5,1,0.5,1.5,0.6,0.8c-0.4-1.5-0.3,0.6-1.1-2.5
	c-0.1-1-0.4-3.3-0.2-3.6l0.6,2.9c0-0.8-0.2-1.7-0.4-2.6c-0.2-0.9-0.4-1.9-0.5-2.6l0.2,0.2c-0.4-2.2-0.5-3.3-0.7-4.5
	c-0.2-1.2-0.3-2.4-0.4-4.8l-0.1,0.5c-0.4-2.6,0.2-2.2,0-4.9l0.4-0.8c0-1.7,0-6.1,0.5-9.2c0,0.9-0.1,2.3-0.2,3.7c0,1.4-0.2,2.9-0.1,4
	c0.1-1.7,0.5-5.8,0.5-6.7c-0.1,0.7-0.1,1.6-0.3,2.2c0-1.1,0.1-2.3,0.2-3.7c0.2-1.4,0.4-2.9,0.8-4.6c0.1,0.2,0.4-0.3,0.6-1.1
	c0.3-0.8,0.6-2,1-3.2c0.4-1.3,0.8-2.6,1.3-3.7c0.5-1.2,0.9-2.1,1.3-2.6c0.5-1.4,1-2.8,1.7-4.2c0.3-0.7,0.6-1.4,1-2.1
	c0.4-0.7,0.7-1.4,1.1-2c0.7-1.4,1.6-2.7,2.5-4.1c0.5-0.7,0.9-1.4,1.4-2.1c0.5-0.7,0.9-1.4,1.5-2.1c-2,1.7,1.2-1.7,0.4-1.7
	c0.9-1.4,1.4-1.8,1.5-1.9c0.6-0.6,1.1-1.2,1.7-1.8l1.8-1.7c0.9-0.8-0.9,1.3-0.7,1.2c2.4-2.6,1.2-1,2.9-2.6c-0.5,0.2,0.6-1.1,2.2-2.5
	c-0.8,0.6-1.5,1.2-2.2,1.8c1.6-1.9,2.6-2.5,3.4-3.2c0.9-0.7,1.8-1.2,3.6-3l-1.1,1.2c0.9-0.9,2.8-2.4,4.7-3.8c1-0.7,1.9-1.4,2.8-2
	c0.9-0.6,1.6-1.1,2.1-1.6c0.4-0.2,1-0.4,0.1,0.3c5.3-3.2,12.1-6.7,16.9-7.8l-0.4,0.3c1.1-0.4,1.8-0.9,3.3-1.1
	c-0.1,0.1-0.4,0.3,0.1,0.1c0.6-0.2,2.9-1,4.4-1.2l-1.2,0.4c0.7-0.1,1.4-0.3,2.1-0.4c0.4-0.1,0.9-0.2,1.3-0.2
	c0.3-0.1,0.5-0.1,0.8-0.2c0.1,0,0.1-0.1,0.1-0.1l0.1-0.2l0.2-0.4l0.2-0.4c0-0.1,0.1-0.3,0.1-0.3l0.2-0.4c0.1-0.3,0.2-0.5,0.4-0.7
	c0.3-0.5,0.5-0.9,0.8-1.3c1.2-1.6,2.9-2.9,5.2-3.4c0,0.2,1.1,0.1,2.5,0.3c1.3,0.2,2.8,0.7,3.7,1.3l-0.1,0c2.7,1.5,4.3,3.9,4.9,6.4
	c0.6,2.5,0.1,5.4-1.7,7.8c-0.7,0.6-1.7,1.5-2.9,2.1c-1.3,0.6-2.9,1.1-4.5,1.1c-1.7,0-3.4-0.5-4.8-1.4c-0.7-0.5-1.3-1-1.9-1.6
	c-0.1-0.1-0.4-0.5-0.6-0.8l-0.4-0.5l-0.1-0.1l0-0.1c0,0,0,0-0.1,0l-0.3,0c-0.6,0.1-1.3,0.2-1.9,0.3c1-0.1-0.1,0.4-1.3,0.7
	c-1.6,0.2-4.1,1.3-4,0.9l0.5-0.1c-1.3-0.1-4.4,0.9-6.7,1.9l-0.2,0.6c-3.2,0.9-7.1,2.8-10.5,4.9c-3.4,2.1-6.1,4.3-7.8,5.2
	c-1.1,1.1-2.7,2.4-3.7,3.6l-0.1-0.3c-1.7,1.5-2.8,2.7-4.1,4c-0.6,0.7-1.2,1.4-1.9,2.2c-0.7,0.8-1.4,1.7-2.2,2.8l0.5-1
	c-1,1.2-1.4,2.1-1.8,3c-0.4,0.9-0.7,1.8-1.5,2.9l-0.8,0.5c-2.8,4.5-5.5,9.4-6.9,14.5c0-0.1-0.1-0.3,0.2-1.1
	c-0.5,1.2-1.3,3.5-1.8,5.5c-0.5,2-0.8,3.5-0.4,3.1c-0.2,0-0.5,1.3-0.8,3.1c-0.2,1.7-0.4,3.8-0.4,5.3l-0.2-0.5c0.1,2.5,0.2,2.6,0.2,6
	c0,0.8-0.2,0.7-0.2-0.4c-0.1,2.7,0.2,2.1,0.2,5.3l-0.2-1.2c0.1,2.8,0.2,2.5,0.6,4c0.1,0.4,0.1,1,0.2,1.5c0.1,0.6,0.1,1.2,0.2,1.8
	c0.1,1.1,0.1,2.1,0.1,2.3c0.2,0.3,0.7,1.8,1,3.4c0,0.2-0.2-0.3-0.3-0.6c0.5,2.3,1,3.9,1.5,5.4c0.5,1.5,1,2.7,1.4,4.2
	c-0.1,0.1,0,0.3,0,0.6c-1.3-3.4-2.1-6.3-2-6c-0.2,0.1,0.6,2.9-0.5,0.8c0.8,2.3,2.7,6,3.8,8.6c0,0.1,0.1,0.3,0.1,0.4l-0.1-0.3
	c0.2,0.6,0.5,1.2,0.8,1.7c0.4,0.8,0.6,1.4,1.1,2.2c0,0.2,0.4,1,0.8,1.9c0.4,0.9,1.1,1.8,1.5,2.5c0.2-0.3,1.2,1.4,0.4-0.2
	c0.1,0.2-0.2-0.2-0.7-1c-0.1-0.2-0.3-0.4-0.4-0.5c0,0,0,0,0.1,0.1c-0.5-0.8-1.1-2-1.8-3.2c0.7,1,1.3,2,2,3.5
	c0.6,0.6,1.2,1.2,1.5,1.5c0.7,2,2.9,5.2,3,5.8c0.7,0.9,1.5,1.8,2.4,2.8c0.4,0.5,0.8,0.9,1.3,1.4l0.6,0.7c0.2,0.2,0.5,0.4,0.7,0.6
	c0.9,0.8,1.8,1.6,2.5,2.3c0.8,0.7,1.6,1.2,2.2,1.6c1,0.8,1,1.1,1.3,1.5c-0.6-0.4-1.3-1-1.6-1.2c2,1.7,6,4.7,6.7,4.7
	c2.6,1.9-1.7-0.7,2.1,1.6l-0.6-0.2c0.9,0.6,1.8,1.2,2.6,1.8c0.9,0.5,1.7,0.9,2.6,1.4c0.9,0.4,1.7,0.9,2.5,1.2c0.9,0.3,1.7,0.6,2.6,1
	c3.5,1.3,7.1,2.2,11.7,3.8c-0.6-0.2-1-0.3-1.1-0.4c5.3,1.5,11,2.1,16.7,2.1c5.7-0.1,11.3-0.8,16.6-1.9c3-0.7,3.3-1,5-1.8l0.7,0.1
	c1-0.5,2-0.9,2.9-1.4c2.1-1,3.9-1.6,5.9-2.4c2-0.8,4.1-1.8,6.4-3.6l-0.7,0.2c1.8-1,5.3-3.8,5.2-3.5c0.2-0.2,0.4-0.6,1.1-1l0.1,0.1
	c0.6-0.6,1.3-1.1,1.9-1.7l0.9-0.9l0.7-0.7c0.1-0.1,0.2-0.2,0.2-0.2c0.8,1,0.6,1,0.6,1.1c-0.1,0.1,0.1,0.5,2,2.5
	c1.5,1.5,4.5,4.1,4,3.5c-0.6-0.6-1.4-1.7-1.4-1.8l1.4,1.4c0.6-0.1,2,0.7-1.1-3l-2.5-2.2l-0.6-0.9l1.9,2c-0.5-0.7-0.9-1.1-1.3-1.5
	c-0.2-0.2-0.4-0.4-0.6-0.6l-0.3-0.3l-0.2-0.1l-0.2-0.2c-0.2-0.4-0.7-1.1-1.6-2l0,0l-2,2.1l-1.1,1.2c-0.4,0.1,0.9-1.2-0.8,0.1
	c-1,1.1,1.4-0.6-0.5,1.1c-1.4,0.8-1.1,0.4-2.5,1.7c-0.3,0.1,0-0.2,0.5-0.7c-1.2,1.1-3.5,2.6-4.1,3.2c-1.5,0.7-4.7,2.9-4.8,2.4
	c-0.4,0.3-2.4,1.7-3.8,2.3c1.1-0.8-0.1-0.2-1.7,0.4c-1.5,0.6-3.3,1.3-3.1,0.9c-0.9,0.6-2.6,1.2-4.5,1.8c-1.9,0.6-4.1,1.1-5.9,1.6
	c0.2-0.1,0.6-0.2,0.9-0.3c-2,0.4-2.6,0.3-3.9,0.4c-0.2,0.5-3.3,0.9-5,1.3c-2.5-0.2,1.5-0.6,0.7-0.9c0.2,0.3-4.3,0.6-3.4,0.8
	c-1.9-0.2-1.6-0.1-2.6-0.4c-0.3,0.5-1.8,0-3.4,0.3c-1.4-0.2-1.5-0.3-1.7-0.4c-0.2-0.1-0.4-0.1-2-0.2
	C302.6,207.8,305.3,207.9,305.3,207.9z M249.4,168.4L249.4,168.4c0.3,0.6,0.5,1.1,0.6,1.4C249.8,169.4,249.7,169,249.4,168.4z
	 M247.1,162.7c0.2,0.7,0.6,1.6,0.9,2.5c0,0.2-0.2,0.1-0.4-0.5C247.8,165,247.4,163.6,247.1,162.7z M250.6,175.4
	c-0.5-0.9-0.6-1.2-0.6-1.3c0.2,0.4,0.5,0.9,0.8,1.5c0,0,0.1,0.1,0.1,0.1C250.9,175.6,250.8,175.5,250.6,175.4z"/>
</svg>
