<?xml version="1.0" encoding="utf-8"?>
<!-- Generator: Adobe Illustrator 21.0.0, SVG Export Plug-In . SVG Version: 6.00 Build 0)  -->
<svg version="1.1" id="Layer_1" xmlns="http://www.w3.org/2000/svg" xmlns:xlink="http://www.w3.org/1999/xlink" x="0px" y="0px"
	 viewBox="0 0 169.8 193.9" style="enable-background:new 0 0 169.8 193.9;" xml:space="preserve">
<style type="text/css">
	.st0{fill:#9E95C6;}
	.st1{opacity:0.2;}
</style>
<g>
	<g>
		<path class="st0" d="M105.2,43.2c0,0.1,0.1,0.3,0.1,0.4C105.3,43.5,105.2,43.4,105.2,43.2z"/>
		<path class="st0" d="M125.2,64.5c-0.2,0.1-0.4,0.2-0.6,0.4C124.8,64.7,125.1,64.6,125.2,64.5z"/>
		<path class="st0" d="M136.3,87.7c-0.4-0.1,0-1.9-0.2-3.3c0.1,0,0.1-5.6,0.1-4.1l0.1,0c-0.4-0.8-0.6-1.7-0.7-2.6
			c0.2,0,0.3,0.2,0.5,0.7c-0.1-0.8-0.4-1.3-0.5-2l0.3,0.2c-0.2-1.2-0.8-2.4-1-4.1c-0.3,0-0.3,1.4-1-0.2c0.1-0.1,0.3-0.2,0.5,0.2
			c-0.1-0.1-0.3-0.5-0.3-0.8l0.4,0.6c-0.1-0.7-0.3-0.3-0.4-0.9c0.2,0,0-0.5,0.2-0.4c0.1,0.1,0.1,0.5,0.2,0.7
			c-0.1-0.7-0.3-1.5-0.2-1.8c-0.4,0.3-0.6-2.7-1.2-2.6c-0.1-0.3,0-0.5,0-0.6c-0.4-0.6-1-1.8-1.2-1.8c-1.1-1.9-1.8-4.1-3-5.9l0.1,0
			c-0.2-0.2-2.4-3.7-2.4-3.7c-0.6-0.7-0.8-0.8-1.5-2c0.7,0.7-0.1-0.4,0.7,0.7c-0.7-1.1-0.8-1.4-1.9-2.2c0.5,0.2-0.4-1-0.9-1.3
			c0.2,0.3,0.3,0.5,0.5,0.8c-0.5-0.5-0.9-0.9-1.3-1.4l0.5,0c-1.3-1.8-3.7-2.6-4.9-4.5c-0.2-0.1,0.5,0.9,0.3,0.8
			c-1.6-1.5-3-2.4-4.7-3.7c-0.5-0.9-2,0.2-1-0.6c0.3,0.2,0.8,0.4,0.5,0l-0.2,0c-0.4-0.4-1.9-1.3-1.4-1.2c-0.8-0.3-0.4,0,0.1,0.4
			c-1.3-0.9-2.1-1.2-3.4-2c0.5,0.4-4.8-1.9-3.1-1.6c-1.4-0.4-2.5-1.1-3.2-1.4l0.8,0.2c-0.5-0.1-0.8-0.2-1.2-0.4l0.3,0.4
			c-0.4-0.2-0.8-0.3-0.7-0.4c-1,0-2.2,0.6-3.4-0.5c3,0.9-0.7-0.6,2.1,0.2c-2-0.3-2.5-0.5-1.6-0.6c-0.4-0.2-0.8-0.3-1.2-0.4
			c-0.3,1.1-0.1,2.3-0.3,3.5c-0.1-0.3-0.4,0.4-0.4,0.7c0.2-0.9,0.2,1.8,0.1,2.3l0.2-0.7c0.1,0.3,0,0.8,0,1.7c-0.2,0.1-1.4,4.9-1,6.6
			c0.2-0.5,0.1-0.5,0.5,0.5c-0.2-0.9-0.3-1.7-0.3-2.6c0.1,0.5,0.2,1.1,0.4,1.6c-0.1-0.8-0.2-1.6-0.2-2.1c0.2,0.8,0.1,0.7,0.3,0.3
			c-0.4,1,0.2,2,0.2,3.2l-0.6,0.1c0.1,2.6,2.6,3.1,4.5,3.8c-0.4-0.3-0.4-0.4-0.6-0.5c0.5-0.2,2.6,1.9,2.2,1.7c0,0.3,0.5,0.8,0.8,1.1
			c0.3,0.1,0.5,0.1,0.8,0.2c-0.3,0.2-0.6,0.4-0.8,0.5l0-0.2c-1.1,0.9-2.1,1.9-3,3l0.2-0.1c-0.5,1.1-0.8,0.6-1.3,1.6l-0.5,0
			c-0.7,1.1-1.4,2.3-2.1,3.5c0.3-1.1,0.8-2.2,1.5-3.1c-0.5,0.6-1.6,1.7-1.7,2.5c0.1-0.4,0.3-0.8,0.6-1c-0.8,1.3-0.8,2.6-0.1,3.9
			c-0.5,0.1,2.2,3.4,1.5,3.5c-0.4,2.7-7.1,2.8-2.5,7c-0.5-1.3,0.7,0.7,1,0c0.8,0.5,1.9,1.1,2.9,0.5c-0.4,0.5-0.8,1-1.2,1.4
			c-0.3,0-1,1.2-1.3,1.8c0.3,0.1-0.2,0.8,0.4,0.2c0.1-0.3,0.2-0.5,0.3-0.8c0,0,0,0,0,0.1c0.2-0.4,0.5-0.8,0.9-1.4
			c-0.2,0.5-0.4,1-0.9,1.6c0,0.4,0,0.8,0,1c-0.8,0.6-1.5,2.2-1.8,2.4c-0.4,2.3,0.5,4.7,0,6.8c-0.1-0.3-0.1-0.7-0.2-0.9
			c0.2,1.1,0.7,3.3,1.2,3.4c0.4,1.4-0.7-0.6,0.2,1.2l-0.2-0.2c1.4,3.6,5.1,4.6,8.7,4.6c-0.1,0-0.1,0-0.1,0c5.6-0.4,10-3.5,15,0.4
			l-0.1,0.4c2.1,1.2,2,4.2,3,6.1l0.1-0.4c0.2,0.8,0.9,2.6,0.6,2.5c0.1,0.1,0.3,0.2,0.3,0.6l-0.1,0.1c1,2.2,1.2,6.2,2.5,5.1
			c0.2,0.2,0.4,0.4,0.5,0.6c1.5-0.5,0.1-2-0.5-2.7l0-0.5c0.1,0.3,0.3,0.7,0.5,1c-0.1-0.6-0.4-0.9-0.7-1.3c0.2-0.7-0.1-1.3-0.8-1.8
			c0.1-0.2,0.1-1-0.5-2c0.1-0.1,0.2,0,0.3,0.3c-0.3-0.6-0.6-1.8-0.9-2.1c0.1-0.8-0.9-2.3-0.4-2.4c-0.4-0.5-0.8-1.1-1.1-1.7
			c0.5,0.5-0.9-2.3-0.7-2.3c-1.7-1.1-2.2-2.4-4.5-3c0.1,0,0.3,0,0.4,0.1c-0.6-0.3-1.2-0.6-1.8-0.8c-0.8,0.3-1.6,0.4-2.4,0.5
			c-1.2-0.4,0.7-0.4,0.4-0.8c-0.6,0.1-1.1,0.3-1.6,0.6c-0.9-0.2-0.8,0-1.3-0.3c-0.1,0.9-2.7,1.2-2.7,0.4c-1.5,0.5-1.9,1.5-4.1,1.6
			c-0.1-0.1-0.2-0.1,0-0.2c-0.4,0.2-3.6,0.1-3.7-0.6c0.1,0.3,0,0.4-0.1,0.5c-0.5-0.3-1-0.4-1.1-0.7c0.3,0.2,0.4,0.1,0.5,0.2
			c-0.2-0.1-0.4-0.2-0.5-0.2c0.3-0.1,0.6-0.1,0.9,0.1c-0.9-0.5-2.1-1-2.4-2.1c0.1-0.3,1.3,1.5,0.8,0.5c0.2,0.4,0.5,0.7,0.8,1
			c-0.6-1.8-3.6-5.6-2.8-9.1l0.4,0.5c0.1-1.2-0.3-1.6,0.2-2.8c0.3,1.9-0.1,0.4,0.1-0.6l0.4-0.1c0.5-1.7,1.3-3.6,2.7-5.1
			c0.3-2.5,6.6-0.8,8.2-0.9c-0.3-0.1,1.4,0,1,0.1c2.7-0.1,4.7-1.4,7.3-1.8l-0.3,0.2c1.3-0.4,1.3-1.1,2.7-1.2l-0.2,0.1
			c2.3-0.6,8-3,6.5-6.5c-0.4-1-4.2-2.7-4.4-1c-0.3,0-3.1,0.1-2.8-1l0.3,0.1c-0.1-0.1,0-0.4,0.2-0.7c0.2,0,0.4,0,0.6,0.1
			c0.2-0.1,0.4-0.2,0.6-0.3c-0.3,0.1-0.6,0.1-0.6,0c0.9-0.6,2.8-0.7,2.9-0.5c1.1-0.4,2.5-0.8,3.4-1.7c0,0.1-0.2,0.3-0.5,0.6
			c0.7-0.5,1.2-0.4,1.5-1.4c-0.2,0.3-0.1-0.2-0.2-0.2c0.9-1.9-1.9-3.2-3.3-3.4l0.3-0.1c-2.8-0.7-5.8,0.9-7.6,3
			c0.8-0.7,0.9-0.2,0.3,0.4l-0.5,0c0-0.1-1,1.6-0.3,0.2c-0.2,0.4-0.4,0.8-0.6,1.2c-0.1,0,0-0.3-0.1-0.4c0-0.1-1,1.6-0.6,2l-0.1-0.1
			c0.2,0.3,0.2,0.4-0.1,0.4c0.1,0.5,0,0.3-0.2,0.4c-1.3-2.2-4-2.1-5.8-1.3c-0.3-0.3-2,0.7-1.5,0.2c-0.6,0.4-0.6,1-0.3,1.9
			c-2-2-4.7,0.4-5.4,2.4l0.1-0.1c-0.2,1-0.5,2-1.1,2.8c0-0.9-1.6,3.4-2.3,4c-1-2.1-3.2-2,0.7-3.4L98,72.8c0.5-0.3,1-0.7,1.5-1
			c2.2-0.5-2.5-4.9-2.5-6.6c0-2,6-7.3,7.3-7.6c-0.2,0.2-0.3,0.4-0.4,0.6c3.3-2.3,8.7-6.7,4.6-10.9c0.2,0.2,0.3,0.1,0.6,0.4
			c-0.6-1.7-2.1-1.3-2.5-2.1c-0.5-0.7-1.4-2.6-1.3-2.4c-0.4-1.1-0.1-2.6,0-3.7c0.6,0.2,1.1,0.4,1.7,0.8c-0.8,0.1,0.6,0.5,0.6,0.9
			c0.4,0.1,0.8,0.3,1.1,0.5l-0.3-0.4c0.9,0.5,1.9,0.8,2.7,1.4c-0.3-0.1-0.5-0.2-0.8-0.3c0.6,0.3,1.2,0.7,1.8,1l-0.9-0.7
			c1,0.4,0.1-0.5,1.3,0.4c-0.3-0.1,0.9,0.6,1.3,1.1l0,0c1.6,0.3,2.1,0.7,1.3,1.4c0.6,0,2,1.5,2.8,1.7c-0.2-0.1-0.4,0.1-0.3,0.1
			c0.5-0.1,0.7,0.1,0.7,0.6c1.1,1.1,0-0.7,1.2,0.7c-0.1-0.1-0.1,0-0.3-0.2c1.3,1.1,2.5,2.4,3.7,3.7c-0.3-0.1-0.6-0.3-0.9-0.4
			c1.6,1.6,3.6,3.5,4.8,5.5l-0.2-0.4c0.6,0,0.8,1.6,1.6,2.4c-0.2-0.2-0.4-0.2-0.4-0.1c1,1.6,2,3.2,3,4.8l-0.3-0.2
			c0.1,0.4,1.7,3.7,1.8,3.6c0.3,2.9,2.3,5.4,2.2,8.5c-0.3-1.5,0.3,1.6,0.3,1.8c0.2-0.2,0.1-0.3,0.2-0.9c0.2,0.3,0.4,0.9,0.5,1.5
			c-0.3-1-0.4,0.1-0.4,0.5c0.1-0.1,0.2,0.1,0.2,0c-0.2,1.3,0.5,0.1,0.4,1.9l-0.1-0.1c0.1,0.6,0.3,1.2,0.4,1.9
			c-0.2,0.3-0.2-0.7-0.4-0.7c0.1,0.9,0.6,1.9,0.4,2.7c-0.1-0.4-0.1-1-0.2-1.4c-0.3,1.1-0.2,2.2-0.4,3.3l0.1-0.4
			c0.6,1.2,0.1,2.4,0.4,4.1c-0.3-1.6-0.2-0.3-0.5-0.4c-0.1,0.4-0.3,1-0.3,0.8c0.2,0.8-0.3,1.2-0.1,2.3c-0.1,0-0.1,0.8-0.3,0.6
			c-0.1,1,0.2-0.2,0.3-0.1c0.1,2.3-2.1,9-1.9,9.1c-0.4,0.9-0.7,1.5-0.9,2.4c0-0.3-0.8,1.7-0.7,1.6c0-0.2-0.1-0.5-0.1-0.8
			c-0.2,0.8-0.5,1.6-0.8,2.5c-0.3,0.1,0-0.6,0-0.9c-0.4,0.9-0.7,1.8-0.9,2.8l0.4-0.5c0,0-0.2-1.3,0.5-1.3l-0.2,0.6
			c0.8-0.3,1.1-2.3,1.5-3.5l0.2,0.7c0-0.6,0.8-2.1,0.5-1c0,0,0.7-1.5,0.7-1.4l0.2-0.9c0,0.2,0.3,0,0.1,0.5c0.8-1.5,0.6-2.6,1-3.1
			l0,0.1c0.5-2.2-0.2-0.3-0.1-2c0.4-0.3,0.7-0.6,1-0.9l-0.3-0.3c0.1-0.2,0.2-0.7,0.3-0.6c0-0.5-0.2-3.3,0.7-3.6
			c-0.2-0.4-0.3,1-0.3-0.2c0.6-0.3,0.1-1.4,0.4-2.3c0.2,0.3,0,1.3,0.3,0.3C135.7,89.9,136.4,88.6,136.3,87.7z M97.1,80
			C97.1,80,97.1,80,97.1,80c-0.1-0.2,0.1-0.5,0.4-0.7C97.4,79.5,97.2,79.7,97.1,80z M100.2,79c-0.1,0.1-0.1,0.2-0.2,0.2
			C100,79.1,100.1,79.1,100.2,79z M100.2,79c0.1-0.1,0.1-0.2,0.2-0.2l0,0C100.3,78.8,100.2,78.9,100.2,79z M101.4,77.8
			c-0.1,0-0.1-0.2,0.1-0.3c-0.1,0.1,0.4-0.1,0.8-0.3C102.1,77.4,101.8,77.6,101.4,77.8z M117.3,64.5c1-1.3,3.2-2.8,4.9-2.6
			c-0.6-0.1,2-0.6,1.3,0c0,0,0,0-0.1,0c0,0.2,0,0.4-0.1,0.6c0.2,0.1,0.4,0.2,0.6,0.3c-2.6,0.4-5.9,1-7.5,3.4
			C116.5,65.5,116.8,64.9,117.3,64.5z M108.1,70.8C108.1,70.8,108.1,70.8,108.1,70.8C108.1,70.8,108.1,70.8,108.1,70.8
			C108.1,70.8,108.1,70.8,108.1,70.8z M108.5,71.1C108.5,71.1,108.5,71.1,108.5,71.1L108.5,71.1z M108.5,71
			C108.5,70.9,108.5,70.9,108.5,71C108.5,70.9,108.5,70.9,108.5,71C108.5,71,108.5,71,108.5,71z M102.3,72.3l-0.1,0.7
			c0.6-1.4,1.3-2.8,2-4.1c0.1,0,0.2,0.1,0.2,0.2c0.7-0.5,6.1,6.9,5.4,0.7c0.1,0.1,0.1,0.1,0.2,0.2c-0.2-0.7-0.6-0.9-0.7-1.6
			c0.6,0-0.6-0.9-0.6-1.2c0.1,0.1,0.2,0.1,0.3,0.1c0.1-1,1.8-1,2.6-0.7c-0.2,0.4,2.4,3.6,2.5,3.7l0,0.1c1.6,1.7,3.2,1,3.1-1.3
			c0.2,0.1,0.4,0.3,0.6,0.3l-0.2,0.2c1.5,0.8,3.9,0.3,5.4-0.2c0,0.1-0.1,0.1-0.1,0.2c-0.1,0,0.9-0.8,1-0.1c-0.1,0.1-0.3,0.2-0.4,0.2
			c0.1,1.9-2.2,2.6-3.6,3.2c0-0.1,0-0.2,0.4-0.3c1.5-0.5-4.1,0.9-3.5,1.3c-0.2-0.5-4,1.9-3.2,1.4l0.1-0.3c-0.7,0.6-1.7,0.8-1.9,0.8
			c-1-0.1-0.8,0.3-2.1,0.1c0.2,0,0.3-0.1,0.5-0.1c-1-0.1-3.4,0.5-3.9-0.6c-0.2,0.1-0.8,0.2-1.6,0.1c-0.1-0.1,0.2-0.1,0.3-0.2
			c-1.7-0.2-3.1,0.3-4.4,1.4c0,0,0,0,0,0c0.1-0.1,0.2-0.2,0.3-0.4c0,0,0,0,0,0c0.6-0.5,1.3-0.9,2.1-1.1c-0.1-0.4-1.9,0.4-0.5-0.5
			c-0.6,0.3-1.1,0.8-1.6,1.3c0.1-0.3,0.3-0.7,0.5-1.1c-0.3,0.3-0.5,0.7-0.8,1.1C101.1,73.8,101.7,74.4,102.3,72.3z M108.8,70.4
			C108.8,70.4,108.8,70.4,108.8,70.4C108.8,70.4,108.8,70.4,108.8,70.4z M99.8,77c-0.2,0.4-0.6,0.7-1,0.8C98.8,77.7,99.8,77,99.8,77
			z M105.8,46.9c0.5,0.6-0.6-0.1-0.5,0c-0.2,0.4,2.1,2.6,2.1,2.4l-0.2-0.2c0.4,1,0.9,1.6,0.4,2.9c0,0,0-0.1-0.1,0
			c-0.2,1.5-0.9,2.6-2.2,3.5c0.2-0.5,0.4-0.5,0.1-0.5c-0.4,0.3-1.2,2.1-2.2,1.2c0.4-0.2,0.7-0.3,1-0.5c-0.2,0-0.3,0-0.4,0.1
			c1.3-0.9-0.8-4.5-1-5.2c0.7,0.9,0.2-0.5,0.9,1.2c-0.1-0.6-0.3-1.1-0.6-1.5c0-0.8-0.8-2.4-1-2.9c-0.1,0-0.3-1-0.4-0.4
			c0-0.2,0.9-4.9,1.5-3.6c-0.2,0.2,0.5,1.8,0.5,1.9c-0.1,0-0.1,0.1-0.1-0.1C104,45.9,105.2,46.3,105.8,46.9z M104.3,39.7
			c-1-0.1-0.2-0.1-0.5-0.2c-1.1,0.4-4.6,3.1-3.4,4.8c-0.6-0.6,0.7,4.9,0.2,4.1c-0.2-0.3,0.1,0.8-0.2,0.5c0.3,1,0.7,1.9,0.8,1.7
			c0,0.5,0.7,1.9,0.1,1.2c0-0.2-3.5-0.6-3.7-1.3c-0.1,0,1.9,0.9,1.8,0.4c-2.5-0.4-2.1-3.7-2-3.3c-0.3-2.4,0.3-4.8,0.4-7.1
			c0,0,0,0.3,0,0.5c0.1-0.4,0.2-1,0-1c-0.7,1.2,0-1.2-0.5-1.5c0.2,0.4,0.4-1.3,1-0.4c0-0.1-0.1-0.3-0.2-0.5c0.1-0.2,0.1-0.1,0.2,0.2
			c-0.1-0.5,1-0.2,1-0.1c0,0.1-0.4,0-0.5,0.1c0.9,0,1.8,0.1,2.6,0.5c-0.1,0,0,0.2-0.3,0c1,0.3,2.1,0.6,3.1,0.9
			C104.3,39.4,104.3,39.5,104.3,39.7z"/>
		<path class="st0" d="M105.3,99c-0.1,0-0.3,0-0.4,0C105,99,105.1,99,105.3,99z"/>
	</g>
	<path class="st0" d="M75.8,119c-0.5-1-1.9-2.3-3.2-3.1c0-0.1-0.1-0.2,0.1-0.1c-1.1-0.3-2-1.2-3.1-1.6c0-0.1,0-0.1,0-0.1
		c0,0.2-0.1,0.4-0.2,0.5c-0.4-0.3-0.8-0.4-0.8-0.7c0.2,0.2,0.3,0.2,0.4,0.2c-0.1-0.1-0.3-0.2-0.4-0.3c-0.1-0.6,0.6,0.4,0.7,0.2
		c-0.8-0.5-1.7-1.1-2.1-1.8c0.2-0.3,1.2,1.2,0.8,0.3c0.2,0.3,0.4,0.6,0.7,0.9c-0.5-2.3-3.9-4.3-5.2-6.8l0.6,0.1
		c-1-1.2-1-0.3-1.9-1.7c1.5,0.4,0.4,0.5-0.5-0.4l0.1-0.4c-1.3-1.1-3-1.9-4.8-2.5c-0.3,0.1-6.2-2.4-7.7-2.2c0.2,0.1-1.2,0-0.7-0.1
		c-1.9,0-3.7-0.4-5.4-1.2l0.3,0c-1.2-0.6-2.2-0.2-3.3-0.9l0.3,0.1c-1.5-0.7-3.3-1.5-5-2.3c0.1,1.1,4.4,7.7,4.9,4.9
		c-0.2-0.1-0.5-0.1-0.6,0c-1.3-1.1-2-2-3.6-2.6l0.2-0.2c-0.2,0-0.3,0-0.4-0.2l0.3-0.6l-0.2-0.6c0,0.3,0,0.6-0.1,0.5
		c-0.4-0.9-0.2-2.4-0.1-2.5c-0.2-0.8-0.4-1.5-0.6-2.3c0.1,0,0.2,0.4,0.3,0.7c-0.5-1.2,0.3-0.3-0.1-1.4c-0.1,0.2-0.2-0.1-0.3-0.1
		c0.1-0.6,0-1.9-0.1-2.8l0.2,0.2c-0.1-1.7-0.2-3.7-0.1-5.6c-0.1,0.7-0.5,0.5-0.5-0.1l0.3-0.2c-0.1-0.2,0-1.1,0.1-0.2l-0.1-0.9
		c0.1,0,0.1,0.2,0.3,0.2c-0.2-0.4,0.5-1.5,0.2-2l0.1,0c0.3-1.9,0.3-2.8,0.6-4.4c-0.8-0.3,1-4.9,1-5.7c0.3,0,0.7-1.3,0.6-0.6
		c0.2-0.6,0.4-1.1,0.5-1.7c0.1-0.1,0.2,0,0.4,0.1c-0.1-0.2-0.2-0.3-0.1-0.4c0.2,0.1,0.4,0.4,0.3,0.5l-0.1,0c2.6,0.7,3.7,5,7.3,3.3
		L46,70.6c0.1,0,2.8-1.8,2.6-1.8c0,0.2-0.1,0.4-0.2,0.6c0.1-2.2,1.1-3.5,0.5-6.1c0.8-1.4,0.8-2.9,3.1-1.8l-0.1-0.2
		c0.5-0.1,0.5,0.2,0.8,0.3c0,0.2,11.4,2,8.8,7.2l-0.2-0.6c0,0.1-0.9,5.5-2,6c-0.3,1.3,0.5-0.2,0.4-1.3c-0.7,1-1.7,2.4-2,3.5
		c0-0.2-0.1-0.3,0.1-0.6c-0.6,0.8-0.8,1.7-0.7,2.6c-0.1,0.6-0.6,2.6-0.6,2.2c0.1,0.5-0.1,2.1,0.2,1.7c0.1-1-0.2,5.1,0.5,5.3
		c-0.5,0-0.2,2-0.1,2.6c-0.1-0.2-0.2,0.5-0.4,0.3c0,0.3-0.1,0.6,0,0.6c0,0.1,0.1,0.2,0.2,0.2c-0.8,0.1-2.1,0.5-2.8-0.1
		c-2.2,0.1-5.3-0.1-7.3,1.2c-0.3-0.7,2.7-0.8,2.5-1.3c-2.4,0.5-4.6,4.1-4.6,3.8c-0.3,2.6,1.2,6.2,4.3,4.4c0,0-0.2,0.2-0.4,0.3
		c0.4-0.2,0.9-0.3,0.8-0.5c-1.3,0.2,0.8-0.6,0.7-1.2c-0.3,0.8,1.7-0.6,1.1,0.5c0.2-0.1,0.4-0.3,0.3-0.4c0.3-0.1,0.4,0,0.2,0.2
		c0.4-0.4,1-0.5,1.5-0.6c0,0.1-0.2,0.1-0.3,0.2c0.6-0.3,1.1-0.2,1.6,0.3c-0.1,0,0,0.1-0.3,0c1.3,0.8,2.4,1.4,3.6,2.9
		c-0.7-0.1,0.4,0.6,0.2,0.9c0.3,0.2,0.6,0.4,1,0.6c-0.1-0.1-0.2-0.3-0.3-0.4c0.8,0.5,1.7,0.9,2.7,1c-0.3,0.1-0.6,0-0.9,0
		c0.8,0.3,1.5,0.2,2.2-0.3c-0.4,0.2-0.8,0.3-1.2,0.2c0.3-0.1,0.8-0.6,1.1-0.8c-0.2,0.2,0.8-0.5,1.2-0.7l0,0c0.5-1.3,0.9-1.6,1.4-0.8
		c0.1-0.6,1.4-1.4,1.7-1.9c-0.1,0.2,0,0.3,0.1,0.3l0.2-0.4c0.4-0.1,0.4-0.1,0.4,0.1c1.2-0.3-0.8-0.5,0.9-0.5c-0.1,0-0.1,0.1-0.3,0.1
		c1.4-0.2,2.8-0.2,4.1-0.2c-0.2,0.1-0.5,0.3-0.7,0.4c2-0.2,3.9-0.2,5.9-0.1l-0.3-0.1c0.3-0.5,1.4,0.4,2.3,0.3
		c-0.2,0-0.3,0.3-0.3,0.2c1.3,0.3,2.6,0.2,4.6,0.5l-0.3,0.1c-7.1-2.7,3.9,1.7,3.2,0.7c1.4,1.1,5,1.7,4.3,4.2c-0.3-1-0.3-0.5-0.1,1.4
		c0.3-0.1,0.2-0.2,0.4-0.6c0.1,0.3,0.2,0.8,0.1,1.3c0-0.9-0.4,0-0.6,0.3c0.1-0.1,0.1,0.1,0.2,0.1c-0.6,0.9,0.4,0.2-0.1,1.5l-0.1-0.1
		c0,0.5,0,1-0.1,1.6c-0.3,0.2,0-0.6-0.2-0.6c-0.1,0.8,0.2,1.6-0.3,2.2c0-0.3,0.1-0.8,0.1-1.1c-0.5,0.7-0.4,0.8-0.6,1.3l0-0.1
		l-0.4,1.2l0.2-0.3c0.4,1.1-0.4,2-0.2,3.3c-0.1-1.3-0.2-0.3-0.5-0.4c-0.2,0.3-0.4,0.8-0.4,0.6c0.1,0.7-0.4,1-0.3,1.9
		c-0.1,0-0.2,0.6-0.4,0.4c-0.1,0.8,0.2-0.1,0.3,0c0,1.6-1.8,7.6-1.6,7.5c-0.3,0.7-0.4,1.3-0.5,2c-0.1-0.4-0.5,1.6-0.4,1.4
		c-0.1-0.2-0.2-0.4-0.2-0.7c-0.1,0.7-0.1,1.4-0.1,2.1c-0.2,0.1-0.2-0.5-0.2-0.8c-0.1,0.8-0.3,2.1-0.1,2.4l0.2-0.5
		c-0.5-0.1-0.5-0.5,0.2-1.1l-0.1,0.5c0.7-0.4,0.4-2,0.6-3l0.3,0.5l-0.1-1.1c0.2-0.2,0.4-0.3,0.4,0.2c0,0.1,0.5-1.3,0.5-1.2l0.1-0.7
		c0.1,0.2,0.3,0,0.1,0.4c0.6-1.2,0.2-2.1,0.6-2.5l0,0.1c0.3-1.8-0.3-0.2-0.3-1.6l1-0.7l-0.2-0.2c0.1-0.2,0.2-0.5,0.3-0.4
		c0-0.7-0.2,0.1-0.2-0.4c0.5-0.8,0.5-2.4,1-2.5c-0.1-0.4-0.4,0.8-0.3-0.2c0.6-0.1,0.2-1.1,0.6-1.8c0.2,0.3-0.1,1,0.3,0.3
		c-0.3-0.6,0.5-1.5,0.6-2.2c-0.3-0.1,0.2-1.5,0.4-2.7c0.1,0.1,0.7-2.1,1-3.1l0.1,0c-0.3-0.3,0-1.4,0-2.2c0.2,0.1,0.3,0.2,0.3,0.7
		c0.2-0.7,0-1,0-1.7l0.3,0.2c0.1-1.4-0.3-2.5-1-3.7c0,0.7-0.3,0.8-0.9,0.4c0.1-0.1,0.2-0.3,0.5-0.1c-0.1-0.1-0.4-0.2-0.5-0.4
		c0.2,0.1,0.4,0.1,0.6,0.2c-0.4-0.5-0.4-0.1-0.7-0.4c0.1-0.2-0.2-0.3-0.1-0.4c0.1,0,0.3,0.3,0.5,0.4c-0.4-0.4-1-0.9-1.1-1.1
		c0,0.5-2-1.4-2.2-0.7c-0.3-0.1-0.3-0.3-0.4-0.4c-0.8-0.1-1.6-0.4-1.8-0.1c0,0-0.1,0-0.1,0l0,0c-1.7-0.3-3.6-0.9-5.2-1l0-0.1
		c-1.4,0.5-2.6,0.4-3.6-0.4c-0.8,0-0.9,0.1-2-0.1c0.8-0.1-0.3-0.2,0.8-0.1c-1-0.1-1.2-0.3-2.3-0.1c0.4-0.2-0.8-0.3-1.3-0.3l0.7,0.2
		c-0.5,0-1,0-1.5,0l0.3-0.3c-2-0.1-3.9,0.4-5.6,1.4c0.8-1.2-2.2,2.5-3,3c-0.3,0-0.4,1.2-0.6,0.4c0.2-0.1,0.4-0.3,0.1-0.3l0,0.1
		c-0.1,0-0.8-0.2-0.6-0.2c-0.7-0.1-0.1,0.2,0,0.3c-0.8-0.3-1.7-1-2.2-1.6c0.4,0.7-3.4-3.1-1.7-2.1c-1-0.7-1.7-1.7-2.4-2.1
		c0.2,0.1,0.5,0.2,0.7,0.3c-0.4-0.2-0.7-0.3-1.1-0.5l0.3,0.4c-0.3-0.2-0.8-0.4-0.7-0.5c-0.5,0-2,1.1-2.7,0.5c1.3-0.3,0-0.5,1.3-0.6
		c-1.1,0.4-1.5,0.4-1,0.1c-1.3,0.1-0.9,0.6-2.1,1.2c0.1-0.2-0.5-0.1-0.7,0c0.7-0.3-0.8,1-1.3,1.2c0.2,0,0.3-0.1,0.5-0.1
		c-0.2,0.3-0.5,0.4-0.9,0.5c0-0.1,0.4-0.2,0.2-0.2c-1.1,1.2-0.4-3.6-0.4-3.2c-0.3,0.1-0.3,0.2-0.2-0.4c-0.2,0.4-0.2,0.9-0.2,1.5
		c-0.1-0.3-0.2-0.7-0.2-1.1c-0.2,0.5,0,1,0,1.4c-0.2-0.5-0.1-0.5-0.3-0.2c0-0.8,0.2-1.4,0.7-2.1l0.4,0.4c0.9-0.8,2-1.1,3.2-1.1
		L50,93.3c0.2-0.3,1.1-0.1,1.7-0.1c-0.1,0.2,0.3,0.3,0.5,0.4c0-0.2,1.3,0.1,1.5-0.3c1.3,0.4,3.1,0.3,4.2-0.7
		c-0.2,0.4-0.1,0.7-0.7,0.9c0.5-0.1,0.9-0.4,1.1-0.8c0.4-0.7,0.6-1.4,0.6-2.2c-0.5-0.6-0.5-0.9-0.1-0.9c-0.1,0-0.1-0.9-0.4-0.4
		c0.9-2.3-0.1-6.2,0-8.6c0.1,0.1,0.1,0,0.1,0.2c0.1-0.4,0.6-2.6,0.2-1.9c0.4-0.7,0.8-1.5,1.1-2.3l-0.1,0.2c0.2-0.2,0.4-0.5,0.5-0.9
		l-1,0.3c1.2,0.3,1.8-1.1,2.2-1.8c0,0,0,0.1,0.1,0.1c0.1-1,0.6-2.5,0.8-3.7c0.1,0.4,0,0.6,0.3,0.4c0.1-0.4-0.5-2,0.6-2.1l-0.3,1
		c0.5-0.4,0.3-1.3,0.5-1.8l0.1,0.1c0.2-1.2,0-2.5-0.5-3.6l0,0.2c-0.3-0.5-0.6-1-1.1-1.5c0-0.2,0-0.3,0.1-0.5c-1-0.6-2-1-3.2-1.3
		c0.7-0.1,2,0.3,2.8,0.8c-0.5-0.4-2-1.1-2.3-1c0.2,0.1,0.6,0.1,0.8,0.3c-0.8-0.1-1.8-0.3-2.9-0.6c0.2-0.3-4.2-2.6-3.6-1.9
		c-2.5-0.3-6.4-1.4-7,2.3c0.8-1-0.2,0.9,0.5,0.7c0,1.5-0.5,2.2-0.6,2.2c0.1,1.2-0.2,0.6-0.3,1.3c0.2-0.2,0.4,0.4,0.2,1
		c0.1-0.3,0.2-0.5,0.3-0.9c0.3,1.3-0.2,1.1-0.5,1.9c0-0.1,0-0.2,0-0.2c-0.1,0.4-2.7,0.8-2.5,0.8c-0.1-0.1-0.2-0.3,0.1-0.3
		c-2-0.7-4.1-2.5-5.9-3.7c0.1,0,0.1,0,0.2,0c-1-0.5-0.8-0.4-1.3,0.3c0-0.2-1,2.4-1,2.4c0-0.2,0.1-0.5,0.1-0.7
		c-0.8,1.7-0.9,3.4-1.3,5.2c-0.4-0.1-1,1.5-1.3,2.3l-0.1,0c-1.1,4.3-1,9.3-1.3,13.7c0.1-0.4,1,2,0.4,1.9l0-0.2
		c-0.4,0.4-0.1,1.5-0.1,2.4l0.5,0.1c-0.6,2.8,0.8,5.3,1.8,7.6c0.5,0.2,1.1,0.6,1.6,0.8l-0.2,0.2c0.5,0.4,6.3,3.7,5.3,0.3
		c0.4,0.5-0.2,1.4-0.6,1.6c0.6-0.3,0.8-1,0.8-1.6c-0.5-0.2-1.1-0.5-1.5-0.9c0.2,0.1,0.4,0.2,0.7,0.3c-0.2-0.1-0.2-0.2-0.2-0.3
		c0.1,0.2,0.3,0.2,0.4,0c0.1,0.1,0.2,0.3,0.2,0.3c0.3,0.3,0.5,0.3,0.6-0.1c-0.1,0.6,3.1,0.8,2.7,0.7l-0.2,0.2c0.7-0.1,1.8,0,2,0.1
		c0.9,0.3,0.8-0.1,1.8,0.3l-0.4,0.1c0.7,0.2,2.9-0.4,3.3,0.6c0.1-0.1,0.7-0.3,1.2-0.1c0.1,0.1-0.2,0.1-0.3,0.1
		c1.5,0.5,2.3,0.1,3.2,0.7c0,0.1,0,0.2,0.1,0.2c-1.1-0.4-2.1-0.6-2-0.6c0,0.2,0.9,0.5,0,0.7c0.3,0,2.9-0.1,3,0.6l-0.1,0
		c0.4,0.1,0.8,0.3,1.2,0.6c0,0.2,0.9,0.6,1.2,0.9c0.1-0.3,0.6,0.1,0.3-0.4c-0.2-0.1-0.4-0.2-0.5-0.3l0,0c-0.3-0.2-0.6-0.4-1-0.6
		c0.4,0,0.8,0.1,1.2,0.6c0.3,0,0.6,0,0.8,0c0.3,0.7,1.1,1.7,1.1,2c0.7,0.5,3.3,2.6,3.4,3.7c-0.2-0.2-0.3-0.4-0.5-0.5
		c0.6,0.6,1.5,2.1,1.9,2.1c0.5,1-0.7-0.3,0.3,0.9l-0.2-0.1c1.4,2.8,4.8,2.8,6.4,5.2c-0.1-0.2-0.2-0.3-0.2-0.3
		c3.5,3.3,2.7,7.9,4.5,11.8l-0.3,0.3c0.6,1.8,0.3,4,1.2,5.7l0.1-0.3c0.1,0.6,0.3,1.3,0.5,1.9c0.2,0,0.4,0,0.5,0.2
		c0.1,0,0.4-0.2,0.7,0l0,0.2c2.1,0,4.8,1.1,4.6-0.2l0.7-0.1c0.4-1.4-1.2-1.4-2.1-1l-0.4-0.2l0.9,0c-0.5-0.2-0.9-0.1-1.3,0.1
		c-0.3-0.5-1.2-0.1-1.6,0.1c-0.5-0.8,0.2,0-0.6,0c-0.3-0.2,0-0.4-0.4-0.2c0.1-0.1,0.2-0.2,0.3-0.2c-0.3,0.1-0.2-0.4-0.5-0.5
		c0.1-0.6-0.5-1.8,0-1.9c-0.1-0.2-0.5-0.9-0.6-1.4c0.7,0.8-0.3-1.9,0.3-1.8c-0.6-0.6-0.6-2.5-1.2-3.7c0.1,0.1,0.2,0.2,0.1,0.3
		c-0.1-0.7,0-0.9,0-1.4c-0.4,0-0.7-1.1-1.1-1.6c0.1-1,0.6,0.4,0.9,0c-0.3,0.1-0.7-1.4-0.9-1.1c0-0.7-0.1-0.6,0.1-1
		C75.1,121.3,75.7,119.1,75.8,119z"/>
	<path class="st0" d="M121.9,38.7c-0.7-0.5-3.9-2.6-4.4-2.7c-2-0.1-3.4-0.9-4.3-2.3c0.4,1-2.4-0.2-0.7,0c1,0.4-3.6-2.6-2.1-1.5
		c0.5,0.3,0.9,0.5,1.3,0.8c-4.3-5.4-23.6-9.3-31.4-6.9c-0.3,0.4-0.7,0.5-1,0.1c-2,0.4-5.5,1.3-7.6,1.4l0.4-0.2
		c-1.6,0.2-1.6,1-3.1,1.1l0.3-0.1c-7.4,1.7-15,5.6-20.5,9.7c1.3-0.9-5.5,5.2-3.9,3c-3,4-5.8,5.4-9,10c0.5-0.6-0.6,1.3-0.3,0.6
		c-2.6,3.7-7.5,11.5-8.1,17c-0.6,1.9-0.9,3.8-1.2,5.8c0.8-1.5-0.4,0.9-0.1,0.5c-0.2,2.8-1.9,7.1-1.2,10.2l0-0.1
		c1.7,14.9,3.9,26.7,12.4,37.5c2.9,3.1,5.6,6.5,9,8.9c-0.2-0.1-0.3,0-0.6-0.3c-0.1-0.1,5.8,4.4,4.7,3.8c0.5,0.2,2.2,1.5,1.9,0.9
		c0.6,0.5,5.6,3.7,6.3,3.2c-0.3,0.4,2.3,1.5,3.3,1.6c10.8-0.1,13.3,6.2,19.8,4.5c0.7,0,8-0.3,7.4-0.2c0.2,0,3.9-0.5,3.8-0.4
		c0.4-0.5,0.6-0.5,0.8-0.1c2.6-1.2,3.4-1.3,2.2-0.5c2.8-1.3,3.6-1.5,2.5-0.7c2.3-0.6,7.7-2.5,7.9-2.6c1.1-0.5,2-1.1,2.9-1.4
		c-0.2,0.2-0.5,0.3-0.7,0.5c0.7-0.3,1.3-0.7,2-1l-1.2,0.4c1-0.7-0.3-0.4,1.1-1c1.6-0.8,2.2-1,1.7-0.6c2-1.7,2.8,0.3,4.7-2.9
		c-0.6,0.8,2.2-1.4,1.9-1.2c-0.1,0.1,0,0.1-0.3,0.3c7.2-4.6,1.9-0.7,9.4-8.3c-1.1,1.1-0.5,0.4,1.8-2c-0.2,0.4,3.3-4.4,3.5-4.7
		c-0.4,0.2,2-3.3,2.1-3.4c2.4-2.6,2.7-5.9,4.3-8.4c0,0.1,0.1-2,0.4-2.8c0.8-3.9,1.9-5.3,2.4-6.8l0,0.1c0.2-0.6,0.3-1.1,0.5-1.7
		c-0.4,1.2-0.2-4.2-0.1-4c0.5,0.7,0.8,0.6,0.9-0.4c-0.7-3.8-0.3-10.8-0.8-13.2c0-1-0.1-1.8-0.4-2.8c0.1,0.2-0.9-3.3,0.2-1.1
		c-0.1-0.3-1.8-4.1-0.4-1.9c-1.1-3.2-1.4-3.9-1.1-2.2c0.3,0.8,0.7,3.7,0.7,4.3c0.9,1.1,1,1.5,0.2,1.2c0.7,1.3,0.7,1.9,0.1,1.7
		l0.3,0.9c-0.1-0.2-0.3,0.2-0.3-0.4c0.6,3.4,0.7,4.5,0.3,3.2c0.9,6.9,0.2,13.4-2.4,20.7c-0.2,3.1-0.4,3.7-0.6,1.9
		c-0.5,1.5-1.9,6.3-1.8,6.2c-0.1,0.3-0.7,1.7-0.6,0.6c-1.1,2.2-2.8,4.9-3.6,6.7c0,0,0,0.1-0.1,0.1c0,0,0,0,0,0
		c-2.4,3.7-5.5,8.2-9.1,10.8c0.6-0.8-0.4,0.1,0.7-0.8c-1,0.8-1.3,0.9-2.2,2.1c0.2-0.5-1,0.4-1.4,0.9l0.8-0.5
		c-3.3,3-12.7,6.4-14.4,8.5c-0.8,0.5-0.3,0.3,0.4,0.1c-1.5,0.4-2.3,1-3.9,1.4c3.1-0.3-5.1,1.9-3.4,0.9c-1.3,0.7-2.7,0.6-3.5,0.7
		l0.7-0.3c-0.5,0.2-5.4,1.4-2.7,0.8c-1.1,0.4-1.5,0.4-1,0.1c-1.1,0.8-2.3,1-3.4,0.5c-0.4,0.8-1.1,1.1-2.2,0.7
		c0.7-0.1-5.9-0.5-8.3-0.1l2.6,0l-1.7,0.3c0.8,0,1.6,0,2.1,0c-0.8,0.2-0.7,0.1-0.3,0.3c-1.9-0.8-7.1-1-8.9-1.4
		c1.4,0.5-10.7-2.8-8-2.2c-1.1-0.4-4.4-0.7-4.9-1.2c-1.5-1.4-7.9-4.4-9.4-5.7c-3.4-3.1-1.8,0.6-4.7-4l0.3,0.2
		c-6.3-8.8-8.5-7.3-14.5-17.5c0.6,0.6,1.5,2,2.2,2.8c-0.4-0.7-1.3-2.3-1.7-2.6c-2.7-3.8-5.5-16.5-5.5-22.2l-0.2,1.3
		c-0.6-2.2,0.4-2-0.1-4.2l0.2,0.7c-2.1-4-2.1-5.8-0.1-5.4c0.3-3.3,1.2-9.8,1.7-11c2.8-8.5,5.6-17,12.7-23.5
		c5.2-4.1,10.2-9.7,17.2-13.2c0.9-0.5,7.5-3.1,8.7-3.5c3.1-1.1,7.3-2.6,9.5-2.6c2.5-0.6,3.1-0.6,1.8-0.1c1.4-0.1,5.3-0.3,5.5-0.3
		c1.5,0.1,3.2-0.2,4.7,0.3c-2.4-1-3.3-0.9-2.5,0.5c0.9-0.1,3.8-0.1,4.1-0.1c0.7,0.1,4.5,0.5,4,0.3c-0.3,0-0.6-0.1-0.8-0.1
		c0.6-0.2,0-0.3-1.6-0.2c3-0.4,11.3,2.7,11.1,2.7c1.8,0,3.3,0.5,4.5,1.6c1.5,0.7,7.4,3.4,9,4.9c6.8,6.2,23.3,27,22,23.9
		c-0.1-1.4-2.6-5.3-2.4-5.1c-1.5-1.9-2.6-3.9-4-5.8c-1-0.6-3.3-4.8-4.6-5.8c0.1,0,0.3,0.1,0.4,0.3c-1.3-1.6-3.8-2.8-4.1-3.7
		C123.5,40.3,122,39,121.9,38.7z M90.8,26.9c0-0.2,0.3-0.2,0.7,0C91.4,26.9,91.2,26.9,90.8,26.9z M88,26.6
		C90.3,26.8,88.9,26.8,88,26.6z M93.6,29.2c-1.7-0.1,0.2-0.1,0.2-0.1C93.8,29.1,93.7,29.2,93.6,29.2z"/>
</g>
<g class="st1">
	<path class="st0" d="M169.8,190.2C170.1,189,169.6,189.8,169.8,190.2z"/>
	<path class="st0" d="M168.2,187.7c-0.3,0.6-0.6,1.8-0.4,3c0.2-2.5,0.6-3,1-1.3C169.2,187.8,168,189.7,168.2,187.7z"/>
	<path class="st0" d="M144.2,185.7l0.2,0.2C144.3,185.7,144.3,185.7,144.2,185.7z"/>
	<path class="st0" d="M129.4,184.9c0.1,0,0.2-0.2,0.2-0.3C129.4,184.7,129.4,184.8,129.4,184.9z"/>
	<path class="st0" d="M126.8,183.5c0.1,0,0.1,0.1,0.1,0.1C126.9,183.4,126.9,183.4,126.8,183.5z"/>
	<path class="st0" d="M144.2,185.7l-0.4-0.4C143.8,185.7,144,185.6,144.2,185.7z"/>
	<path class="st0" d="M164.9,190.9C165.4,190.6,164.9,190.5,164.9,190.9z"/>
	<path class="st0" d="M150.8,184.6c0.3,0,0.3-0.1,0.2-0.5L150.8,184.6z"/>
	<path class="st0" d="M155.8,184.4c-0.1,0-0.2,1.1-0.2,1.6C155.9,185.5,155.9,184.9,155.8,184.4z"/>
	<path class="st0" d="M163.8,186.4l0.1-0.2C163.9,186.3,163.8,186.3,163.8,186.4z"/>
	<path class="st0" d="M147.2,184.3c0-0.2,0-0.3,0-0.4C147.1,184.1,147.2,184.2,147.2,184.3z"/>
	<path class="st0" d="M6.7,192.8c0-0.1,0-0.1,0-0.2C6.6,192.7,6.6,192.8,6.7,192.8z"/>
	<path class="st0" d="M0.8,187.2c0.2-0.1,0.3-0.4,0.1-0.7L0.8,187.2z"/>
	<path class="st0" d="M122.2,182C122.2,182,122.2,182,122.2,182C122.3,181.9,122.3,182,122.2,182z"/>
	<path class="st0" d="M79.6,182.9c0.5,1-0.8,1.3-0.1,2.4C79.5,184.8,80.2,183.5,79.6,182.9z"/>
	<path class="st0" d="M164.8,190.8c-0.1,0-0.1,0-0.2,0C164.7,190.8,164.7,190.8,164.8,190.8z"/>
	<path class="st0" d="M79.6,185.3c0,0,0,0.1,0.1,0.1C79.6,185.3,79.6,185.3,79.6,185.3z"/>
	<path class="st0" d="M111.5,182.7c0,0.2,0.1,0.3,0.1,0.5C111.6,183.1,111.6,182.9,111.5,182.7z"/>
	<path class="st0" d="M119.5,184.3l-0.2-0.2C119.4,184.3,119.4,184.3,119.5,184.3z"/>
	<path class="st0" d="M107.4,184.3C106.3,183.5,107.7,184.8,107.4,184.3z"/>
	<path class="st0" d="M103.1,184.3C103.1,184.5,103.4,184.7,103.1,184.3z"/>
	<path class="st0" d="M19.8,192.3c-0.1-0.3-0.2-0.7-0.2-1C19.6,192,19,192.3,19.8,192.3z"/>
	<path class="st0" d="M164.9,190.3C164.8,191.6,164.9,190.3,164.9,190.3z"/>
	<path class="st0" d="M107.2,193.2l-0.7-0.2C106.7,193.1,107,193.2,107.2,193.2z"/>
	<path class="st0" d="M50.6,192.1l-0.2,0.1C50.5,192.3,50.6,192.2,50.6,192.1z"/>
	<path class="st0" d="M104.5,193.2C104.2,192.3,103.8,192.2,104.5,193.2z"/>
	<path class="st0" d="M19.6,191.2C19.6,191.2,19.6,191.2,19.6,191.2C19.6,191.2,19.6,191.2,19.6,191.2z"/>
	<path class="st0" d="M28.5,184.2C27.9,184.7,29.1,184,28.5,184.2z"/>
	<path class="st0" d="M144.4,185.8L144.4,185.8c0,0,0,0.1,0,0.1C144.4,185.9,144.4,185.9,144.4,185.8z"/>
	<path class="st0" d="M49.2,192.6C49,192,49.2,192.6,49.2,192.6z"/>
	<path class="st0" d="M151.5,189.7c0,0.1,0,0.2,0.1,0.3C151.5,189.9,151.5,189.8,151.5,189.7z"/>
	<path class="st0" d="M154.5,190l0.4,0.4C154.7,190.1,154.6,190,154.5,190z"/>
	<path class="st0" d="M156.8,190.5C156.8,190.5,157,189.2,156.8,190.5z"/>
	<path class="st0" d="M119.6,191.8C119.6,191.8,119.6,191.9,119.6,191.8C119.3,192.1,119.5,192,119.6,191.8z"/>
	<path class="st0" d="M130.7,189.2c-0.1,0.2-0.2,0.4-0.4,0.5C130.6,189.8,130.7,189.8,130.7,189.2z"/>
	<path class="st0" d="M107.3,193.2C107.3,193.1,107.3,193.1,107.3,193.2L107.3,193.2z"/>
	<path class="st0" d="M129.8,189.7c0.2,0.2,0.4,0.2,0.5,0C130.2,189.7,130,189.5,129.8,189.7z"/>
	<path class="st0" d="M167,191C167.1,191,167.3,190.9,167,191z"/>
	<path class="st0" d="M167.1,190.9l0.1-0.1C167.2,190.8,167.1,190.8,167.1,190.9z"/>
	<path class="st0" d="M167.5,190.5l-0.3,0.3C167.3,190.8,167.4,190.8,167.5,190.5z"/>
	<path class="st0" d="M163.9,190.5l0,0.4C163.9,190.8,163.9,190.7,163.9,190.5z"/>
	<path class="st0" d="M162.9,190.6c0.6,0.8,0.9,0.9,0.9,0.3C163.7,191.5,163.2,189.9,162.9,190.6z"/>
	<path class="st0" d="M159,185.6C160.6,185.1,159.6,185.7,159,185.6z"/>
	<path class="st0" d="M156.6,185c0.4-0.2,0-0.6,0-0.9C156.3,184.5,156.3,184.6,156.6,185z"/>
	<path class="st0" d="M138.9,184.9l0-1C138.6,184.1,138.9,184.3,138.9,184.9z"/>
	<path class="st0" d="M135.5,190.2C136.5,190.7,135.7,190.3,135.5,190.2z"/>
	<polygon class="st0" points="133.5,182.9 133.7,182.8 133.1,183.2 	"/>
	<path class="st0" d="M103.8,183.3l0.1,1.3C104.2,184.3,104.2,182.9,103.8,183.3z"/>
	<path class="st0" d="M91,184.6c-0.1-0.6-0.5-1-0.7-0.4C90.6,184.3,90.9,184.8,91,184.6z"/>
	<path class="st0" d="M52.6,182.5l0.3-0.4C52.3,182.3,52.2,182.5,52.6,182.5z"/>
</g>
<path class="st0" d="M163.8,186.4c-0.6,0.8-0.6,0.6-0.2-0.4c-1.8-2.2-4,6.6-3.2,0.7c-0.1-0.1-0.1-0.3-0.2-0.5
	c0.1,1.9-0.5,1.9-1.8-0.1c-0.1,0.5-3.5-0.4-6.1-1.2c0.1-1.6-5.4,3.5-3.9,2c0,0-0.8-0.7-1.2-2.4c0-0.4-1.9,1.6-2.7,1.6
	c-3.4,0.3-5.4-0.9-6.1-1c-0.6-0.3-0.8-1-1.4,0.1c0-0.1-2.3-0.6-4.4-0.9l1,1.9h-27.1c0,0.1,0,0.3,0.1,0.5c-0.1-0.2-0.1-0.3-0.2-0.5
	H88.6c-0.2,0.1-0.5,0.2-0.7,0.3c0-0.1,0-0.2,0-0.3H33.6l0.4-0.8c-0.2-0.1-0.4-0.4-0.5-1.1c-0.1,1-3,1.8-1.6-2.5
	c-0.8,1.3-2.6,1.4-3.4,1.8c-0.6-1.9-9,5.5-11.6,1.5c-0.9-1.2-12.6,1.3-12.6,0.4c0.5-1.8-7.7,0.6-2.9,6.9c0.5-0.3,3.4-1.1,3-0.2
	c0.8-1.4,1.4-1.2,2.1,0.5c0.9-2.2,1.5-1.9,2,0.9c0.4-1.8,1.4-1,2.2-1.7c0.3-1.1,1.2-3.1,1.7,1.7c0-1.3,0.9-1.3,0.7-2.3
	c0.4,0.9,0.3,0.5,0.6,1.8c0.1-3,1.1-0.7,1.2,0.6c0.6-0.7,2.5-1.9,2.3-1.1c1.3-1.9,2.1-2.3,2.2-1.2c-0.3-2.5,0.4-2.4,0.3-1.6
	c1.8,0.4,14,6,15.6,2.8c5.5-6.2,16.5,1.3,17.2,0.2c0,0,4.8-0.7,6.2-0.8c0.1-1.7,0.1-1.7,0.1,0c0.3,0,0.3,0,0,0.1c0,0.2,0,0.3,0,0.5
	c0.7-0.8,0.8-0.6,0.4,0.6c0.2-0.8,1,1.3,1.3-0.1c4.4-1.3,7.4-1.9,9.7-1.7c1.5-1.5,3.4,3,4.6,0.9l-0.1,0.1c5,0.2,24.5,2.7,26.3,0.9
	c0.8-1.5,4-0.1,4.1-2c0,1.8,1.2,1.5,1.7,0.6c0,1.8,0.3,1.8,1.1,0c0.7,1.6,12.4,1.7,12.7-3.5c-0.8,5,2.1,2,1.9,3.3
	c1.2-1.5,1.6-1.7,1.2-0.7c2.3-0.3,9.2-1.5,9.3-2.1c-0.8,2.1,3.9-0.1,6.6,0.7c-0.6-0.4-0.2-0.4,1.2-0.1c-0.7,0.7,4.7,0.6,4.5-0.4
	c3,5.9,4.3-2.9,5.9,0.6c0-0.3,0-0.6,0-0.9c-0.6-1.6,3.3,1.3,3,1.1l0,0c0.9,1,1.7,0,2.6-2.1c-0.4,1.2-0.4,2.3,0.2,3.3
	c0.2-0.6,5.1-2.8,7.1-2.4C164.1,188.2,164.1,185.9,163.8,186.4z M30,190.6c0.1,0,0.2,0,0.3-0.1C30.3,190.6,30.2,190.7,30,190.6z
	 M31.5,190.5C30.9,190.3,30.8,189.1,31.5,190.5L31.5,190.5z"/>
<path class="st0" d="M79.1,152.2c-3-0.4-1.5,0.2-2.1,0.3c-1.8-0.1-2.3-0.3-2.4-0.4c-0.1-0.1,0.1-0.2-0.5-0.4
	c-2.3-0.4-4.1-0.3-5.7-0.8c-0.1-0.1-0.4-0.2,0-0.2c-2.4-0.3-6.9-2-9.6-2.9c-0.2-0.1-0.3-0.2-0.3-0.2c0.3,0.4,0.3,0.6,0.2,0.6
	c-1.3-0.6-2.5-0.8-2.9-1.3c0.8,0.3,0.9,0.3,1.3,0.4l-1.4-0.5c-1-0.9,1.9,0.7,2,0.5c-0.7-0.3-1.4-0.5-2.1-0.8c-0.7-0.3-1.4-0.6-2-0.9
	c-1.3-0.6-2.6-1.2-3.5-1.9c-0.1-0.3,1,0.4,1.8,0.8c0.9,0.4,1.5,0.7,0.2-0.1l2.9,1.7c-2-1.7,1.8,1,0-0.6c-1.9-1.1-3-1.6-4.1-2.2
	c-1.1-0.6-2.1-1.2-3.9-2.5c-0.9-0.4,0.1,0.4-0.8,0c-1.3-0.9-2.2-1.5-2.8-2.1c-0.6-0.5-1-1-1.3-1.4c-0.6-0.8-1.2-1.5-3-2.8
	c-1-0.7-1.7-0.7-3.8-3.2c0.3,0.2,0.7,0.4,1,0.6c-1.4-1.6-1.9-2-2.4-2.4c-0.2-0.2-0.5-0.4-0.9-0.8c-0.4-0.4-0.8-0.9-1.4-1.9
	c0.5,0.6,2.2,2.5,1.8,2c-0.8-1.2-1.2-1.6-1.5-1.9c-0.3-0.3-0.6-0.5-1.3-1.4l0-0.6c-0.3-0.5-0.7-0.9-1-1.4c-0.3-0.5-0.6-1-1-1.5
	c-0.7-1-1.3-2-2-3c-1.2-2.1-2.5-4.3-3.5-6.6c0.2,0.2,0.6,1,0.3-0.2c-0.3-0.7-0.7-1.5-1-2.2c-0.3-0.8-0.6-1.5-0.9-2.3
	c-0.3-0.8-0.6-1.6-0.8-2.4c-0.2-0.8-0.5-1.6-0.7-2.4c-0.8-3.3-1.3-6.6-1.6-9.6l-0.5-2.3c0-0.5,0-1,0.1-0.4c-0.1-2.4-0.2-0.1-0.4-1.2
	c-0.1-1.4,0.1-1.8,0.2-0.9c-0.1-0.5-0.1-1.1-0.2-1.7c0-0.6-0.1-1.3-0.1-2c-0.1-1.4,0-2.9,0-4.4c0.2-3,0.6-6.1,1.2-8.2L19,73.2
	c0.4-1.7,0.4-2.7,0.6-3.6c0.1-0.9,0.2-1.9,0.8-3.4l-0.1,0.6c1.1-3.6,2.5-7.3,4.1-10.7c1.6-3.4,3.5-6.4,5.3-8.6
	c0.1-0.6,1.2-2.1,2.3-3.5c1.1-1.4,2.2-2.7,2.2-3.1c0.8-0.8,1.3-1.3,1.7-1.7c0.4-0.4,0.8-0.7,1.2-1c0.4-0.3,0.8-0.7,1.4-1.2
	c0.6-0.5,1.4-1.2,2.6-2.2c0.6-0.5,1-1,1.4-1.5c0.4-0.5,0.9-1,1.7-1.7l0.2,0.2c0.7-0.6,1.3-1.3,2-1.9l1.4-0.5c0.5-0.4,1-0.8,1.5-1.1
	c-0.7,0.4-1.4,0.8-1.4,0.6c0.6-0.5,1.3-0.9,2-1.3c0.7-0.4,1.4-0.8,2-1.1c1.3-0.6,2.3-1,2.4-0.9c1-0.6,2-1.1,3-1.6
	c1-0.5,2.1-1,3.1-1.5c-0.1,0.2-1.1,0.7-2,1.1c3.3-1.7,0.7,0,3.7-1.5c-0.4,0.1,0.2-0.3,0.2-0.3c1.6-0.4,5.3-1.5,8-2.2l-0.5,0.3
	c0.6-0.1,1.3-0.3,1.9-0.4c0.4-0.1,0.7-0.1,1.1-0.2l0.2,0.2c0.3,0.3,0.5,0.6,0.8,0.8c0.6,0.5,1.2,1,1.9,1.4c1.4,0.8,3,1.3,4.6,1.5
	c1.6,0.2,3.3,0,4.9-0.4c-1.2,0.3-1.6,0.2-1.6,0.1c0-0.1,0.2-0.1,0.5-0.2c0.3-0.1,0.6-0.2,1.1-0.4l0.8,0.1c1.1-0.6-1.9,0.6,0.3-0.5
	c1.1-0.5,1.4-0.6,1.4-0.5c0,0.1-0.4,0.5-1,0.8c0.9-0.4,1.7-1,2.4-1.6c0.2,0-0.3,0.4-0.4,0.6c0.4-0.4,1.5-1.2,2.4-2.2
	c0.9-1,1.6-2.3,1.8-3.2l0.1-0.1c1.1-3.2,0.8-5.7,0.1-7.8c-0.7-2.1-1.9-4-4-5.7c-0.1,0.1-0.6-0.2-1.2-0.6c-0.6-0.3-1.5-0.7-2.2-0.9
	c-1.8-0.7-3.8-1-5.9-0.7c-2.1,0.3-4.3,1.3-6,2.9c-0.6,0.6-0.9,1-1,1.2c-0.1,0.2-0.2,0.3-0.1,0.3C72.9,4.5,73,4.4,72.7,5
	c-0.2,0-0.9,1-1.3,1.8C71.3,6.9,71.3,7,71.2,7c0,0,0,0,0-0.1c0,0,0-0.1,0-0.2c0,0.1,0,0.2-0.2,0.2C70.9,7,70.8,7,70.6,7
	c-0.5,0.1-1,0.2-1.5,0.3c-0.9,0.2-1.8,0.4-2.6,0.6c-1.7,0.5-3.7,1-6.7,2.1c0.7-0.1,1.5-0.3,1.1-0.1c-1.1,0.4-2.6,0.8-2.4,0.6
	l0.3-0.1c-3.4,1.4-7.2,2.9-10.9,4.6c-3.7,1.7-6.9,3.7-9.2,5.6l0.3-0.2c-0.8,0.6-1.5,1.3-2.3,1.9c-0.8,0.6-1.5,1.3-2.3,2
	c-2.1,1.7,1.1-1.2-0.5,0c-1.2,1.1-2.2,2.1-3.2,3.1c-1,0.9-1.8,1.8-2.7,2.7c-0.9,0.8-1.7,1.7-2.5,2.6c-0.4,0.5-0.8,0.9-1.2,1.4
	c-0.4,0.5-0.8,1-1.2,1.6c-0.4,0.3-0.8,0.8-1.3,1.3c-0.4,0.5-0.9,1.1-1.4,1.8c-1,1.3-2,2.9-3.1,4.5c-2,3.3-3.8,6.9-5.1,9.4l0.3-0.2
	c-0.5,1.4-0.8,1.6-1.2,2.5c0.2-0.1,0.7-1.4,0.5-0.5c-2.3,5.7-4.2,11.7-5.3,17.9c-1.1,6.2-1.6,12.7-1.3,19c0.4,4.6,1.1,2.5,1.5,8.3
	c-0.2-0.5-0.4-1-0.6-1.6c0.9,4.5,2.1,9.1,3.6,13.6c0.4,1.1,0.8,2.2,1.2,3.3c0.5,1.1,0.9,2.1,1.4,3.2l0.7,1.6l0.8,1.5
	c0.6,1,1.1,2,1.6,3c-0.3-0.4-0.4-0.4-0.8-1.2c0.2,0.5,0.4,1.1,0.8,1.7c0.4,0.7,0.8,1.4,1.2,2c0.8,1.3,1.6,2.3,1.7,2.3
	c0.8,1.2,0,0.4,0.4,1.1c1,1.6,3,3.8,3.5,4.7c0.1,0.2-0.4-0.4-0.6-0.6c0.9,0.9,3.6,4.6,3.1,3.4c1.1,1.3,2.2,2.5,3.3,3.6
	c1.1,1.1,2.2,2,3.1,3c0.4,0.2,0.8,0.6,1.3,1.1c0.5,0.4,1,0.9,1.5,1.3c1,0.8,1.9,1.6,2.2,1.6c-0.1,0.1,0.1,0.3,0.5,0.7
	c0.4,0.4,1.1,0.9,1.8,1.4c0.7,0.5,1.5,1.1,2.3,1.6c0.7,0.5,1.5,0.8,1.9,1.1c-0.7-0.3,1.5,1.1,0.7,0.8c2.1,1.3,4.1,2.2,3.9,1.9
	c0.9,0.6,1.9,1.2,2.9,1.7c1,0.5,2,0.8,3,1.2c0.9,0.4,1.8,0.7,2.6,1c0.8,0.3,1.5,0.6,2,1c0.9,0.3,1.7,0.6,2.6,0.8
	c0.9,0.2,1.7,0.4,2.6,0.7c0.9,0.2,1.7,0.4,2.5,0.7c0.8,0.2,1.7,0.3,2.5,0.5c0.8,0.2,1.7,0.3,2.5,0.5c0.8,0.2,1.7,0.2,2.5,0.3
	l1.2,0.2l0.9,0.1l0.3,0l0.1,0l0,0.1l0,0.6c-0.1-0.1-0.2-0.2-0.2-0.5c0.1-0.2-0.2-0.1-0.3-0.1l-0.2,0l-0.6-0.1
	c-1.7-0.2-3.4-0.5-3.3-0.2c0.7,0.1,1.4,0.2,2.1,0.2c0.6,0.1,1.2,0.1,1.8,0.2l0.3,0l0.1,0l0,0.1l0,0.3c0,0,0,0,0,0.1l0,0.2l0,0.4
	c0,1.1-0.1,2.3-0.1,3.5c0,0.6-0.1,1.2-0.1,1.9c0,0.4-0.1,0.8-0.1,1.2c-0.1,0-0.3,0-0.4,0c-0.6,0,0-0.1,0.2-0.2c0-0.1,0-0.2,0-0.2
	c0,0.1,0,0.1,0,0.2l-0.3,0l-0.1,0l-0.2,0l-0.5,0c-0.7,0-1.4,0-2.2,0c-1.4,0-2.8,0-4.2,0c-2.8,0-5.5,0-8.1,0.1c0,0,0.6-0.1,1.2-0.1
	c-1.1,0-2.5-0.1-2.4,0.1l1-0.1c1.7,0.3-4.3,0.6-4.4,0.8c1.8-0.6-5.4-0.1-2.5-0.9c-0.7,0-1.6,0.1-1.4,0.3c-1,0-1.4-0.1-0.3-0.3
	c-3.8,0.1-2.5,0.3-6,0.3c0-0.1,0.7-0.1,1.1-0.3c-0.7,0.1-1.5,0.2-2.3,0.2c-0.4,0-0.8,0.1-1.3,0.1c-0.3,0-0.5,0-0.8,0
	c-0.4,0-0.7,0-1.1,0c-0.2,0.5-0.5,1-0.8,1.6c0-0.1,0-0.1,0-0.1c0-0.1,0-0.1,0.3-0.7c-0.3,0.6-0.6,1.2-0.9,1.8
	c-0.2,0.5-0.5,1-0.7,1.5c-0.5,1-0.9,2-1.4,3c-0.9,2-1.7,3.6-3.6,7.1c0.1,0,0.3,0,0.5,0c-0.3,0-0.6,0.1-0.7,0.1c0-0.1-0.1,0-0.2,0.1
	c0.4,0.1,3.4,0,3.7,0.3l3.1-0.1l-1.2-0.2c2.6,0,4.9-0.3,7.2-0.1l-1.9,0.2l4.9-0.1l-2.8-0.1c2.6-0.2-0.3-0.5,3.2-0.4
	c-0.7,0,2.6,0,4,0.2l0,0c1.3-0.1,2.6-0.2,4.5-0.2c0.5,0.1-0.4,0.4-0.1,0.5c1.3-0.3,6.1-0.1,7.7-0.4c-0.5,0.1-0.6,0.3-0.4,0.3
	l1.1-0.3c1.2,0.1,1.4,0.1,1.2,0.3c3.6,0-1.2-0.5,3.2-0.3c-0.3,0-0.2,0.1-0.9,0.1c4.3,0.1,8.4-0.2,12.4,0c1.2,0.4-3.5,0.1-2.1,0.4
	c5.7-0.1,11.9-0.5,17.4-0.4l-1,0c0.8-0.5,4.1,0.3,6.9,0c-0.7,0-0.9,0.3-0.7,0.2c3.8,0.1,7.8-0.1,13.5-0.3l-0.7,0.1
	c2.2,0.1,5.9,0.1,8.3,0.1c0.7-0.1,2.1-0.1,1.3-0.3c1.6,0.2,3.2,0.2,4.8,0.3c0.4,0,0.8,0,1.2,0c0.4,0,0.9,0,1.3,0c1,0,2.1,0,3.1-0.1
	c-1.1-2-2.2-4-3.3-5.9c-0.9-1.7-1.7-3.4-2.4-5.1c0.4,0.7,1,1.6,0.7,1.1l-2.2-4l-1.8,0c0.2,0.1,0.3,0.1,0.6,0.2c0.3,0,0.6,0,1.1,0.1
	c0.1,0.1,0.1,0.4,0.2,0.6c-0.1-0.1-0.2-0.3-0.3-0.5c-1,0.1-2.2,0.2-3.3,0.2c2.5-0.2,0-0.4-1.1-0.5c0.2,0.1-0.2,0.1-0.1,0.2
	c-2.9-0.4-0.5,0.5-4.5,0.2l0.2-0.1c-1.5,0.1-2.9,0.2-4.5,0.2c-0.7-0.3,1.6-0.1,1.7-0.3c-2.3,0-4.5,0.5-6.6,0.2
	c1-0.1,2.4-0.1,3.3-0.1c-2.2-0.3-2.5-0.2-4.2-0.3l0.2,0l-3.9-0.1l1,0.1c-2.8,0.7-5.8,0.1-9.6,0.6c3.7-0.4,0.6-0.2,0.9-0.6
	c-0.1,0-0.4,0-0.5,0c-0.1,0-0.2,0-0.3,0c-0.2,0-0.3-0.1-0.4-0.1c0-0.1,0-0.2,0.1-0.1c-0.1-0.1-0.1-0.4-0.1-0.6c0-0.4,0-0.8,0-1.2
	c0-0.9-0.1-1.8-0.3-3.1c0.1-0.1-0.1-1.9,0.2-1.5c0-0.3-0.1-0.5-0.1-0.7c0-0.1,0-0.1,0-0.1c0,0,0,0-0.1,0.2c0,0.4,0,1.1-0.1,1
	c0-0.2-0.1-0.5-0.1-0.7c0-0.2,0-0.4-0.1-0.6c0-0.2,0-0.3,0-0.5l0-0.2c0,0,0.2,0,0.2,0c0.4,0,0.8-0.1,1.2-0.1
	c0.6-0.1,1.1-0.1,1.7-0.2c2.3-0.3,4.9-0.7,7.4-1.6c2.2-0.7,3.4-1.2,4.6-1.7c1.2-0.5,2.4-1,4.3-1.9c0.7-0.2,0.4,0,0,0.2
	c-0.4,0.2-1,0.5-1,0.5c2.2-0.7,3.8-1.4,5.7-2.4c-0.4,0.3,0.1,0.1,0.7,0c1.5-0.8,0.9-0.8,3-1.7c-0.3,0.3-0.7,0.7-1.4,1.1
	c1.8-1,3.5-2.1,5.3-3.3c0.6-0.1-1,0.9-1.6,1.3c2.1-1.2,5.2-3.4,5.6-4l-1.3,0.8c0.7-0.5,0.5-0.1,0,0.3c-1.6,1.3-2.5,1.5-2.7,1.5
	l1.3-0.8c-0.8,0.2-2.1,1-3.5,1.9c-1.4,0.9-3,1.9-4.4,2.6l0.9-0.9c-0.9,0.6-1.8,1.1-2.7,1.6c-0.6,0.2-1.1,0.1,0.2-0.5
	c-2.1,0.7-1.7,0.9-3.5,1.4c-0.2,0-0.1,0,0-0.1c-0.6,0.3-1.3,0.6-1.9,0.9c0.4-0.2-0.4-0.2,0.8-0.6c-3.6,1.1-5.7,2.3-7.1,2.4l0.3-0.1
	c-2.5,0.8-2.6,0.8-2.6,0.9c0.1,0.1,0.3,0.2-1.6,0.8c-0.9-0.1-1.8-0.1-2.8-0.2l-0.5,0.4c-0.5,0.1-1.6,0.2-1.4,0.1
	c-2,0.5,0.4,0.1-0.8,0.5c-0.7,0-1.4,0.1-2.3,0.2l-0.7,0.1l-0.3,0l-0.2,0l-0.1,0l0,0.1c0,0.4,0.1,0.9,0.1,1.3c0.1,1.6,0.2,2.9,0,3.2
	c0.3,0.9,0-2.5,0.4,0.3c-0.2,0.4-0.2,1-0.1,1.9c0.1,0.4,0.1,0.9,0.2,1.4c0.1,0.5,0.1,1.1,0.1,1.7c0.3,0,0.6,0,0.9,0.1
	c-0.3,0.1-0.7,0.1-1.1,0.1c-0.1-0.8-0.2-1.8-0.2,0.2c0,0,0.1,0,0.3,0c0.6-0.1,1.2-0.2,1.8-0.2c0.5,0,1.1,0,1.8,0
	c1.2,0.1,2.5,0.2,3.6,0.1c0.1-0.4,4.4-0.2,7.8-0.3c-0.2,0.1,6.4,0.2,9.5,0.3l-0.1,0.1c0.6-0.4,3.9-0.3,6.2-0.4
	c-0.1,0.2-0.5,0.3-1.8,0.4l2.2,0c0.2,0,0.4-0.1,0.6-0.1c0.2,0,0.4-0.1,0.7-0.1c0.1,0.1,0.2,0.3,0.4,0.6c-0.2-0.1-0.3-0.1-0.4-0.1
	c0.3,0.6,0.6,1.2,1,1.7c0.4,0.7,0.8,1.3,1.2,2c0.8,1.4,1.6,2.9,2.4,4.6c0.3,0.1-0.8-3,1.2,0.5c-0.1,0.2-0.2,0.4-0.7-0.5
	c0.2,0.3,0.7,1.1,0.9,1.6l-0.9-1.3c0.2,0.4,0.3,0.6,0.4,0.8c0.1,0.2,0.1,0.2,0.2,0.3c0.1,0.1,0.3,0.2,0.5,0.8
	c-0.3-0.1,0.2,0.7-0.1,0.4c-0.1-0.2-0.3-0.7-0.6-1.1c0.2,0.5,0.4,1,0.6,1.3c-0.6-0.1-1-0.1-1.3-0.2c0.1,0.1,0.1,0.1,0,0.2
	c0,0-0.1,0.1-0.2,0.1c-0.1,0-0.2,0-0.5,0c-3,0-1-0.2-2.7-0.3c-0.7,0.1-2.6,0-2.7,0.3c-0.9,0-1-0.1-1.4-0.2c-1.5,0.1-7.1,0-5.4,0.4
	l0.4,0c-0.1,0-0.2,0-0.3,0c0,0,0,0,0,0h0c-5,0.3-10.4-0.2-15.4,0l0-0.1c-3,0.1-6.6,0.1-8.7,0.3c-0.9,0-2.1-0.2-1.7-0.3
	c-2.3,0.1-2.5,0.2-5.8,0c2.3-0.2-0.8-0.2,2.3-0.1c-3-0.1-3.6-0.2-6.8,0c1.1-0.3-2.2-0.3-3.6-0.2l2.1,0.2c-1.6,0-3,0-4.4,0l0.8-0.3
	c-6-0.4-10.9,0.7-15.5,0c-1.6,0.2,3.3,0.2,1.9,0.4c-2.8,0-5.7-0.5-6.5-0.5c-3.8-0.2-3.6,0.5-7.5,0.4c0.5,0.1,1,0.4-2,0.5
	c-2.8,0-3.4-0.5-1.7-0.6c0.7,0,1,0,1,0.1c0.9,0,2.1-0.1,1-0.2l-0.4,0.1c-1.4-0.1-5.2-0.1-4.3-0.3c-2.1,0.1-0.9,0.2,0.7,0.3
	c-1.8-0.1-3.2-0.1-4.6-0.1c-0.7,0-1.4,0-2.2,0c-1,0-1.1,0-1.4,0c0.1,0.1,0.4,0.2,0.1,0.2c-0.3,0-0.5,0-0.7,0c0.4-0.7,0.4-0.9,0.4-1
	c0-0.1,0.1-0.5,0.8-1.9c1.1-1.8,0,0.9,1.6-2.5c1.1-1.9,0.5-0.3,0.2,0.6c0.6-1.3,1.2-2.6,1.9-3.6c0.6-1,1.4-2.4,1.3-2.1
	c0,0,0.1,0,0.1,0c0,0-0.1,0-0.1,0c0,0.1,0,0.1,0,0.1c0,0,0-0.1,0-0.1c0,0,0.1,0,0.1,0c0.3,0,0.6,0,0.8,0l-0.5-0.1
	c-0.2,0-0.4-0.1-0.4-0.1c0.5,0,0.9,0,1.2,0c0.3,0,0.6,0,0.6,0.1c1.1-0.2-0.8-0.4,1.3-0.6c1.4,0.1,4.2-0.1,4.7,0.2
	c-4.3-0.1,0.5,0.3-3.2,0.4c0.7,0,1.6,0,2.6,0c0.2,0-0.1,0.1-0.4,0.1c4.2,0.3,1.9-0.4,6.2-0.3c-0.5,0.2,1,0.3,1.7,0.3
	c-1.7,0-0.8-0.3,0.8-0.4c2.8,0.1,3-0.1,4.4-0.1l-1.6-0.1c0.6-0.2,1.9-0.2,3.9-0.2c0.2,0.1-1.7,0.1-1.1,0.2c2.1-0.3,4.8,0.3,7.8,0.1
	c1.4,0.1,0.1,0.3,1.3,0.4c1.1-0.1,1.9-0.1,2.6,0c1.1,0,2,0.1,3.1,0.1c0.1-0.6,0.1-1.2,0.2-2c0-0.3,0-0.6,0.1-1c0-0.3,0-0.5,0-0.8
	c-0.3,1-0.3,1.2-0.3-1.3l-0.2,4.8l-2.7,0.1c0.2,0,0.8-0.1,1.3-0.1l1.4-0.1l0-1.5c0-0.5,0-1,0-1.2c0,0.8-0.1,1.7-0.1,2.5
	c-0.8,0-1.6,0-2.3,0.1c-0.5,0-0.9,0-1.3,0c1.8-0.2,1.6-0.1,0.7-0.3l0.5,0.1l0.7,0c0.5,0,1,0,1.4,0c0-0.6,0-1.2,0.1-1.7
	c0-0.5,0-0.9,0-1.4c0-0.9,0.1-1.8,0.2-2.8l0.6,0.1c0.1-0.5,0.1-1,0.2-1.5c0-0.2,0-0.5,0.1-0.7l0.1-0.9l0.1-1.2l0-0.6
	c0-0.1,0-0.2,0-0.3l-0.3,0c-0.8-0.1-1.6-0.2-2.3-0.3c-1-0.1-2-0.2-3.1-0.3c-1.1-0.1-2.3-0.4-3.6-0.7l1.6,0.5c-0.4,0-1.2-0.1-2.1-0.3
	c-0.9-0.2-2-0.4-2.8-0.7c0.2-0.1-0.8-0.5-1.5-0.8c0,0.1-0.9-0.2-1.9-0.5c-1-0.2-2.1-0.6-2.4-0.5l-2.1-1.1c-1-0.4-1.8-0.7-2.5-1
	c-0.7-0.3-1.3-0.4-1.8-0.6c-0.6-0.2-1.2-0.3-1.8-0.6c-0.6-0.3-1.4-0.6-2.3-1.1c1.2,0.4-0.4-0.6,2.1,0.5c-1.2-0.6-2.3-1.3-2.4-1.1
	c-0.3-0.3-1.2-0.6-2.1-1.1c-0.9-0.5-1.8-1-2.3-1.4c-0.5-0.2-0.8-0.1-2.1-1c-0.1-0.1,0.1-0.1,0.1-0.1c-0.1,0.1-2.1-1.3-1.1-0.3
	c-0.8-0.7-1.8-1.6-2.9-2.4c-1.1-0.9-2.2-1.8-3.3-2.7c-1.2-0.9-2.2-1.9-3.1-2.8c-0.9-0.9-1.8-1.7-2.3-2.5c-1-1.1-2.2-2.2-3.3-3.5
	c-1-1.3-2.1-2.5-2.9-3.5c0.2,0.1,0.1-0.1,0.4,0.4c-1.1-1.6-1.5-2-2-2.4c-0.5-0.5-1.1-0.9-2.1-2.8c-0.4-1-0.1-0.6,0.3,0
	c0.3,0.6,0.8,1.2,0.5,0.6c0.1-0.4-0.6-1.5-1.4-2.8c-0.4-0.7-0.9-1.4-1.3-2.1c-0.4-0.7-0.7-1.5-1-2.2l0.4,0.6c-0.4-1-1.1-2.2-1.8-3.5
	c-0.7-1.4-1.4-2.9-2.1-4.5c0,0,0.1,0.1,0.1,0c-1.2-2.2-2.9-6.6-3.7-10c0.5,1,0.5,1.5,0.6,0.8c-0.4-1.5-0.3,0.6-1.1-2.5
	c-0.1-1-0.4-3.3-0.2-3.6l0.6,2.9c0-0.8-0.2-1.7-0.4-2.6C8.5,98,8.3,97,8.2,96.3l0.2,0.2c-0.4-2.2-0.5-3.3-0.7-4.5
	c-0.2-1.2-0.3-2.4-0.4-4.8l-0.1,0.5c-0.4-2.6,0.2-2.2,0-4.9L7.5,82c0-1.7,0-6.1,0.5-9.2c0,0.9-0.1,2.3-0.2,3.7c0,1.4-0.2,2.9-0.1,4
	c0.1-1.7,0.5-5.8,0.5-6.7C8.2,74.4,8.2,75.3,8,76c0-1.1,0.1-2.3,0.2-3.7c0.2-1.4,0.4-2.9,0.8-4.6c0.1,0.2,0.4-0.3,0.6-1.1
	c0.3-0.8,0.6-2,1-3.2c0.4-1.3,0.8-2.6,1.3-3.7c0.5-1.2,0.9-2.1,1.3-2.6c0.5-1.4,1-2.8,1.7-4.2c0.3-0.7,0.6-1.4,1-2.1
	c0.4-0.7,0.7-1.4,1.1-2c0.7-1.4,1.6-2.7,2.5-4.1c0.5-0.7,0.9-1.4,1.4-2.1c0.5-0.7,0.9-1.4,1.5-2.1c-2,1.7,1.2-1.7,0.4-1.7
	c0.9-1.4,1.4-1.8,1.5-1.9c0.6-0.6,1.1-1.2,1.7-1.8l1.8-1.7c0.9-0.8-0.9,1.3-0.7,1.2c2.4-2.6,1.2-1,2.9-2.6c-0.5,0.2,0.6-1.1,2.2-2.5
	c-0.8,0.6-1.5,1.2-2.2,1.8c1.6-1.9,2.6-2.5,3.4-3.2c0.9-0.7,1.8-1.2,3.6-3l-1.1,1.2c0.9-0.9,2.8-2.4,4.7-3.8c1-0.7,1.9-1.4,2.8-2
	c0.9-0.6,1.6-1.1,2.1-1.6c0.4-0.2,1-0.4,0.1,0.3c5.3-3.2,12.1-6.7,16.9-7.8L62,11.6c1.1-0.4,1.8-0.9,3.3-1.1
	c-0.1,0.1-0.4,0.3,0.1,0.1c0.6-0.2,2.9-1,4.4-1.2l-1.2,0.4c0.7-0.1,1.4-0.3,2.1-0.4c0.4-0.1,0.9-0.2,1.3-0.2
	c0.3-0.1,0.5-0.1,0.8-0.2c0.1,0,0.1-0.1,0.1-0.1L73,8.8l0.2-0.4L73.3,8c0-0.1,0.1-0.3,0.1-0.3l0.2-0.4c0.1-0.3,0.2-0.5,0.4-0.7
	c0.3-0.5,0.5-0.9,0.8-1.3C76,3.8,77.7,2.5,80,1.9c0,0.2,1.1,0.1,2.5,0.3c1.3,0.2,2.8,0.7,3.7,1.3l-0.1,0c2.7,1.5,4.3,3.9,4.9,6.4
	c0.6,2.5,0.1,5.4-1.7,7.8c-0.7,0.6-1.7,1.5-2.9,2.1c-1.3,0.6-2.9,1.1-4.5,1.1c-1.7,0-3.4-0.5-4.8-1.4c-0.7-0.5-1.3-1-1.9-1.6
	c-0.1-0.1-0.4-0.5-0.6-0.8l-0.4-0.5l-0.1-0.1l0-0.1c0,0,0,0-0.1,0l-0.3,0c-0.6,0.1-1.3,0.2-1.9,0.3c1-0.1-0.1,0.4-1.3,0.7
	c-1.6,0.2-4.1,1.3-4,0.9l0.5-0.1c-1.3-0.1-4.4,0.9-6.7,1.9l-0.2,0.6c-3.2,0.9-7.1,2.8-10.5,4.9c-3.4,2.1-6.1,4.3-7.8,5.2
	c-1.1,1.1-2.7,2.4-3.7,3.6L38,34.1c-1.7,1.5-2.8,2.7-4.1,4c-0.6,0.7-1.2,1.4-1.9,2.2c-0.7,0.8-1.4,1.7-2.2,2.8l0.5-1
	c-1,1.2-1.4,2.1-1.8,3c-0.4,0.9-0.7,1.8-1.5,2.9l-0.8,0.5c-2.8,4.5-5.5,9.4-6.9,14.5c0-0.1-0.1-0.3,0.2-1.1
	c-0.5,1.2-1.3,3.5-1.8,5.5c-0.5,2-0.8,3.5-0.4,3.1c-0.2,0-0.5,1.3-0.8,3.1c-0.2,1.7-0.4,3.8-0.4,5.3L16,78.3c0.1,2.5,0.2,2.6,0.2,6
	c0,0.8-0.2,0.7-0.2-0.4c-0.1,2.7,0.2,2.1,0.2,5.3L16,88.1c0.1,2.8,0.2,2.5,0.6,4c0.1,0.4,0.1,1,0.2,1.5c0.1,0.6,0.1,1.2,0.2,1.8
	c0.1,1.1,0.1,2.1,0.1,2.3c0.2,0.3,0.7,1.8,1,3.4c0,0.2-0.2-0.3-0.3-0.6c0.5,2.3,1,3.9,1.5,5.4c0.5,1.5,1,2.7,1.4,4.2
	c-0.1,0.1,0,0.3,0,0.6c-1.3-3.4-2.1-6.3-2-6c-0.2,0.1,0.6,2.9-0.5,0.8c0.8,2.3,2.7,6,3.8,8.6c0,0.1,0.1,0.3,0.1,0.4l-0.1-0.3
	c0.2,0.6,0.5,1.2,0.8,1.7c0.4,0.8,0.6,1.4,1.1,2.2c0,0.2,0.4,1,0.8,1.9c0.4,0.9,1.1,1.8,1.5,2.5c0.2-0.3,1.2,1.4,0.4-0.2
	c0.1,0.2-0.2-0.2-0.7-1c-0.1-0.2-0.3-0.4-0.4-0.5c0,0,0,0,0.1,0.1c-0.5-0.8-1.1-2-1.8-3.2c0.7,1,1.3,2,2,3.5
	c0.6,0.6,1.2,1.2,1.5,1.5c0.7,2,2.9,5.2,3,5.8c0.7,0.9,1.5,1.8,2.4,2.8c0.4,0.5,0.8,0.9,1.3,1.4l0.6,0.7c0.2,0.2,0.5,0.4,0.7,0.6
	c0.9,0.8,1.8,1.6,2.5,2.3c0.8,0.7,1.6,1.2,2.2,1.6c1,0.8,1,1.1,1.3,1.5c-0.6-0.4-1.3-1-1.6-1.2c2,1.7,6,4.7,6.7,4.7
	c2.6,1.9-1.7-0.7,2.1,1.6l-0.6-0.2c0.9,0.6,1.8,1.2,2.6,1.8c0.9,0.5,1.7,0.9,2.6,1.4c0.9,0.4,1.7,0.9,2.5,1.2c0.9,0.3,1.7,0.6,2.6,1
	c3.5,1.3,7.1,2.2,11.7,3.8c-0.6-0.2-1-0.3-1.1-0.4c5.3,1.5,11,2.1,16.7,2.1c5.7-0.1,11.3-0.8,16.6-1.9c3-0.7,3.3-1,5-1.8l0.7,0.1
	c1-0.5,2-0.9,2.9-1.4c2.1-1,3.9-1.6,5.9-2.4c2-0.8,4.1-1.8,6.4-3.6l-0.7,0.2c1.8-1,5.3-3.8,5.2-3.5c0.2-0.2,0.4-0.6,1.1-1l0.1,0.1
	c0.6-0.6,1.3-1.1,1.9-1.7l0.9-0.9l0.7-0.7c0.1-0.1,0.2-0.2,0.2-0.2c0.8,1,0.6,1,0.6,1.1c-0.1,0.1,0.1,0.5,2,2.5
	c1.5,1.5,4.5,4.1,4,3.5c-0.6-0.6-1.4-1.7-1.4-1.8l1.4,1.4c0.6-0.1,2,0.7-1.1-3l-2.5-2.2l-0.6-0.9l1.9,2c-0.5-0.7-0.9-1.1-1.3-1.5
	c-0.2-0.2-0.4-0.4-0.6-0.6l-0.3-0.3l-0.2-0.1l-0.2-0.2c-0.2-0.4-0.7-1.1-1.6-2l0,0l-2,2.1l-1.1,1.2c-0.4,0.1,0.9-1.2-0.8,0.1
	c-1,1.1,1.4-0.6-0.5,1.1c-1.4,0.8-1.1,0.4-2.5,1.7c-0.3,0.1,0-0.2,0.5-0.7c-1.2,1.1-3.5,2.6-4.1,3.2c-1.5,0.7-4.7,2.9-4.8,2.4
	c-0.4,0.3-2.4,1.7-3.8,2.3c1.1-0.8-0.1-0.2-1.7,0.4c-1.5,0.6-3.3,1.3-3.1,0.9c-0.9,0.6-2.6,1.2-4.5,1.8c-1.9,0.6-4.1,1.1-5.9,1.6
	c0.2-0.1,0.6-0.2,0.9-0.3c-2,0.4-2.6,0.3-3.9,0.4c-0.2,0.5-3.3,0.9-5,1.3c-2.5-0.2,1.5-0.6,0.7-0.9c0.2,0.3-4.3,0.6-3.4,0.8
	c-1.9-0.2-1.6-0.1-2.6-0.4c-0.3,0.5-1.8,0-3.4,0.3c-1.4-0.2-1.5-0.3-1.7-0.4c-0.2-0.1-0.4-0.1-2-0.2
	C76.5,152.1,79.1,152.2,79.1,152.2z M23.2,112.6L23.2,112.6c0.3,0.6,0.5,1.1,0.6,1.4C23.7,113.7,23.5,113.3,23.2,112.6z M21,107
	c0.2,0.7,0.6,1.6,0.9,2.5c0,0.2-0.2,0.1-0.4-0.5C21.6,109.2,21.2,107.9,21,107z M24.5,119.7c-0.5-0.9-0.6-1.2-0.6-1.3
	c0.2,0.4,0.5,0.9,0.8,1.5c0,0,0.1,0.1,0.1,0.1C24.7,119.9,24.6,119.8,24.5,119.7z"/>
</svg>
