<?xml version="1.0" encoding="utf-8"?>
<!-- Generator: Adobe Illustrator 17.1.0, SVG Export Plug-In . SVG Version: 6.00 Build 0)  -->
<!DOCTYPE svg PUBLIC "-//W3C//DTD SVG 1.1//EN" "http://www.w3.org/Graphics/SVG/1.1/DTD/svg11.dtd">
<svg version="1.1" id="Layer_1" xmlns="http://www.w3.org/2000/svg" xmlns:xlink="http://www.w3.org/1999/xlink" x="0px" y="0px"
	 viewBox="0 0 143 59" enable-background="new 0 0 143 59" xml:space="preserve">
<path fill="#D81D5D" d="M106,80.5c0-2.9,2-6.4,4.5-7.8L128,62.5c2.5-1.4,6.6-1.4,9.1,0l17.5,10.1c2.5,1.4,4.5,5,4.5,7.8v20.2
	c0,2.9-2,6.4-4.5,7.8l-17.5,10.1c-2.5,1.4-6.6,1.4-9.1,0l-17.5-10.1c-2.5-1.4-4.5-5-4.5-7.8V80.5z"/>
<g>
	<g>
		<path fill="#FFFFFF" d="M145.5,86c-0.1-0.1-0.3-0.3-0.4-0.4c0,0,0,0,0,0C145.3,85.8,145.4,85.9,145.5,86c0.3,0.3,0.5,0.6,0.8,0.9
			C146.1,86.6,145.8,86.3,145.5,86z M147.2,88.3c0.1,0.2,0.2,0.4,0.3,0.6C147.4,88.7,147.3,88.5,147.2,88.3z"/>
	</g>
	<g>
		<path opacity="0.2" fill="#221F1F" d="M124.4,99.9c0.1,0.1,0.2,0.1,0.2,0.2h-2.6c-4.1,0-7.4-3.3-7.4-7.4v-1h-1
			c-1.8,0-3.2-1.4-3.2-3.2c0-1.8,1.4-3.2,3.2-3.2h1v-1c0-1.8,1.4-3.2,3.2-3.2c1.8,0,3.2,1.4,3.2,3.2v1h1c1.8,0,3.2,1.4,3.2,3.2
			c0,1.7-1.4,3.2-3.2,3.2l-1,0v1C121.1,95.5,122.3,98.1,124.4,99.9z"/>
		<path fill="#FFFFFF" d="M147.3,83.3c-1.5,0-2.9,0.3-4.2,1c-1.3-0.6-2.7-1-4.2-1h0c-5.2,0-9.4,4.2-9.4,9.4c0,2.4-1.2,4.7-3.2,6
			c-1.7-1.2-2.8-3.1-3.1-5.1c2.4-0.5,4.1-2.6,4.1-5.1c0-2.6-1.9-4.7-4.3-5.1c-0.4-2.4-2.6-4.3-5.1-4.3c-2.6,0-4.7,1.9-5.1,4.3
			c-2.4,0.4-4.3,2.6-4.3,5.1c0,2.5,1.8,4.7,4.2,5.1c0.5,4.8,4.5,8.5,9.4,8.5h8.4c3.1,0,5.8-1.5,7.6-3.8c0.6,2.2,2.6,3.8,5,3.8
			c1.7,0,3.2-0.8,4.2-2.1c1,1.3,2.5,2.1,4.2,2.1c2.9,0,5.2-2.3,5.2-5.2v-4.2C156.7,87.5,152.5,83.3,147.3,83.3z M122.1,100.1
			c-4.1,0-7.4-3.3-7.4-7.4v-1h-1c-1.8,0-3.2-1.4-3.2-3.2c0-1.8,1.4-3.2,3.2-3.2h1v-1c0-1.8,1.4-3.2,3.2-3.2c1.8,0,3.2,1.4,3.2,3.2v1
			h1c1.8,0,3.2,1.4,3.2,3.2c0,1.7-1.4,3.2-3.2,3.2l-1,0v1c0,2.8,1.2,5.4,3.3,7.2c0.1,0.1,0.2,0.1,0.2,0.2h-0.2H122.1z M146.3,96.9
			c0,1.8-1.4,3.2-3.2,3.2c-1.8,0-3.2-1.4-3.2-3.2v-4.2h-2c0,4.1-3.3,7.4-7.4,7.4c-0.1,0-0.2,0-0.3,0c-0.1,0-0.2,0-0.2,0
			c-0.1,0-0.1,0-0.2,0c-0.1,0-0.1,0-0.2,0c0,0-0.1,0-0.1,0c-0.1,0-0.1,0-0.2,0c-0.1,0-0.2,0-0.3-0.1c-0.1,0-0.1,0-0.2,0
			c-0.2,0-0.3-0.1-0.5-0.1c2-1.8,3.2-4.3,3.2-7c0-4.1,3.3-7.4,7.4-7.4h0c1.2,0,2.3,0.3,3.4,0.8l0,0c0.1,0,0.2,0.1,0.3,0.1l0.1,0
			c0.5,0.3,1,0.7,1.5,1.1c0.3,0.3,0.5,0.5,0.7,0.8c0.1,0.2,0.3,0.4,0.4,0.6c0.1,0.2,0.2,0.4,0.3,0.6c0,0.1,0.1,0.2,0.1,0.3
			c0,0,0,0,0,0c0,0.1,0.1,0.2,0.1,0.2c0,0.1,0.1,0.2,0.1,0.2c0,0.1,0,0.1,0.1,0.2c0,0.1,0,0.2,0.1,0.3c0,0,0,0.1,0,0.1
			c0,0.1,0,0.2,0.1,0.3c0,0.1,0,0.2,0,0.2c0,0.1,0,0.2,0,0.3c0,0,0,0.1,0,0.1c0,0,0,0,0,0c0,0.1,0,0.2,0,0.3c0,0,0,0,0,0.1
			c0,0.1,0,0.2,0,0.3V96.9z M154.7,96.9c0,1.8-1.4,3.2-3.2,3.2c-1.8,0-3.2-1.4-3.2-3.2v-4.2c0-0.3,0-0.6,0-0.9
			c0-0.3-0.1-0.6-0.1-0.9c0-0.1,0-0.2-0.1-0.3c0,0,0,0,0-0.1c0-0.1,0-0.2-0.1-0.3c0,0,0,0,0,0c0-0.1-0.1-0.2-0.1-0.3c0,0,0,0,0,0
			c0-0.1-0.1-0.2-0.1-0.3c0-0.1-0.1-0.2-0.1-0.2c-0.1-0.2-0.1-0.3-0.2-0.5c-0.1-0.2-0.2-0.4-0.3-0.6c-0.3-0.5-0.5-0.9-0.9-1.4
			c-0.2-0.3-0.5-0.6-0.8-0.9c-0.1-0.1-0.3-0.3-0.4-0.4c0,0,0,0,0,0c0.7-0.2,1.4-0.3,2.2-0.3c4.1,0,7.4,3.3,7.4,7.4V96.9z"/>
	</g>
	<g>
		<g>
			<path opacity="0.2" fill="#221F1F" d="M154.7,92.7v4.2c0,1.8-1.4,3.2-3.2,3.2c-1.8,0-3.2-1.4-3.2-3.2v-4.2c0-0.3,0-0.6,0-0.9
				c0-0.3-0.1-0.6-0.1-0.9c0-0.1,0-0.2-0.1-0.3c0,0,0,0,0-0.1c0-0.1,0-0.2-0.1-0.3c0,0,0,0,0,0c0-0.1-0.1-0.2-0.1-0.3c0,0,0,0,0,0
				c0-0.1-0.1-0.2-0.1-0.3c0-0.1-0.1-0.2-0.1-0.2c-0.1-0.2-0.1-0.3-0.2-0.5c-0.1-0.2-0.2-0.4-0.3-0.6c-0.3-0.5-0.5-0.9-0.9-1.4
				c-0.2-0.3-0.5-0.6-0.8-0.9c-0.1-0.1-0.3-0.3-0.4-0.4c0,0,0,0,0,0c0.7-0.2,1.4-0.3,2.2-0.3C151.4,85.3,154.7,88.6,154.7,92.7z"/>
		</g>
	</g>
</g>
<path fill="#D81D5D" d="M106,80.5c0-2.9,2-6.4,4.5-7.8L128,62.5c2.5-1.4,6.6-1.4,9.1,0l17.5,10.1c2.5,1.4,4.5,5,4.5,7.8v20.2
	c0,2.9-2,6.4-4.5,7.8l-17.5,10.1c-2.5,1.4-6.6,1.4-9.1,0l-17.5-10.1c-2.5-1.4-4.5-5-4.5-7.8V80.5z"/>
<path opacity="0.2" fill="#221F1F" d="M159.1,91.3v9.4c0,2.9-2,6.4-4.5,7.8l-17.5,10.1c-0.5,0.3-1.1,0.5-1.7,0.7l-19.7-19.7
	c1.7,1.5,3.9,2.5,6.3,2.5h8.4c3.1,0,5.8-1.5,7.6-3.8c0.6,2.2,2.6,3.8,5,3.8c1.7,0,3.2-0.8,4.2-2.1c1,1.3,2.5,2.1,4.2,2.1
	c2.9,0,5.2-2.3,5.2-5.2v-4.2c0-2.4-0.9-4.6-2.4-6.3L159.1,91.3z"/>
<g>
	<g>
		<path fill="#FFFFFF" d="M145.5,86c-0.1-0.1-0.3-0.3-0.4-0.4c0,0,0,0,0,0C145.3,85.8,145.4,85.9,145.5,86c0.3,0.3,0.5,0.6,0.8,0.9
			C146.1,86.6,145.8,86.3,145.5,86z M147.2,88.3c0.1,0.2,0.2,0.4,0.3,0.6C147.4,88.7,147.3,88.5,147.2,88.3z"/>
	</g>
	<g>
		<path opacity="0.2" fill="#221F1F" d="M124.4,99.9c0.1,0.1,0.2,0.1,0.2,0.2h-2.6c-4.1,0-7.4-3.3-7.4-7.4v-1h-1
			c-1.8,0-3.2-1.4-3.2-3.2c0-1.8,1.4-3.2,3.2-3.2h1v-1c0-1.8,1.4-3.2,3.2-3.2c1.8,0,3.2,1.4,3.2,3.2v1h1c1.8,0,3.2,1.4,3.2,3.2
			c0,1.7-1.4,3.2-3.2,3.2l-1,0v1C121.1,95.5,122.3,98.1,124.4,99.9z"/>
		<path fill="#FFFFFF" d="M154.3,86.4l-0.8-0.8c-1.7-1.5-3.9-2.4-6.3-2.4c-1.5,0-2.9,0.3-4.2,1c-1.3-0.6-2.7-1-4.2-1h0
			c-5.2,0-9.4,4.2-9.4,9.4c0,2.4-1.2,4.7-3.2,6c-1.7-1.2-2.8-3.1-3.1-5.1c2.4-0.5,4.1-2.6,4.1-5.1c0-2.6-1.9-4.7-4.3-5.1
			c-0.4-2.4-2.6-4.3-5.1-4.3c-2.6,0-4.7,1.9-5.1,4.3c-2.4,0.4-4.3,2.6-4.3,5.1c0,2.6,1.8,4.7,4.2,5.1c0.2,2.1,1.1,4,2.4,5.4
			c0.2,0.2,0.4,0.4,0.6,0.6c1.7,1.5,3.9,2.5,6.3,2.5h8.4c3.1,0,5.8-1.5,7.6-3.8c0.6,2.2,2.6,3.8,5,3.8c1.7,0,3.2-0.8,4.2-2.1
			c1,1.3,2.5,2.1,4.2,2.1c2.9,0,5.2-2.3,5.2-5.2v-4.2C156.7,90.3,155.8,88.1,154.3,86.4z M122.1,100c-4.1,0-7.4-3.3-7.4-7.4v-1h-1
			c-1.8,0-3.2-1.4-3.2-3.2s1.4-3.2,3.2-3.2h1v-1c0-1.8,1.4-3.2,3.2-3.2c1.8,0,3.2,1.4,3.2,3.2v1h1c1.8,0,3.2,1.4,3.2,3.2
			c0,1.7-1.4,3.2-3.2,3.2l-1,0v1c0,2.8,1.2,5.4,3.3,7.2c0.1,0.1,0.1,0.1,0.2,0.2H122.1z M146.2,96.9c0,1.8-1.4,3.2-3.2,3.2
			s-3.2-1.4-3.2-3.2v-4.2h-2c0,4.1-3.3,7.4-7.4,7.4h-0.3c-0.1,0-0.1,0-0.2,0c-0.1,0-0.1,0-0.2,0c-0.1,0-0.1,0-0.2,0c0,0-0.1,0-0.2,0
			c-0.1,0-0.1,0-0.2,0c-0.1,0-0.2,0-0.3-0.1c0,0-0.1,0-0.2,0c-0.2,0-0.3-0.1-0.5-0.1c2-1.8,3.2-4.3,3.2-7c0-4.1,3.3-7.4,7.4-7.4h0
			c1.2,0,2.4,0.3,3.4,0.8h0c0.1,0,0.2,0.1,0.3,0.1l0.1,0c0.5,0.3,1,0.7,1.5,1.1c0.3,0.3,0.5,0.6,0.7,0.8c0.1,0.2,0.3,0.4,0.4,0.6
			c0.1,0.2,0.2,0.4,0.3,0.6c0,0.1,0.1,0.2,0.1,0.3c0,0,0,0,0,0c0,0.1,0.1,0.2,0.1,0.2c0,0.1,0.1,0.2,0.1,0.2c0,0.1,0,0.1,0.1,0.2
			c0,0.1,0,0.2,0.1,0.3c0,0,0,0.1,0,0.2c0,0.1,0,0.2,0.1,0.3c0,0.1,0,0.2,0,0.2c0,0.1,0,0.2,0,0.3c0,0,0,0.1,0,0.1v0
			c0,0.1,0,0.2,0,0.3c0,0,0,0,0,0c0,0.1,0,0.2,0,0.3V96.9z M154.7,96.9c0,1.8-1.4,3.2-3.2,3.2s-3.2-1.4-3.2-3.2v-4.2
			c0-0.3,0-0.6,0-0.9c0-0.3-0.1-0.6-0.1-0.9c0-0.1,0-0.2-0.1-0.3c0,0,0,0,0-0.1c0-0.1,0-0.2-0.1-0.3c0,0,0,0,0,0
			c0-0.1-0.1-0.2-0.1-0.3c0,0,0,0,0,0c0-0.1-0.1-0.2-0.1-0.3c0-0.1-0.1-0.1-0.1-0.2c-0.1-0.2-0.1-0.3-0.2-0.5
			c-0.1-0.2-0.2-0.4-0.3-0.6c-0.2-0.5-0.5-0.9-0.9-1.3c-0.2-0.3-0.5-0.6-0.8-0.9c-0.1-0.1-0.3-0.3-0.4-0.4c0.7-0.2,1.4-0.3,2.2-0.3
			c4.1,0,7.4,3.3,7.4,7.4V96.9z"/>
	</g>
	<g>
		<g>
			<path opacity="0.2" fill="#221F1F" d="M154.7,92.7v4.2c0,1.8-1.4,3.2-3.2,3.2c-1.8,0-3.2-1.4-3.2-3.2v-4.2c0-0.3,0-0.6,0-0.9
				c0-0.3-0.1-0.6-0.1-0.9c0-0.1,0-0.2-0.1-0.3c0,0,0,0,0-0.1c0-0.1,0-0.2-0.1-0.3c0,0,0,0,0,0c0-0.1-0.1-0.2-0.1-0.3c0,0,0,0,0,0
				c0-0.1-0.1-0.2-0.1-0.3c0-0.1-0.1-0.2-0.1-0.2c-0.1-0.2-0.1-0.3-0.2-0.5c-0.1-0.2-0.2-0.4-0.3-0.6c-0.3-0.5-0.5-0.9-0.9-1.4
				c-0.2-0.3-0.5-0.6-0.8-0.9c-0.1-0.1-0.3-0.3-0.4-0.4c0,0,0,0,0,0c0.7-0.2,1.4-0.3,2.2-0.3C151.4,85.3,154.7,88.6,154.7,92.7z"/>
		</g>
	</g>
</g>
<g>
	<g>
		<path fill="#FFFFFF" d="M145.4,86c-0.1-0.1-0.3-0.3-0.4-0.4c0,0,0,0,0,0C145.2,85.7,145.3,85.8,145.4,86c0.3,0.3,0.5,0.6,0.8,0.9
			C146,86.5,145.7,86.2,145.4,86z M147.1,88.2c0.1,0.2,0.2,0.4,0.3,0.6C147.3,88.6,147.2,88.4,147.1,88.2z"/>
	</g>
	<g>
		<path opacity="0.2" fill="#221F1F" enable-background="new    " d="M124.3,99.7c0.1,0.1,0.2,0.1,0.2,0.2H122
			c-4.1,0-7.3-3.3-7.3-7.3v-1h-1c-1.7,0-3.2-1.4-3.2-3.2c0-1.7,1.4-3.2,3.2-3.2h1v-1c0-1.7,1.4-3.2,3.2-3.2c1.7,0,3.2,1.4,3.2,3.2v1
			h1c1.7,0,3.2,1.4,3.2,3.2c0,1.7-1.4,3.2-3.2,3.2l-1,0v1C121,95.4,122.3,98,124.3,99.7z"/>
		<path fill="#FFFFFF" d="M147.2,83.2c-1.5,0-2.9,0.3-4.2,1c-1.3-0.6-2.7-1-4.2-1h0c-5.2,0-9.4,4.2-9.4,9.4c0,2.4-1.2,4.7-3.1,6
			c-1.7-1.2-2.8-3.1-3.1-5.1c2.3-0.5,4.1-2.6,4.1-5.1c0-2.6-1.8-4.7-4.3-5.1c-0.4-2.4-2.6-4.3-5.1-4.3s-4.7,1.8-5.1,4.3
			c-2.4,0.4-4.3,2.6-4.3,5.1c0,2.5,1.8,4.7,4.2,5.1c0.5,4.7,4.5,8.5,9.3,8.5h8.4c3.1,0,5.8-1.5,7.5-3.8c0.6,2.2,2.6,3.8,5,3.8
			c1.7,0,3.2-0.8,4.2-2.1c0.9,1.3,2.5,2.1,4.2,2.1c2.9,0,5.2-2.3,5.2-5.2v-4.2C156.6,87.4,152.3,83.2,147.2,83.2z M122,99.9
			c-4.1,0-7.3-3.3-7.3-7.3v-1h-1c-1.7,0-3.2-1.4-3.2-3.2c0-1.7,1.4-3.2,3.2-3.2h1v-1c0-1.7,1.4-3.2,3.2-3.2c1.7,0,3.2,1.4,3.2,3.2v1
			h1c1.7,0,3.2,1.4,3.2,3.2c0,1.7-1.4,3.2-3.2,3.2l-1,0v1c0,2.8,1.2,5.4,3.3,7.2c0.1,0.1,0.2,0.1,0.2,0.2h-0.2
			C124.4,99.9,122,99.9,122,99.9z M146.1,96.8c0,1.7-1.4,3.2-3.2,3.2c-1.7,0-3.2-1.4-3.2-3.2v-4.2h-2c0,4.1-3.3,7.3-7.3,7.3
			c-0.1,0-0.2,0-0.3,0c-0.1,0-0.2,0-0.2,0c-0.1,0-0.1,0-0.2,0c-0.1,0-0.1,0-0.2,0c0,0-0.1,0-0.1,0c-0.1,0-0.1,0-0.2,0
			c-0.1,0-0.2,0-0.3-0.1c-0.1,0-0.1,0-0.2,0c-0.2,0-0.3-0.1-0.5-0.1c2-1.8,3.2-4.3,3.2-7c0-4.1,3.3-7.3,7.3-7.3h0
			c1.2,0,2.3,0.3,3.4,0.8l0,0c0.1,0,0.2,0.1,0.3,0.1l0.1,0c0.5,0.3,1,0.7,1.5,1.1c0.3,0.3,0.5,0.5,0.7,0.8c0.1,0.2,0.3,0.4,0.4,0.6
			c0.1,0.2,0.2,0.4,0.3,0.6c0,0.1,0.1,0.2,0.1,0.3c0,0,0,0,0,0c0,0.1,0.1,0.2,0.1,0.2c0,0.1,0.1,0.2,0.1,0.2c0,0.1,0,0.1,0.1,0.2
			c0,0.1,0,0.2,0.1,0.3c0,0,0,0.1,0,0.1c0,0.1,0,0.2,0.1,0.3c0,0.1,0,0.2,0,0.2c0,0.1,0,0.2,0,0.3c0,0,0,0.1,0,0.1c0,0,0,0,0,0
			c0,0.1,0,0.2,0,0.3c0,0,0,0,0,0.1c0,0.1,0,0.2,0,0.3L146.1,96.8L146.1,96.8z M154.5,96.8c0,1.7-1.4,3.2-3.2,3.2
			c-1.7,0-3.2-1.4-3.2-3.2v-4.2c0-0.3,0-0.6,0-0.9c0-0.3-0.1-0.6-0.1-0.9c0-0.1,0-0.2-0.1-0.3c0,0,0,0,0-0.1c0-0.1,0-0.2-0.1-0.3
			c0,0,0,0,0,0c0-0.1-0.1-0.2-0.1-0.3c0,0,0,0,0,0c0-0.1-0.1-0.2-0.1-0.3c0-0.1-0.1-0.2-0.1-0.2c-0.1-0.2-0.1-0.3-0.2-0.5
			c-0.1-0.2-0.2-0.4-0.3-0.6c-0.3-0.5-0.5-0.9-0.9-1.3c-0.2-0.3-0.5-0.6-0.8-0.9c-0.1-0.1-0.3-0.3-0.4-0.4c0,0,0,0,0,0
			c0.7-0.2,1.4-0.3,2.2-0.3c4.1,0,7.3,3.3,7.3,7.3L154.5,96.8L154.5,96.8z"/>
	</g>
	<g>
		<g>
			<path opacity="0.2" fill="#221F1F" enable-background="new    " d="M154.5,92.6v4.2c0,1.7-1.4,3.2-3.2,3.2
				c-1.7,0-3.2-1.4-3.2-3.2v-4.2c0-0.3,0-0.6,0-0.9c0-0.3-0.1-0.6-0.1-0.9c0-0.1,0-0.2-0.1-0.3c0,0,0,0,0-0.1c0-0.1,0-0.2-0.1-0.3
				c0,0,0,0,0,0c0-0.1-0.1-0.2-0.1-0.3c0,0,0,0,0,0c0-0.1-0.1-0.2-0.1-0.3c0-0.1-0.1-0.2-0.1-0.2c-0.1-0.2-0.1-0.3-0.2-0.5
				c-0.1-0.2-0.2-0.4-0.3-0.6c-0.3-0.5-0.5-0.9-0.9-1.3c-0.2-0.3-0.5-0.6-0.8-0.9c-0.1-0.1-0.3-0.3-0.4-0.4c0,0,0,0,0,0
				c0.7-0.2,1.4-0.3,2.2-0.3C151.2,85.3,154.5,88.5,154.5,92.6z"/>
		</g>
	</g>
</g>
</svg>
