<?xml version="1.0" encoding="utf-8"?>
<!-- Generator: Adobe Illustrator 19.2.1, SVG Export Plug-In . SVG Version: 6.00 Build 0)  -->
<svg version="1.1" id="Layer_1" xmlns="http://www.w3.org/2000/svg" xmlns:xlink="http://www.w3.org/1999/xlink" x="0px" y="0px"
	 viewBox="0 0 320 320" style="enable-background:new 0 0 320 320;" xml:space="preserve">
<style type="text/css">
	.st0{fill:none;}
	.st1{fill:#292620;}
	.st2{fill:#24211C;}
	.st3{fill:url(#SVGID_1_);}
	.st4{clip-path:url(#SVGID_3_);fill:#CC9832;}
	.st5{clip-path:url(#SVGID_3_);fill:#CD9932;}
	.st6{clip-path:url(#SVGID_3_);fill:#CE9A32;}
	.st7{clip-path:url(#SVGID_3_);fill:#CE9B32;}
	.st8{clip-path:url(#SVGID_3_);fill:#CF9B32;}
	.st9{clip-path:url(#SVGID_3_);fill:#CF9C32;}
	.st10{clip-path:url(#SVGID_3_);fill:#D09C32;}
	.st11{clip-path:url(#SVGID_3_);fill:#D09D32;}
	.st12{clip-path:url(#SVGID_5_);fill:#B07532;}
	.st13{clip-path:url(#SVGID_5_);fill:#B47A32;}
	.st14{clip-path:url(#SVGID_5_);fill:#B77E32;}
	.st15{clip-path:url(#SVGID_5_);fill:#BB8232;}
	.st16{clip-path:url(#SVGID_5_);fill:#BD8632;}
	.st17{clip-path:url(#SVGID_5_);fill:#C08932;}
	.st18{clip-path:url(#SVGID_5_);fill:#C28C32;}
	.st19{clip-path:url(#SVGID_5_);fill:#C48E32;}
	.st20{clip-path:url(#SVGID_5_);fill:#C69032;}
	.st21{clip-path:url(#SVGID_5_);fill:#C89232;}
	.st22{clip-path:url(#SVGID_5_);fill:#C99432;}
	.st23{clip-path:url(#SVGID_5_);fill:#CA9632;}
	.st24{clip-path:url(#SVGID_5_);fill:#CB9732;}
	.st25{clip-path:url(#SVGID_5_);fill:#CC9832;}
	.st26{clip-path:url(#SVGID_5_);fill:#CD9932;}
	.st27{clip-path:url(#SVGID_7_);fill:#D19E32;}
	.st28{clip-path:url(#SVGID_9_);fill:#D19D32;}
	.st29{clip-path:url(#SVGID_9_);fill:#D19E32;}
	.st30{clip-path:url(#SVGID_11_);fill:#D19E32;}
	.st31{clip-path:url(#SVGID_11_);fill:#D19F33;}
	.st32{clip-path:url(#SVGID_11_);fill:#D2A033;}
	.st33{clip-path:url(#SVGID_11_);fill:#D2A134;}
	.st34{clip-path:url(#SVGID_11_);fill:#D3A234;}
	.st35{clip-path:url(#SVGID_11_);fill:#D3A335;}
	.st36{clip-path:url(#SVGID_11_);fill:#D3A435;}
	.st37{clip-path:url(#SVGID_11_);fill:#D4A536;}
	.st38{clip-path:url(#SVGID_11_);fill:#D4A636;}
	.st39{clip-path:url(#SVGID_11_);fill:#D5A737;}
	.st40{clip-path:url(#SVGID_13_);fill:#D5A837;}
	.st41{clip-path:url(#SVGID_13_);fill:#D5A938;}
	.st42{clip-path:url(#SVGID_13_);fill:#D6AA38;}
	.st43{clip-path:url(#SVGID_15_);fill:#DDBD42;}
	.st44{clip-path:url(#SVGID_15_);fill:#DDBE42;}
	.st45{clip-path:url(#SVGID_15_);fill:#DEBF43;}
	.st46{clip-path:url(#SVGID_15_);fill:#DEC043;}
	.st47{clip-path:url(#SVGID_15_);fill:#DEC144;}
	.st48{clip-path:url(#SVGID_15_);fill:#DFC244;}
	.st49{clip-path:url(#SVGID_15_);fill:#DFC345;}
	.st50{clip-path:url(#SVGID_15_);fill:#E0C446;}
	.st51{clip-path:url(#SVGID_15_);fill:#D6AB39;}
	.st52{clip-path:url(#SVGID_15_);fill:#D7AC39;}
	.st53{clip-path:url(#SVGID_15_);fill:#D7AD3A;}
	.st54{clip-path:url(#SVGID_15_);fill:#D7AE3A;}
	.st55{clip-path:url(#SVGID_15_);fill:#D8AF3B;}
	.st56{clip-path:url(#SVGID_15_);fill:#D8B03C;}
	.st57{clip-path:url(#SVGID_15_);fill:#D9B13C;}
	.st58{clip-path:url(#SVGID_15_);fill:#D9B23D;}
	.st59{clip-path:url(#SVGID_15_);fill:#D9B33D;}
	.st60{clip-path:url(#SVGID_15_);fill:#DAB43E;}
	.st61{clip-path:url(#SVGID_15_);fill:#DAB53E;}
	.st62{clip-path:url(#SVGID_15_);fill:#DBB63F;}
	.st63{clip-path:url(#SVGID_15_);fill:#DBB73F;}
	.st64{clip-path:url(#SVGID_15_);fill:#DBB840;}
	.st65{clip-path:url(#SVGID_15_);fill:#DCBA40;}
	.st66{clip-path:url(#SVGID_15_);fill:#DCBB41;}
	.st67{clip-path:url(#SVGID_15_);fill:#DCBC41;}
	.st68{clip-path:url(#SVGID_15_);fill:#E0C546;}
	.st69{clip-path:url(#SVGID_15_);fill:#E0C647;}
	.st70{clip-path:url(#SVGID_15_);fill:#E1C747;}
	.st71{clip-path:url(#SVGID_15_);fill:#E1C848;}
	.st72{clip-path:url(#SVGID_15_);fill:#E2C948;}
	.st73{clip-path:url(#SVGID_15_);fill:#E2CA49;}
	.st74{clip-path:url(#SVGID_15_);fill:#E2CB49;}
	.st75{clip-path:url(#SVGID_15_);fill:#E3CC4A;}
	.st76{clip-path:url(#SVGID_15_);fill:#E3CD4A;}
	.st77{clip-path:url(#SVGID_15_);fill:#E4CE4B;}
	.st78{clip-path:url(#SVGID_15_);fill:#E4CF4B;}
	.st79{clip-path:url(#SVGID_15_);fill:#E4D04C;}
	.st80{clip-path:url(#SVGID_17_);fill:#E1C747;}
	.st81{clip-path:url(#SVGID_17_);fill:#E1C848;}
	.st82{clip-path:url(#SVGID_17_);fill:#E2C948;}
	.st83{clip-path:url(#SVGID_17_);fill:#E2CA49;}
	.st84{clip-path:url(#SVGID_17_);fill:#E2CB49;}
	.st85{clip-path:url(#SVGID_17_);fill:#E3CC4A;}
	.st86{clip-path:url(#SVGID_17_);fill:#E3CD4A;}
	.st87{clip-path:url(#SVGID_17_);fill:#E4CE4B;}
	.st88{clip-path:url(#SVGID_17_);fill:#E4CF4B;}
	.st89{clip-path:url(#SVGID_19_);fill:#E4D04C;}
	.st90{clip-path:url(#SVGID_19_);fill:#E5D14C;}
	.st91{clip-path:url(#SVGID_19_);fill:#E5D24D;}
	.st92{clip-path:url(#SVGID_19_);fill:#E6D34D;}
	.st93{clip-path:url(#SVGID_19_);fill:#E6D44E;}
	.st94{clip-path:url(#SVGID_19_);fill:#E4D04B;}
	.st95{clip-path:url(#SVGID_19_);fill:#E4CF4B;}
	.st96{clip-path:url(#SVGID_19_);fill:#E3CE4A;}
	.st97{clip-path:url(#SVGID_19_);fill:#E3CD49;}
	.st98{clip-path:url(#SVGID_19_);fill:#E2CC49;}
	.st99{clip-path:url(#SVGID_19_);fill:#E2CB48;}
	.st100{clip-path:url(#SVGID_19_);fill:#E1CA47;}
	.st101{clip-path:url(#SVGID_19_);fill:#E1C946;}
	.st102{clip-path:url(#SVGID_19_);fill:#E0C846;}
	.st103{clip-path:url(#SVGID_19_);fill:#E0C745;}
	.st104{clip-path:url(#SVGID_19_);fill:#DFC644;}
	.st105{clip-path:url(#SVGID_19_);fill:#DFC544;}
	.st106{clip-path:url(#SVGID_19_);fill:#DEC443;}
	.st107{clip-path:url(#SVGID_19_);fill:#DEC342;}
	.st108{clip-path:url(#SVGID_19_);fill:#DDC242;}
	.st109{clip-path:url(#SVGID_19_);fill:#DDC141;}
	.st110{clip-path:url(#SVGID_19_);fill:#DCC040;}
	.st111{clip-path:url(#SVGID_19_);fill:#DCBF40;}
	.st112{clip-path:url(#SVGID_19_);fill:#DBBE3F;}
	.st113{clip-path:url(#SVGID_19_);fill:#DBBD3E;}
	.st114{clip-path:url(#SVGID_19_);fill:#DABC3E;}
	.st115{clip-path:url(#SVGID_19_);fill:#DABB3D;}
	.st116{clip-path:url(#SVGID_19_);fill:#D9BA3C;}
	.st117{clip-path:url(#SVGID_19_);fill:#D9B93B;}
	.st118{clip-path:url(#SVGID_19_);fill:#D8B83B;}
	.st119{clip-path:url(#SVGID_19_);fill:#D8B73A;}
	.st120{clip-path:url(#SVGID_19_);fill:#D7B639;}
	.st121{clip-path:url(#SVGID_21_);fill:#D5B237;}
	.st122{clip-path:url(#SVGID_21_);fill:#D5B136;}
	.st123{clip-path:url(#SVGID_21_);fill:#D4B035;}
	.st124{clip-path:url(#SVGID_21_);fill:#D4AF35;}
	.st125{clip-path:url(#SVGID_21_);fill:#D3AE34;}
	.st126{clip-path:url(#SVGID_21_);fill:#D3AD33;}
	.st127{clip-path:url(#SVGID_21_);fill:#D3AC33;}
	.st128{clip-path:url(#SVGID_21_);fill:#D2AA32;}
	.st129{clip-path:url(#SVGID_21_);fill:#D2A931;}
	.st130{clip-path:url(#SVGID_21_);fill:#D1A830;}
	.st131{clip-path:url(#SVGID_21_);fill:#D1A730;}
	.st132{clip-path:url(#SVGID_21_);fill:#D0A62F;}
	.st133{clip-path:url(#SVGID_23_);fill:#CFA42E;}
	.st134{clip-path:url(#SVGID_23_);fill:#CFA32D;}
	.st135{clip-path:url(#SVGID_23_);fill:#CEA22C;}
	.st136{clip-path:url(#SVGID_23_);fill:#CEA12C;}
	.st137{clip-path:url(#SVGID_23_);fill:#CDA02B;}
	.st138{clip-path:url(#SVGID_23_);fill:#CD9F2A;}
	.st139{clip-path:url(#SVGID_23_);fill:#CC9E2A;}
	.st140{clip-path:url(#SVGID_23_);fill:#CC9D29;}
	.st141{clip-path:url(#SVGID_23_);fill:#CB9C28;}
	.st142{clip-path:url(#SVGID_23_);fill:#CB9B27;}
	.st143{clip-path:url(#SVGID_23_);fill:#CA9A27;}
	.st144{clip-path:url(#SVGID_23_);fill:#CA9926;}
	.st145{clip-path:url(#SVGID_23_);fill:#C99825;}
	.st146{clip-path:url(#SVGID_23_);fill:#C99725;}
	.st147{clip-path:url(#SVGID_23_);fill:#C89624;}
	.st148{clip-path:url(#SVGID_23_);fill:#C89523;}
	.st149{clip-path:url(#SVGID_23_);fill:#C79423;}
	.st150{clip-path:url(#SVGID_23_);fill:#C79322;}
	.st151{clip-path:url(#SVGID_23_);fill:#C69221;}
	.st152{clip-path:url(#SVGID_23_);fill:#C69121;}
	.st153{clip-path:url(#SVGID_23_);fill:#C59020;}
	.st154{clip-path:url(#SVGID_23_);fill:#C58F1F;}
	.st155{clip-path:url(#SVGID_23_);fill:#C48E1F;}
	.st156{clip-path:url(#SVGID_23_);fill:#C48D1E;}
	.st157{clip-path:url(#SVGID_23_);fill:#C38C1D;}
	.st158{clip-path:url(#SVGID_23_);fill:#C38B1D;}
	.st159{clip-path:url(#SVGID_23_);fill:#C28A1C;}
	.st160{clip-path:url(#SVGID_23_);fill:#C2891B;}
	.st161{clip-path:url(#SVGID_23_);fill:#C1881A;}
	.st162{clip-path:url(#SVGID_23_);fill:#C1871A;}
	.st163{clip-path:url(#SVGID_23_);fill:#C08619;}
	.st164{clip-path:url(#SVGID_23_);fill:#C08518;}
	.st165{clip-path:url(#SVGID_23_);fill:#BF8418;}
	.st166{fill:#D19E32;}
</style>
<pattern  x="-480" y="-240" width="219.2" height="130" patternUnits="userSpaceOnUse" id="Unnamed_Pattern" viewBox="0 -130 219.2 130" style="overflow:visible;">
	<g>
		<rect x="0" y="-130" class="st0" width="219.2" height="130"/>
		<path class="st1" d="M113.9-27.6L129.8,0h-8.6l-11.6-20.1L98,0h-8.6l15.9-27.6l-8.5-14.7H79.2L63.7-15.3H34.8l-1.5,2.6L25.9,0
			h-8.7L8.5-15.2H0v-7.5h4.2L0-29.9V-45l11.5-20L0-85.1v-15.1l4.2-7.2H0v-7.5h8.5l8.8-15.2h8.7l7.4,12.7l1.4,2.4h29l15.6,27h17.6
			l8.5-14.7L89.4-130H98l11.6,20.1l11.6-20.1h8.6l-15.9,27.6l8.5,14.7H140l15.6-27h29l2-3.5l6.7-11.7h8.7l8.8,15.2h8.5v7.5h-4.2
			l4.2,7.2v15.1L207.7-65l11.5,20v15.1l-4.2,7.2h4.2v7.5h-8.5L202,0h-8.7l-6.7-11.7l-2.1-3.6h-28.9L140-42.2h-17.6L113.9-27.6z
			 M180.2-22.8l-11.2-19.5h-20.3l11.2,19.5H180.2z M202.2-15.2h-9l4.5,7.8L202.2-15.2z M193.1-114.8h9l-4.5-7.8L193.1-114.8z
			 M148.6-87.8h20.3l11.3-19.6h0h-20.3L148.6-87.8z M135.5-65l8.8,15.3h28.9l15.5,26.9h17.6l8.5-14.8L199.1-65l15.8-27.5l-8.5-14.8
			h-13.3h-4.3l-15.6,27h-28.9L135.5-65z M39-107.3l11.3,19.6h20.3l-11.3-19.6H39L39-107.3z M17.1-114.8h9l-4.5-7.8L17.1-114.8z
			 M26.1-15.2h-9l4.5,7.8L26.1-15.2z M70.6-42.2H50.3L39.1-22.8h20.3L70.6-42.2z M83.7-65l-8.8-15.3H46l-15.6-27h-4.3H12.8L4.3-92.5
			L20.2-65L4.3-37.5l8.5,14.8h17.6L46-49.7h28.9L83.7-65z M109.6-35l8.5-14.7h17.7L126.9-65l8.8-15.3h-17.6L109.6-95l-8.5,14.7H83.5
			L92.3-65l-8.8,15.3h17.7L109.6-35z"/>
	</g>
</pattern>
<g>
	<rect x="0" class="st2" width="320" height="320"/>
	<pattern  id="SVGID_1_" xlink:href="#Unnamed_Pattern" patternTransform="matrix(0.6667 0 0 0.6667 -2036.3052 -2420.6646)">
	</pattern>
	<rect x="0" class="st3" width="320" height="320"/>
	<g>
		<g>
			<g>
				<g>
					<defs>
						<path id="SVGID_2_" d="M70.8,133.6l0.5,0.5c0.1,0.1,0.2,0.2,0.2,0.3c0,0.1,0.1,0.2,0.1,0.3v8.6h-12l-2.4,4.5l0.2,0.1l0.7-0.6
							c0.2-0.1,0.3-0.2,0.4-0.3c0.1,0,0.2-0.1,0.4-0.1h12.7v11.6c0,0.2,0,0.3-0.1,0.4c0,0.1-0.1,0.2-0.2,0.3l-0.5,0.5v0.1h5.5v-0.1
							l-0.6-0.5c-0.1-0.1-0.1-0.2-0.1-0.3c0-0.1,0-0.2,0-0.4v-23.9c0-0.2,0-0.3,0-0.4c0-0.1,0.1-0.2,0.2-0.3l0.5-0.5v-0.2h-5.5
							V133.6z"/>
					</defs>
					<clipPath id="SVGID_3_">
						<use xlink:href="#SVGID_2_"  style="overflow:visible;"/>
					</clipPath>
					<rect x="57.1" y="133.4" class="st4" width="0.1" height="26.5"/>
					<rect x="57.2" y="133.4" class="st5" width="2.2" height="26.5"/>
					<rect x="59.4" y="133.4" class="st6" width="2.2" height="26.5"/>
					<rect x="61.6" y="133.4" class="st7" width="2.2" height="26.5"/>
					<rect x="63.9" y="133.4" class="st8" width="2.2" height="26.5"/>
					<rect x="66.1" y="133.4" class="st9" width="2.2" height="26.5"/>
					<rect x="68.3" y="133.4" class="st10" width="2.2" height="26.5"/>
					<rect x="70.6" y="133.4" class="st11" width="2.2" height="26.5"/>
					<rect x="72.8" y="133.4" class="st11" width="2.2" height="26.5"/>
					<rect x="75" y="133.4" class="st11" width="1.3" height="26.5"/>
				</g>
			</g>
			<g>
				<g>
					<defs>
						<path id="SVGID_4_" d="M56.8,159c0-0.1,0-0.2,0-0.4v-23.9c0-0.1,0-0.2,0-0.3c0-0.1,0.1-0.2,0.2-0.3l0.5-0.5v-0.2h-1.6H52H29.1
							l-2.4,4.4l0.2,0.1l0.7-0.6c0.2-0.2,0.3-0.2,0.5-0.3c0.1-0.1,0.2,0,0.4,0h11v21.6c0,0.2-0.2,0.3-0.2,0.4c0,0.1-0.2,0.2-0.3,0.3
							l-0.6,0.5v0.1h5.5v-0.1l-0.5-0.5c-0.1-0.1-0.1-0.2-0.2-0.3c0-0.1,0-0.2,0-0.4v-21.6h9.5c0.1,0,0.1-0.1,0.1-0.1v21.7
							c0,0.2,0,0.3,0,0.4c0,0.1-0.1,0.2-0.2,0.3l-0.5,0.5v0.1h5.5v-0.1l-0.5-0.5C56.9,159.2,56.8,159.1,56.8,159z"/>
					</defs>
					<clipPath id="SVGID_5_">
						<use xlink:href="#SVGID_4_"  style="overflow:visible;"/>
					</clipPath>
					<rect x="26.7" y="133.4" class="st12" width="1.6" height="26.5"/>
					<rect x="28.3" y="133.4" class="st13" width="2.2" height="26.5"/>
					<rect x="30.5" y="133.4" class="st14" width="2.2" height="26.5"/>
					<rect x="32.8" y="133.4" class="st15" width="2.2" height="26.5"/>
					<rect x="35" y="133.4" class="st16" width="2.2" height="26.5"/>
					<rect x="37.2" y="133.4" class="st17" width="2.2" height="26.5"/>
					<rect x="39.4" y="133.4" class="st18" width="2.2" height="26.5"/>
					<rect x="41.7" y="133.4" class="st19" width="2.2" height="26.5"/>
					<rect x="43.9" y="133.4" class="st20" width="2.2" height="26.5"/>
					<rect x="46.1" y="133.4" class="st21" width="2.2" height="26.5"/>
					<rect x="48.4" y="133.4" class="st22" width="2.2" height="26.5"/>
					<rect x="50.6" y="133.4" class="st23" width="2.2" height="26.5"/>
					<rect x="52.8" y="133.4" class="st24" width="2.2" height="26.5"/>
					<rect x="55.1" y="133.4" class="st25" width="2.2" height="26.5"/>
					<rect x="57.3" y="133.4" class="st26" width="0.2" height="26.5"/>
				</g>
			</g>
			<g>
				<g>
					<defs>
						<path id="SVGID_6_" d="M99.8,148.1h0.2l2.5-4.4H84l-1.6,3.7h16.7c0.2,0,0.4,0,0.5,0.1c0.1,0.1,0.2,0.1,0.2,0.3v0.1L99.8,148.1
							z"/>
					</defs>
					<clipPath id="SVGID_7_">
						<use xlink:href="#SVGID_6_"  style="overflow:visible;"/>
					</clipPath>
					<rect x="82.4" y="143.7" class="st27" width="1.4" height="4.4"/>
					<rect x="83.8" y="143.7" class="st27" width="2.2" height="4.4"/>
					<rect x="86" y="143.7" class="st27" width="2.2" height="4.4"/>
					<rect x="88.3" y="143.7" class="st27" width="2.2" height="4.4"/>
					<rect x="90.5" y="143.7" class="st27" width="2.2" height="4.4"/>
					<rect x="92.7" y="143.7" class="st27" width="2.2" height="4.4"/>
					<rect x="94.9" y="143.7" class="st27" width="2.2" height="4.4"/>
					<rect x="97.2" y="143.7" class="st27" width="2.2" height="4.4"/>
					<rect x="99.4" y="143.7" class="st27" width="2.2" height="4.4"/>
					<rect x="101.6" y="143.7" class="st27" width="0.8" height="4.4"/>
				</g>
			</g>
			<g>
				<g>
					<defs>
						<path id="SVGID_8_" d="M104.2,156.1c-0.2,0.1-0.3,0.1-0.4,0.2c-0.1,0.1-0.3,0-0.4,0H91.7c-1.7,0-3.1-0.1-4.1-0.3
							c-1-0.3-1.9-0.7-2.7-1.3c-1.2-0.9-2-2-2.6-3.3c-0.6-1.3-0.9-2.8-0.9-4.6c0-1.6,0.3-3.1,0.9-4.5c0.6-1.3,1.5-2.5,2.6-3.5
							c0.7-0.6,1.6-1,2.7-1.3c1.1-0.3,2.4-0.4,4-0.4h10c0.2,0,0.5,0,0.6,0.1c0.1,0.1,0.3,0.2,0.3,0.3v0.1l-0.3,0.2h0.2l2.5-4.4H91.6
							c-1.9,0-3.3,0.1-4.2,0.2c-1,0.2-1.8,0.5-2.7,0.9c-0.9,0.5-1.8,1-2.6,1.7c-0.8,0.7-1.5,1.4-2.1,2.3c-0.9,1.2-1.5,2.5-2,4
							c-0.4,1.4-0.7,3-0.7,4.6c0,2.1,0.4,4,1.2,5.8c0.8,1.7,1.9,3.2,3.4,4.4c1.2,1,2.5,1.7,3.9,2.1c1.4,0.4,3.4,0.6,5.9,0.6h11
							l2.5-4.4h-0.3L104.2,156.1z"/>
					</defs>
					<clipPath id="SVGID_9_">
						<use xlink:href="#SVGID_8_"  style="overflow:visible;"/>
					</clipPath>
					<rect x="77.3" y="133.4" class="st28" width="2.1" height="26.5"/>
					<rect x="79.4" y="133.4" class="st29" width="2.2" height="26.5"/>
					<rect x="81.6" y="133.4" class="st29" width="2.2" height="26.5"/>
					<rect x="83.8" y="133.4" class="st29" width="2.2" height="26.5"/>
					<rect x="86" y="133.4" class="st29" width="2.2" height="26.5"/>
					<rect x="88.3" y="133.4" class="st29" width="2.2" height="26.5"/>
					<rect x="90.5" y="133.4" class="st29" width="2.2" height="26.5"/>
					<rect x="92.7" y="133.4" class="st29" width="2.2" height="26.5"/>
					<rect x="94.9" y="133.4" class="st29" width="2.2" height="26.5"/>
					<rect x="97.2" y="133.4" class="st29" width="2.2" height="26.5"/>
					<rect x="99.4" y="133.4" class="st29" width="2.2" height="26.5"/>
					<rect x="101.6" y="133.4" class="st29" width="2.2" height="26.5"/>
					<rect x="103.8" y="133.4" class="st29" width="1.4" height="26.5"/>
				</g>
			</g>
			<g>
				<g>
					<defs>
						<path id="SVGID_10_" d="M131.5,144.7l-8.2-2.1c-0.1,0-0.1,0-0.2-0.1c-3.5-0.9-5.3-2-5.3-3.4c0-0.8,0.3-1.2,0.8-1.6
							c0.5-0.4,1.3-0.5,2.4-0.5h14.9c0.2,0,0.4,0,0.6,0.1c0.1,0.1,0.3,0.2,0.3,0.3v0.1l-0.2,0.2h0.2l2.5-4.4H121
							c-2.3,0-4.1,0.5-5.4,1.5c-1.3,1-1.9,2.5-1.9,4.3c0,1.6,0.5,2.9,1.4,4c1,1,2.4,1.8,4.3,2.3l11.1,2.8c2.3,0.6,4,1.5,5.1,2.7
							c1.1,1.2,1.7,2.7,1.7,4.6c0,0.2,0,0.3,0,0.4c0,0.1,0,0.2,0,0.2h-22.8l-1.6,3.7h28.6v-4.5c0-2.7-0.9-4.9-2.6-6.8
							C137.3,146.8,134.8,145.5,131.5,144.7z"/>
					</defs>
					<clipPath id="SVGID_11_">
						<use xlink:href="#SVGID_10_"  style="overflow:visible;"/>
					</clipPath>
					<rect x="113" y="133.4" class="st30" width="2" height="26.5"/>
					<rect x="114.9" y="133.4" class="st30" width="2.2" height="26.5"/>
					<rect x="117.2" y="133.4" class="st30" width="2.5" height="26.5"/>
					<rect x="119.7" y="133.4" class="st31" width="2.5" height="26.5"/>
					<rect x="122.2" y="133.4" class="st32" width="2.5" height="26.5"/>
					<rect x="124.7" y="133.4" class="st33" width="2.5" height="26.5"/>
					<rect x="127.3" y="133.4" class="st34" width="2.5" height="26.5"/>
					<rect x="129.8" y="133.4" class="st35" width="2.5" height="26.5"/>
					<rect x="132.3" y="133.4" class="st36" width="2.5" height="26.5"/>
					<rect x="134.9" y="133.4" class="st37" width="2.5" height="26.5"/>
					<rect x="137.4" y="133.4" class="st38" width="2.5" height="26.5"/>
					<rect x="139.9" y="133.4" class="st39" width="1.6" height="26.5"/>
				</g>
			</g>
			<g>
				<g>
					<defs>
						<path id="SVGID_12_" d="M144.1,133.6l0.5,0.5c0.1,0.1,0.2,0.2,0.2,0.3c0,0.1,0.1,0.2,0.1,0.3v23.9c0,0.2,0,0.3-0.1,0.4
							c0,0.1-0.1,0.2-0.2,0.3l-0.5,0.5v0.1h5.5v-0.1l-0.5-0.5c-0.1-0.1-0.2-0.2-0.2-0.3c0-0.1,0-0.2,0-0.4v-23.9c0-0.1,0-0.2,0-0.3
							c0-0.1,0.1-0.2,0.2-0.3l0.5-0.5v-0.2h-5.5V133.6z"/>
					</defs>
					<clipPath id="SVGID_13_">
						<use xlink:href="#SVGID_12_"  style="overflow:visible;"/>
					</clipPath>
					<rect x="144.1" y="133.4" class="st40" width="0.9" height="26.5"/>
					<rect x="145" y="133.4" class="st41" width="2.5" height="26.5"/>
					<rect x="147.5" y="133.4" class="st42" width="2.2" height="26.5"/>
				</g>
			</g>
			<g>
				<g>
					<defs>
						<path id="SVGID_14_" d="M240.8,156.1c-0.2,0.1-0.3,0.1-0.4,0.2c-0.1,0.1-0.3,0-0.4,0h-11.6c-1.7,0-3.1-0.1-4.1-0.3
							c-1-0.3-1.9-0.7-2.7-1.3c-1.2-0.9-2-2-2.6-3.3c-0.6-1.3-0.9-2.8-0.9-4.6c0-1.6,0.3-3.1,0.9-4.5c0.6-1.3,1.5-2.5,2.6-3.5
							c0.7-0.6,1.6-1,2.7-1.3c1.1-0.3,2.4-0.4,4-0.4h10c0.2,0,0.3,0,0.5,0.1c0.1,0.1,0.2,0.2,0.2,0.3v0.1l0,0.2h0.2l2.5-4.4h-13.3
							c-1.9,0-3.3,0.1-4.2,0.2c-1,0.2-1.8,0.5-2.7,0.9c-0.9,0.5-1.8,1-2.6,1.7c-0.8,0.7-1.5,1.4-2.1,2.3c-0.7,1-1.3,2.1-1.8,3.3
							c-0.1-0.3-0.2-0.6-0.4-1c-0.8-1.9-2-3.5-3.6-4.8c-1.1-0.9-2.4-1.6-3.9-2c-1.5-0.4-3.3-0.6-5.4-0.6h-11.8h-1.2h-5v0.2l0.4,0.3
							c0.1,0.1,0.1,0.1,0.1,0.2c0,0.1,0.1,0.2,0.1,0.2c0,0.2-0.2,0.6-0.6,1.1c-0.1,0.1-0.1,0.2-0.1,0.2l-6.7,9.2l-7.1-9.2
							c0-0.1-0.1-0.1-0.2-0.2c-0.4-0.5-0.6-0.9-0.6-1.1c0-0.1,0-0.1,0.1-0.2c0-0.1,0.1-0.2,0.2-0.2l0.4-0.3v-0.2h-5.1h-1.2h-5.2v0.2
							c0.4,0.1,0.3,0.2,0.4,0.3c0.1,0.1,0.1,0.2,0.1,0.3c0,0.1,0,0.1-0.1,0.2c0,0.1-0.1,0.2-0.2,0.3l-7.6,8.7v3.7
							c0.4-0.1,0.5-0.1,0.7-0.1c0.3,0,0.5,0,0.8,0c3.3,0,6,1,8,3c2,2,3,4.6,3,7.9v0.8c0,0.2-0.1,0.3-0.1,0.4c0,0.1-0.1,0.2-0.2,0.3
							l-0.4,0.5v0.1h4.8v-1.4c0-4.2-1.2-7.6-3.4-10.3c-2.2-2.7-5.2-4.2-8.9-4.4l9-9.7l11.1,14.3v10.3c0,0.2-0.1,0.3-0.1,0.4
							c0,0.1-0.1,0.2-0.2,0.3l-0.4,0.5v0.1h5.5v-0.1l-0.6-0.5c-0.1-0.1-0.1-0.2-0.1-0.3c0-0.1,0-0.2,0-0.4V148l10.1-13.9
							c0.1,0.1,0.1,0.1,0.1,0.2c0,0.1,0.1,0.2,0.1,0.3v23.9c0,0.2-0.1,0.3-0.2,0.4c0,0.1-0.1,0.2-0.1,0.3l-0.4,0.5v0.1h12.6
							c2.5,0,4.4-0.1,5.8-0.6s2.7-1.1,4-2.1c1.5-1.2,2.6-2.7,3.4-4.4c0.1-0.2,0.2-0.4,0.3-0.7c0.1,0.2,0.2,0.4,0.3,0.7
							c0.8,1.7,1.9,3.2,3.4,4.4c1.2,1,2.5,1.7,3.9,2.1c1.4,0.4,3.4,0.6,5.9,0.6h11l2.5-4.4h-0.3L240.8,156.1z M210.7,151.3
							c-0.6,1.3-1.5,2.4-2.6,3.3c-0.8,0.6-1.7,1-2.7,1.3c-1,0.3-2.3,0.3-4.1,0.3h-8.2v-19.2h8.3c1.6,0,3,0.1,4.1,0.4
							c1.1,0.3,2,0.7,2.7,1.4c1.1,0.9,1.9,2.1,2.5,3.4c0.6,1.4,0.9,2.8,0.9,4.4C211.6,148.4,211.3,149.9,210.7,151.3z"/>
					</defs>
					<clipPath id="SVGID_15_">
						<use xlink:href="#SVGID_14_"  style="overflow:visible;"/>
					</clipPath>
					<rect x="193.1" y="137.1" class="st43" width="2.1" height="19.2"/>
					<rect x="195.2" y="137.1" class="st44" width="2.5" height="19.2"/>
					<rect x="197.8" y="137.1" class="st45" width="2.5" height="19.2"/>
					<rect x="200.3" y="137.1" class="st46" width="2.5" height="19.2"/>
					<rect x="202.8" y="137.1" class="st47" width="2.5" height="19.2"/>
					<rect x="205.3" y="137.1" class="st48" width="2.5" height="19.2"/>
					<rect x="207.8" y="137.1" class="st49" width="2.5" height="19.2"/>
					<rect x="210.3" y="137.1" class="st50" width="1.3" height="19.2"/>
					<rect x="150.7" y="133.4" class="st51" width="1.8" height="26.5"/>
					<rect x="152.5" y="133.4" class="st52" width="2.5" height="26.5"/>
					<rect x="155" y="133.4" class="st53" width="2.5" height="26.5"/>
					<rect x="157.5" y="133.4" class="st54" width="2.5" height="26.5"/>
					<rect x="160" y="133.4" class="st55" width="2.5" height="26.5"/>
					<rect x="162.6" y="133.4" class="st56" width="2.5" height="26.5"/>
					<rect x="165.1" y="133.4" class="st57" width="2.5" height="26.5"/>
					<rect x="167.6" y="133.4" class="st58" width="2.5" height="26.5"/>
					<rect x="170.1" y="133.4" class="st59" width="2.5" height="26.5"/>
					<rect x="172.6" y="133.4" class="st60" width="2.5" height="26.5"/>
					<rect x="175.1" y="133.4" class="st61" width="2.5" height="26.5"/>
					<rect x="177.6" y="133.4" class="st62" width="2.5" height="26.5"/>
					<rect x="180.2" y="133.4" class="st63" width="2.5" height="26.5"/>
					<rect x="182.7" y="133.4" class="st64" width="2.5" height="26.5"/>
					<rect x="185.2" y="133.4" class="st65" width="2.5" height="26.5"/>
					<rect x="187.7" y="133.4" class="st66" width="2.5" height="26.5"/>
					<rect x="190.2" y="133.4" class="st67" width="2.5" height="26.5"/>
					<rect x="192.7" y="133.4" class="st43" width="2.5" height="26.5"/>
					<rect x="195.2" y="133.4" class="st44" width="2.5" height="26.5"/>
					<rect x="197.8" y="133.4" class="st45" width="2.5" height="26.5"/>
					<rect x="200.3" y="133.4" class="st46" width="2.5" height="26.5"/>
					<rect x="202.8" y="133.4" class="st47" width="2.5" height="26.5"/>
					<rect x="205.3" y="133.4" class="st48" width="2.5" height="26.5"/>
					<rect x="207.8" y="133.4" class="st49" width="2.5" height="26.5"/>
					<rect x="210.3" y="133.4" class="st50" width="2.5" height="26.5"/>
					<rect x="212.9" y="133.4" class="st68" width="2.5" height="26.5"/>
					<rect x="215.4" y="133.4" class="st69" width="2.5" height="26.5"/>
					<rect x="217.9" y="133.4" class="st70" width="2.5" height="26.5"/>
					<rect x="220.4" y="133.4" class="st71" width="2.5" height="26.5"/>
					<rect x="222.9" y="133.4" class="st72" width="2.5" height="26.5"/>
					<rect x="225.4" y="133.4" class="st73" width="2.5" height="26.5"/>
					<rect x="227.9" y="133.4" class="st74" width="2.5" height="26.5"/>
					<rect x="230.5" y="133.4" class="st75" width="2.5" height="26.5"/>
					<rect x="233" y="133.4" class="st76" width="2.5" height="26.5"/>
					<rect x="235.5" y="133.4" class="st77" width="2.5" height="26.5"/>
					<rect x="238" y="133.4" class="st78" width="2.5" height="26.5"/>
					<rect x="240.5" y="133.4" class="st79" width="1.3" height="26.5"/>
				</g>
			</g>
			<g>
				<g>
					<defs>
						<path id="SVGID_16_" d="M236.3,148.1h0.2l2.5-4.4h-18.4l-1.6,3.7h16.7c0.2,0,0.5,0,0.6,0.1c0.1,0.1,0.3,0.1,0.3,0.3v0.1
							L236.3,148.1z"/>
					</defs>
					<clipPath id="SVGID_17_">
						<use xlink:href="#SVGID_16_"  style="overflow:visible;"/>
					</clipPath>
					<rect x="219" y="143.7" class="st80" width="1.4" height="4.4"/>
					<rect x="220.4" y="143.7" class="st81" width="2.5" height="4.4"/>
					<rect x="222.9" y="143.7" class="st82" width="2.5" height="4.4"/>
					<rect x="225.4" y="143.7" class="st83" width="2.5" height="4.4"/>
					<rect x="227.9" y="143.7" class="st84" width="2.5" height="4.4"/>
					<rect x="230.4" y="143.7" class="st85" width="2.5" height="4.4"/>
					<rect x="233" y="143.7" class="st86" width="2.5" height="4.4"/>
					<rect x="235.5" y="143.7" class="st87" width="2.5" height="4.4"/>
					<rect x="238" y="143.7" class="st88" width="1" height="4.4"/>
				</g>
			</g>
			<g>
				<g>
					<defs>
						<path id="SVGID_18_" d="M267.5,156.1c-0.2,0.1-0.3,0.1-0.4,0.2c-0.1,0.1-0.3,0-0.4,0h-11.6c-1.7,0-3.1-0.1-4.1-0.3
							c-1-0.3-1.9-0.7-2.7-1.3c-1.2-0.9-2-2-2.6-3.3c-0.6-1.3-0.9-2.8-0.9-4.6c0-1.6,0.3-3.1,0.9-4.5c0.6-1.3,1.5-2.5,2.6-3.5
							c0.7-0.6,1.6-1,2.7-1.3c1.1-0.3,2.4-0.4,4-0.4h10c0.2,0,0.4,0,0.5,0.1c0.1,0.1,0.2,0.2,0.2,0.3v0.1l-0.1,0.2h0.2l2.5-4.4H255
							c-1.9,0-3.3,0.1-4.2,0.2c-1,0.2-1.8,0.5-2.7,0.9c-0.9,0.5-1.8,1-2.6,1.7c-0.8,0.7-1.5,1.4-2.1,2.3c-0.9,1.2-1.5,2.5-2,4
							c-0.4,1.4-0.7,3-0.7,4.6c0,2.1,0.4,4,1.2,5.8c0.8,1.7,1.9,3.2,3.4,4.4c1.2,1,2.5,1.7,3.9,2.1c1.4,0.4,3.4,0.6,5.9,0.6h11
							l2.5-4.4h-0.3L267.5,156.1z"/>
					</defs>
					<clipPath id="SVGID_19_">
						<use xlink:href="#SVGID_18_"  style="overflow:visible;"/>
					</clipPath>
					<rect x="240.7" y="133.4" class="st89" width="2.3" height="26.5"/>
					<rect x="243" y="133.4" class="st90" width="2.5" height="26.5"/>
					<rect x="245.5" y="133.4" class="st91" width="2.5" height="26.5"/>
					<rect x="248.1" y="133.4" class="st92" width="2.5" height="26.5"/>
					<rect x="250.6" y="133.4" class="st93" width="2.5" height="26.5"/>
					<rect x="253.1" y="133.4" class="st93" width="0.5" height="26.5"/>
					<rect x="253.6" y="133.4" class="st92" width="0.5" height="26.5"/>
					<rect x="254.1" y="133.4" class="st91" width="0.5" height="26.5"/>
					<rect x="254.6" y="133.4" class="st90" width="0.5" height="26.5"/>
					<rect x="255.1" y="133.4" class="st94" width="0.5" height="26.5"/>
					<rect x="255.6" y="133.4" class="st95" width="0.5" height="26.5"/>
					<rect x="256.1" y="133.4" class="st96" width="0.5" height="26.5"/>
					<rect x="256.6" y="133.4" class="st97" width="0.5" height="26.5"/>
					<rect x="257.1" y="133.4" class="st98" width="0.5" height="26.5"/>
					<rect x="257.6" y="133.4" class="st99" width="0.5" height="26.5"/>
					<rect x="258.1" y="133.4" class="st100" width="0.5" height="26.5"/>
					<rect x="258.7" y="133.4" class="st101" width="0.5" height="26.5"/>
					<rect x="259.2" y="133.4" class="st102" width="0.5" height="26.5"/>
					<rect x="259.7" y="133.4" class="st103" width="0.5" height="26.5"/>
					<rect x="260.2" y="133.4" class="st104" width="0.5" height="26.5"/>
					<rect x="260.7" y="133.4" class="st105" width="0.5" height="26.5"/>
					<rect x="261.2" y="133.4" class="st106" width="0.5" height="26.5"/>
					<rect x="261.7" y="133.4" class="st107" width="0.5" height="26.5"/>
					<rect x="262.2" y="133.4" class="st108" width="0.5" height="26.5"/>
					<rect x="262.7" y="133.4" class="st109" width="0.5" height="26.5"/>
					<rect x="263.2" y="133.4" class="st110" width="0.5" height="26.5"/>
					<rect x="263.7" y="133.4" class="st111" width="0.5" height="26.5"/>
					<rect x="264.2" y="133.4" class="st112" width="0.5" height="26.5"/>
					<rect x="264.7" y="133.4" class="st113" width="0.5" height="26.5"/>
					<rect x="265.2" y="133.4" class="st114" width="0.5" height="26.5"/>
					<rect x="265.7" y="133.4" class="st115" width="0.5" height="26.5"/>
					<rect x="266.2" y="133.4" class="st116" width="0.5" height="26.5"/>
					<rect x="266.7" y="133.4" class="st117" width="0.5" height="26.5"/>
					<rect x="267.2" y="133.4" class="st118" width="0.5" height="26.5"/>
					<rect x="267.7" y="133.4" class="st119" width="0.5" height="26.5"/>
					<rect x="268.3" y="133.4" class="st120" width="0.3" height="26.5"/>
				</g>
			</g>
			<g>
				<g>
					<defs>
						<path id="SVGID_20_" d="M270.5,133.6l0.4,0.5c0.1,0.1,0.2,0.2,0.2,0.3c0,0.1,0.1,0.2,0.1,0.3v23.9c0,0.2-0.1,0.3-0.1,0.4
							c0,0.1-0.1,0.2-0.2,0.3l-0.4,0.5v0.1h5.5v-0.1l-0.5-0.5c-0.1-0.1-0.1-0.2-0.2-0.3c0-0.1,0-0.2,0-0.4v-23.9
							c0-0.1-0.1-0.2,0-0.3c0-0.1,0.2-0.2,0.3-0.3l0.5-0.5v-0.2h-5.5V133.6z"/>
					</defs>
					<clipPath id="SVGID_21_">
						<use xlink:href="#SVGID_20_"  style="overflow:visible;"/>
					</clipPath>
					<rect x="270.5" y="133.4" class="st121" width="0.4" height="26.5"/>
					<rect x="270.9" y="133.4" class="st122" width="0.5" height="26.5"/>
					<rect x="271.4" y="133.4" class="st123" width="0.5" height="26.5"/>
					<rect x="271.9" y="133.4" class="st124" width="0.5" height="26.5"/>
					<rect x="272.4" y="133.4" class="st125" width="0.5" height="26.5"/>
					<rect x="272.9" y="133.4" class="st126" width="0.5" height="26.5"/>
					<rect x="273.4" y="133.4" class="st127" width="0.5" height="26.5"/>
					<rect x="273.9" y="133.4" class="st128" width="0.5" height="26.5"/>
					<rect x="274.4" y="133.4" class="st129" width="0.5" height="26.5"/>
					<rect x="274.9" y="133.4" class="st130" width="0.5" height="26.5"/>
					<rect x="275.4" y="133.4" class="st131" width="0.5" height="26.5"/>
					<rect x="275.9" y="133.4" class="st132" width="0.1" height="26.5"/>
				</g>
			</g>
			<g>
				<g>
					<defs>
						<path id="SVGID_22_" d="M290,148.2c-2.2-2.7-5.1-4.1-8.8-4.4l9.6-10.4h-6.3v0.2c0.4,0.1,0.3,0.2,0.3,0.3
							c0.1,0.1,0.1,0.2,0.1,0.3c0,0.1,0,0.1-0.1,0.2c0,0.1,0,0.2-0.1,0.3l-7.6,8.7v3.7c0.4-0.1,0.4-0.1,0.7-0.1c0.3,0,0.5,0,0.7,0
							c3.3,0,6,1,8,3c2,2,3.1,4.6,3.1,7.9v0.8c0,0.2-0.1,0.3-0.2,0.4c0,0.1,0,0.2-0.1,0.3l-0.4,0.5v0.1h4.4v-1.4
							C293.3,154.3,292.2,150.8,290,148.2z"/>
					</defs>
					<clipPath id="SVGID_23_">
						<use xlink:href="#SVGID_22_"  style="overflow:visible;"/>
					</clipPath>
					<rect x="277.1" y="133.4" class="st133" width="0.3" height="26.5"/>
					<rect x="277.5" y="133.4" class="st134" width="0.5" height="26.5"/>
					<rect x="278" y="133.4" class="st135" width="0.5" height="26.5"/>
					<rect x="278.5" y="133.4" class="st136" width="0.5" height="26.5"/>
					<rect x="279" y="133.4" class="st137" width="0.5" height="26.5"/>
					<rect x="279.5" y="133.4" class="st138" width="0.5" height="26.5"/>
					<rect x="280" y="133.4" class="st139" width="0.5" height="26.5"/>
					<rect x="280.5" y="133.4" class="st140" width="0.5" height="26.5"/>
					<rect x="281" y="133.4" class="st141" width="0.5" height="26.5"/>
					<rect x="281.5" y="133.4" class="st142" width="0.5" height="26.5"/>
					<rect x="282" y="133.4" class="st143" width="0.5" height="26.5"/>
					<rect x="282.5" y="133.4" class="st144" width="0.5" height="26.5"/>
					<rect x="283" y="133.4" class="st145" width="0.5" height="26.5"/>
					<rect x="283.5" y="133.4" class="st146" width="0.5" height="26.5"/>
					<rect x="284" y="133.4" class="st147" width="0.5" height="26.5"/>
					<rect x="284.5" y="133.4" class="st148" width="0.5" height="26.5"/>
					<rect x="285" y="133.4" class="st149" width="0.5" height="26.5"/>
					<rect x="285.5" y="133.4" class="st150" width="0.5" height="26.5"/>
					<rect x="286" y="133.4" class="st151" width="0.5" height="26.5"/>
					<rect x="286.6" y="133.4" class="st152" width="0.5" height="26.5"/>
					<rect x="287.1" y="133.4" class="st153" width="0.5" height="26.5"/>
					<rect x="287.6" y="133.4" class="st154" width="0.5" height="26.5"/>
					<rect x="288.1" y="133.4" class="st155" width="0.5" height="26.5"/>
					<rect x="288.6" y="133.4" class="st156" width="0.5" height="26.5"/>
					<rect x="289.1" y="133.4" class="st157" width="0.5" height="26.5"/>
					<rect x="289.6" y="133.4" class="st158" width="0.5" height="26.5"/>
					<rect x="290.1" y="133.4" class="st159" width="0.5" height="26.5"/>
					<rect x="290.6" y="133.4" class="st160" width="0.5" height="26.5"/>
					<rect x="291.1" y="133.4" class="st161" width="0.5" height="26.5"/>
					<rect x="291.6" y="133.4" class="st162" width="0.5" height="26.5"/>
					<rect x="292.1" y="133.4" class="st163" width="0.5" height="26.5"/>
					<rect x="292.6" y="133.4" class="st164" width="0.5" height="26.5"/>
					<rect x="293.1" y="133.4" class="st165" width="0.2" height="26.5"/>
				</g>
			</g>
		</g>
		<g>
			<path class="st166" d="M77.5,183.6H78l0.3,1.4c0.2,0.2,0.5,0.5,1,0.6c0.5,0.2,0.9,0.3,1.4,0.3c0.7,0,1.3-0.2,1.7-0.5
				c0.4-0.4,0.6-0.9,0.6-1.5c0-0.4-0.1-0.7-0.2-0.9c-0.2-0.2-0.4-0.4-0.6-0.6c-0.3-0.2-0.5-0.3-0.9-0.4c-0.3-0.1-0.7-0.2-1-0.3
				c-0.3-0.1-0.7-0.2-1-0.4c-0.3-0.1-0.6-0.3-0.9-0.5c-0.3-0.2-0.5-0.5-0.6-0.8c-0.2-0.3-0.2-0.7-0.2-1.2c0-0.8,0.3-1.5,0.9-1.9
				c0.6-0.5,1.5-0.7,2.5-0.7c0.8,0,1.7,0.1,2.7,0.3v2.1h-0.5l-0.3-1.3c-0.5-0.4-1.2-0.6-1.9-0.6c-0.7,0-1.2,0.1-1.6,0.4
				c-0.4,0.3-0.6,0.7-0.6,1.2c0,0.3,0.1,0.6,0.2,0.8c0.2,0.2,0.4,0.4,0.6,0.6c0.3,0.2,0.5,0.3,0.9,0.4c0.3,0.1,0.7,0.2,1,0.3
				c0.3,0.1,0.7,0.3,1,0.4c0.3,0.2,0.6,0.3,0.9,0.6c0.3,0.2,0.5,0.5,0.6,0.8c0.2,0.3,0.2,0.7,0.2,1.2c0,1-0.3,1.8-0.9,2.3
				c-0.6,0.5-1.5,0.8-2.6,0.8c-0.6,0-1.1,0-1.7-0.1c-0.6-0.1-1.1-0.2-1.5-0.4V183.6z"/>
			<path class="st166" d="M89.6,181.2c0-3.5,1.7-5.2,5-5.2c1.7,0,2.9,0.4,3.8,1.3c0.8,0.9,1.3,2.2,1.3,3.9c0,1.7-0.4,3.1-1.3,4
				c-0.9,0.9-2.1,1.3-3.7,1.3c-1.6,0-2.9-0.4-3.7-1.3C90,184.3,89.6,183,89.6,181.2z M91.2,181.2c0,1.6,0.3,2.8,0.8,3.6
				c0.6,0.7,1.4,1.1,2.6,1.1c1.2,0,2-0.4,2.6-1.1c0.6-0.7,0.8-1.9,0.8-3.6c0-1.6-0.3-2.8-0.8-3.5c-0.6-0.7-1.4-1.1-2.6-1.1
				c-1.2,0-2,0.4-2.6,1.1C91.4,178.4,91.2,179.6,91.2,181.2z"/>
			<path class="st166" d="M109.9,186.5c-1.7,0-3-0.5-3.9-1.4c-0.9-0.9-1.4-2.2-1.4-3.8c0-1.8,0.4-3.1,1.3-4c0.9-0.9,2.2-1.4,4-1.4
				c1.1,0,2.2,0.1,3.4,0.4l0,2.2h-0.5l-0.2-1.3c-0.4-0.2-0.8-0.4-1.2-0.5c-0.5-0.1-1-0.2-1.4-0.2c-1.3,0-2.3,0.4-2.9,1.2
				c-0.6,0.8-0.9,2-0.9,3.6c0,1.5,0.3,2.6,0.9,3.4c0.6,0.8,1.5,1.2,2.8,1.2c0.6,0,1.1-0.1,1.6-0.2c0.5-0.1,0.9-0.3,1.2-0.6l0.3-1.5
				h0.5l0,2.4C112.4,186.4,111.2,186.5,109.9,186.5z"/>
			<path class="st166" d="M121.6,185.8l1.3,0.2v0.4h-4.1V186l1.3-0.2v-9l-1.3-0.2v-0.4h4.1v0.4l-1.3,0.2V185.8z"/>
			<path class="st166" d="M130.7,186v0.4h-3.4V186l1.2-0.2l3.5-9.7h1.5l3.6,9.7l1.3,0.2v0.4h-4.3V186l1.4-0.2l-1-3h-4l-1,3
				L130.7,186z M132.4,177.1l-1.8,5h3.6L132.4,177.1z"/>
			<path class="st166" d="M147.1,176.5l-1.6,0.2v9h2c1.1,0,1.9-0.1,2.4-0.2l0.5-2.1h0.5l-0.1,2.9h-8V186l1.3-0.2v-9l-1.3-0.2v-0.4
				h4.4V176.5z"/>
			<path class="st166" d="M163.2,186l1.3-0.2v-9l-1.3-0.2v-0.4h7.7v2.5h-0.5l-0.2-1.7c-0.6-0.1-1.4-0.1-2.5-0.1H166v4h2.8l0.2-1.2
				h0.5v3.2H169l-0.2-1.2H166v4.2h2c1.3,0,2.2,0,2.6-0.1l0.4-1.9h0.5l-0.1,2.7h-8.2V186z"/>
			<path class="st166" d="M187.2,176.1v0.4l-1.1,0.2l-4.1,9.9h-0.4l-4.2-9.9l-1.2-0.2v-0.4h4.1v0.4l-1.4,0.2l3.1,7.6l3.1-7.6
				l-1.3-0.2v-0.4H187.2z"/>
			<path class="st166" d="M191.6,186l1.3-0.2v-9l-1.3-0.2v-0.4h7.7v2.5h-0.5l-0.2-1.7c-0.6-0.1-1.4-0.1-2.5-0.1h-1.7v4h2.8l0.2-1.2
				h0.5v3.2h-0.5l-0.2-1.2h-2.8v4.2h2c1.3,0,2.2,0,2.6-0.1l0.4-1.9h0.5l-0.1,2.7h-8.2V186z"/>
			<path class="st166" d="M213.3,176.7l-1.4-0.2v-0.4h3.5v0.4l-1.3,0.2v9.7h-0.7l-6.3-9.2v8.6l1.4,0.2v0.4h-3.5V186l1.3-0.2v-9
				l-1.3-0.2v-0.4h3.1l5.3,7.6V176.7z"/>
			<path class="st166" d="M222,186.4V186l1.6-0.2v-9h-0.4c-1.3,0-2.2,0.1-2.6,0.2l-0.2,1.6h-0.5v-2.4h9v2.4h-0.5l-0.2-1.6
				c-0.2,0-0.5-0.1-1-0.1c-0.5,0-1.1,0-1.7,0h-0.4v9l1.6,0.2v0.4H222z"/>
			<path class="st166" d="M234,183.6h0.5l0.3,1.4c0.2,0.2,0.5,0.5,1,0.6c0.5,0.2,0.9,0.3,1.4,0.3c0.7,0,1.3-0.2,1.7-0.5
				c0.4-0.4,0.6-0.9,0.6-1.5c0-0.4-0.1-0.7-0.2-0.9s-0.4-0.4-0.6-0.6c-0.3-0.2-0.5-0.3-0.9-0.4c-0.3-0.1-0.7-0.2-1-0.3
				c-0.3-0.1-0.7-0.2-1-0.4c-0.3-0.1-0.6-0.3-0.9-0.5c-0.3-0.2-0.5-0.5-0.6-0.8c-0.2-0.3-0.2-0.7-0.2-1.2c0-0.8,0.3-1.5,0.9-1.9
				c0.6-0.5,1.5-0.7,2.5-0.7c0.8,0,1.7,0.1,2.7,0.3v2.1h-0.5l-0.3-1.3c-0.5-0.4-1.2-0.6-1.9-0.6c-0.7,0-1.2,0.1-1.6,0.4
				c-0.4,0.3-0.6,0.7-0.6,1.2c0,0.3,0.1,0.6,0.2,0.8c0.2,0.2,0.4,0.4,0.6,0.6c0.3,0.2,0.5,0.3,0.9,0.4c0.3,0.1,0.7,0.2,1,0.3
				c0.3,0.1,0.7,0.3,1,0.4c0.3,0.2,0.6,0.3,0.9,0.6c0.3,0.2,0.5,0.5,0.6,0.8c0.2,0.3,0.2,0.7,0.2,1.2c0,1-0.3,1.8-0.9,2.3
				c-0.6,0.5-1.5,0.8-2.6,0.8c-0.6,0-1.1,0-1.7-0.1c-0.6-0.1-1.1-0.2-1.5-0.4V183.6z"/>
		</g>
	</g>
</g>
</svg>
