<?xml version="1.0" encoding="utf-8"?>
<!-- Generator: Adobe Illustrator 19.2.1, SVG Export Plug-In . SVG Version: 6.00 Build 0)  -->
<svg version="1.1" id="Layer_1" xmlns="http://www.w3.org/2000/svg" xmlns:xlink="http://www.w3.org/1999/xlink" x="0px" y="0px"
	 viewBox="0 0 480 480" style="enable-background:new 0 0 480 480;" xml:space="preserve">
<style type="text/css">
	.st0{clip-path:url(#SVGID_2_);}
	.st1{clip-path:url(#SVGID_4_);fill:#292620;}
	.st2{clip-path:url(#SVGID_6_);fill:#292620;}
	.st3{clip-path:url(#SVGID_8_);fill:#292620;}
	.st4{clip-path:url(#SVGID_10_);fill:#292620;}
	.st5{clip-path:url(#SVGID_12_);fill:#292620;}
	.st6{clip-path:url(#SVGID_14_);fill:#292620;}
	.st7{clip-path:url(#SVGID_16_);fill:#292620;}
	.st8{clip-path:url(#SVGID_18_);fill:#292620;}
	.st9{clip-path:url(#SVGID_20_);fill:#292620;}
	.st10{clip-path:url(#SVGID_22_);fill:#292620;}
	.st11{clip-path:url(#SVGID_24_);fill:#292620;}
	.st12{clip-path:url(#SVGID_26_);fill:#292620;}
	.st13{clip-path:url(#SVGID_28_);fill:#292620;}
	.st14{clip-path:url(#SVGID_30_);fill:#292620;}
	.st15{clip-path:url(#SVGID_32_);fill:#292620;}
</style>
<g>
	<g>
		<defs>
			<rect id="SVGID_1_" width="480" height="480"/>
		</defs>
		<clipPath id="SVGID_2_">
			<use xlink:href="#SVGID_1_"  style="overflow:visible;"/>
		</clipPath>
		<g class="st0">
			<g>
				<defs>
					<rect id="SVGID_3_" x="370.5" y="-46" width="219.2" height="130"/>
				</defs>
				<clipPath id="SVGID_4_">
					<use xlink:href="#SVGID_3_"  style="overflow:visible;"/>
				</clipPath>
				<path class="st1" d="M492.9,41.8h17.6l15.5,26.9H555l2.1,3.6l6.7,11.7h8.7l8.8-15.2h8.5v-7.5h-4.2l4.2-7.2V39l-11.5-20
					l11.5-20.1v-15.1l-4.2-7.2h4.2v-7.5h-8.5L572.5-46h-8.7l-6.7,11.7l-2,3.5h-29l-15.6,27h-17.6l-8.5-14.7L500.3-46h-8.6
					l-11.6,20.1L468.5-46h-8.6l15.9,27.6l-8.5,14.7h-17.6l-15.6-27h-29l-1.4-2.4L396.4-46h-8.7L379-30.8h-8.5v7.5h4.2l-4.2,7.2v15.1
					L382,19l-11.5,20v15.1l4.2,7.2h-4.2v7.5h8.5l8.8,15.2h8.7l7.4-12.7l1.5-2.6h28.9l15.5-26.9h17.6l8.5,14.7L459.9,84h8.6
					l11.6-20.1L491.7,84h8.6l-15.9-27.6L492.9,41.8z M530.4,61.2l-11.2-19.5h20.3l11.2,19.5H530.4z M568.2,76.6l-4.5-7.8h9
					L568.2,76.6z M568.2-38.6l4.5,7.8h-9L568.2-38.6z M530.4-23.3h20.3h0L539.4-3.8h-20.3L530.4-23.3z M514.8,3.7h28.9l15.6-27h4.3
					h13.3l8.5,14.8L569.6,19l15.8,27.5l-8.5,14.8h-17.6l-15.5-26.9h-28.9L506,19L514.8,3.7z M409.5-23.3h20.3l11.3,19.6h-20.3
					L409.5-23.3L409.5-23.3z M392.1-38.6l4.5,7.8h-9L392.1-38.6z M392.1,76.6l-4.5-7.8h9L392.1,76.6z M429.9,61.2h-20.3l11.2-19.5
					h20.3L429.9,61.2z M445.4,34.3h-28.9L401,61.2h-17.6l-8.5-14.8L390.6,19L374.8-8.5l8.5-14.8h13.3h4.3l15.6,27h28.9l8.8,15.3
					L445.4,34.3z M471.7,34.3H454l8.8-15.3L454,3.7h17.6l8.5-14.7l8.5,14.7h17.6L497.4,19l8.8,15.3h-17.7L480.1,49L471.7,34.3z"/>
			</g>
		</g>
		<g class="st0">
			<g>
				<defs>
					<rect id="SVGID_5_" x="370.5" y="84" width="219.2" height="130"/>
				</defs>
				<clipPath id="SVGID_6_">
					<use xlink:href="#SVGID_5_"  style="overflow:visible;"/>
				</clipPath>
				<path class="st2" d="M492.9,171.8h17.6l15.5,26.9H555l2.1,3.6l6.7,11.7h8.7l8.8-15.2h8.5v-7.5h-4.2l4.2-7.2V169l-11.5-20
					l11.5-20.1v-15.1l-4.2-7.2h4.2v-7.5h-8.5L572.5,84h-8.7l-6.7,11.7l-2,3.5h-29l-15.6,27h-17.6l-8.5-14.7L500.3,84h-8.6
					l-11.6,20.1L468.5,84h-8.6l15.9,27.6l-8.5,14.7h-17.6l-15.6-27h-29l-1.4-2.4L396.4,84h-8.7L379,99.2h-8.5v7.5h4.2l-4.2,7.2v15.1
					L382,149l-11.5,20v15.1l4.2,7.2h-4.2v7.5h8.5l8.8,15.2h8.7l7.4-12.7l1.5-2.6h28.9l15.5-26.9h17.6l8.5,14.7L459.9,214h8.6
					l11.6-20.1l11.6,20.1h8.6l-15.9-27.6L492.9,171.8z M530.4,191.2l-11.2-19.5h20.3l11.2,19.5H530.4z M568.2,206.6l-4.5-7.8h9
					L568.2,206.6z M568.2,91.4l4.5,7.8h-9L568.2,91.4z M530.4,106.7h20.3h0l-11.3,19.6h-20.3L530.4,106.7z M514.8,133.7h28.9
					l15.6-27h4.3h13.3l8.5,14.8L569.6,149l15.8,27.5l-8.5,14.8h-17.6l-15.5-26.9h-28.9L506,149L514.8,133.7z M409.5,106.7h20.3
					l11.3,19.6h-20.3L409.5,106.7L409.5,106.7z M392.1,91.4l4.5,7.8h-9L392.1,91.4z M392.1,206.6l-4.5-7.8h9L392.1,206.6z
					 M429.9,191.2h-20.3l11.2-19.5h20.3L429.9,191.2z M445.4,164.3h-28.9L401,191.2h-17.6l-8.5-14.8l15.8-27.5l-15.8-27.5l8.5-14.8
					h13.3h4.3l15.6,27h28.9l8.8,15.3L445.4,164.3z M471.7,164.3H454l8.8-15.3l-8.8-15.3h17.6l8.5-14.7l8.5,14.7h17.6l-8.8,15.3
					l8.8,15.3h-17.7l-8.5,14.7L471.7,164.3z"/>
			</g>
		</g>
		<g class="st0">
			<g>
				<defs>
					<rect id="SVGID_7_" x="370.5" y="214" width="219.2" height="130"/>
				</defs>
				<clipPath id="SVGID_8_">
					<use xlink:href="#SVGID_7_"  style="overflow:visible;"/>
				</clipPath>
				<path class="st3" d="M492.9,301.8h17.6l15.5,26.9H555l2.1,3.6l6.7,11.7h8.7l8.8-15.2h8.5v-7.5h-4.2l4.2-7.2V299l-11.5-20
					l11.5-20.1v-15.1l-4.2-7.2h4.2v-7.5h-8.5l-8.8-15.2h-8.7l-6.7,11.7l-2,3.5h-29l-15.6,27h-17.6l-8.5-14.7l15.9-27.6h-8.6
					l-11.6,20.1L468.5,214h-8.6l15.9,27.6l-8.5,14.7h-17.6l-15.6-27h-29l-1.4-2.4l-7.4-12.7h-8.7l-8.8,15.2h-8.5v7.5h4.2l-4.2,7.2
					v15.1L382,279l-11.5,20v15.1l4.2,7.2h-4.2v7.5h8.5l8.8,15.2h8.7l7.4-12.7l1.5-2.6h28.9l15.5-26.9h17.6l8.5,14.7L459.9,344h8.6
					l11.6-20.1l11.6,20.1h8.6l-15.9-27.6L492.9,301.8z M530.4,321.2l-11.2-19.5h20.3l11.2,19.5H530.4z M568.2,336.6l-4.5-7.8h9
					L568.2,336.6z M568.2,221.4l4.5,7.8h-9L568.2,221.4z M530.4,236.7h20.3h0l-11.3,19.6h-20.3L530.4,236.7z M514.8,263.7h28.9
					l15.6-27h4.3h13.3l8.5,14.8L569.6,279l15.8,27.5l-8.5,14.8h-17.6l-15.5-26.9h-28.9L506,279L514.8,263.7z M409.5,236.7h20.3
					l11.3,19.6h-20.3L409.5,236.7L409.5,236.7z M392.1,221.4l4.5,7.8h-9L392.1,221.4z M392.1,336.6l-4.5-7.8h9L392.1,336.6z
					 M429.9,321.2h-20.3l11.2-19.5h20.3L429.9,321.2z M445.4,294.3h-28.9L401,321.2h-17.6l-8.5-14.8l15.8-27.5l-15.8-27.5l8.5-14.8
					h13.3h4.3l15.6,27h28.9l8.8,15.3L445.4,294.3z M471.7,294.3H454l8.8-15.3l-8.8-15.3h17.6l8.5-14.7l8.5,14.7h17.6l-8.8,15.3
					l8.8,15.3h-17.7l-8.5,14.7L471.7,294.3z"/>
			</g>
		</g>
		<g class="st0">
			<g>
				<defs>
					<rect id="SVGID_9_" x="370.5" y="344" width="219.2" height="130"/>
				</defs>
				<clipPath id="SVGID_10_">
					<use xlink:href="#SVGID_9_"  style="overflow:visible;"/>
				</clipPath>
				<path class="st4" d="M492.9,431.8h17.6l15.5,26.9H555l2.1,3.6l6.7,11.7h8.7l8.8-15.2h8.5v-7.5h-4.2l4.2-7.2V429l-11.5-20
					l11.5-20.1v-15.1l-4.2-7.2h4.2v-7.5h-8.5l-8.8-15.2h-8.7l-6.7,11.7l-2,3.5h-29l-15.6,27h-17.6l-8.5-14.7l15.9-27.6h-8.6
					l-11.6,20.1L468.5,344h-8.6l15.9,27.6l-8.5,14.7h-17.6l-15.6-27h-29l-1.4-2.4l-7.4-12.7h-8.7l-8.8,15.2h-8.5v7.5h4.2l-4.2,7.2
					v15.1L382,409l-11.5,20v15.1l4.2,7.2h-4.2v7.5h8.5l8.8,15.2h8.7l7.4-12.7l1.5-2.6h28.9l15.5-26.9h17.6l8.5,14.7L459.9,474h8.6
					l11.6-20.1l11.6,20.1h8.6l-15.9-27.6L492.9,431.8z M530.4,451.2l-11.2-19.5h20.3l11.2,19.5H530.4z M568.2,466.6l-4.5-7.8h9
					L568.2,466.6z M568.2,351.4l4.5,7.8h-9L568.2,351.4z M530.4,366.7h20.3h0l-11.3,19.6h-20.3L530.4,366.7z M514.8,393.7h28.9
					l15.6-27h4.3h13.3l8.5,14.8L569.6,409l15.8,27.5l-8.5,14.8h-17.6l-15.5-26.9h-28.9L506,409L514.8,393.7z M409.5,366.7h20.3
					l11.3,19.6h-20.3L409.5,366.7L409.5,366.7z M392.1,351.4l4.5,7.8h-9L392.1,351.4z M392.1,466.6l-4.5-7.8h9L392.1,466.6z
					 M429.9,451.2h-20.3l11.2-19.5h20.3L429.9,451.2z M445.4,424.3h-28.9L401,451.2h-17.6l-8.5-14.8l15.8-27.5l-15.8-27.5l8.5-14.8
					h13.3h4.3l15.6,27h28.9l8.8,15.3L445.4,424.3z M471.7,424.3H454l8.8-15.3l-8.8-15.3h17.6l8.5-14.7l8.5,14.7h17.6l-8.8,15.3
					l8.8,15.3h-17.7l-8.5,14.7L471.7,424.3z"/>
			</g>
		</g>
		<g class="st0">
			<g>
				<defs>
					<rect id="SVGID_11_" x="370.5" y="474" width="219.2" height="130"/>
				</defs>
				<clipPath id="SVGID_12_">
					<use xlink:href="#SVGID_11_"  style="overflow:visible;"/>
				</clipPath>
				<path class="st5" d="M492.9,561.8h17.6l15.5,26.9H555l2.1,3.6l6.7,11.7h8.7l8.8-15.2h8.5v-7.5h-4.2l4.2-7.2V559l-11.5-20
					l11.5-20.1v-15.1l-4.2-7.2h4.2v-7.5h-8.5l-8.8-15.2h-8.7l-6.7,11.7l-2,3.5h-29l-15.6,27h-17.6l-8.5-14.7l15.9-27.6h-8.6
					l-11.6,20.1L468.5,474h-8.6l15.9,27.6l-8.5,14.7h-17.6l-15.6-27h-29l-1.4-2.4l-7.4-12.7h-8.7l-8.8,15.2h-8.5v7.5h4.2l-4.2,7.2
					v15.1L382,539l-11.5,20v15.1l4.2,7.2h-4.2v7.5h8.5l8.8,15.2h8.7l7.4-12.7l1.5-2.6h28.9l15.5-26.9h17.6l8.5,14.7L459.9,604h8.6
					l11.6-20.1l11.6,20.1h8.6l-15.9-27.6L492.9,561.8z M530.4,581.2l-11.2-19.5h20.3l11.2,19.5H530.4z M568.2,596.6l-4.5-7.8h9
					L568.2,596.6z M568.2,481.4l4.5,7.8h-9L568.2,481.4z M530.4,496.7h20.3h0l-11.3,19.6h-20.3L530.4,496.7z M514.8,523.7h28.9
					l15.6-27h4.3h13.3l8.5,14.8L569.6,539l15.8,27.5l-8.5,14.8h-17.6l-15.5-26.9h-28.9L506,539L514.8,523.7z M409.5,496.7h20.3
					l11.3,19.6h-20.3L409.5,496.7L409.5,496.7z M392.1,481.4l4.5,7.8h-9L392.1,481.4z M392.1,596.6l-4.5-7.8h9L392.1,596.6z
					 M429.9,581.2h-20.3l11.2-19.5h20.3L429.9,581.2z M445.4,554.3h-28.9L401,581.2h-17.6l-8.5-14.8l15.8-27.5l-15.8-27.5l8.5-14.8
					h13.3h4.3l15.6,27h28.9l8.8,15.3L445.4,554.3z M471.7,554.3H454l8.8-15.3l-8.8-15.3h17.6l8.5-14.7l8.5,14.7h17.6l-8.8,15.3
					l8.8,15.3h-17.7l-8.5,14.7L471.7,554.3z"/>
			</g>
		</g>
		<g class="st0">
			<g>
				<defs>
					<rect id="SVGID_13_" x="151.2" y="-46" width="219.2" height="130"/>
				</defs>
				<clipPath id="SVGID_14_">
					<use xlink:href="#SVGID_13_"  style="overflow:visible;"/>
				</clipPath>
				<path class="st6" d="M273.6,41.8h17.6l15.5,26.9h28.9l2.1,3.6l6.7,11.7h8.7l8.8-15.2h8.5v-7.5h-4.2l4.2-7.2V39L359,19l11.5-20.1
					v-15.1l-4.2-7.2h4.2v-7.5H362L353.3-46h-8.7l-6.7,11.7l-2,3.5h-29l-15.6,27h-17.6l-8.5-14.7L281.1-46h-8.6l-11.6,20.1L249.3-46
					h-8.6l15.9,27.6l-8.5,14.7h-17.6l-15.6-27h-29l-1.4-2.4L177.2-46h-8.7l-8.8,15.2h-8.5v7.5h4.2l-4.2,7.2v15.1L162.8,19l-11.5,20
					v15.1l4.2,7.2h-4.2v7.5h8.5l8.8,15.2h8.7l7.4-12.7l1.5-2.6h28.9l15.5-26.9h17.6l8.5,14.7L240.7,84h8.6l11.6-20.1L272.5,84h8.6
					l-15.9-27.6L273.6,41.8z M311.1,61.2l-11.2-19.5h20.3l11.2,19.5H311.1z M348.9,76.6l-4.5-7.8h9L348.9,76.6z M348.9-38.6l4.5,7.8
					h-9L348.9-38.6z M311.1-23.3h20.3h0L320.2-3.8h-20.3L311.1-23.3z M295.6,3.7h28.9l15.6-27h4.3h13.3l8.5,14.8L350.3,19l15.8,27.5
					l-8.5,14.8H340l-15.5-26.9h-28.9L286.8,19L295.6,3.7z M190.3-23.3h20.3l11.3,19.6h-20.3L190.3-23.3L190.3-23.3z M172.8-38.6
					l4.5,7.8h-9L172.8-38.6z M172.8,76.6l-4.5-7.8h9L172.8,76.6z M210.6,61.2h-20.3l11.2-19.5h20.3L210.6,61.2z M226.1,34.3h-28.9
					l-15.5,26.9h-17.6l-8.5-14.8L171.4,19L155.6-8.5l8.5-14.8h13.3h4.3l15.6,27h28.9L235,19L226.1,34.3z M252.4,34.3h-17.7l8.8-15.3
					l-8.8-15.3h17.6l8.5-14.7l8.5,14.7H287L278.2,19l8.8,15.3h-17.7L260.9,49L252.4,34.3z"/>
			</g>
		</g>
		<g class="st0">
			<g>
				<defs>
					<rect id="SVGID_15_" x="151.2" y="84" width="219.2" height="130"/>
				</defs>
				<clipPath id="SVGID_16_">
					<use xlink:href="#SVGID_15_"  style="overflow:visible;"/>
				</clipPath>
				<path class="st7" d="M273.6,171.8h17.6l15.5,26.9h28.9l2.1,3.6l6.7,11.7h8.7l8.8-15.2h8.5v-7.5h-4.2l4.2-7.2V169L359,149
					l11.5-20.1v-15.1l-4.2-7.2h4.2v-7.5H362L353.3,84h-8.7l-6.7,11.7l-2,3.5h-29l-15.6,27h-17.6l-8.5-14.7L281.1,84h-8.6l-11.6,20.1
					L249.3,84h-8.6l15.9,27.6l-8.5,14.7h-17.6l-15.6-27h-29l-1.4-2.4L177.2,84h-8.7l-8.8,15.2h-8.5v7.5h4.2l-4.2,7.2v15.1l11.5,20.1
					l-11.5,20v15.1l4.2,7.2h-4.2v7.5h8.5l8.8,15.2h8.7l7.4-12.7l1.5-2.6h28.9l15.5-26.9h17.6l8.5,14.7L240.7,214h8.6l11.6-20.1
					l11.6,20.1h8.6l-15.9-27.6L273.6,171.8z M311.1,191.2l-11.2-19.5h20.3l11.2,19.5H311.1z M348.9,206.6l-4.5-7.8h9L348.9,206.6z
					 M348.9,91.4l4.5,7.8h-9L348.9,91.4z M311.1,106.7h20.3h0l-11.3,19.6h-20.3L311.1,106.7z M295.6,133.7h28.9l15.6-27h4.3h13.3
					l8.5,14.8L350.3,149l15.8,27.5l-8.5,14.8H340l-15.5-26.9h-28.9l-8.8-15.3L295.6,133.7z M190.3,106.7h20.3l11.3,19.6h-20.3
					L190.3,106.7L190.3,106.7z M172.8,91.4l4.5,7.8h-9L172.8,91.4z M172.8,206.6l-4.5-7.8h9L172.8,206.6z M210.6,191.2h-20.3
					l11.2-19.5h20.3L210.6,191.2z M226.1,164.3h-28.9l-15.5,26.9h-17.6l-8.5-14.8l15.8-27.5l-15.8-27.5l8.5-14.8h13.3h4.3l15.6,27
					h28.9L235,149L226.1,164.3z M252.4,164.3h-17.7l8.8-15.3l-8.8-15.3h17.6l8.5-14.7l8.5,14.7H287l-8.8,15.3l8.8,15.3h-17.7
					l-8.5,14.7L252.4,164.3z"/>
			</g>
		</g>
		<g class="st0">
			<g>
				<defs>
					<rect id="SVGID_17_" x="151.2" y="214" width="219.2" height="130"/>
				</defs>
				<clipPath id="SVGID_18_">
					<use xlink:href="#SVGID_17_"  style="overflow:visible;"/>
				</clipPath>
				<path class="st8" d="M273.6,301.8h17.6l15.5,26.9h28.9l2.1,3.6l6.7,11.7h8.7l8.8-15.2h8.5v-7.5h-4.2l4.2-7.2V299L359,279
					l11.5-20.1v-15.1l-4.2-7.2h4.2v-7.5H362l-8.8-15.2h-8.7l-6.7,11.7l-2,3.5h-29l-15.6,27h-17.6l-8.5-14.7l15.9-27.6h-8.6
					l-11.6,20.1L249.3,214h-8.6l15.9,27.6l-8.5,14.7h-17.6l-15.6-27h-29l-1.4-2.4l-7.4-12.7h-8.7l-8.8,15.2h-8.5v7.5h4.2l-4.2,7.2
					v15.1l11.5,20.1l-11.5,20v15.1l4.2,7.2h-4.2v7.5h8.5l8.8,15.2h8.7l7.4-12.7l1.5-2.6h28.9l15.5-26.9h17.6l8.5,14.7L240.7,344h8.6
					l11.6-20.1l11.6,20.1h8.6l-15.9-27.6L273.6,301.8z M311.1,321.2l-11.2-19.5h20.3l11.2,19.5H311.1z M348.9,336.6l-4.5-7.8h9
					L348.9,336.6z M348.9,221.4l4.5,7.8h-9L348.9,221.4z M311.1,236.7h20.3h0l-11.3,19.6h-20.3L311.1,236.7z M295.6,263.7h28.9
					l15.6-27h4.3h13.3l8.5,14.8L350.3,279l15.8,27.5l-8.5,14.8H340l-15.5-26.9h-28.9l-8.8-15.3L295.6,263.7z M190.3,236.7h20.3
					l11.3,19.6h-20.3L190.3,236.7L190.3,236.7z M172.8,221.4l4.5,7.8h-9L172.8,221.4z M172.8,336.6l-4.5-7.8h9L172.8,336.6z
					 M210.6,321.2h-20.3l11.2-19.5h20.3L210.6,321.2z M226.1,294.3h-28.9l-15.5,26.9h-17.6l-8.5-14.8l15.8-27.5l-15.8-27.5l8.5-14.8
					h13.3h4.3l15.6,27h28.9L235,279L226.1,294.3z M252.4,294.3h-17.7l8.8-15.3l-8.8-15.3h17.6l8.5-14.7l8.5,14.7H287l-8.8,15.3
					l8.8,15.3h-17.7l-8.5,14.7L252.4,294.3z"/>
			</g>
		</g>
		<g class="st0">
			<g>
				<defs>
					<rect id="SVGID_19_" x="151.2" y="344" width="219.2" height="130"/>
				</defs>
				<clipPath id="SVGID_20_">
					<use xlink:href="#SVGID_19_"  style="overflow:visible;"/>
				</clipPath>
				<path class="st9" d="M273.6,431.8h17.6l15.5,26.9h28.9l2.1,3.6l6.7,11.7h8.7l8.8-15.2h8.5v-7.5h-4.2l4.2-7.2V429L359,409
					l11.5-20.1v-15.1l-4.2-7.2h4.2v-7.5H362l-8.8-15.2h-8.7l-6.7,11.7l-2,3.5h-29l-15.6,27h-17.6l-8.5-14.7l15.9-27.6h-8.6
					l-11.6,20.1L249.3,344h-8.6l15.9,27.6l-8.5,14.7h-17.6l-15.6-27h-29l-1.4-2.4l-7.4-12.7h-8.7l-8.8,15.2h-8.5v7.5h4.2l-4.2,7.2
					v15.1l11.5,20.1l-11.5,20v15.1l4.2,7.2h-4.2v7.5h8.5l8.8,15.2h8.7l7.4-12.7l1.5-2.6h28.9l15.5-26.9h17.6l8.5,14.7L240.7,474h8.6
					l11.6-20.1l11.6,20.1h8.6l-15.9-27.6L273.6,431.8z M311.1,451.2l-11.2-19.5h20.3l11.2,19.5H311.1z M348.9,466.6l-4.5-7.8h9
					L348.9,466.6z M348.9,351.4l4.5,7.8h-9L348.9,351.4z M311.1,366.7h20.3h0l-11.3,19.6h-20.3L311.1,366.7z M295.6,393.7h28.9
					l15.6-27h4.3h13.3l8.5,14.8L350.3,409l15.8,27.5l-8.5,14.8H340l-15.5-26.9h-28.9l-8.8-15.3L295.6,393.7z M190.3,366.7h20.3
					l11.3,19.6h-20.3L190.3,366.7L190.3,366.7z M172.8,351.4l4.5,7.8h-9L172.8,351.4z M172.8,466.6l-4.5-7.8h9L172.8,466.6z
					 M210.6,451.2h-20.3l11.2-19.5h20.3L210.6,451.2z M226.1,424.3h-28.9l-15.5,26.9h-17.6l-8.5-14.8l15.8-27.5l-15.8-27.5l8.5-14.8
					h13.3h4.3l15.6,27h28.9L235,409L226.1,424.3z M252.4,424.3h-17.7l8.8-15.3l-8.8-15.3h17.6l8.5-14.7l8.5,14.7H287l-8.8,15.3
					l8.8,15.3h-17.7l-8.5,14.7L252.4,424.3z"/>
			</g>
		</g>
		<g class="st0">
			<g>
				<defs>
					<rect id="SVGID_21_" x="151.2" y="474" width="219.2" height="130"/>
				</defs>
				<clipPath id="SVGID_22_">
					<use xlink:href="#SVGID_21_"  style="overflow:visible;"/>
				</clipPath>
				<path class="st10" d="M273.6,561.8h17.6l15.5,26.9h28.9l2.1,3.6l6.7,11.7h8.7l8.8-15.2h8.5v-7.5h-4.2l4.2-7.2V559L359,539
					l11.5-20.1v-15.1l-4.2-7.2h4.2v-7.5H362l-8.8-15.2h-8.7l-6.7,11.7l-2,3.5h-29l-15.6,27h-17.6l-8.5-14.7l15.9-27.6h-8.6
					l-11.6,20.1L249.3,474h-8.6l15.9,27.6l-8.5,14.7h-17.6l-15.6-27h-29l-1.4-2.4l-7.4-12.7h-8.7l-8.8,15.2h-8.5v7.5h4.2l-4.2,7.2
					v15.1l11.5,20.1l-11.5,20v15.1l4.2,7.2h-4.2v7.5h8.5l8.8,15.2h8.7l7.4-12.7l1.5-2.6h28.9l15.5-26.9h17.6l8.5,14.7L240.7,604h8.6
					l11.6-20.1l11.6,20.1h8.6l-15.9-27.6L273.6,561.8z M311.1,581.2l-11.2-19.5h20.3l11.2,19.5H311.1z M348.9,596.6l-4.5-7.8h9
					L348.9,596.6z M348.9,481.4l4.5,7.8h-9L348.9,481.4z M311.1,496.7h20.3h0l-11.3,19.6h-20.3L311.1,496.7z M295.6,523.7h28.9
					l15.6-27h4.3h13.3l8.5,14.8L350.3,539l15.8,27.5l-8.5,14.8H340l-15.5-26.9h-28.9l-8.8-15.3L295.6,523.7z M190.3,496.7h20.3
					l11.3,19.6h-20.3L190.3,496.7L190.3,496.7z M172.8,481.4l4.5,7.8h-9L172.8,481.4z M172.8,596.6l-4.5-7.8h9L172.8,596.6z
					 M210.6,581.2h-20.3l11.2-19.5h20.3L210.6,581.2z M226.1,554.3h-28.9l-15.5,26.9h-17.6l-8.5-14.8l15.8-27.5l-15.8-27.5l8.5-14.8
					h13.3h4.3l15.6,27h28.9L235,539L226.1,554.3z M252.4,554.3h-17.7l8.8-15.3l-8.8-15.3h17.6l8.5-14.7l8.5,14.7H287l-8.8,15.3
					l8.8,15.3h-17.7l-8.5,14.7L252.4,554.3z"/>
			</g>
		</g>
		<g class="st0">
			<g>
				<defs>
					<rect id="SVGID_23_" x="-68" y="-46" width="219.2" height="130"/>
				</defs>
				<clipPath id="SVGID_24_">
					<use xlink:href="#SVGID_23_"  style="overflow:visible;"/>
				</clipPath>
				<path class="st11" d="M54.4,41.8H72l15.5,26.9h28.9l2.1,3.6l6.7,11.7h8.7l8.8-15.2h8.5v-7.5h-4.2l4.2-7.2V39l-11.5-20l11.5-20.1
					v-15.1l-4.2-7.2h4.2v-7.5h-8.5L134-46h-8.7l-6.7,11.7l-2,3.5h-29L72-3.8H54.4l-8.5-14.7L61.8-46h-8.6L41.6-25.9L30-46h-8.6
					l15.9,27.6L28.8-3.8H11.2l-15.6-27h-29l-1.4-2.4L-42.1-46h-8.7l-8.8,15.2H-68v7.5h4.2l-4.2,7.2v15.1L-56.5,19L-68,39v15.1
					l4.2,7.2H-68v7.5h8.5l8.8,15.2h8.7l7.4-12.7l1.5-2.6h28.9l15.5-26.9h17.6l8.5,14.7L21.4,84H30l11.6-20.1L53.2,84h8.6L45.9,56.4
					L54.4,41.8z M91.9,61.2L80.7,41.8h20.3l11.2,19.5H91.9z M129.7,76.6l-4.5-7.8h9L129.7,76.6z M129.7-38.6l4.5,7.8h-9L129.7-38.6z
					 M91.9-23.3h20.3h0L100.9-3.8H80.6L91.9-23.3z M76.3,3.7h28.9l15.6-27h4.3h13.3l8.5,14.8L131.1,19l15.8,27.5l-8.5,14.8h-17.6
					l-15.5-26.9H76.4L67.5,19L76.3,3.7z M-29-23.3h20.3L2.6-3.8h-20.3L-29-23.3L-29-23.3z M-46.4-38.6l4.5,7.8h-9L-46.4-38.6z
					 M-46.4,76.6l-4.5-7.8h9L-46.4,76.6z M-8.6,61.2h-20.3l11.2-19.5H2.6L-8.6,61.2z M6.9,34.3H-22l-15.5,26.9h-17.6l-8.5-14.8
					L-47.8,19L-63.7-8.5l8.5-14.8h13.3h4.3l15.6,27H6.9L15.7,19L6.9,34.3z M33.2,34.3H15.5L24.3,19L15.5,3.7h17.6L41.6-11l8.5,14.7
					h17.6L58.9,19l8.8,15.3H50.1L41.6,49L33.2,34.3z"/>
			</g>
		</g>
		<g class="st0">
			<g>
				<defs>
					<rect id="SVGID_25_" x="-68" y="84" width="219.2" height="130"/>
				</defs>
				<clipPath id="SVGID_26_">
					<use xlink:href="#SVGID_25_"  style="overflow:visible;"/>
				</clipPath>
				<path class="st12" d="M54.4,171.8H72l15.5,26.9h28.9l2.1,3.6l6.7,11.7h8.7l8.8-15.2h8.5v-7.5h-4.2l4.2-7.2V169l-11.5-20
					l11.5-20.1v-15.1l-4.2-7.2h4.2v-7.5h-8.5L134,84h-8.7l-6.7,11.7l-2,3.5h-29l-15.6,27H54.4l-8.5-14.7L61.8,84h-8.6l-11.6,20.1
					L30,84h-8.6l15.9,27.6l-8.5,14.7H11.2l-15.6-27h-29l-1.4-2.4L-42.1,84h-8.7l-8.8,15.2H-68v7.5h4.2l-4.2,7.2v15.1l11.5,20.1
					L-68,169v15.1l4.2,7.2H-68v7.5h8.5l8.8,15.2h8.7l7.4-12.7l1.5-2.6h28.9l15.5-26.9h17.6l8.5,14.7L21.4,214H30l11.6-20.1L53.2,214
					h8.6l-15.9-27.6L54.4,171.8z M91.9,191.2l-11.2-19.5h20.3l11.2,19.5H91.9z M129.7,206.6l-4.5-7.8h9L129.7,206.6z M129.7,91.4
					l4.5,7.8h-9L129.7,91.4z M91.9,106.7h20.3h0l-11.3,19.6H80.6L91.9,106.7z M76.3,133.7h28.9l15.6-27h4.3h13.3l8.5,14.8L131.1,149
					l15.8,27.5l-8.5,14.8h-17.6l-15.5-26.9H76.4L67.5,149L76.3,133.7z M-29,106.7h20.3l11.3,19.6h-20.3L-29,106.7L-29,106.7z
					 M-46.4,91.4l4.5,7.8h-9L-46.4,91.4z M-46.4,206.6l-4.5-7.8h9L-46.4,206.6z M-8.6,191.2h-20.3l11.2-19.5H2.6L-8.6,191.2z
					 M6.9,164.3H-22l-15.5,26.9h-17.6l-8.5-14.8l15.8-27.5l-15.8-27.5l8.5-14.8h13.3h4.3l15.6,27H6.9l8.8,15.3L6.9,164.3z
					 M33.2,164.3H15.5l8.8-15.3l-8.8-15.3h17.6l8.5-14.7l8.5,14.7h17.6L58.9,149l8.8,15.3H50.1L41.6,179L33.2,164.3z"/>
			</g>
		</g>
		<g class="st0">
			<g>
				<defs>
					<rect id="SVGID_27_" x="-68" y="214" width="219.2" height="130"/>
				</defs>
				<clipPath id="SVGID_28_">
					<use xlink:href="#SVGID_27_"  style="overflow:visible;"/>
				</clipPath>
				<path class="st13" d="M54.4,301.8H72l15.5,26.9h28.9l2.1,3.6l6.7,11.7h8.7l8.8-15.2h8.5v-7.5h-4.2l4.2-7.2V299l-11.5-20
					l11.5-20.1v-15.1l-4.2-7.2h4.2v-7.5h-8.5L134,214h-8.7l-6.7,11.7l-2,3.5h-29l-15.6,27H54.4l-8.5-14.7L61.8,214h-8.6l-11.6,20.1
					L30,214h-8.6l15.9,27.6l-8.5,14.7H11.2l-15.6-27h-29l-1.4-2.4l-7.4-12.7h-8.7l-8.8,15.2H-68v7.5h4.2l-4.2,7.2v15.1l11.5,20.1
					L-68,299v15.1l4.2,7.2H-68v7.5h8.5l8.8,15.2h8.7l7.4-12.7l1.5-2.6h28.9l15.5-26.9h17.6l8.5,14.7L21.4,344H30l11.6-20.1L53.2,344
					h8.6l-15.9-27.6L54.4,301.8z M91.9,321.2l-11.2-19.5h20.3l11.2,19.5H91.9z M129.7,336.6l-4.5-7.8h9L129.7,336.6z M129.7,221.4
					l4.5,7.8h-9L129.7,221.4z M91.9,236.7h20.3h0l-11.3,19.6H80.6L91.9,236.7z M76.3,263.7h28.9l15.6-27h4.3h13.3l8.5,14.8
					L131.1,279l15.8,27.5l-8.5,14.8h-17.6l-15.5-26.9H76.4L67.5,279L76.3,263.7z M-29,236.7h20.3l11.3,19.6h-20.3L-29,236.7
					L-29,236.7z M-46.4,221.4l4.5,7.8h-9L-46.4,221.4z M-46.4,336.6l-4.5-7.8h9L-46.4,336.6z M-8.6,321.2h-20.3l11.2-19.5H2.6
					L-8.6,321.2z M6.9,294.3H-22l-15.5,26.9h-17.6l-8.5-14.8l15.8-27.5l-15.8-27.5l8.5-14.8h13.3h4.3l15.6,27H6.9l8.8,15.3
					L6.9,294.3z M33.2,294.3H15.5l8.8-15.3l-8.8-15.3h17.6l8.5-14.7l8.5,14.7h17.6L58.9,279l8.8,15.3H50.1L41.6,309L33.2,294.3z"/>
			</g>
		</g>
		<g class="st0">
			<g>
				<defs>
					<rect id="SVGID_29_" x="-68" y="344" width="219.2" height="130"/>
				</defs>
				<clipPath id="SVGID_30_">
					<use xlink:href="#SVGID_29_"  style="overflow:visible;"/>
				</clipPath>
				<path class="st14" d="M54.4,431.8H72l15.5,26.9h28.9l2.1,3.6l6.7,11.7h8.7l8.8-15.2h8.5v-7.5h-4.2l4.2-7.2V429l-11.5-20
					l11.5-20.1v-15.1l-4.2-7.2h4.2v-7.5h-8.5L134,344h-8.7l-6.7,11.7l-2,3.5h-29l-15.6,27H54.4l-8.5-14.7L61.8,344h-8.6l-11.6,20.1
					L30,344h-8.6l15.9,27.6l-8.5,14.7H11.2l-15.6-27h-29l-1.4-2.4l-7.4-12.7h-8.7l-8.8,15.2H-68v7.5h4.2l-4.2,7.2v15.1l11.5,20.1
					L-68,429v15.1l4.2,7.2H-68v7.5h8.5l8.8,15.2h8.7l7.4-12.7l1.5-2.6h28.9l15.5-26.9h17.6l8.5,14.7L21.4,474H30l11.6-20.1L53.2,474
					h8.6l-15.9-27.6L54.4,431.8z M91.9,451.2l-11.2-19.5h20.3l11.2,19.5H91.9z M129.7,466.6l-4.5-7.8h9L129.7,466.6z M129.7,351.4
					l4.5,7.8h-9L129.7,351.4z M91.9,366.7h20.3h0l-11.3,19.6H80.6L91.9,366.7z M76.3,393.7h28.9l15.6-27h4.3h13.3l8.5,14.8
					L131.1,409l15.8,27.5l-8.5,14.8h-17.6l-15.5-26.9H76.4L67.5,409L76.3,393.7z M-29,366.7h20.3l11.3,19.6h-20.3L-29,366.7
					L-29,366.7z M-46.4,351.4l4.5,7.8h-9L-46.4,351.4z M-46.4,466.6l-4.5-7.8h9L-46.4,466.6z M-8.6,451.2h-20.3l11.2-19.5H2.6
					L-8.6,451.2z M6.9,424.3H-22l-15.5,26.9h-17.6l-8.5-14.8l15.8-27.5l-15.8-27.5l8.5-14.8h13.3h4.3l15.6,27H6.9l8.8,15.3
					L6.9,424.3z M33.2,424.3H15.5l8.8-15.3l-8.8-15.3h17.6l8.5-14.7l8.5,14.7h17.6L58.9,409l8.8,15.3H50.1L41.6,439L33.2,424.3z"/>
			</g>
		</g>
		<g class="st0">
			<g>
				<defs>
					<rect id="SVGID_31_" x="-68" y="474" width="219.2" height="130"/>
				</defs>
				<clipPath id="SVGID_32_">
					<use xlink:href="#SVGID_31_"  style="overflow:visible;"/>
				</clipPath>
				<path class="st15" d="M54.4,561.8H72l15.5,26.9h28.9l2.1,3.6l6.7,11.7h8.7l8.8-15.2h8.5v-7.5h-4.2l4.2-7.2V559l-11.5-20
					l11.5-20.1v-15.1l-4.2-7.2h4.2v-7.5h-8.5L134,474h-8.7l-6.7,11.7l-2,3.5h-29l-15.6,27H54.4l-8.5-14.7L61.8,474h-8.6l-11.6,20.1
					L30,474h-8.6l15.9,27.6l-8.5,14.7H11.2l-15.6-27h-29l-1.4-2.4l-7.4-12.7h-8.7l-8.8,15.2H-68v7.5h4.2l-4.2,7.2v15.1l11.5,20.1
					L-68,559v15.1l4.2,7.2H-68v7.5h8.5l8.8,15.2h8.7l7.4-12.7l1.5-2.6h28.9l15.5-26.9h17.6l8.5,14.7L21.4,604H30l11.6-20.1L53.2,604
					h8.6l-15.9-27.6L54.4,561.8z M91.9,581.2l-11.2-19.5h20.3l11.2,19.5H91.9z M129.7,596.6l-4.5-7.8h9L129.7,596.6z M129.7,481.4
					l4.5,7.8h-9L129.7,481.4z M91.9,496.7h20.3h0l-11.3,19.6H80.6L91.9,496.7z M76.3,523.7h28.9l15.6-27h4.3h13.3l8.5,14.8
					L131.1,539l15.8,27.5l-8.5,14.8h-17.6l-15.5-26.9H76.4L67.5,539L76.3,523.7z M-29,496.7h20.3l11.3,19.6h-20.3L-29,496.7
					L-29,496.7z M-46.4,481.4l4.5,7.8h-9L-46.4,481.4z M-46.4,596.6l-4.5-7.8h9L-46.4,596.6z M-8.6,581.2h-20.3l11.2-19.5H2.6
					L-8.6,581.2z M6.9,554.3H-22l-15.5,26.9h-17.6l-8.5-14.8l15.8-27.5l-15.8-27.5l8.5-14.8h13.3h4.3l15.6,27H6.9l8.8,15.3
					L6.9,554.3z M33.2,554.3H15.5l8.8-15.3l-8.8-15.3h17.6l8.5-14.7l8.5,14.7h17.6L58.9,539l8.8,15.3H50.1L41.6,569L33.2,554.3z"/>
			</g>
		</g>
	</g>
</g>
</svg>
