<?xml version="1.0" encoding="utf-8"?>
<!-- Generator: Adobe Illustrator 19.2.1, SVG Export Plug-In . SVG Version: 6.00 Build 0)  -->
<svg version="1.1" id="Layer_1" xmlns="http://www.w3.org/2000/svg" xmlns:xlink="http://www.w3.org/1999/xlink" x="0px" y="0px"
	 viewBox="0 0 320 320" style="enable-background:new 0 0 320 320;" xml:space="preserve">
<style type="text/css">
	.st0{fill:#0694CE;}
	.st1{fill:#07A3D2;}
	.st2{fill:#D6D579;}
	.st3{fill:#0D94CF;}
	.st4{fill:#D6D57A;}
</style>
<g>
	<g>
		<rect y="0" class="st0" width="320" height="320"/>
	</g>
	<path class="st1" d="M38.4,320h243.1c14.4-10.8,27.4-23.4,38.4-37.5V37.7C308.9,23.5,295.9,10.8,281.3,0H38.7
		C24.1,10.8,11.1,23.5,0,37.7v244.8C11.1,296.6,24,309.2,38.4,320z M160,4.9c86.6,0,156.7,69.5,156.7,155.2
		c0,85.7-70.2,155.2-156.7,155.2S3.3,245.8,3.3,160.1C3.3,74.4,73.4,4.9,160,4.9z"/>
	<path class="st1" d="M160,10.9C76.9,10.9,9.3,77.8,9.3,160.1c0,82.3,67.6,149.2,150.7,149.2s150.7-66.9,150.7-149.2
		C310.7,77.8,243.1,10.9,160,10.9z"/>
	<polygon class="st2" points="144,152.4 74.6,320 80.1,320 251.3,108.3 165.7,108.3 218.5,0 143.1,0 68.7,152.4 	"/>
	<polygon class="st3" points="320,222.8 320,143.3 0,188.3 0,267.7 	"/>
	<path class="st4" d="M16.9,225.3l1.9-16.8l4.9-0.7c1.1-0.1,2-0.1,2.8,0.1c0.8,0.2,1.4,0.6,1.9,1.1c0.5,0.5,0.9,1.2,1.1,2
		c0.2,0.8,0.4,1.7,0.4,2.7c0,1.4-0.1,2.8-0.4,4c-0.3,1.2-0.7,2.3-1.4,3.3c-0.6,1-1.5,1.7-2.5,2.3c-1,0.6-2.3,1-3.8,1.2L16.9,225.3
		 M24.8,199.4l-15.4,2.2l-5.8,51l10.3-1.5l2-17.2l5-0.7c3.3-0.5,6.2-1.4,8.7-2.7c2.5-1.3,4.5-2.9,6.1-4.9c1.6-1.9,2.8-4.1,3.6-6.6
		c0.8-2.4,1.2-5,1.2-7.8c0-2-0.3-3.8-0.9-5.5c-0.6-1.6-1.5-3-2.8-4.1c-1.3-1.1-2.9-1.9-4.8-2.3S27.5,199,24.8,199.4"/>
	<path class="st4" d="M55.9,226.1l5.5-15c0.1-0.3,0.3-0.7,0.5-1.4c0.2-0.6,0.5-1.3,0.8-2c0.3-0.7,0.5-1.4,0.8-2.2s0.5-1.4,0.7-2
		c0.1,1,0.3,2.1,0.6,3.3c0.2,1.2,0.4,2.4,0.6,3.6l2.2,14L55.9,226.1 M70.6,192.9L60,194.4l-22.3,53.4l8.2-1.1
		c0.8-0.1,1.6-0.5,2.3-1.1c0.7-0.6,1.1-1.2,1.4-1.9l3.5-9.5l15.8-2.2l1.4,8.8c0.1,0.7,0.4,1.3,1,1.6c0.5,0.4,1.3,0.5,2.2,0.4
		l8.1-1.1L70.6,192.9"/>
	<path class="st4" d="M103.2,212.1l1.8-15.6l3.7-0.5c1.1-0.2,2.1-0.1,2.9,0c0.8,0.2,1.5,0.5,2,1c0.5,0.5,0.9,1.1,1.2,1.8
		c0.3,0.7,0.4,1.6,0.4,2.5c0,1.2-0.1,2.4-0.4,3.6c-0.3,1.1-0.8,2.2-1.4,3.1c-0.7,0.9-1.5,1.7-2.5,2.3c-1.1,0.6-2.3,1.1-3.8,1.3
		L103.2,212.1 M109.6,187.4l-14.1,2l-5.8,51l10.3-1.5l2.2-19.1l2.3-0.3c0.8-0.1,1.3-0.1,1.7,0.2c0.4,0.2,0.7,0.6,0.9,1.2l5,14.2
		c0.2,0.7,0.6,1.1,1.2,1.4c0.6,0.3,1.3,0.4,2.2,0.2l9.4-1.3l-6.7-16.7c-0.3-0.8-0.8-1.4-1.3-1.9c-0.6-0.5-1.2-0.9-1.8-1.2
		c1.6-0.9,3.1-2,4.3-3.2c1.3-1.3,2.3-2.6,3.2-4.1s1.5-3.1,2-4.9c0.5-1.7,0.7-3.5,0.7-5.4c0-1.8-0.3-3.5-0.9-5
		c-0.6-1.5-1.5-2.7-2.8-3.7c-1.3-1-2.9-1.6-4.9-2C114.9,187,112.5,187,109.6,187.4"/>
	<path class="st4" d="M178.3,177.8l-9,1.3c-1,0.1-1.9,0.4-2.7,0.8c-0.8,0.4-1.5,1.1-2,2.1l-11.1,18.2c-0.4,0.6-0.8,1.1-1.4,1.5
		c-0.6,0.3-1.2,0.6-2,0.7l-1.5,0.2l2.4-20.9l-10.4,1.5l-5.8,51l10.4-1.5l2.5-21.9l2.4-0.3c0.9-0.1,1.6-0.1,2.1,0.1
		c0.5,0.2,0.9,0.6,1.2,1.2l7.2,16.6c0.1,0.3,0.3,0.6,0.5,0.8c0.2,0.2,0.4,0.4,0.7,0.6c0.3,0.1,0.6,0.2,1,0.3c0.4,0,0.9,0,1.5-0.1
		l9.3-1.3l-9.8-21.9c-0.4-0.9-0.8-1.5-1.4-2c-0.6-0.5-1.2-0.8-1.9-1c0.6-0.4,1.1-0.9,1.7-1.4c0.5-0.5,1-1.2,1.5-2L178.3,177.8"/>
	<path class="st4" d="M214,197.6l1.9-16.8l4.9-0.7c1.1-0.1,2-0.1,2.8,0.1c0.8,0.2,1.4,0.6,1.9,1.1c0.5,0.5,0.9,1.2,1.1,2
		c0.2,0.8,0.4,1.7,0.4,2.7c0,1.4-0.1,2.8-0.4,4c-0.3,1.2-0.7,2.3-1.4,3.3c-0.6,1-1.5,1.7-2.5,2.3c-1,0.6-2.3,1-3.8,1.2L214,197.6
		 M221.9,171.7l-15.4,2.2l-5.8,51l10.3-1.5l1.9-17.2l5-0.7c3.3-0.5,6.2-1.4,8.7-2.7c2.4-1.3,4.5-2.9,6.1-4.9
		c1.6-1.9,2.8-4.1,3.6-6.6c0.8-2.4,1.2-5,1.2-7.8c0-2-0.3-3.8-0.9-5.5c-0.6-1.6-1.5-3-2.8-4.1c-1.3-1.1-2.9-1.9-4.8-2.3
		C227,171.3,224.7,171.3,221.9,171.7"/>
	<path class="st4" d="M253,198.4l5.5-15c0.1-0.3,0.3-0.7,0.5-1.4c0.2-0.6,0.5-1.3,0.8-2c0.3-0.7,0.5-1.4,0.8-2.2
		c0.3-0.7,0.5-1.4,0.7-2c0.1,1,0.3,2.1,0.5,3.3c0.2,1.2,0.4,2.4,0.6,3.6l2.2,14L253,198.4 M267.8,165.2l-10.7,1.5l-22.3,53.4
		l8.2-1.1c0.8-0.1,1.6-0.5,2.3-1.1c0.7-0.6,1.1-1.2,1.4-1.9l3.5-9.5l15.8-2.2l1.4,8.8c0.1,0.7,0.4,1.3,1,1.6
		c0.5,0.4,1.3,0.5,2.2,0.4l8.1-1.1L267.8,165.2"/>
	<path class="st4" d="M306.2,159.3c-2.6,0.4-4.9,1.2-7,2.4c-2.1,1.2-3.8,2.7-5.3,4.5c-1.4,1.8-2.6,3.8-3.3,5.9
		c-0.8,2.2-1.2,4.4-1.2,6.6c0,1.9,0.2,3.5,0.7,4.8c0.5,1.3,1.1,2.3,1.9,3.1c0.8,0.8,1.7,1.4,2.7,1.8c1,0.4,2,0.8,3.1,1
		c1,0.3,2.1,0.5,3.1,0.7c1,0.2,1.9,0.5,2.7,0.8c0.8,0.3,1.4,0.8,1.9,1.4c0.5,0.6,0.7,1.4,0.7,2.4c0,2.2-0.5,4-1.6,5.3
		c-1.1,1.3-2.6,2.1-4.5,2.3c-1.3,0.2-2.4,0.1-3.3-0.2s-1.7-0.7-2.4-1.2c-0.7-0.4-1.3-0.8-1.9-1.2c-0.6-0.4-1.1-0.5-1.7-0.4
		c-0.4,0.1-0.9,0.3-1.3,0.6s-0.8,0.7-1.1,1.1l-3.7,5.8c0.8,0.9,1.7,1.7,2.7,2.3c1.1,0.7,2.2,1.2,3.5,1.6c1.2,0.4,2.5,0.7,3.9,0.8
		c1.4,0.1,2.7,0.1,4-0.1c2.7-0.4,5.1-1.2,7.3-2.5c2.2-1.3,4-2.9,5.5-4.7c1.5-1.9,2.7-4,3.5-6.3c0.8-2.3,1.2-4.8,1.2-7.3
		c0-1.8-0.2-3.3-0.7-4.5c-0.5-1.2-1.1-2.2-1.9-3c-0.8-0.8-1.7-1.4-2.7-1.9c-1-0.5-2-0.8-3.1-1.1c-1-0.3-2.1-0.6-3.1-0.8
		c-1-0.2-1.9-0.6-2.7-0.9c-0.8-0.4-1.4-0.8-1.9-1.4c-0.5-0.6-0.7-1.3-0.7-2.2c0-0.9,0.1-1.7,0.4-2.4c0.2-0.8,0.6-1.4,1.1-2
		s1.1-1.1,1.8-1.5c0.7-0.4,1.6-0.7,2.6-0.8c1.1-0.1,2-0.1,2.8,0.1c0.8,0.2,1.5,0.5,2.1,0.8c0.6,0.3,1.2,0.6,1.6,0.9
		c0.5,0.3,1,0.4,1.5,0.3c0.5-0.1,1-0.3,1.3-0.6c0.4-0.3,0.7-0.8,1.1-1.4l3.1-5.1c-0.6-0.8-1.4-1.4-2.3-2c-0.9-0.6-1.9-1.1-3-1.5
		c-1.1-0.4-2.2-0.6-3.5-0.8C308.8,159.1,307.5,159.1,306.2,159.3"/>
</g>
</svg>
