<?xml version="1.0" encoding="utf-8"?>
<!-- Generator: Adobe Illustrator 19.2.1, SVG Export Plug-In . SVG Version: 6.00 Build 0)  -->
<svg version="1.1" id="Layer_1" xmlns="http://www.w3.org/2000/svg" xmlns:xlink="http://www.w3.org/1999/xlink" x="0px" y="0px"
	 viewBox="0 0 274.96 147.4" enable-background="new 0 0 274.96 147.4" xml:space="preserve">
<path fill="#07A3D2" d="M85.19,73.73c0-26.37,19.91-48.14,45.65-51.36c2.17-0.28,4.39-0.42,6.64-0.42c6.06,0,11.88,1.02,17.29,2.9
	c19.04,6.6,33.04,23.8,34.81,44.45l15.09-2.12c-3.33-33.76-32.19-60.23-67.19-60.23c-37.23,0-67.52,29.96-67.52,66.78
	c0,4.17,0.39,8.26,1.14,12.22l15.09-2.12C85.53,80.56,85.19,77.19,85.19,73.73z M137.48,125.51c-7.71,0-15.04-1.65-21.63-4.62
	c-1.21-0.55-2.4-1.14-3.57-1.78c-5.06-2.76-9.61-6.32-13.47-10.53l-17.32,2.44c12.15,17.78,32.71,29.49,55.99,29.49
	c30.05,0,55.58-19.52,64.3-46.4l-17.35,2.44C175.91,113.71,158.09,125.51,137.48,125.51z"/>
<path fill="#07A3D2" d="M129.26,104.3l52.72-7.41c-8.43,15.82-25.21,26.62-44.5,26.62c-7.22,0-14.1-1.52-20.32-4.25
	c-1.4-0.61-2.77-1.29-4.1-2.03c-4.37-2.41-8.34-5.45-11.79-8.99l16.48-2.32L129.26,104.3z"/>
<path fill="#07A3D2" d="M129.42,77.76l-41.25,5.79c-0.64-3.17-0.98-6.46-0.98-9.82c0-24.86,18.51-45.53,42.6-49.2
	c2.51-0.38,5.08-0.58,7.69-0.58c5.74,0,11.26,0.96,16.4,2.72c18.44,6.31,32.05,22.96,33.71,42.91l-34.14,4.8L129.42,77.76z"/>
<path fill="#D6D579" d="M124.89,0.01h-24.62c-26.91,13.6-45.36,41.51-45.36,73.72c0,4.88,0.42,9.67,1.24,14.32l7.03-0.98
	c-0.79-4.33-1.2-8.79-1.2-13.34C61.98,36.69,89.18,5.94,124.89,0.01z M72.76,112.24l-7.75,1.09c8,14.6,20.28,26.51,35.14,34.06
	h24.38C102.56,143.64,83.84,130.47,72.76,112.24z M212.59,66.07l7.01-0.99c-2.97-28.5-20.44-52.7-44.91-65.07h-24.62
	C183.29,5.53,209.14,32.52,212.59,66.07z M209.65,95.76c-8.26,26.57-31.07,46.82-59.22,51.63h24.38
	c21.65-11,37.81-31.26,43.25-55.57l-7.59,1.07C210.22,93.85,209.94,94.81,209.65,95.76z"/>
<polygon fill="#D6D579" points="117.75,105.92 129.26,104.3 117.16,119.26 115.85,120.89 107.02,131.81 112.28,119.11
	113.06,117.23 "/>
<polygon fill="#D6D579" points="167.94,56.45 153.45,74.38 129.42,77.76 132.15,71.17 107.02,71.17 129.79,24.53 130.84,22.37
	134.43,15.02 159.56,15.02 154.77,24.85 153.88,26.67 139.37,56.45 "/>
<g enable-background="new    ">
	<defs>
		<polygon id="SVGID_1_" enable-background="new    " points="71.918,106.653 71.95,89.543 203.041,71.12 203.009,88.23 		"/>
	</defs>
	<clipPath id="SVGID_2_">
		<use xlink:href="#SVGID_1_"  overflow="visible"/>
	</clipPath>
	<path clip-path="url(#SVGID_2_)" fill="#D6D579" d="M79.159,88.53c-0.857,0.12-1.634,0.385-2.324,0.802
		c-0.689,0.408-1.275,0.914-1.765,1.51c-0.482,0.595-0.851,1.261-1.117,1.981c-0.258,0.719-0.387,1.455-0.388,2.198
		c-0.001,0.648,0.078,1.173,0.237,1.592c0.159,0.418,0.367,0.761,0.623,1.036c0.256,0.267,0.552,0.467,0.888,0.61
		c0.336,0.134,0.672,0.251,1.024,0.34c0.344,0.09,0.688,0.171,1.025,0.245c0.328,0.075,0.624,0.163,0.888,0.281
		c0.256,0.12,0.464,0.281,0.624,0.474c0.16,0.202,0.239,0.476,0.239,0.822c-0.001,0.744-0.179,1.33-0.532,1.76
		c-0.353,0.43-0.85,0.69-1.499,0.781c-0.441,0.062-0.809,0.036-1.113-0.068c-0.296-0.114-0.56-0.241-0.792-0.39
		c-0.224-0.141-0.432-0.276-0.624-0.405c-0.184-0.121-0.376-0.172-0.576-0.144c-0.152,0.021-0.296,0.085-0.449,0.193
		s-0.273,0.228-0.361,0.371l-1.245,1.921c0.248,0.302,0.552,0.553,0.904,0.772c0.36,0.217,0.744,0.397,1.16,0.537
		c0.416,0.132,0.848,0.227,1.297,0.267c0.456,0.048,0.905,0.037,1.353-0.026c0.897-0.126,1.715-0.405,2.436-0.835
		c0.722-0.421,1.331-0.948,1.837-1.581c0.506-0.624,0.899-1.328,1.165-2.109c0.274-0.782,0.411-1.596,0.413-2.444
		c0.001-0.588-0.078-1.087-0.237-1.479c-0.159-0.401-0.375-0.734-0.639-0.991c-0.264-0.265-0.568-0.473-0.904-0.625
		c-0.336-0.152-0.68-0.276-1.032-0.382c-0.352-0.106-0.696-0.196-1.033-0.278c-0.328-0.084-0.632-0.188-0.896-0.306
		c-0.264-0.127-0.48-0.278-0.64-0.455c-0.16-0.194-0.239-0.433-0.239-0.744c0.001-0.285,0.041-0.55,0.122-0.795
		c0.089-0.254,0.209-0.479,0.37-0.674c0.169-0.197,0.369-0.363,0.618-0.502c0.249-0.139,0.529-0.221,0.857-0.267
		c0.352-0.05,0.665-0.042,0.929,0.042c0.264,0.075,0.496,0.172,0.696,0.282c0.2,0.11,0.384,0.205,0.552,0.303
		c0.16,0.09,0.32,0.128,0.488,0.104s0.312-0.087,0.441-0.192c0.128-0.104,0.249-0.251,0.369-0.458l1.044-1.685
		c-0.2-0.257-0.456-0.481-0.752-0.681s-0.632-0.361-0.992-0.492c-0.36-0.122-0.752-0.205-1.169-0.251
		C80.025,88.46,79.6,88.468,79.159,88.53"/>
	<path clip-path="url(#SVGID_2_)" fill="#D6D579" d="M89.734,95.497l0.635-5.587l1.642-0.231c0.352-0.05,0.665-0.033,0.921,0.035
		c0.264,0.075,0.472,0.202,0.648,0.376c0.168,0.175,0.296,0.399,0.375,0.665c0.08,0.265,0.119,0.562,0.118,0.891
		c-0.001,0.476-0.05,0.923-0.139,1.333c-0.097,0.411-0.242,0.769-0.459,1.093c-0.209,0.315-0.482,0.578-0.818,0.781
		s-0.753,0.339-1.25,0.409L89.734,95.497 M92.36,86.839l-5.143,0.723l-1.93,17.031l3.452-0.485l0.651-5.744l1.666-0.234
		c1.113-0.156,2.083-0.448,2.901-0.892c0.818-0.435,1.491-0.97,2.029-1.616c0.53-0.645,0.932-1.367,1.189-2.181
		c0.266-0.824,0.396-1.681,0.397-2.597c0.001-0.666-0.102-1.274-0.293-1.826c-0.199-0.551-0.511-1.009-0.934-1.381
		c-0.424-0.364-0.96-0.617-1.616-0.767C94.074,86.719,93.282,86.709,92.36,86.839"/>
	<path clip-path="url(#SVGID_2_)" fill="#D6D579" d="M102.731,95.754l1.835-5.021c0.032-0.091,0.097-0.247,0.177-0.448
		c0.08-0.201,0.169-0.421,0.257-0.659c0.089-0.237,0.177-0.474,0.274-0.721c0.089-0.246,0.161-0.463,0.225-0.663
		c0.047,0.33,0.111,0.702,0.182,1.098c0.071,0.405,0.143,0.792,0.206,1.181l0.744,4.684L102.731,95.754 M107.668,84.688
		l-3.565,0.501l-7.449,17.807l2.732-0.384c0.272-0.038,0.529-0.161,0.753-0.357c0.225-0.196,0.385-0.409,0.458-0.635l1.159-3.171
		l5.279-0.742l0.475,2.941c0.032,0.246,0.143,0.429,0.319,0.552c0.184,0.121,0.424,0.165,0.721,0.123l2.692-0.378L107.668,84.688"/>
	<path clip-path="url(#SVGID_2_)" fill="#D6D579" d="M118.516,91.072l0.594-5.201l1.234-0.173c0.376-0.053,0.697-0.046,0.969,0.011
		c0.272,0.065,0.496,0.172,0.68,0.328s0.312,0.354,0.399,0.601c0.088,0.247,0.127,0.527,0.127,0.838
		c-0.001,0.406-0.05,0.802-0.146,1.179c-0.097,0.385-0.25,0.727-0.474,1.035c-0.217,0.307-0.498,0.571-0.842,0.784
		c-0.353,0.214-0.777,0.351-1.274,0.421L118.516,91.072 M120.669,82.86l-4.71,0.662l-1.93,17.031l3.452-0.485l0.733-6.361
		l0.777-0.109c0.256-0.036,0.449-0.02,0.577,0.049c0.136,0.067,0.24,0.208,0.32,0.413l1.673,4.718
		c0.08,0.222,0.216,0.376,0.416,0.469c0.2,0.102,0.44,0.128,0.737,0.087l3.132-0.44l-2.248-5.588
		c-0.112-0.261-0.255-0.465-0.439-0.63c-0.192-0.155-0.392-0.282-0.608-0.381c0.545-0.31,1.026-0.672,1.452-1.086
		c0.417-0.413,0.778-0.879,1.068-1.386c0.297-0.5,0.514-1.04,0.676-1.616c0.153-0.575,0.226-1.173,0.228-1.795
		c0.001-0.614-0.094-1.162-0.285-1.663c-0.199-0.499-0.511-0.914-0.935-1.234c-0.424-0.321-0.976-0.546-1.64-0.668
		C122.439,82.715,121.622,82.726,120.669,82.86"/>
	<path clip-path="url(#SVGID_2_)" fill="#D6D579" d="M143.571,79.642l-3.004,0.422c-0.344,0.048-0.641,0.133-0.897,0.273
		c-0.257,0.14-0.481,0.37-0.682,0.692l-3.703,6.078c-0.121,0.207-0.273,0.367-0.465,0.489c-0.192,0.113-0.417,0.188-0.665,0.223
		l-0.513,0.072l0.806-6.968l-3.477,0.489l-1.93,17.031l3.452-0.485l0.838-7.301l0.801-0.113c0.296-0.042,0.529-0.031,0.705,0.039
		c0.176,0.062,0.312,0.198,0.4,0.402l2.4,5.558c0.04,0.098,0.096,0.194,0.16,0.271c0.064,0.077,0.144,0.135,0.24,0.182
		c0.096,0.047,0.208,0.074,0.352,0.08c0.136,0.015,0.304,0.009,0.505-0.019l3.092-0.435l-3.27-7.32
		c-0.128-0.285-0.287-0.513-0.471-0.66c-0.184-0.156-0.392-0.273-0.632-0.343c0.184-0.138,0.377-0.295,0.553-0.475
		c0.177-0.172,0.345-0.394,0.514-0.651L143.571,79.642"/>
	<path clip-path="url(#SVGID_2_)" fill="#D6D579" d="M155.507,86.253l0.635-5.587l1.642-0.231c0.36-0.051,0.665-0.033,0.921,0.035
		c0.264,0.075,0.48,0.2,0.648,0.376c0.168,0.175,0.296,0.399,0.375,0.665c0.08,0.265,0.127,0.561,0.126,0.89
		c-0.001,0.476-0.05,0.923-0.147,1.334c-0.089,0.41-0.242,0.769-0.45,1.092c-0.209,0.315-0.49,0.579-0.826,0.782
		c-0.337,0.203-0.753,0.339-1.25,0.409L155.507,86.253 M158.134,77.595l-5.135,0.722l-1.93,17.031l3.452-0.485l0.651-5.744
		l1.658-0.233c1.121-0.158,2.083-0.448,2.901-0.892c0.818-0.435,1.499-0.971,2.029-1.616c0.538-0.646,0.932-1.367,1.197-2.182
		c0.258-0.823,0.388-1.679,0.389-2.596c0.001-0.666-0.094-1.275-0.293-1.826c-0.199-0.551-0.511-1.009-0.934-1.381
		c-0.416-0.365-0.96-0.617-1.616-0.767S159.055,77.466,158.134,77.595"/>
	<path clip-path="url(#SVGID_2_)" fill="#D6D579" d="M168.512,86.509l1.827-5.019c0.04-0.092,0.097-0.247,0.177-0.448
		c0.08-0.201,0.169-0.421,0.257-0.659c0.089-0.237,0.185-0.475,0.274-0.721c0.097-0.247,0.169-0.465,0.225-0.663
		c0.047,0.33,0.111,0.702,0.182,1.098c0.079,0.404,0.143,0.792,0.206,1.181l0.752,4.683L168.512,86.509 M173.442,75.444l-3.557,0.5
		l-7.457,17.808l2.732-0.384c0.28-0.039,0.529-0.161,0.761-0.358c0.225-0.196,0.377-0.407,0.458-0.635l1.159-3.171l5.271-0.741
		l0.475,2.941c0.04,0.245,0.143,0.429,0.327,0.55c0.176,0.122,0.416,0.166,0.721,0.123l2.684-0.377L173.442,75.444"/>
	<path clip-path="url(#SVGID_2_)" fill="#D6D579" d="M186.259,73.478c-0.857,0.12-1.634,0.385-2.324,0.802
		c-0.689,0.408-1.275,0.914-1.765,1.51c-0.482,0.595-0.851,1.261-1.117,1.981c-0.258,0.719-0.387,1.455-0.388,2.198
		c-0.001,0.648,0.07,1.174,0.237,1.592c0.151,0.42,0.367,0.761,0.623,1.036c0.256,0.267,0.552,0.467,0.888,0.61
		c0.336,0.134,0.672,0.251,1.024,0.34c0.344,0.09,0.688,0.171,1.025,0.245c0.328,0.075,0.624,0.163,0.888,0.281
		c0.256,0.12,0.464,0.281,0.624,0.474c0.16,0.202,0.239,0.476,0.239,0.822c-0.001,0.744-0.179,1.33-0.532,1.76
		s-0.85,0.69-1.499,0.781c-0.441,0.062-0.809,0.036-1.113-0.068c-0.296-0.114-0.56-0.241-0.792-0.39
		c-0.224-0.141-0.432-0.276-0.624-0.405c-0.184-0.121-0.376-0.172-0.576-0.144c-0.152,0.021-0.296,0.085-0.449,0.193
		c-0.152,0.108-0.273,0.228-0.361,0.371l-1.245,1.921c0.248,0.302,0.552,0.553,0.904,0.772c0.36,0.217,0.744,0.397,1.16,0.537
		c0.416,0.132,0.848,0.227,1.297,0.267c0.448,0.049,0.905,0.037,1.353-0.026c0.897-0.126,1.715-0.405,2.436-0.835
		c0.722-0.421,1.331-0.948,1.837-1.581c0.506-0.624,0.899-1.328,1.165-2.109c0.274-0.782,0.411-1.596,0.413-2.444
		c0.001-0.588-0.078-1.087-0.238-1.479c-0.159-0.401-0.375-0.734-0.639-0.991c-0.264-0.265-0.568-0.473-0.904-0.625
		c-0.336-0.152-0.68-0.276-1.032-0.382c-0.352-0.106-0.696-0.196-1.033-0.278c-0.328-0.084-0.632-0.188-0.896-0.306
		c-0.264-0.127-0.48-0.278-0.64-0.455c-0.16-0.194-0.239-0.433-0.239-0.744c0.001-0.285,0.041-0.55,0.122-0.795
		c0.089-0.254,0.209-0.479,0.37-0.674c0.169-0.197,0.369-0.363,0.618-0.502c0.24-0.138,0.529-0.221,0.857-0.267
		c0.352-0.05,0.665-0.042,0.929,0.042c0.264,0.075,0.496,0.172,0.696,0.282c0.2,0.11,0.384,0.205,0.544,0.304
		c0.168,0.089,0.328,0.127,0.496,0.103c0.168-0.024,0.312-0.087,0.441-0.192c0.128-0.104,0.249-0.251,0.369-0.458l1.044-1.685
		c-0.2-0.257-0.456-0.481-0.752-0.681c-0.296-0.2-0.632-0.361-0.992-0.492c-0.36-0.122-0.752-0.205-1.169-0.251
		C187.124,73.408,186.699,73.416,186.259,73.478"/>
	<path clip-path="url(#SVGID_2_)" fill="#D6D579" d="M198.835,71.711c-0.857,0.12-1.634,0.385-2.324,0.802
		c-0.689,0.408-1.275,0.914-1.757,1.509c-0.49,0.596-0.859,1.262-1.117,1.981c-0.266,0.72-0.395,1.456-0.396,2.199
		c-0.001,0.648,0.078,1.173,0.237,1.592c0.159,0.418,0.367,0.761,0.631,1.035c0.256,0.267,0.552,0.467,0.888,0.61
		c0.328,0.135,0.672,0.251,1.016,0.341c0.352,0.089,0.688,0.171,1.025,0.245c0.336,0.074,0.632,0.162,0.888,0.281
		c0.264,0.118,0.472,0.279,0.632,0.473c0.16,0.202,0.239,0.476,0.239,0.822c-0.001,0.744-0.179,1.33-0.532,1.76
		c-0.353,0.43-0.85,0.69-1.499,0.781c-0.441,0.062-0.817,0.037-1.113-0.068c-0.304-0.113-0.568-0.24-0.792-0.39
		c-0.232-0.14-0.44-0.275-0.624-0.405c-0.192-0.12-0.384-0.171-0.584-0.143c-0.144,0.02-0.296,0.085-0.449,0.193
		c-0.144,0.107-0.265,0.227-0.361,0.371l-1.237,1.92c0.248,0.302,0.544,0.555,0.904,0.772c0.352,0.218,0.736,0.398,1.152,0.538
		c0.416,0.132,0.848,0.227,1.305,0.266c0.448,0.049,0.897,0.038,1.345-0.025c0.905-0.127,1.715-0.405,2.436-0.835
		c0.722-0.421,1.339-0.949,1.845-1.582c0.506-0.624,0.891-1.327,1.165-2.109c0.266-0.781,0.403-1.595,0.405-2.443
		c0.001-0.588-0.078-1.087-0.238-1.479c-0.159-0.401-0.367-0.735-0.639-0.991c-0.264-0.265-0.568-0.473-0.904-0.625
		s-0.68-0.276-1.032-0.382c-0.352-0.106-0.696-0.196-1.025-0.28c-0.336-0.082-0.632-0.188-0.904-0.305
		c-0.264-0.127-0.48-0.278-0.632-0.456c-0.16-0.194-0.239-0.433-0.239-0.744c0.001-0.285,0.041-0.55,0.122-0.795
		c0.081-0.253,0.201-0.478,0.37-0.674c0.161-0.195,0.369-0.363,0.61-0.501c0.249-0.139,0.537-0.222,0.857-0.267
		c0.36-0.051,0.665-0.042,0.929,0.042c0.264,0.075,0.496,0.172,0.696,0.282c0.208,0.109,0.392,0.204,0.552,0.303
		c0.16,0.09,0.328,0.127,0.488,0.104c0.168-0.024,0.32-0.088,0.441-0.192c0.128-0.104,0.249-0.251,0.369-0.458l1.052-1.686
		c-0.208-0.256-0.464-0.479-0.76-0.68c-0.296-0.2-0.624-0.362-0.992-0.492c-0.36-0.122-0.744-0.207-1.161-0.252
		C199.708,71.64,199.276,71.649,198.835,71.711"/>
</g>
<polygon fill="#06B4DC" points="205.357,141.824 229.608,142.392 228.885,144.556 253.601,140.75 231.913,143.056 232.453,140.653
	"/>
<path fill="#D6D579" d="M208.516,127.617l-0.257,0.722l-0.665,1.859l-1.778-0.848l-0.693-0.33
	l0.326,0.693l0.848,1.782l-1.855,0.66l-0.726,0.257l0.726,0.257l1.855,0.66l-0.848,1.782l-0.326,0.693l0.693-0.33l1.782-0.844
	l0.66,1.855l0.257,0.726v-1.631l-0.506-1.419l-0.102-0.285l-0.273,0.13l-1.362,0.644l0.648-1.358l0.13-0.273l-0.285-0.102
	l-1.419-0.506l1.419-0.506l0.285-0.098l-0.13-0.273l-0.648-1.362l1.362,0.648l0.273,0.126l0.102-0.285l0.506-1.419l0.506,1.419
	l0.098,0.285l0.273-0.126l1.362-0.648l-0.648,1.362l-0.13,0.273l0.285,0.098l1.419,0.506h1.631l-0.722-0.257l-1.859-0.66
	l0.848-1.782l0.326-0.693l-0.693,0.33l-1.778,0.848l-0.66-1.859L208.516,127.617L208.516,127.617z"/>
<path fill="#06B4DC" d="M229.758,135.81c0.321,0.462,0.639,0.938,0.952,1.427h0.024c-0.034-0.509-0.051-1.029-0.051-1.56v-2.79
	h0.643v5.244h-0.639l-2.058-2.924c-0.355-0.51-0.673-0.985-0.952-1.427h-0.024c0.034,0.478,0.051,1.036,0.051,1.674v2.677h-0.639
	v-5.244h0.635L229.758,135.81z"/>
<path fill="#06B4DC" d="M234.344,137.699c0.201,0,0.385-0.016,0.551-0.049c0.166-0.033,0.331-0.079,0.496-0.139v0.506
	c-0.133,0.065-0.298,0.117-0.494,0.155c-0.196,0.038-0.406,0.057-0.631,0.057c-0.267,0-0.517-0.034-0.75-0.102
	c-0.234-0.068-0.436-0.178-0.607-0.329c-0.171-0.151-0.305-0.349-0.402-0.594c-0.097-0.244-0.145-0.539-0.145-0.884
	c0-0.34,0.047-0.634,0.141-0.884c0.094-0.249,0.219-0.458,0.375-0.625c0.156-0.167,0.336-0.293,0.539-0.376
	c0.203-0.084,0.416-0.125,0.637-0.125c0.208,0,0.403,0.035,0.584,0.104c0.181,0.069,0.338,0.178,0.471,0.327
	c0.133,0.149,0.238,0.341,0.315,0.576c0.077,0.235,0.115,0.517,0.115,0.847c0,0.031,0,0.058,0,0.08c0,0.022-0.001,0.073-0.004,0.151
	h-2.571c0,0.238,0.036,0.44,0.108,0.606c0.072,0.166,0.17,0.3,0.294,0.404c0.124,0.103,0.27,0.178,0.437,0.225
	C233.97,137.676,234.15,137.699,234.344,137.699z M234.023,134.831c-0.14,0-0.27,0.027-0.391,0.082
	c-0.12,0.055-0.226,0.129-0.315,0.223c-0.09,0.094-0.163,0.204-0.218,0.331c-0.055,0.127-0.09,0.262-0.103,0.406h1.905
	c0-0.146-0.019-0.283-0.058-0.409c-0.038-0.127-0.095-0.237-0.169-0.331c-0.074-0.094-0.165-0.168-0.274-0.222
	C234.292,134.857,234.166,134.831,234.023,134.831z"/>
<path fill="#06B4DC" d="M238.533,138.138c-0.052,0.021-0.132,0.04-0.239,0.059c-0.107,0.018-0.235,0.029-0.384,0.031
	c-0.196,0-0.366-0.024-0.51-0.073c-0.144-0.048-0.263-0.118-0.359-0.208c-0.095-0.09-0.167-0.199-0.214-0.327
	c-0.047-0.128-0.071-0.27-0.071-0.427v-2.265h-0.717v-0.521h0.717v-1.019h0.607v1.019h1.113v0.521h-1.113v2.171
	c0,0.086,0.012,0.166,0.037,0.239c0.025,0.073,0.064,0.137,0.118,0.19c0.053,0.054,0.122,0.095,0.206,0.125
	c0.084,0.03,0.184,0.045,0.302,0.045c0.081,0,0.167-0.006,0.257-0.02c0.09-0.013,0.173-0.03,0.249-0.051V138.138z"/>
<path fill="#06B4DC" d="M241.574,135.023c-0.08,0.342-0.155,0.638-0.224,0.886l-0.602,2.222h-0.614l-1.209-3.723h0.607l0.694,2.32
	c0.092,0.306,0.162,0.55,0.209,0.733h0.016c0.042-0.188,0.111-0.46,0.207-0.815l0.622-2.238h0.607l0.678,2.238
	c0.091,0.303,0.166,0.575,0.226,0.815h0.016c0.063-0.24,0.133-0.485,0.209-0.733l0.694-2.32h0.607l-1.241,3.723h-0.639l-0.619-2.222
	c-0.074-0.264-0.151-0.559-0.23-0.886H241.574z"/>
<path fill="#06B4DC" d="M248.39,136.273c0,0.293-0.042,0.559-0.125,0.8c-0.084,0.24-0.202,0.446-0.355,0.617
	c-0.153,0.171-0.338,0.304-0.555,0.398c-0.217,0.094-0.46,0.141-0.729,0.141c-0.277,0-0.525-0.047-0.743-0.141
	c-0.218-0.094-0.404-0.227-0.557-0.398c-0.153-0.171-0.27-0.377-0.351-0.617c-0.081-0.24-0.121-0.507-0.121-0.8
	c0-0.295,0.042-0.563,0.125-0.803c0.084-0.24,0.202-0.447,0.355-0.619c0.153-0.172,0.338-0.306,0.557-0.4
	c0.218-0.094,0.462-0.141,0.731-0.141c0.274,0,0.521,0.047,0.741,0.141c0.219,0.094,0.405,0.227,0.557,0.4
	c0.152,0.172,0.268,0.379,0.349,0.619C248.35,135.71,248.39,135.978,248.39,136.273z M247.755,136.273
	c0-0.23-0.028-0.434-0.084-0.613c-0.056-0.179-0.135-0.331-0.235-0.455c-0.101-0.124-0.22-0.218-0.359-0.282
	c-0.138-0.064-0.29-0.096-0.455-0.096s-0.316,0.032-0.455,0.096c-0.138,0.064-0.258,0.158-0.359,0.282
	c-0.101,0.124-0.179,0.276-0.235,0.455c-0.056,0.179-0.084,0.383-0.084,0.613c0,0.227,0.028,0.43,0.084,0.61
	c0.056,0.179,0.135,0.33,0.237,0.453c0.102,0.123,0.222,0.216,0.361,0.28c0.138,0.064,0.29,0.096,0.455,0.096
	s0.316-0.032,0.453-0.096c0.137-0.064,0.256-0.157,0.357-0.28c0.1-0.123,0.179-0.274,0.235-0.453
	C247.727,136.703,247.755,136.5,247.755,136.273z"/>
<path fill="#06B4DC" d="M251.392,134.901h-0.047c-0.144,0-0.285,0.013-0.423,0.039c-0.139,0.026-0.269,0.066-0.39,0.119
	c-0.122,0.054-0.231,0.12-0.329,0.198c-0.098,0.078-0.18,0.171-0.245,0.278v2.595h-0.607v-3.723h0.47l0.118,0.592h0.012
	c0.06-0.097,0.134-0.187,0.222-0.27c0.087-0.084,0.186-0.157,0.296-0.219c0.11-0.063,0.23-0.112,0.361-0.147
	c0.131-0.035,0.268-0.053,0.412-0.053c0.026,0,0.053,0.001,0.08,0.002c0.028,0.001,0.052,0.003,0.073,0.006V134.901z"/>
<path fill="#06B4DC" d="M254.449,134.407h0.792l-1.819,1.713l1.815,2.011h-0.756l-1.787-1.983h-0.008v1.983h-0.607v-5.675h0.607
	v3.614h0.008L254.449,134.407z"/>
<path fill="#D6D579" d="M209.102,138.131v-5.244h0.96v5.244H209.102z"/>
<path fill="#D6D579" d="M211.317,138.131v-5.244h1.387c0.123,0,0.248,0.004,0.374,0.012c0.127,0.008,0.25,0.02,0.37,0.035
	c0.12,0.016,0.236,0.035,0.349,0.057c0.112,0.022,0.216,0.049,0.31,0.08c0.28,0.089,0.526,0.209,0.741,0.361
	c0.214,0.152,0.394,0.331,0.539,0.537c0.145,0.206,0.255,0.437,0.329,0.692c0.074,0.255,0.112,0.531,0.112,0.829
	c0,0.282-0.031,0.547-0.094,0.794c-0.063,0.247-0.158,0.472-0.286,0.676c-0.128,0.204-0.289,0.383-0.484,0.539
	c-0.195,0.156-0.425,0.283-0.692,0.382c-0.222,0.084-0.474,0.146-0.756,0.188c-0.282,0.042-0.6,0.063-0.952,0.063H211.317z
	 M212.673,137.327c0.562,0,1.001-0.077,1.317-0.231c0.28-0.138,0.491-0.34,0.635-0.604c0.144-0.264,0.216-0.601,0.216-1.011
	c0-0.214-0.024-0.408-0.071-0.58c-0.047-0.172-0.115-0.326-0.204-0.461c-0.089-0.135-0.197-0.25-0.323-0.347
	c-0.127-0.097-0.27-0.176-0.429-0.239c-0.149-0.057-0.315-0.099-0.498-0.125c-0.183-0.026-0.388-0.039-0.615-0.039h-0.423v3.637
	H212.673z"/>
<path fill="#D6D579" d="M217.807,137.327h2.579v0.803h-3.539v-5.244h3.398v0.803h-2.438v1.356h2.093v0.803h-2.093V137.327z"/>
<path fill="#D6D579" d="M224.407,136.794h-1.975l-0.514,1.336h-1.023l2.081-5.244h0.878l2.081,5.244h-1.015L224.407,136.794z
	 M223.411,134.149c-0.183,0.549-0.347,1.007-0.491,1.375l-0.179,0.467h1.355l-0.179-0.467c-0.142-0.372-0.306-0.83-0.491-1.375
	H223.411z"/>
</svg>
