<?xml version="1.0" encoding="utf-8"?>
<!-- Generator: Adobe Illustrator 21.0.0, SVG Export Plug-In . SVG Version: 6.00 Build 0)  -->
<svg version="1.1" id="Layer_1" xmlns="http://www.w3.org/2000/svg" xmlns:xlink="http://www.w3.org/1999/xlink" x="0px" y="0px"
	 viewBox="0 0 600 300" style="enable-background:new 0 0 600 300;" xml:space="preserve">
<style type="text/css">
	.st0{fill:#9086BE;}
</style>
<path class="st0" d="M485.7,269c-0.2,0-0.4,0-0.7,0c0.3-0.1,0.7-0.2,1-0.3c-0.8,0-3.1,0.6-0.9-0.1c-2.1,0.1-5.2,0.3-7.6,0.6
	c1.4-1.2,3.4-3.2,3.1-3.5c0.9,1,0-0.8,0.7-0.3c-0.2-0.3,1.3-1.7,1.5-1.5c0.1,0,0.1-0.1,0-0.2c-0.2-0.4-2,1.2-2.1,1.1
	c0.1,0.1-1,0.2-0.4,0.7c-0.3,0.1-0.4,0.3-0.4,0.5c-0.1,0-0.9,0.6-0.7,0.4c0,0-2.8,2.7-2.9,2.4c0,0.1,0.1,0.2,0.1,0.4
	c0,0-0.1,0-0.1,0c-0.9-0.6-1-0.4-1,0.1c-0.2,0-0.5,0-0.7,0.1c-6.2,0.9-12.9,1.2-19.1,1.1c0.1,0,0.1-0.1,0-0.2c0.3,0,0.6-0.1,0.9,0
	c-2.2,0-4.4-0.1-6.4,0.2c0.4,0,0.9,0.1,1.3,0.1c-0.9,0.1-1.8,0.1-2.7,0.2c0.1-0.1,0.3-0.2,0.4-0.4c-2.6-0.1-7.3,1.6-9.7,0.6
	c0.4,0.2,1,0,1.5,0.1c-1.6-0.6-5.2-0.1-6.9,0.2c0.1,0-5,1.2-4.7,0.5c0.1-0.2,0.9-0.2,1.5-0.3c-1,0-2.7-0.5-3.3-0.1
	c0.2,0.1,0.3,0.1,0.5,0.1c-1,0-2.1,0-3.1,0.1c0.6-1.1,1.5-3.2,1.3-3.3c-0.1-0.1,1-1.8,0.6-2.2c0.1,0.1,0.2,0,0.3,0.1
	c-0.1-0.1-0.5-0.9-0.1-0.8c0.1,0,0.6-1.3,0.3-1.6c0.1,0.1,0.7,0,0.2-0.1c0-0.6,0.2-0.9,0.8-0.9c-0.5-0.1-0.4-1.2,0.1-0.9
	c-0.2-0.1-0.4-1.3,0.3-1.2c-0.2-0.1-0.2-0.2,0-0.1c-0.7-0.4,0-1.1,0.1-1.2c0.6,0-1.5-0.3-0.8-0.1c0.2,0.1,0.3,0.2,0.5,0.2
	c-0.1,0-0.3,0.1-0.4,0c0.1,0.1,0.1,0.2,0.1,0.3c0.7,0.1-1.3,0.1-0.3,1c-0.4-0.4-0.3,0.5-0.4,0.5c0,0,0.1,0.6-0.2,0.7
	c-0.4-0.4-1.2-1-0.4-0.9c-0.6-0.3,0.5-1.2,0-1.5c1.8,0.9,0.3-3.3,1-3c0.2-0.6,0.3-1.2,0.2-1.8c-0.2-0.1-0.3-0.2-0.3-0.3
	c-0.2,1.1-1.2,3.1-1.4,3.1c0.2,0,0.4,0.1,0.5,0.2c-0.9,0.3-1.1,0.9-0.8,1.7c-0.2,2.2-0.7,4.4-1.2,6.6c-0.6-0.3-1.1-6.5-1.2-6.5
	c-0.3-0.5-0.4-1-0.4-1.5c2.3,0.3-0.7-3.6,0.1-3.6c0.2,0-0.9-1.8-0.3-1.9c-1.4-0.1-0.1-1.4-0.4-1.5c-0.9-0.4,1.6-0.2-0.4-0.3
	c-1.1,0.2,1.6,4.9-0.1,5.4c0.2,0,0.4,0,0.6,0c-0.7,0.6-0.8,1.4-0.3,2.1c-1.1,0.2-1.3,0.7-1.2,1.3c-0.6-1.2-2.4-2.9-1.6-3.3
	c-0.4,0.1-0.6,0.1-0.7-0.1c0,0.5-0.1,1.5,0.2,1.7c0.6,0.2,0.7,0.7,0.3,1.5c0,0.1,0,0.1,0,0.2c0.2-0.1,0.4-0.1,0.5-0.2
	c-1,0.4,0.2,2.1-0.1,2.1c-3.6-0.2,4.2,4.8,2.1,5.7c0.2,0.2,0.2,0.4,0.1,0.7c-0.2,0.1-0.6,0-0.5-0.2c-0.2,0.2-0.2,0.2-0.1-0.1
	c0,0-0.1,0.1-0.1,0.1c0.3-0.4,0.2-0.6-0.4-0.5c0.3-0.4-0.2-1.3-0.6-1c0.6-0.6-1-1.4-1.1-1.3c0.2-0.3,0.1-0.5-0.1-0.5c0,0,0,0,0,0
	c0.1-0.1-0.5,0.1-0.4,0c0.2-0.2,0.5-0.5-0.1,0c-0.1,0.2-0.3,0.6-0.2,0.5c0.1-0.1,0.3-0.2,0.4-0.4c-0.1,0.1-0.1,0.3-0.3,0.4
	c0.2,0,0.3-0.1,0.4-0.2c-0.1,0.2,0.5,1.1,0.4,1.2c0.4-0.4-0.3,0.4,0.2-0.1c-0.5,0.9,0.6-0.6-0.1,0.6c0.1,0.1,0.2,0.2,0.2,0.3
	c0.2-0.2,0.2-0.2,0,0c0.1-0.1,0.3-0.3,0.4-0.4c-0.5,0.7-0.1,0.5-0.2,0.7c0,0,0-0.1,0.1-0.1c-0.2,0.6-0.1,0.8,0.3,0.5
	c-0.6,0.6,1.1,2.1,1.4,1.8c0.5-0.6,0.2,1.2,0.6,0.9c-0.2,0.2-0.2,0.2,0,0c-0.7,1,0.9,0.8,0.7,1.3c0,0,0,0,0,0c0,0,0,0,0,0
	c0,0,0,0,0,0c0,0,0,0,0,0c0.5,0.2-5.5,1-5.9,0.3c0.3-0.2,0.6-0.3,0.9-0.3c-1.7,0.3-3.3,0-5.1,0c0.4,0,0.7-0.1,1.1-0.1
	c-0.7,0.1-1.2,0.1-1.5,0.2c0.2,0,0.3,0.1,0.4,0.2c-1.1,0-3.8,1.5-4.9,0.5c1.3,0,0.8-0.4,2-0.4c-1.8,0.2-4-0.1-6.2,0.2
	c1.5,0-2.6,0.6-3.2,0.6c0.3,0,0.7,0,1,0c-0.8,0.2-1.6,0.3-2.4,0.3c0,0,0.7-0.2,0.7-0.2c-3.2,0.9-6.8-0.7-10.1-0.3
	c0.6,0.2,0.3,0.3-0.1,0.3c-3-0.2-5.9,0.3-9.4,0.2c0.4,0,0.7,0.1,1.1,0.1c-1.3,0.7-4.7,0-6.3,0c-2.5,0-5.2,0.6-7.7,0.5
	c1.1-0.3-0.9-0.3,1.3-0.5c-1.9,0-6.2,0.9-6.9,0.7c-2.2-0.5-4.5-0.6-6.9-0.6c0.1-0.1,0-0.2-0.7-0.2l0.2,0.2c-0.8,0-1.6,0-2.4,0.1
	c0,0,0,0,0,0c0,0,0,0,0,0c-1.4,0-2.7,0.1-4,0.1c0-0.1,0-0.1,0.1-0.2c0,0-0.1,0,0,0c0.3-1.1,1-3.6,0.6-3.7c0.9,0.3-0.3-0.5,0.3-0.4
	c-0.3-0.1,0.1-1.5,0.3-1.4c0,0,0-0.1-0.1-0.1c-0.3-0.1-0.7,1.4-0.8,1.4c0.1,0-0.5,0.5,0.1,0.6c-0.1,0.2-0.1,0.3,0,0.4
	c-0.1,0-0.3,0.7-0.3,0.5c0,0-0.6,2.6-0.8,2.5c0.1,0.1,0.1,0.1,0.2,0.2c0,0,0,0,0.2,0c-0.7,0-0.9,0-0.9,0.2c-0.2,0-0.3,0-0.5,0
	c0,0,0.1-0.1,0.1-0.1c-0.8,0-3.3,0-4.1,0.1c-1.4,0-3.3-0.2-4.3-0.5c0.1,0,0.3,0,0.4,0c-3.9-0.7-8.3,0.3-12.2,0.3
	c1.8-0.6-2.6,0.6-3.3-0.6c0.6,0,1.2,0,1.8,0.1c-2.4-1-6.7-0.2-8.9-0.1c-1.6,0-3.8-0.1-6-0.1c-0.1-0.1-0.1-0.2,0-0.1
	c-0.1-0.1,0-0.2,0.1-0.3c0.1,0,0.2,0,0.3,0c0.1,0,0.2,0,0.4,0.1c0,0-0.1-0.1-0.1-0.1c0.3,0,0.7,0,1-0.1c-0.4,0-0.8-0.1-1.3-0.1
	c-0.2-0.3,1.2-0.6,0.8-1.1c0.3,0.3,0.3,0.3,0,0c0.7,0.5,0.2,0.1,0.1,0c0,0.1,0.6,0.1,0.3-0.1c-0.4-0.2,1.4-0.1,0.5-1.1
	c0.5,0.4,0.4,0.2,0.3,0c0.2,0.1,1.4-1.1,1.6-1.1c-0.1-0.8,0-1,0.5-0.8c-0.2-0.3,0.1-0.3-0.2-0.6c0.6,0.4,0.7,0.2,0.4-0.7
	c0,0,0.1,0.1,0.1,0.1c-0.1-0.3,0.6,0-0.2-0.9c0.2,0.2,0.5,0.3,0.7,0.5c-0.3-0.2-0.3-0.3,0,0c-0.3-0.3-0.3-0.4,0-0.1
	c-0.3-0.7-0.2-0.8,0.3-0.3c-0.3-0.5-0.2-0.6-0.3-0.6c0.1,0,0.2,0,0.3,0.1c-0.1-0.1-0.2-0.2-0.2-0.4c0.7,0.7-0.4-0.4,0.3,0.2
	c-0.3-0.3-0.2-0.3,0.2-0.1c0.3,0,1.3,0.1,0-0.5c0.5-0.1,1-0.3,0.6-0.9c0,0,0,0-0.1-0.2c0,0,0.1,0.1,0.1,0.1c0-0.2,0.1-0.2,0.4,0.1
	c0,0,0.1,0,0.1,0c-0.2-0.1-0.3-0.4-0.4-0.5c0.2,0.2,0.4,0.3,0.6,0.5c-0.1-0.1-0.2-0.3,0.2,0c-0.2-0.4-0.2-0.4-0.5-1
	c0.1,0,0.2,0.1,0.3,0.1c0.2,0.1,0.3,0.2,0.5,0.3c-0.2-0.4-1.6-1.1-0.6-0.1c-0.2-0.1-0.4-0.3-0.6-0.4c0,0.1,0.1,0.1,0.1,0.1
	c0,0,0,0,0.2,0.2c-0.3-0.2-0.3-0.2-0.1,0.1c-0.1-0.1-0.3-0.1-0.5-0.3c0.2,0.3-0.7-0.3-0.1,0.1c0,0,0,0,0,0c0.5,0.4-0.2,0.2-0.3,0.2
	c1,0.5-1.1-0.5,0.1,0.6c-0.1-0.1-0.1,0-0.5-0.3c-0.2,0-0.2,0.2,0.2,0.4c0.5,0.3-1.6-0.2-0.8,0.7c-1.3-0.6,1,0.9-0.7-0.1
	c0.6,0.8,0.4,0.8-0.5,0.1c0.4,0.6-0.3-0.4,0.5,0.5c-0.1-0.1-0.4-0.2-0.5-0.3c0.1,0.3,0.2,0.5,0.4,0.7c-0.1-0.1-0.7-0.2-0.7-0.2
	c0.5,0.3,0.2,0.1,0.7,0.4c0,0-1-0.2-0.8,0c0,0,0.1,0.3,0.2,0.5c-0.5-0.4,0,0.3,0.2,0.4c-0.6-0.1-0.8,0-0.4,0.4
	c-1-0.6-0.2,1.3-0.8,0.1c-0.3-0.1-0.2,0.1,0.2,0.6c-0.1-0.1-0.2-0.1-0.2-0.2c0,0.1,0.1,0.2,0.1,0.3c-0.1-0.1-0.2-0.2-0.2-0.2
	c0.2,0.3-0.5,0.4-0.9,0.2c0.1,0.1,0.2,0.2,0.3,0.3c-1-0.6,0.7-0.4-0.2-1c0-0.1,0-0.1,0.1-0.1c-0.2-0.1,0.7-2.6,0.7-2.6
	c0.5,0.2,0.5-0.1,0.3-0.3c0.7,0.1,1.5-5.1,2.3-5.1c-0.2,0-0.3-0.1-0.4-0.3c1.5,0.6-0.6-2.2,0.8-1c0.3-0.8,0.1-1.3-0.6-1.5
	c0.3,0.1,0.6,0.1,0.9,0.2c-0.3-0.2-0.3-0.2,0-0.1c-0.3-0.3-0.3-0.4,0-0.2c-0.6-0.5,0.3-1.4-0.1-1.8c0.4,0.3,0.5-0.2,0.5-0.2
	c0.5-0.3,1.1-2,0.5-2.6c0.1,0,0,0-0.1-0.2c0.1,0,0.1,0.1,0.2,0.1c0-0.1,1.2,0.2,0-0.7c0.3,0.2,0.5,0.1,0.8,0.2
	c0.1,0.1-1.1-2.2,0.3-1.2c-0.4-0.6-1.4-0.1-0.7,0.4c-0.2-0.1-0.5-0.1-0.7-0.2c0.4,0.4-0.1,0,0.4,0.3c-0.5,0-0.2,0.1-0.1,0.2
	c-0.1,0-0.3,0-0.5,0c-0.2-0.1,0.3,1.7-0.8,1.4c0.4,0.2,0.3,0.2-0.1,0.1c0,0,0.3,0.4,0.3,0.4c0.7,0.2-2.2,1.3-0.8,1.6
	c-0.2,0-2.2,3.9-1.2,4.1c-0.8-0.1-0.7,1-0.4,0.9c-0.8-0.1-0.8,0.4-0.3,0.8c0,0,0,0,0,0c0,0,0.1,0.1,0,0c0.5,0.4-2.1-0.7-0.3,0.6
	c0,0.4-0.1,0.5-0.4,0.1c0.5,0.4-0.8,1.2-0.9,1.2c0.2,0,0.3,0.2,0.5,0.2c-0.5,0.1-0.9,0.1-1.2,0.2c0.1-0.7,0-2.3,0-2.6c0,0,0,0,0-0.1
	c1.8-1.9,4-4.3,0.4-4.9c1.7,0.2-1.1-2.4,0.6-1.4c0.2-0.9-0.2-1.4-1-1.5c0.3,0,0.6,0,0.9,0c-0.2,0-0.5-2.3-0.5-2.3
	c1,0.4,0.3-3.7,0.5-3.6c0.5,0.1-0.9-1.2,0.6-0.8c0.1,0-1.6-2.1,0-1.5c-0.6-0.7-1.4,0.6-0.6,0.7c-0.3,0-0.5,0-0.8,0
	c0.1,0,0.1,0,0.1,0.1c0.5,0,0.4,0.2-0.1,0.4c0.1,0,0.2,0,0.3,0c-0.1,0-0.3,0.1-0.5,0.1c0-2.6,0-5.1,0-5.6c0.2,0,0.3,0.1,0.3,0.1
	c0-0.1-0.1-0.4-0.1-0.8c0-0.6-0.2-2.6,0-4c-0.2,0.1-0.4,0.3-0.6,0.4c-0.4-0.2,0.1-1.1,0.1-1.2c0.1,0.2,0.2,0.4,0.2,0.6
	c0.1-0.5-0.2-0.6,0-1.1c0.1-0.1,0.1-0.1,0.2-0.1c0.2-1.9,0.6-5-0.2-5.9c-0.3-3.9-0.4-8.3,0.1-12.1c0.2,0.9,0.2-0.4,0.1,0.9
	c0.1-1.3,0.4-2.7,0.2-4c-0.1,0.3-0.1,0.5-0.2,0.8c-0.5-7.7-0.2-0.7,0.3-1.4c0.3-1.9-0.7-4,0-5.9c-0.1-0.2-0.3,0.9-0.4,0.7
	c0-1-0.3-6.9-0.1-7.1c0.2-0.2,0.3,0.8,0.3,1.1c0-0.3,0.4-1.6,0.3-1.8c-0.2-0.6-0.2-0.5-0.3,0.3c0.1-1.2,0.1-2.3,0.1-3.5
	c-0.2,0.8-0.7-3.4-0.1-3.6c0.2,0.2,0.2,0.3,0.3,0.6c-0.1-1,0-2.1,0.2-3.1c0,0.2,0.1,0.4,0.1,0.7c-0.1-0.4-0.1-0.7-0.1-0.9
	c0,0.1-0.1,0.2-0.2,0.3c0.1-0.5-1.1-2.5-0.3-3c-0.1,1.5,0.3-0.1,0.4,1.2c-0.1-1,0.2-2.4,0.1-3.6c0.7,0,1.3,0,1.5,0.1
	c0.3-0.3,0.5-0.5,0.8-0.8c1.1,0.8,2.8,0.5,3.7,0.5c0.5-0.7,3.1-0.9,3.7-0.3c-1.7,0-0.1-0.1-0.7,0.6c0.8-0.6,1-0.4,1.6-0.3
	c0-0.1,0.3-0.3,0.1,0c0,0,0,0,0,0c0.1,0,0.2,0,0.4,0c0.1-0.2,0.1-0.3,0-0.5c0.1,0.1-0.9,0.1-0.6,0.1c0.4,0,0.6-0.2,0.7-0.6
	c0.7,1.2,2.5,0.3,2.3,0.6c2.8-1.1,5.1-3.8,7.4-6c0.6-0.5,1.7-1.1,2-1.7c0.4-0.7,0.7,0.1,0.4-0.9c-0.3-1.2-1-0.7-1.4-0.4c0,0,0,0,0,0
	c-0.1,0-0.2,0.2-0.3,0.6c-0.1-0.2-0.2-0.3-0.4-0.3c0.1,0.1,0.2,0.3,0.3,0.5c-0.2,0-0.6,0.1-0.5-0.2c-0.3,1.6-2.1,0.8-2.6,2.5
	c0.1-0.3-0.1-0.3-0.5,0c0.1,0.3,0.1,0.6,0,0.9c-0.2-0.2-0.4-0.4-0.5-0.7c0,0.2,0,0.5,0.1,0.7c-0.8-0.1-0.5,0.5-1.2,0.1
	c-0.1,0.2,0,0.4,0.2,0.6c-0.3,0.1-1.8,1.4-1.6,1.6c0.4,0.3,0.3,0.7,0.1,0.6c0,0,0-0.3-0.1-0.5c-0.1,0.3-0.2,0.6-0.5,0.8
	c-0.3-0.4,0-0.4,0.2-0.6c-0.1-0.1-0.3-0.2-0.4-0.4c-0.4,0.3-0.3,0.4-0.2,0.7c-0.2-0.1-1.1-0.1-1.4,0.1c0-0.1,0.1-0.2,0.1-0.2
	c-0.2,0.2-0.5,0.3-0.8,0.3c0.1-0.1,0.2-0.1,0.3-0.2c-1.1-1-5.7,0.4-7,0c-0.3,0.2-0.5,0.3-0.8,0.3c-1.4-0.3-3.3-0.2-4.7-0.4
	c-0.2,0-0.4,0-0.6,0c0-0.2,0-0.4,0-0.6c0.1,0.1,0.1,0.3,0.2,0.4c-0.7-1.8,0.9-4.3,0.6-6.2c-0.2,0.3-0.3,0.3-0.4,0.1
	c0,0.6,0.1,1.1,0.1,1.7c-0.1-0.3-0.2-0.7-0.2-1c0-0.2,0.1-0.4,0.1-0.7c0-0.1,0-0.3,0-0.5c0,0.2,0,0.3,0,0.5c0.2-1.8-0.1-3.7,0-5.9
	c0,0.2-0.1,0.4-0.1,0.7c-0.2-0.2-0.3-1.2-0.3-2.6c0.1,0.1,0.5,0,0.3,0.6c1.1-0.5,3.5-0.1,4.7-0.4c0.1-0.3,2.5-0.6,3.8-0.2
	c-0.1,0.1-0.2,0.3-0.2,0.4c2.2-0.2,5.6-1,6.8,0.1c0.4,0,1-0.1,1.1,0.1c-0.3,0-0.3,0.2-0.2,0.5c0.1-0.3,1,0.2,1.1,0.3
	c-0.1,0.1-0.2,0.1-0.4,0.1c0.3,0,0.5,0.1,0.7,0.3c-0.7-0.1-0.2,0.3,0,0.8c0.3-0.1,0.8,0.2,1.2,0.2c-1.3,0.1,0.3,1.1,0.1,1.3
	c0.3,0.2,1.9,0.7,2.7,1c-0.1,0.2-0.2,0.2-0.3,0.2c0.3,0.8,0.9,1.1,1.2,1.2c-0.1,0.1-0.4,0.8,0.5,0.3c-0.5-0.2-0.2-0.2-0.2-0.3
	c-0.1-0.4-0.4-0.6-0.8-0.7c0.1-0.1,0.3-0.1,0.4-0.2c-0.2,0-0.3,0-0.5,0c0.1-1-0.1-1.2-1.4-1.3c0.1-0.3,0.2-0.5,0.3-0.8
	c0.1,0-1.6,0.2-1-0.7c-0.1,0-1.8-1.4-2.3-2.5c-0.3,0.1-0.6,0-0.8-0.2c0.4-0.4-0.1-0.7-1.1-1.3c-0.1,0.3,0,0.7-0.4,0.9
	c0.1-0.5-0.1-0.4,0.2-0.6c-0.1,0-0.3,0.1-0.4,0.2c-0.2-0.3-0.1-0.4,0.2-0.3c-1-0.2-1.3-0.5-2.1,0.1c-1.3-0.2-2.6,0.3-3.6-0.1
	c0-0.1,0.1-0.2,0.3-0.1c-0.3-0.1-1.1-0.3-1.2-0.2c0.7-0.1-1.7,0.2-2-0.1c0.1,0.1,0.1,0.3,0.2,0.4c-1.4-0.2-0.8,0-1.9,0.4
	c-0.7-0.1,0-0.6,0-0.7c-0.1,0-0.7,0.1-0.5-0.2c0.3-0.1-2.8,0.7-1.9-0.1c-0.6,0.4-0.7-0.2-0.7-0.3c0,0-1,1-1.1,0.6
	c0.2-0.1,0.3-0.2,0.4-0.4c-0.2,0.1-0.3,0.1-0.3,0c-0.1,0.1-0.5,0.1-0.8,0.1c0-0.6,0-1.3,0-1.9c1-0.1,2-0.2,3.1-0.3
	c1.7,0,3.4,0.1,4.7,0.1c1.9,0,6.3,0.4,8.2,0.5c0.7,0,1.4-0.3,2.1-0.3c1.7-0.1,2.1,0.2,3.5,0c1.1-0.1,3-0.8,3.4-0.4
	c1.5,0.1,3-0.7,4.3,0.1c-0.4,0-0.8,0-1.2,0c0.3,0.2,0.3,0.4,0.1,0.7c0.5-0.2,1.8-0.2,2.6-0.2c-0.3,0,0.5-0.4,0.2,0
	c-0.1,0-0.1,0-0.2,0c0.4,0,0.7-0.1,0.8-0.2c0.2-0.3-1.3-0.1-1.1-0.1c1-0.7,4.7,0.2,4.8,0c1.9-0.6,1.8,0.2,3.7-0.4
	c2.7-0.8,5.5-2.9,8.5-4.3c1-0.5,2.7-1.7,3.7-2.1c0.6-0.2,3.1-1.6,3.2-1.6c-0.3,0.1-0.7-1.5-2-0.8c0.2-0.1,0.3-0.2,0.5-0.2
	c-0.6-0.1-1,0.6-1.3,1c0-0.2-0.1-0.4-0.3-0.4c0.1,0.2,0.1,0.4,0.1,0.6c-0.9-0.2-4.7,1.4-5.8,2.5c0.3-0.8-1.1,0.8-1.2,1
	c-0.1-0.1-0.2-0.3-0.2-0.4c-0.3,0.5-2,0.6-2.1,0.5c-0.3,0.2-0.3,0.4-0.1,0.7c0,0-3.5,1.4-3.2,1.7c0.6,0.5-0.1,0.8-0.2,0.7
	c-0.1,0,0.2-0.3,0.1-0.5c-0.2,0.5-0.6,0.8-1.1,0.7c-0.1-0.3,0.5-0.4,0.6-0.5c-0.2-0.1-0.3-0.1-0.2-0.2c-0.6,0.2-3.8,0.5-4.1,0.4
	c0.1-0.1,0.1-0.3,0.2-0.4c-0.4,0.2-0.8,0.3-1.3,0.3c0.2-0.1,0.3-0.1,0.5-0.2c-2.6-1.4-9.1,1.4-11.3,0c-0.4,0.2-0.9,0.3-1.3,0.3
	c-1.8-0.2-8.8-0.5-8.9-0.2c-0.9,0.2-1.6-0.4-2.7-0.1c0.1-0.4-3.3-0.3-5-0.3c0.1,0,0.4,0.7-0.1,0.2c0.1,0.1,0,0.3-0.1,0.4
	c-0.3-0.1-0.3-0.3,0-0.5c-1.3-0.3-9.1-0.3-9.8,0.5c-1.3,0.3-3.3-0.8-4.9-0.2c0,0,0.3-5.5,0.4-5.9c-0.7,0.1,0.4-6.8-0.2-7.6
	c0.9,0.3,4.9,0,5.9-0.1c4.1-0.3,7-0.1,11.4-0.4c0,0.5-1.3,0-1.3,0.5c-0.1,0,3.9-1.2,2.7-0.2c0.8-0.1,3,0,3.4-0.2
	c0.2-0.3,0.8-1.3,0.7-0.8c-0.3,0.6,1,0.1,0.5,0.9c1.2-0.4,5.4-1,7-0.5c-0.1,0.1-0.2,0.1-0.4,0.2c0.3,0,0.6,0,0.9-0.1
	c-0.2,0-0.3-0.1-0.5-0.1c1.3-0.5,3.9-0.3,4.6-0.2c-0.4,0.1,2.1,0,2.1,0.1c-0.1,0.1-0.3,0.3-0.4,0.4c1.1-0.2,2.2-0.3,3.3-0.4
	c-0.3,0,8.5-0.5,8.8,0.1c-0.1,0-0.1,0-0.2,0.1c0.3-0.1,0.6,0,0.8,0.2c-0.4-0.5-0.2-0.7,0.5-0.4c-0.3,0.1-0.3,0.3,0,0.5
	c0-0.4,1.6,0.2,1.7,0.3c-0.1,0.1-0.3,0.2-0.4,0.2c0.4,0,0.8,0.1,1.2,0.3c-1.2-0.1,0,0.5,0.5,0.9c0.2-0.1,1.2,0.2,1.8,0.1
	c-1.5,0.2,1.1,1.4,1,1.5c0.6,0.2,3,0.6,4.3,1c0,0.2-0.1,0.3-0.3,0.2c0.4,0.4,2.2,1,1.2,1.1c1.3,0.3,1.5,0.2,0.7,0.3
	c0.4,0.2,0.9,0.3,1.3,0.2c-0.2-0.1-0.9-0.6-0.5-0.3c-0.4-0.5-0.9-0.7-1.5-0.7c0.1-0.1,0.3-0.2,0.4-0.3c-0.2,0-0.4,0-0.7,0.1
	c-0.2-0.5,0-0.5-0.7-0.8c0-0.1,0.1-0.2,0.3-0.1c-1-1-1.3-0.4-2.2-0.4c0-0.3-0.1-0.6-0.1-0.9c-0.1,0-2.1,0.3-1.8-0.8
	c-0.2,0.1-0.6,0.3-1.1-0.3c0.3-0.2-3.9-2.2-4.9-2.5c0.5-0.9-1-0.5-2.3-0.8c0.3,0.4,0.2,0.7-0.2,0.9c-0.1-0.6-0.2-0.3,0.1-0.6
	c-0.4-0.1-0.8,0.3-0.3-0.1c-1.1-0.1-2.2-0.5-3.2,0.1c-1.9,0.1-4.2,0.3-5.9-0.1c0.1-0.2,0.3-0.2,0.4-0.1c-0.5-0.1-1.5-0.3-1.9-0.2
	c0.1,0.1,0.3,0.1,0.4,0.2c-0.1,0-3.2,0-3.6-0.3c0.1,0.1,0.2,0.3,0.3,0.4c-0.5,0-3.6-0.2-3.5,0.1c-0.2-0.4,0.8-0.3,0.5-0.5
	c0.1,0-1.7-0.1-0.7,0.1c-0.2,0-4.1,0.2-3.2-0.3c-0.8,0.3-1.2-0.1-1.2-0.3c-0.1,0.1-1.7,1-1.8,0.6c0.9,0.1-0.1-0.3,0.6-0.4
	c-0.5,0.1-1.5-0.2-1.9,0c0.5,0-0.7,0.5-1,0.5c0.6,0.1,0.4,0.2-0.4,0.3c0.1-0.1,0.1-0.1,0.2-0.2c-0.7,0.5-2.2-0.8-3-0.6
	c0.2,0.2,0.1,0.3-0.2,0.4c-0.8-0.1-1.8,0.1-2.6-0.1c0.1,0-2.9,0.5-3.9,0.5c0-0.2,0.2-0.4,0.4-0.5c-0.3,0-0.7,0-1.1,0.1
	c0.2-0.8,0.4-2.9,0.2-2.5c0.3-1,0.1-3-0.2-3.9c-0.8-2.3,0-2.1-2.7-2c0.4,0,0.6-0.1,0.4-0.4c-0.5,0-1.9,1.1-2.4,0c0.4,0,0.8,0,1.1,0
	c-1.9-1.2-8.5,0.3-11.1,0.5c1-0.3,2-0.5,3-0.6c-0.6,0-1.7-0.1-2.4,0.1c-0.6,0-2.6,0.1-3.4,0.1c-3.8-0.3-2.8,1.8-2.9,5.1
	c-0.1,3.2,1,5.1,0.1,8.2c-0.1,0.3-0.2-0.6-0.3-0.5c0,0.5-0.1,1.1-0.1,1.6c-1.7,0-3.6,0.2-4.2,0.1c-2.2-0.4-4.2,0.3-6.6,0.3
	c-1.5,0-3-0.1-4.1-0.1c-1.6,0-5.6,0-7.1-0.5c-0.4,0.3-0.7,0.5-1.1,0.8c-1.6-1.8-5.7,0.2-6.8-0.1c-1.2-0.1-2.6,0.7-3.7-0.1
	c0.3,0,0.7,0,1,0c-0.2-0.2-0.3-0.4-0.1-0.7c-0.5,0.2-3.2,0.5-3,0.7c0,0,0.6-0.1,0.9-0.1c-0.7,0.5-4.6,0.3-4.4,0
	c-3.1,2.2-7.7,4-11.3,6c-1.3,0.7-2.6,0.8-3.8,1.7c-0.8,0.6-1.5,2.5,0.6,1.6c-0.1,0.1-0.3,0.1-0.4,0.2c0.6,0.1,0.8-0.5,1.1-0.9
	c0,0.2,0.1,0.3,0.3,0.4c-0.1-0.2-0.1-0.4-0.1-0.6c0.2,0,0.8,0,0.5,0.3c1.2-1.7,3.1-0.7,4.5-2.4c-0.2,0.8,0.9-0.7,1.1-0.9
	c0.1,0.1,0.2,0.2,0.2,0.4c0.3-0.5,1.7-0.4,1.8-0.4c0.2-0.2,0.3-0.4,0.1-0.7c0.2,0,3-1.3,2.8-1.5c-0.5-0.5,0-0.8,0.2-0.6
	c0.1,0-0.2,0.3-0.1,0.5c0.3-0.4,0.7-0.7,1.1-0.9c-0.2,0.2-0.3,0.3-0.1,0.5c-0.2,0-0.4,0.1-0.6,0.1c0.1,0.1,0.2,0.1,0.2,0.1
	c0.6-0.4,2.8-1.5,3.2-1.3c-0.1,0.1-0.1,0.3-0.2,0.4c0.4-0.2,0.7-0.3,1.1-0.3c-0.1,0.1-0.3,0.1-0.4,0.2c0.6,0.4,5.4,0.3,6.5,0.2
	c0.7,0,2.3-0.6,3.3-0.2c0.4-0.2,0.8-0.3,1.2-0.3c4.3,0.1,6.9,0.4,10,0.3c-0.1,0.4,2.9,0.3,4.4,0.3c-0.3-0.1-0.3-0.4,0.1-0.2
	c-0.1-0.1,0-0.3,0.1-0.4c0.3,0.1,0.3,0.3,0,0.5c1.2,0.3,8,0.2,8.5-0.5c0.1,0,2.3,0.3,3,0.5c-0.1,0.4-0.1,0.8,0,1.3
	c-0.1-0.2-0.1-0.4-0.2-0.6c0.1,0.5,0.1,1.4,0.1,2.2c-0.1,1.1-0.1,2.2-0.3,2.9c0.4-0.1,0.1,7,0,7c0.1,0.2,0.2,0.3,0.2,0.5
	c-0.5,0-0.9,0-1.4,0.1c0.1-0.1-3.4,0-4.4,0c-2.7,0-4.8,0-8,0.3c0.4-0.1,0.8-0.3,1.1-0.5c0,0-3.4,1.1-2.3,0.2c-0.7,0.1-2.7,0-2.9,0.2
	c-0.1,0.3-0.7,1.2-0.6,0.8c0.3-0.6-0.9-0.1-0.4-0.9c-0.1,0-1.3,0.5-1.1,0.1c-0.7,0.4-4.4,0.6-5,0.4c0.6,0.2-0.2,0-0.5-0.1
	c0.1,0,0.3,0.1,0.4,0.1c-1.1,0.5-3.5,0.3-4,0.2c0.4-0.1-1.8,0-1.9-0.1c0.1-0.1,0.2-0.3,0.3-0.4c-4,0.3-8.6,0.6-11.3-0.7
	c0.3-0.1,0.3-0.3,0.1-0.5c0,0.4-1.3-0.1-1.5-0.2c0.1-0.1,0.2-0.2,0.4-0.2c-0.4,0-0.7,0-1.1-0.2c1.1,0-0.1-0.4-0.4-0.8
	c-0.3,0.1-1-0.1-1.6,0c1.4-0.2-0.9-1.3-0.8-1.4c-0.5-0.1-2.7-0.5-3.8-0.7c0-0.2,0.1-0.3,0.3-0.2c-0.3-0.4-1.9-0.8-1-1
	c-1.2-0.2-1.3-0.1-0.6-0.3c-0.4-0.2-0.8-0.2-1.2-0.1c0.5,0.2,0.5,0.3,0.4,0.3c0.3,0.4,0.8,0.6,1.3,0.6c-0.1,0.1-0.2,0.2-0.4,0.3
	c0.2,0,0.4-0.1,0.6-0.1c0.2,0.6,0.1,0.4,0.6,0.8c0,0.1-0.1,0.2-0.2,0.1c0.9,0.9,1.2,0.3,2,0.3c0,0.3,0,0.6,0.1,0.9
	c0,0,1.9-0.4,1.6,0.6c0.2-0.1,0.6-0.3,0.9,0.2c-0.3,0.3,3.4,2,4.2,2.2c-0.5,0.8,0.7,0.3,1.7,1.2c-0.1-0.4,0.1-0.7,0.5-0.7
	c-0.2,0.6,0,0.3-0.3,0.5c0.2,0.2,0.8,0,0.1,0.2c0.9,0.6,2,1.1,2.9,0.4c1.8,0.2,3.5-0.4,5.1,0.1c-0.1,0.2-0.2,0.2-0.4,0.1
	c0.4,0.1,1.4,0.3,1.7,0.2c-0.1-0.1-0.2-0.1-0.3-0.2c0,0,2.8,0.1,3.1,0.3c-0.1-0.1-0.2-0.3-0.3-0.4c0.5,0,3.1,0.2,3-0.1
	c0.1,0.4-0.7,0.3-0.5,0.5c-0.1,0,1.5,0.1,0.7-0.1c0.4,0.1,3.6-0.2,2.8,0.3c0.6-0.3,1,0.1,1.1,0.3c0.2-0.2,1.4-0.9,1.5-0.5
	c-0.7-0.1,0.1,0.3-0.5,0.4c0.4-0.1,1.4,0.1,1.6,0c-0.1,0,1.2-0.8,1.2-0.8c-0.1,0.1-0.1,0.1-0.2,0.2c0.6-0.5,1.9,0.8,2.6,0.6
	c-0.1-0.1-0.1-0.3,0-0.3c1.7,0.7,3.8-0.7,5.9-0.5c0,0.2-0.1,0.4-0.3,0.5c2.1,0,4.9-1.2,6.9-0.7c0.3,0.2,1.4,0.6,2.4,0.6
	c-0.3,4.7,0.3,9.2,0.3,14c0,3.2,0.4,8.6-0.1,10.6c-0.8,0.9,0.2,2.6,0.2,2.8c0,1.9-0.2,3.8-0.2,5.8c0,3.1-0.4,5.3-0.3,8.5
	c-0.1-0.1-0.1-0.3-0.2-0.4c0,0.6,0.5,2.5,0.5,2.8c0.2,2-0.5,4.1-0.1,6.1c-0.3-0.2,0.3,8,0.3,8c-0.1,0.7,0.2,1.3,0.1,2
	c-0.1-0.2-0.1-0.3-0.2-0.5c-0.1,3.3,0.8,5.7-0.1,8.7c0-0.8,0-1.6,0-2.4c-0.3,0-0.3,1.2-0.7,0.2c0.4,1.9-0.4,5.8,0.5,7.2
	c0.1,0.3,0.1-2.9,0.1-2.3c0.7,2.2-0.2,3.9-0.2,6.1c0,1.1,1,5.4,0.2,3.7c0,0.3,0.6,3.4,0.3,3.5c-0.9,0.4,0,9.8,0,10.8
	c0,1.3-0.4,4.1-0.4,6.4c-1.9-0.2-3.8-0.3-5.7-0.4c0.6,0.3-0.4,0.2-1.7,0.1c0.1-0.1,0-0.2-0.6-0.3c0.5,0.1,0.3,0.2,0,0.2
	c-1.5-0.2-3.2-0.4-3.4-0.4c0.3,0,0.7,0,1-0.1c-1.5-0.2-3-0.4-4.5-0.6c0.6,0.1,1.2,0.3,1.8,0.4c-2,0-3.8-0.7-5.9-0.7
	c0.3,0,0.7-0.1,1-0.1c-1.8,0-3.5-0.2-5.3-0.3c-0.1,0-3.5-0.2-2.3-0.2c-2.6-0.4-10.2,0-11.3-1.3c-1.6-0.1-3.2-0.1-5.1-0.4
	c0.3,0,0.6,0,0.8-0.1c-3.4-0.6-6.8-0.4-10.1-1.2c-3.9-1-7.7-1.3-11.9-1.7c-1.6-0.1-7.6-1.2-12.3-2c0-0.1-0.1-0.2-0.1-0.3
	c0,0-0.1,0.1,0,0c-0.4-1.1-1.4-3.5-1.8-3.3c0.9-0.3-0.5-0.2,0-0.5c-0.2,0.1-0.8-1.2-0.6-1.3c0-0.1,0-0.1-0.1,0
	c-0.3,0.1,0.3,1.6,0.2,1.6c0.1,0-0.1,0.7,0.4,0.4c0,0.2,0.1,0.3,0.2,0.4c0,0,0.2,0.7,0.1,0.6c0,0,0.8,1.9,0.9,2.4
	c-3-0.5-5.2-0.9-5.2-0.9c-1.6-1.3-4.1-0.7-5.7-0.9c-2.6-0.4-5.2-0.9-7.7-1.3c-4.9-0.9-8.8-1.9-13.9-2.6c0.2,0,0.5-0.1,0.7-0.1
	c-1.5-0.2-3.4-0.1-4.6-0.3c-3.3-0.5-6.5-1.3-9.8-1.3c0.2-0.1,0.4-0.2,0.7-0.1c-3.6-0.6-6.9-0.8-10.6-0.8c0.1-0.1,0.2-0.2,0.3-0.3
	c-1,0.1-4.5-0.1-3.4,0.1c-1.1-0.2-2.2,0-3.3-0.1c0.3,0,0.5-0.1,0.8-0.1c-2.7-0.2-5.5,0.1-8.1-0.3c0.1-0.2,0.2-0.2,0.4-0.2
	c-2.2-0.3-4.4,0.1-6.5-0.3c1.2,0,2.7,0.3,3.9,0.1c0-0.3-1.9-0.4-0.3-0.7c-0.5,0-3.5,0-6.4,0.1c-0.1-0.4,1.7-0.3,0.8-1.2
	c0.2,0.2,0.2,0.2,0,0c0.4,0.3,0-1.5,0.6-0.9c0.3,0.2,2.3-1.2,1.6-1.8c0.4,0.3,0.5,0.1,0.3-0.5c0,0,0.1,0.1,0.1,0.1
	c-0.1-0.2,0.4,0-0.2-0.7c0.2,0.1,0.4,0.2,0.5,0.4c-0.2-0.2-0.2-0.2,0,0c0-0.1,0-0.2,0.2-0.3c-0.8-1.2,0.4,0.3-0.2-0.6
	c0.5,0.5-0.3-0.3,0.2,0.1c-0.1-0.1,0.6-1,0.4-1.2c0.1,0.1,0.3,0.2,0.5,0.2c-0.2-0.1-0.2-0.3-0.3-0.4c0.1,0.2,0.3,0.2,0.5,0.4
	c0.1,0.1-0.2-0.3-0.3-0.5c-0.8-0.5-0.3-0.2-0.1,0c0.1,0-0.5-0.1-0.5,0c0,0,0,0,0,0c-0.3,0.1-0.3,0.3-0.1,0.5
	c-0.2-0.1-2.1,0.7-1.3,1.3c-0.4-0.3-1,0.7-0.6,1c-0.6-0.1-0.8,0-0.4,0.5c-0.1,0-0.1-0.1-0.1-0.1c0.1,0.3,0.1,0.3-0.1,0.1
	c0.1,0.2-0.3,0.3-0.6,0.2c-0.2-0.3-0.2-0.5,0.1-0.7c-2.4-0.9,6.5-5.9,2.4-5.7c-0.4,0.1,1-1.7-0.2-2.1c0.2,0,0.4,0.1,0.6,0.2
	c0-0.1,0-0.1,0-0.2c-0.5-0.8-0.4-1.3,0.3-1.5c0.3-0.2,0.2-1.1,0.2-1.7c-0.1,0.1-0.3,0.2-0.8,0.1c1,0.4-1.1,2.1-1.8,3.3
	c0.2-0.6-0.1-1.1-1.3-1.3c0.6-0.8,0.5-1.5-0.3-2.1c0.2,0,0.4,0,0.6,0c-1.9-0.5,1.2-5.2-0.1-5.4c-2.3,0.1,0.6-0.1-0.5,0.3
	c-0.3,0,1.1,1.4-0.4,1.5c0.7,0.1-0.6,2-0.4,1.9c1-0.1-2.4,3.9,0.2,3.6c0,0.6-0.1,1.1-0.5,1.5c-0.1,0-0.7,6.2-1.4,6.5
	c-0.7-2.2-1.2-4.4-1.4-6.6c0.4-0.8,0.1-1.4-0.9-1.7c0.2-0.1,0.4-0.1,0.6-0.2c-0.2,0-1.4-2-1.6-3.1c-0.1,0.1-0.2,0.2-0.4,0.3
	c-0.1,0.6,0,1.2,0.2,1.8c0.9-0.3-0.9,4,1.2,3c-0.6,0.3,0.7,1.2,0,1.5c0.9-0.1,0,0.5-0.5,0.9c-0.3-0.2-0.3-0.7-0.2-0.7
	c-0.1,0,0.1-0.9-0.4-0.5c1.1-0.9-1.2-0.9-0.4-1c0-0.1,0.1-0.2,0.2-0.3c-0.1,0.1-0.4,0-0.5,0c0.2,0,0.3-0.2,0.5-0.2
	c0.9-0.2-1.6,0.1-0.9,0.1c0.1,0,0.9,0.8,0.1,1.2c0.3-0.1,0.3-0.1,0,0.1c0.8-0.2,0.5,1.1,0.3,1.2c0.6-0.3,0.7,0.8,0.1,0.9
	c0.7,0,1,0.3,1,0.9c-0.6,0.1,0.1,0.2,0.2,0.1c-0.4,0.2,0.3,1.5,0.3,1.6c0.5,0,0,0.7-0.1,0.8c0.1-0.1,0.2,0,0.3-0.1
	c-0.5,0.4,0.8,2.1,0.7,2.2c-0.2,0.2,0.8,2.2,1.5,3.4c-0.2,0-0.3,0-0.5,0c0.1,0,0.3,0,0.4,0.1c0.5,0-1.8,0.3-0.9-0.1
	c0.1,0,0.2,0,0.3,0c-1.5,0.1-2.6,0.2-2.7,0.3c0,0.1,2.6,0.1,3.5,0c0,0,0,0,0,0c-3.1,0.6-5.8-0.1-8.9,0c-2,0-3.9,0.5-5.8,0.7
	c-0.9,0.1-3.5,1-1-0.1c-1.4,0.2-4.3,1.3-5.7,0.9c0-0.1,0.1-0.2,0.2-0.2c-0.4,0-0.8,0-1.2,0.1c0.1-0.1,0.2-0.1,0.4-0.2
	c-4.9,0.1-9.6,2.2-14.5,2.5c2.3-0.2-2.9,0.6-3.3,0.7c-2,0.4-4.1,0.9-6.1,1.4c-3.8,0.9-7.7,1.6-11.5,2.6c-3.7,1-8.6,1.9-12.2,3.5
	c0.2,0,0.3,0,0.5,0.1c-2.6,0.7-4.8,1.6-7.3,2.2c-0.7,0.2-1.3-0.1-1.9,0c-1.1,0.2-2.8,1.3-4,1.7c0.2,0,0.5,0,0.7,0
	c-4.1,1.5,2.8,0.3,3.6,0.3c-0.6,0.2-1.1,0.4-1.7,0.5c1.4-0.1,3.8-0.8,4.9-1.8c0.2,0.1,1.1,0.5,0.8,0.1c-0.1,0-0.2-0.1-0.3-0.2
	c0.4-0.5,1.9-0.4,2.4-0.6c0,0.1,0,0.2,0,0.2c2.8-1.2,5.7-1.9,8.5-2.7c0.9-0.6,7.5-1.6,9.7-2.4c-1.3,0.8,5.4-1.4,5.4-1.5
	c0,0.1-1.1,0.7-0.8,0.8c-0.4-0.7,8-1.8,8.2-1.9c-0.3,0.1-0.6,0.3-0.9,0.4c2-0.4,12.4-2.5,12.6-3.6c0.6-0.2,1.3-0.3,1.9-0.3
	c-0.3,0-0.5,0.1-0.7,0.3c0.2,0,1.2-0.1,0.9,0c-0.4,0-0.9,0.2-1.2,0.4c1.7-0.4,3.4-1,5.1-1c0.2,0.2-2.7,0.5-1.4,0.6
	c2.2-0.4,5.4-0.8,6-0.9c2.3-0.2,5.2-0.7,7.4-0.6c-0.2,0.1-0.4,0.3-0.7,0.4c1.5-0.1,2.8-0.6,4.3-0.5c-0.4,0.1-1.3,0.3-1.7,0.3
	c3.6,0.4,7.6-0.4,11.4-0.5c-0.1,0-0.1-0.1-0.2-0.1c0.3,0,0.6,0,0.9,0c0,0,0,0.1,0,0.1c0,0,0,0,0,0c0,0,5.7,0.4,7.1,0.5
	c2.4,0.2,4.7,0.3,7.1,0.4c1.8,0.1,7.9,0.1,11.5,0.9c-0.2,0-0.4,0-0.5,0c1.5,0.3,3-0.2,4.5,0.2c-0.1,0-0.3,0-0.4,0
	c6.4,0.9,13.1,1.5,19.4,2.8c3.7,0.8,7.1,1.1,10.5,2c-0.1-0.1-0.2-0.1-0.3-0.2c2.9,0.3,5.7,1.3,8.7,1.6c-0.2,0-0.5,0.1-0.7,0.1
	c2.4,0.2,4.6,0.9,7.2,1.2c-0.1,0.1-0.2,0.1-0.4,0.2c3.4,0.6,6.9,1.1,10.3,1.6c-1.5-0.4-0.1-0.3,0.5-0.1c0.2-0.1,0.1-0.2-0.2-0.2
	c0.5-0.1,0.9-0.1,1.3,0.2c-0.1,0.2-0.2,0.3-0.3,0.3c0.4,0,0.8,0.1,1.2,0.1c-0.1,0.1-0.3,0.2-0.4,0.2c1.9-0.2,4.7,0.8,6.6,1
	c2.5,0.3,5,0.3,7.5,0.5c2.9,0.3,8.4,1.7,9.8,1.7c2.6,0.3,5.3,0.5,7.9,0.7c-0.3,0-0.5-0.1-0.6-0.3c0.5,0,1.2,0.4,1.3,0.4
	c0.8,0,14.7,1.8,17.3,1.9c2.5-1.1,9.9,1.1,12.4,1.5c2,0.3,4.1,0.4,6,0.5c0,0,0,0.1,0,0.1c0.9,1.8,2.2,1,4,0.9c3-0.2,6.1,0.1,8.7,0
	c0.9,0,2-0.1,3.2-0.1c0.1,0,0.4,0,0.8,0c0.5,0,0.9,0.1,1.4,0.1c0,0,0.1,0.1,0.1,0.1c0,0-0.1-0.1-0.1-0.1c0,0,0.1,0,0.1,0
	c0,0,0,0,0.1,0c0,0,0,0,0,0c0.2,0,0.4,0,0.6,0c4.5,0.3,9.5-0.3,13.8,0.4c-0.3,0.1-0.7,0.2-1,0.3c5.7-0.1,11.4,0.4,17.1,0.1
	c-0.3,0.1-0.6,0.2-0.9,0.2c2.7,0.6,6-0.8,8.6,0.2c-0.1,0-0.1,0-0.2,0c5.3-0.7,11.1-0.3,16.5-0.2c7.3,0.1,15.5-0.2,23.3-0.5
	c-0.1,0.4-4.3,0.3-4.2,0.6c2.3-0.1,6.8,0.2,9.3-0.4c3.4-0.2,6.8-0.1,10.2-0.5c-0.9,0.1-1,0.2-0.2,0.1c0.3,0,0.6,0,0.9-0.2
	c-0.2,0-1,0-0.8-0.1c0.8-0.5,2.8-0.4,2.9-0.4c0.4,0,2.7,0.1,1.6,0.6c0,0,2.4-0.4,1.1,0c1.2-0.1,2.4-0.4,3.7-0.5
	c-0.2,0.1-0.4,0.2-0.7,0.3c1.3-0.3,2.6-0.5,4-0.5c0,0.1-0.1,0.1-0.1,0.1c2.8-0.2,5.9-0.6,8.4-0.5c0.8,0,2.1,0.4,3.3,0.2
	c-0.2-0.1-0.5-0.1-0.7-0.2c1.5-0.1,2.9-0.4,4.4-0.3c-0.4,0.1-0.8,0.1-1.2,0.2c1-0.1,2-0.1,3-0.2c-0.6,0-1.2,0-1.7-0.1
	c1.5-0.3,2.7-0.5,4.4-0.4c2.6-0.5,4.6,0.7,7.5-0.5c-0.2,0.1,2.4-0.1,3.1-0.1c-0.2,0.1-0.4,0.1-0.5,0.1c2.6,0,5.1-0.4,7.6-0.5
	c0.1,0,0,0.1-0.1,0.1c2.9-0.5,6.7-0.5,9.5-0.6c-0.2,0-0.4,0-0.6,0c0.5-0.6,3.8-0.1,4.3-0.2c-0.3,0-0.4,0.1-0.4,0.3
	c2.8-0.1,5.6-0.5,8.4-0.8c-0.1,0.1-0.3,0.1-0.4,0.2c1.2,0,2.3,0,3.5-0.1c0.3,0.6,0.6,1,0.4,0.6c-0.1-0.2,0.1-0.3,0.3-0.1
	c-0.3-0.5-0.2-0.6,0.3-0.2c-0.1-0.1-0.1-0.3-0.2-0.4c3.2-0.3,6.4-0.8,9.6-1.1c-0.1,0-0.1,0-0.1,0C485.6,269.1,485.6,269,485.7,269z
	 M310.4,267.5C310.5,267.4,310.7,267.7,310.4,267.5L310.4,267.5z M310.4,267.9c-0.1,0-0.1,0-0.2,0
	C310.3,267.7,310.3,267.7,310.4,267.9z M310.2,268.7C309.9,268.6,310.1,267.9,310.2,268.7L310.2,268.7z M309.7,245.6
	c0.1,0.3,0.3,0.5,0.6,0.7c-0.5,0-0.5,0-0.6,0C309.7,246,309.7,245.8,309.7,245.6z M309.7,261.8c-0.1,0-0.1,0-0.2,0
	c0-0.1,0-0.1,0-0.2C309.6,261.6,309.7,261.6,309.7,261.8z M320.7,181.3C320.7,181.2,321.1,181.2,320.7,181.3L320.7,181.3z
	 M320,181.3C320.4,181.3,320.3,181.5,320,181.3L320,181.3z M310,175.5c0,0.4,0.1,0.8,0.1,1.1c0-0.6-0.1-0.7-0.3-0.3
	C309.9,176.1,310,175.8,310,175.5z M339.6,161.3C339.7,161.2,340.3,161.2,339.6,161.3L339.6,161.3z M338.5,161.3
	C339.3,161.3,338.9,161.5,338.5,161.3L338.5,161.3z M318.4,145.8c-0.1-0.1-0.2-0.2-0.4-0.2c0.1,0,0.2,0,0.3,0
	C318.3,145.6,318.3,145.7,318.4,145.8z M318.4,145.2c-0.2,0.1-0.4,0.2-0.5,0.3c-0.2-0.1-0.3-0.1-0.5-0.1
	C317.7,145.3,318,145.3,318.4,145.2z M255.4,152.9C255.3,152.9,254.8,152.9,255.4,152.9L255.4,152.9z M256.4,152.9
	C255.7,152.8,256,152.6,256.4,152.9L256.4,152.9z M273.8,168.3c0.1,0.1,0.2,0.2,0.3,0.2c-0.1,0-0.2,0-0.3,0
	C273.9,168.5,273.9,168.4,273.8,168.3z M273.8,168.9c0.1-0.1,0.3-0.2,0.4-0.2c0.1,0,0.1,0.1,0.2,0.1
	C274.3,168.8,274.1,168.9,273.8,168.9z M289.5,240.9C289.3,239.2,289.8,241.6,289.5,240.9L289.5,240.9z M136.5,239.8
	c-0.1,0.4,0,0.7,0.7,0.8c-0.2,0.4-0.4,0.8-0.5,1.3c0.1,0.1-0.3,0.8-0.5,0.5c0.4,0.3-0.6,0.8-0.6,0.8c0.2,0,0.2,0.1,0.4,0.2
	C131.6,244.1,135.5,241.6,136.5,239.8z M134.5,251.2c0-0.1,0.1-0.1,0.2,0C134.7,251.2,134.6,251.2,134.5,251.2z M138,253.3
	c-0.3-0.2,1.1,0,1.6,0C139.1,253.3,138.6,253.3,138,253.3z M309.3,265.1C309.3,265.1,309.3,265.1,309.3,265.1
	C309.2,265.1,309.2,265.1,309.3,265.1z M309.1,264.5C309.1,264.5,309.1,264.5,309.1,264.5c0.1,0.1,0.2,0.2,0.2,0.2
	C309.3,264.7,309.1,264.5,309.1,264.5z M309.4,264.7c0-0.1-0.1-0.2-0.1-0.3c0,0,0-0.1,0-0.2C309.4,264.5,309.4,264.6,309.4,264.7z
	 M291.4,235.9c0,0.3,0,0.7,0,1C291,237.2,291.5,235.5,291.4,235.9z M291.4,238.2C291.4,238.5,291.5,239.5,291.4,238.2L291.4,238.2z
	 M291.7,270.6c0-0.2-0.1-0.4-0.1-0.4c0,0.2,0.2,0.4,0.3,0.5C291.9,270.6,291.8,270.6,291.7,270.6z M306.7,268.3
	C306.7,268.3,306.7,268.3,306.7,268.3C306.7,268.4,306.6,268.4,306.7,268.3z M306.9,268.5C306.9,268.5,307,268.6,306.9,268.5
	L306.9,268.5z M307.6,258.8c0.2-0.1,0.3,0.2,0.6,0.1c-0.1,0.1-1.9,0.6-0.5,1c0.5-0.1-0.9,3.4-0.7,3.3c0.2,0,0.4,0,0.4,0.2
	c-0.7,0.2-0.7,0.3,0,0.3c-1,0.7-1.3,1.1-0.8,1.3c0,0-0.1,0-0.2,0.1c-0.2,0-0.9-2.8-0.8-2.8c0.2-0.1-0.8-6.4-1.2-6.4
	c1.6-0.3-1.7-1.7,0.1-1.4c-0.1-0.8-0.6-1.2-1.4-1c0.3-0.1,0.6-0.2,0.9-0.3c-0.6,0-0.9-1.7-1.2-1.8c0.7,0,0.5-2.9-0.8-3.1
	c0.1,0,0-0.1-0.2-0.1c0.1,0,0.1,0,0.2,0c-0.1-0.1,1.1-0.5-0.3-0.6c0.4,0,0.5-0.2,0.8-0.2c0.1,0-2.2-1.4-0.4-1.3
	c-0.7-0.3-0.6-0.1-1.1,0.5c0,0.3,0.1,0.4,0.3,0.4c-0.5,0.1-0.5,0.2,0.2,0.1c-0.5,0.3-0.1,0.2,0,0.3c-0.1,0-0.3,0.2-0.5,0.3
	c-0.1,0,0.1,1.3,1.1,1.3c-0.8,0.2-0.3,0.1-1,0.4c0.4-0.1,0.4,0,0,0.1c1.1,0,0.7,2.1,0.3,2.3c0.1-0.1,0.3-0.1,0.4-0.2
	c-0.3,0.3,0.3,1.9-0.3,2c0.3,0.1,1.2,2.6,1.6,2.4c-0.7,0.4,0,1.3,0.2,1.1c-0.8,0.3-0.8,0.6,0.2,0.9c0.7-0.1-1.9,0.5,0.1,0.7
	c-0.3,0.1-0.3,0.2-0.2,0.3c-0.1,0-0.2,0-0.3-0.1c0.3,0.2,0.4,0.3,0.2,0.1c1.6,0,0.1,0.4-0.8,0.7c0.2-0.1,0.3-0.2,0.5-0.2
	c-0.4,0.1-0.4,0.1,0,0c-0.4,0-0.5,0-0.1-0.1c-1,0.1,0.1-1-0.9-0.6c0,0,0.3-0.1,0.1-0.1c0.1-0.1,0.2-0.2,0.3-0.2c-0.2,0-0.3,0-0.5,0
	c1-0.2-0.5,0.1,0.3-0.2c-0.4,0.1-0.4,0,0-0.3c0,0,0,0,0,0c-0.1,0.1,1.8-2.2-0.5-0.4c0.9-0.7-0.2-1.3-0.6-1.3c0,0,0,0-0.2,0
	c0.1,0,0.2-0.1,0.3-0.1c-0.4,0-0.4-0.1,0.1-0.2c0,0,0-0.1,0.1-0.1c-0.1,0.2-0.5,0-0.7,0c0.3,0,0.5-0.2,0.8-0.3
	c-0.2,0-1.4-0.5-0.8-0.7c-0.5,0.2-1.1,0.7,0,0.5c-0.2,0.1-0.5,0.2-0.7,0.3c0.1,0,0.2,0,0.2,0c-0.1,0-0.1,0,0.3-0.1
	c-0.4,0.3-0.2,0.2,0.1,0.2c-0.1,0.1-0.3,0.2-0.4,0.3c-0.9,0.3,1.3,0.8,1.1,0.7c-0.7,0.3-0.3,0.1-0.9,0.5c0.4-0.1,0.4-0.1,0,0.1
	c1.1-0.3,0.7,1.5,0.4,1.6c0.1-0.1,0.3-0.1,0.4-0.2c-0.1,0.1-0.3,1.3,0.3,1.2c-0.1,0.1-0.4,0.3-0.5,0.3c1.8,0-0.7,1.2,1,0.3
	c-0.2,0.3-1.1,1,0.3,1c-0.9,0.2,0.1,0.3,0.3,0.1c-0.5,0.3-0.2,0.9,0.1,0.8c-0.7,0.4,1.1,1.1-0.2,0.9c-0.2,0.3,0,0.3,0.6,0.2
	c0.2,0.2,0.2,0.3-0.1,0.3c0.7,0,0,1-0.2,1.2c0.2-0.1,0.3-0.1,0.5-0.2c-0.6,0.4-0.9,1-0.1,0.8c0.3-0.2,0.1,1.5,0.7,1.5
	c-0.7,0.5-0.1,0.5,0.2,0.6c-0.5,0.4-0.5,0.5,0.1,0.2c-1,0.6,1.1,2.2,1.1,2.2c0,0.4-0.3,0.6-0.8,0.4c0.2,0.4,0.4,0.5,0.7,0.1
	c0.2,0.1,0.4,0.1,0.6-0.1c0.1,0.4,0,0.6-0.4,0.7c0.1,0.1,0.3,0.1,0.5,0c-0.2,0.2-0.2,0.5-0.1,0.8c-1.1,0-2.4,0.1-2.8,0
	c-1.1-0.1-2.6-0.5-3.9-0.6c-2.4-0.3-4.7-0.6-7.1-0.8c-0.5-0.7,0-4.6,0-5c0.1-0.5,0.3,0.5,0.3,0.5c0-1.1-0.5-7.9-1.2-8.1
	c-0.1-0.4-0.1-0.8,0-1.2c0,1.4,0.2-0.3,0.3-0.1c0,0.3,0,0.5,0.2,0.8c-0.2-1.1-0.3-2.1-0.3-3.2c0.2-0.1,0.2,1.7,0.4,0.8
	c0,0.4-0.1,0.9-0.1,1.3c0.1-0.2,0.2-0.2,0.2-0.2c-0.1-1-0.2-3.4-0.2-3.7c0-1.5-0.3-4.2,0-5.6c0.1,0.1,0.3,0.3,0.4,0.4
	c0-1.1-0.5-1.6-0.3-2.7c0.1,0.3,0.1,0.7,0.2,1c0.8-3,0-7.2,0-10.4c0-2,0.3-6,0.1-6.7c-0.3-1.7-0.7-5.5-0.1-6
	c0.6-6.4-0.3-15.1,0.1-21.5c0,0.2-0.1,0.4-0.2,0.6c-0.2-1.9,0.6-3.5,0.1-5.5c0.1,0.3,0.2,0.6,0.2,0.9c-0.7-3.4,0-7.2,0-11.1
	c-0.2,0.7-0.4,0.7-0.5,0c0.1-0.1,0.2-0.2,0.3-0.3c-0.1-0.1-0.2,0-0.2,0.2c-0.2,0.1,0-1.9,0.3-0.4c0.1-5.9,0.2-14.1-0.3-20.5
	c0,0.2-0.1,0.4-0.2,0.4c0,0,0-0.1,0-0.1c0-0.7,0-1.5,0.1-2.4c0.1,0.1,0.2,0.1,0-0.1c0.4-3,1.4-6.9,0.1-9.1c-0.1-0.1,0-0.7,0-1.6
	c0.1-0.5,0.3-0.9,0.2-1.3c0,0,0,0-0.2,0c0.1-1.6,0.3-3.4,0.3-4.3c0.1-2.4-0.1-5,0.1-7c-0.6,0.2-0.3-0.2-0.3-1
	c2.9,0.1,5.8,0.3,8.7,0.4c1.7,0,3.6-0.7,5.1-0.4c-0.2,0.1-0.4,0.2-0.6,0.3c1-0.1,2.1-0.2,3.1-0.2c0,1.6,0,3.2,0.1,4.8
	c-0.2-0.4-0.2,1-0.3,2.3c-1.6,0.3-3.3,0.6-4.7,0.2c-0.2-0.2-0.7-0.5-1.2-0.6c-0.7-0.4-3.1,0.5-3.9,0.6c0.2-0.2,0.2-0.3-0.1-0.4
	c-0.2,0-0.2,1.1-0.7,1c0-0.3,0-0.5,0-0.8c-0.5,0.1,0.4,5.4,0.5,6.1c-0.3-0.5-0.5-0.9-0.6-1.4c0,0.7-0.1,1.4,0.1,0.8
	c0.6,0.7-0.1,6.7-0.1,7.2c-0.1,0.8,0.6,1.4-0.3,1.6c-0.1,0.8-0.1,1.4-0.2,2.2c0-0.1,0-0.1,0-0.2c0,0.6,0.1,1.5,1.1,1.3
	c-0.2,0.1-0.5,0.1-0.7,0.2c2.9-0.3,6.8-0.6,8.2-0.3c1,0.2,1.9,0.2,2.8,0.1c0.1,3,0.3,6.1,0.4,9.2c-0.5-0.1,0-2.7-0.5-2.6
	c0.1,1.1-0.1,4.1,0.2,5.6c0.2,2.1-0.1,4.3,0.2,6.4c-0.6-0.1-0.3,0.1,0,0.2c0-0.2,0.1-0.4,0.2-0.2c0.5,0.8,0.1,3.2-0.3,2.7
	c0,0,0.3,1.5,0,0.7c0,0.4,0.9,2.8,0.1,1.9c0.3,0.8,0.4,1.6,0.3,2.5c-0.1,0-0.2-0.1-0.1-0.3c0,2.9,0.1,4.8-0.1,7.4
	c0.1-0.2,0.1-0.3,0.2-0.5c0.1,0.9,0.1,1.8,0.1,2.7c-0.1-0.2-0.1-0.5-0.2-0.7c0,0.6,0,1.2,0.1,1.9c0-0.4,0.1-0.7,0.1-1.1
	c0.2,1,0.6,1.5,0.1,2.7c0.5,2-0.2,5.6-0.1,6.2c-0.1,1.6,0.2,3.1,0,4.7c-0.2,0.2-0.3-1-0.4-0.8c0.1,2.2,0.5,4.4,0.4,6.6
	c0-0.1,0-0.3,0-0.4c0.5,0.3-0.1,7.8-0.1,8c0,3.4,0.9,7.4,0,10.8c0.1-0.2,0-0.4-0.1-0.5c0,0.7,0,1.5,0.1,2.2c0.2-0.2,0.3-0.5,0.3-0.7
	c0.2,0.4,0.3,3.7,0.2,5.2c-0.2-0.2-0.3-0.4-0.3-0.7c0.2,0.8,0.3,1.7,0.2,2.5c-0.5-2.7-0.4-0.3-0.4,0.3c0,0.5-0.1,1-0.1,1.5
	c0-0.1,0.1-0.3,0.1-0.4c0.3,0.5,0.4,1.2,0.4,1.9c-0.1,0.4-0.2,0.7-0.3,0.7c0.1,0,0.2,0,0.3,0c0,0.1,0,0.1,0,0.2
	c-0.1,0.1-0.1,0.3-0.2,0.5c0,0.1-0.1,0.1-0.1,0.3c-0.2,0.5-0.5,1-0.5,0.9c0,0,0.1,0.6,0.3,1.2c-0.1,0.8-0.1,1.5-0.1,1.5
	c0-0.2,0.1-0.3,0.2-0.5c0.1,0.3,0.1,0.6,0.2,0.9c-0.6,0.3-0.2,1.3,0,1.1c0.3,0.9,0.1,1.2-0.5,0.9c0.5,0.1-0.7,1-0.1,1.2
	C309.1,258.1,307.5,258.8,307.6,258.8z M303.8,260.6C302.6,260.8,304.1,260.3,303.8,260.6L303.8,260.6z M303.8,260.6
	c-0.1,0.2-0.2,0.2-0.3,0.1C303.6,260.7,303.7,260.7,303.8,260.6z M303.2,260.4C303.2,260.5,303,260.4,303.2,260.4L303.2,260.4z
	 M304.9,270.8C304.8,270.8,305.2,270.7,304.9,270.8L304.9,270.8z M308.4,267.9C308.4,268,308.4,268,308.4,267.9
	C308.3,268,308.3,268,308.4,267.9z M308.8,266.7C308.8,266.7,308.9,266.8,308.8,266.7c0.1,0.1,0.1,0.1,0.1,0.1
	C308.8,266.8,308.8,266.8,308.8,266.7z M309.2,259.7c0,0.7,0.1,1.4,0.1,2.1c-0.1,0-0.2,0-0.3,0c0-0.1-0.1-0.2-0.1-0.2
	c0,0.1,0,0.1,0,0.2C307.6,261.7,308.2,260.8,309.2,259.7z M309,264.6C309.4,264.7,309.2,264.7,309,264.6L309,264.6z M309.2,265.5
	c0,0,0-0.1,0-0.1c0,0,0.1,0,0.1,0.1C309.2,265.4,309.2,265.5,309.2,265.5z M389.6,272.8c0.9-0.1,1.7-0.1,2.6-0.2
	c-0.5,0.1-1.1,0.2-1.6,0.3C390.3,272.9,389.9,272.9,389.6,272.8z M392.4,273.2c-0.5-0.1-0.9-0.2-1.3-0.2c0.5,0,1-0.1,1.5-0.1
	C391.8,272.9,391.8,273.1,392.4,273.2z M422.6,271.7c0.1-0.2,0.2-0.2,0.2,0C422.8,271.7,422.7,271.7,422.6,271.7z M421.6,263.8
	c0.2,0,0.2-0.1,0.3-0.2c0,0-0.9-0.6-0.6-0.8c-0.2,0.2-0.5-0.5-0.5-0.5c-0.1-0.4-0.3-0.9-0.4-1.3c0.6-0.1,0.7-0.4,0.6-0.8
	C422,262,425.4,264.5,421.6,263.8z"/>
<path class="st0" d="M542.7,265c-0.3,0-0.6,0-0.9,0c0.3,0.1-1.5,0.9-2.1,0.2c0.3,0,0.6-0.1,0.9-0.1c-1.5-0.7-4,0.4-5.6,0.5
	c0.2-0.2,0.5-0.3,0.7-0.5c-0.7,0.2-3,0.3-1.7,0.1c-1.3-0.1-2.4,0.1-3.6,0.3c0-0.1,0.1-0.2,0.2-0.3c-1.4,0-3.5,0.4-4.1,0.3
	c-1.5,0.2-8.5,1.8-10.5,1.1c-0.9,0.4-3.2,0.3-4.1,0.2c0.2-0.1,0.3-0.1,0.5-0.1c-3,0.5-17.1,1.2-18.7,1.4c0.2-0.2,0.4-0.4,0.7-0.4
	c-0.9,0.1-1.7,0.3-2.6,0.4c0.1-0.1,0.2-0.2,0.3-0.3c-2,0.2-4,0.6-6,0.6c0.2,0.2,0.4,0.3,0.6,0.4c0,0.2-0.1,0.4-0.3,0.5
	c1.2-0.1,2.5-0.1,3.8,0c-0.1,0-0.2,0.1-0.3,0.2c1.2-0.1,2.3-0.3,3.5-0.4c-0.4-0.2-0.8-0.2-1.2-0.2c0.7-0.2,1.5-0.4,2.3-0.4
	c-1.7,0.3,1.5,0.2,1.8,0.2c1.5-0.1,2.7-0.5,4.4-0.6c0.1,0.1-1,0.4-1,0.4c1.3-0.1,2.7-0.7,4-0.5c-0.7,0.1-1.4,0.2-2,0.3
	c0.5,0.1,2.2,0.1,2.5,0.1c0.8,0,1.6,0,2.4,0c-0.2,0-0.4,0-0.6,0c1.5-0.7,3.3-0.6,5-0.8c0,0.1-0.1,0.1-0.1,0.2
	c1.6,0.3,4.5-0.6,6.2-0.2c4-0.8,10.2,0.4,13.8-1.4c1.3,0,2.8-0.1,3.8-0.1c0.4,0,3.9-0.8,1.1,0.1c-0.2,0-0.6,0.1-0.7,0.1
	c0.7-0.1,0.8-0.1,0.7-0.1c1.2-0.2,2.5-0.4,3.7-0.7c-0.2,0.2-0.5,0.4-0.8,0.4C540,265.7,541.8,265.7,542.7,265z"/>
</svg>
