<?xml version="1.0" encoding="utf-8"?>
<!-- Generator: Adobe Illustrator 21.0.0, SVG Export Plug-In . SVG Version: 6.00 Build 0)  -->
<svg version="1.1" id="Layer_1" xmlns="http://www.w3.org/2000/svg" xmlns:xlink="http://www.w3.org/1999/xlink" x="0px" y="0px"
	 viewBox="0 0 200 200" style="enable-background:new 0 0 200 200;" xml:space="preserve">
<style type="text/css">
	.st0{fill:#9086BE;}
</style>
<path class="st0" d="M110.5,169.2v-1.7c0,0-0.1,0-0.1,0c-0.1-0.1-0.1-0.2,0-0.1c-0.1-0.1,0-0.2,0.1-0.3c0.1,0,0.2,0,0.3,0
	c0.1,0,0.2,0,0.4,0.1c0,0-0.1-0.1-0.1-0.1c0.3,0,0.7,0,1-0.1c-0.4,0-0.8-0.1-1.3-0.1c-0.2-0.3,1.2-0.6,0.8-1.1c0.3,0.3,0.3,0.3,0,0
	c0.7,0.5,0.2,0.1,0.1,0c0,0.1,0.6,0.1,0.3-0.1c-0.4-0.2,1.4-0.1,0.5-1.1c0.5,0.4,0.4,0.2,0.3,0c0.2,0.1,1.4-1.1,1.6-1.1
	c-0.1-0.8,0-1,0.5-0.8c-0.2-0.3,0.1-0.3-0.2-0.6c0.6,0.4,0.7,0.2,0.4-0.7c0,0,0.1,0.1,0.1,0.1c-0.1-0.3,0.6,0-0.2-0.9
	c0.2,0.2,0.5,0.3,0.7,0.5c-0.3-0.2-0.3-0.3,0,0c-0.3-0.3-0.3-0.4,0-0.1c-0.3-0.7-0.2-0.8,0.3-0.3c-0.3-0.5-0.2-0.6-0.3-0.6
	c0.1,0,0.2,0,0.3,0.1c-0.1-0.1-0.2-0.2-0.2-0.4c0.7,0.7-0.4-0.4,0.3,0.2c-0.3-0.3-0.2-0.3,0.2-0.1c0.3,0,1.3,0.1,0-0.5
	c0.5-0.1,1-0.3,0.6-0.9c0,0,0,0-0.1-0.2c0,0,0.1,0.1,0.1,0.1c0-0.2,0.1-0.2,0.4,0.1c0,0,0.1,0,0.1,0c-0.2-0.1-0.3-0.4-0.4-0.5
	c0.2,0.2,0.4,0.3,0.6,0.5c-0.1-0.1-0.2-0.3,0.2,0c-0.2-0.4-0.2-0.4-0.5-1c0.1,0,0.2,0.1,0.3,0.1c0.2,0.1,0.3,0.2,0.5,0.3
	c-0.2-0.4-1.6-1.1-0.6-0.1c-0.2-0.1-0.4-0.3-0.6-0.4c0,0.1,0.1,0.1,0.1,0.1c0,0,0,0,0.2,0.2c-0.3-0.2-0.3-0.2-0.1,0.1
	c-0.1-0.1-0.3-0.1-0.5-0.3c0.2,0.3-0.7-0.3-0.1,0.1c0,0,0,0,0,0c0.5,0.4-0.2,0.2-0.3,0.2c1,0.5-1.1-0.5,0.1,0.6
	c-0.1-0.1-0.1,0-0.5-0.3c-0.2,0-0.2,0.2,0.2,0.4c0.5,0.3-1.6-0.2-0.8,0.7c-1.3-0.6,1,0.9-0.7-0.1c0.6,0.8,0.4,0.8-0.5,0.1
	c0.4,0.6-0.3-0.4,0.5,0.5c-0.1-0.1-0.4-0.2-0.5-0.3c0.1,0.3,0.2,0.5,0.4,0.7c-0.1-0.1-0.7-0.2-0.7-0.2c0.5,0.3,0.2,0.1,0.7,0.4
	c0,0-1-0.2-0.8,0c0,0,0.1,0.3,0.2,0.5c-0.5-0.4,0,0.3,0.2,0.4c-0.6-0.1-0.8,0-0.4,0.4c-1-0.6-0.2,1.3-0.8,0.1
	c-0.3-0.1-0.2,0.1,0.2,0.6c-0.1-0.1-0.2-0.1-0.2-0.2c0,0.1,0.1,0.2,0.1,0.3c-0.1-0.1-0.2-0.2-0.2-0.2c0.2,0.3-0.5,0.4-0.9,0.2
	c0.1,0.1,0.2,0.2,0.3,0.3c-1-0.6,0.7-0.4-0.2-1c0-0.1,0-0.1,0.1-0.1c-0.2-0.1,0.7-2.6,0.7-2.6c0.5,0.2,0.5-0.1,0.3-0.3
	c0.7,0.1,1.5-5.1,2.3-5.1c-0.2,0-0.3-0.1-0.4-0.3c1.5,0.6-0.6-2.2,0.8-1c0.3-0.8,0.1-1.3-0.6-1.5c0.3,0.1,0.6,0.1,0.9,0.2
	c-0.3-0.2-0.3-0.2,0-0.1c-0.3-0.3-0.3-0.4,0-0.2c-0.6-0.5,0.3-1.4-0.1-1.8c0.4,0.3,0.5-0.2,0.5-0.2c0.5-0.3,1.1-2,0.5-2.6
	c0.1,0,0,0-0.1-0.2c0.1,0,0.1,0.1,0.2,0.1c0-0.1,1.2,0.2,0-0.7c0.3,0.2,0.5,0.1,0.8,0.2c0.1,0.1-1.1-2.2,0.3-1.2
	c-0.4-0.6-1.4-0.1-0.7,0.4c-0.2-0.1-0.5-0.1-0.7-0.2c0.4,0.4-0.1,0,0.4,0.3c-0.5,0-0.2,0.1-0.1,0.2c-0.1,0-0.3,0-0.5,0
	c-0.2-0.1,0.3,1.7-0.8,1.4c0.4,0.2,0.3,0.2-0.1,0.1c0,0,0.3,0.4,0.3,0.4c0.7,0.2-2.2,1.3-0.8,1.6c-0.2,0-2.2,3.9-1.2,4.1
	c-0.8-0.1-0.7,1-0.4,0.9c-0.8-0.1-0.8,0.4-0.3,0.8c0,0,0,0,0,0c0,0,0.1,0.1,0,0c0.5,0.4-2.1-0.7-0.3,0.6c0,0.4-0.1,0.5-0.4,0.1
	c0.5,0.4-0.8,1.2-0.9,1.2c0.2,0,0.3,0.2,0.5,0.2c-0.5,0.1-0.9,0.1-1.2,0.2c0.1-0.7,0-2.3,0-2.6c0,0,0,0,0-0.1c1.8-1.9,4-4.3,0.4-4.9
	c1.7,0.2-1.1-2.4,0.6-1.4c0.2-0.9-0.2-1.4-1-1.5c0.3,0,0.6,0,0.9,0c-0.2,0-0.5-2.3-0.5-2.3c1,0.4,0.3-3.7,0.5-3.6
	c0.5,0.1-0.9-1.2,0.6-0.8c0.1,0-1.6-2.1,0-1.5c-0.6-0.7-1.4,0.6-0.6,0.7c-0.3,0-0.5,0-0.8,0c0.1,0,0.1,0,0.1,0.1
	c0.5,0,0.4,0.2-0.1,0.4c0.1,0,0.2,0,0.3,0c-0.1,0-0.3,0.1-0.5,0.1c0-2.6,0-5.1,0-5.6c0.2,0,0.3,0.1,0.3,0.1c0-0.1-0.1-0.4-0.1-0.8
	c0-0.6-0.2-2.6,0-4c-0.2,0.1-0.4,0.3-0.6,0.4c-0.4-0.2,0.1-1.1,0.1-1.2c0.1,0.2,0.2,0.4,0.2,0.6c0.1-0.5-0.2-0.6,0-1.1
	c0.1-0.1,0.1-0.1,0.2-0.1c0.2-1.9,0.6-5-0.2-5.9c-0.3-3.9-0.4-8.3,0.1-12.1c0.2,0.9,0.2-0.4,0.1,0.9c0.1-1.3,0.4-2.7,0.2-4
	c-0.1,0.3-0.1,0.5-0.2,0.8c-0.5-7.7-0.2-0.7,0.3-1.4c0.3-1.9-0.7-4,0-5.9c-0.1-0.2-0.3,0.9-0.4,0.7c0-1-0.3-6.9-0.1-7.1
	c0.2-0.2,0.3,0.8,0.3,1.1c0-0.3,0.4-1.6,0.3-1.8c-0.2-0.6-0.2-0.5-0.3,0.3c0.1-1.2,0.1-2.3,0.1-3.5c-0.2,0.8-0.7-3.4-0.1-3.6
	c0.2,0.2,0.2,0.3,0.3,0.6c-0.1-1,0-2.1,0.2-3.1c0,0.2,0.1,0.4,0.1,0.7c-0.1-0.4-0.1-0.7-0.1-0.9c0,0.1-0.1,0.2-0.2,0.3
	c0.1-0.5-1.1-2.5-0.3-3c-0.1,1.5,0.3-0.1,0.4,1.2c-0.1-1,0.2-2.4,0.1-3.6c0.7,0,1.3,0,1.5,0.1c0.3-0.3,0.5-0.5,0.8-0.8
	c1.1,0.8,2.8,0.5,3.7,0.5c0.5-0.7,3.1-0.9,3.7-0.3c-1.7,0-0.1-0.1-0.7,0.6c0.8-0.6,1-0.4,1.6-0.3c0-0.1,0.3-0.3,0.1,0c0,0,0,0,0,0
	c0.1,0,0.2,0,0.4,0c0.1-0.2,0.1-0.3,0-0.5c0.1,0.1-0.9,0.1-0.6,0.1c0.4,0,0.6-0.2,0.7-0.6c0.7,1.2,2.5,0.3,2.3,0.6
	c2.8-1.1,5.1-3.8,7.4-6c0.6-0.5,1.7-1.1,2-1.7c0.4-0.7,0.7,0.1,0.4-0.9c-0.3-1.2-1-0.7-1.4-0.4c0,0,0,0,0,0c-0.1,0-0.2,0.2-0.3,0.6
	c-0.1-0.2-0.2-0.3-0.4-0.3c0.1,0.1,0.2,0.3,0.3,0.5c-0.2,0-0.6,0.1-0.5-0.2c-0.3,1.6-2.1,0.8-2.6,2.5c0.1-0.3-0.1-0.3-0.5,0
	c0.1,0.3,0.1,0.6,0,0.9c-0.2-0.2-0.4-0.4-0.5-0.7c0,0.2,0,0.5,0.1,0.7c-0.8-0.1-0.5,0.5-1.2,0.1c-0.1,0.2,0,0.4,0.2,0.6
	c-0.3,0.1-1.8,1.4-1.6,1.6c0.4,0.3,0.3,0.7,0.1,0.6c0,0,0-0.3-0.1-0.5c-0.1,0.3-0.2,0.6-0.5,0.8c-0.3-0.4,0-0.4,0.2-0.6
	c-0.1-0.1-0.3-0.2-0.4-0.4c-0.4,0.3-0.3,0.4-0.2,0.7c-0.2-0.1-1.1-0.1-1.4,0.1c0-0.1,0.1-0.2,0.1-0.2c-0.2,0.2-0.5,0.3-0.8,0.3
	c0.1-0.1,0.2-0.1,0.3-0.2c-1.1-1-5.7,0.4-7,0c-0.3,0.2-0.5,0.3-0.8,0.3c-1.4-0.3-3.3-0.2-4.7-0.4c-0.2,0-0.4,0-0.6,0
	c0-0.2,0-0.4,0-0.6c0.1,0.1,0.1,0.3,0.2,0.4c-0.7-1.8,0.9-4.3,0.6-6.2c-0.2,0.3-0.3,0.3-0.4,0.1c0,0.6,0.1,1.1,0.1,1.7
	c-0.1-0.3-0.2-0.7-0.2-1c0-0.2,0.1-0.4,0.1-0.7c0-0.1,0-0.3,0-0.5c0,0.2,0,0.3,0,0.5c0.2-1.8-0.1-3.7,0-5.9c0,0.2-0.1,0.4-0.1,0.7
	c-0.2-0.2-0.3-1.2-0.3-2.6c0.1,0.1,0.5,0,0.3,0.6c1.1-0.5,3.5-0.1,4.7-0.4c0.1-0.3,2.5-0.6,3.8-0.2c-0.1,0.1-0.2,0.3-0.2,0.4
	c2.2-0.2,5.6-1,6.8,0.1c0.4,0,1-0.1,1.1,0.1c-0.3,0-0.3,0.2-0.2,0.5c0.1-0.3,1,0.2,1.1,0.3c-0.1,0.1-0.2,0.1-0.4,0.1
	c0.3,0,0.5,0.1,0.7,0.3c-0.7-0.1-0.2,0.3,0,0.8c0.3-0.1,0.8,0.2,1.2,0.2c-1.3,0.1,0.3,1.1,0.1,1.3c0.3,0.2,1.9,0.7,2.7,1
	c-0.1,0.2-0.2,0.2-0.3,0.2c0.3,0.8,0.9,1.1,1.2,1.2c-0.1,0.1-0.4,0.8,0.5,0.3c-0.5-0.2-0.2-0.2-0.2-0.3c-0.1-0.4-0.4-0.6-0.8-0.7
	c0.1-0.1,0.3-0.1,0.4-0.2c-0.2,0-0.3,0-0.5,0c0.1-1-0.1-1.2-1.4-1.3c0.1-0.3,0.2-0.5,0.3-0.8c0.1,0-1.6,0.2-1-0.7
	c-0.1,0-1.8-1.4-2.3-2.5c-0.3,0.1-0.6,0-0.8-0.2c0.4-0.4-0.1-0.7-1.1-1.3c-0.1,0.3,0,0.7-0.4,0.9c0.1-0.5-0.1-0.4,0.2-0.6
	c-0.1,0-0.3,0.1-0.4,0.2c-0.2-0.3-0.1-0.4,0.2-0.3c-1-0.2-1.3-0.5-2.1,0.1c-1.3-0.2-2.6,0.3-3.6-0.1c0-0.1,0.1-0.2,0.3-0.1
	c-0.3-0.1-1.1-0.3-1.2-0.2c0.7-0.1-1.7,0.2-2-0.1c0.1,0.1,0.1,0.3,0.2,0.4c-1.4-0.2-0.8,0-1.9,0.4c-0.7-0.1,0-0.6,0-0.7
	c-0.1,0-0.7,0.1-0.5-0.2c0.3-0.1-2.8,0.7-1.9-0.1c-0.6,0.4-0.7-0.2-0.7-0.3c0,0-1,1-1.1,0.6c0.2-0.1,0.3-0.2,0.4-0.4
	c-0.2,0.1-0.3,0.1-0.3,0c-0.1,0.1-0.5,0.1-0.8,0.1c0-0.6,0-1.3,0-1.9c1-0.1,2-0.2,3.1-0.3c1.7,0,3.4,0.1,4.7,0.1
	c1.9,0,6.3,0.4,8.2,0.5c0.7,0,1.4-0.3,2.1-0.3c1.7-0.1,2.1,0.2,3.5,0c1.1-0.1,3-0.8,3.4-0.4c1.5,0.1,3-0.7,4.3,0.1
	c-0.4,0-0.8,0-1.2,0c0.3,0.2,0.3,0.4,0.1,0.7c0.5-0.2,1.8-0.2,2.6-0.2c-0.3,0,0.5-0.4,0.2,0c-0.1,0-0.1,0-0.2,0
	c0.4,0,0.7-0.1,0.8-0.2c0.2-0.3-1.3-0.1-1.1-0.1c1-0.7,4.7,0.2,4.8,0c1.9-0.6,1.8,0.2,3.7-0.4c2.7-0.8,5.5-2.9,8.5-4.3
	c1-0.5,2.7-1.7,3.7-2.1c0.6-0.2,3.1-1.6,3.2-1.6c-0.3,0.1-0.7-1.5-2-0.8c0.2-0.1,0.3-0.2,0.5-0.2c-0.6-0.1-1,0.6-1.3,1
	c0-0.2-0.1-0.4-0.3-0.4c0.1,0.2,0.1,0.4,0.1,0.6c-0.9-0.2-4.7,1.4-5.8,2.5c0.3-0.8-1.1,0.8-1.2,1c-0.1-0.1-0.2-0.3-0.2-0.4
	c-0.3,0.5-2,0.6-2.1,0.5c-0.3,0.2-0.3,0.4-0.1,0.7c0,0-3.5,1.4-3.2,1.7c0.6,0.5-0.1,0.8-0.2,0.7c-0.1,0,0.2-0.3,0.1-0.5
	c-0.2,0.5-0.6,0.8-1.1,0.7c-0.1-0.3,0.5-0.4,0.6-0.5c-0.2-0.1-0.3-0.1-0.2-0.2c-0.6,0.2-3.8,0.5-4.1,0.4c0.1-0.1,0.1-0.3,0.2-0.4
	c-0.4,0.2-0.8,0.3-1.3,0.3c0.2-0.1,0.3-0.1,0.5-0.2c-2.6-1.4-9.1,1.4-11.3,0c-0.4,0.2-0.9,0.3-1.3,0.3c-1.8-0.2-8.8-0.5-8.9-0.2
	c-0.9,0.2-1.6-0.4-2.7-0.1c0.1-0.4-3.3-0.3-5-0.3c0.1,0,0.4,0.7-0.1,0.2c0.1,0.1,0,0.3-0.1,0.4c-0.3-0.1-0.3-0.3,0-0.5
	c-1.3-0.3-9.1-0.3-9.8,0.5c-1.3,0.3-3.3-0.8-4.9-0.2c0,0,0.3-5.5,0.4-5.9c-0.7,0.1,0.4-6.8-0.2-7.6c0.9,0.3,4.9,0,5.9-0.1
	c4.1-0.3,7-0.1,11.4-0.4c0,0.5-1.3,0-1.3,0.5c-0.1,0,3.9-1.2,2.7-0.2c0.8-0.1,3,0,3.4-0.2c0.2-0.3,0.8-1.3,0.7-0.8
	c-0.3,0.6,1,0.1,0.5,0.9c1.2-0.4,5.4-1,7-0.5c-0.1,0.1-0.2,0.1-0.4,0.2c0.3,0,0.6,0,0.9-0.1c-0.2,0-0.3-0.1-0.5-0.1
	c1.3-0.5,3.9-0.3,4.6-0.2c-0.4,0.1,2.1,0,2.1,0.1c-0.1,0.1-0.3,0.3-0.4,0.4c1.1-0.2,2.2-0.3,3.3-0.4c-0.3,0,8.5-0.5,8.8,0.1
	c-0.1,0-0.1,0-0.2,0.1c0.3-0.1,0.6,0,0.8,0.2c-0.4-0.5-0.2-0.7,0.5-0.4c-0.3,0.1-0.3,0.3,0,0.5c0-0.4,1.6,0.2,1.7,0.3
	c-0.1,0.1-0.3,0.2-0.4,0.2c0.4,0,0.8,0.1,1.2,0.3c-1.2-0.1,0,0.5,0.5,0.9c0.2-0.1,1.2,0.2,1.8,0.1c-1.5,0.2,1.1,1.4,1,1.5
	c0.6,0.2,3,0.6,4.3,1c0,0.2-0.1,0.3-0.3,0.2c0.4,0.4,2.2,1,1.2,1.1c1.3,0.3,1.5,0.2,0.7,0.3c0.4,0.2,0.9,0.3,1.3,0.2
	c-0.2-0.1-0.9-0.6-0.5-0.3c-0.4-0.5-0.9-0.7-1.5-0.7c0.1-0.1,0.3-0.2,0.4-0.3c-0.2,0-0.4,0-0.7,0.1c-0.2-0.5,0-0.5-0.7-0.8
	c0-0.1,0.1-0.2,0.3-0.1c-1-1-1.3-0.4-2.2-0.4c0-0.3-0.1-0.6-0.1-0.9c-0.1,0-2.1,0.3-1.8-0.8c-0.2,0.1-0.6,0.3-1.1-0.3
	c0.3-0.2-3.9-2.2-4.9-2.5c0.5-0.9-1-0.5-2.3-0.8c0.3,0.4,0.2,0.7-0.2,0.9c-0.1-0.6-0.2-0.3,0.1-0.6c-0.4-0.1-0.8,0.3-0.3-0.1
	c-1.1-0.1-2.2-0.5-3.2,0.1c-1.9,0.1-4.2,0.3-5.9-0.1c0.1-0.2,0.3-0.2,0.4-0.1c-0.5-0.1-1.5-0.3-1.9-0.2c0.1,0.1,0.3,0.1,0.4,0.2
	c-0.1,0-3.2,0-3.6-0.3c0.1,0.1,0.2,0.3,0.3,0.4c-0.5,0-3.6-0.2-3.5,0.1c-0.2-0.4,0.8-0.3,0.5-0.5c0.1,0-1.7-0.1-0.7,0.1
	c-0.2,0-4.1,0.2-3.2-0.3c-0.8,0.3-1.2-0.1-1.2-0.3c-0.1,0.1-1.7,1-1.8,0.6c0.9,0.1-0.1-0.3,0.6-0.4c-0.5,0.1-1.5-0.2-1.9,0
	c0.5,0-0.7,0.5-1,0.5c0.6,0.1,0.4,0.2-0.4,0.3c0.1-0.1,0.1-0.1,0.2-0.2c-0.7,0.5-2.2-0.8-3-0.6c0.2,0.2,0.1,0.3-0.2,0.4
	c-0.8-0.1-1.8,0.1-2.6-0.1c0.1,0-2.9,0.5-3.9,0.5c0-0.2,0.2-0.4,0.4-0.5c-0.3,0-0.7,0-1.1,0.1c0.2-0.8,0.4-2.9,0.2-2.5
	c0.3-1,0.1-3-0.2-3.9c-0.8-2.3,0-2.1-2.7-2c0.4,0,0.6-0.1,0.4-0.4c-0.5,0-1.9,1.1-2.4,0c0.4,0,0.8,0,1.1,0
	c-1.9-1.2-8.5,0.3-11.1,0.5c1-0.3,2-0.5,3-0.6c-0.6,0-1.7-0.1-2.4,0.1c-0.6,0-2.6,0.1-3.4,0.1c-3.8-0.3-2.8,1.8-2.9,5.1
	c-0.1,3.2,1,5.1,0.1,8.2c-0.1,0.3-0.2-0.6-0.3-0.5c0,0.5-0.1,1.1-0.1,1.6c-1.7,0-3.6,0.2-4.2,0.1c-2.2-0.4-4.2,0.3-6.6,0.3
	c-1.5,0-3-0.1-4.1-0.1c-1.6,0-5.6,0-7.1-0.5c-0.4,0.3-0.7,0.5-1.1,0.8c-1.6-1.8-5.7,0.2-6.8-0.1c-1.2-0.1-2.6,0.7-3.7-0.1
	c0.3,0,0.7,0,1,0c-0.2-0.2-0.3-0.4-0.1-0.7c-0.5,0.2-3.2,0.5-3,0.7c0,0,0.6-0.1,0.9-0.1c-0.7,0.5-4.6,0.3-4.4,0
	c-3.1,2.2-7.7,4-11.3,6c-1.3,0.7-2.6,0.8-3.8,1.7c-0.8,0.6-1.5,2.5,0.6,1.6c-0.1,0.1-0.3,0.1-0.4,0.2c0.6,0.1,0.8-0.5,1.1-0.9
	c0,0.2,0.1,0.3,0.3,0.4c-0.1-0.2-0.1-0.4-0.1-0.6c0.2,0,0.8,0,0.5,0.3c1.2-1.7,3.1-0.7,4.5-2.4c-0.2,0.8,0.9-0.7,1.1-0.9
	c0.1,0.1,0.2,0.2,0.2,0.4c0.3-0.5,1.7-0.4,1.8-0.4c0.2-0.2,0.3-0.4,0.1-0.7c0.2,0,3-1.3,2.8-1.5c-0.5-0.5,0-0.8,0.2-0.6
	c0.1,0-0.2,0.3-0.1,0.5c0.3-0.4,0.7-0.7,1.1-0.9c-0.2,0.2-0.3,0.3-0.1,0.5c-0.2,0-0.4,0.1-0.6,0.1c0.1,0.1,0.2,0.1,0.2,0.1
	c0.6-0.4,2.8-1.5,3.2-1.3c-0.1,0.1-0.1,0.3-0.2,0.4c0.4-0.2,0.7-0.3,1.1-0.3c-0.1,0.1-0.3,0.1-0.4,0.2c0.6,0.4,5.4,0.3,6.5,0.2
	c0.7,0,2.3-0.6,3.3-0.2c0.4-0.2,0.8-0.3,1.2-0.3c4.3,0.1,6.9,0.4,10,0.3c-0.1,0.4,2.9,0.3,4.4,0.3c-0.3-0.1-0.3-0.4,0.1-0.2
	c-0.1-0.1,0-0.3,0.1-0.4c0.3,0.1,0.3,0.3,0,0.5c1.2,0.3,8,0.2,8.5-0.5c0.1,0,2.3,0.3,3,0.5c-0.1,0.4-0.1,0.8,0,1.3
	c-0.1-0.2-0.1-0.4-0.2-0.6c0.1,0.5,0.1,1.4,0.1,2.2c-0.1,1.1-0.1,2.2-0.3,2.9c0.4-0.1,0.1,7,0,7c0.1,0.2,0.2,0.3,0.2,0.5
	c-0.5,0-0.9,0-1.4,0.1c0.1-0.1-3.4,0-4.4,0c-2.7,0-4.8,0-8,0.3c0.4-0.1,0.8-0.3,1.1-0.5c0,0-3.4,1.1-2.3,0.2c-0.7,0.1-2.7,0-2.9,0.2
	c-0.1,0.3-0.7,1.2-0.6,0.8c0.3-0.6-0.9-0.1-0.4-0.9c-0.1,0-1.3,0.5-1.1,0.1c-0.7,0.4-4.4,0.6-5,0.4c0.6,0.2-0.2,0-0.5-0.1
	c0.1,0,0.3,0.1,0.4,0.1c-1.1,0.5-3.5,0.3-4,0.2c0.4-0.1-1.8,0-1.9-0.1c0.1-0.1,0.2-0.3,0.3-0.4c-4,0.3-8.6,0.6-11.3-0.7
	c0.3-0.1,0.3-0.3,0.1-0.5c0,0.4-1.3-0.1-1.5-0.2c0.1-0.1,0.2-0.2,0.4-0.2c-0.4,0-0.7,0-1.1-0.2c1.1,0-0.1-0.4-0.4-0.8
	c-0.3,0.1-1-0.1-1.6,0c1.4-0.2-0.9-1.3-0.8-1.4c-0.5-0.1-2.7-0.5-3.8-0.7c0-0.2,0.1-0.3,0.3-0.2c-0.3-0.4-1.9-0.8-1-1
	c-1.2-0.2-1.3-0.1-0.6-0.3c-0.4-0.2-0.8-0.2-1.2-0.1c0.5,0.2,0.5,0.3,0.4,0.3c0.3,0.4,0.8,0.6,1.3,0.6c-0.1,0.1-0.2,0.2-0.4,0.3
	c0.2,0,0.4-0.1,0.6-0.1c0.2,0.6,0.1,0.4,0.6,0.8c0,0.1-0.1,0.2-0.2,0.1c0.9,0.9,1.2,0.3,2,0.3c0,0.3,0,0.6,0.1,0.9
	c0,0,1.9-0.4,1.6,0.6c0.2-0.1,0.6-0.3,0.9,0.2c-0.3,0.3,3.4,2,4.2,2.2C47.9,62.5,49,62,50,62.9c-0.1-0.4,0.1-0.7,0.5-0.7
	c-0.2,0.6,0,0.3-0.3,0.5c0.2,0.2,0.8,0,0.1,0.2c0.9,0.6,2,1.1,2.9,0.4c1.8,0.2,3.5-0.4,5.1,0.1c-0.1,0.2-0.2,0.2-0.4,0.1
	c0.4,0.1,1.4,0.3,1.7,0.2c-0.1-0.1-0.2-0.1-0.3-0.2c0,0,2.8,0.1,3.1,0.3c-0.1-0.1-0.2-0.3-0.3-0.4c0.5,0,3.1,0.2,3-0.1
	c0.1,0.4-0.7,0.3-0.5,0.5c-0.1,0,1.5,0.1,0.7-0.1c0.4,0.1,3.6-0.2,2.8,0.3c0.6-0.3,1,0.1,1.1,0.3c0.2-0.2,1.4-0.9,1.5-0.5
	c-0.7-0.1,0.1,0.3-0.5,0.4c0.4-0.1,1.4,0.1,1.6,0c-0.1,0,1.2-0.8,1.2-0.8c-0.1,0.1-0.1,0.1-0.2,0.2c0.6-0.5,1.9,0.8,2.6,0.6
	c-0.1-0.1-0.1-0.3,0-0.3c1.7,0.7,3.8-0.7,5.9-0.5c0,0.2-0.1,0.4-0.3,0.5c2.1,0,4.9-1.2,6.9-0.7c0.3,0.2,1.4,0.6,2.4,0.6
	c-0.3,4.7,0.3,9.2,0.3,14c0,3.2,0.4,8.6-0.1,10.6c-0.8,0.9,0.2,2.6,0.2,2.8c0,1.9-0.2,3.8-0.2,5.8c0,3.1-0.4,5.3-0.3,8.5
	c-0.1-0.1-0.1-0.3-0.2-0.4c0,0.6,0.5,2.5,0.5,2.8c0.2,2-0.5,4.1-0.1,6.1c-0.3-0.2,0.3,8,0.3,8c-0.1,0.7,0.2,1.3,0.1,2
	c-0.1-0.2-0.1-0.3-0.2-0.5c-0.1,3.3,0.8,5.7-0.1,8.7c0-0.8,0-1.6,0-2.4c-0.3,0-0.3,1.2-0.7,0.2c0.4,1.9-0.4,5.8,0.5,7.2
	c0.1,0.3,0.1-2.9,0.1-2.3c0.7,2.2-0.2,3.9-0.2,6.1c0,1.1,1,5.4,0.2,3.7c0,0.3,0.6,3.4,0.3,3.5c-0.9,0.4,0,9.8,0,10.8
	c0,1.3-0.4,4.1-0.4,6.4c0,0,0,0-0.1,0v2.6c0.1,0,0.3,0,0.4,0c0,0,0,0.1,0,0.1c0.9,1.8,2.2,1,4,0.9c3-0.2,6.1,0.1,8.7,0
	c0.9,0,2-0.1,3.2-0.1c0.1,0,0.4,0,0.8,0c0.5,0,0.9,0.1,1.4,0.1c0,0,0.1,0.1,0.1,0.1c0,0-0.1-0.1-0.1-0.1c0,0,0.1,0,0.1,0
	c0,0,0,0,0.1,0c0,0,0,0,0,0c0.2,0,0.4,0,0.6,0C110.1,169.2,110.3,169.2,110.5,169.2z M111.4,162.5
	C111.5,162.4,111.7,162.7,111.4,162.5L111.4,162.5z M111.4,162.9c-0.1,0-0.1,0-0.2,0C111.3,162.7,111.3,162.7,111.4,162.9z
	 M111.2,163.7C110.9,163.6,111.1,162.9,111.2,163.7L111.2,163.7z M110.7,140.6c0.1,0.3,0.3,0.5,0.6,0.7c-0.5,0-0.5,0-0.6,0
	C110.7,141,110.7,140.8,110.7,140.6z M110.7,156.8c-0.1,0-0.1,0-0.2,0c0-0.1,0-0.1,0-0.2C110.6,156.6,110.7,156.6,110.7,156.8z
	 M121.7,76.3C121.7,76.2,122.1,76.2,121.7,76.3L121.7,76.3z M121,76.3C121.4,76.3,121.3,76.5,121,76.3L121,76.3z M111,70.5
	c0,0.4,0.1,0.8,0.1,1.1c0-0.6-0.1-0.7-0.3-0.3C110.9,71.1,111,70.8,111,70.5z M140.6,56.3C140.7,56.2,141.3,56.2,140.6,56.3
	L140.6,56.3z M139.5,56.3C140.3,56.3,139.9,56.5,139.5,56.3L139.5,56.3z M119.4,40.8c-0.1-0.1-0.2-0.2-0.4-0.2c0.1,0,0.2,0,0.3,0
	C119.3,40.6,119.3,40.7,119.4,40.8z M119.4,40.2c-0.2,0.1-0.4,0.2-0.5,0.3c-0.2-0.1-0.3-0.1-0.5-0.1C118.7,40.3,119,40.3,119.4,40.2
	z M56.4,47.9C56.3,47.9,55.8,47.9,56.4,47.9L56.4,47.9z M57.4,47.9C56.7,47.8,57,47.6,57.4,47.9L57.4,47.9z M74.8,63.3
	c0.1,0.1,0.2,0.2,0.3,0.2c-0.1,0-0.2,0-0.3,0C74.9,63.5,74.9,63.4,74.8,63.3z M74.8,63.9c0.1-0.1,0.3-0.2,0.4-0.2
	c0.1,0,0.1,0.1,0.2,0.1C75.3,63.8,75.1,63.9,74.8,63.9z M90.5,135.9C90.3,134.2,90.8,136.6,90.5,135.9L90.5,135.9z M110.2,160.5
	c0,0,0-0.1,0-0.1c0,0,0.1,0,0.1,0.1C110.2,160.4,110.2,160.5,110.2,160.5z M110,159.6C110.4,159.7,110.2,159.7,110,159.6L110,159.6z
	 M110.3,160.1C110.3,160.1,110.3,160.1,110.3,160.1C110.2,160.1,110.2,160.1,110.3,160.1z M110.1,159.5
	C110.1,159.5,110.1,159.5,110.1,159.5c0.1,0.1,0.2,0.2,0.2,0.2C110.3,159.7,110.1,159.5,110.1,159.5z M110.4,159.7
	c0-0.1-0.1-0.2-0.1-0.3c0,0,0-0.1,0-0.2C110.4,159.5,110.4,159.6,110.4,159.7z M92.4,130.9c0,0.3,0,0.7,0,1
	C92,132.2,92.5,130.5,92.4,130.9z M92.4,133.2C92.4,133.5,92.5,134.5,92.4,133.2L92.4,133.2z M92.7,165.6c0-0.2-0.1-0.4-0.1-0.4
	c0,0.2,0.2,0.4,0.3,0.5C92.9,165.6,92.8,165.6,92.7,165.6z M107.7,163.3C107.7,163.3,107.7,163.3,107.7,163.3
	C107.7,163.4,107.6,163.4,107.7,163.3z M107.9,163.5C107.9,163.5,108,163.6,107.9,163.5L107.9,163.5z M108.6,153.8
	c0.2-0.1,0.3,0.2,0.6,0.1c-0.1,0.1-1.9,0.6-0.5,1c0.5-0.1-0.9,3.4-0.7,3.3c0.2,0,0.4,0,0.4,0.2c-0.7,0.2-0.7,0.3,0,0.3
	c-1,0.7-1.3,1.1-0.8,1.3c0,0-0.1,0-0.2,0.1c-0.2,0-0.9-2.8-0.8-2.8c0.2-0.1-0.8-6.4-1.2-6.4c1.6-0.3-1.7-1.7,0.1-1.4
	c-0.1-0.8-0.6-1.2-1.4-1c0.3-0.1,0.6-0.2,0.9-0.3c-0.6,0-0.9-1.7-1.2-1.8c0.7,0,0.5-2.9-0.8-3.1c0.1,0,0-0.1-0.2-0.1
	c0.1,0,0.1,0,0.2,0c-0.1-0.1,1.1-0.5-0.3-0.6c0.4,0,0.5-0.2,0.8-0.2c0.1,0-2.2-1.4-0.4-1.3c-0.7-0.3-0.6-0.1-1.1,0.5
	c0,0.3,0.1,0.4,0.3,0.4c-0.5,0.1-0.5,0.2,0.2,0.1c-0.5,0.3-0.1,0.2,0,0.3c-0.1,0-0.3,0.2-0.5,0.3c-0.1,0,0.1,1.3,1.1,1.3
	c-0.8,0.2-0.3,0.1-1,0.4c0.4-0.1,0.4,0,0,0.1c1.1,0,0.7,2.1,0.3,2.3c0.1-0.1,0.3-0.1,0.4-0.2c-0.3,0.3,0.3,1.9-0.3,2
	c0.3,0.1,1.2,2.6,1.6,2.4c-0.7,0.4,0,1.3,0.2,1.1c-0.8,0.3-0.8,0.6,0.2,0.9c0.7-0.1-1.9,0.5,0.1,0.7c-0.3,0.1-0.3,0.2-0.2,0.3
	c-0.1,0-0.2,0-0.3-0.1c0.3,0.2,0.4,0.3,0.2,0.1c1.6,0,0.1,0.4-0.8,0.7c0.2-0.1,0.3-0.2,0.5-0.2c-0.4,0.1-0.4,0.1,0,0
	c-0.4,0-0.5,0-0.1-0.1c-1,0.1,0.1-1-0.9-0.6c0,0,0.3-0.1,0.1-0.1c0.1-0.1,0.2-0.2,0.3-0.2c-0.2,0-0.3,0-0.5,0c1-0.2-0.5,0.1,0.3-0.2
	c-0.4,0.1-0.4,0,0-0.3c0,0,0,0,0,0c-0.1,0.1,1.8-2.2-0.5-0.4c0.9-0.7-0.2-1.3-0.6-1.3c0,0,0,0-0.2,0c0.1,0,0.2-0.1,0.3-0.1
	c-0.4,0-0.4-0.1,0.1-0.2c0,0,0-0.1,0.1-0.1c-0.1,0.2-0.5,0-0.7,0c0.3,0,0.5-0.2,0.8-0.3c-0.2,0-1.4-0.5-0.8-0.7
	c-0.5,0.2-1.1,0.7,0,0.5c-0.2,0.1-0.5,0.2-0.7,0.3c0.1,0,0.2,0,0.2,0c-0.1,0-0.1,0,0.3-0.1c-0.4,0.3-0.2,0.2,0.1,0.2
	c-0.1,0.1-0.3,0.2-0.4,0.3c-0.9,0.3,1.3,0.8,1.1,0.7c-0.7,0.3-0.3,0.1-0.9,0.5c0.4-0.1,0.4-0.1,0,0.1c1.1-0.3,0.7,1.5,0.4,1.6
	c0.1-0.1,0.3-0.1,0.4-0.2c-0.1,0.1-0.3,1.3,0.3,1.2c-0.1,0.1-0.4,0.3-0.5,0.3c1.8,0-0.7,1.2,1,0.3c-0.2,0.3-1.1,1,0.3,1
	c-0.9,0.2,0.1,0.3,0.3,0.1c-0.5,0.3-0.2,0.9,0.1,0.8c-0.7,0.4,1.1,1.1-0.2,0.9c-0.2,0.3,0,0.3,0.6,0.2c0.2,0.2,0.2,0.3-0.1,0.3
	c0.7,0,0,1-0.2,1.2c0.2-0.1,0.3-0.1,0.5-0.2c-0.6,0.4-0.9,1-0.1,0.8c0.3-0.2,0.1,1.5,0.7,1.5c-0.7,0.5-0.1,0.5,0.2,0.6
	c-0.5,0.4-0.5,0.5,0.1,0.2c-1,0.6,1.1,2.2,1.1,2.2c0,0.4-0.3,0.6-0.8,0.4c0.2,0.4,0.4,0.5,0.7,0.1c0.2,0.1,0.4,0.1,0.6-0.1
	c0.1,0.4,0,0.6-0.4,0.7c0.1,0.1,0.3,0.1,0.5,0c-0.2,0.2-0.2,0.5-0.1,0.8c-1.1,0-2.4,0.1-2.8,0c-1.1-0.1-2.6-0.5-3.9-0.6
	c-2.4-0.3-4.7-0.6-7.1-0.8c-0.5-0.7,0-4.6,0-5c0.1-0.5,0.3,0.5,0.3,0.5c0-1.1-0.5-7.9-1.2-8.1c-0.1-0.4-0.1-0.8,0-1.2
	c0,1.4,0.2-0.3,0.3-0.1c0,0.3,0,0.5,0.2,0.8c-0.2-1.1-0.3-2.1-0.3-3.2c0.2-0.1,0.2,1.7,0.4,0.8c0,0.4-0.1,0.9-0.1,1.3
	c0.1-0.2,0.2-0.2,0.2-0.2c-0.1-1-0.2-3.4-0.2-3.7c0-1.5-0.3-4.2,0-5.6c0.1,0.1,0.3,0.3,0.4,0.4c0-1.1-0.5-1.6-0.3-2.7
	c0.1,0.3,0.1,0.7,0.2,1c0.8-3,0-7.2,0-10.4c0-2,0.3-6,0.1-6.7c-0.3-1.7-0.7-5.5-0.1-6c0.6-6.4-0.3-15.1,0.1-21.5
	c0,0.2-0.1,0.4-0.2,0.6c-0.2-1.9,0.6-3.5,0.1-5.5c0.1,0.3,0.2,0.6,0.2,0.9c-0.7-3.4,0-7.2,0-11.1c-0.2,0.7-0.4,0.7-0.5,0
	c0.1-0.1,0.2-0.2,0.3-0.3c-0.1-0.1-0.2,0-0.2,0.2c-0.2,0.1,0-1.9,0.3-0.4c0.1-5.9,0.2-14.1-0.3-20.5c0,0.2-0.1,0.4-0.2,0.4
	c0,0,0-0.1,0-0.1c0-0.7,0-1.5,0.1-2.4c0.1,0.1,0.2,0.1,0-0.1c0.4-3,1.4-6.9,0.1-9.1c-0.1-0.1,0-0.7,0-1.6c0.1-0.5,0.3-0.9,0.2-1.3
	c0,0,0,0-0.2,0c0.1-1.6,0.3-3.4,0.3-4.3c0.1-2.4-0.1-5,0.1-7c-0.6,0.2-0.3-0.2-0.3-1c2.9,0.1,5.8,0.3,8.7,0.4c1.7,0,3.6-0.7,5.1-0.4
	c-0.2,0.1-0.4,0.2-0.6,0.3c1-0.1,2.1-0.2,3.1-0.2c0,1.6,0,3.2,0.1,4.8c-0.2-0.4-0.2,1-0.3,2.3c-1.6,0.3-3.3,0.6-4.7,0.2
	c-0.2-0.2-0.7-0.5-1.2-0.6c-0.7-0.4-3.1,0.5-3.9,0.6c0.2-0.2,0.2-0.3-0.1-0.4c-0.2,0-0.2,1.1-0.7,1c0-0.3,0-0.5,0-0.8
	c-0.5,0.1,0.4,5.4,0.5,6.1c-0.3-0.5-0.5-0.9-0.6-1.4c0,0.7-0.1,1.4,0.1,0.8c0.6,0.7-0.1,6.7-0.1,7.2c-0.1,0.8,0.6,1.4-0.3,1.6
	c-0.1,0.8-0.1,1.4-0.2,2.2c0-0.1,0-0.1,0-0.2c0,0.6,0.1,1.5,1.1,1.3c-0.2,0.1-0.5,0.1-0.7,0.2c2.9-0.3,6.8-0.6,8.2-0.3
	c1,0.2,1.9,0.2,2.8,0.1c0.1,3,0.3,6.1,0.4,9.2c-0.5-0.1,0-2.7-0.5-2.6c0.1,1.1-0.1,4.1,0.2,5.6c0.2,2.1-0.1,4.3,0.2,6.4
	c-0.6-0.1-0.3,0.1,0,0.2c0-0.2,0.1-0.4,0.2-0.2c0.5,0.8,0.1,3.2-0.3,2.7c0,0,0.3,1.5,0,0.7c0,0.4,0.9,2.8,0.1,1.9
	c0.3,0.8,0.4,1.6,0.3,2.5c-0.1,0-0.2-0.1-0.1-0.3c0,2.9,0.1,4.8-0.1,7.4c0.1-0.2,0.1-0.3,0.2-0.5c0.1,0.9,0.1,1.8,0.1,2.7
	c-0.1-0.2-0.1-0.5-0.2-0.7c0,0.6,0,1.2,0.1,1.9c0-0.4,0.1-0.7,0.1-1.1c0.2,1,0.6,1.5,0.1,2.7c0.5,2-0.2,5.6-0.1,6.2
	c-0.1,1.6,0.2,3.1,0,4.7c-0.2,0.2-0.3-1-0.4-0.8c0.1,2.2,0.5,4.4,0.4,6.6c0-0.1,0-0.3,0-0.4c0.5,0.3-0.1,7.8-0.1,8
	c0,3.4,0.9,7.4,0,10.8c0.1-0.2,0-0.4-0.1-0.5c0,0.7,0,1.5,0.1,2.2c0.2-0.2,0.3-0.5,0.3-0.7c0.2,0.4,0.3,3.7,0.2,5.2
	c-0.2-0.2-0.3-0.4-0.3-0.7c0.2,0.8,0.3,1.7,0.2,2.5c-0.5-2.7-0.4-0.3-0.4,0.3c0,0.5-0.1,1-0.1,1.5c0-0.1,0.1-0.3,0.1-0.4
	c0.3,0.5,0.4,1.2,0.4,1.9c-0.1,0.4-0.2,0.7-0.3,0.7c0.1,0,0.2,0,0.3,0c0,0.1,0,0.1,0,0.2c-0.1,0.1-0.1,0.3-0.2,0.5
	c0,0.1-0.1,0.1-0.1,0.3c-0.2,0.5-0.5,1-0.5,0.9c0,0,0.1,0.6,0.3,1.2c-0.1,0.8-0.1,1.5-0.1,1.5c0-0.2,0.1-0.3,0.2-0.5
	c0.1,0.3,0.1,0.6,0.2,0.9c-0.6,0.3-0.2,1.3,0,1.1c0.3,0.9,0.1,1.2-0.5,0.9c0.5,0.1-0.7,1-0.1,1.2
	C110.1,153.1,108.5,153.8,108.6,153.8z M104.8,155.6C103.6,155.8,105.1,155.3,104.8,155.6L104.8,155.6z M104.8,155.6
	c-0.1,0.2-0.2,0.2-0.3,0.1C104.6,155.7,104.7,155.7,104.8,155.6z M104.2,155.4C104.2,155.5,104,155.4,104.2,155.4L104.2,155.4z
	 M105.9,165.8C105.8,165.8,106.2,165.7,105.9,165.8L105.9,165.8z M110.2,154.7c0,0.7,0.1,1.4,0.1,2.1c-0.1,0-0.2,0-0.3,0
	c0-0.1-0.1-0.2-0.1-0.2c0,0.1,0,0.1,0,0.2C108.6,156.7,109.2,155.8,110.2,154.7z M109.4,162.9C109.4,163,109.4,163,109.4,162.9
	C109.3,163,109.3,163,109.4,162.9z M109.8,161.7C109.8,161.7,109.9,161.8,109.8,161.7c0.1,0.1,0.1,0.1,0.1,0.1
	C109.8,161.8,109.8,161.8,109.8,161.7z"/>
</svg>
