<?xml version="1.0" encoding="utf-8"?>
<!-- Generator: Adobe Illustrator 19.2.1, SVG Export Plug-In . SVG Version: 6.00 Build 0)  -->
<svg version="1.1" id="Layer_1" xmlns="http://www.w3.org/2000/svg" xmlns:xlink="http://www.w3.org/1999/xlink" x="0px" y="0px"
	 viewBox="0 0 320 320" style="enable-background:new 0 0 320 320;" xml:space="preserve">
<style type="text/css">
	.st0{fill:url(#SVGID_1_);}
	.st1{fill:url(#SVGID_2_);}
	.st2{opacity:0.2;fill:url(#SVGID_3_);}
	.st3{opacity:0.2;fill:none;stroke:#FFFFFF;stroke-miterlimit:10;}
	.st4{fill:#FFFFFF;}
	.st5{fill:none;stroke:url(#SVGID_4_);stroke-width:9;stroke-miterlimit:10;}
	.st6{fill:none;stroke:url(#SVGID_5_);stroke-width:9;stroke-miterlimit:10;}
	.st7{fill:none;stroke:url(#SVGID_6_);stroke-width:9;stroke-miterlimit:10;}
	.st8{fill:none;stroke:url(#SVGID_7_);stroke-width:9;stroke-miterlimit:10;}
	.st9{fill:none;stroke:url(#SVGID_8_);stroke-width:9;stroke-miterlimit:10;}
	.st10{fill:none;stroke:url(#SVGID_9_);stroke-width:9;stroke-miterlimit:10;}
	.st11{fill:none;stroke:url(#SVGID_10_);stroke-width:9;stroke-miterlimit:10;}
	.st12{opacity:5.000000e-02;fill:#FFFFFF;}
	.st13{fill:url(#SVGID_11_);}
	.st14{opacity:2.000000e-02;fill:#FFFFFF;}
	.st15{fill:#B87B00;}
	.st16{fill:#C98D00;}
	.st17{fill:#42CF3B;}
	.st18{opacity:0.1;}
</style>
<g>
	
		<radialGradient id="SVGID_1_" cx="-587.9786" cy="473.3223" r="874.4053" gradientTransform="matrix(-0.3333 0 0 0.6 106.6667 8)" gradientUnits="userSpaceOnUse">
		<stop  offset="0" style="stop-color:#15ABFF"/>
		<stop  offset="0.4796" style="stop-color:#138BE8"/>
		<stop  offset="1" style="stop-color:#1263DE"/>
	</radialGradient>
	<polygon class="st0" points="0,320 320,320 320,0 0,0 	"/>
	<linearGradient id="SVGID_2_" gradientUnits="userSpaceOnUse" x1="140.1017" y1="137.7329" x2="161.8974" y2="207.1349">
		<stop  offset="0" style="stop-color:#FFFFFF;stop-opacity:0.2"/>
		<stop  offset="0.9085" style="stop-color:#FFFFFF;stop-opacity:1.981709e-02"/>
		<stop  offset="1" style="stop-color:#FFFFFF;stop-opacity:0"/>
	</linearGradient>
	<path class="st1" d="M320,82.2c-3.4,2.8-6.6,5.9-9.9,8.8c-15.9,13.5-36.4,21.4-57.3,21.9c-25.3,0.7-51.8-8.9-75.3,0.5
		c-21.7,8.7-34.1,30.8-48.3,49.2c-19.4,25.2-44.8,45.8-73.6,59.5c-17.2,8.2-37.3,13.8-55.6,10.8V320h320L320,82.2z"/>
	<linearGradient id="SVGID_3_" gradientUnits="userSpaceOnUse" x1="173.661" y1="124.156" x2="180.5496" y2="148.4429">
		<stop  offset="0" style="stop-color:#FFFFFF;stop-opacity:0.2"/>
		<stop  offset="0.9085" style="stop-color:#FFFFFF;stop-opacity:1.981709e-02"/>
		<stop  offset="1" style="stop-color:#FFFFFF;stop-opacity:0"/>
	</linearGradient>
	<path class="st2" d="M55.6,222.1c28.7-13.7,54.1-34.3,73.6-59.5c14.2-18.5,26.7-40.6,48.3-49.2c23.5-9.4,50,0.2,75.3-0.5
		c20.8-0.5,41.4-8.4,57.3-21.9"/>
	<path class="st3" d="M0,232.9c18.3,3,38.4-2.6,55.6-10.8c28.7-13.7,54.1-34.3,73.6-59.5c14.2-18.5,26.7-40.6,48.3-49.2
		c23.5-9.4,50,0.2,75.3-0.5c20.8-0.5,41.4-8.4,57.3-21.9c3.3-2.8,6.5-6,9.9-8.8"/>
	<g>
		<circle class="st4" cx="276.2" cy="109.2" r="2"/>
		<linearGradient id="SVGID_4_" gradientUnits="userSpaceOnUse" x1="274.4265" y1="102.9546" x2="277.9741" y2="115.4623">
			<stop  offset="0" style="stop-color:#FFFFFF;stop-opacity:0.2"/>
			<stop  offset="1" style="stop-color:#FFFFFF;stop-opacity:0.2"/>
		</linearGradient>
		<circle class="st5" cx="276.2" cy="109.2" r="2"/>
	</g>
	<circle class="st4" cx="236.2" cy="112.2" r="2"/>
	<linearGradient id="SVGID_5_" gradientUnits="userSpaceOnUse" x1="234.4265" y1="105.9457" x2="237.9741" y2="118.4533">
		<stop  offset="0" style="stop-color:#FFFFFF;stop-opacity:0.2"/>
		<stop  offset="1" style="stop-color:#FFFFFF;stop-opacity:0.2"/>
	</linearGradient>
	<circle class="st6" cx="236.2" cy="112.2" r="2"/>
	<g>
		<circle class="st4" cx="196.2" cy="109.5" r="2"/>
		<linearGradient id="SVGID_6_" gradientUnits="userSpaceOnUse" x1="194.4265" y1="103.2057" x2="197.9741" y2="115.7134">
			<stop  offset="0" style="stop-color:#FFFFFF;stop-opacity:0.2"/>
			<stop  offset="1" style="stop-color:#FFFFFF;stop-opacity:0.2"/>
		</linearGradient>
		<circle class="st7" cx="196.2" cy="109.5" r="2"/>
	</g>
	<g>
		<circle class="st4" cx="156.2" cy="128.1" r="2"/>
		<linearGradient id="SVGID_7_" gradientUnits="userSpaceOnUse" x1="154.4265" y1="121.8888" x2="157.9741" y2="134.3964">
			<stop  offset="0" style="stop-color:#FFFFFF;stop-opacity:0.2"/>
			<stop  offset="1" style="stop-color:#FFFFFF;stop-opacity:0.2"/>
		</linearGradient>
		<circle class="st8" cx="156.2" cy="128.1" r="2"/>
	</g>
	<g>
		<circle class="st4" cx="116.2" cy="177.9" r="2"/>
		<linearGradient id="SVGID_8_" gradientUnits="userSpaceOnUse" x1="114.4265" y1="171.6042" x2="117.9741" y2="184.1118">
			<stop  offset="0" style="stop-color:#FFFFFF;stop-opacity:0.2"/>
			<stop  offset="1" style="stop-color:#FFFFFF;stop-opacity:0.2"/>
		</linearGradient>
		<circle class="st9" cx="116.2" cy="177.9" r="2"/>
	</g>
	<g>
		<circle class="st4" cx="76.2" cy="210.8" r="2"/>
		<linearGradient id="SVGID_9_" gradientUnits="userSpaceOnUse" x1="74.4265" y1="204.5323" x2="77.9741" y2="217.0399">
			<stop  offset="0" style="stop-color:#FFFFFF;stop-opacity:0.2"/>
			<stop  offset="1" style="stop-color:#FFFFFF;stop-opacity:0.2"/>
		</linearGradient>
		<circle class="st10" cx="76.2" cy="210.8" r="2"/>
	</g>
	<g>
		<circle class="st4" cx="36.2" cy="229.7" r="2"/>
		<linearGradient id="SVGID_10_" gradientUnits="userSpaceOnUse" x1="34.4265" y1="223.4183" x2="37.9741" y2="235.926">
			<stop  offset="0" style="stop-color:#FFFFFF;stop-opacity:0.2"/>
			<stop  offset="1" style="stop-color:#FFFFFF;stop-opacity:0.2"/>
		</linearGradient>
		<circle class="st11" cx="36.2" cy="229.7" r="2"/>
	</g>
	<g>
		<g id="Gradient_1_">
			<circle class="st12" cx="160" cy="160" r="33.3"/>
			<circle class="st12" cx="160" cy="160" r="66.7"/>
			<radialGradient id="SVGID_11_" cx="160" cy="160" r="128.0203" gradientUnits="userSpaceOnUse">
				<stop  offset="0.6429" style="stop-color:#FFFFFF;stop-opacity:0.1"/>
				<stop  offset="1" style="stop-color:#FFFFFF;stop-opacity:0"/>
			</radialGradient>
			<circle class="st13" cx="160" cy="160" r="128"/>
			<circle class="st14" cx="160" cy="160" r="100"/>
		</g>
		<g>
			<polygon class="st15" points="196.2,249.1 123.8,249.1 113.5,193.4 206.5,193.4 			"/>
			<rect x="106.3" y="162.3" class="st16" width="107.3" height="31.1"/>
			<g>
				<rect x="154.7" y="90.7" class="st17" width="10.7" height="71.6"/>
				<g>
					<path class="st17" d="M126.8,143.9c11.8,11.8,33.2,9.5,33.2,9.5s2.3-21.4-9.5-33.2c-11.8-11.8-33.2-9.5-33.2-9.5
						S115,132.1,126.8,143.9z"/>
					<path class="st18" d="M117.3,110.7c0,0-2.3,21.4,9.5,33.2s33.2,9.5,33.2,9.5L117.3,110.7z"/>
				</g>
				<g>
					<path class="st17" d="M142.3,108.4c6.3,6.3,17.7,5.1,17.7,5.1s1.2-11.4-5.1-17.7c-6.3-6.3-17.7-5.1-17.7-5.1
						S136,102.1,142.3,108.4z"/>
					<path class="st18" d="M137.3,90.7c0,0-1.2,11.4,5.1,17.7s17.7,5.1,17.7,5.1L137.3,90.7z"/>
				</g>
				<g>
					<path class="st17" d="M188,118.7c-10,10-28,8-28,8s-1.9-18.1,8-28s28-8,28-8S198,108.8,188,118.7z"/>
					<path class="st18" d="M196,90.7c0,0,1.9,18.1-8,28c-10,10-28,8-28,8L196,90.7z"/>
				</g>
				<g>
					<path class="st17" d="M172.1,88.4c-6.2,6.2-17.4,5-17.4,5s-1.2-11.2,5-17.4c6.2-6.2,17.4-5,17.4-5S178.3,82.3,172.1,88.4z"/>
					<path class="st18" d="M177,71c0,0,1.2,11.2-5,17.4s-17.4,5-17.4,5L177,71z"/>
				</g>
			</g>
		</g>
	</g>
</g>
</svg>
