<?xml version="1.0" encoding="utf-8"?>
<!-- Generator: Adobe Illustrator 19.2.1, SVG Export Plug-In . SVG Version: 6.00 Build 0)  -->
<svg version="1.1" id="Layer_1" xmlns="http://www.w3.org/2000/svg" xmlns:xlink="http://www.w3.org/1999/xlink" x="0px" y="0px"
	 viewBox="0 0 305.9 80" style="enable-background:new 0 0 305.9 80;" xml:space="preserve">
<style type="text/css">
	.st0{fill:#FFFFFF;}
</style>
<g>
	<polygon class="st0" points="81,0.1 40.5,80 0,0.1 16.7,0.1 40.5,46.8 64.2,0.1 	"/>
	<rect x="191.5" y="0.1" class="st0" width="16.7" height="79.9"/>
	<path class="st0" d="M155,0.1v43c0,14.1-8.3,21.3-23.8,21.3s-23.8-7.2-23.8-21.3v-43H90.8v43c0,20.4,18.1,37,40.5,37
		s40.5-16.5,40.5-37v-43H155L155,0.1z"/>
	<path class="st0" d="M269.6,16.6c13.9,0,21,8.1,21,23.3s-7,23.3-21,23.3h-41.7v16.5h41.7v0.1c20.1,0,36.4-17.9,36.4-40
		S289.6,0,269.6,0h-31.9v16.6H269.6L269.6,16.6z"/>
</g>
</svg>
